<?xml version="1.0" encoding="UTF-8"?>
<svg id="Calque_1" xmlns="http://www.w3.org/2000/svg" version="1.1" viewBox="0 0 768 1280">
  <!-- Generator: Adobe Illustrator 29.8.3, SVG Export Plug-In . SVG Version: 2.1.1 Build 3)  -->
  <defs>
    <style>
      .st0 {
        fill: #ef9718;
      }
    </style>
  </defs>
  <g>
    <path class="st0" d="M457.1,707.5c50.2,8.7,102.2,18.6,152.2,28.8,13.6,2.7,31.2,6.1,44.6,9.1,29.6,6.8,59.1,14.7,87.9,24.4,0,0-.2.8-.2.8-6-.8-12-1.8-18.1-2.8-29.9-5.1-59.8-11.1-89.2-18.3-10-2.5-25.4-6.3-35.4-8.6-28.4-6.6-60.3-14-88.7-20.5-11.6-2.7-41.4-9.4-53.3-12.1,0,0,.2-.8.2-.8h0Z"/>
    <path class="st0" d="M517.5,690.6c33.1,2.6,68.8,6.2,101.9,9.9,9.2,1,20.8,2,29.9,3.3,19.9,2.9,39.7,6.8,59,12.4,0,0-.1.8-.1.8-1,0-2,0-3,0-3,0-6.1-.2-9.1-.3-12-.6-24.1-1.7-36-3-16-1.7-31.7-4.9-47.5-7.4,0,0-95.1-14.9-95.1-14.9v-.8h0Z"/>
    <path class="st0" d="M477,655.2c25.3-6,51.2-11.3,76.8-16.1,7-1.4,15.7-3.3,22.7-4.3,15.3-2.1,30.7-3.4,46.2-2.7,0,0,.1.8.1.8-.7.3-1.5.5-2.2.7-5.2,1.6-10.4,3-15.7,4.2-11.9,2.8-24.1,5.2-36.3,6.5-12.5,1.1-77.8,10-91.5,11.7,0,0-.1-.8-.1-.8h0Z"/>
    <path class="st0" d="M487.9,598.9c33.5-24.9,72.5-53.5,106.4-78.1,13.3-9.6,26.5-19.7,40-29.2,13.5-9.5,27.3-18.5,41.3-27.3,9.3-5.8,18.8-11.6,28.4-16.9l.5.7c-20.9,18-42.9,34.6-65.3,50.5-21.2,14.5-47.1,31.4-68.4,46.1-25.2,16.9-57.2,38.3-82.4,54.9,0,0-.5-.7-.5-.7h0Z"/>
    <path class="st0" d="M470,628.4c24.8-13.8,50.1-27.7,74.7-42,10.7-6.5,22.1-12.9,33.4-18.2,7.9-3.8,15.9-7.3,24.2-10.4.8-.3,1.5-.6,2.3-.8l.4.7c-.6.5-1.2,1-1.9,1.5-11.8,9.4-24.7,17.7-37.9,25-6.4,3.5-14.8,7.4-21.4,10.6-12.3,6.1-26.2,12.9-38.7,18.6-11.5,5.3-23.1,10.6-34.8,15.7l-.4-.7h0Z"/>
    <path class="st0" d="M436.4,682.1c52.8-5.6,107.8-9.3,160.8-10.6,14.4-.5,33-1,47.4-.9,31.6.5,63.4,2.4,94.7,6.7,0,0,0,.8,0,.8-6.3.3-12.7.4-19,.6-25.1.5-50.6.6-75.7.4-17.9-.2-38.9-.8-56.7-.8-36.9.1-76.7,1-113.5,2.6-9.4.4-28.5,1.4-37.8,2,0,0,0-.8,0-.8h0Z"/>
    <path class="st0" d="M401,664.6c5.3-4.3,10.7-8.5,16.2-12.6,3.7-2.7,7.4-5.3,10.9-8.2,3.6-2.9,7.8-4.7,12.2-6.1,2.2-.7,4.5-1.3,7.1-1.4l.4.7c-2.6,4.1-6,7.3-9.7,10.2-3.6,2.9-8,4.3-12,6.4-8.1,4.1-16.4,8.1-24.7,11.7,0,0-.4-.7-.4-.7h0Z"/>
    <path class="st0" d="M447.1,651.7c10-4.1,21-8.3,31.2-11.9,2.6-.9,5.2-2,7.8-3,5.2-2.1,10.7-3,16.3-3.5,2.8-.2,5.7-.3,8.7,0l.2.8c-4.6,3.6-9.7,6-15,8.1-5.2,2.1-10.8,2.6-16.2,3.8-10.6,2.3-22.1,4.6-32.8,6.5,0,0-.2-.8-.2-.8h0Z"/>
    <path class="st0" d="M415.5,669.2c8.2-1.7,16.5-3.4,24.5-5.7,0,0,2.6-.9,2.6-.9,4.5-1.5,9.3-1.5,13.9-.9,1,.1,2,.3,3.1.7l.2.8c-1.5,1.6-3.1,2.8-4.8,3.9-3.3,2-7,3.4-10.9,3.6-3.8,0-7.7.4-11.5.5-5.7,0-11.5-.2-17.1-.9,0,0,0-.8,0-.8h0Z"/>
    <path class="st0" d="M465.1,693.6c7.5-.4,15.3,0,22.8,1,2.8.4,5.8.4,8.5,1.2,1.9.5,3.6,1.3,5.3,2.2,2.7,1.5,5,3.2,7,5.8,0,0-.3.8-.3.8-3.9.8-7.8.6-11.6,0-2.6-.3-5.4-1.5-7.8-2.6-2.6-1.1-5.2-1.8-7.9-2.7-5.3-1.7-10.7-3.3-16.1-4.8,0,0,0-.8,0-.8h0Z"/>
    <path class="st0" d="M527.4,627.1c19.3-7.1,108-39.1,125.3-46,8.3-3.2,16.7-6.1,25.2-8.9,12.6-4.1,25.6-8,38.4-11.3,3.2-.8,6.6-1.7,9.8-2.4,1.1-.2,2.2-.5,3.3-.7l.3.8c-19.9,10.1-40.6,18.5-61.6,26-9.6,3.4-22,7.1-31.8,10.2-15.7,5-41.6,13.2-57.3,18-17,5.2-34.1,10.3-51.2,15.2l-.3-.8h0Z"/>
    <path class="st0" d="M410.5,591.5c1.2-18.8,2.8-45.5,3.8-63.9.6-10.6.4-21.3,1.8-31.9.3-2.3.7-5.7,1-7.9,1.2-8,2.5-15.9,4.7-23.8,0,0,.8,0,.8,0,.9,5.4,1.3,10.8,1.5,16.1.3,9.3.3,18.8-.7,28.1-.7,6.1-1.9,13.9-2.6,19.9-1.2,10-2.8,21.9-4.3,31.8-1.6,10.6-3.3,21.1-5.2,31.7h-.8Z"/>
    <path class="st0" d="M476.1,579.8c25-31.5,54.1-67.9,79.6-99.1,10-12.3,19.8-25,29.9-37.1,10.2-12.2,20.9-24,31.7-35.6,7.3-7.7,14.6-15.4,22.3-22.7l.6.5c-14.9,22-31.2,42.9-48.2,63.3-16.1,18.7-36,40.9-52.3,59.8-19.2,22-43.7,49.8-63.1,71.5,0,0-.6-.5-.6-.5h0Z"/>
    <path class="st0" d="M442.1,594.5c10-22.7,21.1-45.4,32.4-67.5,3-6,6.7-13.7,10.1-19.6,7.4-12.7,15.7-25,25.5-36.1,0,0,.7.4.7.4-2,5.6-4.4,11-6.8,16.4-4.9,10.6-10.3,21.1-16.5,31-1.5,2.5-5.5,8.8-7,11.2-6.5,10.8-13.7,23.2-20.1,34.1-5.9,10.1-11.8,20.3-17.6,30.5l-.7-.4h0Z"/>
    <path class="st0" d="M428.6,628.9c3.9-5.4,7.9-10.5,12.1-15.7,2.8-3.4,5.6-6.8,8.2-10.3,2.7-3.6,6.2-6.3,10-8.6,1.9-1.2,4-2.2,6.3-3l.6.6c-1.4,4.5-3.7,8.3-6.5,12-2.6,3.6-6.4,6-9.7,8.8-6.6,5.8-13.4,11.4-20.3,16.8,0,0-.6-.6-.6-.6h0Z"/>
    <path class="st0" d="M417.7,616.7c.9-7.3,2-14.6,3.2-21.9.8-4.8,1.7-9.7,2.3-14.5.7-4.9,2.5-9.5,4.7-13.9,1.2-2.2,2.5-4.4,4.2-6.5l.8.2c1,5.1.7,10.1,0,15.1-.6,4.9-2.9,9.4-4.4,14-3.1,9.3-6.4,18.6-10,27.7,0,0-.8-.2-.8-.2h0Z"/>
    <path class="st0" d="M400.8,645.9c-1.7-6.4-2.6-13.2-2.7-19.8,0-3.4-.7-6.8.5-10.1,1.1-3.4,2.9-6.6,5.6-9,0,0,.8.2.8.2,1.3,3.3,1.7,6.7,1.6,10.1,0,3.2-1.4,6.2-2,9.3-.2,1.2-.7,3.5-.9,4.7-.2,1.2-.6,3.6-.8,4.8-.5,3.2-.9,6.4-1.3,9.7h-.8Z"/>
    <path class="st0" d="M437.6,545.2c8.6-33.7,19.1-69.6,29-103,3.7-13,7.9-27,12.9-39.6,5-13,10.3-25.9,16.7-38.2,0,0,.8.3.8.3-.3,1.7-.8,4.2-1.2,5.9-1.3,5.8-2.7,11.6-4.2,17.4-4,15.3-8.5,30.6-14,45.4-12,32.3-27.8,79.5-39.2,112.2,0,0-.8-.2-.8-.2h0Z"/>
  </g>
  <path class="st0" d="M285.4,690.7c-40.5,7.9-86.6,16-127.4,22.6-11.5,1.9-26,4.5-37.6,6.1-9.7,1.4-20.4,2.5-30.3,3.4-15.2,1.4-30.4,2.5-45.7,2.7,0,0-.1-.8-.1-.8,19.7-4.8,39.9-8.3,59.9-11.5,17-2.8,35.6-4.7,52.8-6.7,23.9-3,74.6-9.6,98.1-12.6,0,0,30.2-4,30.2-4v.8h.1Z"/>
  <path class="st0" d="M229.5,736.3c-29.8,9.9-62.3,19.7-92.6,28.6-8.4,2.5-18.9,5.9-27.3,8.1-18.5,4.7-37.1,8.4-56.1,10.4,0,0-.2-.8-.2-.8.9-.4,1.8-.7,2.7-1.1,2.6-1,5.4-2.1,8-3.1,10.7-3.9,21.6-7.4,32.5-10.6,14.5-4.4,29.5-7.2,44.2-10.8,0,0,88.5-21.4,88.5-21.4l.2.8h0Z"/>
  <path class="st0" d="M281.8,747.1c-17.4,17.1-35.8,34-54.1,50.2-5,4.5-11.1,10.2-16.2,14.4-11.4,9.1-23.3,17.4-36.3,24.2,0,0-.5-.6-.5-.6,1.9-2.3,3.9-4.4,5.9-6.5,6-6.3,12.4-12.2,18.9-18,8.6-7.7,18.2-14.2,27.3-21.4,0,0,27.3-21.4,27.3-21.4l27.3-21.5.5.6h0Z"/>
  <path class="st0" d="M308.8,799.2c-12.1,36.7-26.4,79.1-39,115.7-5,14.4-9.5,29.1-14.7,43.4-5.2,14.4-10.9,28.5-16.9,42.6-4,9.4-8.2,18.7-12.7,27.8l-.8-.3c6.1-24.8,13.9-49,22.4-73,8.4-22.2,19.1-48.8,27.5-71.2,10.1-26.2,23.1-59.3,33.4-85.3,0,0,.8.3.8.3h0Z"/>
  <path class="st0" d="M304.8,766c-11.3,22-22.8,44.4-33.8,66.6-1.2,2.5-4.4,9.3-5.6,11.9-4.9,10.6-10.9,20.8-17.1,30.6-3.2,5-6.4,9.9-10,14.6,0,0-.7-.4-.7-.4,2.3-8.6,5.5-16.8,9-25,2.9-6.7,6-13.5,9.6-19.8,3.3-5.8,7.8-13.2,11.1-19,5.5-9.6,12.2-20.9,18-30.2,6.2-10,12.4-19.9,18.9-29.7l.7.4h0Z"/>
  <path class="st0" d="M304.3,696.2c-35.4,35.1-74,69.7-112.5,101.3-10.5,8.8-23.8,19.8-34.7,28-18.9,14.3-38.7,27.8-59,40.1-5.1,3-10.2,6.1-15.4,9l-.5-.7c4.5-3.9,9.1-7.6,13.8-11.4,18.4-14.8,37.2-29.6,56-43.9,18.3-13.7,38.7-28.7,56.5-43,22.3-17.8,46.9-38.1,68.5-56.7,6.7-5.8,20.1-17.6,26.7-23.5,0,0,.6.6.6.6h0Z"/>
  <path class="st0" d="M339.1,702.9c-1.7,6.1-3.7,12.1-5.7,18.1-1.4,4-2.8,7.9-4,12-1.2,4.1-3.5,7.6-6.2,11-1.4,1.7-2.9,3.3-4.8,4.7l-.7-.3c-.3-4.6.5-8.7,1.8-12.9,1.2-4.1,3.9-7.4,5.9-11.1,4.1-7.4,8.4-14.6,12.9-21.7,0,0,.7.3.7.3h0Z"/>
  <path class="st0" d="M309,735.8c-5.8,8.2-12.4,16.9-18.7,24.8-1.6,2-3.1,4.2-4.6,6.2-3.1,4.2-7,7.6-11.2,10.7-2.2,1.5-4.4,3-7,4.1l-.6-.5c1.7-5.2,4.5-9.6,7.7-13.9,3-4.2,7.3-7.3,11-10.9,7.3-7,15.3-14.4,22.9-21,0,0,.6.5.6.5h0Z"/>
  <path class="st0" d="M327.3,697.1c-3.1,4.1-6.2,8.2-9.1,12.5-1.4,2.1-2.9,4.1-4.2,6.4,0,0-1.2,2.2-1.2,2.2-2.1,3.8-5.4,6.7-9,9.1-.8.5-1.6,1-2.6,1.4l-.7-.4c-.1-2.1.2-3.9.7-5.7,1-3.4,2.6-6.8,5.2-9.3,1.3-1.2,2.7-2.4,3.9-3.6.9-.9,2.9-2.8,3.8-3.6,3.9-3.4,8.2-6.7,12.6-9.5,0,0,.5.6.5.6h0Z"/>
  <path class="st0" d="M264.5,714.8c-6.3,4.1-13.2,7.5-20.2,10.2-2.7,1-5.2,2.4-8,3.1-1.9.5-3.8.6-5.7.6-3.1,0-5.9-.4-8.9-1.6,0,0-.1-.8-.1-.8,3-2.6,6.5-4.3,10.1-5.7,2.5-1,5.4-1.3,8.1-1.5,2.7-.3,5.4-.9,8.1-1.5,5.5-1.1,10.9-2.3,16.3-3.7,0,0,.3.7.3.7h0Z"/>
  <path class="st0" d="M257.8,794.5c-15.1,19.5-45.4,58.8-60.5,78.3-10.1,13.1-19.5,26.6-30.2,39.2-10.6,12.6-21.6,25.2-33.3,36.7,0,0-.6-.5-.6-.5,6.2-10.8,13.1-21.1,20.3-31.2,4.7-6.5,9.8-13.6,14.8-19.8,4.4-5.5,11.3-13.6,15.9-19,11.6-13.6,28.3-33.5,40.2-47.1,10.8-12.4,21.7-24.8,32.8-37.1l.6.5h0Z"/>
  <path class="st0" d="M467.8,742c42.4,15.8,96,36.3,138.7,51.5,18.5,6.6,36.9,14.3,54.8,22.2,9,4,18,8.2,26.8,12.7,0,0-.3.8-.3.8-23.9-6-47.5-14-70.5-22.7-10.5-4.1-23.7-9.8-34.2-14.2-32.2-13.3-70.2-29.5-102.1-43.6,0,0-13.5-6-13.5-6l.3-.8h0Z"/>
  <path class="st0" d="M408.9,756.1c17.2,17.9,41.3,43.9,58.8,61.3,6,5.9,11.6,12.4,16.9,19,3.6,4.4,7.1,8.9,10.4,13.6,1.7,2.3,3.3,4.7,4.8,7.2l-.6.6c-7.1-5-13.5-10.5-19.8-16.4-5.1-4.8-10.3-9.9-14.9-15.2-4.2-4.9-9.4-11.4-13.6-16.4-6.9-8.1-15-17.9-21.7-26.3-7.1-8.9-14.1-17.8-21-26.8l.6-.5h0Z"/>
  <path class="st0" d="M492.9,772.4c34.2,17,69.1,34.2,103.4,50.9,14,6.6,29.1,13.4,42.7,20.7,7.8,4.1,16.2,8.7,23.8,13,5.9,3.4,11.8,6.8,17.6,10.4,1.5.9,4.3,2.7,5.8,3.7,0,0-.4.7-.4.7-21.4-7.3-42.3-16.5-62.6-26.4-9.3-4.6-20.8-11.1-29.9-16-17.2-9.2-36.6-19.8-53.6-29.3-15.8-8.9-31.5-17.8-47.1-27l.4-.7h0Z"/>
  <path class="st0" d="M330.8,809.5c-.7,38.1-1.8,82.1-3.1,120.3-.5,15-.5,30.1-1.2,45.1-.7,15-2,30-3.6,45-1.1,10-2.3,20-4,29.9h-.8c-1.5-25.1-1.2-50.2-.1-75.3,1.4-23.3,3.8-51.5,5.2-75,2-27.6,4.5-62.5,6.8-90,0,0,.8,0,.8,0h0Z"/>
  <path class="st0" d="M349.7,781c6.1,23.3,11.3,47.4,15.9,71.1,1.3,6.4,3.1,14.6,4.1,21.1,2,14.2,3,28.6,2,43,0,0-.8.1-.8.1-1.9-5.5-3.3-11-4.7-16.6-2.6-11.1-4.8-22.3-6-33.6-.3-2.8-1.1-10-1.4-12.7-1.5-12.2-3.5-26-5.1-38.1-1.6-11.3-3.2-22.6-4.8-33.9l.8-.2h0Z"/>
  <path class="st0" d="M412.4,742c32.2,23.9,66.6,47.7,100.2,69.5,12.2,7.9,26.5,16.4,38.8,24.1,17.1,10.9,34.2,22.2,50.8,33.7,4.2,2.9,8.4,5.8,12.5,8.9l-.4.7c-23.4-10.2-45.8-22.6-67.4-36.1-12.2-7.8-26-17.6-37.9-25.9-24.4-17-50.2-36.3-73.4-54.9-5.9-4.7-17.8-14.5-23.6-19.4,0,0,.5-.6.5-.6h0Z"/>
  <path class="st0" d="M339,745.9c.1,6.2,0,12.4-.1,18.6-.2,4.1-.4,8.2-.3,12.4,0,4.2-1.1,8.2-2.8,12.1-.9,2-1.8,3.9-3.3,5.8h-.8c-1.6-4.3-2-8.5-2-12.8,0-4.2,1.5-8.1,2.4-12.1,1.7-8.1,3.8-16.1,6-24,0,0,.8.1.8.1h0Z"/>
  <path class="st0" d="M355.8,750.8c5.2,8.5,10.1,17.2,14.8,26,1.2,2.2,2.5,4.3,3.7,6.5,2.6,4.3,4,9.1,5,14,.5,2.5.8,5.1.8,7.8l-.7.3c-4-3.5-6.8-7.6-9.4-12.1-2.6-4.3-3.6-9.3-5.3-13.9-3.4-9.4-6.6-18.8-9.6-28.3,0,0,.7-.3.7-.3h0Z"/>
  <path class="st0" d="M366.7,709.8c3.8,3.4,7.3,7.3,10.4,11.4.8,1,2.3,3.1,3,4.2,2,2.8,4.4,5.5,5.3,8.9,1,3.5,1.4,7.2.4,10.9,0,0-.8.3-.8.3-2.3-1.6-4-3.6-5.7-5.7-1.5-2-2.8-4.1-3.5-6.5-1.3-4.8-3.6-9.3-5.6-13.8-1.4-3-2.9-6-4.4-9.1l.6-.5h0Z"/>
  <path class="st0" d="M410.6,711.2c5.2,2,10.3,3.9,15.5,5.6,2.6.9,5.1,1.8,7.8,2.5,0,0,2.7.6,2.7.6,4.5,1.1,8.5,3.6,12,6.5.7.6,1.5,1.3,2.2,2.2l-.2.8c-2.1.6-4.1.7-6,.7-3.8-.1-7.6-.8-10.9-2.7-1.6-.9-3.2-2-4.9-2.9-1.2-.7-3.7-2.1-4.9-2.8-4.7-2.9-9.4-6.2-13.6-9.8,0,0,.4-.7.4-.7h0Z"/>
  <path class="st0" d="M425,806.2c19.7,29.6,39.7,62,58.4,92.4,7.4,11.7,15.1,24.5,21.3,36.8,6.5,12.6,12.6,25.5,17.7,38.8,0,0-.7.4-.7.4-1-1.4-2.6-3.5-3.6-4.9-3.6-4.9-7-10-10.3-15.1-8.8-13.5-17.4-27.4-24.9-41.6-16.4-31.1-41.4-75.3-58.5-106.3,0,0,.7-.4.7-.4h0Z"/>
  <path class="st0" d="M283.8,595.8c-36.5-29.9-73.9-61.5-109.4-92.6-9.8-8.5-22.2-19-31.8-27.7-20.6-19.1-40.7-39-59.2-60.1,0,0,.6-.6.6-.6,4.5,3.4,8.9,6.9,13.3,10.5,21.7,17.7,43.1,36.1,63.4,55.5,6.9,6.6,17.5,16.7,24.5,23.2,19.8,18.4,42,38.9,61.9,57.1,8.1,7.5,29,26.5,37.3,34.1,0,0-.5.6-.5.6h0Z"/>
  <path class="st0" d="M282.4,521.5c-14-29.2-27.4-59.5-39.8-89.5-3.5-8.1-8-18.4-11.1-26.6-6.3-17.1-11.7-34.8-15.5-52.6-.2-1-.4-1.9-.6-2.9l.8-.3c.8,1.4,1.9,3.7,2.7,5.2,5.1,10.3,9.8,20.9,14.2,31.5,2.9,7,5.8,14.3,8.3,21.4,2.9,8.3,6.5,19,9.4,27.2,4.9,13.5,10.9,29.7,16,43.2,5.4,14.4,10.9,28.7,16.3,43.1l-.7.3h0Z"/>
  <path class="st0" d="M332.1,583c-13.2-43.6-28.3-94.3-41-138.1-5-17.1-10.5-34.6-15.3-51.8-4.8-17.4-9-34.9-13-52.4-2.6-11.7-5.1-23.5-7.2-35.4l.8-.2c10.6,28.1,19.5,56.8,27.6,85.8,7.2,27.1,15.2,59.9,22.4,87.2,8.2,32.1,18.5,72.8,26.5,104.8,0,0-.8.2-.8.2h0Z"/>
  <path class="st0" d="M268.5,540.6c-17.5-22.1-35.5-44.5-53.4-66.3-8.8-10.8-18.8-21.6-27-32.8-7.4-9.9-14.7-20.1-21.3-30.6-.7-1.2-2.1-3.4-2.8-4.6,0,0,.6-.5.6-.5.7.6,1.4,1.2,2,1.8,12.5,11.4,24,24,34.6,37.1,5.1,6.4,11,14.8,15.9,21.4,9.1,12.3,19.3,26.4,28.1,38.9,8.1,11.7,16.2,23.4,24,35.2l-.7.5h0Z"/>
  <path class="st0" d="M352.5,571.1c-2-23.4-4.2-47.3-6.4-70.6-.9-9.3-2.2-20.9-3.4-30.2-1.3-10-2-20.2-2.4-30.3-.4-9.3-.5-18.7-.2-28,0-.9,0-1.7.1-2.6h.8c.3.7.5,1.6.7,2.4,4.1,15.6,6.7,31.6,8.2,47.6.7,7.7,1,17.6,1.3,25.4.7,14.5,1.4,31.1,1.7,45.6.3,13.5.4,27.1.3,40.6h-.8Z"/>
  <path class="st0" d="M294.5,641.8c-24.3-16.5-49.3-33.3-73.8-49.6-12.1-8-25.4-15.8-37.1-24.4-10.5-7.6-21-15.5-30.8-23.9-1.1-1-3.1-2.7-4.2-3.7,0,0,.4-.7.4-.7.9.4,1.7.8,2.6,1.2,15.9,7.6,31.2,16.6,45.9,26.5,7,4.8,15.6,11.4,22.5,16.4,12.9,9.4,27.5,20.3,40.1,30,11.7,9.1,23.4,18.2,34.9,27.6l-.5.7h0Z"/>
  <path class="st0" d="M270.1,644.1c-37.5-15.4-77.3-30.2-115.7-43.2-13.9-4.7-30.1-9.5-44.1-14-14.5-4.7-29.4-9.9-43.8-15-9.7-3.5-19.4-7-29-10.9,0,0,.2-.8.2-.8,5.1.8,10.2,1.8,15.3,2.8,20.2,4.2,40.3,9.5,59.9,15.9,13.9,4.6,29.9,10.8,43.6,16,28.2,10.6,58.3,23.1,85.8,35.5,7,3.1,21.1,9.7,28,13.1,0,0-.3.7-.3.7h0Z"/>
  <path class="st0" d="M330.1,621.8c-7.3-10.9-15-23.1-21.9-34.3-1.8-2.9-3.7-5.7-5.5-8.5-3.7-5.7-6.4-11.9-8.7-18.4-1.1-3.3-2.1-6.6-2.7-10.1l.7-.4c5.1,4.8,9.1,10.3,12.9,16.1,3.8,5.7,6.1,12.1,9,18.2,5.7,11.9,11.7,24.9,16.9,37,0,0-.7.4-.7.4h0Z"/>
  <path class="st0" d="M356.2,650.5c-2.3-7-4.4-14-6.4-21.1-1.3-4.7-2.5-9.5-4.1-14.1-1.5-4.7-1.8-9.6-1.7-14.6.1-2.5.3-5,1-7.7l.8-.2c3.1,4.2,4.9,8.8,6.4,13.7,1.5,4.7,1.4,9.7,2,14.5,1.2,9.7,2.1,19.5,2.8,29.3,0,0-.8.2-.8.2h0Z"/>
  <path class="st0" d="M343,656.2c-7.2-4.5-14.5-8.7-22-12.7-3.6-1.9-7.9-3.2-11.2-5.7-3.6-2.6-6.9-5.4-9.6-9,0,0,.3-.7.3-.7,1.2,0,2.4,0,3.5,0,5.5.7,10.9,2.4,15.3,5.8,3.3,2.7,6.9,5.4,10.2,8.1,4.9,4.2,9.7,8.7,13.9,13.6,0,0-.5.6-.5.6h0Z"/>
  <path class="st0" d="M332,673.4c-9.5-1.5-18.9-2.9-28.5-4-2-.2-5-.4-7.1-.5-3.6-.2-7.1-.9-10.5-1.9-3.6-1.1-7.1-2.3-10.3-4.3,0,0,0-.8,0-.8,2.5-1,5-1.4,7.5-1.8,4.9-.6,9.9-.5,14.6.8,4.5,1.4,9.5,2.7,14.1,4,6.9,2.2,13.9,4.7,20.5,7.6,0,0-.2.8-.2.8h0Z"/>
</svg>