<?xml version="1.0" encoding="UTF-8"?>
<svg xmlns="http://www.w3.org/2000/svg" version="1.1" viewBox="0 0 351.3 391.9">
  <!-- Generator: Adobe Illustrator 29.8.3, SVG Export Plug-In . SVG Version: 2.1.1 Build 3)  -->
  <defs>
    <style>
      .st0 {
        opacity: .3;
      }

      .st0, .st1, .st2, .st3, .st4, .st5, .st6, .st7, .st8, .st9, .st10, .st11, .st12 {
        fill: #fbdba4;
      }

      .st0, .st2, .st5, .st7, .st10, .st11, .st12 {
        mix-blend-mode: multiply;
      }

      .st1 {
        opacity: .5;
      }

      .st1, .st3, .st4, .st6, .st8 {
        mix-blend-mode: screen;
      }

      .st2 {
        opacity: .4;
      }

      .st3 {
        opacity: .2;
      }

      .st13 {
        fill: none;
      }

      .st14 {
        isolation: isolate;
      }

      .st4 {
        opacity: .2;
      }

      .st5 {
        opacity: .1;
      }

      .st6 {
        opacity: .1;
      }

      .st7 {
        opacity: .1;
      }

      .st8 {
        opacity: .1;
      }

      .st10 {
        opacity: .2;
      }

      .st11 {
        opacity: .4;
      }

      .st12 {
        opacity: .5;
      }
    </style>
  </defs>
  <g class="st14">
    <g id="Calque_2">
      <path class="st9" d="M21,327.1c.2-.1.3-.2.5-.2-.2,0-.3.1-.5.2Z"/>
      <path class="st9" d="M335.9,47.9c-2,2-3.9,4.2-5.7,6.3,1.8,1.2,3.7,2.2,5.7,3.1v38.2c-1.9,2.6-3.9,5.1-6.1,7.5-4.3,4.9-9.2,9.4-14.8,12.5-.6.3-1.3.7-1.9,1-.1,0-.3.1-.4.2.2,0,.3,0,.5,0,7.6-.9,15.5,0,22.7,2.8v4.6c-1.8,1.2-3.6,2.3-5.4,3.5,2.2,2.7,4,5.6,5.4,8.7v102.6c-1.5,12.5-4.9,24.8-10.1,36.3-1.4,0-2.9.3-4.3.7-2.1.6-4.1,1.7-5.8,3.1,1.1-.1,2.3-.3,3.5-.3,1,0,2,0,3,0,1.9.1,3.8.6,5.4,1.6,3.4,2.2,4.5,8.1,1,10.1,3.1.8,5.6,2.9,7.4,5.5v17.3c-.1.2-.3.3-.4.5-1.2,1.3-2.7,2.5-3.2,4.2-.5,1.6-.1,3.3.2,5,2,9.8,1.5,20.1-1.7,29.6,1.7.4,3.4.8,5.1,1.2v34.2H14.3v-41c2.1-1.7,3.9-3.6,5.6-5.7-1.9-.2-3.7-.4-5.6-.6v-4.6c2.2-1.6,4.4-3.1,6.6-4.7,1.1-.8,1.6-2.8,1.3-3.8-.1-.4-.3-.6-.7-.6,2.5-1,4.6-2.9,5.8-5.2-3.6-.9-7.2-1.8-10.8-2.8-.5-.1-1-.3-1.6-.4-.5-4.3.5-8.7,2.7-12.4,2.8-4.8,7.4-8.6,12.8-9.9-.4-.2-.7-.5-1.1-.7-5-3.1-10-6.2-15.1-9.3v-6c3.2-1.7,6.3-3.7,9.1-6.1-4.5.3-7.8-3.6-9.1-8.1v-8c1-4.6,3.1-9,4.2-13.6.5-2.1.7-4.3.8-6.5.2-4.4-.2-8.9-.7-13.3-.1-1.1-.2-2.3-.3-3.4-1-10.2-2.1-20.3-3.1-30.5-.3-3.3-.7-6.6-.9-10v-13.3c.4-4.6,1.3-9.2,3-13.5.1-.3.3-.7.4-1,.8-2,1.7-4.1,1.7-6.3,0-2.5-2.1-5.3-4.6-5,.5-5.8.6-11.7.6-17.6,0-.4,0-.8,0-1.1,0-1.8,0-3.6,0-5.4,0-.4,0-.7,0-1.1,0-1.4,0-2.7,0-4.1,0-2.1,0-4.3,0-6.4,0-6.4.1-12.8.2-19.2,0-2.3,0-4.7,0-7,0-1.3,0-2.5,0-3.8,0-1.8,0-3.6,0-5.4,1.6-.8,3.1-1.6,4.7-2.5,1-.5,2-1.1,3-1.6-1.2-1.4-2.3-2.8-3.3-4-2-2.4-3.9-4.4-5.9-5.9V16.3h321.6v31.6Z"/>
      <path class="st0" d="M335.9,47.9c-2,2-3.9,4.2-5.7,6.3,1.8,1.2,3.7,2.2,5.7,3.1v32.1c-25.8-20.5-59.1-30.5-91-39.8-10.1-2.9-20.3-5.9-30.6-7.7-14.2-2.5-28.7-3-43.1-3-31.4-.2-64,1.6-91.6,16.6-25.3,13.8-44.4,38.5-51.3,66.5-2.8,11.3-13.5,27.1,2.7,31.7-4.4-.2-8.9-.4-13.3-.6.8-2,1.7-4.1,1.7-6.3,0-2.5-2.1-5.3-4.6-5,.5-6.2.6-12.5.6-18.7,0-1.8,0-3.6,0-5.4,0-.4,0-.7,0-1.1,0-1.4,0-2.7,0-4.1,0-2.1,0-4.3,0-6.4,0-6.4.1-12.8.2-19.2,0-2.3,0-4.7,0-7,0-3.1,0-6.1,0-9.2,1.6-.8,3.1-1.6,4.7-2.5,1-.5,2-1.1,3-1.6-1.2-1.4-2.3-2.8-3.3-4-2-2.4-3.9-4.4-5.9-5.9V16.3h321.6v31.6Z"/>
      <path class="st10" d="M335.9,47.9c-2,2-3.9,4.2-5.7,6.3,1.8,1.2,3.7,2.2,5.7,3.1v38.2c-1.9,2.6-3.9,5.1-6.1,7.5-4.9,5.5-10.5,10.6-17.2,13.7,7.8-1,15.9,0,23.2,2.7v4.6c-1.8,1.2-3.6,2.3-5.4,3.5,2.2,2.7,4,5.6,5.4,8.7v102.6c-1.5,12.5-4.9,24.8-10.1,36.3-1.4,0-2.9.3-4.3.7-3.3-14.2-8.9-27.9-10.2-42.4-1.2-13.3,1.3-26.7-.2-39.9-3.3-27.6-23.9-54.2-15.5-80.7,2.7-8.6,8.5-16.6,8.1-25.6-.5-11.8-11.2-20.5-21.8-25.7-30.1-14.9-65.5-14.7-98.5-8.6-33,6.2-64.6,18-97.2,25.8-26,6.2-56,12.1-70.8,33.5,0-2.1,0-4.3,0-6.4,0-6.4.1-12.8.2-19.2,0-2.3,0-4.7,0-7,0-3.1,0-6.1,0-9.2,1.6-.8,3.1-1.6,4.7-2.5,1-.5,2-1.1,3-1.6-1.2-1.4-2.3-2.8-3.3-4-2-2.4-3.9-4.4-5.9-5.9V16.3h321.6v31.6Z"/>
      <path class="st10" d="M332.2,318c-.5,1.6-.1,3.3.2,5,2,9.8,1.5,20.1-1.7,29.6,1.7.4,3.4.8,5.1,1.2v34.2H14.3v-41c2.1-1.7,3.9-3.6,5.6-5.7-1.9-.2-3.7-.4-5.6-.6v-4.6c2.2-1.6,4.4-3.1,6.6-4.7,1.1-.8,1.6-2.8,1.3-3.8,4.1.8,8.2-.2,10.6-3.6.2,3.6.4,7.2.5,10.8,30.5,3.1,60.9,6.2,91.4,9.3,33,3.4,66.3,6.8,99.4,4.6,18.9-1.2,37.7-4.3,56.1-8.7,13.2-3.1,27.1-7.5,35.5-18.2,9.3-11.8,9.5-28.3,6.4-43,1.9.1,3.8.6,5.4,1.6,3.4,2.2,4.5,8.1,1,10.1,3.1.8,5.6,2.9,7.4,5.5v17.3c-.1.2-.3.3-.4.5-1.2,1.3-2.7,2.5-3.2,4.2Z"/>
      <path class="st5" d="M321.5,275.9c-2.1.6-4.1,1.7-5.8,3.1,2.1-.2,4.3-.5,6.5-.3,1.9.1,3.8.6,5.4,1.6,3.4,2.2,4.5,8.1,1,10.1,3.1.8,5.6,2.9,7.4,5.5v17.3c-.1.2-.3.3-.4.5-1.2,1.3-2.7,2.5-3.2,4.2-.5,1.6-.1,3.3.2,5,2,9.8,1.5,20.1-1.7,29.6,1.7.4,3.4.8,5.1,1.2v34.2H14.3v-41c2.1-1.7,3.9-3.6,5.6-5.7-1.9-.2-3.7-.4-5.6-.6v-4.6c2.2-1.6,4.4-3.1,6.6-4.7,1.1-.8,1.6-2.8,1.3-3.8-.1-.4-.3-.6-.7-.6,2.5-1,4.6-2.9,5.8-5.2-4.1-1.1-8.3-2.1-12.4-3.2-.5-4.3.5-8.7,2.7-12.4,6.5,11.7,17.5,20.7,29.8,26.1,18.1,7.9,38.3,9,58,10,12.4.6,24.9,1.2,37.3,1.9,23.9,1.2,48.2,2.4,71.7-2.4,23.5-4.7,46.5-16.1,60.6-35.6,6.8-9.4,11.2-20.2,16.1-30.7,7.5-15.9,16.3-31.1,25-46.3,6-10.4,12.2-21,19.9-30.2v40c-1.5,12.5-4.9,24.8-10.1,36.3-1.4,0-2.9.3-4.3.7Z"/>
      <path class="st0" d="M335.9,47.9c-2,2-3.9,4.2-5.7,6.3,1.8,1.2,3.7,2.2,5.7,3.1v10.7c-30.2-15.6-62.8-24.1-95.6-24.9-15.5-.4-31.1.9-46.4-1.5-8.9-1.4-110.3,0-149,19.9-10,5.2-20.1,10.9-29.1,18.2,0-3.1,0-6.1,0-9.2,2.5-1.3,5.1-2.7,7.6-4-3.4-4.1-6.2-7.7-9.2-10v-23.3c2.1-5.6,4.2-11.3,6.3-16.9h315.3v31.6Z"/>
      <path class="st2" d="M335.9,47.9c-2,2-3.9,4.2-5.7,6.3,1.8,1.2,3.7,2.2,5.7,3.1v13.9c-21.2-7.3-43.6-11-65.8-14.6-30.8-5-61.8-10-93-10.4-12.2-.2-24.4.4-36.6,1-29.2,1.3-58.7,2.7-86.7,10.9-13.6,4-25.5,12.1-38.1,17.7,0-1.8,0-3.6,0-5.4,1.6-.8,3.1-1.6,4.7-2.5,1-.5,2-1.1,3-1.6-1.2-1.4-2.3-2.8-3.3-4-2-2.4-3.9-4.4-5.9-5.9V16.3h321.6v31.6Z"/>
      <path class="st8" d="M54.9,186.6c.9,2.8.9,5.9,1.3,8.8,1.6,10.4,8.4,19.3,16.6,25.7,9.1,7.1,23.6,10.9,31.2,2.1,1.7,4.8,6.4,8.3,11.4,8.5-2.4,7.7-4.8,15.7-4.2,23.8s4.9,16.5,12.3,19.3c9.8,3.7,24.5-1.2,28.6,8.7,7.4-8.8,14.8-17.6,22.2-26.5-4.9,15.6,1,34,13.8,43.7,4,.4,8.1.9,12.1,1.3,3.6,9.9,17.6,13.6,25.5,6.8,0,5,7.2,8.1,10.6,4.6,3.9,5.8,11.3,7.8,18,9.4,7.1,1.7,14.5,3.4,21.6,1.5s13.4-8.7,12.3-16.1c4.8,2.6,6.6,9,5.5,14.5-1.6,7.9-8.2,13.9-15.5,16.9s-15.3,3.4-23.2,3.8c-13.1.7-26.1,1.4-39.2,2-2.3.1-4.7.2-6.7-.8-4-1.9-5.7-7.2-9.8-8.9-4.7-2-9.7,1.7-13.5,5.2-11.2,0-22.4-.2-33.6-.3-1.5,0-3.1,0-4.4-1-2.2-1.6-2.1-4.8-2.9-7.4-2-6.2-11-8.3-15.4-3.6-.6-3.9-1.2-7.7-1.8-11.6-10.5,6.5-21.9,13.2-34.1,12.3-12.2-1-24.1-13.7-19.7-25.4-3.6,2.6-8.2,3.7-12.5,3-5.3-17.2-8.1-35.2-8.2-53.2-1.7-.4-3.3-.8-5-1.2-1.4-.3-9.8-60.8-10.1-66.6-1.3-22.6,11.3-17.5,16.9.6Z"/>
      <path class="st6" d="M232.8,51.6c8.8,2.4,17.7,4.7,26.5,7.1,3.9,1,7.8,2.1,11.8,2.1,3.8,0,7.6-1,11.3-2,7.2-1.9,14.4-3.9,21.6-5.8,7.5,14.6-8.1,31-8.1,47.5,0,6.1,2.2,12,2.3,18.1.1,11.8-7.8,22.5-7.9,34.3-.1,8.4,3.7,16.4,3.4,24.8-.3,8.4-8.1,17.6-15.5,13.9,3.6,10.3-10.7,20.1-20.1,14.8-9.4-5.2-11.4-19-7.1-29,2.1-4.8,5.4-10.5,2.6-14.9-1.3-2-3.5-3.1-5.4-4.6-5.6-4.4-7.6-13-4.5-19.5-7.8-.5-16.7-1.6-21.1-8.2-1.7-2.6-2.5-5.7-3.8-8.6-7.1-15.2-26.6-17.8-43-18.5-2.7-11.4-15.2-17.8-26.6-17.7-11.4,0-22.2,5-32.9,9.1-13.8,5.3-49.7,8.5-29.4-16.2,8.3-10.1,25.6-7.9,36.8-13.3,10.1-4.9,10.6-8.2,21.8-7.3,9.2.7,18.9,6.8,28.6,7.8,20.3,2,41.3-2.7,58.6-13.9Z"/>
      <path class="st7" d="M232.5,227.5c-.3-.7,0-2.1.4-2.1.4,0,.6.9.8,1.8,0,.4.1.9.2,1.2.2.6.6.5.9.7.3.2.6,1.2.4,1.8-.7,1.4-1.7-.2-2.5-.4-.7-.1-1.4.7-2.1.7-.7,0-1.5-1.7-1.3-3.6,1.1-.5,2.3-.7,3.4-.5"/>
      <path class="st11" d="M241.9,236.6c-.3-.7,0-2.1.4-2.1.4,0,.6.9.8,1.8,0,.4.1.9.2,1.2.2.6.6.5.9.7.3.2.6,1.2.4,1.8-.7,1.4-1.7-.2-2.5-.4-.7-.1-1.4.7-2.1.7-.7,0-1.5-1.7-1.3-3.6,1.1-.5,2.3-.7,3.4-.5"/>
      <path class="st11" d="M263,227.7c-.3-.7,0-2.1.4-2.1.4,0,.6.9.8,1.8,0,.4.1.9.2,1.2.2.6.6.5.9.7.3.2.6,1.2.4,1.8-.7,1.4-1.7-.2-2.5-.4-.7-.1-1.4.7-2.1.7-.7,0-1.5-1.7-1.3-3.6,1.1-.5,2.3-.7,3.4-.5"/>
      <path class="st11" d="M293.4,275.3c-1.6-.3.3-.9,2.5-.9,2.2,0,4,.4,4.9.8.4.2.7.4,1.5.5,1.4.3,3.6.2,5.5.3s3.8.5,2.5.8c-4.5.6-10.4,0-15.8-.2-4.5,0-8.8.3-13.3.3-4.5,0-9.6-.7-8.4-1.5,7-.2,14.1-.3,21.2-.2"/>
      <path class="st11" d="M296.2,112.9c-1.6-.3.3-.9,2.5-.9,2.2,0,4,.4,4.9.8.4.2.7.4,1.5.5,1.4.3,3.6.2,5.5.3,1.9,0,3.8.5,2.5.8-4.5.6-10.4,0-15.8-.2-4.5,0-8.8.3-13.3.3-4.5,0-9.6-.7-8.4-1.5,7-.2,14.1-.3,21.2-.2"/>
      <path class="st11" d="M40.4,146.2c-1.6-.3.3-.9,2.5-.9,2.2,0,4,.4,4.9.8.4.2.7.4,1.5.5,1.4.3,3.6.2,5.5.3,1.9,0,3.8.5,2.5.8-4.5.6-10.4,0-15.8-.2-4.5,0-8.8.3-13.3.3-4.5,0-9.6-.7-8.4-1.5,7-.2,14.1-.3,21.2-.2"/>
      <path class="st11" d="M48.9,295.2c-1.6-.3.3-.9,2.5-.9,2.2,0,4,.4,4.9.8.4.2.7.4,1.5.5,1.4.3,3.6.2,5.5.3s3.8.5,2.5.8c-4.5.6-10.4,0-15.8-.2-4.5,0-8.8.3-13.3.3-4.5,0-9.6-.7-8.4-1.5,7-.2,14.1-.3,21.2-.2"/>
      <path class="st11" d="M47.7,324.8c-1.6-.3.3-.9,2.5-.9,2.2,0,4,.4,4.9.8.4.2.7.4,1.5.5,1.4.3,3.6.2,5.5.3,1.9,0,3.8.5,2.5.8-4.5.6-10.4,0-15.8-.2-4.5,0-8.8.3-13.3.3-4.5,0-9.6-.7-8.4-1.5,7-.2,14.1-.3,21.2-.2"/>
      <path class="st7" d="M231.5,245.7c-.3-.7,0-2.1.4-2.1s.6.9.8,1.8c0,.4.1.9.2,1.2.2.6.6.5.9.7.3.2.6,1.2.4,1.8-.7,1.4-1.7-.2-2.5-.4-.7-.1-1.4.7-2.1.7-.7,0-1.5-1.7-1.3-3.6,1.1-.5,2.3-.7,3.4-.5"/>
      <path class="st2" d="M19.9,318.1c14.3,1.4,28.5,3.7,42.5,6.8-13.3.8-28.8,2.9-35.5,14.5-1.8,3.2-2.8,6.9-5.1,9.7-2,2.4-4.6,3.9-7.5,5.2v-7.5c2.1-1.7,3.9-3.6,5.6-5.7-1.9-.2-3.7-.4-5.6-.6v-4.6c2.2-1.6,4.4-3.1,6.6-4.7,1.1-.8,1.6-2.8,1.3-3.8-.1-.4-.3-.6-.7-.6,2.5-1,4.6-2.9,5.8-5.2-3.6-.9-7.2-1.8-10.8-2.8-.5-.1-1-.3-1.6-.4-.5-4.3.5-8.7,2.7-12.4,2.8-4.8,7.4-8.6,12.8-9.9-.4-.2-.7-.5-1.1-.7-5-3.1-10-6.2-15.1-9.3v-6c3.2-1.7,6.3-3.7,9.1-6.1-4.5.3-7.8-3.6-9.1-8.1v-8c1-4.6,3.1-9,4.2-13.6.5-2.1.7-4.3.8-6.5,0,.3,0,.6,0,.9.3,4.3.5,8.7-.4,12.9-.6,2.7-1.7,5.3-1.6,8.1.4,8.1,10.2,11.6,18.2,13.1-5.9,3-11.1,7.4-14.9,12.8,7.3-1.7,15.5.7,20.7,6.1,8.4,1,16.6,2.9,24.6,5.7-7.2,4.9-16.4,5.4-25,7-8.6,1.6-17.9,5.4-21,13.6Z"/>
      <path class="st7" d="M228.1,234.6c-.3-.7,0-2.1.4-2.1s.6.9.8,1.8c0,.4.1.9.2,1.2.2.6.6.5.9.7.3.2.6,1.2.4,1.8-.7,1.4-1.7-.2-2.5-.4-.7-.1-1.4.7-2.1.7-.7,0-1.5-1.7-1.3-3.6,1.1-.5,2.3-.7,3.4-.5"/>
      <path class="st7" d="M242.7,199.5c-.3-.7,0-2.1.4-2.1.4,0,.6.9.8,1.8,0,.4.1.9.2,1.2.2.6.6.5.9.7.3.2.6,1.2.4,1.8-.7,1.4-1.7-.2-2.5-.4-.7-.1-1.4.7-2.1.7-.7,0-1.5-1.7-1.3-3.6,1.1-.5,2.3-.7,3.4-.5"/>
      <path class="st11" d="M252.1,208.6c-.3-.7,0-2.1.4-2.1.4,0,.6.9.8,1.8,0,.4.1.9.2,1.2.2.6.6.5.9.7.3.2.6,1.2.4,1.8-.7,1.4-1.7-.2-2.5-.4-.7-.1-1.4.7-2.1.7-.7,0-1.5-1.7-1.3-3.6,1.1-.5,2.3-.7,3.4-.5"/>
      <path class="st7" d="M241.7,217.7c-.3-.7,0-2.1.4-2.1.4,0,.6.9.8,1.8,0,.4.1.9.2,1.2.2.6.6.5.9.7.3.2.6,1.2.4,1.8-.7,1.4-1.7-.2-2.5-.4-.7-.1-1.4.7-2.1.7-.7,0-1.5-1.7-1.3-3.6,1.1-.5,2.3-.7,3.4-.5"/>
      <path class="st7" d="M238.2,206.6c-.3-.7,0-2.1.4-2.1.4,0,.6.9.8,1.8,0,.4.1.9.2,1.2.2.6.6.5.9.7.3.2.6,1.2.4,1.8-.7,1.4-1.7-.2-2.5-.4-.7-.1-1.4.7-2.1.7-.7,0-1.5-1.7-1.3-3.6,1.1-.5,2.3-.7,3.4-.5"/>
      <path class="st7" d="M215.5,205.6c-.3-.7,0-2.1.4-2.1.4,0,.6.9.8,1.8,0,.4.1.9.2,1.2.2.6.6.5.9.7.3.2.6,1.2.4,1.8-.7,1.4-1.7-.2-2.5-.4-.7-.1-1.4.7-2.1.7-.7,0-1.5-1.7-1.3-3.6,1.1-.5,2.3-.7,3.4-.5"/>
      <path class="st11" d="M224.9,214.7c-.3-.7,0-2.1.4-2.1.4,0,.6.9.8,1.8,0,.4.1.9.2,1.2.2.6.6.5.9.7.3.2.6,1.2.4,1.8-.7,1.4-1.7-.2-2.5-.4-.7-.1-1.4.7-2.1.7-.7,0-1.5-1.7-1.3-3.6,1.1-.5,2.3-.7,3.4-.5"/>
      <path class="st7" d="M214.5,223.8c-.3-.7,0-2.1.4-2.1.4,0,.6.9.8,1.8,0,.4.1.9.2,1.2.2.6.6.5.9.7.3.2.6,1.2.4,1.8-.7,1.4-1.7-.2-2.5-.4-.7-.1-1.4.7-2.1.7-.7,0-1.5-1.7-1.3-3.6,1.1-.5,2.3-.7,3.4-.5"/>
      <path class="st7" d="M211,212.6c-.3-.7,0-2.1.4-2.1.4,0,.6.9.8,1.8,0,.4.1.9.2,1.2.2.6.6.5.9.7s.6,1.2.4,1.8c-.7,1.4-1.7-.2-2.5-.4-.7-.1-1.4.7-2.1.7-.7,0-1.5-1.7-1.3-3.6,1.1-.5,2.3-.7,3.4-.5"/>
      <path class="st7" d="M42.7,92.9c-.3-.7,0-2.1.5-2.1.4,0,.7.9.9,1.9,0,.4.1.9.3,1.3.3.6.7.5,1,.7.4.2.7,1.2.5,1.9-.8,1.4-1.9-.2-2.9-.4-.8-.1-1.6.8-2.5.8-.8,0-1.8-1.7-1.6-3.7,1.3-.6,2.6-.7,4-.5"/>
      <path class="st7" d="M70.8,80.9c-1-.5.2-1.6,1.6-1.5,1.4,0,2.5.7,3,1.4.3.3.5.7.9.9.9.5,2.3.4,3.5.5,1.2.1,2.4.9,1.6,1.4-2.8,1-6.5-.2-9.9-.3-2.8-.1-5.5.6-8.3.5-2.8,0-6-1.2-5.3-2.7,4.4-.4,8.8-.5,13.3-.4"/>
      <path class="st7" d="M61.7,98.6c-.3-.7,0-2.1.5-2.1.4,0,.7.9.9,1.9,0,.4.1.9.3,1.3.3.6.7.5,1,.7.4.2.7,1.2.5,1.9-.8,1.4-1.9-.2-2.9-.4-.8-.1-1.6.8-2.5.8-.8,0-1.8-1.7-1.6-3.7,1.3-.6,2.6-.7,4-.5"/>
      <path class="st2" d="M313.1,116.5c-.1,0-.3.1-.4.2.2,0,.3,0,.5,0,7.6-.9,15.5,0,22.7,2.8v4.6c-1.8,1.2-3.6,2.3-5.4,3.5,2.2,2.7,4,5.6,5.4,8.7v102.6c-1.5,12.5-4.9,24.8-10.1,36.3-1.4,0-2.9.3-4.3.7-2.1.6-4.1,1.7-5.8,3.1,1.1-.1,2.3-.3,3.5-.3,1,0,2,0,3,0,1.9.1,3.8.6,5.4,1.6,3.4,2.2,4.5,8.1,1,10.1,3.1.8,5.6,2.9,7.4,5.5v17.3c-.1.2-.3.3-.4.5-1.2,1.3-2.7,2.5-3.2,4.2-.5,1.6-.1,3.3.2,5,2,9.8,1.5,20.1-1.7,29.6,1.7.4,3.4.8,5.1,1.2v9.3c-1.3,0-2.5-.2-3.8-.3-4-.4-8.7-1.2-10.4-4.8-1.4-2.8-.3-6.1.7-9,2.1-6,4.2-11.9,6.3-17.9-7.5-1.8-15.1-3.6-22.6-5.4,8.8-4,17.6-8.1,26.5-12.1-2.7-13-8-28.5-21-31-5.3-1-10.7.6-16.1,1-5.4.4-11.6-.9-14.2-5.6,15.9,1.7,35.4,1.7,43.7-12,3.5-5.7,4-12.7,3.8-19.4-.3-9.7-2-19.4-5.1-28.6-.5-1.6-1.1-3.2-.9-4.8.4-3.3,3.7-5.4,5.1-8.4,1.8-4-.2-8.9-3.5-11.7-3.3-2.8-7.7-4.1-11.9-5.3,11.7-9.8,17.7-25.8,15.4-40.8-.8-5.3-3.2-11.2-8.4-12.8,2.8-1.2,5.6-2.5,8.5-3.7.5-2.3.3-4.8-.5-7-16.1-3.9-32.3-7.8-48.4-11.7,18,1.7,36.6-3.3,50.4-14.9,2.2-1.9,4.4-3.4,6.5-4.4v3.1c-1.9,2.6-3.9,5.1-6.1,7.5-4.3,4.9-9.2,9.4-14.8,12.5-.6.3-1.3.7-1.9,1Z"/>
      <path class="st7" d="M60.6,110.1c-.3-.7,0-2.1.5-2.1.4,0,.7.9.9,1.9,0,.4.1.9.3,1.3.3.6.7.5,1,.7.4.2.7,1.2.5,1.9-.8,1.4-1.9-.2-2.9-.4-.8-.1-1.6.8-2.5.8-.8,0-1.8-1.7-1.6-3.7,1.3-.6,2.6-.7,4-.5"/>
      <path class="st0" d="M88.6,99c-.6-1.4.1-4.3.9-4.3s1.5,1.8,1.8,3.8c.2.9.3,1.9.6,2.6.5,1.3,1.4,1,2.1,1.4.7.4,1.4,2.5.9,3.8-1.7,2.8-3.9-.4-5.9-.8-1.7-.3-3.3,1.5-5,1.5-1.7,0-3.6-3.4-3.2-7.5,2.6-1.1,5.3-1.5,7.9-1"/>
      <path class="st7" d="M44.6,189.4c-.2-.5,0-1.6.4-1.6.3,0,.6.7.7,1.4,0,.3.1.7.2,1,.2.5.5.4.8.5s.5.9.4,1.4c-.6,1.1-1.5-.2-2.2-.3-.6-.1-1.2.6-1.9.6-.6,0-1.4-1.3-1.2-2.8,1-.4,2-.6,3-.4"/>
      <path class="st7" d="M65.9,180.3c-.8-.4.1-1.2,1.2-1.2,1.1,0,1.9.5,2.3,1,.2.2.3.5.7.7.7.3,1.7.3,2.6.4.9,0,1.8.7,1.2,1-2.1.8-4.9-.1-7.5-.2-2.1,0-4.2.4-6.3.4-2.1,0-4.6-.9-4-2.1,3.3-.3,6.7-.4,10.1-.3"/>
      <path class="st7" d="M59,193.8c-.2-.5,0-1.6.4-1.6.3,0,.6.7.7,1.4,0,.3.1.7.2,1,.2.5.5.4.8.5.3.1.5.9.4,1.4-.6,1.1-1.5-.2-2.2-.3-.6-.1-1.2.6-1.9.6-.6,0-1.4-1.3-1.2-2.8,1-.4,2-.6,3-.4"/>
      <path class="st7" d="M58.1,202.5c-.2-.5,0-1.6.4-1.6.3,0,.6.7.7,1.4,0,.3.1.7.2,1,.2.5.5.4.8.5.3.1.5.9.4,1.4-.6,1.1-1.5-.2-2.2-.3-.6-.1-1.2.6-1.9.6-.6,0-1.4-1.3-1.2-2.8,1-.4,2-.6,3-.4"/>
      <path class="st0" d="M79.4,194c-.5-1.1,0-3.2.7-3.2.6,0,1.1,1.4,1.4,2.8.1.7.2,1.4.4,2,.4,1,1,.8,1.6,1,.5.3,1.1,1.9.7,2.9-1.3,2.1-2.9-.3-4.5-.6-1.3-.2-2.5,1.2-3.8,1.1-1.3,0-2.7-2.6-2.4-5.6,2-.9,4-1.1,6-.8"/>
      <path class="st7" d="M55.7,218.2c-.3-.7,0-1.9.4-1.9.4,0,.7.8.8,1.7,0,.4.1.9.2,1.2.2.6.6.5.9.6.3.2.6,1.1.4,1.7-.8,1.3-1.8-.2-2.7-.4-.8-.1-1.5.7-2.3.7-.8,0-1.6-1.5-1.4-3.4,1.2-.5,2.4-.7,3.6-.5"/>
      <path class="st7" d="M81.2,207.3c-.9-.5.2-1.4,1.4-1.4,1.3,0,2.3.6,2.8,1.2.2.3.4.6.8.8.8.4,2.1.3,3.1.5,1.1.1,2.2.8,1.4,1.2-2.5.9-5.9-.1-8.9-.3-2.5,0-5,.5-7.6.5s-5.5-1.1-4.8-2.5c4-.4,8-.5,12-.3"/>
      <path class="st7" d="M72.9,223.4c-.3-.7,0-1.9.4-1.9.4,0,.7.8.8,1.7,0,.4.1.9.2,1.2.2.6.6.5.9.6.3.2.6,1.1.4,1.7-.8,1.3-1.8-.2-2.7-.4-.8-.1-1.5.7-2.3.7-.8,0-1.6-1.5-1.4-3.4,1.2-.5,2.4-.7,3.6-.5"/>
      <path class="st7" d="M71.9,233.8c-.3-.7,0-1.9.4-1.9s.7.8.8,1.7c0,.4.1.9.2,1.2.2.6.6.5.9.6.3.2.6,1.1.4,1.7-.8,1.3-1.8-.2-2.7-.4-.8-.1-1.5.7-2.3.7-.8,0-1.6-1.5-1.4-3.4,1.2-.5,2.4-.7,3.6-.5"/>
      <path class="st0" d="M97.3,223.7c-.5-1.3,0-3.9.8-3.9.8,0,1.4,1.7,1.6,3.4.1.8.2,1.7.5,2.3.5,1.2,1.2.9,1.9,1.2s1.3,2.2.8,3.4c-1.5,2.5-3.5-.4-5.3-.7-1.5-.3-3,1.4-4.5,1.4-1.5,0-3.3-3.1-2.9-6.8,2.4-1,4.8-1.3,7.2-.9"/>
      <path class="st0" d="M285.7,309.8c-.5-1.3,0-3.9.8-3.9.8,0,1.4,1.7,1.6,3.4.1.8.2,1.7.5,2.3.5,1.2,1.2.9,1.9,1.2.6.3,1.3,2.2.8,3.4-1.5,2.5-3.5-.4-5.3-.7-1.5-.3-3,1.4-4.5,1.4-1.5,0-3.3-3.1-2.9-6.8,2.4-1,4.8-1.3,7.2-.9"/>
      <path class="st13" d="M335.9,179.6v30.1c-.6-4.8-1.3-9.6-1.4-14.4-.1-5.2.5-10.5,1.4-15.7Z"/>
      <path class="st13" d="M21.5,326.9c-.2,0-.3.1-.5.2.2-.1.3-.2.5-.2Z"/>
      <path class="st0" d="M14.3,56.4v-5.6c3.5-.2,5.2,5.1,5.9,11.5-2-2.4-3.9-4.4-5.9-5.9Z"/>
      <path class="st0" d="M15.8,70.4c1.6-.8,3.1-1.6,4.7-2.5.2,6.6-.4,13.3-.9,16-1.4,7.2-3.2,14.6-4,21.9,0-6.4.1-12.8.2-19.2,0-2.3,0-4.7,0-7,0-3.1,0-6.1,0-9.2Z"/>
      <path class="st0" d="M25.2,372.3c2,5.6,4.9,10.8,8.5,15.5H14.3v-41c2.1-1.7,3.9-3.6,5.6-5.7-1.9-.2-3.7-.4-5.6-.6v-4.6c2.2-1.6,4.4-3.1,6.6-4.7,1.6-1.1,1.9-4.5.6-4.3,2.5-1,4.6-2.9,5.8-5.2-4.1-1.1-8.3-2.1-12.4-3.2-1.2-9.9,5.9-20,15.5-22.4-5.4-3.3-10.8-6.7-16.2-10v-6c3.2-1.7,6.3-3.7,9.1-6.1-4.5.3-7.8-3.6-9.1-8.1v-8c1-4.6,3.1-9,4.2-13.6,1.5-6.5.8-13.2.2-19.8-1.1-11.3-2.3-22.6-3.5-33.9-.3-3.3-.7-6.6-.9-10v-13.3c.4-4.6,1.3-9.2,3-13.5.9-2.4,2.1-4.7,2.1-7.3,0-2.5-2.1-5.3-4.6-5,.5-6.2.6-12.5.6-18.7,0-1.8,0-3.6,0-5.4.3,2.7.9,5.4,1.9,8,4.6-.3,9.3,2.4,11.5,6.5-13.8,14.7-13.4,37.3-11.9,57.4,2.2,28,5.1,56,8.8,83.8.7,5.3,1.3,11.2-1.9,15.5,3.9,1.8,7.8,3.5,11.7,5.3-4.3,5.9-8.6,11.9-13,17.8,4.9,4.5,10.3,8.3,16.2,11.4-14.9,10.4-19.5,31.8-13.5,49Z"/>
      <path class="st0" d="M335.9,47.9c-2,2-3.9,4.2-5.7,6.3,1.8,1.2,3.7,2.2,5.7,3.1v38.2c-1.9,2.6-3.9,5.1-6.1,7.5-4.9,5.5-10.5,10.6-17.2,13.7,7.8-1,15.9,0,23.2,2.7v4.6c-1.8,1.2-3.6,2.3-5.4,3.5,2.2,2.7,4,5.6,5.4,8.7v102.6c-1.5,12.5-4.9,24.8-10.1,36.3-3.7,0-7.3,1.5-10.1,3.8,4-.5,8.4-.8,11.8,1.3,3.4,2.2,4.5,8.1,1,10.1,3.1.8,5.6,2.9,7.4,5.5v17.3c-.1.2-.3.3-.4.5-1.2,1.3-2.7,2.5-3.2,4.2-.5,1.6-.1,3.3.2,5,2,9.8,1.5,20.1-1.7,29.6,1.7.4,3.4.8,5.1,1.2v34.2h-21.7c1.8-2.9,3.4-6,4.6-9.3,1.7-4.8,2.5-9.9,3.2-14.9,1.8-12.1,3.7-24.3,5.5-36.4,1.8-12,3.3-25.4-4-35.1-5.5-7.3-14.8-10.6-23.5-13.4,9.5-2.5,19.8-5.6,25.6-13.7,3.5-5,4.8-11.2,5.3-17.2,2.3-26.2-6.9-52.1-6.6-78.4.2-15.9,2.4-35.4-10.9-44.2-3.1-2-7-3.4-8.5-6.8-3.4-7.1,6.3-12.8,12.3-17.9,19-15.9,6.8-48.1,18.3-70.1.1-.3.3-.5.4-.8v18.1Z"/>
      <g>
        <path class="st9" d="M347.2,374.3c-.4,9.2-4.4,15.5-5.9,17.6-51.9-3.6-106.7-5.7-164.3-5.7-59.7,0-116.5,2-170.2,5.7-1.5-1.8-6.1-7.6-6.7-16.7-.9-12,5.7-27.1,6.7-28.4,2.5.1,5,.3,7.4.5,2.3.2,4.6.3,7,.5,2.5.2,5,.4,7.5.6h0c4.2.3,8.4.7,12.6,1,1.1,0,2.2.2,3.3.3.1,0,.2,0,.4,0,42.9,3.8,87.3,8.9,133.2,8.8,4.8,0,9.6,0,14.4,0,1.1,0,2.2,0,3.3,0,.6,0,1.3,0,1.9,0,2.4,0,4.8,0,7.2,0,.6,0,1.2,0,1.9,0,1.6,0,3.2,0,4.7,0,.2,0,.5,0,.7,0,2.5,0,4.9,0,7.4-.1,3.6,0,7.2-.1,10.8-.2,3.1,0,6.2-.1,9.3-.2,1.6,0,3.1,0,4.7-.1,1.6,0,3.1,0,4.6-.1,1.6,0,3.1,0,4.6-.1,4.6-.1,9.3-.3,13.9-.4,1.5,0,3.1,0,4.6-.2,1.5,0,3.1-.1,4.6-.2,1.5,0,3-.1,4.6-.2,3.8-.1,7.6-.3,11.4-.4,1.5,0,3.1-.1,4.6-.2.9,0,1.7,0,2.6-.1,1.4,0,2.7-.1,4.1-.2,2.5-.1,5-.2,7.5-.3,1.3,0,2.7-.1,4-.2.7,0,1.3,0,2,0,1.5,0,3-.1,4.5-.2,1.5,0,2.9-.2,4.4-.2,0,0,0,0,0,0,1,0,2-.1,3-.2.2,0,.5,0,.7,0,.1,0,.3,0,.4,0,3.6-.2,7.1-.4,10.6-.6,1.4,1.9,6.3,9.5,5.9,20.5Z"/>
        <path class="st4" d="M329.6,354.4c-.1,1.1-.2,2.3-.3,3.4,0,.3,0,.7,0,1-.4,4.8-.9,9.6-1.3,14.5-.2,2.3-.5,4.7-1.5,6.1-.8,1.2-2,1.2-3,1.2-12.3.1-24.5.2-36.8.3-21.5,0-43.1,0-64.6-.2-.3,0-.5,0-.8,0-14.8-.1-29.7-.3-44.5-.6h0c-11.1-.2-22.2-.4-33.3-.6-1.5,0-3,0-4.5-.1-36.8-.9-73.6-2.1-110.4-3.7-3.9-.2-8.7-1.7-9.7-8.6-1-7.1,3.2-12.7,6.8-16,0,0,0,0,0,0,1-.9,2-1.9,3.1-2.8h0c4.2.3,8.4.7,12.6,1,1.1,0,2.2.2,3.3.3.1,0,.2,0,.4,0,42.9,3.8,87.3,8.9,133.2,8.8,4.8,0,9.6,0,14.4,0,1.1,0,2.2,0,3.3,0,.6,0,1.3,0,1.9,0,2.4,0,4.8,0,7.2,0,.6,0,1.2,0,1.9,0,1.6,0,3.2,0,4.7,0,.2,0,.5,0,.7,0,2.5,0,4.9,0,7.4-.1,3.6,0,7.2-.1,10.8-.2,3.1,0,6.2-.1,9.3-.2,1.6,0,3.1,0,4.7-.1,1.6,0,3.1,0,4.6-.1,1.6,0,3.1,0,4.6-.1,4.6-.1,9.3-.3,13.9-.4,1.5,0,3.1,0,4.6-.2,1.5,0,3.1-.1,4.6-.2,1.5,0,3-.1,4.6-.2,3.8-.1,7.6-.3,11.4-.4,1.5,0,3.1-.1,4.6-.2.9,0,1.7,0,2.6-.1,1.4,0,2.7-.1,4.1-.2,2.5-.1,5-.2,7.5-.3,1.3,0,2.7-.1,4-.2.7,0,1.3,0,2,0,1.5,0,3-.1,4.5-.2,1.5,0,2.9-.2,4.4-.2,0,0,0,0,0,0,1,0,2-.1,3-.2Z"/>
        <path class="st12" d="M347.2,374.3c-.4,9.2-4.4,15.5-5.9,17.6-51.9-3.6-106.7-5.7-164.3-5.7-59.7,0-116.5,2-170.2,5.7-1.5-1.8-6.1-7.6-6.7-16.7-.9-12,5.7-27.1,6.7-28.4,2.5.1,5,.3,7.4.5-6.3,7.5-8.7,18.1-3.3,25.8-3,4.7,1,11.2,6.3,13.2,5.4,2,11.4,1,17,0,15.5-2.4,31.3-3.2,46.9-2.4,13.8.7,27.8,2.7,41.4.3,5.2-.9,10.2-2.4,15.3-3.6,1.8-.5,3.6-.9,5.4-1.2,1.7-.3,3.5-.6,5.2-.8,9.3-1.1,18.7.4,28,1.5h0c2,.2,3.9.5,5.9.6,4.6.4,9.3.6,13.9.7,8.5.1,17-.3,25.5-.8,1.5,0,3-.2,4.4-.3,0,0,.1,0,.2,0,3-.2,6-.3,9-.5,3.2-.2,6.5-.3,9.7-.4,13.8-.4,27.6,0,41.3,1.3,14,1.3,28,3.5,41.7,6.6,4.8,1.1,10.6,2.1,14.2-1.2,4.3-3.9.8-12.3-5-12.4,5-.4,4.9-8.2,1-11.2-2.7-2-6-2.8-9.3-3.9-.3-.1-.7-.2-1-.3-1.2-.4-2.3-.9-3.4-1.4.5-.9,1.1-1.7,1.8-2.5,1,0,2-.1,3-.2.2,0,.5,0,.7,0,.1,0,.3,0,.4,0,3.6-.2,7.1-.4,10.6-.6,1.4,1.9,6.3,9.5,5.9,20.5Z"/>
      </g>
      <path class="st3" d="M315,115.5c-.6.3-1.3.7-1.9,1-.2-.3-.2-.7-.2-1.1.7,0,1.4.1,2.1.1Z"/>
      <path class="st1" d="M335.9,119.4v1c-5.8-.5-11.7-1-17.5-1.4-1.9-.2-4.3-.8-5.2-2.3,7.6-.9,15.5,0,22.7,2.8Z"/>
      <path class="st1" d="M335.9,296v3.2c-.6-.4-1.2-.8-1.9-1.1-1.1-.5-2.5-.9-2.9-2.1-.5-1.4.7-3.5-.6-4.2-.5-.3-1.2-.1-1.8-.2-1.9-.1-2.8-3.1-1.3-4.2.3-.3.8-.5,1-.8.2-.3.3-.7.3-1,0-2.7-2.8-4.5-5.4-5.1-1.5-.4-3-.5-4.5-.8,0-.3.2-.6.4-.9,1,0,2,0,3,0,1.9.1,3.8.6,5.4,1.6,3.4,2.2,4.5,8.1,1,10.1,3.1.8,5.6,2.9,7.4,5.5Z"/>
      <path class="st1" d="M32.5,300c-2.6,4.8-10,5.4-12.7,10.2-.9,1.6-1.3,7-3.4,8.7-.5-.1-1-.3-1.6-.4-.5-4.3.5-8.7,2.7-12.4,2.8-4.8,7.4-8.6,12.8-9.9-.4-.2-.7-.5-1.1-.7,1.5-.1,3,.2,3.6,1.5.5,1,.2,2.1-.3,3.1Z"/>
      <g>
        <path class="st9" d="M351.3,24.7c-.4,11.1-4.4,18.7-6,21.3-52.5-4.3-108-6.8-166.2-6.9-60.4,0-117.9,2.5-172.2,6.9C5.4,43.9.8,36.9,0,25.9c-.3-4.8.2-9.1,1.1-12.7.2-.8.4-1.6.6-2.4C3.7,4.8,6.3.9,6.9,0c55.2,3.8,113.1,5.9,173.5,5.8,57.3,0,112.3-2.2,164.9-5.8,1,1.7,4,7,5.3,14.9.2,1.3.4,2.7.5,4.1.2,1.8.2,3.7.1,5.7Z"/>
        <path class="st0" d="M351.3,24.7c-.4,11.1-4.4,18.7-6,21.3-52.5-4.3-108-6.8-166.2-6.9-60.4,0-117.9,2.5-172.2,6.9C5.4,43.9.8,36.9,0,25.9c-.3-4.8.2-9.1,1.1-12.7,4,7.2,5.3,14.9,12.9,19.8,7.5,4.9,17.4,5,25.8,4.8,85.6-1.5,171.5-11,256.7-.2,13.6,1.7,28.5,3.6,40-5,5-3.8,9.7-9.5,14.6-13.5.2,1.8.2,3.7.1,5.7Z"/>
        <path class="st3" d="M350.6,14.9c-3.9,3.9-9.4,5.4-14.5,6.5-26.7,6-53.8,9.1-80.9,9.2-45.3.3-90.7-7.6-135.9-4.3C98.5,28,.2,55,1.7,12.3c0-.5,0-1,0-1.6C3.5,5.4,5.7,1.8,6.6.4c.1-.2.2-.3.3-.4,55.2,3.8,113.1,5.9,173.5,5.8,57.3,0,112.3-2.2,164.9-5.8.3.6.9,1.6,1.6,3,1.3,2.7,2.8,6.7,3.7,11.9Z"/>
        <path class="st3" d="M346.9,3c-3.3,7.2-7.8,13.6-14.5,14.7-3.5.6-7-.4-10.6-.9-19.3-2.6-37.9,11.1-57.2,9.7-6.7-.5-13.1-2.8-19.7-4.2-11.1-2.4-22.5-2.4-33.9-2.3-64.1.3-128.2.5-192.4.8-3.6,0-7.9-.3-10-3.7,2.9-1.6,5.1-5,5.5-8.7-.2,2.2-6-4.6-7.6-8,.1-.2.2-.3.3-.4,55.2,3.8,113.1,5.9,173.5,5.8,57.3,0,112.3-2.2,164.9-5.8.3.6.9,1.6,1.6,3Z"/>
      </g>
      <path class="st2" d="M15.1,190.7c-.3-3.3-.7-6.6-.9-10v-13.3c.4-4.6,1.3-9.2,3-13.5.1-.3.3-.7.4-1,.8-2,1.7-4.1,1.7-6.3,0-2.5-2.1-5.3-4.6-5,.5-5.8.6-11.7.6-17.6,2.8,4.4,4,9.8,7.3,14,6.9,8.6,12.9,7,24.3,7.6-6.1,8.2-20,6-27,13.4-4.9,5.2-4.8,13.3-4.3,20.5.9,13.9,1.7,27.8,2.6,41.8-1-10.2-2.1-20.3-3.1-30.5Z"/>
      <path class="st3" d="M330.7,357c-.5.3-.9.6-1.4.9-.4.2-.7.5-1.1.7-24.6,15.1-54.5,18.8-83.4,20.9-3.1.2-6.2.4-9.3.6-3,.2-6,.3-9,.5,0,0-.1,0-.2,0-1.7,0-3.5.2-5.2.3-8.2.4-16.5.6-24.7.8-19.5.4-39,.1-58.4-.7,0,0-.1,0-.2,0,.4-.4.7-.9,1.1-1.3,1.5-1.9,3-3.8,4.5-5.6-33.9-7.2-70.8,5.4-103.1-7.2,4.8-3.6,9.5-7.2,14.2-10.9-9.8,1.2-19.9-.5-28.9-4.5-1.9-.9-3.8-1.9-5.6-3,.1,0,.6,0,1.2-.4,2.5.2,5,.4,7.5.6h0c4.2.3,8.4.7,12.6,1,1.1,0,2.2.2,3.3.3.1,0,.2,0,.4,0,42.9,3.8,87.3,8.9,133.2,8.8,4.8,0,9.6,0,14.4,0,1.1,0,2.2,0,3.3,0,.6,0,1.3,0,1.9,0,2.4,0,4.8,0,7.2,0,.6,0,1.2,0,1.9,0,1.6,0,3.2,0,4.7,0,.2,0,.5,0,.7,0,2.5,0,4.9,0,7.4-.1,3.6,0,7.2-.1,10.8-.2,3.1,0,6.2-.1,9.3-.2,1.6,0,3.1,0,4.7-.1,1.6,0,3.1,0,4.6-.1,1.6,0,3.1,0,4.6-.1,4.6-.1,9.3-.3,13.9-.4,1.5,0,3.1,0,4.6-.2,1.5,0,3.1-.1,4.6-.2,1.5,0,3-.1,4.6-.2,3.8-.1,7.6-.3,11.4-.4,1.5,0,3.1-.1,4.6-.2.9,0,1.7,0,2.6-.1,1.4,0,2.7-.1,4.1-.2,2.5-.1,5-.2,7.5-.3,1.3,0,2.7-.1,4-.2.7,0,1.3,0,2,0,1.5,0,3-.1,4.5-.2,1.5,0,2.9-.2,4.4-.2,0,0,0,0,0,0,1,0,2-.1,3-.2.2,0,.5,0,.7,0,.1,0,.3,0,.4,0,.1.8.1,1.7,0,2.6Z"/>
    </g>
  </g>
</svg>