<?xml version="1.0" encoding="UTF-8"?>
<svg id="Calque_1" xmlns="http://www.w3.org/2000/svg" version="1.1" viewBox="0 0 480 780">
  <!-- Generator: Adobe Illustrator 29.8.3, SVG Export Plug-In . SVG Version: 2.1.1 Build 3)  -->
  <defs>
    <style>
      .st0 {
        fill: #FFF6CD;
      }

      .st1 {
        fill: none;
      }
    </style>
  </defs>
  <path class="st0" d="M479.9,49.6l-182.3,259.9,8.2,6.7c57.7-63.5,116.8-125.9,174.2-189.7v45.3l-165.9,152.8,4.5,6.7,2.9-.7,158.5-113.1v31.6l-154,92.1,3.7,6.6,150.3-70.5v26l-146.5,54.4,3.5,6.4,143-38v23.3l-141.4,25.3-.7,10.6c47.4-1.6,94.6-3.5,142-6.1v23c-6.7,0-13.4-.1-20.1-.4-33.4-1.6-66.7-3.4-100.3-4.4-9.9-.3-24.4-7.8-21.6,8.9l142,22.9v23.2l-140.2-35.2-4.7-.3-1.6,6.6,146.5,53.1v26l-150.2-69.2-2.2,5.3,152.4,89.2v31.6l-159.2-111.2-6.7,9.7,166,151.5v46.3c-57.9-63.8-115.7-127.7-174.2-191l-6.4,6.7,180.5,250.4v58.1h-11.1l-179.5-303.1-6.8,3.6,139.5,299.5h-41l-107.5-295.8-7.2,3.5,78.2,292.3h-38.1l-52.9-291.2-8.3,1.5c-1.5,10.2,1.1,20.9,1.5,30.6,2.9,76.6,5.7,153.1,8.9,229.7.4,9.7,1.8,19.5,1.9,29.4h-35.3c.7-10.3,0-20.6.5-30.9,3.4-79.5,7.7-159,10.4-238.6.2-6.4,2.9-13.3,1.5-20.1l-9.6-1.6-47.2,291.3h-36.6l72.3-287.9c1.8-5.9-2.8-6.2-7.2-7.9l-104.6,295.7h-42.4l135.3-293.2,2.7-7-6.5-1.6L16.8,780H-.1v-48.7l180.7-258.5c.3-3.3-6.7-9-9.6-5.1L-.1,653.1v-44l164.5-152.6c0-2-4-6.8-6-6.1L-.1,564.8v-32.8l153.9-92-2.9-4.6h-4.5S-.1,503.8-.1,503.8v-25.9l146.5-53.7-1.7-5.8-6.2.2L-.1,456.3v-24.5l142-24.8-2.4-11.3L-.1,402.1v-23.2l139.7,6.4,2.4-9.8L-.1,352v-23.2l143.5,36.9,1.6-8.2L-.1,305.8v-27.3l147.9,68.5,3,.7,1.6-6.6L-.1,253v-31.4l159.2,111.2,6.7-8.2L-.1,171.7v-43.7l171.9,187.5c3.2,2.1,6.8-4.5,9-6.1L-.1,59.1V0h9l181.6,303.9,5.1-3.6C150,199.8,101.7,100.4,55.7,0h42.7l108.7,296.5,6.6-2L135,0h36.7l51,292.2c18.4,2.7,10.7-9.1,10.4-20.2-2.7-90.8-7.2-181.4-11.5-272h35.9c0,10.2-1.5,20.4-1.9,30.4-3.2,76.4-6,152.9-8.9,229.7-.4,9.4-3.1,19.8-1.3,29.7l1.2,1.8,9.1.7L302.2,0h36.7l-74.1,293.2c-1.1,3.5,4.8,1.7,6.7,3.1L378.4,0h41.1l-136.4,298.2-.7,3,6.6,1.7L463.5,0h16.3v49.6Z"/>
  <line class="st1" x1="8.9" x2="-.1"/>
  <line class="st1" x1="171.7" x2="135"/>
  <line class="st1" x1="419.5" x2="378.4"/>
</svg>