<?xml version="1.0" encoding="UTF-8"?>
<svg id="Calque_1" xmlns="http://www.w3.org/2000/svg" version="1.1" viewBox="0 0 1920 1080">
  <!-- Generator: Adobe Illustrator 29.8.3, SVG Export Plug-In . SVG Version: 2.1.1 Build 3)  -->
  <defs>
    <style>
      .st0 {
        fill: #fff2b4;
      }
    </style>
  </defs>
  <path class="st0" d="M1920,194l-733.5,268.9,4.9,15.9,728.6-194.7v90.1l-723.1,126.2c-6.5,44.3,21.9,25.8,48.6,25,225.1-6.8,449.7-18.1,674.5-28.7v86.5c-30.9,3-61.9-2.5-92.1-3.8-184.2-7.7-368.6-14.3-553.5-21.3-22.8-.9-47.7-7.5-71.7-3.2l-4.4,2.9-1.6,21.9,723.2,115.4v90.1l-725.4-183.5c-8.5-2.6-4.2,11.4-7.6,16l733,264.8v100.9l-737.5-337.3-7.3-1.6-4,15.8,728.4,419.5h-175.5l-568.9-399.1-16.1,19.7c138.2,125.5,274.1,254,412.5,379.5h-101.5l-331-359.5-16.2,10.8,1.7,7.1,243.7,341.6h-71.4l-197.8-330.7-16,8.9,151,321.8h-58.7l-116.1-312.8-15.5,8.5,80.9,304.3h-52.6l-53.8-300.4-25.6-1.6c3.4,100.8,7.4,201.3,12.5,302h-52.6c0-2.7.2-5.4.3-8,3.8-80.6,8.2-160.8,10.7-241.8.7-23.8,18.8-58.9-21.5-52.1l-48.7,301.9h-52.3l74.8-297.5.7-11.4-15.9-3.9-113.3,312.8h-58.7l148.3-321.8-12.8-5.3-191.4,327.1h-71.7l239.8-343.4-23.3-16.2-328.3,359.6h-104c139-126.2,278.1-252.2,415.9-379.5l-16.2-15.4-547.6,394.8H44.2l707.5-419.1-8.6-16.2L0,990.8v-101l734-266.9-8.4-17.4L0,799.7v-93.8l723-131.2-3.6-20c-24.7-3.6-50.3,2.7-73.8,3.5-184.7,6.9-368.9,13.7-553.5,21.3-30.2,1.3-61.2,6.8-92,3.8v-86.5c31.8,5.1,63.7,2.3,95.8,3.6,191.6,8.1,383.1,18.5,575.1,25,15.4.5,32,7,48.5,3.6l3.9-23.2L0,388.6v-90.1l715,179.6c14.2,4.3,14.8-6.8,19-17.3L0,201.2v-104.6l728,335.9,16.8,6.6,4-15.7L13.8,0h177.1l570.8,399c7.8.7,21.7-16,12.2-23.1L366.7,0h100.4l333.9,359.9c4.8,0,16.4-9.6,14.6-14.5L566.2,0h74.6l199.8,334.3,11.1-6.9v-10.9S703.9,0,703.9,0h58.8l116.1,316.5,13.9-4-.5-14.9L811.3,0h55.6l53.4,305.8,27.2-5.7L933.8,0h52.5l-13.8,300,23.7,5.8L1046.8,0h52.5l-79.6,309.3,19.7,3.9L1151,0h61.9l-148.2,320-1.6,7.3,15.9,4L1270.3,0h71.3l-242.4,347.2,19.9,16.1L1453.6,0h99l-412,377.8c-5.2,7.8,10.9,16.3,14.6,21.6L1708.2,0h168.3l-707.8,422.8,8.6,12.4c248.6-112.8,494.3-232.3,742.7-345.8v104.6Z"/>
</svg>