<?xml version="1.0" encoding="UTF-8"?>
<svg id="Calque_1" xmlns="http://www.w3.org/2000/svg" version="1.1" viewBox="0 0 150 150">
  <!-- Generator: Adobe Illustrator 29.8.3, SVG Export Plug-In . SVG Version: 2.1.1 Build 3)  -->
  <defs>
    <style>
      .st0 {
        fill: #fff;
      }

      .st1 {
        fill: #b3b3b3;
      }
    </style>
  </defs>
  <circle class="st0" cx="75" cy="75" r="75"/>
  <g>
    <path class="st1" d="M31.4,106.8l9.2,2.5-2.2-8.1c0-.2,0-.4,0-.6l-6.9,6.3Z"/>
    <path class="st1" d="M95.2,85l-54.9-51.1c0,0-.2-.1-.3,0,0,0,0,0-.1,0h-13.3s61.3,59.2,61.3,59.2l7.4-8Z"/>
    <path class="st1" d="M103.8,78.8l-.8-.7.8.7h0Z"/>
    <path class="st1" d="M101.5,103.2l7.8-3.6c.2-.1.5-.2.7-.1l-6.7-6.1-1.9,9.9Z"/>
    <path class="st1" d="M110.1,33.8c-.1,0-.2,0-.3,0l-33.3,30.8,7.7,7.2,39.4-38.1h-13.3s0,0-.1,0Z"/>
    <path class="st1" d="M109.3,109.5l9.2-2.5-6.9-6.3c0,.2,0,.4,0,.6l-2.2,8.1Z"/>
    <path class="st1" d="M46.4,93.2l-6.7,6.1s0,0,0,0c.2,0,.4,0,.6.1l7.8,3.6-1.9-9.9Z"/>
    <path class="st1" d="M87.6,106h0s20.8-22.4,20.8-22.4l-4.9-4.5-20.8,22.4,4.9,4.5Z"/>
    <path class="st1" d="M48.8,105.6c-.1,0-.2,0-.4-.1l-7.7-3.6,2.2,7.9c.2.8-.3,1.7-1.1,1.9-.3,0-.6,0-.9,0l-10.2-2.7,6.7,7.2,11.4-10.5Z"/>
    <path class="st1" d="M99.2,104l1.8-9.3-5.5,5.9,3.8,3.5s0,0,0-.1Z"/>
    <path class="st1" d="M107.4,111.5c-.5-.4-.6-1-.5-1.6l2.2-7.9-7.7,3.6c-.1,0-.2,0-.4.1l11.4,10.5,6.7-7.2-10.2,2.7c-.5.2-1.1,0-1.5-.3Z"/>
    <polygon class="st1" points="65.8 74.8 54.8 85 62.3 92.9 73.5 82.1 65.8 74.8"/>
    <rect class="st1" x="51.1" y="77.3" width="6.6" height="30.5" transform="translate(-48.4 61.8) rotate(-42.9)"/>
    <path class="st1" d="M50.6,103.9l3.7-3.5-5.5-5.9,1.8,9.3s0,0,0,.1Z"/>
  </g>
</svg>