<?xml version="1.0" encoding="UTF-8"?>
<svg id="Calque_1" xmlns="http://www.w3.org/2000/svg" version="1.1" viewBox="0 0 150 150">
  <!-- Generator: Adobe Illustrator 29.8.3, SVG Export Plug-In . SVG Version: 2.1.1 Build 3)  -->
  <defs>
    <style>
      .st0 {
        fill: #666;
      }

      .st1 {
        stroke: #666;
        stroke-miterlimit: 10;
        stroke-width: .7px;
      }
    </style>
  </defs>
  <circle class="st1" cx="75" cy="75" r="75"/>
  <g>
    <path class="st0" d="M95,99c-.8-1-.7-2.4.3-3.2,13.9-12.5,21.9-28.4,23.6-47.3.7-7.2.2-13.5-.3-17.9-4.6,9.4-11.3,17.9-19.5,24.4-1,.8-2.4.7-3.2-.3-12.5-13.9-28.4-21.9-47.3-23.6-7.2-.7-13.5-.2-17.9.3,9.4,4.6,17.9,11.3,24.4,19.5.8,1,.7,2.4-.3,3.2-13.9,12.5-21.9,28.4-23.6,47.3-.7,7.2-.2,13.5.3,17.9,4.6-9.4,11.3-17.9,19.5-24.4,1-.8,2.4-.7,3.2.3,12.5,13.9,28.4,21.9,47.3,23.6,7.2.7,13.5.2,18-.3-9.4-4.6-17.9-11.3-24.4-19.5ZM87.7,77.3c-.5,2.9-2.1,5.6-4.3,7.5-2.4,2-5.3,3.1-8.4,3.1s-1.5,0-2.3-.2c-2.9-.5-5.6-2.1-7.5-4.3-2.5-3-3.6-6.9-2.9-10.7.5-2.9,2.1-5.6,4.3-7.5h0c3-2.5,6.9-3.6,10.7-2.9,2.9.5,5.6,2.1,7.5,4.3.2.2.3.4.5.6,1.8,2.3,2.7,5.1,2.7,8,0,.7,0,1.4-.2,2.2Z"/>
    <path class="st0" d="M76.5,66.9c-2.4-.4-4.9.2-6.8,1.9h0c-1.1.9-1.9,2.1-2.4,3.4s-.3.9-.4,1.4c-.4,2.4.2,4.9,1.9,6.8,1.2,1.4,2.7,2.3,4.4,2.7.1,0,.2,0,.4,0,2.4.4,4.9-.2,6.8-1.9,1.5-1.2,2.4-2.9,2.7-4.8.4-2.4-.2-4.9-1.9-6.8-1.2-1.5-2.9-2.4-4.8-2.7Z"/>
  </g>
</svg>