<?xml version="1.0" encoding="UTF-8"?>
<svg id="Calque_1" xmlns="http://www.w3.org/2000/svg" version="1.1" viewBox="0 0 150 150">
  <!-- Generator: Adobe Illustrator 29.8.3, SVG Export Plug-In . SVG Version: 2.1.1 Build 3)  -->
  <defs>
    <style>
      .st0 {
        fill: #fff;
      }

      .st1 {
        fill: #b3b3b3;
      }
    </style>
  </defs>
  <circle class="st0" cx="74.8" cy="75.2" r="74.8"/>
  <g>
    <path class="st1" d="M127.1,111.1l-5.7-6.4-14.3,5.2c1.8,3.5,4.1,6.7,6.9,9.5l12.1-4.4c1.3-.5,1.9-1.9,1.4-3.2-.1-.3-.2-.5-.4-.7Z"/>
    <path class="st1" d="M101.2,96.3c1.2,3.4,2.5,6.7,4.1,10,0,0,16.7-6.1,16.9-6.1,1.3-.5,1.9-1.8,1.5-3.1-.1-.3-.3-.6-.5-.8l-5.7-6.4-16.3,6.4Z"/>
    <path class="st1" d="M99.9,92.4l20.3-8.1c1.6-.7,2.4-2.5,1.7-4.1-.1-.3-.3-.5-.4-.8l-5-6.1c-.9-1.1-2.4-1.4-3.7-.9l-16.4,7.2c1,4.8,2.2,9,3.4,12.8Z"/>
    <path class="st1" d="M102.3,109.5c-4.3-9-7.6-18.5-9.6-28.3-11.6,4.1-24.2,4.1-35.8,0-1.1,5-2.4,9.9-4,14.7-11.6,34.1-21.2,17.9,21.9,17.8,10.9,0,21.8,1.4,32.4,4.1-1.9-2.6-3.5-5.4-5-8.3Z"/>
    <path class="st1" d="M28.2,104.7s-5.7,6.4-5.7,6.4c-.9,1-.8,2.6.2,3.5.2.2.5.3.7.4l12.1,4.4c2.8-2.8,5.1-6,6.9-9.5l-14.3-5.2Z"/>
    <path class="st1" d="M29.4,84.4c.2.1,20.3,8.1,20.3,8.1,1.2-3.8,2.3-8,3.4-12.8l-16.4-7.2c-1.3-.5-2.8-.2-3.6.9l-5,6.1c-1.1,1.4-.9,3.4.5,4.5.2.2.5.3.8.4Z"/>
    <path class="st1" d="M27.5,100.1c.1,0,16.9,6.1,16.9,6.1,1.6-3.2,2.9-6.6,4.1-10l-16.3-6.4-5.7,6.4c-.9,1-.8,2.5.2,3.4.2.2.5.4.8.5Z"/>
    <path class="st1" d="M74.8,65.6c3.8,0,6.9-3.2,6.8-7,0-3.8-3.1-6.8-6.8-6.8-3.8,0-6.9,3.2-6.8,7,0,3.8,3.1,6.8,6.8,6.8Z"/>
    <path class="st1" d="M85.8,59.4c13-4.1,22.7-15.1,25.2-28.5-3.8,5-8.1,9.7-12.7,14-3.9,3.8-8.5,6.8-13.4,9.1.6,1.7.9,3.6,1,5.4Z"/>
    <path class="st1" d="M65.3,64.1c-6.9-1.6-13.2-5.1-18.3-9.9-2.9,4.8-5.2,10-6.9,15.3l16.1,7.1c11.9,4.8,25.3,4.8,37.2,0l16.1-7.1c-1.7-5.4-4-10.5-6.9-15.3-5.1,4.8-11.4,8.3-18.3,9.9-3,5.3-9.8,7.1-15.1,4.1-1.7-1-3.1-2.4-4.1-4.1Z"/>
    <path class="st1" d="M74.8,47.7c2.8,0,5.5,1,7.5,2.9,4.1-1.7,7.9-4.1,11.3-7-9.5-7.7-18.4-6.9-18.5-6.9-.1,0-.3,0-.4,0-.4,0-9.2-.8-18.5,6.9,3.3,2.9,7.2,5.3,11.3,7,2-1.9,4.7-3,7.5-2.9Z"/>
    <path class="st1" d="M48.1,49.6c4.3,4.6,9.8,8,15.8,9.9-.1-1.9.2-3.7,1-5.4-9.3-3.5-20.8-15.8-26.2-23.1,1.3,7,4.5,13.5,9.4,18.7Z"/>
  </g>
</svg>