<?xml version="1.0" encoding="UTF-8"?>
<svg id="Calque_1" xmlns="http://www.w3.org/2000/svg" version="1.1" viewBox="0 0 150 150">
  <!-- Generator: Adobe Illustrator 29.8.3, SVG Export Plug-In . SVG Version: 2.1.1 Build 3)  -->
  <defs>
    <style>
      .st0 {
        stroke: #666;
        stroke-miterlimit: 10;
        stroke-width: .7px;
      }

      .st1 {
        fill: #666;
      }
    </style>
  </defs>
  <circle class="st0" cx="75" cy="74.5" r="72.5"/>
  <g>
    <path class="st1" d="M73.6,17.1s17.5,2.5,23.6,17c0,0-3.5-2.5-8-2.4,0,0,9.2,5.6,13.5,14.6,0,0,0,4-2.7,5.7,0,0,10.7,22.5,5.5,26.6,0,0,17.3,8.3-15.8,22.3,0,0,25.6-13.5,14.9-20.6l-3.2,4.1s6.6-9.8-.2-23.7c0,0-3.7-9-5.2-11.1,0,0,2.9,2.5,4.1-.1,0,0,3-2.1-.6-5.3,0,0-5.3-9.7-20.9-18.2,0,0,6.4.9,9.4,2.9,0,0-.9-1.5-2.7-2.5,0,0,2.5.6,4.6,2,0,0-4-8.2-16.4-11.2Z"/>
    <path class="st1" d="M72,18s-12.4,2-21.3,16.4c0,0,4.5-3.2,8.7-2.5,0,0-5.5,2.7-13.7,14.4,0,0,0,3.8,2.9,5.9,0,0-6.2,15-6.6,17.7-.4,2.7-1.6,6,1,8.6,0,0-6.8,3.8-2.7,9.9,4.1,6.1,21.9,14.2,21.9,14.2,0,0-20-13.8-16.7-16.2,0,0,1.1-3.2,3.7.6,2.6,3.8,7.5,9.2,7.5,9.2,0,0-13.4-18-5.6-36.6,0,0-3.1.8-4.7,2.5,0,0,13.5-16.9,19.8-11.1l8.3,6.6,8.4-6.7s2.5-3.5,7.6.3c5.2,3.8,7.4,4.7,7.4,4.7,0,0-9.2-11.9-14.8-7.1-5.7,4.7-9.1,7.9-8.9,4.3s-.1-23.8-.1-23.8c0,0-5.5,3.8-6.2,5.7,0,0,.8-4.2,6.4-8,0,0-.4-7.6-2.2-9.3Z"/>
    <path class="st1" d="M114.1,95.5s5.9,3.2-16.6,17.2c0,0,16.2-5.7,21.4-10.3l.5-2.9s1.5-2-5.3-4Z"/>
    <path class="st1" d="M33.3,95.5s-3.6,4.8,11.9,14.1c15.5,9.4,28.2,15.5,28.2,15.5l12.5-6.3-12.5,12.6s-21.9-15.1-44.8-27.3c0,0-2.6-5.3,1.1-6.9l3.7-1.7Z"/>
  </g>
  <path class="st1" d="M36.8,93s8.7,10.7,25.2,15.8c0,0-16-.1-25.2-15.8Z"/>
  <path class="st1" d="M112.6,91.9s-8.7,10.7-25.2,15.8c0,0,16-.1,25.2-15.8Z"/>
</svg>