<?xml version="1.0" encoding="UTF-8"?>
<svg id="Calque_1" xmlns="http://www.w3.org/2000/svg" version="1.1" viewBox="0 0 150 150">
  <!-- Generator: Adobe Illustrator 29.8.3, SVG Export Plug-In . SVG Version: 2.1.1 Build 3)  -->
  <defs>
    <style>
      .st0 {
        fill: #666;
      }

      .st1 {
        stroke: #666;
        stroke-miterlimit: 10;
        stroke-width: .7px;
      }
    </style>
  </defs>
  <circle class="st1" cx="75" cy="75.1" r="75"/>
  <path class="st0" d="M126.5,73.1l.9.2c.2,10.1-2.5,19.5-11.3,25.4s-18.7,6.9-28.4,3.4l-6-3.7c-.2,7.8-8,5.3-12.3,9.3-5.7,5.3-3.3,13.7,1.5,18.7s2.3.9,1.4,1.8c-25.2,1.5-38.4-29.6-21.3-46.9-4.4-.8-4-5-5.3-8.1-3.7-9.1-14.3-7.7-20.6-2.1s-1.3,2.6-2.5,1.9c.7-5.3,1.1-10.1,3.6-15,7.6-14.6,31.7-18.8,43.5-6.9,1.3-7.6,8.1-4.9,12.6-8.1,7.5-5.3,4.6-15.9-1.6-21,24.7-.4,35.6,28.3,21.1,46.4,1.6,2.6,1.7,5.7,3.6,8.2,5.7,7.5,17,3.7,21-3.4ZM74.7,68.3c-9.5,1.3-4.6,16,3.9,11.1s2.3-12-3.9-11.1Z"/>
</svg>