<?xml version="1.0" encoding="UTF-8"?>
<svg id="Calque_1" xmlns="http://www.w3.org/2000/svg" version="1.1" viewBox="0 0 150 150">
  <!-- Generator: Adobe Illustrator 29.8.3, SVG Export Plug-In . SVG Version: 2.1.1 Build 3)  -->
  <defs>
    <style>
      .st0, .st1, .st2 {
        stroke-width: .5px;
      }

      .st0, .st1, .st2, .st3, .st4, .st5, .st6, .st7 {
        stroke-miterlimit: 10;
      }

      .st0, .st4 {
        fill: #e2e2e2;
      }

      .st0, .st6 {
        stroke: #b3b3b3;
      }

      .st1, .st2, .st3, .st4, .st5, .st7 {
        stroke: #fff;
      }

      .st1, .st6, .st7, .st8 {
        fill: #b3b3b3;
      }

      .st2, .st3, .st9, .st5 {
        fill: #fff;
      }

      .st3 {
        stroke-width: .3px;
      }

      .st4 {
        stroke-width: 2px;
      }

      .st10 {
        fill: #666;
      }

      .st5, .st6, .st7 {
        stroke-width: .7px;
      }

      .st11 {
        fill: #999;
      }

      .st12 {
        display: none;
      }
    </style>
  </defs>
  <circle class="st9" cx="75.7" cy="75" r="69.2"/>
  <g>
    <path class="st11" d="M101.1,63.2c-7-18.7-23.9-19.2-23.9-19.2,0,0-17,.5-23.9,19.2-7,18.7-14.4,49.7-14.4,49.7,1.7,1.3,3.5,1.3,5.6,0,4.1-3.2,7.9-5.8,10.1-5.6h45.2c2.2-.2,6,2.4,10.1,5.6,2.1,1.3,4,1.3,5.6,0,0,0-7.5-31-14.4-49.7Z"/>
    <path class="st11" d="M112.9,114c-1,0-2-.3-3-1-3.9-3-7.8-5.8-10-5.6h-45.2c-2.2-.2-6.1,2.6-10,5.6-2.1,1.4-4.1,1.4-5.8,0h0s0-.1,0-.1c0-.3,7.5-31.2,14.4-49.7,1.6-4.3,3.8-8,6.7-10.9,2.3-2.4,4.9-4.3,7.9-5.8,5.1-2.4,9.3-2.6,9.4-2.6,0,0,4.3.2,9.4,2.6,3,1.4,5.6,3.4,7.9,5.8,2.9,3,5.1,6.7,6.7,10.9,6.9,18.5,14.3,49.4,14.4,49.7h0c0,0,0,.1,0,.1-.8.7-1.8,1-2.7,1ZM100,107.2c2.3,0,6.1,2.7,10,5.7,2,1.3,3.8,1.3,5.4,0-.4-1.7-7.7-31.5-14.4-49.6-3.6-9.6-9.9-14.3-14.5-16.6-5-2.4-9.3-2.6-9.3-2.6,0,0-4.3.2-9.3,2.6-4.6,2.2-10.9,6.9-14.5,16.6-6.7,18.1-14,48-14.4,49.6,1.6,1.2,3.4,1.2,5.4,0,3.9-3,7.9-5.8,10.2-5.6h45.2c0,0,.1,0,.2,0Z"/>
  </g>
  <g>
    <g class="st12">
      <path class="st8" d="M44.6,85.2h2.2v17.4h0c-2.8,0-5-2.2-5-5v-9.5c0-1.6,1.3-2.8,2.8-2.8Z" transform="translate(27.4 -8.5) rotate(15.9)"/>
      <path d="M44.4,103.1l-3.4-1c-.4-.1-.8-.4-1-.8-.2-.4-.3-.8-.1-1.3l4.1-14.4c.1-.5.7-.8,1.2-.7l4.1,1.2-4.8,16.9ZM44.9,85.1c-.1,0-.3,0-.4,0-.2,0-.3.3-.4.5l-4.1,14.4c-.1.4,0,.8.1,1.1.2.3.5.6.9.7l3.2.9,4.7-16.5-3.9-1.1c0,0-.1,0-.2,0Z"/>
    </g>
    <g class="st12">
      <path class="st8" d="M42.1,103.5l2.3.3c.7,0,1.4,0,1.9-.5l6.4-4.2-5.1,4.7c-.7.6-1.2,1.5-1.4,2.4l-1.5,7c-1.9.9-3.7.9-5.6.1-.5-.2-.8-.8-.7-1.4l1.6-7c.2-.9,1.1-1.6,2.1-1.5Z"/>
      <path d="M41.9,114.1c-.9,0-1.9-.2-2.8-.6-.6-.2-.9-.9-.8-1.5l1.6-7c.2-1,1.2-1.7,2.2-1.5l2.3.3c.6,0,1.3,0,1.9-.4l6.4-4.2v.2c.1,0-4.9,4.7-4.9,4.7-.7.6-1.2,1.5-1.4,2.4l-1.5,7h0c-.9.5-1.9.7-2.9.7ZM41.9,103.6c-.8,0-1.5.6-1.7,1.4l-1.6,7c-.1.5.2,1.1.6,1.2,2,.8,3.8.8,5.5,0l1.5-6.9c.2-1,.7-1.8,1.4-2.5l4.1-3.7-5.3,3.5c-.6.4-1.3.6-2,.5l-2.3-.3c0,0-.1,0-.2,0Z"/>
    </g>
    <g>
      <path class="st9" d="M52.7,64.3c-3.8-.4-7.8-4.7-11.8-10.3-2.1,4.6-3.4,9.9-4,15.9,3.5,3.8,7.7,6.1,12,7.7l3.7-13.4Z"/>
      <path d="M49,77.8h-.1c-5.1-1.9-8.9-4.3-12.1-7.8h0s0,0,0,0c.6-6,1.9-11.4,4-16v-.2c0,0,.2.2.2.2,4.8,6.7,8.4,9.9,11.7,10.2h.1s-3.8,13.6-3.8,13.6ZM37.1,69.9c3.1,3.4,6.9,5.8,11.8,7.6l3.7-13.1c-3.3-.4-6.9-3.5-11.6-10.1-2,4.5-3.3,9.8-3.9,15.7Z"/>
    </g>
    <g>
      <path class="st9" d="M51.5,67.4h0v17.4h0c-2.8,0-5-2.2-5-5v-7.4c0-2.8,2.2-5,5-5Z" transform="translate(22.7 -10.5) rotate(15.9)"/>
      <path d="M49.1,85.3l-4.1-1.2c-.5-.1-.8-.7-.7-1.2l4-14.2c.1-.5.5-.9.9-1.1.4-.2.9-.3,1.4-.2l3.2.9-4.8,16.9ZM50.1,67.6c-.3,0-.5,0-.8.2-.4.2-.7.6-.8,1l-4,14.2c-.1.4.1.8.5.9l3.9,1.1,4.7-16.5-3-.9c-.1,0-.3,0-.5,0Z"/>
    </g>
    <g class="st12">
      <path class="st10" d="M40.9,54c.3-2,1.5-4,3.2-5.4.4-.3.9-.5,1.5-.4,1.9.2,3.4.8,4.4,2,.1.2.2.4.2.6-.3,2.7-.9,5.3-1.9,7.8-.3.7-1.1.9-1.7.3l-2.5-2.5c-.4-.4-1.1,0-1,.5,0,0,0,0,0,0l-2.3-3Z"/>
      <path d="M47.3,59.2c-.3,0-.5-.1-.8-.3l-2.5-2.5c-.2-.2-.4-.2-.6,0-.2.1-.3.3-.3.6,0,0,0,0,0,0v.3c0,0-2.4-3.2-2.4-3.2h0c.3-2.1,1.5-4.1,3.3-5.5.4-.3,1-.5,1.5-.4,2.1.3,3.5.9,4.4,2,.1.2.2.4.2.6-.3,2.6-.9,5.2-1.9,7.8-.1.3-.4.6-.8.7,0,0-.1,0-.2,0ZM43.7,56.2c.2,0,.3,0,.4.2l2.5,2.5c.2.2.6.3.9.3.3,0,.6-.3.7-.6,1-2.6,1.6-5.2,1.9-7.8,0-.2,0-.4-.2-.5-.9-1.1-2.3-1.7-4.3-2-.5,0-1,0-1.4.4-1.7,1.4-2.9,3.3-3.2,5.4l2.1,2.8c0-.2.1-.4.3-.6,0,0,.2,0,.3,0Z"/>
    </g>
  </g>
  <g>
    <path class="st8" d="M44.6,85.2h2.2v17.4h0c-2.8,0-5-2.2-5-5v-9.5c0-1.6,1.3-2.8,2.8-2.8Z" transform="translate(27.4 -8.5) rotate(15.9)"/>
    <path class="st2" d="M44.5,103.3l-3.6-1c-.5-.1-.9-.4-1.1-.9-.2-.4-.3-.9-.2-1.4l4.1-14.4c0-.3.3-.5.5-.7.3-.2.6-.2.9-.1l4.3,1.2-4.9,17.3ZM44.9,85.3c0,0-.2,0-.3,0-.1,0-.2.2-.3.4l-4.1,14.4c0,.3,0,.7.1,1,.2.3.4.5.8.6l3.1.9,4.6-16.2-3.7-1.1c0,0-.1,0-.2,0Z"/>
  </g>
  <g>
    <path class="st8" d="M52.7,64.3c-3.8-.4-7.8-4.7-11.8-10.3-2.1,4.6-3.4,9.9-4,15.9,3.5,3.8,7.7,6.1,12,7.7l3.7-13.4Z"/>
    <path class="st9" d="M49.1,78h-.3c-5.1-2-9-4.4-12.1-7.9h0c0,0,0-.2,0-.2.6-6.1,1.9-11.5,4-16l.2-.4.3.4c4.8,6.7,8.4,9.8,11.6,10.2h.3s-3.9,14-3.9,14ZM37.2,69.9c3,3.3,6.7,5.6,11.5,7.4l3.6-12.8c-3.2-.5-6.8-3.6-11.4-9.9-1.9,4.4-3.2,9.5-3.7,15.3Z"/>
  </g>
  <g>
    <path class="st8" d="M112.2,85.2h0v17.4h-2.2c-1.6,0-2.8-1.3-2.8-2.8v-9.5c0-2.8,2.2-5,5-5Z" transform="translate(240.8 154.2) rotate(164.1)"/>
    <path class="st2" d="M109.4,103.3l-4.9-17.3,4.3-1.2c.6-.2,1.3.2,1.4.8l4.1,14.4c.3,1-.3,2-1.3,2.3l-3.6,1ZM105.2,86.4l4.6,16.2,3.1-.9c.7-.2,1.1-.9.9-1.6l-4.1-14.4c0-.3-.4-.5-.7-.4l-3.7,1.1Z"/>
  </g>
  <g>
    <path class="st8" d="M101.3,64.3c3.8-.4,7.8-4.7,11.8-10.3,2.1,4.6,3.4,9.9,4,15.9-3.5,3.8-7.7,6.1-12,7.7l-3.7-13.4Z"/>
    <path class="st9" d="M104.8,78l-3.9-14h.3c3.2-.4,6.8-3.5,11.6-10.2l.3-.4.2.4c2.1,4.6,3.4,10,4,16h0c0,.1,0,.2,0,.2-3.2,3.4-7,5.9-12.1,7.8h-.3ZM101.6,64.5l3.6,12.8c4.8-1.8,8.5-4.1,11.5-7.4-.6-5.7-1.8-10.9-3.7-15.3-4.6,6.3-8.1,9.4-11.4,9.9Z"/>
  </g>
  <g>
    <path class="st1" d="M51.5,67.4h0v17.4h0c-2.8,0-5-2.2-5-5v-7.4c0-2.8,2.2-5,5-5Z" transform="translate(22.7 -10.5) rotate(15.9)"/>
    <path class="st9" d="M49.2,85.5l-4.3-1.2c-.6-.2-1-.8-.8-1.4l4-14.2c.1-.5.5-1,1-1.2.5-.3,1-.3,1.6-.2l3.4,1-4.9,17.3ZM50.1,67.8c-.2,0-.5,0-.7.2-.3.2-.6.5-.7.9l-4,14.2c0,.3,0,.6.4.7l3.7,1.1,4.6-16.2-2.9-.8c-.1,0-.3,0-.4,0Z"/>
  </g>
  <g>
    <path class="st8" d="M107.5,67.4h0v17.4h0c-2.8,0-5-2.2-5-5v-7.4c0-2.8,2.2-5,5-5Z" transform="translate(226.8 120.6) rotate(164.1)"/>
    <path class="st3" d="M104.8,85.5v-.3c0,0-4.9-17-4.9-17l3.4-1c1.1-.3,2.2.3,2.5,1.4l4,14.2c.2.6-.2,1.2-.8,1.4l-4.3,1.2ZM100.6,68.6l4.6,16.2,3.7-1.1c.3,0,.5-.4.4-.7l-4-14.2c-.2-.8-1-1.2-1.8-1l-2.9.8Z"/>
  </g>
  <path class="st8" d="M55.9,62.7c2.8-6.3,7.6-11.3,14.2-14.8,4.2-2.2,9.1-2.2,13.3,0,7.3,3.7,12.3,8.8,15.6,14.9-15.4,8.2-29.9,7.2-43.2,0Z"/>
  <g>
    <path class="st6" d="M107.2,25.7c-.5,4.7-2.2,9.3-4.9,13.5-9.5,14.5-28.9,18.6-43.4,9.1-7.9-5.2-12.7-13.3-13.9-21.9-1.3,11.4,3.7,23.2,14,29.9,14.5,9.5,33.9,5.4,43.4-9.1,4.3-6.6,5.8-14.2,4.8-21.5Z"/>
    <path class="st0" d="M76.1,61.7c-6.1,0-12-1.8-17.3-5.2-5-3.3-9-7.9-11.5-13.3-2.4-5.3-3.3-11.1-2.7-16.9l.3-2.2.3,2.2c1.2,8.9,6.3,16.8,13.8,21.7,6.9,4.5,15.2,6.1,23.4,4.4,8.1-1.7,15.1-6.5,19.6-13.4,2.7-4.1,4.3-8.6,4.9-13.4l.3-2.2.3,2.2c1.1,7.6-.7,15.3-4.9,21.7-4.6,7.1-11.7,11.9-20,13.7-2.2.5-4.4.7-6.5.7ZM45.1,28.6c-.5,11,4.7,21.3,14,27.4,6.9,4.5,15.2,6.1,23.4,4.4s15.1-6.5,19.6-13.4c3.7-5.7,5.5-12.4,5-19.1-.8,4.1-2.3,7.9-4.6,11.4-4.6,7.1-11.7,11.9-20,13.7-8.3,1.7-16.7.1-23.8-4.5-7-4.6-11.9-11.8-13.6-19.9Z"/>
  </g>
  <g>
    <circle class="st7" cx="77.2" cy="57.3" r="9.1" transform="translate(8.3 124.3) rotate(-80.8)"/>
    <path class="st4" d="M77.2,66.7c-5.2,0-9.4-4.2-9.4-9.4s4.2-9.4,9.4-9.4,9.4,4.2,9.4,9.4-4.2,9.4-9.4,9.4ZM77.2,48.5c-4.9,0-8.8,4-8.8,8.8s4,8.8,8.8,8.8,8.8-4,8.8-8.8-4-8.8-8.8-8.8Z"/>
  </g>
  <g>
    <g>
      <path class="st8" d="M108.2,57.8c-10.2,5.8-20.5,9.2-31,9.9v13s0-13,0-13c-10.5-.7-20.9-4.1-31-9.9l2.1,10c9.5,6.1,17.7,10.8,28.9,12.9h0c11.2-2.2,19.4-6.8,28.9-12.9l2.1-10Z"/>
      <path class="st5" d="M77.2,81.4h-.1c-11.5-2.2-20-7.2-29.1-13h-.2c0-.1-2.4-11.6-2.4-11.6l1.1.6c10.1,5.8,20.5,9.1,30.7,9.8,10.3-.7,20.6-4,30.7-9.8l1.1-.6-2.4,11.5h-.2c-9.1,5.9-17.6,10.9-29.1,13.1h-.1ZM77.8,68.3v11.8c10.9-2.2,19.1-7,27.8-12.6l1.8-8.6c-9.8,5.4-19.7,8.6-29.6,9.3ZM48.8,67.5c8.7,5.6,16.9,10.4,27.8,12.6v-11.8c-9.9-.8-19.9-3.9-29.6-9.3l1.8,8.6Z"/>
    </g>
    <g class="st12">
      <path class="st9" d="M106,59.9l-2.4,4.3c0,.8-.5,1.6-1.2,2-7,4.4-15.2,8.1-23.8,11.4,9.3-2.4,18.3-5.6,26.4-11.1,0,0,.1-.1,0-.2l1-6.4Z"/>
      <path class="st9" d="M74.9,68l-1.2,6.8c-.1.8-.9,1.3-1.7,1-6.9-2.1-13.9-5.3-21-9,6,4.8,13.6,8.8,23.9,11.6v-10.4Z"/>
    </g>
  </g>
</svg>