<?xml version="1.0" encoding="UTF-8"?>
<svg id="Calque_1" xmlns="http://www.w3.org/2000/svg" version="1.1" viewBox="0 0 150 150">
  <!-- Generator: Adobe Illustrator 29.8.3, SVG Export Plug-In . SVG Version: 2.1.1 Build 3)  -->
  <defs>
    <style>
      .st0 {
        fill: #fff;
      }

      .st1 {
        fill: #b3b3b3;
      }
    </style>
  </defs>
  <circle class="st0" cx="74.8" cy="74.5" r="74.8"/>
  <g>
    <rect class="st1" x="61.5" y="102.8" width="10.9" height="3.2" transform="translate(36.3 -15.8) rotate(18.4)"/>
    <rect class="st1" x="63.5" y="96.6" width="10.9" height="3.9" transform="translate(34.5 -16.7) rotate(18.4)"/>
    <path class="st1" d="M70.1,135.3c.7-2.1-.4-4.3-2.5-5l-17.1-5.7c-2.1-.7-4.3.4-5,2.5l-.9,2.9,24.6,8.2.9-2.9Z"/>
    <rect class="st1" x="59.4" y="108.3" width="10.9" height="4.7" transform="translate(38.2 -14.8) rotate(18.4)"/>
    <path class="st1" d="M55.5,89.2l13.6,4.5,11.4-35.8c.2-.7,1-1.1,1.7-.9h0s0,0,0,0c.7.2,1.1,1,.8,1.7l-11.4,35.8,12.6,4.2c6.5,2.1,13.5-.7,16.9-6.6,4.1-7.3,10.2-15.2,14-19.4-6.2,1.1-16,5.1-20.6,14.6-.8,1.6-2.6,2.4-4.3,1.8l-5.3-1.5s0,0,0,0c-1.8-.6-3.3-2.6-3.3-4.5-.2-4.8,2.6-11.2,11.2-13.6.3,0,.5-.6.5-1.1,0,0,0,0,0,0l3.1-49c0-1.1-.8-2.1-1.9-2.1-.7,0-1.4.3-1.8.9l-27.9,41.5c-.3.5-.3,1.1,0,1.3,5.5,5.4,5.6,12.7,3.4,17.2-1,1.9-3.2,2.8-5.2,2.2l-6.2-2.1c-1.5-.5-2.5-1.8-2.5-3.4,0-8.3-2.4-19.3-9.2-24.2,1.6,6.7,1.7,16.5.9,23.3-.8,6.7,3.2,13.1,9.6,15.3Z"/>
    <rect class="st1" x="57.3" y="115.3" width="10.9" height="3.2" transform="translate(40 -13.8) rotate(18.4)"/>
    <rect class="st1" x="55.3" y="120.9" width="10.9" height="4.3" transform="translate(41.8 -12.9) rotate(18.4)"/>
  </g>
</svg>