<?xml version="1.0" encoding="UTF-8"?>
<svg id="Calque_1" xmlns="http://www.w3.org/2000/svg" version="1.1" viewBox="0 0 150 150">
  <!-- Generator: Adobe Illustrator 29.8.3, SVG Export Plug-In . SVG Version: 2.1.1 Build 3)  -->
  <defs>
    <style>
      .st0 {
        fill: #666;
      }

      .st1 {
        stroke: #666;
        stroke-miterlimit: 10;
        stroke-width: .7px;
      }
    </style>
  </defs>
  <circle class="st1" cx="74.4" cy="75.6" r="74.4"/>
  <path class="st0" d="M102.8,35.2c2.8-.4,5.3-1.7,7.3-3.7,2.6-2.6,3.4-5.8,3.6-7.9-2.2,0-5.5.4-8.8,2.5-4.1,2.7-5.9,6.6-6.6,9.1,1.5.2,3,.2,4.5,0Z"/>
  <path class="st0" d="M101.5,47.6c2.3,2.3,5.2,3.1,7.1,3.3.3-3.5-2.1-9.4-5.8-11.7-1.5.2-2.9.2-4.4,0,0,1.1.1,2.2.1,3.3.6,2,1.6,3.8,3,5.1Z"/>
  <path class="st0" d="M94.3,39.1c-3.4-23.4-36.3-23.4-39.7,0,4.6-2.9,12.4-4.5,19.9-4.5s15.3,1.5,19.9,4.5h0Z"/>
  <path class="st0" d="M74.4,75.2c11,0,20-9,20-20v-3.9c-9.3,6.1-30.7,6.1-40,0v3.9c0,11,9,20,20,20h0Z"/>
  <path class="st0" d="M111,91.2c-2.9-.8-5.8-1.3-8.7-1.7l-23.1,40.1h12.9l31.7-33.7c-4.2-1.9-8.5-3.5-12.9-4.7h0Z"/>
  <path class="st0" d="M90.4,88.6l-20.5,35.6s-3.1,5.3-3.1,5.3c0,0,7.8,0,7.8,0l23.4-40.6c-2.5-.2-5.1-.3-7.6-.3Z"/>
  <path class="st0" d="M61.7,75.5v10.5l12.8,22.2,12.8-22.2v-10.5c-7.3,4.9-18.3,4.9-25.5,0Z"/>
  <path class="st0" d="M72.1,112.2l-13.6-23.6c-2.5,0-5.1.1-7.6.3l17.3,30.1s3.9-6.8,3.9-6.8Z"/>
  <path class="st0" d="M37.9,91.2c-4.4,1.2-8.7,2.8-12.9,4.7l31.7,33.7h5.4l3.8-6.5-19.3-33.6c-2.9.4-5.8,1-8.7,1.7h0Z"/>
</svg>