<?xml version="1.0" encoding="UTF-8"?>
<svg xmlns="http://www.w3.org/2000/svg" version="1.1" viewBox="0 0 477.6 558">
  <!-- Generator: Adobe Illustrator 29.8.3, SVG Export Plug-In . SVG Version: 2.1.1 Build 3)  -->
  <defs>
    <style>
      .st0 {
        fill: #f79c79;
      }

      .st1 {
        fill: #9a9faf;
      }

      .st2 {
        fill: #f0b818;
      }

      .st3 {
        fill: #e87187;
      }

      .st4 {
        fill: #fff;
      }

      .st5 {
        fill: #e9e4e3;
      }

      .st6 {
        opacity: .4;
      }

      .st7 {
        fill: #d48252;
      }

      .st8 {
        fill: #b0b5ca;
      }

      .st9 {
        fill: #808593;
      }

      .st10 {
        fill: #e0e0e0;
      }

      .st11 {
        fill: #feca35;
      }

      .st12 {
        fill: #4e5eb0;
      }

      .st13 {
        fill: #b5b0ae;
      }

      .st14 {
        isolation: isolate;
      }

      .st15 {
        fill: #dbdbdb;
      }

      .st16 {
        fill: #cfc9c7;
      }

      .st17 {
        fill: #ded7d5;
      }

      .st18 {
        fill: #bc6174;
      }

      .st19 {
        mix-blend-mode: multiply;
      }

      .st20 {
        fill: #596f7c;
      }

      .st21 {
        fill: #fcee21;
      }

      .st22 {
        fill: #ffb091;
      }

      .st23 {
        fill: #dff1ff;
      }

      .st24 {
        fill: #a4a2a1;
      }

      .st25 {
        display: none;
      }

      .st26 {
        fill: #a25e41;
      }

      .st27 {
        fill: #ff6e6e;
      }

      .st28 {
        fill: none;
        stroke: #6eb07a;
        stroke-miterlimit: 10;
      }

      .st29 {
        fill: #6eb07a;
      }

      .st30 {
        fill: #c7c3c2;
      }

      .st31 {
        fill: #eb4a39;
      }

      .st32 {
        fill: #ededed;
      }

      .st33 {
        fill: #434657;
      }

      .st34 {
        fill: #7dc88b;
      }

      .st35 {
        fill: #425096;
      }
    </style>
  </defs>
  <g class="st14">
    <g id="Calque_5">
      <path class="st23" d="M375,90.7c.2-.9.8-1.8,1.4-2.6,6.4-9.2,24-11.2,33.6-6.9,8.8,3.9,14.5,13.4,14.2,23s-.4,1.1.3.7c7.4-9.1,23.9-9.3,29.9,1.4,3.3,5.9,3.7,13.3-2,17.9,13.9-2,26.8,9.3,24.9,23.7-2.6,20.5-25.1,21.9-41.4,18.8s-4-1.2-5.7-1.4-.4,0-.7,0-2.1,2-2.5,2.3c-16.9,14-41,17.7-61.3,9.2-.4,0-1.2.7-1.6,1-9,5.4-22.5,7.6-32.3,3.5s-14.7-9.9-15.7-19.5c-11.8,3.8-23.9-3.8-27-15.5-4.2-16.1,7-32.7,22.7-36.6,5.2-18.5,21.5-34.2,41.8-31.4s14.2,4.4,18.9,9.7,1.4,2.1,1.9,2.5.2.2.4.1ZM424.2,105.3h0c0,0,0,0,0,0Z"/>
      <path class="st23" d="M235.1,377.3c.5-1.4,1.7-2.9,2.8-4.1,13.3-14.6,49.6-17.8,69.5-11s30.1,21.4,29.5,36.6-.9,1.7.6,1.1c15.2-14.4,49.5-14.7,61.9,2.3,6.8,9.4,7.6,21.2-4.1,28.4,28.8-3.1,55.4,14.8,51.6,37.7-5.5,32.7-52,34.8-85.6,29.9-3.8-.6-8.3-1.8-11.8-2.2-.5,0-.9-.1-1.4,0s-4.4,3.2-5.3,3.7c-34.9,22.2-84.9,28.2-126.8,14.5-.8,0-2.4,1.1-3.2,1.5-18.5,8.5-46.5,12.1-66.8,5.6-17.7-5.7-30.5-15.8-32.5-31-24.4,6-49.5-6-55.9-24.6-8.7-25.6,14.5-52,47.1-58.2,10.8-29.4,44.4-54.3,86.6-49.9,14.6,1.5,29.4,7,39.2,15.5,1.1,1,2.9,3.3,4,4s.3.3.8.2ZM336.7,400.5v.2c.2,0,.2-.2,0-.2Z"/>
      <g class="st6">
        <path class="st20" d="M241.2,426.8c.3-.4,1-.9,1.7-1.2,7.8-4.4,29.2-5.4,41-3.3,10.7,1.9,17.7,6.5,17.4,11.1s-.5.5.4.3c9-4.4,29.2-4.5,36.5.7,4,2.8,4.5,6.4-2.4,8.6,17-.9,32.7,4.5,30.4,11.4-3.2,9.9-30.7,10.5-50.5,9.1-2.2-.2-4.9-.6-7-.7s-.5,0-.8,0-2.6,1-3.1,1.1c-20.6,6.7-50.1,8.5-74.8,4.4-.4,0-1.4.3-1.9.5-10.9,2.6-27.4,3.7-39.4,1.7-10.4-1.7-18-4.8-19.2-9.4-14.4,1.8-29.2-1.8-33-7.4s8.6-15.7,27.8-17.6c6.4-8.9,26.2-16.5,51.1-15.1,8.6.5,17.3,2.1,23.1,4.7s1.7,1,2.3,1.2.2,0,.5,0ZM301.2,433.9h0c.1,0,.1,0,0,0Z"/>
      </g>
      <g id="Calque_4">
        <g>
          <path class="st30" d="M375.5,173.9c-7.6,9.2-21.1,25.6-36.2,43.9l10.9,8.4,35.7-43.9s1.4-4-2.6-7.3c-4-3.3-7.8-1.1-7.8-1.1Z"/>
          <path class="st24" d="M350.2,226.2l7.1-8.8c-2.9-3.5-6.2-6.8-10-9.4-2.6,3.2-5.3,6.4-8,9.7l10.9,8.4Z"/>
          <path class="st24" d="M367.3,205.2l3.7-4.6c-2.6-3.7-5.7-7.2-9.4-9.8-1.5,1.9-3.1,3.8-4.8,5.8,3.8,2.3,7.2,5.2,10.5,8.6Z"/>
          <path class="st24" d="M365.8,185.7c3.3,3.2,5.8,7.3,7.9,11.7l4-4.9c-3.1-3.2-6.7-6.1-10.4-8.6-.5.6-1,1.2-1.4,1.8Z"/>
          <path class="st24" d="M375.5,173.9c-1.3,1.5-2.7,3.3-4.3,5.2,3.3,3,6.2,6.7,8.8,10.5l5.9-7.2s1.4-4-2.6-7.3c-4-3.3-7.8-1.1-7.8-1.1Z"/>
          <path class="st5" d="M362.2,211.5l2-2.5c-2.7-3.6-5.9-7.3-9.4-10-1.4,1.7-2.8,3.4-4.2,5.1,4,2.2,7.8,5,11.6,7.3Z"/>
          <path class="st26" d="M382,188l4.5-5.6s1.5-4.4-2.8-8c-4.4-3.6-8.5-1.2-8.5-1.2-1.2,1.5-2.7,3.5-4.2,5.3l3.8,3.3c.5-.6,1-1.3,1.4-1.7,0,0,1.4-.8,2.8.4,1.5,1.2.9,2.7.9,2.7l-1.5,1.8,3.5,3Z"/>
        </g>
        <g>
          <path class="st7" d="M328.5,212c0,0-2.7,3.2-2.8,3.3-2.2,3.3,2,6.9,12.2,14.9,10,7.9,13.5,11,16.2,8.3.1-.1,2.9-3.2,3.1-3.3,2.6-3.2.8-8.8-9.7-17.1-10.5-8.3-16.4-8.9-19-6.1Z"/>
          <path class="st26" d="M325.4,215.8c-2.1,2.6,0,7.7,10.6,15.9,10.6,8.2,16.2,9.1,18.4,6.5,2.1-2.6,0-7.7-10.6-15.9-10.6-8.2-16.2-9.1-18.4-6.5Z"/>
          <path class="st13" d="M219.9,357.2c-5.8,13.7,1.9,28.4,1.9,28.4l124.1-155.8-4.8-4.8-5.6-3.4c-24,29.8-109.8,128.3-115.6,135.6Z"/>
          <path class="st17" d="M219.9,357.2c-5.8,13.7,1.9,28.4,1.9,28.4l.3-.4,10.5-31.2-12.6,3c0,0-.1.1-.2.2Z"/>
          <path class="st16" d="M232.3,354.3l108.8-129.4-5.3-3.8c-23.8,29.6-108.9,127.1-115.8,135.8l12.3-2.7Z"/>
        </g>
      </g>
      <g id="Calque_51" data-name="Calque_5">
        <g id="Calque_37">
          <g id="Calque_2">
            <path class="st22" d="M82,345.6c1.5-2.4,4.3-4.4,6.6-5.8,2.3-1.4,4.2-2.2,4.2-2.3,0,0-3.2,1.5-6.7,2.7-3.6,1.2-7.5,2-9,.4-.4-.5-.6-1-.7-1.7,0-.6,0-1.2.2-1.8.9-3,5.5-4.5,9.8-5.4,4.3-.9,8.4-1,8.3-1.2,0-.2-3.1.5-6.7.6-3.6,0-7.6-.4-9.7-3-.1-.2-.5-.6-.8-1.2-.3-.6-.5-1.3-.2-2.1.4-1.2,1.8-1.9,4.1-2.3,2.3-.4,5.6-.7,9.6-1.1,1.8-.2,4.1-.4,6.7-.7,2.6-.3,5.6-.7,8.9-1.1-.6-.6-1.3-1.4-2.1-2.4-.7-1-1.5-2.1-2.2-3.5-.8-1.5-1.5-2.9-2-4.1-.4-1.3-.6-2.4,0-3.4.5-1.1,1.7-1.7,3.1-1.9,1.4-.2,3,0,4.3.7,1.6.8,2.7,2.3,3.5,3.8.8,1.6,1.4,3.3,2.1,4.8,1.1,2.3,3.1,4.8,6.7,7.3,3.6,2.5,8.8,4.9,16.3,6.9l-4,6.8-4,6.8c.5.7,1.1,1.5,1.5,2.3.4.8.5,1.6.2,2.2-.7,1.3-3.2.6-6.6-.1-3.4-.7-7.7-1.5-12.1-.2-5.2,1.5-8.8,5.3-11.7,8.6-2.9,3.2-5.2,5.9-7.9,5.1,0,0-.4-.1-.8-.4-.4-.2-.9-.6-1.3-1.2-.9-1.4-.8-3.5.1-6,1-2.5,2.8-5.3,5.4-8.2-.2.2-2.1,2.5-4.5,4.5-2.4,2-5.2,3.7-7.2,2.9-.1,0-.6-.2-1-.6-.5-.3-1-.8-1.2-1.5,0-.3-.2-.7,0-1.3,0-.6.4-1.3.9-2.2Z"/>
            <path class="st35" d="M129.5,319.3c1.4,0,5.4-.7,11-3.3,5.7-2.6,13-7.3,21.4-15.6,10.7-10.6,13.9-20.7,16.7-29.3,2.8-8.6,5-15.7,13.7-20.2,4.7-2.5,10.3-3.6,15.7-3.3,5.4.3,10.5,1.9,14.4,5,7.8,6.1,9.1,17,8.4,26.5-.7,9.6-3.5,17.9-3.9,19-4.3,12.3-12,21.4-19.7,28-7.7,6.5-15.5,10.6-19.8,12.8-15.6,8.2-31.3,10.8-44.4,11.1-13.1.3-23.8-1.8-29.4-3.1.8-1.4,1.7-3.3,2.5-5.6.8-2.3,1.5-5,2-8,.5-3.3.5-6.3.2-8.9-.2-2.6-.7-4.8-1.1-6.4,1.4.4,3.2.8,5.2,1.1,2.1.3,4.4.4,6.9.2Z"/>
          </g>
        </g>
        <g id="Calque_38">
          <path class="st32" d="M231.3,276.9c2-1.1,3.8-2.6,5.5-4,1.8-1.4,3.5-2.9,5.4-4.1"/>
          <g id="Calque_36">
            <path class="st34" d="M123.6,451.2c12.1-2.5,22.9-4.5,32.2-6.1,9.4-1.6,17.4-2.9,23.9-3.9,1.7-.1,3.7-.3,6.1-.5,2.4-.3,5-.7,7.9-1.3,2.4-.5,5.8-2.2,10.3-2.5,13.2-.7,65.2-9.2,70.1-11.8,1.6-.8-52.4,4.1-50.2,2.6,2.2-1.5,4.5-3.4,6.7-5.6,0,0,.2-.3.4-.6.2-.3.5-.7.7-1.2,2.4-4.2,2.1-8.6.9-12.2-1.2-3.6-3.2-6.5-4.1-7.7-.7-1-1.7-2.2-2.9-3.6-1.2-1.3-2.8-2.8-4.7-4.3-3.1-.2-7.3-.3-12.3-.2-5,.2-10.9.6-17.4,1.6-13.8,2-28.8,6.1-40.3,10.7-11.5,4.6-19.6,9.6-19.7,13.4,0,.6.2,1.4.9,2.1.7.8,1.9,1.6,4,2.5l-12.4,28.5Z"/>
          </g>
          <g id="Calque_361" data-name="Calque_36">
            <path class="st34" d="M346,452.4c-12.6-2.7-31-2.9-40.8-4.7-9.8-1.8-18.1-3.2-25-4.3-1.7-.1-3.9-.3-6.3-.7-2.5-.3-5.2-.8-8.2-1.4-2.5-.5-6.3-1.3-10.7-2.7-4.4-1.4-9.6-3.3-14.7-6-1.6-.9-3.8-2.1-6-3.6-2.3-1.6-4.7-3.5-7-5.7,0,0-.2-.3-.4-.6-.2-.3-.5-.7-.8-1.2-2.5-4.2-2.1-8.6-.9-12.2,1.3-3.6,3.4-6.5,4.3-7.7.8-1,1.8-2.2,3.1-3.5,1.3-1.3,2.9-2.7,4.9-4.2,3.3-.1,7.6-.2,12.9,0,5.2.3,11.4.8,18.2,1.9,14.4,2.3,30,6.7,42,11.5,12,4.8,50.6,10.3,48.4,11l-12.8,34.1Z"/>
          </g>
          <g id="Calque_35">
            <path class="st29" d="M215,416.8c.6.2,1.4-.8,2.2-2.2.8-1.4,1.6-3.3,2.1-4.8.7-2.3,1.1-4.7,1.1-6.7,0-1.9-.3-3.4-.9-3.5-.5-.1-1.2.7-1.9,1.7-.7,1.1-1.3,2.3-1.7,3.2-1.2,2.7-1.8,5.7-1.9,8.1-.1,2.4.2,4.1.9,4.3Z"/>
          </g>
          <g id="Calque_22">
            <path class="st29" d="M264.1,435.9c-.4-.5.1-1.6,1.1-3,.9-1.3,2.2-2.8,3.4-4,1.7-1.6,3.8-3,5.6-3.9,1.7-.9,3.2-1.2,3.6-.7.4.4,0,1.4-.7,2.5-.7,1.1-1.6,2.2-2.2,2.9-2,2.2-4.4,4.1-6.5,5.2-2.1,1.1-3.8,1.6-4.3,1Z"/>
          </g>
          <g>
            <g id="Calque_11">
              <path class="st12" d="M338.9,451.5c1,0,2,.2,3.1.3,1,0,2,.2,3.1.3,1.5.1,3,.3,4.5.4,1.5.1,3,.3,4.6.4,5.2.5,10.4,1,15.6,1.4,5.2.5,10.4,1,15.6,1.4.9-3.5,1.8-6.9,2.6-10.4.9-3.5,1.8-6.9,2.6-10.4,1.1-3.7,2.3-7.5,3.4-11.4,1.1-3.8,2.2-7.7,3.3-11.7,1.5-5.3,2.9-10.5,4.2-15.7,1.3-5.2,2.6-10.3,3.8-15.3-2,.8-4.7,2-7.7,3.8-3,1.8-6.4,4.2-9.7,7.5-3,2.9-5.3,5.9-7.1,8.6-1.8,2.7-3.1,5.2-4,7.1-1.8-.7-3.6-1.4-5.6-2-1.9-.6-4-1.3-6.1-1.9-.5-.1-1-.3-1.5-.4-.5-.1-1-.3-1.5-.4-1-.3-2-.5-3-.7-1-.2-1.9-.4-2.9-.6-2.1-.4-4.1-.8-6-1.1-1.9-.3-3.8-.6-5.6-.8.5,8.4.2,16.9-.7,25.3-.9,8.4-2.5,16.8-4.7,25.1v.5c-.1,0-.3.5-.3.5Z"/>
            </g>
            <g id="Calque_10">
              <g class="st19">
                <path class="st15" d="M345,452.1c1.5.1,3,.3,4.5.4,1.5.1,3,.3,4.6.4,2.9-8,5.6-16,7.6-24.2,2-8.1,3.3-16.4,3.4-24.7-.5-.1-1-.3-1.5-.4-.5-.1-1-.3-1.5-.4-1-.3-2-.5-3-.7-1-.2-1.9-.4-2.9-.6.2,8.5-1.1,17-3.2,25.4-2.1,8.4-5,16.7-8,24.8Z"/>
              </g>
            </g>
            <g id="Calque_9">
              <path class="st11" d="M354.3,420.9c-.6-.4-1-.9-1.4-1.4-.4-.5-.8-1-1-1.6-.6-1.1-.9-2.2-1.1-3.4-.2-1.2-.2-2.3,0-3.5.2-1.1.5-2.3,1-3.4.5-1.1,1.2-2.2,2.1-3.1.5-.5,1-.9,1.6-1.4.6-.4,1.3-.8,2-1.1.7-.3,1.6-.5,2.5-.7.9-.1,1.8-.1,2.7,0,.9.1,1.8.4,2.6.8.8.4,1.5.8,2.1,1.3.6.5,1.1,1,1.5,1.6.4.6.7,1.1,1,1.7.5,1.2.8,2.4.8,3.6,0,1.2,0,2.4-.3,3.5-.3,1.1-.7,2.2-1.4,3.3-.6,1-1.4,2-2.3,2.9-.5.4-1,.8-1.6,1.2-.6.4-1.2.7-1.9.9-.7.3-1.4.5-2.2.5-.8,0-1.6.1-2.4,0-.8-.1-1.5-.3-2.2-.6-.7-.3-1.3-.7-1.9-1.1ZM362,420.7c.5-.2,1-.5,1.5-.8.4-.3.9-.7,1.2-1.1.7-.8,1.3-1.7,1.7-2.6.4-.9.7-1.9.8-2.9.1-1,0-2,0-2.9-.2-1-.5-1.9-.9-2.7-.2-.4-.5-.8-.8-1.2-.3-.4-.7-.7-1-1-.4-.3-.8-.5-1.2-.7-.4-.2-.8-.3-1.3-.4-.4,0-.9,0-1.4,0s-.9.2-1.4.3c-.5.2-.9.4-1.3.7-.4.3-.8.6-1.2.9-.8.7-1.4,1.5-1.9,2.3s-.9,1.8-1.2,2.8c-.2,1-.4,2-.3,2.9,0,1,.3,2,.7,2.9.2.5.5.9.8,1.3.3.4.7.8,1.1,1.2.4.3.9.6,1.4.9.5.2,1.1.4,1.6.5.6,0,1.2,0,1.7,0,.6,0,1.1-.2,1.6-.5Z"/>
            </g>
          </g>
        </g>
        <g id="Calque_32">
          <path class="st22" d="M391.3,370.8c-.9-2.7-3.1-5.3-5-7.2-1.9-1.9-3.6-3.2-3.5-3.3,0,0,2.7,2.3,5.9,4.3,3.1,2,6.8,3.8,8.7,2.6.5-.3.9-.9,1.1-1.4.2-.6.3-1.2.3-1.8-.2-3.1-4.2-5.7-8.2-7.6-4-1.9-7.9-3-7.8-3.2,0-.2,2.9,1.2,6.3,2.2,3.4,1,7.5,1.5,10.1-.5.2-.1.6-.5,1-1,.4-.5.8-1.2.7-1.9,0-1.3-1.3-2.2-3.4-3.2-2.1-1-5.2-2-9-3.4-1.7-.6-3.9-1.4-6.3-2.3-2.5-.9-5.3-2-8.4-3.2.7-.5,1.6-1.1,2.6-1.8,1-.8,2-1.7,3-2.8,1.1-1.2,2.2-2.4,2.9-3.5.7-1.1,1.1-2.2.9-3.3-.2-1.2-1.2-2.1-2.5-2.6-1.3-.5-2.9-.7-4.3-.4-1.8.4-3.1,1.6-4.3,2.9-1.2,1.3-2.1,2.9-3.2,4.1-1.6,1.9-4.2,3.9-8.2,5.5-4.1,1.5-9.7,2.6-17.5,2.7l2.2,7.5,2.2,7.5c-.7.5-1.4,1.2-2,1.9-.6.7-.9,1.4-.7,2.1.4,1.5,3,1.4,6.4,1.5,3.5.1,7.8.4,11.8,2.7,4.7,2.7,7.2,7.3,9.2,11.2,2,3.9,3.6,7,6.4,6.8,0,0,.4,0,.9-.2.5-.1,1-.4,1.5-.9,1.3-1.2,1.7-3.2,1.3-5.8-.4-2.6-1.5-5.8-3.3-9.3.1.3,1.4,3,3.2,5.5,1.8,2.5,4.1,4.9,6.3,4.6.1,0,.6,0,1.1-.3.5-.2,1.1-.6,1.5-1.2.2-.3.3-.6.4-1.2,0-.6,0-1.3-.4-2.4Z"/>
        </g>
        <g id="Calque_31">
          <path class="st35" d="M351.7,333.7c-1.4-.4-5-2-9.9-5.9-4.8-3.9-10.9-10.3-16.9-20.3-7.8-12.8-8.5-23.5-9.1-32.5-.6-9-1.1-16.4-8.3-22.9-4-3.6-9.1-6-14.4-7-5.3-1-10.6-.7-15.1,1.3-9.1,4.1-13,14.2-14.7,23.6-1.6,9.4-1,18.2-.9,19.3,1.1,13,6.4,23.7,12.3,31.9,5.9,8.2,12.4,14,16,17.3,13.2,11.7,27.7,18.1,40.3,21.6,12.7,3.5,23.5,4.1,29.3,4.2-.4-1.6-.8-3.6-1.1-6-.2-2.4-.3-5.2,0-8.2.4-3.3,1.1-6.2,2-8.7.8-2.5,1.8-4.5,2.6-5.9-1.5,0-3.3,0-5.3-.3-2.1-.2-4.4-.7-6.8-1.5Z"/>
        </g>
        <g id="Calque_29">
          <path class="st12" d="M320.5,397.3c-3.1,1.3-7,2.8-11.7,4.1-4.7,1.3-10.1,2.4-16.1,3-5.9.6-10.4.4-14.4-.2-4-.5-7.3-1.4-11-2.3-2.7-.6-5.5-1.3-8.7-1.8-3.3-.5-7-.8-11.5-.9-1.8,0-3.5,0-5.1,0-1.6,0-3.1.2-4.6.3-8.1.8-13.8,2.6-19.8,3.8-6,1.2-12.2,1.8-21.1.3-4.8-.8-9-2-12.7-3.2-3.6-1.3-6.6-2.6-8.9-3.7.7-6.1,1.3-11.7,1.8-16.5.5-4.8.9-8.8,1.2-11.8,0-.2,0-.4,0-.6,0-.2,0-.4,0-.6.4-4,.8-8,1.2-12,.4-4,.8-8,1.2-12,.8-7.5,1.6-14.9,2.4-22.4.8-7.5,1.6-14.9,2.4-22.4.4-3.8.8-7.5,1.4-11.3.6-3.7,1.5-7.4,2.9-10.8,1.8-4.4,4.3-8.4,7.3-12,3-3.6,6.5-6.8,10.2-9.6,4.4-3.3,8.7-6.1,12.7-8.4,4-2.3,7.8-4,11.3-5.2h33.1c4.1,2,8.3,4,12.3,6.2,4,2.2,8,4.6,11.7,7.4,3.7,2.8,7.2,6,10.2,9.6,3,3.6,5.5,7.6,7.3,12,1.4,3.5,2.3,7.1,2.9,10.8.6,3.7,1,7.5,1.4,11.3.7,6.6,1.4,13.3,2.1,19.9.7,6.6,1.4,13.3,2.1,19.9.4,4,.8,8.1,1.3,12.1.4,4,.8,8.1,1.2,12.1.1,1,.2,2,.3,3,.1,1,.2,2,.3,3,.3,3.3.8,7.4,1.3,12.2.5,4.8,1.2,10.3,2,16.4Z"/>
        </g>
        <g id="Calque_30">
          <path class="st34" d="M144.8,441.6c13.7-5.4,89.4-29,99.9-33.6,10.4-4.6,47.5-21,54.7-24.4,1.7-1,3.9-2.3,6.4-3.6,2.5-1.3,5.4-2.7,8.7-4,2.7-1.1,6.8-2.7,11.9-4.2,5.1-1.4,11.3-2.7,18-3,2.2,0,5-.1,8.3.2,3.2.3,6.9.8,10.6,1.9,0,0,.4.2.8.4.4.2,1,.5,1.6.9,5.4,3.3,8.2,8.7,9.6,13.9,1.4,5.1,1.5,10,1.5,12,0,1.7,0,3.8-.3,6.3-.3,2.4-8.5,13.8-13.6,17.1-5.1,3.3-11.2,6.9-18.3,10.2-15.1,7.2-32.8,12.7-47.5,15.3-14.6,2.6-44.9,5.5-50.2,6.7-20.8,4.7-100.8,14.5-99.3,12.1l-3-24.1Z"/>
        </g>
        <g id="Calque_28">
          <path class="st35" d="M247.1,399.3c-1.8,0-3.5,0-5.1,0-1.6,0-3.1.2-4.6.3.7-.6,1.3-1.3,2-2,.7-.7,1.3-1.5,2-2.3,0,0,.5-.6,1.2-1.6.7-1,1.7-2.3,2.5-3.7,2.2-3.6,3.3-11.1,4.1-17.7.8-6.6,1.1-12.3,1.8-12.3.5,0,1.4,2.9,2.5,7.3,1.1,4.4,2.3,10.3,3.3,16.2.3,1.8.7,3.9,1.5,6.2.8,2.3,2.7,9.4,3.6,10.3.9.8-10.3-.7-14.8-.7Z"/>
        </g>
        <g id="Calque_27">
          <path class="st31" d="M250,305.3c2.6,0,3.9-2,3.9-4,0-2-1.3-4-3.9-4s-3.9,2-3.9,4c0,2,1.3,4,3.9,4h0Z"/>
        </g>
        <g id="Calque_26">
          <path class="st31" d="M250,317.2c2.6,0,3.9-2,3.9-4,0-2-1.3-4-3.9-4s-3.9,2-3.9,4c0,2,1.3,4,3.9,4h0Z"/>
        </g>
        <g id="Calque_25">
          <path class="st35" d="M250,341.6c2.6,0,3.9-2,3.9-4,0-2-1.3-4-3.9-4s-3.9,2-3.9,4c0,2,1.3,4,3.9,4h0Z"/>
        </g>
        <g id="Calque_21" data-name="Calque_2">
          <path class="st8" d="M214.6,347.1l-11.9-1.9c-2.2-.3-4.4.8-5.3,2.8-.3.7-.5,1.5-.4,2.3-1.2,6.1-5.7,6.8-5.7,6.8l1.8-11.2c.5-3.1-1.9-5.7-4.8-5.8h0c-6.1-1.2-7.2-6-7.2-6h0s10.8,1.7,10.8,1.7c3.1.5,5.9-2,5.8-5.1.4-1.4,2.1-6.3,6.5-6.6l-1.7,10.7c-.4,2.7,1.4,5.3,4.1,5.7.1,0,.3,0,.4,0,0,0,5.6,1.2,7.6,6.5Z"/>
          <path class="st3" d="M214.6,344.1c-2-5.3-7.6-6.5-7.6-6.5.2,0,.5,0,.7,0,1.1,0,2.2-.3,3.2-.7,0,0,0,0,.1,0,.6.1,5.9,1.6,6,7.4,0,.1,0,.2-.2.2,0,0,0,0,0,0l-2.1-.3Z"/>
          <path class="st3" d="M204.1,318.3c.2,0,.3.1.3.3,0,0,0,0,0,0l-.4,2.5c-4.4.3-6.1,5.2-6.5,6.6,0,0,0-.1,0-.2,0-1.1-.3-2.1-.6-3.1,0,0,0-.1,0-.2.2-.7,1.6-5.8,7.2-6Z"/>
          <path class="st3" d="M198.2,350.6c.1.2.1.4,0,.6-.4,1.2-1.9,5.3-6.7,5.7-.4,0-.7-.2-.7-.6,0,0,0-.1,0-.2l.3-2s4.6-.6,5.7-6.8c.1,1.5.9,2.8,1.2,3.3Z"/>
          <path class="st1" d="M198.3,334.2c1.6.2,2.7,1.7,2.4,3.3-.2,1.6-1.7,2.7-3.3,2.4-1.6-.2-2.7-1.7-2.4-3.3,0,0,0,0,0,0,.2-1.6,1.7-2.7,3.3-2.4Z"/>
          <path class="st9" d="M191.2,357.1s1.2-.2,2.6-1.2l1.6-10c.5-3.1-1.9-5.7-4.8-5.8h0c-5-1-6.7-4.4-7.1-5.6l-2.5-.4h0s1.1,4.8,7.2,6h0c2.9,0,5.3,2.7,4.8,5.8l-1.8,11.2Z"/>
          <path class="st18" d="M193.3,356.1l.3-2,.2-1.2c-1.4,1-2.6,1.2-2.6,1.2l-.3,2c0,.4.2.7.5.7,0,0,.1,0,.2,0,.6,0,1.2-.2,1.8-.4,0-.1,0-.3,0-.4Z"/>
          <path class="st8" d="M314.4,343.1l-11.9-1.9c-2.2-.3-4.4.8-5.3,2.8-.3.7-.5,1.5-.4,2.3-1.2,6.1-5.7,6.8-5.7,6.8l1.8-11.2c.5-3.1-1.9-5.7-4.8-5.8h0c-6.1-1.2-7.2-6-7.2-6h0s10.8,1.7,10.8,1.7c3.1.5,5.9-2,5.8-5.1.4-1.4,2.1-6.3,6.5-6.6l-1.7,10.7c-.4,2.7,1.4,5.3,4.1,5.7.1,0,.3,0,.4,0,0,0,5.6,1.2,7.6,6.5Z"/>
          <path class="st3" d="M314.4,343.1c-2-5.3-7.6-6.5-7.6-6.5.2,0,.5,0,.7,0,1.1,0,2.2-.3,3.2-.7,0,0,0,0,.1,0,.6.1,5.9,1.6,6,7.4,0,.1,0,.2-.2.2,0,0,0,0,0,0l-2.1-.3Z"/>
          <path class="st3" d="M304,317.3c.2,0,.3.1.3.3,0,0,0,0,0,0l-.4,2.5c-4.4.3-6.1,5.2-6.5,6.6,0,0,0-.1,0-.2,0-1.1-.3-2.1-.6-3.1,0,0,0-.1,0-.2.2-.7,1.6-5.8,7.2-6Z"/>
          <path class="st3" d="M298.1,349.6c.1.2.1.4,0,.6-.4,1.2-1.9,5.3-6.7,5.7-.4,0-.7-.2-.7-.6,0,0,0-.1,0-.2l.3-2s4.6-.6,5.7-6.8c.1,1.5.9,2.8,1.2,3.3Z"/>
          <path class="st1" d="M298.1,333.2c1.6.2,2.7,1.7,2.4,3.3-.2,1.6-1.7,2.7-3.3,2.4-1.6-.2-2.7-1.7-2.4-3.3,0,0,0,0,0,0,.2-1.6,1.7-2.7,3.3-2.4Z"/>
          <path class="st9" d="M291.1,353.1s1.2-.2,2.6-1.2l1.6-10c.5-3.1-1.9-5.7-4.8-5.8h0c-5-1-6.7-4.4-7.1-5.6l-2.5-.4h0s1.1,4.8,7.2,6h0c2.9,0,5.3,2.7,4.8,5.8l-1.8,11.2Z"/>
          <path class="st18" d="M293.2,355.1l.3-2,.2-1.2c-1.4,1-2.6,1.2-2.6,1.2l-.3,2c0,.4.2.7.5.7,0,0,.1,0,.2,0,.6,0,1.2-.2,1.8-.4,0-.1,0-.3,0-.4Z"/>
          <path class="st8" d="M282.4,325.7l-5.1,10.9c-.9,2-.5,4.4,1.2,5.9.6.5,1.3.9,2.1,1,5.6,2.8,4.9,7.4,4.9,7.4l-10.3-4.8c-2.8-1.3-6,.2-6.9,3h0c-2.8,5.6-7.7,5.3-7.7,5.3h0s4.6-9.9,4.6-9.9c1.3-2.9-.3-6.2-3.3-7-1.2-.8-5.5-3.8-4.5-8.1l9.8,4.6c2.5,1.2,5.5,0,6.6-2.4,0-.1.1-.3.2-.4,0,0,2.7-5.1,8.4-5.5Z"/>
          <path class="st3" d="M282.4,325.7c-5.7.4-8.4,5.5-8.4,5.5,0-.2.1-.5.2-.7.2-1.1.3-2.2.2-3.3,0,0,0,0,0-.1.3-.6,3.1-5.2,8.7-3.7.1,0,.2.1.1.2,0,0,0,0,0,0l-.9,2Z"/>
          <path class="st3" d="M254.7,328.6c0-.2.2-.3.4-.2,0,0,0,0,0,0l2.3,1.1c-1,4.3,3.3,7.3,4.5,8.1,0,0-.1,0-.2,0-1-.2-2.1-.3-3.2-.3,0,0-.1,0-.2,0-.7-.4-5.1-3.2-3.7-8.6Z"/>
          <path class="st3" d="M284.1,343.3c.2,0,.4,0,.6,0,1.1.7,4.6,3.3,3.6,8,0,.4-.4.6-.8.5,0,0-.1,0-.1,0l-1.9-.9s.7-4.6-4.9-7.4c1.5.3,2.9,0,3.5-.3Z"/>
          <path class="st1" d="M268.4,338.7c.7-1.4,2.4-2.1,3.8-1.4,1.4.7,2.1,2.4,1.4,3.8-.7,1.4-2.4,2.1-3.8,1.4,0,0,0,0,0,0-1.4-.7-2.1-2.4-1.4-3.8Z"/>
          <path class="st9" d="M285.5,350.9s.2-1.2-.4-2.8l-9.2-4.3c-2.8-1.3-6,.2-6.9,3h0c-2.3,4.6-6.1,5.2-7.3,5.3l-1.1,2.3h0s4.9.3,7.7-5.3h0c.9-2.8,4.1-4.3,6.9-3l10.3,4.8Z"/>
          <path class="st18" d="M288.1,349.5l-1.9-.9-1.1-.5c.6,1.6.4,2.8.4,2.8l1.9.9c.3.2.7,0,.9-.3,0,0,0,0,0-.1.1-.6.2-1.2.1-1.8-.1,0-.3,0-.4,0Z"/>
        </g>
        <g id="uuid-be96bc18-1995-4204-89cf-e0d69345f409" data-name="Calque_21">
          <path class="st34" d="M316.5,363.3c-22.6,5.4-45.7,8.4-68.9,9.2-23.2.8-46.4-.7-69.3-4.4-.5,0-1-.4-1.3-.8-.3-.4-.5-.9-.4-1.5.3-3.4.7-6.8,1-10.3.3-3.4.7-6.8,1.1-10.2,0-.6.4-1.1.8-1.4s1-.5,1.6-.4c3.7.6,7.4,1.2,11.1,1.7,3.7.5,7.4.9,11.1,1.3,18.4,1.7,37,2,55.4.7,18.4-1.3,36.8-4.2,54.7-8.6.6-.1,1.2,0,1.7.3.5.3.8.9.9,1.5.4,3.4.7,6.9,1.1,10.3.4,3.4.7,6.9,1.1,10.3,0,.5,0,1-.4,1.4-.3.4-.7.7-1.2.8Z"/>
        </g>
        <g id="Calque_20">
          <path class="st11" d="M271.3,359.8c0,1.3-.2,2.5-.5,3.7s-.9,2.3-1.6,3.3c-.7,1-1.5,1.9-2.3,2.8-.9.8-1.8,1.6-2.8,2.2-2,1.3-4.1,2.3-6.4,3-2.2.7-4.6,1.2-6.9,1.4-2.4.2-4.8.1-7.1-.3-2.4-.4-4.7-1.1-7-2.2-1.1-.6-2.2-1.2-3.3-2-1-.8-2-1.7-2.9-2.8-.9-1-1.6-2.3-2.1-3.6-.5-1.3-.9-2.8-.9-4.2,0-1.5.2-2.9.7-4.3.5-1.4,1.1-2.6,1.9-3.7.8-1.1,1.7-2.1,2.7-2.9,1-.8,2-1.6,3.1-2.2,2.2-1.2,4.5-2.1,6.9-2.6,2.4-.5,4.7-.8,7.1-.7,2.4,0,4.7.4,7,.9,2.3.6,4.5,1.4,6.6,2.6,1,.6,2,1.3,3,2,.9.8,1.8,1.6,2.5,2.6.7,1,1.4,2.1,1.8,3.2.5,1.2.7,2.4.8,3.7ZM268.3,359.9c0-.9-.3-1.8-.6-2.7-.4-.9-.8-1.7-1.5-2.4-.6-.7-1.3-1.4-2.1-2-.8-.6-1.7-1.1-2.5-1.5-1.8-.9-3.8-1.4-5.8-1.7-2-.3-4-.4-6-.2-2,.2-4,.6-5.8,1.2-1.9.6-3.6,1.4-5.2,2.5-.8.5-1.5,1.1-2.1,1.7-.6.6-1.2,1.3-1.6,2-.4.7-.8,1.4-1,2.1-.2.7-.3,1.4-.3,2.2,0,.7.2,1.4.5,2.1.3.7.7,1.4,1.2,2,.5.7,1.1,1.3,1.8,1.9.7.6,1.4,1.1,2.2,1.6,1.6.9,3.4,1.7,5.3,2.1,1.9.5,3.9.8,5.9.8,2,0,4-.1,6-.6,2-.4,3.9-1.1,5.6-2.1.9-.5,1.7-1.1,2.4-1.7.7-.6,1.4-1.3,2-2.1.6-.8,1-1.6,1.3-2.5.3-.9.4-1.8.4-2.7Z"/>
        </g>
        <g id="Calque_19">
          <path class="st2" d="M257.8,363.6c2-.1,3.9-.2,5.9-.3,2-.1,3.9-.2,5.9-.3,1.9-.1,2.9-1.7,2.8-3.2,0-1.5-1.1-3-3-2.9-2,.1-3.9.2-5.9.3-2,.1-3.9.2-5.9.3-1.9.1-2.9,1.7-2.8,3.2,0,1.5,1.1,3,3,2.9h0Z"/>
        </g>
        <g id="Calque_18">
          <path class="st29" d="M242.3,364.6c2.6,0,3.9-2,3.9-4,0-2-1.3-4-3.9-4s-3.9,2-3.9,4c0,2,1.3,4,3.9,4h0Z"/>
        </g>
        <g id="Calque_17">
          <path class="st29" d="M217.4,364.6c2.6,0,3.9-2,3.9-4,0-2-1.3-4-3.9-4s-3.9,2-3.9,4c0,2,1.3,4,3.9,4h0Z"/>
        </g>
        <g id="Calque_16">
          <path class="st29" d="M192.5,361.8c2.6,0,3.9-2,3.9-4s-1.3-4-3.9-4-3.9,2-3.9,4c0,2,1.3,4,3.9,4h0Z"/>
        </g>
        <g id="Calque_15">
          <g id="Calque_39">
            <g id="Calque_60">
              <g>
                <path class="st22" d="M187.6,164.5c-1.4-3.1-3.6-5.7-6.2-7.6-2.6-1.9-5.7-3.1-8.9-3.3-5-.3-9.6,1.6-12.9,4.4-3.4,2.8-5.5,6.6-5.7,9.9-.2,3.2,1.6,5.2,3.7,7.6,2.1,2.5,4.6,5.4,5.9,10.7.9,3.7.7,6.4.7,8.5,0,2.1,0,3.6,1.4,4.8,1.1.9,2.9,1.6,6.1,1.2,3.2-.4,7.7-1.8,14.1-5l2-31.1Z"/>
                <path class="st0" d="M184.6,173.8c-1.4-2.1-3.3-3.6-5.3-4.4-2-.8-4-1-5.8-.3-2.1.7-3.3,2.4-4,4.1-.7,1.7-1,3.5-1.1,4.4,0,.6-.4,2.9,0,5.3.4,2.4,1.4,5,4,6.1,1.8.8,4.1.8,6.3,0,2.2-.8,4.3-2.4,5.8-4.7v-10.4Z"/>
                <path class="st0" d="M181.5,165.3c-.6-.7-1.4-1.3-2.2-1.8s-1.7-1-2.6-1.3c-.5-.2-.9-.3-1.4-.4-.5-.1-1-.2-1.5-.3-.5,0-1-.1-1.5-.1-.5,0-1,0-1.5,0-1,0-2,.3-3,.6-1,.3-1.9.8-2.7,1.4-.8.6-1.6,1.3-2.2,2.1-.6.8-1.1,1.7-1.5,2.7.2-1,.6-2,1.2-2.9s1.2-1.8,2-2.5c.8-.7,1.8-1.3,2.8-1.8,1-.5,2.1-.8,3.2-1,.6-.1,1.1-.2,1.7-.2.6,0,1.1,0,1.7,0,.6,0,1.2,0,1.7.1.6,0,1.2.2,1.7.3,1.1.3,2.2.7,3.3,1.2s2,1.2,2.9,1.9l-1.1,1-1.1,1Z"/>
              </g>
            </g>
            <g id="Calque_59">
              <g>
                <path class="st22" d="M305.3,164.5c1.4-3.1,3.6-5.7,6.2-7.6,2.6-1.9,5.7-3.1,8.9-3.3,5-.3,9.6,1.6,12.9,4.4,3.4,2.8,5.5,6.6,5.7,9.9.2,3.2-1.6,5.2-3.7,7.6-2.1,2.5-4.6,5.4-5.9,10.7-.9,3.7-.7,6.4-.7,8.5,0,2.1,0,3.6-1.4,4.8-1.1.9-2.9,1.6-6.1,1.2-3.2-.4-7.7-1.8-14.1-5l-2-31.1Z"/>
                <path class="st0" d="M308.3,173.8c1.4-2.1,3.3-3.6,5.3-4.4,2-.8,4-1,5.8-.3,2.1.7,3.3,2.4,4,4.1.7,1.7,1,3.5,1.1,4.4,0,.6.4,2.9,0,5.3-.4,2.4-1.4,5-4.1,6.1-1.8.8-4.1.8-6.3,0-2.2-.8-4.3-2.4-5.8-4.7v-10.4Z"/>
                <path class="st0" d="M311.4,165.3c.6-.7,1.4-1.3,2.2-1.8.8-.5,1.7-1,2.6-1.3.5-.2.9-.3,1.4-.4.5-.1,1-.2,1.5-.3.5,0,1-.1,1.5-.1.5,0,1,0,1.5,0,1,0,2,.3,3,.6,1,.3,1.9.8,2.7,1.4.8.6,1.6,1.3,2.2,2.1.6.8,1.1,1.7,1.5,2.7-.2-1-.6-2-1.2-2.9-.5-.9-1.2-1.8-2-2.5-.8-.7-1.8-1.3-2.8-1.8-1-.5-2.1-.8-3.2-1-.6-.1-1.1-.2-1.7-.2-.6,0-1.1,0-1.7,0-.6,0-1.2,0-1.7.1-.6,0-1.2.2-1.7.3-1.1.3-2.2.7-3.3,1.2-1,.5-2,1.2-2.9,1.9l1.1,1,1.1,1Z"/>
              </g>
            </g>
            <g id="Calque_58">
              <path class="st22" d="M312.8,189.3c-1.5,16.1-9.1,32.1-20.9,43.8-11.8,11.8-27.7,19.4-45.6,18.9-17.3-.5-32.3-8.4-43.3-20.1-11-11.7-18-27.1-19.4-42.6-1.7-18.3,4.6-37.1,16-51.4,11.4-14.3,27.9-24.1,46.7-24.6,19.4-.5,36.9,9,49.1,23.3,12.2,14.4,19.1,33.6,17.4,52.7Z"/>
            </g>
            <g id="Calque_57">
              <path class="st32" d="M299.1,236.9c-.6.3-1.1.6-1.7.8-4.4,2.2-8.8,4.5-12.9,6.8-1.1.6-2.1,1.2-3.1,1.8-6.1,3.8-32.7-1.1-11.8,32.5,9.9,15.9-9.1,43.4-29.4,41.3s-19-12.8-5.5-22.9-1.2,8.1,4.2,11.4,7.2,1.2,7.1-7.4c-.1-14.9-18.1-20.6-16.6-32.7,2.8-23-.4-16.6-15.9-27.3s-4.5,5.6-5.7,4.6c-4-3.3-9.9-3-14.6-6.3-1-.7-2-1.4-3-2.1-8.4-6-15.6-11.6-15.5-16.1.2-10.2,1.8-18.5,3.1-24-1-7-1.9-17.3-.5-28.1,1.4-10.8,5.1-22.2,13.3-31.3,3.1-3.4,6.8-6.5,10-8.6,3.1-2.1,5.7-3.1,6.4-2.5.9.8-1.3,3.5-4.2,8.3-3,4.8-6.8,11.7-9.2,20.8-1.2,4.6-2,9.2-2.4,13.3-.4,4-.6,7.5-.6,9.8h0c0,.4,0,.6,0,.9,0,.2,0,.5,0,.7v.2c0,.4,0,.9,0,1.3s0,.8,0,1.2c0,1.6.1,3,.2,4.1,0,1.1.2,1.9.2,2.3,0,.6.1,1.2.2,1.7,0,.6.2,1.2.3,1.8,0,.1,0,.2,0,.3,0,0,0,.2,0,.3.1.6.2,1.3.4,1.9.1.6.3,1.3.5,1.9.6,2.4,1.7,6,3.3,9.8,1.6,3.8,3.8,7.7,6.9,10.9,0,0,0,0,0,0s0,0,0,0c.3.3.6.6.9.9.3.3.6.6.9.8.2.1.4.3.5.5.2.1.4.3.6.4,0,0,0,0,0,0,0,0,0,0,0,0,.1,0,.2.2.4.3.1,0,.2.2.4.3.9.6,1.9,1.1,2.9,1.6,1,.5,2.1.8,3.2,1.1,1.2.3,2.7.5,4.1.6,1.5,0,3,0,4.6-.2.4,0,.7-.1,1.1-.2.4,0,.7-.1,1.1-.2.5-.1,1.1-.3,1.6-.4.5-.2,1-.4,1.5-.6,0,0,0,0,0,0,0,0,0,0,0,0,.5-.2,1.1-.5,1.6-.8.5-.3,1-.6,1.4-1,0,0,0,0,0,0,0,0,0,0,0,0,.4-.3.7-.6,1-.9.3-.3.6-.7.9-1,1.2-1.6,1.7-3.3,2.4-5,.7-1.7,1.5-3.2,3.3-4.5,1.2-.9,2.6-1.4,3.9-1.6,1.3-.3,2.6-.3,3.6-.2h0c1,0,2.3,0,3.6.2,1.3.3,2.7.8,3.9,1.6,1.8,1.3,2.6,2.9,3.3,4.5.7,1.6,1.2,3.4,2.4,5,.4.5.8,1,1.3,1.4.5.4,1,.8,1.5,1.2,0,0,0,0,0,0,0,0,0,0,0,0,.5.3.9.6,1.4.8.5.2,1,.5,1.5.6t0,0s0,0,0,0c.2,0,.5.2.7.2.2,0,.5.2.7.2.4,0,.7.2,1.1.3.4,0,.7.2,1.1.2,1.7.3,3.4.4,5,.3,1.6,0,3.2-.3,4.5-.6,1-.2,1.9-.5,2.8-.9.9-.4,1.7-.8,2.5-1.3.3-.2.7-.4,1-.6.3-.2.6-.4.9-.7,0,0,.2-.1.3-.2.1,0,.2-.1.3-.2,0,0,0,0,0,0,0,0,0,0,0,0,.5-.4,1-.9,1.5-1.4.5-.5.9-1,1.4-1.5,0,0,0,0,0,0,0,0,0,0,0,0,2.7-3.2,4.7-6.9,6.2-10.5,1.5-3.5,2.5-6.9,3.1-9.2.2-.7.4-1.4.5-2.1.2-.7.3-1.4.4-2.1,0,0,0-.3.2-.9,0-.6.2-1.4.3-2.3,0-.2,0-.3,0-.5,0-.2,0-.3,0-.5,0-.5.1-1.1.2-1.6,0-.6,0-1.1.1-1.7,0-.9,0-1.7.1-2.6,0-.9,0-1.7,0-2.5,0-.5,0-1,0-1.5s0-1,0-1.5h0c0-.8,0-1.4,0-2,0-.6,0-1.3,0-1.9-.5-10.7-2.4-19-4.2-24.8-1.8-5.7-3.5-8.8-3.5-8.8-2.2-4-4.5-7.1-6.2-9.2-1.7-2.2-2.7-3.5-2.2-4,.6-.6,3.3.7,6.5,2.9,3.2,2.1,7,5.1,9.6,7.6,3,2.9,7.7,8.2,11.2,17.6,3.6,9.4,6,22.8,4.5,41.7,1.9,4.6,4.8,12.7,6.3,23,.7,4.9-10,10.5-21.8,16.5Z"/>
            </g>
            <g id="Calque_56">
              <path class="st27" d="M226.8,199.5c0,2.9-1.6,5.5-4.2,7.4-2.6,1.9-6.2,3.1-10.1,3.1s-7.6-1.2-10.1-3.1c-2.6-1.9-4.2-4.5-4.2-7.4s1.6-5.5,4.2-7.4c2.6-1.9,6.2-3.1,10.1-3.1s7.5,1.2,10.1,3.1c2.6,1.9,4.2,4.5,4.2,7.4Z"/>
            </g>
            <g id="Calque_55">
              <path class="st27" d="M293,199.5c0,2.9-1.6,5.5-4.2,7.4-2.6,1.9-6.2,3.1-10.1,3.1s-7.6-1.2-10.1-3.1c-2.6-1.9-4.2-4.5-4.2-7.4s1.6-5.5,4.2-7.4c2.6-1.9,6.2-3.1,10.1-3.1s7.5,1.2,10.1,3.1c2.6,1.9,4.2,4.5,4.2,7.4Z"/>
            </g>
            <g id="Calque_54">
              <path class="st12" d="M313.2,156.5c1.5-1.9,1.5-4.8.5-9.1-1.1-4.3-3.3-10-6.2-17.6-2.2-5.6-3.8-9.8-5.7-13.9-1.9-4.1-4.1-8.2-7.5-13.6-12.2-19.5-20-45-26.9-65.6C260.6,16.1,254.7.2,246.4,0c-6-.2-9.3,7.8-15.2,24.8-6,17-14.6,43.2-31.2,79.4-6.8,14.9-13,26.8-16.7,35.8-3.7,9-4.9,15.1-1.7,18.4,3.9,4,11,.4,21.8-4.1,10.8-4.6,25.3-10.1,43.9-10.1,17.8,0,32.7,5.2,43.9,9.3,11.2,4.1,18.8,7.2,22.1,3Z"/>
            </g>
            <g id="Calque_53">
              <path class="st10" d="M192.8,236.8c.1.9.3,1.8.4,2.7-1-.7-2-1.4-3-2.1-.2-1.6-.4-3.1-.6-4.7-.9-7-1.3-14.1-1.4-21.2-.1-7.1.2-14.2.8-21.3.2-2.3.5-4.5.7-6.8.3-2.3.6-4.5,1-6.8,0,.3,0,.5,0,.8,0,.2,0,.5,0,.7,0,.5,0,.9,0,1.3s0,.8,0,1.2v.2c0,.4,0,.9,0,1.3s0,.8,0,1.2c0,1.6.1,3,.2,4.1,0,1.1.2,1.9.2,2.3,0,.6.1,1.2.2,1.7,0,.6.2,1.2.3,1.8,0,.5,0,.9,0,1.4,0,.5,0,.9,0,1.4-.8,13.3-.4,27.1,1.4,40.7Z"/>
            </g>
            <g id="Calque_50">
              <path class="st10" d="M287.7,217.5c-.2,4.1-.5,8.3-1,12.4s-1,8.2-1.7,12.3c-.1.8-.3,1.5-.4,2.3-1.1.6-2.1,1.2-3.1,1.8,1.7-8.5,2.8-17.2,3.2-25.9,0,0,0,0,0,0,0,0,0,0,0,0,.5-.4,1-.9,1.5-1.4.5-.5.9-1,1.4-1.5Z"/>
            </g>
            <g id="Calque_49">
              <path class="st10" d="M302.3,211.5c-.1,7.1-.6,14.2-1.4,21.2l-1.7,4.2-2.5,6.2c.3-1.8.6-3.6.9-5.4,0-.3,0-.6.1-.9,1.9-13.5,2.3-27.3,1.4-40.7,0-1.1-.1-2.2-.2-3.3,0-1.1-.2-2.2-.3-3.3,0-.5.1-1.1.2-1.6,0-.6,0-1.1.1-1.7,0-.9,0-1.7.1-2.6,0-.9,0-1.7,0-2.5,0-.5,0-1,0-1.5s0-1,0-1.5h0c0-1.2,0-2.3,0-3.4,0-1.1,0-2.2,0-3.2.6,3.1,1.1,6.2,1.5,9.4s.8,6.3,1.1,9.4c.6,7.1.9,14.2.8,21.3Z"/>
            </g>
            <g id="Calque_48">
              <path class="st33" d="M241.3,243.6c1.4,1.1,2.9,1.8,4.5,2.1,1.6.3,3.3.1,4.9-.6,1.3-.5,2.8-1.5,3.8-2.7,1-1.2,1.6-2.7,1-4.3-.1-.3-.4-.7-.7-.9-.3-.2-.7-.3-1.1-.1-.9.4-1.5,1-2.1,1.6-.6.6-1.2,1.3-2,1.8-1,.7-2.1.9-3.3,1-1.2,0-2.3-.2-3.4-.6-.7-.3-1.4.2-1.8.8-.4.6-.4,1.4.2,1.9h0Z"/>
            </g>
            <g id="Calque_47">
              <path class="st32" d="M211.3,161.4c.9-.3,1.6-.8,2.3-1.3.7-.5,1.4-1.1,2.2-1.5,1.1-.6,2.2-1,3.3-1.2s2.3-.4,3.5-.5c1.1,0,2.2,0,3.3.2,1.1.2,2.1.5,3.1,1,1.1.5,2.1,1,3.1,1.3,1,.3,2,.4,3.3.1.7-.2,1.3-.7,1.7-1.3.4-.6.5-1.4.3-2.1-.8-2.9-3.5-4.2-6.6-4.7-3.1-.5-6.5-.2-8.8.3-2,.4-4.7,1.5-7,3-2.3,1.5-4.3,3.5-4.9,5.6,0,.4,0,.7.3,1,.2.3.6.4,1,.3h0Z"/>
            </g>
            <g id="Calque_46">
              <path class="st32" d="M284.2,161.4c-.9-.3-1.6-.8-2.3-1.3-.7-.5-1.4-1.1-2.2-1.5-1.1-.6-2.2-1-3.3-1.2-1.1-.3-2.3-.4-3.5-.5-1.1,0-2.2,0-3.3.2-1.1.2-2.1.5-3.1,1-1.1.5-2.1,1-3.1,1.3-1,.3-2,.4-3.3.1-.7-.2-1.3-.7-1.7-1.3-.4-.6-.5-1.4-.3-2.1.8-2.9,3.5-4.2,6.6-4.7,3.1-.5,6.5-.2,8.8.3,2,.4,4.7,1.5,7,3,2.3,1.5,4.3,3.5,4.9,5.6,0,.4,0,.7-.3,1-.2.3-.6.4-1,.3h0Z"/>
            </g>
            <g id="Calque_45">
              <g>
                <path class="st35" d="M208.8,133.5c-.3,0-.5,0-.7,0-.2,0-.5,0-.7,0,0,0,0,0,0,0,0,0,0,0,0,0,0-.1-.2-.3-.2-.4,0-.1-.2-.3-.2-.4.1,0,.3-.2.4-.3.1,0,.3-.2.4-.3s0-.1,0-.2c0,0,0-.1-.2,0-.2,0-.3.1-.5.2-.2,0-.3.1-.5.2,0,0,0,0,0,0,0,0,0,0,0,0,0-.2.1-.3.2-.5,0-.2.1-.3.2-.5,0-.2,0-.4-.2-.4-.2,0-.4,0-.5.2,0,0,0,.1,0,.2,0,0,0,.1,0,.2,0,0,0-.1-.1-.2,0,0,0-.1-.1-.2,0-.1-.3-.2-.4-.2-.2,0-.3.1-.3.3,0,.1,0,.2,0,.3,0,.1,0,.2,0,.3,0,0,0,0-.1.1,0,0,0,0-.1.1-.1,0-.2,0-.3.2,0,0-.1.2-.1.3-.3.3-.6.7-.9,1l-.9,1c-.2.2-.1.4,0,.5.1.1.4.2.5,0,.2-.3.5-.5.7-.6.3-.2.5-.3.8-.4,0,.1,0,.3,0,.4,0,.1,0,.3,0,.4,0,0-.1,0-.2.1s0,0-.1.2c0,0-.1.2,0,.4,0,.1.1.2.3.3,0,0,0,.1,0,.2,0,0,0,.1,0,.1,0,0,0,0,0,.1,0,0,0,0,0,.1,0,.2,0,.3.2.4.1,0,.3,0,.4-.2,0-.2.1-.3.2-.5,0-.2.1-.3.2-.5.2,0,.3-.2.5-.3.1-.1.3-.3.4-.4.1,0,.2,0,.3,0,.1,0,.2,0,.3,0,0,0,.2.2.3.2,0,0,.2.2.3.2.1.1.3.1.4,0,.1,0,.2-.2.3-.3,0,0,.1,0,.2,0,0,0,.1,0,.2,0,.2,0,.4,0,.5-.2,0-.2,0-.4-.2-.5,0,0,0,0,0,0,0,0,0,0,0,0,.2,0,.3-.2.3-.4,0-.2,0-.3-.3-.4Z"/>
                <path class="st35" d="M245.3,84.8c-.1,0-.3,0-.4,0-.1,0-.3,0-.4.1-.3,0-.4.3-.3.5,0,.2.2.4.5.4.1,0,.2,0,.3,0,.1,0,.2,0,.3,0,0,0,0,0,0,0,0,0,0,0,0,0,0,0,0,0-.1,0,0,0,0,0-.1,0-.2,0-.3.3-.3.5,0,.2.1.4.3.5,0,.2-.1.4-.2.6,0,.2-.1.4-.2.6,0,.2,0,.4.2.5.2,0,.4,0,.5-.2,0,0,0-.1,0-.2,0,0,0-.1,0-.2,0,.1,0,.2.2.2,0,0,.2,0,.3,0,.1-.2.2-.3.3-.5.1-.2.2-.4.3-.5,0,0,0,.1.1.2,0,0,0,.1.1.2.1.2.4.3.6.2.2,0,.3-.3.3-.5.2,0,.3,0,.5,0,.2,0,.3,0,.5,0,.2,0,.3,0,.4-.2,0-.2,0-.3,0-.5-.1-.3-.3-.6-.5-.9-.2-.3-.4-.5-.7-.7.3,0,.5-.2.8-.3s.5-.2.7-.3c0,0,.1,0,0-.2,0,0,0-.1-.1-.1-.2,0-.5,0-.7,0-.2,0-.4,0-.7,0,.1-.3.2-.5.3-.8.1-.3.2-.5.3-.7.1-.2,0-.4-.2-.5-.2,0-.4,0-.5.1-.2.3-.3.6-.5.8-.2.3-.3.6-.5.8,0,0,0-.2,0-.3,0-.1,0-.2,0-.3,0-.2-.2-.3-.4-.3-.2,0-.4.1-.4.3,0,.1,0,.3-.1.4,0,.1,0,.3-.1.4-.1,0-.2,0-.3.2,0,0-.1.2-.1.3ZM247.7,86.4s0,0-.1,0c0,0,0,0-.1,0,0,0,0,0,0,0,0,0,0,0,0,0,0,0,0,0,0,0,0,0,0,0,0,0,0,0,0,0,0,0,0,0,0,0,0,0Z"/>
                <path class="st35" d="M249.7,30c0,0,.2,0,.3-.1,0,0,.2,0,.3-.1,0,.1,0,.2-.1.3,0,.1,0,.2-.1.3-.1.3-.3.6-.4.9-.1.3-.2.6-.3,1,0,.3.1.5.3.5.2,0,.4,0,.5-.3.1-.3.2-.6.3-1,.1-.3.2-.6.3-1,.1-.2.2-.4.4-.6.1-.2.3-.4.4-.6.2,0,.3,0,.5-.1.2,0,.3,0,.5-.2,0,0,0,0,0,0,0,0,0,0,0,0,0,0,0,0,0,0,0,0,0,0,0,0,0,0,0,0,0,.1,0,0,0,0,0,.1,0,0-.1,0-.2,0,0,0-.1,0-.2,0-.1,0-.3,0-.5,0-.1,0-.2.2-.2.4,0,.2,0,.4,0,.6,0,.2.1.3.2.5,0,.1-.1.2-.2.3,0,.1-.1.2-.2.3-.1.2,0,.4.1.5.1,0,.4,0,.5-.1,0,0,.1-.2.2-.2,0,0,.1-.2.2-.2,0,0,.1,0,.2.1,0,0,.1,0,.2.1.1,0,.2,0,.3,0,0,0,.2-.1.2-.2,0,0,0-.1.1-.2,0,0,0-.1,0-.2.1,0,.3.1.4.2.1,0,.3.1.4.2,0,0,.1.2.2.2,0,0,.1.2.2.2.1.2.3.2.4.2.1,0,.3,0,.4-.2,0,0,.2,0,.3.1,0,0,.2,0,.3.1.2.1.5,0,.6-.1.1-.2.2-.4,0-.6-.4-.4-.8-.8-1.2-1.3-.4-.4-.8-.8-1.2-1.3.3-.4.5-.8.8-1.2.3-.4.5-.8.8-1.2.1-.1,0-.3,0-.4,0-.1-.3-.2-.4-.2-.3,0-.6.2-.8.3-.3.1-.5.2-.8.4-.2,0-.4,0-.6,0-.2,0-.4,0-.5,0,0,0,0-.2-.1-.2,0,0,0-.2-.1-.2-.1-.2-.3-.2-.4-.2-.2,0-.3.1-.4.3,0,.2-.1.4-.2.6,0,.2-.1.4-.2.6-.5.1-.9.4-1.2.7-.3.3-.6.8-.7,1.2,0,.2,0,.4.2.5.1.1.4.1.5,0ZM253.8,27.8c0,0-.1,0-.2,0,0,0-.1,0-.2,0,0,0,.1,0,.2-.1,0,0,.1,0,.2-.1,0,0,.1,0,.1-.1,0,0,0-.1,0-.2,0,0,0,0,.1,0,0,0,0,0,.1,0,0,.1-.1.2-.2.3,0,.1-.1.2-.2.3Z"/>
                <path class="st35" d="M221.4,91.5c-.3.2-.5.5-.7.7-.2.2-.5.5-.7.7,0-.2.1-.5.2-.7,0-.2.1-.5.2-.7,0-.2,0-.4-.2-.4-.2,0-.3,0-.5.1-.1.2-.3.4-.4.6-.1.2-.3.4-.4.6,0,0,0,0,0-.1,0,0,0,0,0-.1,0-.2-.2-.3-.4-.3-.2,0-.4,0-.5.2,0,.1,0,.2-.1.3,0,.1,0,.2-.1.3,0,0,0,0,0,0,0,0,0,0,0,0-.2-.1-.4,0-.6,0-.1.1-.2.4,0,.6,0,0,.1.2.2.3,0,0,.1.2.2.3,0,0,0,0,0,.1,0,0,0,0,0,.1,0,0-.1,0-.2,0,0,0-.1,0-.2,0-.2,0-.4,0-.5.2-.1.2-.1.4,0,.5,0,0,0,0,0,0,0,0,0,0,0,0,0,0-.1,0-.2,0,0,0-.1,0-.2,0-.3,0-.4.3-.3.6,0,.2.2.4.5.4,0,0,0,0,0,0,0,0,0,0,0,0h0s0,0,0,0h0c0,0,.1,0,.2,0,0,0,.1,0,.2,0,0,.2-.2.4-.3.6,0,.2-.2.4-.3.6-.1.2,0,.5.2.6.2.1.4,0,.6-.1.2-.3.3-.5.5-.7.2-.3.3-.5.5-.7.1,0,.3.1.4.1.1,0,.3,0,.4,0,0,.3-.1.5-.2.8,0,.3-.1.5-.2.8,0,.1,0,.2.1.2,0,0,.2,0,.2-.1,0-.3.2-.5.3-.8,0-.3.2-.5.3-.8,0,0,.1,0,.2,0,0,0,0,0,.1,0,0,0,.1,0,.2,0,0,0,.1,0,.2,0,.3,0,.5.2.8.3.3,0,.5.2.8.3.3,0,.5,0,.5-.3,0-.2,0-.5-.2-.6-.1-.1-.3-.2-.4-.3-.1-.1-.3-.2-.4-.3,0,0,.1-.2.2-.3s0-.2.1-.3c0-.1,0-.2,0-.3,0,0,0-.2-.2-.2.2-.2.5-.4.7-.7.2-.3.4-.5.6-.8.1-.2,0-.5-.1-.6-.2-.1-.4-.2-.6,0ZM219.1,93.4s0,0,0,0h0s0,0,0,0h0s0,0,0,0Z"/>
                <path class="st35" d="M295.4,138.2c-.1-.3-.3-.6-.4-.8-.2-.2-.4-.5-.6-.6.1-.2.2-.4.3-.6.1-.2.2-.4.3-.6,0-.2,0-.4-.1-.5-.1-.1-.4-.1-.5,0-.2.2-.3.4-.5.6-.2.2-.3.4-.5.6,0,0-.1-.2-.2-.3,0,0-.1-.2-.2-.3,0-.1-.2-.2-.4-.2-.1,0-.3,0-.4.1,0,0-.1.2-.2.2,0,0-.1.2-.2.2,0,0,0,0,0,0,0,0,0,0,0,0-.3,0-.6.1-.9.2-.3.1-.6.3-.8.5,0,0-.1.2-.1.3,0,0,0,.2,0,.3,0,0,0,.2,0,.2,0,0,.1.1.2.1.2,0,.4,0,.5,0,.2,0,.4,0,.5,0-.2.4-.5.8-.7,1.2-.2.4-.5.8-.7,1.2-.1.2,0,.4.1.6.2.1.4.2.5,0,.2-.3.4-.5.7-.8s.4-.5.7-.8c0,0,0,0,0,.1,0,0,0,0,0,.1-.2.4-.4.8-.6,1.1-.2.4-.4.8-.6,1.1,0,.2,0,.4.1.5.1,0,.3,0,.4-.1.2-.3.3-.6.5-.9.2-.3.3-.6.5-.9.1.2.3.4.4.5.2.2.3.3.5.5.1.1.4.2.6.1.2,0,.4-.2.4-.4,0-.3,0-.6,0-.9s0-.6,0-.9c.1,0,.3-.1.4-.2.1,0,.3-.2.4-.3,0,0,.1-.1.1-.2,0,0,0-.2,0-.3ZM293.4,139.5s0,0,0,0c0,0,0,0,0,0,0,0,0,0,0,0,0,0,0,0,0,0,0,0,0,0,0,0s0,0,0,0c0,0,0,0,0,.1,0,0,0,0,0,.1Z"/>
                <path class="st35" d="M279.2,109.7c-.2-.3-.4-.6-.7-.9-.2-.3-.5-.5-.8-.7,0-.1,0-.2,0-.4,0-.1,0-.3,0-.4.2,0,.4-.2.7-.2.2,0,.4-.2.7-.2.3-.1.4-.4.3-.6s-.3-.4-.6-.3c-.2,0-.5.2-.7.2-.2,0-.5.2-.7.2,0,0,0,0-.1-.1,0,0,0,0-.1-.1,0,0,0,0,0,0,0,0,0,0,0,0,0-.1,0-.3,0-.4,0-.1-.2-.2-.3-.2,0-.2,0-.5.1-.7,0-.2,0-.5.1-.7,0-.3,0-.5-.3-.5-.2,0-.4,0-.5.3-.1.3-.2.6-.3.9,0,.3-.2.6-.2.9-.4.2-.8.4-1,.7-.3.3-.5.7-.7,1.1,0,0-.1.2-.2.2,0,0,0,.2-.1.2,0,.2,0,.4,0,.5.1.1.3.2.5.2.1,0,.3-.1.4-.2.1,0,.3-.1.4-.2,0,0,0,0,0,0,0,0,0,0,0,0,0,.3-.1.6-.2.9s-.1.6-.2.9c0,.3.1.5.3.6.2,0,.5,0,.6-.3,0-.1,0-.3.1-.4,0-.1,0-.3.1-.4.1.4.3.8.6,1.1.2.4.5.7.8,1,0,0,.1,0,.2,0,0,0,0-.1,0-.2-.2-.4-.3-.8-.5-1.2-.1-.4-.3-.8-.4-1.2.4.4.8.9,1.2,1.4.4.5.8,1,1.2,1.4s.2,0,.2,0c0,0,.1-.1.1-.2,0-.3,0-.5-.2-.8,0-.3-.2-.5-.3-.7,0,0,.2-.2.2-.3,0-.1,0-.3,0-.4ZM275.6,107s0,0,0,0c0,0,0,0,0,0,0,0,0,0,0,0,0,0,0,0,0,0,0,0,0,0,0,0,0,0,0,0,0,0Z"/>
                <path class="st35" d="M248.5,129.7c0,0-.2-.1-.3-.2,0,0-.2-.1-.3-.2-.2-.2-.3-.4-.5-.7-.2-.2-.3-.4-.5-.7.2,0,.3-.2.5-.3.2,0,.3-.2.5-.3.3-.1.3-.4.2-.6-.1-.2-.3-.3-.6-.2,0,0,0,0,0,0,0,0,0,0,0,0,.2-.4.5-.8.7-1.2.2-.4.5-.8.7-1.2.1-.2,0-.4-.1-.5-.1-.1-.3-.1-.5,0-.4.4-.8.8-1.2,1.3-.4.4-.8.8-1.2,1.3,0,0,0-.1-.1-.2s0-.1-.1-.2c0-.1,0-.3,0-.4,0-.1,0-.3,0-.4,0-.3-.3-.3-.5-.3-.2,0-.4.2-.3.5,0,0,0,.2,0,.3,0,0,0,.2,0,.3,0,0,0,0,0,0s0,0,0,0c0,0,0,0,0,0,0,0,0,0,0,0,0,.1,0,.3,0,.4,0,.1,0,.3,0,.4-.1,0-.2-.1-.3-.2-.1,0-.2-.1-.3-.2-.2-.1-.4,0-.5.1-.1.2,0,.4.1.6.1,0,.3.2.4.3.1,0,.3.2.4.3-.1.2-.3.3-.4.5-.1.2-.3.3-.4.5-.2.1-.3.3-.5.4-.2.1-.3.3-.4.4,0,0,0,0-.1.2,0,0,0,.1,0,.2-.1.2,0,.4,0,.5.1.1.3.2.5,0,0,0,0,0,0,0,0,0,0,0,0,0,0,0,0,0,0,0,0,0,0,0,0,0,.2-.1.4-.2.6-.4.2-.1.4-.2.6-.4,0,0,.2,0,.3,0,0,0,.2,0,.3,0-.3.5-.5,1-.8,1.5-.3.5-.5,1-.7,1.5,0,.1,0,.3,0,.3,0,0,.2,0,.3,0,.3-.4.6-.9.9-1.3.3-.5.6-.9.9-1.4,0,0,0,0,0,0,0,0,0,0,0,0,0,.3.3.3.5.3.2,0,.4-.2.3-.5,0,0,0-.1,0-.2,0,0,0-.1,0-.2,0,0,.2,0,.3,0,0,0,.2,0,.3,0,.2.2.5.3.7.5.2.2.4.3.7.5.2.1.3.1.4,0,.1,0,.2-.3.2-.4,0,0,0-.2,0-.3,0-.1,0-.2-.2-.3ZM246.3,126.8s0,0,0,.1c0,0,0,0,0,.1,0,0,0,0,0,0,0,0,0,0,0,0,0,0,0,0,0-.1,0,0,0,0,.1-.1Z"/>
                <path class="st35" d="M272.7,78.6c-.3.2-.6.4-.8.6s-.6.4-.8.6c-.3-.2-.6-.3-.9-.3-.3,0-.6,0-.9.2,0,0-.1,0-.2.2,0,0-.1.1-.2.2-.4,0-.7-.1-1.1-.1-.4,0-.8,0-1.1.1-.3,0-.4.3-.4.6,0,.2.2.5.5.5.2,0,.3,0,.5,0,.2,0,.3,0,.5,0,0,.1,0,.2.1.3,0,0,.2.1.4.1,0,0,0,0,.1,0,0,0,0,0,.1,0,0,0,0,0,0,0,0,0,0,0,0,0-.4.3-.8.6-1.2.9-.4.3-.8.6-1.2.9-.2.2-.2.4,0,.6.1.2.4.3.6.2.4-.2.7-.3,1.1-.5.4-.2.7-.3,1.1-.5,0,.4-.1.8-.2,1.2,0,.4-.1.8-.2,1.2,0,.4.2.7.5.8.3,0,.6,0,.7-.4,0-.4.2-.8.3-1.2,0-.4.2-.8.2-1.2,0,0,0,0,0,0,0,0,0,0,0,0,.1.2.3.3.6.3.2,0,.4-.2.5-.4,0,0,0,0,0,0s0,0,0,0c.2,0,.3,0,.4-.2.1-.1.2-.3,0-.5,0,0,0-.1,0-.2,0,0,0-.1,0-.2,0-.3.1-.6.1-.9,0-.3,0-.6-.2-.9,0,0,0,0,0,0,0,0,0,0,0,0,.3-.2.6-.4.8-.6.3-.2.5-.4.7-.7.2-.2.1-.5,0-.7-.1-.2-.4-.3-.6-.1Z"/>
                <path class="st35" d="M237.8,56.3c0-.1.1-.2.1-.4s0-.3-.1-.4c0-.1.1-.2.2-.3,0-.1.1-.2.2-.3.1-.3,0-.6-.2-.8-.2-.1-.5-.1-.8.2,0,0,0,0,0,0,0,0,0,0,0,0,0-.2-.2-.3-.4-.3-.2,0-.4,0-.5.2,0,0,0,0,0,.1,0,0,0,0,0,.1,0-.2,0-.3,0-.5,0-.2,0-.3,0-.5,0-.2-.2-.3-.5-.3-.2,0-.4.1-.5.3,0,.3-.1.6-.1,1,0,.3,0,.7,0,1.1,0,0-.1,0-.1,0,0,0,0,0-.1,0-.1,0-.2,0-.3.1s-.1.2-.1.3c-.1,0-.3.1-.4.2-.1,0-.3.2-.4.3-.1.1-.2.2-.2.4,0,.1,0,.3.1.4-.1.1-.2.3-.4.4-.1.1-.2.3-.3.4-.1.2,0,.4,0,.6.1.2.4.3.6.2.1,0,.2,0,.3,0,.1,0,.2,0,.3-.1,0,0,0,0,0,0s0,0,0,0c-.2.3,0,.6.2.7.2.1.5.1.8-.2.1-.2.3-.4.4-.6.1-.2.3-.4.4-.6,0,.3,0,.5.1.8s0,.5.1.8c0,.3.3.4.5.4.2,0,.5-.2.5-.5,0,0,0,0,0,0,0,0,0,0,0,0,.1.1.3.2.5.3.2,0,.3.1.5.2,0,0,.1,0,.1,0,0,0,0-.1,0-.2-.2-.3-.4-.5-.6-.8-.2-.3-.4-.5-.5-.8,0-.2,0-.3,0-.5,0-.2,0-.3,0-.5,0,0,0,0,.1,0,0,0,0,0,.1,0,0,0,0,0,0,0,0,0,0,0,0,0,.2.1.4.2.6.4.2.1.4.2.6.4.1,0,.2,0,.3,0,0,0,.1-.2.1-.3,0-.3-.2-.6-.4-.9-.2-.3-.4-.5-.7-.7Z"/>
                <path class="st35" d="M260.6,64.7c0-.1,0-.2-.1-.3s-.1-.2-.2-.3c0-.3-.1-.7-.2-1,0-.3-.1-.7-.2-1,0-.2-.2-.4-.5-.4-.2,0-.4,0-.5.3,0,0,0,0,0,0,0,0,0,0,0,0,0,0,0-.1,0-.2,0,0,0-.1,0-.2,0-.2-.2-.3-.4-.3s-.3,0-.4.2c-.2.3-.3.6-.4.9,0,.3-.1.6-.1,1,0,0,0,0-.1,0,0,0,0,0-.1,0,0,0-.1,0-.2,0,0,0,0,0-.1.1-.2,0-.4,0-.6,0-.2,0-.4,0-.6.1-.2,0-.4.3-.4.5,0,.2,0,.4.3.6.1,0,.2.1.3.2.1,0,.2.1.3.1,0,.2,0,.4.1.5.1.1.3.2.5,0,0,0,0,.1,0,.2,0,0,0,.1,0,.2-.2.3,0,.6.2.7.2.1.6.1.8-.2,0-.1.2-.3.3-.4,0-.1.2-.3.3-.4.2.2.3.4.6.5.2.1.4.3.7.4,0,.3.2.5.3.8,0,.3.2.5.3.8.1.4.4.5.7.4.3,0,.5-.3.4-.7,0-.3-.1-.6-.2-.9,0-.3-.1-.6-.2-.9,0,0,0,0,.1,0,0,0,0,0,.1,0,.3,0,.4-.1.5-.3,0-.2,0-.4-.1-.6-.1-.1-.2-.2-.4-.3-.1-.1-.3-.2-.4-.3ZM258.2,63s0,0,0,0c0,0,0,0,0,0,0,0,0,0,0,0,0,0,0,0,0,0,0,0,0,0,0,0h0s0,0,0-.1c0,0,0,0,0-.1ZM259,65.9s0,0,0,0c0,0,0,0,0,0,0,0,0,0,0,0,0,0,0,0,0,0,0,0,0,0,0,0,0,0,0,0,0-.1Z"/>
                <path class="st35" d="M242.9,21.3c.2.4.4.7.7,1,.3.3.6.6,1,.8.2.1.4,0,.6,0,.2-.1.2-.4,0-.6-.2-.3-.4-.5-.6-.8-.2-.3-.4-.5-.6-.8,0,0,0,0,0,0,0,0,0,0,0,0,0,0,0,0,0,0,0,0,0,0,0,0,0,0,.2.1.2,0,0,0,.1-.1.1-.2,0,0,0,0,0-.1,0,0,0,0,0-.1,0,0,0,0,.1,0,0,0,0,0,.1,0,.2,0,.2-.3.2-.4,0-.2,0-.3-.2-.4-.1,0-.2-.1-.3-.2-.1,0-.2-.1-.3-.1,0-.2-.2-.3-.3-.5-.1-.1-.2-.3-.4-.4,0,0,0,0,0,0,0,0,0,0,0,0,0,0,.1-.1.2-.2s.1-.1.2-.2c.1-.1.2-.3.1-.5,0-.2-.2-.3-.3-.3,0-.2-.1-.4-.3-.5-.2,0-.4,0-.5,0-.2.2-.4.3-.6.5-.2.2-.4.3-.6.5,0,0-.1-.2-.2-.2,0,0-.1-.2-.2-.2-.1-.2-.3-.3-.4-.5-.1-.2-.3-.3-.4-.5-.2-.2-.5-.3-.7-.1-.2.1-.3.4-.1.6.2.3.4.6.5.9.2.3.4.6.6.9-.2.1-.3.3-.5.4-.2.1-.3.3-.5.4,0,0-.1,0-.2,0,0,0-.1,0-.2,0-.3.1-.3.4-.2.6.1.2.4.4.6.3,0,0,0,0,0,0,0,0,0,0,0,0-.1.2-.3.3-.4.5-.1.2-.3.3-.4.5-.2.2-.1.5,0,.7.2.2.5.2.7,0,.2-.2.4-.4.5-.6.2-.2.4-.4.5-.6,0,0,0,0,0,0,0,0,0,0,0,0,0,0,0,0,0,0,0,0,0,0,0,0,0,0,0,0,0,0,0,0,0,0,0,0,.2.1.5.2.7.2.2,0,.5,0,.7,0ZM243.6,20.1s0,0,0,0h0s0,0,0,0h0s0,0,0,0Z"/>
                <path class="st35" d="M228.2,113.5c0,0,.1-.2.2-.3,0-.1,0-.2.1-.4,0-.2,0-.4-.2-.5-.1-.1-.3-.2-.5,0,0,0,0,0-.1,0,0,0,0,0-.1,0,0,0-.1,0-.2,0,0,0-.2,0-.3,0,0,0-.1,0-.2.1,0,0-.1,0-.2.1,0-.1.1-.3.2-.4,0-.1.1-.3.2-.4,0-.2,0-.4-.2-.5-.2-.1-.4-.1-.5,0-.2.2-.3.4-.5.6-.2.2-.3.4-.5.6-.2,0-.3-.2-.5-.3-.2,0-.4-.1-.5-.2-.3,0-.5,0-.5.3,0,.2,0,.5.2.6.1,0,.3.1.4.2.1,0,.3.1.4.2-.1.2-.3.4-.4.5-.1.2-.3.4-.4.5,0,0,0,.1-.1.2,0,0,0,.2,0,.2,0,0,0,0,0,0,0,0,0,0,0,0-.2.2-.2.5-.1.7.1.2.3.3.6.1,0,0,.2-.1.2-.2,0,0,.2-.1.2-.2,0,0,0,.2,0,.2,0,0,0,.2,0,.2,0,.2,0,.4.3.5.2,0,.5,0,.6-.2.1-.3.2-.5.4-.8s.2-.5.4-.8c.1.5.4.9.7,1.3.3.4.7.7,1.1,1,.2.1.4,0,.6,0,.2-.1.2-.3.2-.5,0-.3-.2-.5-.3-.8-.1-.2-.2-.5-.4-.7,0,0,0,0,0,0,0,0,0,0,0,0,0,0,.1,0,.2,0,0,0,0-.1,0-.2.1.1.2.3.3.4s.2.3.2.5c0,0,0,0,.1,0,0,0,.1,0,.1-.1,0-.4,0-.9-.2-1.2-.2-.4-.4-.7-.7-.9Z"/>
                <path class="st35" d="M198.2,144.7c-.5,0-1,0-1.5,0-.5,0-1,.1-1.5.2,0-.1,0-.3,0-.4,0-.1,0-.3-.2-.4,0,0,0,0,0-.1,0,0,0,0,0-.1.1-.2,0-.5-.2-.6-.2-.2-.4-.2-.6,0,0,0,0,0,0,0,0,0,0,0,0,0-.3-.2-.6-.2-.8-.2-.3,0-.5.1-.8.2,0,0,0,0-.1,0,0,0,0,0-.1,0-.2,0-.3,0-.5,0-.1,0-.2.2-.2.4,0,0,0,.1,0,.2,0,0,0,.1,0,.2-.3.3-.5.7-.7,1-.2.4-.3.7-.4,1,0,.2,0,.4.1.5.1.1.3.2.5.1,0,0,0,0,0,0,0,0,0,0,0,0,0,0,0,0,0,0,0,0,0,0,0,0-.2.2,0,.4.1.6.2.1.4.2.6,0,0,0,.1-.1.2-.2,0,0,.1-.1.2-.2,0,0,0,0,0,.1,0,0,0,0,0,.1,0,.1.3.2.4.2.2,0,.3,0,.4-.2,0,0,0-.1,0-.2,0,0,0-.1,0-.2.1,0,.3.2.4.2.1,0,.3.1.4.2.1,0,.2,0,.2-.1,0,0,0-.2,0-.3,0,0-.2-.1-.2-.2,0,0-.1-.1-.2-.2,0,0,0,0,.1,0,0,0,0,0,.1-.1.1.2.3.5.4.7.1.3.2.5.3.8,0,.3.3.4.5.3.2,0,.4-.2.4-.5,0-.3,0-.6,0-.9,0-.3-.2-.6-.3-.9.4-.1.9-.2,1.3-.4.4-.1.9-.3,1.3-.5,0,0,.1-.1.1-.2,0,0,0-.2-.2-.2ZM193.1,144.9s0,0,0,0c0,0,0,0,0,0,0,0,0-.1,0-.2,0,0,0-.1,0-.2h0s0,0,0,0c0,0,0,0,.1,0,0,0,0,0,.1,0ZM192.3,145.5s0,0,0,0c0,0,0,0,0,0,0,0,0,0,0,0,0,0,0,0,0,0,0,0,0,0,0,0,0,0,0,0,0,0Z"/>
                <path class="st35" d="M226.7,133.4s0,0-.1,0c0,0,0,0-.1,0,0,0,0,0,0,0h0c.2-.1.2-.3.2-.5,0-.2-.2-.3-.4-.4,0,0,0,0,0,0,0,0,0,0-.1,0,0,0,0,0,0,0,0,0,0,0,0,0,0,0,0,0,0,0s0,0,0,0c-.1,0-.3,0-.4,0-.1,0-.3,0-.4,0-.1-.2-.2-.3-.4-.5-.1-.2-.2-.3-.4-.5,0-.2,0-.5,0-.7v-.7c0-.2-.2-.3-.3-.3-.1,0-.3,0-.4.1,0,0,0,.2-.1.2,0,0,0,.1,0,.2-.2-.1-.3,0-.5,0-.1.1-.2.3-.2.5,0,.3.1.6.2,1,0,.3.1.6.2,1,0,0-.1,0-.2,0s-.1,0-.2,0c0,0-.1,0-.2,0s0,.1-.1.2c-.2,0-.3.3-.4.5,0,.2,0,.4.3.4.2,0,.3,0,.5,0,.2,0,.3,0,.5,0,0,0,0,0,0,0,0,0,0,0,0,0-.2.1-.3.3-.5.4-.2.1-.3.3-.5.4-.3.2-.2.5,0,.7.2.2.5.3.8,0,0,0,.2-.1.2-.2,0,0,.2-.1.2-.2,0,.2,0,.3.1.5,0,.2,0,.3.1.5,0,.2.3.3.5.3.2,0,.4-.2.4-.4,0-.3,0-.5,0-.8,0-.3,0-.5,0-.8,0,0,.1,0,.2-.1,0,0,.1,0,.2-.1,0,0,.2,0,.3,0,0,0,.2,0,.3,0,.1,0,.2,0,.3,0,0,0,.2-.1.2-.2,0,0,.2,0,.3,0,0,0,.2,0,.3,0,.3,0,.5-.2.5-.5,0-.2-.2-.5-.5-.5Z"/>
                <path class="st35" d="M254.8,106.4c-.3,0-.6,0-.9.1-.3,0-.6.1-.9.2,0,0,0,0,0,0,0,0,0,0,0,0,0,0,0,0,0,0,0,0,0,0,0,0,0-.3,0-.5-.3-.6-.2,0-.5,0-.6.2,0,.2-.2.4-.3.6,0,.2-.2.4-.3.6,0,0-.1,0-.2,0,0,0-.1,0-.1.1,0,0-.2,0-.3.1,0,0-.2,0-.3.1-.1,0-.3,0-.4,0-.1,0-.2.2-.3.3,0,0-.1,0-.2,0,0,0-.1,0-.2,0,0,0-.1,0-.2,0,0,0-.1,0-.1,0,0,0,0,0,0,0,0,0,0,0,0,0-.2,0-.4.3-.4.5,0,.2,0,.5.3.6.1,0,.3.1.4.2.1,0,.3.1.4.2,0,0,.1.1.2.2,0,0,.1.1.2.2,0,0,0,.1,0,.2,0,0,0,.1,0,.2,0,.2,0,.3,0,.4,0,.1.2.2.4.2,0,.2,0,.3,0,.5,0,.2,0,.3,0,.5,0,.3.2.4.4.4.2,0,.4,0,.5-.3,0-.1,0-.3.1-.4,0-.1,0-.3.1-.4,0,0,.1.1.2.2,0,0,.1.1.2.2.2.2.4.2.6.1.2,0,.3-.2.4-.4,0,0,0-.2,0-.2,0,0,0-.2,0-.2,0,0,.1.1.2.2,0,0,.1.1.2.2.3.2.6,0,.8-.1.2-.2.3-.5.1-.8,0,0,0,0,0,0,0,0,0,0,0,0,0,0,0,0,0,0h0s0,0,0,0c0,0,0,0,0,0-.2-.2-.4-.4-.6-.6-.2-.2-.4-.4-.6-.5,0-.2-.1-.4-.2-.5,0-.2-.2-.3-.3-.5.4-.2.8-.4,1.2-.6.4-.2.8-.5,1.1-.7,0,0,0-.1,0-.2,0,0,0-.1-.2-.1Z"/>
                <path class="st35" d="M234.4,80.9s0,0,0,0c0,0,0,0,0,0,0,0,0,0,0,0,0,0,0,0,0,0,0,0-.1-.1-.2-.2s-.1-.1-.2-.2c0-.2.1-.4.2-.6,0-.2,0-.5,0-.7,0,0,0,0,0,0,0,0,0,0,0,0,.2-.1.4-.2.5-.4.2-.1.3-.3.5-.4.1-.1.2-.3,0-.5,0-.2-.2-.3-.4-.3-.3,0-.7,0-1,0-.3,0-.7.1-1,.2,0,0,0,0,0,0,0,0,0,0,0,0,.2-.1.4-.2.5-.3.2-.1.4-.2.5-.3.3-.2.3-.4.2-.6-.1-.2-.4-.3-.7-.2-.2,0-.4.2-.6.2-.2,0-.4.2-.6.2,0,0-.1-.2-.2-.3s-.1-.2-.2-.2c0,0-.1,0-.2,0,0,0,0,.1,0,.2,0,0,0,.2,0,.3,0,0,0,.2,0,.3,0,0,0,0-.1,0,0,0,0,0-.1,0,0-.2-.2-.3-.3-.3-.2,0-.3,0-.5.1-.3.2-.5.4-.8.6-.3.2-.5.4-.8.6-.1.1-.2.3-.2.4,0,.1.1.3.3.3,0,0,0,0,0,0,0,0,0,0,0,0-.2.1-.3.3-.2.5,0,.2.1.3.3.4.3,0,.5.2.8.2.3,0,.5,0,.8,0,0,.6.2,1.2.3,1.8,0,.6.2,1.2.3,1.8,0,.2.2.3.4.4.2,0,.4,0,.5-.2.1-.3.3-.7.4-1,.1-.4.2-.7.3-1.1,0,0,0,0,.1,0,0,0,0,0,.1,0,.3.2.6.4.9.7.3.2.6.4.9.7.2.2.5,0,.6-.1.1-.2.2-.4,0-.6-.2-.2-.3-.3-.5-.5-.2-.2-.3-.3-.5-.5Z"/>
                <path class="st35" d="M271,129.4c0-.1.1-.2.2-.4,0-.1.1-.2.2-.4.1-.2,0-.5-.1-.6-.2-.1-.4-.2-.6,0,0-.1-.1-.2-.3-.2-.1,0-.2,0-.4,0-.1.1-.3.2-.4.3-.1.1-.2.2-.3.4,0,0,0,0-.1,0,0,0,0,0-.1,0,0,0,0,0,0,0,0,0,0,0,0,0,0-.2-.2-.4-.3-.6-.1-.2-.3-.4-.5-.5-.8-.6-1.8-.6-2.5-.2-.7.4-1.3,1.2-1.3,2.2,0,.1,0,.3.1.4,0,0,.2.2.3.1.3,0,.7,0,1-.1.3,0,.7,0,1-.1.2,0,.5,0,.7,0,.2,0,.5,0,.7-.1,0,.2,0,.3,0,.5,0,.2-.1.3-.2.5-.2.2-.4.4-.6.5s-.4.4-.6.5c-.2.2-.2.5,0,.6.1.2.4.3.6.1.1,0,.2-.1.3-.2.1,0,.2-.1.3-.2-.1.3-.3.5-.4.8-.1.3-.3.5-.4.8-.1.2,0,.5.2.6.2.1.4,0,.6-.1.2-.3.4-.6.6-.9.2-.3.4-.6.6-.9.3.4.6.8,1.1,1.1.4.3,1,.5,1.6.5.1,0,.2,0,.3-.2,0-.1,0-.2,0-.3-.3-.5-.6-.9-.9-1.4-.3-.5-.6-1-.9-1.4.3.2.6.4.9.5.3.2.6.4.9.5.1,0,.2,0,.3,0s0-.2,0-.3c-.2-.4-.4-.7-.6-.9-.3-.3-.6-.5-.9-.7ZM267.8,128.3c-.3,0-.6,0-.8,0-.3,0-.5,0-.8,0-.2,0-.3,0-.4.2,0,.1-.1.2-.1.4,0,0,0,0,0,0,0,0,0,0,0,0,.2-.5.6-.8,1-.9.4,0,.9,0,1.3.4ZM269.7,131.4c0,0,0-.1.1-.2,0,0,0-.1.1-.2.2.3.4.6.6.9.2.3.4.6.6.9-.4-.1-.7-.3-.9-.6-.2-.2-.4-.5-.6-.8Z"/>
              </g>
            </g>
            <g id="Calque_44">
              <path class="st10" d="M249.8,218.4c0,4.1-1.2,8-2.9,11.5-1.7,3.5-3.9,6.6-6.2,8.8-6.8,6.9-16.8,9.8-26.7,9.5-9.9-.3-19.8-3.9-26.5-9.8-1-.9-3.7-3.3-6-6.6-2.3-3.3-4.1-7.6-3.4-12.4.5-2.8,1.8-6,3.7-8.4,1.9-2.5,4.4-4.2,7.2-4.3,1.7,0,3.3.5,4.7,1.2,1.4.8,2.5,1.8,3.2,2.7.3.4.5.7.7,1,.1.3.2.6,0,.7h0s0,0,0,0c-.3.5-1.5.2-2.9,0-1.4-.2-3-.2-3.9.8-.6.7-.9,1.9-.8,3s.5,2.2,1.2,2.7c1.5,1.1,3.9-.3,7.7-2.9,3.8-2.6,8.9-6.4,15.9-10,4.8-2.5,9.2-4.8,13.3-6.1,4.2-1.3,8-1.6,11.6,0,2.8,1.3,4.8,3.3,6.1,5.4,1.4,2.1,2.2,4.2,2.6,5.5,0,.2.1.4.2.6,0,.2,0,.3.1.4,0,0,0,0,0,0,0,0,0,0,0,0,.2.7.3,1.3.5,2,.1.7.2,1.3.3,2,0,.4,0,.8,0,1.1,0,.4,0,.8,0,1.1Z"/>
            </g>
            <g id="Calque_43">
              <path class="st32" d="M250.7,217.1c-.2-.2-.3-.4-.5-.5-.2-.2-.3-.3-.5-.4-.5-.4-1.1-.6-1.6-.7-.6-.1-1.2-.2-1.8-.1-1.8-1.3-4.1-1.8-6.5-1.9-2.4,0-4.8.3-6.8.9-2.7.8-5,2.5-7.2,4.3-2.2,1.8-4.3,3.7-6.6,5.2-3.7,2.4-8.3,4.5-13.1,5.5-4.7,1-9.6,1-14-.6-1.9-.7-3.8-1.7-5.2-3.1-1.4-1.4-2.5-3.2-2.8-5.3-.2-1.2-.1-2.2,0-3.2.2-1,.6-1.8,1-2.5,0,.4-.1.7-.1,1.1,0,.4,0,.8,0,1.3.5,3.8,2.7,6.6,5.7,8.3,3,1.7,6.7,2.2,10.1,1.4,4.4-1,8.1-3.5,11.6-6.4,3.5-2.8,6.8-6,10.5-8.3,4.3-2.6,8.5-2.5,12.7-1.7,4.2.8,8.5,2.2,12.9,2.1,0,0,.2,0,.2,0,0,0,.1,0,.2-.1.1-.1.2-.3.2-.4,0-.1,0-.3-.2-.4,0,0-.1-.1-.2-.2,0,0-.1,0-.2-.1-3.4-3-8.3-4.7-13.3-4.9s-10.1.9-13.9,3.2c-2.8,1.8-5.2,4-7.6,6.2-2.4,2.2-4.8,4.5-7.6,6.3-1.7,1.1-3.6,2.1-5.7,2.7s-4.2.8-6.2.3c-1.3-.3-2.8-1-4-2-1.2-1-2.3-2.2-2.8-3.5-1.7-4.3-.9-6.5,1-7.5,1.8-1,4.7-.7,7,0,0,0,0,0,.1,0,0,0,0,0,.1,0,0,0,.1,0,.2,0,0,0,.1,0,.2,0,.3,0,.5.2.8.2.2,0,.5.2.7.2,0,0,0,0,0,0h0c0-.2,0-.4,0-.7-.1-.3-.4-.7-.7-1-2.1-1.1-4.5-1.6-6.7-1.3-2.2.3-4.3,1.3-5.7,3.1-.9.9-1.7,2.1-2.3,3.3-.6,1.3-.9,2.6-1.1,4.1-.3,4.5,1.4,8.4,4.1,11.6,2.8,3.2,6.6,5.6,10.4,7.1,4.3,1.7,8.9,2.4,13.5,2.2,4.6-.2,9.2-1.3,13.3-3.1,2.3-1,4.4-2.3,6.4-3.7,2-1.5,3.8-3.1,5.4-5,1.1-1.2,2.1-2.5,3.2-3.8,1.1-1.2,2.2-2.4,3.5-3.5,1.4-1.1,2.8-1.7,4.3-2.1,1.4-.4,2.9-.6,4.5-1.1.1,0,.2,0,.3-.1.1,0,.2,0,.3-.1.2,0,.4-.3.5-.5,0-.2,0-.4-.2-.6ZM237.5,220.2c-3,3.1-5.4,6.2-8.2,8.9-2.8,2.7-5.8,5.1-10.1,6.6-3.6,1.3-7.5,2-11.3,2-3.8,0-7.7-.6-11.3-2-2.4-.9-4.8-2.1-6.9-3.7-2.1-1.6-3.9-3.6-5.1-5.9,0,0,0-.2-.1-.3,0,0,0-.2-.1-.3.8,1.1,1.7,2.2,2.8,3s2.3,1.6,3.7,2.2c4.6,2,9.9,2.3,15,1.4,5.1-.8,10.1-2.8,14.3-5.2,2-1.1,3.8-2.6,5.5-4,1.8-1.4,3.5-2.9,5.4-4.1,1.6-1,3.3-1.4,4.9-1.6,1.6-.2,3.3,0,4.9,0-.7.4-1.3.9-1.8,1.4-.6.5-1.1.9-1.5,1.4Z"/>
            </g>
            <g id="Calque_43_-_copie">
              <path class="st10" d="M249,248.1c-.2.1-.4.3-.6.4-.2.1-.3.3-.5.5-.4.4-.7.9-1,1.5-.2.5-.3,1.1-.4,1.7-1.6,1.6-2.5,3.8-2.9,6.1-.5,2.3-.5,4.8-.1,6.9.4,2.8,1.6,5.3,3.1,7.7,1.4,2.4,3,4.8,4.1,7.3,1.8,4.1,3.1,8.9,3.3,13.8.2,4.8-.6,9.7-2.8,13.7-1,1.8-2.3,3.5-3.9,4.7-1.6,1.2-3.5,2-5.7,1.9-1.2,0-2.2-.2-3.1-.6-.9-.3-1.7-.8-2.3-1.4.3.1.7.2,1.1.3.4,0,.8.1,1.3.1,3.8.1,7-1.6,9.1-4.3,2.1-2.7,3.2-6.2,3-9.7-.3-4.5-2.2-8.5-4.5-12.4-2.2-3.9-4.8-7.7-6.5-11.7-1.9-4.6-1.1-8.7.4-12.8,1.4-4,3.5-8,4.1-12.4,0,0,0-.2,0-.2,0,0,0-.1,0-.2,0-.1-.2-.2-.4-.2-.1,0-.3,0-.4.1,0,0-.1,0-.2.1,0,0-.1,0-.2.1-3.5,2.8-5.9,7.4-6.9,12.3s-.8,10.1,1,14.2c1.3,3,3.1,5.8,5,8.5,1.8,2.7,3.7,5.5,5,8.5.8,1.9,1.5,3.9,1.7,6s0,4.2-.7,6.2c-.5,1.2-1.4,2.6-2.6,3.6-1.2,1.1-2.5,1.9-3.9,2.2-4.6,1-6.6-.2-7.2-2.1-.6-2,0-4.7,1-6.9,0,0,0,0,0-.1,0,0,0,0,0-.1,0,0,0-.1,0-.2,0,0,0-.1,0-.2.1-.3.2-.5.4-.7.1-.2.2-.4.4-.6,0,0,0,0,0,0h0c-.2-.1-.4-.1-.7,0-.3,0-.7.2-1.1.5-1.4,1.9-2.3,4.2-2.3,6.4,0,2.2.6,4.4,2.1,6.1.8,1.1,1.8,2,2.9,2.8,1.1.8,2.5,1.4,3.9,1.7,4.4,1,8.5,0,12.1-2.3,3.6-2.2,6.5-5.6,8.7-9.2,2.3-4,3.7-8.4,4.3-13,.5-4.6.2-9.2-.9-13.6-.6-2.4-1.5-4.7-2.7-6.9-1.1-2.2-2.5-4.2-4.1-6.2-1-1.3-2.2-2.5-3.2-3.7-1.1-1.2-2.1-2.5-2.9-4-.9-1.6-1.2-3.1-1.4-4.6-.2-1.5-.2-3-.4-4.6,0-.1,0-.2,0-.3,0-.1,0-.2,0-.3,0-.3-.2-.4-.4-.5-.2,0-.4,0-.7,0ZM250,261.7c2.6,3.4,5.2,6.4,7.5,9.5,2.3,3.2,4.1,6.6,4.9,11,.7,3.8.8,7.7.2,11.5-.6,3.8-1.8,7.5-3.8,10.9-1.3,2.2-2.9,4.4-4.8,6.2-1.9,1.8-4.1,3.3-6.6,4.1-.1,0-.2,0-.3,0-.1,0-.2,0-.3,0,1.2-.6,2.4-1.4,3.5-2.3s2-2.1,2.8-3.3c2.7-4.2,3.8-9.4,3.8-14.6,0-5.2-1.1-10.4-2.8-15-.8-2.1-1.9-4.1-3.1-6.1-1.1-2-2.3-3.9-3.1-6-.7-1.8-.9-3.5-.8-5.1,0-1.6.5-3.2.8-4.9.3.7.7,1.4,1,2,.4.6.7,1.2,1.1,1.7Z"/>
            </g>
            <g id="Calque_42">
              <path class="st10" d="M247.6,218.4c0,4.1,1.2,8,2.9,11.5,1.7,3.5,3.9,6.6,6.2,8.8,6.8,6.9,16.8,9.8,26.7,9.5,9.9-.3,19.8-3.9,26.5-9.8,1-.9,3.7-3.3,6-6.6,2.3-3.3,4.1-7.6,3.4-12.4-.5-2.8-1.8-6-3.7-8.4-1.9-2.5-4.4-4.2-7.2-4.3-1.7,0-3.3.5-4.7,1.2-1.4.8-2.5,1.8-3.2,2.7-.3.4-.5.7-.7,1-.1.3-.2.6,0,.7,0,0,0,0,0,0,0,0,0,0,0,0,.3.5,1.5.2,2.9,0,1.4-.2,3-.2,3.9.8.6.7.9,1.9.8,3,0,1.1-.5,2.2-1.3,2.7-1.5,1.1-3.9-.3-7.7-2.9-3.8-2.6-8.9-6.4-15.9-10-4.8-2.5-9.2-4.8-13.3-6.1-4.2-1.3-8-1.6-11.6,0-2.8,1.3-4.8,3.3-6.1,5.4-1.4,2.1-2.2,4.2-2.6,5.5,0,.2-.1.4-.2.6,0,.2,0,.3-.1.4,0,0,0,0,0,0,0,0,0,0,0,0-.2.7-.3,1.3-.5,2-.1.7-.2,1.3-.3,2,0,.4,0,.8,0,1.1,0,.4,0,.8,0,1.1Z"/>
            </g>
            <g id="Calque_41">
              <path class="st32" d="M247,218.2c.1,0,.2,0,.3.1.1,0,.2,0,.3.1,1.6.5,3,.7,4.5,1.1,1.4.4,2.8,1,4.3,2.1,1.3,1,2.4,2.2,3.5,3.5,1.1,1.2,2.1,2.5,3.2,3.8,1.7,1.9,3.5,3.6,5.4,5,2,1.5,4.1,2.7,6.4,3.7,4.2,1.8,8.7,2.9,13.3,3.1,4.6.2,9.2-.5,13.5-2.2,3.9-1.5,7.7-3.9,10.4-7.1,2.8-3.2,4.5-7.1,4.1-11.6-.1-1.5-.5-2.9-1.1-4.1-.6-1.3-1.4-2.4-2.3-3.3-1.5-1.8-3.5-2.8-5.7-3.1-2.2-.3-4.6.2-6.7,1.3-.3.4-.5.7-.7,1-.1.3-.2.6,0,.7,0,0,0,0,0,0,0,0,0,0,0,0,.2,0,.4-.2.7-.2.2,0,.5-.2.8-.2,0,0,.1,0,.2,0,0,0,.1,0,.2,0,0,0,0,0,.1,0,0,0,0,0,.1,0,2.3-.6,5.1-.9,7,0,1.8,1,2.7,3.1,1,7.5-.5,1.3-1.6,2.5-2.8,3.5-1.2,1-2.7,1.7-4,2-2.1.5-4.2.3-6.2-.3-2-.6-4-1.6-5.7-2.7-2.7-1.8-5.1-4-7.6-6.3-2.4-2.2-4.8-4.5-7.6-6.2-3.8-2.4-8.9-3.5-13.9-3.2s-9.9,1.9-13.3,4.9c0,0-.1,0-.2.1,0,0-.1.1-.2.2-.1.1-.2.3-.2.4,0,.1,0,.3.2.4,0,0,.1,0,.2.1,0,0,.1,0,.2,0,4.4.1,8.7-1.3,12.9-2.1,4.2-.8,8.4-.9,12.7,1.7,3.7,2.3,7,5.4,10.5,8.3,3.5,2.8,7.2,5.3,11.6,6.4,3.4.8,7.1.3,10.1-1.4,3-1.7,5.2-4.5,5.7-8.3,0-.5,0-.9,0-1.3,0-.4,0-.8-.1-1.1.5.7.8,1.6,1,2.5.2,1,.2,2,0,3.2-.3,2.2-1.4,4-2.8,5.3-1.4,1.4-3.3,2.4-5.2,3.1-4.4,1.6-9.3,1.6-14,.6-4.7-1-9.3-3-13.1-5.5-2.3-1.5-4.4-3.5-6.6-5.2-2.2-1.8-4.5-3.4-7.2-4.3-2-.6-4.4-1-6.8-.9-2.4,0-4.7.7-6.5,1.9-.6,0-1.2,0-1.8.1-.6.1-1.1.4-1.6.7-.2.1-.4.3-.5.4-.2.2-.3.3-.5.5-.2.2-.2.4-.2.6,0,.2.2.4.5.5ZM256.6,217.5c1.6-.1,3.3-.2,4.9,0,1.6.2,3.3.6,4.9,1.6,1.9,1.2,3.7,2.6,5.4,4.1,1.8,1.4,3.5,2.9,5.5,4,4.2,2.4,9.2,4.3,14.3,5.2,5.1.8,10.4.6,15-1.4,1.3-.6,2.6-1.3,3.7-2.2,1.1-.9,2.1-1.9,2.8-3,0,0,0,.2-.1.3,0,0,0,.2-.1.3-1.2,2.3-3,4.3-5.1,5.9-2.1,1.6-4.5,2.8-6.9,3.7-3.6,1.4-7.5,2-11.3,2-3.8,0-7.7-.7-11.3-2-4.3-1.5-7.4-3.9-10.1-6.6-2.8-2.7-5.2-5.8-8.2-8.9-.4-.4-.9-.9-1.5-1.4-.6-.5-1.2-.9-1.8-1.4Z"/>
            </g>
            <g id="Calque_40">
              <path class="st0" d="M258.8,194.1c-1-2.8-2.3-6.2-3.6-9.9-1.3-3.8-2.8-8-4.1-12.7-.4-1.4-1.7-2.1-2.9-2.1s-2.5.7-2.9,2.1c-1.3,4.7-2.8,8.9-4.1,12.7-1.3,3.8-2.6,7.1-3.6,9.9-2.3,6.4-4.4,11.3-5.5,15.5-1.1,4.2-1.2,7.7.5,11.1.3.6.6,1.1.9,1.6.3.5.7,1,1,1.4,3.4,4.3,8.6,6.4,13.8,6.4s10.4-2.1,13.8-6.4c.4-.5.7-.9,1-1.4.3-.5.6-1,.9-1.6,1.7-3.5,1.6-6.9.5-11.1-1.1-4.2-3.2-9.1-5.5-15.5Z"/>
            </g>
          </g>
        </g>
        <g id="Calque_61" class="st25">
          <g id="Calque_14">
            <path class="st12" d="M221.3,498.8c-.1,1.1-.3,2.1-.4,3.2-.1,1.1-.3,2.1-.4,3.2-.2,1.6-.4,3.2-.6,4.8-.2,1.6-.4,3.2-.6,4.8-.7,5.4-1.4,10.9-2.1,16.3-.7,5.4-1.4,10.9-2.1,16.3-3.6,0-7.2-.1-10.8-.2-3.6,0-7.2-.1-10.8-.2-3.9.1-7.9.3-11.9.3-4,0-8.1.1-12.2.2-5.5,0-11,0-16.3,0-5.4,0-10.6-.2-15.8-.3,1.2-1.8,3-4.2,5.4-6.8,2.5-2.6,5.6-5.3,9.5-7.8,3.5-2.2,7-3.8,10-4.9,3.1-1.1,5.8-1.7,7.9-2.1-.3-2-.5-4.1-.7-6.2-.2-2.2-.4-4.4-.5-6.8,0-.5,0-1.1,0-1.6,0-.6,0-1.1,0-1.7,0-1.1,0-2.2,0-3.2,0-1.1,0-2.1,0-3.1,0-2.2.1-4.4.2-6.4.1-2.1.3-4.1.5-6,8.2,2.8,16.5,4.9,25,6.3,8.5,1.4,17.1,2.1,25.7,2.1h1.1Z"/>
          </g>
          <g id="Calque_13">
            <g class="st19">
              <path class="st15" d="M220.5,505.2c-.2,1.6-.4,3.2-.6,4.8-.2,1.6-.4,3.2-.6,4.8-8.5.8-17,1.3-25.4,1.1-8.4-.2-16.8-1.2-25-3.3,0-.5,0-1.1,0-1.6,0-.6,0-1.1,0-1.7,0-1.1,0-2.2,0-3.2,0-1.1,0-2.1,0-3.1,8.3,2.5,16.9,3.6,25.6,3.8,8.7.2,17.5-.5,26.1-1.3Z"/>
            </g>
          </g>
          <g id="Calque_12">
            <path class="st11" d="M188.6,510.7c0,.8-.3,1.6-.5,2.4-.3.8-.6,1.5-1,2.1-.4.6-.9,1.2-1.3,1.7-.5.5-1,.9-1.5,1.3-1.1.7-2.2,1.3-3.4,1.6-1.2.3-2.3.5-3.5.5-1.2,0-2.3-.2-3.5-.6-1.1-.4-2.3-1-3.3-1.8-.5-.4-1-.9-1.5-1.5-.5-.6-.9-1.2-1.2-2-.4-.7-.6-1.6-.8-2.5-.2-.9-.2-1.9-.2-2.8,0-1,.3-1.9.6-2.8.3-.9.7-1.7,1.2-2.3.5-.7,1-1.3,1.5-1.8.5-.5,1.1-.9,1.7-1.3,1.2-.7,2.4-1.1,3.6-1.3,1.2-.2,2.4-.2,3.5,0,1.2.2,2.3.5,3.4,1,1.1.5,2.1,1.2,3.1,2.1.5.4.9.9,1.3,1.5.4.6.8,1.2,1.1,1.9.3.7.5,1.4.7,2.2.1.8.2,1.6.1,2.5ZM187.2,510.6c0-.6,0-1.2-.1-1.8-.1-.6-.3-1.1-.6-1.7-.3-.5-.6-1-.9-1.4-.3-.4-.7-.8-1.1-1.2-.8-.7-1.8-1.2-2.7-1.5-1-.3-2-.5-3-.5-1,0-2,.2-3,.4s-1.9.7-2.7,1.3c-.4.3-.8.6-1.2,1-.4.4-.7.8-.9,1.2-.3.4-.5.9-.6,1.3s-.3.9-.3,1.4c0,.5,0,1,0,1.4,0,.5.2.9.4,1.4.2.5.4.9.7,1.3.3.4.6.8,1,1.2.7.7,1.6,1.3,2.5,1.7.9.4,1.9.7,2.9.9,1,.1,2,.1,3,0,1-.2,2-.5,2.9-1,.5-.3.9-.6,1.3-1,.4-.4.8-.8,1.1-1.3.3-.5.6-1,.8-1.6.2-.6.3-1.1.4-1.8Z"/>
          </g>
          <g id="Calque_111" data-name="Calque_11">
            <path class="st12" d="M282.3,509.3c.5,1,1,1.9,1.6,2.9.5,1,1,1.9,1.6,2.9.8,1.4,1.5,2.8,2.3,4.3.8,1.4,1.6,2.8,2.3,4.3,2.7,4.9,5.3,9.7,8,14.6,2.7,4.9,5.3,9.7,8,14.6,3.6-1.3,7.2-2.6,10.7-3.8,3.6-1.3,7.1-2.5,10.7-3.8,4-1.2,8-2.5,12.1-3.7,4.1-1.3,8.2-2.6,12.3-4,5.6-1.8,11-3.7,16.4-5.6,5.4-1.9,10.6-3.8,15.8-5.7-1.9-1.3-4.5-3-7.9-4.6-3.4-1.6-7.5-3.1-12.4-4.1-4.3-.9-8.4-1.2-11.8-1.2-3.5,0-6.4.3-8.6.7-.4-2-1-4-1.5-6.1-.6-2.1-1.2-4.3-2-6.5-.2-.5-.3-1-.5-1.6-.2-.5-.4-1.1-.6-1.6-.4-1-.7-2-1.1-3-.4-1-.8-2-1.2-2.9-.8-2.1-1.7-4.1-2.6-6-.9-1.9-1.8-3.7-2.6-5.4-7.2,5.4-14.8,10.2-22.8,14.4-8,4.2-16.3,7.8-25,10.7l-.6.2-.6.2Z"/>
          </g>
          <g id="Calque_101" data-name="Calque_10">
            <g class="st19">
              <path class="st15" d="M285.5,515.1c.8,1.4,1.5,2.8,2.3,4.3.8,1.4,1.6,2.8,2.3,4.3,8.8-2.1,17.5-4.6,25.8-7.6,8.4-3.1,16.4-6.8,23.8-11.6-.2-.5-.3-1-.5-1.6-.2-.5-.4-1.1-.6-1.6-.4-1-.7-2-1.1-3-.4-1-.8-2-1.2-2.9-7.4,5.2-15.6,9.1-24.3,12.2-8.7,3.1-17.7,5.5-26.7,7.6Z"/>
            </g>
          </g>
          <g id="Calque_91" data-name="Calque_9">
            <path class="st11" d="M318.5,504.7c0-.7.2-1.5.4-2.1.2-.7.5-1.3.8-1.9.6-1.2,1.4-2.2,2.3-3,.9-.9,1.9-1.6,3-2.1,1.1-.5,2.3-.9,3.6-1.2,1.3-.2,2.6-.2,4,0,.7.1,1.4.3,2.1.6.7.3,1.4.7,2.2,1.1.7.5,1.4,1.1,2,1.8.6.7,1.2,1.5,1.6,2.4.4.9.7,1.8.9,2.7.2.9.2,1.8,0,2.6,0,.8-.3,1.6-.5,2.3-.3.7-.6,1.3-.9,1.9-.7,1.2-1.6,2.1-2.6,2.9-1,.8-2.1,1.3-3.3,1.8-1.2.4-2.4.7-3.7.7-1.3,0-2.6,0-3.9-.3-.7-.2-1.3-.4-2-.7-.7-.3-1.3-.7-2-1.1-.6-.4-1.2-1-1.8-1.6-.5-.6-1-1.3-1.4-2.1-.4-.8-.6-1.6-.8-2.4-.1-.8-.2-1.6-.1-2.3ZM323.2,511.5c.5.3,1,.6,1.6.8.5.2,1.1.4,1.7.5,1.1.2,2.2.2,3.3,0,1.1-.2,2.1-.5,3-1,.9-.5,1.8-1.1,2.5-1.8.8-.7,1.4-1.5,1.9-2.5.2-.5.4-.9.6-1.4.1-.5.2-1,.3-1.5,0-.5,0-1,0-1.5,0-.5-.2-.9-.4-1.4-.2-.4-.5-.8-.8-1.2s-.7-.7-1.1-1c-.4-.3-.9-.6-1.4-.8-.5-.2-1-.4-1.5-.5-1.1-.3-2.1-.4-3.2-.3s-2.1.3-3.1.6c-1,.4-1.9.8-2.8,1.5-.9.6-1.6,1.4-2.2,2.3-.3.5-.5,1-.7,1.5-.2.5-.3,1.1-.4,1.7,0,.6,0,1.2,0,1.8,0,.6.3,1.2.5,1.7.3.6.6,1.1,1,1.5.4.5.9.9,1.4,1.2Z"/>
          </g>
          <g id="Calque_8">
            <path class="st2" d="M227.9,542.2c1-.3,2-.6,3-.9,1-.3,2-.6,3-.9,1-.3,1.2-1.4.9-2.3-.3-1-1.1-1.8-2-1.5-1,.3-2,.6-3,.9-1,.3-2,.6-3,.9-1,.3-1.2,1.4-.9,2.3.3,1,1.1,1.8,2,1.5h0Z"/>
          </g>
        </g>
        <g id="Calque_7">
          <path d="M257.4,167.8c1.1,4.4,5,8.1,8.8,10.1s10.9,2.7,15.7-.6,6.5-6.5,8.4-10.6-1-1.9-1.5-.9c-2.8,5.7-7.3,11.8-14.1,12.2s-9.2-2-12.4-5.3-2.7-3.4-3.2-5.4-2-.6-1.7.5h0Z"/>
        </g>
        <g id="Calque_6">
          <path d="M206.9,169.5c1.1,4.4,5,8.1,8.8,10.1s10.9,2.7,15.7-.6,6.5-6.5,8.4-10.6-1-1.9-1.5-.9c-2.8,5.7-7.3,11.8-14.1,12.2s-9.2-2-12.4-5.3-2.7-3.4-3.2-5.4-2-.6-1.7.5h0Z"/>
        </g>
        <g id="Calque_362" data-name="Calque_36">
          <path class="st34" d="M278,414c-15.9-6-29.8-11.5-41.9-16.5-12.1-5-22.3-9.4-30.6-13.1-2-1.1-4.5-2.4-7.4-3.8-2.9-1.4-6.3-2.9-10.1-4.3-3.1-1.2-7.9-3-13.8-4.6-5.9-1.6-12.9-3.1-20.5-3.6-2.5-.2-5.7-.3-9.3-.1-3.6.2-7.7.6-11.9,1.6-.1,0-.4.2-.9.4-.5.2-1.1.5-1.7.8-5.9,3.1-8.7,8.6-10,13.8-1.3,5.2-1.1,10.1-1,12.1,0,1.8.3,3.9.8,6.4.5,2.5,1.2,5.3,2.2,8.5,3.5,2.5,8.3,5.8,14.2,9.3,5.9,3.5,13.1,7.3,21.3,11,17.5,7.8,36.1,13.4,51.8,6.9s68.9-24.8,68.9-24.8Z"/>
          <path class="st29" d="M206.8,394c-8.1-3.8-15.7-8.4-24.1-11.6-8.2-3.2-16.7-5.8-25.4-6.4-6.5-.4-13.1.2-18.8,3.5-1.5.8-3,1.6-4.5,2.3-4.3,3.9-7.9,16.1-3.7,21.2,0,0-.3.4-.3.4-4.7-2.1-5.9-8.1-6.3-12.7-.4-9.5,2.4-16.4,12.9-17.5,11.5-1.2,23.2-1.1,34.3,2.3,10.8,3.2,20.7,8.7,30.3,14.6,1.9,1.2,3.8,2.4,5.7,3.4l-.2.5h0Z"/>
        </g>
        <g id="Calque_611" data-name="Calque_61">
          <g id="Calque_141" data-name="Calque_14">
            <path class="st12" d="M176.4,461.8c-1.4.2-2.8.4-4.2.5-1.4.2-2.8.4-4.2.5-2.1.3-4.1.5-6.2.8-2.1.3-4.1.5-6.2.8-7.1.9-14.1,1.8-21.2,2.7-7.1.9-14.1,1.8-21.2,2.7-.7-3.6-1.3-7.2-2-10.8-.7-3.6-1.3-7.2-2-10.8-1-3.9-1.9-7.8-2.9-11.8-.9-4-1.9-8-2.7-12.2-1.2-5.5-2.3-10.9-3.3-16.3-1-5.4-2-10.7-2.8-15.9,2.6.7,6,1.7,9.8,3.4,3.8,1.7,8,4,11.9,7.2,3.6,2.9,6.3,5.9,8.3,8.6,2,2.8,3.4,5.3,4.3,7.2,2.5-.9,5.1-1.7,7.8-2.5,2.7-.8,5.6-1.7,8.5-2.4.7-.2,1.4-.4,2.1-.5.7-.2,1.4-.4,2.1-.5,1.4-.3,2.7-.7,4.1-1,1.3-.3,2.7-.6,4-.9,2.9-.6,5.6-1.1,8.3-1.6,2.7-.5,5.2-.9,7.7-1.3-1.9,9-2.8,17.9-2.9,26.8,0,8.9.8,17.7,2.6,26.3v.6c.1,0,.2.6.2.6Z"/>
          </g>
          <g id="Calque_131" data-name="Calque_13">
            <g class="st19">
              <path class="st15" d="M168,462.8c-2.1.3-4.1.5-6.2.8-2.1.3-4.1.5-6.2.8-2.7-8.2-5.1-16.6-6.6-25.1-1.4-8.5-1.9-17.1-.9-25.9.7-.2,1.4-.4,2.1-.5.7-.2,1.4-.4,2.1-.5,1.4-.3,2.7-.7,4.1-1,1.3-.3,2.7-.6,4-.9-1.5,9-1.1,17.9.5,26.7,1.6,8.7,4.2,17.3,7.1,25.7Z"/>
            </g>
          </g>
          <g id="Calque_121" data-name="Calque_12">
            <path class="st11" d="M156.1,426.5c-.6.5-1.4,1-2.1,1.3-.7.4-1.5.7-2.3.9-.8.2-1.5.4-2.2.4-.7,0-1.4,0-2.1,0-1.4,0-2.6-.3-3.7-.7-1.1-.4-2.2-.9-3.1-1.5-.9-.6-1.7-1.4-2.3-2.2-.6-.9-1.1-1.8-1.3-2.9,0-.6-.1-1.1,0-1.8,0-.6.2-1.3.4-2,.2-.7.6-1.4,1.1-2.1.5-.7,1.1-1.4,1.9-2,.7-.6,1.6-1.1,2.4-1.5.9-.4,1.7-.7,2.6-.9.8-.2,1.7-.3,2.4-.4.8,0,1.5,0,2.2,0,1.4.1,2.6.5,3.7,1,1.1.5,2,1.1,2.8,1.8.8.7,1.4,1.5,1.9,2.4.5.9.8,1.9.9,3,0,.5,0,1.1,0,1.7,0,.6-.2,1.2-.5,1.8-.2.6-.6,1.2-1,1.8-.4.6-1,1.2-1.6,1.7ZM155,425.7c.5-.4.9-.8,1.2-1.3.3-.5.6-.9.7-1.4.2-.5.3-1,.3-1.4,0-.5,0-.9,0-1.4-.2-.9-.5-1.7-1.1-2.4-.5-.7-1.2-1.3-2-1.9-.8-.5-1.7-.9-2.6-1.2s-2-.5-3.1-.5c-.5,0-1.1,0-1.6,0-.5,0-1.1.2-1.6.3-.5.1-1,.3-1.4.6s-.9.5-1.2.8c-.4.3-.7.6-1,1-.3.4-.5.8-.7,1.2-.2.4-.3.8-.4,1.3,0,.4,0,.9,0,1.3,0,.9.3,1.7.7,2.4.4.8.9,1.5,1.6,2.1.7.6,1.5,1.1,2.4,1.5.9.4,1.9.7,3,.8.6,0,1.1,0,1.7,0,.6,0,1.2-.1,1.8-.3.6-.1,1.2-.4,1.7-.6.6-.3,1.1-.6,1.6-1Z"/>
          </g>
        </g>
      </g>
      <path class="st21" d="M64.7,33C29,33,0,62,0,97.7s29,64.7,64.7,64.7,33.2-6.9,44.8-18.1c1.8-1.8,2.4-4.5,1.3-6.9s-3.5-3.8-6-3.6c-1.2.1-2.5.2-3.7.2-25.7,0-46.5-20.8-46.5-46.5s10.5-34,25.8-41.7c2.3-1.1,3.6-3.6,3.3-6.2-.3-2.6-2.2-4.6-4.7-5.2-4.6-1-9.4-1.6-14.3-1.6Z"/>
      <g id="Calque_23" data-name="Calque_2">
        <g>
          <path class="st4" d="M232.3,82.7c4.1-.4,9-.3,9.6,4.8v30.2c-.7,5-5.4,5.1-9.5,4.8s-4.6-1.8-5.1-4.5v-30.9c.5-2.6,2.4-4.2,5-4.4Z"/>
          <path class="st4" d="M253.2,82.7c4-.3,8.9-.3,9.6,4.6v30.6c-.4,2.7-2.5,4.4-5.1,4.6-4.1.3-8.8.2-9.5-4.9v-30.2c.3-2.7,2.3-4.5,5-4.7Z"/>
        </g>
      </g>
      <path class="st29" d="M325.3,382.1c-25.8,13.9-52.3,26.5-79.2,38.1-20.8,9.4-42.4,17.1-64.5,22.7,0,0-.2-.5-.2-.5,17.4-8.4,35.8-16,53.9-22.9,18.3-6.7,36.3-14.1,54.2-21.9,11.9-5.1,23.8-10.5,35.6-16,0,0,.2.4.2.4h0Z"/>
      <path class="st29" d="M348.5,374c6.7-.7,12.5,1.4,17.3,5.9,8.1,7.5,2.5,20.1-4.7,26-6.3,5.6-13.4,10.2-21,13.9-12.4,6.1-25.4,11.4-38.6,15.4-8,2.4-15.9,4.7-24,6.5,0,0-.2-.5-.2-.5,4.9-2.6,10-4.8,15.1-7,4.3-1.9,10.9-4.5,15.3-6.3,15.3-6,31.1-10.9,45.5-18.7,4.7-2.7,12.8-8.5,11.4-14.6-.7-2.3-2.8-3.4-4.6-4.7-2.7-2.3-4.6-4.9-7.1-7.9-1.6-2.2-3.3-4.5-4.8-7.6l.2-.4h0Z"/>
      <path class="st28" d="M325.2,429.3"/>
    </g>
  </g>
</svg>