<?xml version="1.0" encoding="UTF-8"?>
<svg id="Calque_2" xmlns="http://www.w3.org/2000/svg" version="1.1" viewBox="0 0 250 250">
  <!-- Generator: Adobe Illustrator 29.8.3, SVG Export Plug-In . SVG Version: 2.1.1 Build 3)  -->
  <defs>
    <style>
      .st0 {
        fill: #f79c79;
      }

      .st1 {
        fill: #9a9faf;
      }

      .st2 {
        fill: #9bcc2f;
      }

      .st3 {
        fill: #b3c43b;
      }

      .st3, .st4, .st5, .st6 {
        display: none;
      }

      .st7 {
        fill: #4a43aa;
      }

      .st8 {
        fill: #2b373f;
      }

      .st9 {
        fill: #e6e6ff;
      }

      .st10 {
        fill: #7a3618;
      }

      .st11 {
        fill: #e87187;
      }

      .st12 {
        fill: #994423;
      }

      .st13 {
        fill: #eff7fa;
      }

      .st14 {
        fill: #699318;
      }

      .st15 {
        fill: #5e280d;
      }

      .st16 {
        fill: #f4f8fc;
      }

      .st17 {
        fill: #734833;
      }

      .st18 {
        fill: #51720a;
      }

      .st19 {
        fill: #b0b5ca;
      }

      .st20 {
        fill: #8c7fe1;
      }

      .st4, .st21 {
        fill: #557f12;
      }

      .st22 {
        fill: #82523b;
      }

      .st23 {
        fill: #808593;
      }

      .st24 {
        fill: #e0e0e0;
      }

      .st25 {
        fill: #ffb048;
      }

      .st26 {
        fill: #413a84;
      }

      .st27 {
        fill: #52576b;
      }

      .st28 {
        fill: #ef991b;
      }

      .st29 {
        fill: #201f28;
      }

      .st30 {
        fill: #415606;
      }

      .st31 {
        fill: #c1c0ff;
      }

      .st32 {
        fill: #62589d;
      }

      .st5, .st33 {
        fill: #bacc3e;
      }

      .st34 {
        fill: #603813;
      }

      .st35 {
        fill: #0c121c;
      }

      .st36 {
        fill: #6d341b;
      }

      .st37 {
        fill: #bc6174;
      }

      .st38 {
        fill: #491b07;
      }

      .st39 {
        fill: #ffb091;
      }

      .st40 {
        fill: #9c95ef;
      }

      .st41 {
        fill: #ff6e6e;
      }

      .st42 {
        fill: #e27b00;
      }

      .st43 {
        fill: #324049;
      }

      .st44 {
        fill: #6eb07a;
      }

      .st45 {
        fill: #111016;
      }

      .st46 {
        fill: #ededed;
      }

      .st47 {
        fill: #1a272e;
      }

      .st48 {
        fill: #373644;
      }

      .st49 {
        fill: #adadb2;
      }

      .st50 {
        fill: #7dc88b;
      }

      .st51 {
        fill: #6464a3;
      }

      .st52 {
        fill: #a4b716;
      }

      .st53 {
        fill: #ffc176;
      }

      .st54 {
        fill: #e2edf5;
      }

      .st55 {
        fill: #c3c0ff;
      }
    </style>
  </defs>
  <g>
    <path class="st15" d="M54.1,190.9s193.1-10.9,170.9,9.7c0,0-9.5,3.4,0,5.6,9.5,2.1,17.4,7.1-7.9,9.6-25.3,2.5-162.5,7.4-160.5,0,2-7.4-15.1-9-20.9-15.1-5.8-6.2,18.5-9.7,18.5-9.7Z"/>
    <g>
      <g>
        <g>
          <g>
            <path class="st29" d="M200.7,186.2c-1.3,14.5-14.4,25.1-29.2,23.8-14.8-1.3-25.8-14.2-24.5-28.7,1.3-14.5,14.4-25.1,29.2-23.8,14.8,1.3,25.8,14.2,24.5,28.7Z"/>
            <path class="st49" d="M191.1,185.3c-.8,9.3-9.2,16.1-18.7,15.2-9.5-.9-16.5-9.1-15.7-18.4.8-9.3,9.2-16.1,18.7-15.2,9.5.9,16.5,9.1,15.7,18.4Z"/>
            <path class="st51" d="M185.7,184.9c-.6,6.3-6.4,11-12.9,10.4-6.6-.6-11.4-6.2-10.8-12.6.6-6.3,6.4-11,12.9-10.4,6.6.6,11.4,6.2,10.8,12.6Z"/>
            <path class="st9" d="M184.5,184.7c-.5,5.7-5.7,10-11.6,9.4-5.9-.5-10.2-5.6-9.7-11.4.5-5.7,5.7-10,11.6-9.4,5.9.5,10.2,5.6,9.7,11.4Z"/>
            <path class="st49" d="M176.2,183.1c-.3,3.3-4.8,2.9-4.5-.4.3-3.3,4.8-2.9,4.5.4Z"/>
            <path class="st48" d="M167.7,202.1c10.7,4.3,26.9-5.2,25.9-18.6,0,0,1.7-3,2.3.3.6,3.3,3.5,19.4-22.6,22.4,0,0-11.1-1.3-5.6-4.1Z"/>
          </g>
          <path class="st38" d="M197.8,122.4c2.7.3,5.4-.7,7.4-2.1.6-.4,3.3-1.6,5.3-3.3.4-.3,1.2-1.2,1.2-1.2.6-.6,1.9-1.3,1.7-2.3,2-1.3-9.6-2.6-13-2.9-6.4-.5,5.5,0-16.9-2.1-45.1-4.1-54.3-8.8-82.3-2.6-.1,0-14.8,3.8-15,3.8-.3,0-.6,0-.7.3-1.7,3.3,60.5,6.4,67.9,8.7,18.3,2.3,33.6,2.5,44.4,3.6ZM182.7,120c0,0,0,0,.2,0,0,0-.2,0-.2,0ZM202.8,112c.2,0,.1,0,.1,0,0,0,0,0-.1,0ZM183.2,109.7c0,0,0,0-.2,0,.1,0,0,0,.2,0Z"/>
          <path class="st20" d="M146,156.5c46.2-19.5,51.5-26.9,63-31.1,4-1.5,11.4-5,14.6-8.1,1.9-1.8,1.6-2.5.7-3.8-1.9-2.6-7-3.4-10.2-3.8-18.9-2.4-93.4-12.9-104.1-9.6-2.3.7-3.7.9-3.7.9-10.7,2-23.4,5.8-23.5,5.8-2,.4-2.7,1.2-3.8,2-1,.8-1.1,1.4-1.6,2.6-.5,1.2,1.1,2.8,3.5,3.6,0,0,.2,5.8-.4,16.4-.1,2.9-.8,1.7,1.6,3.3,6.9,4.7,37.4,11,46.7,14.5,14.3,5.4,16.5,8.4,17.1,7.3ZM178.5,140.6c0,0-.1,0,0,0h0ZM99,113.2c-1.6-.1-12.4-1.8-12.3-1.8-1.9-.5-1.1-1.7-.2-1.5,16-4,31.1-8.6,47.5-6.5,4.9.6,5.7.2,7.8.6,15.9,3.2,41.2,3.8,56.4,6.3,12.4,1.9,22.2,1,9.6,8.7-.3.2-.9.4-.9.4-7.2,3.5-3.2,3.3-16,2.3-1,0-6.7-.2-6.7-.2-45.9-3.3-25.2-3.4-85.2-8.3ZM218.7,120.9c-.2.1,0,0,0,0h0Z"/>
          <path class="st55" d="M186,126.5c1.3.1,5.3.3,6.1-.7,3-3.8-19.8-4.2-42.8-7.3-6.5-.9-61.9-8.7-60.1-2.6-.1,0-6.5-.9-8.9-1.8-1.8-.6-1.9-1.5-2.2-1.1-3.5,4.1,58.8,8.2,86.6,11.9,19.5,2.6,15.9.9,21.3,1.5Z"/>
          <path class="st32" d="M150.8,137.9c28.6,2.6,36.8-1.2,36.7-1.1,1.7-.7,16.7-7.9,15.8-9.1-.3-.4-5.8,1.2-18.2-.5-.7-.8-7,.5-32.3-2.7-5.3-.7-66.2-8-71.5-9.1-.4,0-.7.4-.4.8.4.4-.2,8.1-.2,10.3,0,4.9-2,3.9,10.2,6.2,19,3.5,51.9,4.5,59.9,5.3Z"/>
          <path class="st28" d="M88,105.2c1.5.1,4.5-.9,5.3-1,0,0,.8,0,.8-.5.1-2.6-6.2-11-6.6-11.5-4.5-5.2-5.8-5.8-8.9-7.3-1.9-1-8-2.1-9.5-1.8-1.2.2-1.5,2.4-1.8,4.3-.4,2.4,8.1,1.3,13.4,7.5,4.3,5,.5.7,2.1,2.5,5.5,6.1,3.8,7.8,5.2,7.9Z"/>
          <path class="st5" d="M111.4,114.2c.8-.2.2-4.2.3-4.2.3,0,.2-.3.1-.6-2.1-11.7-4.5-10-6.4-15-1.5-3.9-3.7,3.8-2.7,10.5.6,4.1,2.1,7.1,2,7.1.7,1.8.9,1.7,2,1.8.3,0,3.8.6,4.6.4Z"/>
          <path class="st5" d="M116.8,112.4c1.1-1.4,1.9-3,2.5-4.2,3.7-8.3,2.3-5.1,3.9-14.8,0-.5.3-2.3.4-2.6,1-3.2,1.2-3.4.1-2.8-3.7,1.9-7.3,5.8-8.3,9.6,0,.3-1.6,4.9-1.6,5.3-.4.6-2,11.9-.9,11.4,3.1.6,2.2.3,3.9-2Z"/>
          <path class="st5" d="M123.1,115.1s.2.2.2.2c.5.3,1.7-.6,2.2-.8,5.8-2.5,7.8-4.2,9.6-5.9,17.2-16.6,14.1-15.8,15.7-17.9,1.2-1.6,0-1.3-.5-1.2-4.8.3-9.5,2-13.1,4,.4-1.1.8-2,.5-2.2,1.3-3.4.8-5,.1-4.8-.3.1-.3.5-.4.5-3.2,2.4-11.1,6.9-14,15.5-.7,2-.6,3.2-1.2,3.9-2.7,3.4-4.3,6.9-4.2,6.7-1.4,3-.8,1.2,5.2,2.1Z"/>
          <path class="st52" d="M172.4,114c.9-.1,1.2.2,3-1,.4.4.8-.2,1.3-.6,3.7-3.6,4.4-3.7,6.7-10.7,0,0,.8-2.7.7-2.6.8-3.2,2.9-5.7.6-3.9-1.3,1-2.2,1.3-4.7,3.4-1.1.9-.4.9-1.2-1.9-.4-1.5-.9-1.1-.7-3.3.2-1.6-.6-1.4-1-.4,0,0-.5,1.1-1.1,2.1-1.3,2.3-2.9,4.3-3.6,6.3-.2.5,0,0-.1,0,.3,0-1.8-5.7-2.1-6.4-1.1-2.3-4.9-8.9-7.6-9.2-1,0,0,1.3.3,2.4,0,.1.9,4.2.7,5.6-.2,1.9-.3,3.7.7,5.8-7.3-4.8-7.5-5.8-9.5-6-1.1,0-1.2.2-.9.6,1.8,1.6,3.1,7.4,4.8,10.6,5.4,10.2,11.9,8.6,12.3,9.3.3.5.8,0,1.3-.2Z"/>
          <path class="st33" d="M195.1,122c.9-.1.6-.2,1.4-1,.2-.2.4-.5.4-.5,6-7.5,1-3.6,9.1-13,1.1-1.2.8-2.1-2.8-.5-14.1,6.3-9.8,11.5-12.1,5.9-.5-1.4-6.4-7.4-7.2-7.5-1.7-.2,1.7,5.8,2.2,7.3.3,1,.8,3.3,1.1,3.7.5.7.9,2.3,1,3-.1,0-1.4,2.3,2.7,2.2.1.2.3.2.5.2.5,0,1.9.5,3.7.2Z"/>
          <path class="st4" d="M122.9,105.5s6.5-6.6,6.7-6.8c2.5-2.2,4.2-3.1,4.7-3.5,3.5-2.8,2.8-1.1,3.8-4.6.3-.9.6-3.4.2-4-.5-.6-2.2,1.6-3.1,2-2.5.9-11.8,9-12.2,16,0,.2-.5.9,0,1Z"/>
          <path class="st15" d="M97.4,112.9s94.4,10.4,101.4,9.6c0,0-.6-2.9-4-3.5-3.4-.6,2.1-5.8-9.1-7.1,0,0-3.4-.8-5.3,1.7-2.1-10.6-13.5-2.9-14-1.3-.2.6-.8-7-6.5-6.6-5.7.5-8.6,2.5-9,4-.8,3.6-6.5.3-9,2.7-5.2,5-18.2-3.2-21.3-.8-1.6,1.2-16.7-5.2-23.4,1.3Z"/>
          <path class="st36" d="M157.3,108.2c3.9-3.2,7.8,3.6,7.3,4.8-.3.6-9.8-1-7.3-4.8Z"/>
          <path class="st36" d="M172.8,109.6c2.8-1.3,8.4,6.6,3.1,5.2-2.1-.5-6.1-6.1-3.1-5.2Z"/>
          <path class="st36" d="M186.2,113.2s6.2,1.6,5.8,4.2c-.3,2.6-2.4,2.3-4.3.1-1.8-2.2-3.9-4.6-1.6-4.3Z"/>
          <path class="st36" d="M156.7,111.4c-.1,1.1-2.9.9-2.8-.3.1-1.1,2.9-.9,2.8.3Z"/>
          <path class="st38" d="M165.7,117.1c-.2,1.9-5.7,1.4-5.5-.5.2-1.9,5.7-1.4,5.5.5Z"/>
          <path class="st36" d="M174.4,118.2c0,1-2.6.7-2.5-.2,0-1,2.6-.7,2.5.2Z"/>
          <path class="st36" d="M184.7,118.9c-.2,1.9-5.1,1.5-4.9-.4.2-1.9,5.1-1.5,4.9.4Z"/>
          <path class="st38" d="M151.5,114.7c-.2,1.8-6,1.3-5.8-.5.2-1.8,6-1.3,5.8.5Z"/>
          <path class="st38" d="M156.3,115.8c0,.9-2.1.7-2-.2,0-.9,2.1-.7,2,.2Z"/>
          <path class="st38" d="M133.5,115.2c-.1,1.3-3.1,1-3-.3.1-1.3,3.1-1,3,.3Z"/>
          <path class="st21" d="M166.5,112.3l-3-5.6c2.3-12.1,6.3-12.7,6.6-17.9,5.1,5.2-.6,11.1-1.1,21.3l-2.4,2.2Z"/>
          <path class="st21" d="M182.2,92.1s-2.7,15.5-4.3,16.9c0,0-4.7-1.6-9.2,1.2-8.7,5.4,12.7-12.6,13.5-18.2Z"/>
          <path class="st4" d="M123.3,111.2s20.5-22,28-21.9c0,0-12,22-22.3,23.4l-5.8-1.5Z"/>
          <path class="st4" d="M114.9,110.9s1-17.8,9.3-23.4c-9,27.2-7.2,23.8-9.3,23.4Z"/>
          <path class="st4" d="M108.6,86.6c-3.5,7.7,2.1,20.2,3.9,23.8,2.3-.6,3.5,6.9-3.9-23.8Z"/>
          <path class="st26" d="M204.2,132.4c0,.9,7.6,1.3-123.2-10.6-.8,0-.5-.6,0-5.7,0-.9-7.6-1.3,123.2,10.6.8,0,.5.6,0,5.7Z"/>
          <path class="st20" d="M68.8,90.2c.6-1.2-2.8-.3-2-2.9.1-.4.4-.4.7-1.1.3-.5.5-1.3.5-1.3.5-1.3,1.6-2.3,1.6-2.5,0,0,2.1.1,2.1.3,0,.2.4.3.3-.3.1-.1,0-.3,0-.5,0-2.6-3.7-3.6-5.7-.4,0,0-9.1-.9-9.1-.9-9.2-1.3-5.8-.2-6.6-1.7-.3-.5-1.6-.7-2-.2-3.8.7-2.2,10.3,1,8.8.4-.2.7-.9.7-.8.2-.3,13,1.1,13.4,1.3.4.3.2,0,.3,1.1.4,3.1,3.4,3.4,4.7.9Z"/>
          <path class="st7" d="M68.9,89.8s-1.9-5.6,3.3-7.5c0,0,.2-1.9-1.4-2.5-1.6-.6-7.4,8.2-4.7,10.5,0,0,2,1.5,2.8-.5Z"/>
          <path class="st7" d="M50.4,86.8s-1.7-4.7.3-6.9c0,0,.4-1.3-.9-1.3-1.3,0-2,5.8-.8,9,0,0,1.4.2,1.4-.9Z"/>
          <path class="st40" d="M63.8,83.6c0,.5-.2.3-11.8-.7-.8,0-.6-.6-.4-1.8,0-.5.2-.3,11.8.7.8,0,.6.6.4,1.8Z"/>
          <path class="st28" d="M210.8,174.2c-6.2-12.3-24.7-28.5-24.8-28.5,1.7-.7,22.8-10.9,26.8-14.7.8-.8,1.7-3,1.6-3.8,0-1.1-1.4-2.3-2.2-2.5-.5,0-1.5.6-2.3.9-7.7,2.5-4.1.8-7.3,2.8-13.5,8.6-43.3,22.8-57.7,28.6-2.6-1.4-5.3-3.3-6.9-4-.2-.4-10.6-4.4-10.6-4.4-7.4-2.8,1.4,1.5-32.8-8.5-2.1-.7-15-5.9-17.3-8.4-.3-.3-.5,0-.7-.1-15.4-14.2-9-8.1-18.2-20.3-2.5-3.3-1.5-3-8.3-8.5-.9-.7-2.2-1.7-3.3-2.2-7.5-3.3-8.8-3.6-10.3-2.7-.8-.4-1.1.8-1.2,1.4-.8,1.3-1.5,3.1-1.5,3-.2.4-.2.8.2,1.1-.2.3.3,1.3,1.1.9.6-.4,8,1.6,12,5.5,11.4,11.2,13.3,27.1,47,37.3-1.5,2.8-3.2,4.1-11.3,17.9-.6,1-8.6,16.3-8.7,19.3-.6,2.8-1.1,7.6,1.3,10.4,4,4.7,7.3,8.1,13.3,5.6.7-.6,6.5-1.8,21.9-12.4,2.1,2.2,5.4,4.5,10.7,5.3,0,0,12.2-1,27-15.9,0,0,1.9-5.2,5.3-8.8,1.1.5,25.1,24.3,37.8,25.5,6.1,1.1,27.1-4.4,19.3-19.8ZM146.6,165.9c.9-.5.2-.8,4.5,1.4,0,0-23,22.5-33.2,16-1.1-.1,28.7-17.4,28.7-17.4ZM138.8,161.5c-2,1.7-19.1,12.3-24.6,16.1-.5.3.3.1-1.1,1-1-3.8,0-10.8,7.1-23.3-4.6-1.3,15.2,4.7,18.6,6.3ZM114.4,153.6c-.8-.2-.7-.2,0,0,0,0,0,0,0,0ZM81,182.5c.4-.9,5.2-11.8,5.7-12.5,6.9-9.4,2.9-6,13.9-20,1.1-1.4.8.3,13.2,3.4,0,0-13.9,18.4-6.7,28.8-32.4,19.3-24.7,1.5-26,.4ZM111.2,187.4s0,0,0,0c.1.1,0,.1,0,0ZM205.8,181.7c-.2,1.7-.2,1.6-1,2.3-2.9,2.6-4.7,2.5-7.8,3.2-2.2.5-1.8.1-39.8-24.1v.3c-4.5-2.8-5-1.4-2.3-2.9,5.5-3.2,12.4-5.2,19.8-8.9,3.6-1.7,2.2-1.4,3-.8,10.2,7.8,29.2,21.6,28.1,31.1Z"/>
          <path class="st42" d="M94,147.1l7.1,2.3-7.7,10.1s-5.7-.1-8.6,1.9l9.2-14.4Z"/>
          <path class="st42" d="M107,182.2l6-3.6s-1.1-5,1.2-10.5c0,0-1.5-4.2-4.5,0-3,4.2-5.6,9.3-2.7,14.1Z"/>
          <path class="st42" d="M110.6,187.8l7.3-4.5s6.1,3.3,14.1-1.7c0,0,2.5,3.9-3.1,6.8-5.5,2.9-11.3,4.2-18.3-.6Z"/>
          <path class="st42" d="M138.8,161.5l8.6,4.1-16.3,9.5s4.2-11.9,7.8-13.6Z"/>
          <path class="st42" d="M145.6,156.8l7.6,4.4,12.5-5.8s-16.9,1.4-20,1.4Z"/>
          <path class="st42" d="M177.3,150.1l8.7-4.4,13.5,13.3c-7.6-5.7-6.7-4.1-22.1-8.9Z"/>
          <path class="st20" d="M35.7,105.3c.6-1.2-2.8-.3-2-2.9.1-.4.4-.4.7-1.1.3-.5.5-1.3.5-1.3.5-1.3,1.6-2.3,1.6-2.5,0,0,2.1.1,2.1.3,0,.2.4.3.3-.3.1-.1,0-.3,0-.5,0-2.6-3.7-3.6-5.7-.4,0,0-9.1-.9-9.1-.9-9.2-1.3-5.8-.2-6.6-1.7-.3-.5-1.6-.7-2-.2-3.8.7-2.2,10.3,1,8.8.4-.2.7-.9.7-.8.2-.3,13,1.1,13.4,1.3.4.3.2,0,.3,1.1.4,3.1,3.4,3.4,4.7.9Z"/>
          <path class="st7" d="M35.8,104.9s-1.9-5.6,3.3-7.5c0,0,.2-1.9-1.4-2.5-1.6-.6-7.4,8.2-4.8,10.5,0,0,2,1.5,2.8-.5Z"/>
          <path class="st7" d="M17.3,101.9s-1.7-4.7.3-6.9c0,0,.4-1.3-.9-1.3-1.3,0-2,5.8-.8,9,0,0,1.4.2,1.4-.9Z"/>
          <path class="st40" d="M30.7,98.7c0,.5-.2.3-11.8-.7-.8,0-.6-.6-.4-1.8,0-.5.2-.3,11.8.7.8,0,.6.6.4,1.8Z"/>
        </g>
        <path class="st31" d="M29.2,98.1c0,.8-.5.5-9-.2-.5,0-.6-.6-.5-.6,0-.8.5-.5,9,.2.6,0,.5.6.5.6Z"/>
        <path class="st31" d="M61.4,82.6c0,.8-.5.5-9-.2-.5,0-.6-.6-.5-.6,0-.8.5-.5,9,.2.6,0,.5.6.5.6Z"/>
        <path class="st31" d="M35.2,105.7c-6.3,1.7-1.2-11.4,3.4-10-1.7-3.7-8.8,2.1-7.4,9.6.8,4.1,4.9.3,4,.4Z"/>
        <path class="st31" d="M68.4,90.6c-6.3,1.7-1.2-11.4,3.4-10-1.7-3.7-8.8,2.1-7.4,9.6.8,4.1,4.9.3,4,.4Z"/>
        <path class="st25" d="M155.1,154l36.7-17.8s3.6-.3,2.9,1.6c-.8,1.9-38.3,18.4-38.3,18.4,0,0-4.4.4-1.2-2.1Z"/>
        <path class="st25" d="M181.3,181.7s9.7,10.4,18.8,7.2c0,0,1.3,4.3-9.1,3.2-10.5-1.1-59.8-43.5-9.7-10.4Z"/>
        <path class="st25" d="M41.3,100s9.8,3.9,13.2,9.1c3.5,5.2,11.9,17.4,14.5,19.5,2.6,2.1,13.9,8.9,18.5,10.4,4.6,1.5,19.4,6.1,19.4,6.1,11.2,6.3-30.1-3.1-39.2-13.9-7.1-8.4-26.8-29.1-28.6-29.5-1.8-.5-.8-3,2.2-1.7Z"/>
        <path class="st25" d="M80.4,176.9s-7.6,21.2,12,14.3c0,0,5.4,2.4-6,4.5-11.3,2.1-11.7-7.1-10.4-10.1,1.3-3,2.1-8.9,4.4-8.7Z"/>
        <path class="st26" d="M80.4,133.3s10.1,9.2,42.2,14.3c0,0,20.4,7.1,21.8,9.4,49.7-23.1,36.5-16.5,60.1-29.9,0,0-56.8,26-60.9,24.9-4.1-1.1-62.5-22.8-63-24.1-.5-1.2-.3,5.3-.3,5.3Z"/>
        <path class="st53" d="M72,87.2c-5-7.8,15.9,4.8,16.4,9.1.4,3.5-3.6-.4-5.7-2.9-2.1-2.6-10.8-6.1-10.8-6.1Z"/>
        <path class="st3" d="M127.4,107.9s7.1-.9,7.8-.5c.7.4-5.9.4-7.8.5Z"/>
        <path class="st3" d="M130.8,104.4c14.5-2.1,8.3.6,0,.2-1.1,0,0-.2,0-.2Z"/>
        <path class="st3" d="M135.9,100.6s4.5-1.3,6.4-.8c0,0-2.7.8-6.4.8Z"/>
        <path class="st3" d="M143.8,95.7c2.3.5-3.3,1.7-3.3,1.7,0-.7,1.4-2.1,3.3-1.7Z"/>
      </g>
      <g class="st6">
        <g>
          <path class="st18" d="M147.1,110s-3.7-29.8,1.6-37.1c0,0,5.8,20.6.2,37.1h-1.8Z"/>
          <path class="st30" d="M148,110l.7-37.1c4.5,13.6,2.2,33.7.2,37.1h-.9Z"/>
        </g>
        <g>
          <path class="st18" d="M145.6,111s-14.5-26.5-12.3-35.2c0,0,13.1,17.2,14,34.6l-1.7.7Z"/>
          <path class="st30" d="M146.5,110.7l-13.2-34.9c9.2,11,14.6,30.7,14,34.6l-.8.3Z"/>
        </g>
        <g>
          <path class="st14" d="M145.2,111.6s-19.6-23.2-19.2-32.2c0,0,16.3,14.4,20.7,31.2l-1.5,1Z"/>
          <path class="st2" d="M146,111.1l-19.9-31.7c11.3,9.1,20.5,27.3,20.7,31.2l-.7.5Z"/>
        </g>
        <g>
          <path class="st14" d="M145.3,111s-6.9-29.3-2.5-37.1c0,0,8,19.9,4.3,36.9l-1.8.2Z"/>
          <path class="st2" d="M146.3,110.9l-3.4-37c6,13,5.9,33.3,4.3,36.9h-.9Z"/>
        </g>
        <g>
          <path class="st14" d="M146.4,110.3s5.9-29.4,13.3-34.8c0,0-1,21.3-11.6,35.3l-1.7-.5Z"/>
          <path class="st2" d="M147.3,110.6l12.4-35.1c0,14.2-8.6,32.7-11.6,35.3l-.8-.3Z"/>
        </g>
        <g>
          <path class="st18" d="M148,110.3s11.6-27.7,19.9-31.6c0,0-5.2,20.7-18.3,32.5l-1.6-.8Z"/>
          <path class="st30" d="M148.9,110.8l19.1-32c-2.8,13.9-14.8,30.4-18.3,32.5l-.8-.4Z"/>
        </g>
        <g>
          <path class="st14" d="M148.1,111.2s16.3-25.4,25.1-27.8c0,0-8.7,19.6-23.7,28.9l-1.4-1.1Z"/>
          <path class="st2" d="M148.8,111.7l24.4-28.4c-5.2,13.3-19.9,27.5-23.7,28.9l-.7-.5Z"/>
        </g>
        <g>
          <path class="st14" d="M143.5,112.4s-15.8-14.1-16.4-20.3c0,0,12.6,8.3,17.3,19.5l-.9.8Z"/>
          <path class="st2" d="M144,112l-16.9-19.9c8.2,4.9,18.6,18.4,16.9,19.9Z"/>
        </g>
        <g>
          <path class="st14" d="M149.9,112.5s13.9-15.8,20.2-16.5c0,0-8.1,12.5-19.4,17.4l-.9-.9Z"/>
          <path class="st2" d="M150.3,113l19.8-17c-4.9,8.4-18.2,18.6-19.8,17Z"/>
        </g>
      </g>
    </g>
    <path class="st10" d="M127.4,216.7c0,6.1-50.1,6.1-50.1,0s50.1-6.1,50.1,0Z"/>
    <path class="st10" d="M145.9,203.1c0,3.3-10.9,3.3-10.9,0s10.9-3.3,10.9,0Z"/>
    <path class="st10" d="M204.2,208.1c0,3.3-10.9,3.3-10.9,0s10.9-3.3,10.9,0Z"/>
    <path class="st10" d="M237.3,212.1c0,3.3-10.9,3.3-10.9,0s10.9-3.3,10.9,0Z"/>
    <path class="st10" d="M214.2,201c0,3.3-10.9,3.3-10.9,0s10.9-3.3,10.9,0Z"/>
    <path class="st10" d="M51.9,194.2c0,3.3-10.9,3.3-10.9,0s10.9-3.3,10.9,0Z"/>
    <path class="st10" d="M63.1,212.1c0,3.3-10.9,3.3-10.9,0s10.9-3.3,10.9,0Z"/>
    <path class="st12" d="M53.9,205.6c0,1.5-5,1.5-5,0s5-1.5,5,0Z"/>
    <path class="st12" d="M56.4,192.3c0,1.5-5,1.5-5,0s5-1.5,5,0Z"/>
    <path class="st12" d="M108.2,216.7c0,1.5-5,1.5-5,0s5-1.5,5,0Z"/>
    <path class="st12" d="M124,201c0,1.5-5,1.5-5,0s5-1.5,5,0Z"/>
    <path class="st12" d="M161.7,217.8c0,1.5-5,1.5-5,0s5-1.5,5,0Z"/>
  </g>
  <path class="st44" d="M188.7,110.5s0,0,0,0c0,.1,0,.2,0,.4h0c0,.2,0,.3,0,.4,0,.3,0,.5-.2.8,0,.1,0,.3-.1.4,0,.2-.1.5-.2.8,0,.2,0,.3-.2.5h0c0,.1,0,.2-.1.3,0,.2-.2.4-.2.5-.1.3-.2.5-.3.8,0,0,0,.1,0,.2,0,.2-.1.3-.2.5-.7,1.7-1.4,3.6-1.7,5.9l-6.3-.6-10.4-1c0-.8,0-1.6,0-2.4,0-.4,0-.7,0-1.1.1-1.1.3-2.2.7-3.4h0c0-.3.2-.5.2-.8.1-.4.2-.7.4-1.1,0-.2.4-.9.9-1.9.4-.8,1-1.8,1.7-2.8.2-.2.3-.5.5-.7,0-.1.2-.3.3-.4.5-.6,1.1-1.3,1.7-1.8.4-.4.8-.7,1.2-1,1.3-.9,2.8-1.5,4.4-1.4,1.4,0,2.7.6,4,1.4.2.1.4.3.6.4,0,0,.2.1.3.2h0c.1.1.2.2.4.3.2.2.5.4.7.7,0,0,.2.2.2.2,0,0,0,.1.1.2.1.2.3.3.4.5.3.4.5.7.7,1.1.1.3.3.5.4.8.2.5.4,1.1.4,1.6,0,.2,0,.4,0,.5,0,.3,0,.5,0,.8Z"/>
  <path class="st39" d="M157.3,46.2c.2,0,.5,0,.7,0,.2,0,.4,0,.5.1,0,0,.1-.2.3-.4.2-.2.5-.4.8-.5.3,0,.5,0,.7,0,.2,0,.3.1.4.2.1-.3.4-.6.7-.8.3-.2.6-.3.9-.3.4,0,.8.2,1.1.5.3.3.5.8.5,1.3.1,0,.2-.1.4-.2.1,0,.3-.1.5-.2.3,0,.4-.2.6-.2.2,0,.3,0,.4,0,.3,0,.6.3.9.6.2.3.4.7.4,1,0,.4,0,.8,0,1.1,0,.3-.2.6-.3.7.1,0,.3-.1.5-.2.2,0,.5-.1.8-.1.5,0,1.1.2,1.6.4.5.3.8.6.9,1.1,0,.3,0,.5-.4,1-.4.4-1,1-2,2-.3.3-.6.6-1,.9s-.7.7-1.1,1.1h0s0,0,0,0c0,.1-.1.2-.2.4,0,.1-.1.3-.2.4-.1.3-.3.7-.5,1.2-.2.5-.4,1.1-.6,1.8-.4,1.5-.5,2.5-.5,3.2,0,.7,0,1.1-.5,1.5-.4.4-1.1.7-1.8.8-.7,0-1.4,0-2-.3-1.1-.4-1.7-1.4-2.2-2.6-.5-1.2-.8-2.8-1.1-4.4,0-.1,0-.3,0-.4,0-.1,0-.3,0-.4,0-.3.1-.6.2-.8,0-.2.2-.5.2-.8,0-.1,0-.3,0-.4,0-.1,0-.2,0-.3,0,0,0,0,0-.1,0,0,0,0,0-.1-.2-.3-.4-.6-.6-.9-.2-.3-.3-.7-.4-1,0-.3-.2-.8-.2-1.4,0-.6,0-1.3.3-2.1.1-.3.3-.8.5-1.2.3-.4.6-.8,1.1-.9Z"/>
  <path class="st44" d="M164.5,61.6c0,.5,0,1.7.6,3.7.6,1.9,1.7,4.5,4,7.5,2.9,3.9,5.9,5.4,8.5,6.6,2.6,1.3,4.7,2.3,5.8,5.2.6,1.6.7,3.4.3,5.1-.3,1.7-1.1,3.2-2.2,4.3-2.3,2.2-5.8,2.1-8.8,1.5-3-.7-5.5-1.9-5.9-2.1-3.7-1.9-6.3-4.8-8-7.5-1.7-2.7-2.7-5.4-3.2-6.9-1.9-5.3-2-10.4-1.5-14.6.5-4.2,1.6-7.5,2.3-9.2.4.3,1,.7,1.7,1,.7.4,1.5.7,2.5,1,1,.3,2,.4,2.8.5.8,0,1.5,0,2.1,0-.2.4-.4,1-.6,1.6-.2.6-.3,1.4-.4,2.2Z"/>
  <path class="st39" d="M166.9,49.3c0,0-.3.3-.6.5-.3.2-.7.3-1.1.2-.5-.1-.9-.5-1.1-1.2-.2-.6-.3-1.4,0-2.3,0,0,0,.2-.2.4-.1.2-.3.4-.6.6,0,0-.2,0-.4.1-.2,0-.4,0-.7,0-.4,0-.7-.3-1-.7-.3-.4-.4-.8-.4-1.4.2.2.3.5.3.8,0,.3,0,.5-.2.7-.2.2-.4.3-.6.3-.2,0-.4,0-.4,0-.3,0-.5-.2-.7-.3-.2-.1-.3-.3-.3-.3,0,0,.1.2.2.4,0,.2,0,.4,0,.6,0,.3-.1.6-.3.8-.1.2-.3.4-.5.5-.4.3-1,.3-1.5.2-.5-.1-.9-.4-1-.7,0-.3,0-.6.2-.9.2-.3.4-.5.5-.6.1-.1.3-.3.5-.4.2-.1.4-.2.7-.2,0,0,.1,0,.2,0,.1,0,.2,0,.4,0,0,0,0,0,.1,0,0,0,0,0,0,0,.2-.1.4-.3.6-.4.2-.1.5-.2.7-.2.2,0,.2,0,.3,0,.1,0,.2,0,.4,0,.1,0,.2,0,.3,0,0,0,.1,0,.2,0,.2,0,.5-.2.8-.2.3,0,.7,0,1,.1.2.1.5.3.7.5.2.2.3.3.4.4,0,0,0,0,0,0,0,0,0,0,0,0,0,0,.1,0,.1,0,0,0,0,0,0,0,0,0,.5.1,1.1.3.5.2,1.1.5,1.3.9,0,0,.1.2.1.4,0,.2,0,.4,0,.6v.6Z"/>
  <path class="st50" d="M151.8,87c-2.9.8-5.5,1.4-7.7,1.9-2.3.5-4.2.8-5.8,1.1-.4,0-.9,0-1.5,0-.6,0-1.2.2-1.9.4-.6.1-1.4.4-2.4.8-1,.4-2.1,1.1-3.1,2.1-.3.3-.8.8-1.2,1.4-.4.6-.9,1.3-1.3,2.2,0,0,0,.1,0,.2,0,.1,0,.3-.1.5-.3,1.8.1,3.7.7,5.3.6,1.6,1.3,2.9,1.6,3.5.3.5.6,1,1,1.6.4.6.9,1.3,1.5,2,.8.2,1.9.3,3.1.4,1.3,0,2.7,0,4.3-.2,3.4-.5,6.9-1.9,9.4-3.6,2.6-1.7,4.3-3.7,4-5.3,0-.3-.1-.6-.4-1-.2-.4-.6-.8-1.2-1.2l1-12.1Z"/>
  <path class="st22" d="M131.5,110c-2.6.4-5.2.8-7.7,1.3-2.6.4-5.2.9-7.7,1.3-.3-1.1-.6-2.2-.9-3.3-.3-1.1-.6-2.2-.9-3.3.3,0,.6-.2.8-.3.3,0,.6-.2.8-.3-.7-.9-1.3-1.9-2-3-.7-1.1-1.4-2.4-2-3.8-.9-1.9-1.5-3.7-1.9-5.4s-.7-3.2-.9-4.5c.7.2,1.6.5,2.6,1,1,.5,2.2,1.2,3.3,2.2,1,.9,1.8,1.8,2.4,2.6.6.8,1.1,1.6,1.4,2.2.7-.3,1.5-.7,2.3-1,.8-.3,1.7-.6,2.6-.9,1.1-.3,2.1-.6,3-.9,1-.2,1.9-.5,2.8-.6h0c-.1,2.8,0,5.6.4,8.3.4,2.8.9,5.5,1.7,8.2h0c0,.1,0,.2,0,.2Z"/>
  <path class="st44" d="M133,105.8c0,.2.4.4.9.5.5.1,1.1.2,1.7.2.8,0,1.6,0,2.2-.3.6-.2,1-.4,1-.6,0-.2-.3-.3-.7-.4-.4-.1-.8-.2-1.1-.2-.9-.1-1.9,0-2.7.2-.7.2-1.2.4-1.2.7Z"/>
  <path class="st44" d="M132.3,101c0,.2.4.3,1,.3.5,0,1.2,0,1.7,0,.8-.1,1.5-.4,2.1-.6.6-.3.9-.6.9-.8,0-.2-.4-.3-.8-.3-.4,0-.9,0-1.2,0-1,0-1.9.3-2.6.6-.7.3-1.2.6-1.1.9Z"/>
  <path class="st44" d="M131.4,96.3c0,.2.5.2,1,.1.5,0,1.1-.2,1.6-.4.7-.3,1.4-.6,1.9-1,.5-.4.8-.7.7-.9,0-.2-.4-.2-.8-.2-.4,0-.9.1-1.1.2-.9.2-1.8.7-2.4,1.1-.6.4-1,.9-.9,1.1Z"/>
  <path class="st17" d="M126.5,93.6c0,0,.2.1.2.3,0,.2.1.6.1,1.3,0,.5,0,1.1,0,1.6,0,.5-.2.9-.4.9-.3,0-.8-.7-1.1-1.5-.3-.9-.4-1.9,0-2.4.2-.2.4-.3.6-.3.2,0,.5,0,.6,0Z"/>
  <path class="st17" d="M124,94.3c0,0,.2.1.2.3,0,.2.1.6.1,1.3,0,.5,0,1.1,0,1.6,0,.5-.2.9-.4.9-.3,0-.8-.7-1.1-1.5-.3-.9-.4-1.9,0-2.4.1-.2.4-.3.6-.3.2,0,.5,0,.6,0Z"/>
  <path class="st17" d="M121.5,95.1c0,0,.2.1.2.3,0,.2.1.6.1,1.3,0,.5,0,1.1,0,1.6,0,.5-.2.9-.4.9-.3,0-.8-.7-1.1-1.5-.3-.9-.4-1.9,0-2.4.1-.2.4-.3.6-.3s.5,0,.6,0Z"/>
  <path class="st50" d="M159.2,119.5l-19.2-1.8-2.3-.2h-1.3c0-.1-2.8-.4-2.8-.4h-.4c0-.4,0-.7.1-1.1.5-.5,1.1-1,1.9-1.6.2-.1.4-.3.6-.4,1-.8,2.3-1.5,3.7-2.2.5-.2,1.1-.5,1.7-.7,0,0,.2,0,.2,0,0,0,0,0,0,0,.2,0,.4-.1.7-.2h0c.3,0,.6-.2.8-.2.4-.1.8-.2,1.2-.3,1.1-.2,2.1-.4,3.2-.5.4,0,.8,0,1.2,0,.3,0,.5,0,.8,0,.7,0,1.4,0,2,.1,2.1.2,3.8,1,4.3,2.1.1.2.2.6.2,1s0,1-.4,1.6l3.8,4.9Z"/>
  <path class="st22" d="M133.1,117.1l-1.9-.2c.7-.3,1.3-.6,2-.9h0c0,.1,0,.2,0,.2,0,.3.2.6.3.9h-.4Z"/>
  <path class="st44" d="M141.4,116.5c-.3.3-.6.6-.8.8-.2.1-.3.3-.5.4l-2.3-.2c.3-.3.6-.5.9-.7.6-.4,1.3-.8,1.9-1,.6-.2,1.1-.2,1.2,0,0,.2,0,.5-.4.8Z"/>
  <path class="st17" d="M138.1,132.5c0,.2-.3.3-.5.4-.2,0-.5.1-.7,0-.2,0-.3-.1-.5-.3.5-.2,1-.3,1.4-.5,0,0,.2,0,.2,0,0,.2,0,.3,0,.4Z"/>
  <path class="st50" d="M191,106.9c-.5,1-1,1.9-1.6,2.8,0,0-.1.2-.2.3-.1.2-.2.4-.4.6,0,0,0,0,0,0,0,0-.1.2-.2.3,0,0,0,0,0,0l-.2.4c-.1.2-.3.4-.4.6,0,.1-.2.2-.3.4-.1.2-.2.3-.3.5,0,0,0,.1-.1.2,0,.1-.2.2-.3.4-.1.2-.3.4-.4.6-.2.3-.4.6-.6.8-.3.4-.7.8-1,1.1-.2.2-.4.4-.6.6,0,.1-.2.2-.3.3-1.7,1.8-3.4,3.3-5.1,4.7l-10.4-1-2.7-.2-6.6-.6-19.2-1.8-2.3-.2h-1.3c-.3-.6-.5-1.1-.7-1.6-.2-.5-.4-1-.6-1.5-.3-.9-.6-1.7-.8-2.4,0,.1,0,.2.1.3v-.3c0,0-.3-.6-.3-.6,0,0,0,.2,0,.3,0,.1,0,.2,0,.3-.2-.5-.3-1-.5-1.6-.2-.7-.4-1.5-.5-2.4-.1-.7-.2-1.4-.3-2.1,0,0,0-.2,0-.3h0c0-.9-.1-1.9-.1-2.9,0-.5,0-1,0-1.5,0-.3,0-.6,0-.9h0c0-1.2.1-2.6.3-4.1,0-.4.1-.8.2-1.2,0-.2,0-.4.1-.5.3-1.4.8-2.8,1.5-4.2.7-1.4,1.6-2.6,2.8-3.8,1.3-1.2,2.6-2,4.1-2.7,1.6-.7,3.4-1.2,5.8-1.9.6-.2,1.4-.4,2.4-.7.9-.2,2-.5,3.2-.7.8-.2,1.7-.3,2.7-.5,1.9-.3,4-.5,6.2-.5,3.4,0,7.2.3,11.2,1.3.9.2,1.9.5,3.1.9.4.1.7.2,1.1.4h0c0,0,.1,0,.2,0,0,0,.2,0,.3.1,0,0,0,0,0,0,0,0,0,0,.1,0,0,0,.2,0,.3.1.1,0,.3.1.4.2s.3,0,.4.2c.4.1.7.3,1.1.5.1,0,.2,0,.3.1.2,0,.4.2.6.3.1,0,.2,0,.3.1h0c.5.2,1,.5,1.5.8.4.2.8.4,1.2.6l.8,2.8.4,1.2.3,1.2h0s0,.2,0,.2l.3.9.7,2.3.2.8.6,2,.3,1,.2.8h0s.7,2.3.7,2.3h0s.3,1.1.3,1.1h0s.3,1.2.3,1.2h0s.3,1.1.3,1.1l.8,2.7Z"/>
  <path class="st22" d="M195.2,103.9c-.8,0-1.8,0-3,0-.4,0-.9,0-1.4.1-.2,0-.5,0-.8,0-.4,0-.8.1-1.2.2-.4,0-.9.2-1.4.3-.3,0-.5.1-.8.2h0c0,0-.2,0-.2,0-.1,0-.3,0-.4.1-.2,0-.4.1-.6.2,0,0-.1,0-.2,0-.1,0-.2,0-.3.1-.6.2-1.1.4-1.6.6-1,.4-2,.8-2.9,1.3-.3.2-.7.3-1,.5-1.1.6-2,1.2-2.9,1.9-.3.2-.5.4-.8.6-.1,0-.2.2-.4.3,0,0-.1.1-.2.2-.1,0-.2.2-.3.2-.5.4-.9.8-1.3,1.1-1,.9-1.8,1.7-2.6,2.5,0,0,0,.1-.1.2l-.4.4c-.6.6-1.2,1.2-1.8,1.8-.3.4-.7.7-1,1-.6.6-1.1,1.2-1.5,1.8,0,.1-.2.3-.3.4l-6.6-.6-19.2-1.8-2.3-.2h-1.3c-.3-.6-.5-1.1-.7-1.6-.2-.5-.4-1-.6-1.5-.3-.9-.6-1.7-.8-2.4-.2-.5-.3-1-.5-1.6-.2-.7-.4-1.5-.5-2.4-.1-.7-.2-1.4-.3-2.1,0,0,0-.2,0-.3h0c0-.9-.1-1.9-.1-2.9,0-.5,0-1,0-1.5,0-.3,0-.6,0-.9h0c0-1.2.1-2.6.3-4.1,0-.4.1-.8.2-1.2,0-.2,0-.4.1-.5.3-1.4.8-2.8,1.5-4.2.7-1.4,1.6-2.6,2.8-3.8,1.3-1.2,2.6-2,4.1-2.7,1.6-.7,3.4-1.2,5.8-1.9.6-.2,1.4-.4,2.4-.7.9-.2,2-.5,3.2-.7-.3,1-.5,1.9-.5,2.8,0,.9.2,1.7.6,2.4.6,1.2,1.7,1.9,3.3,2.5.4.1.7.3,1.2.4,1,.3,2.2.6,3.6.9h0c.6.1,1.2.2,1.8.4,1.4.3,2.9.6,4.6.9.3,0,.6,0,.9,0,.7,0,1.4.1,2.1.2.7,0,1.4,0,2.2,0,.4,0,.8,0,1.3,0h0c.2,0,.5,0,.7,0,1.1-.1,2.3-.3,3.6-.5.5-.1,1.1-.3,1.7-.4.1,0,.3,0,.4-.1,0,0,.1,0,.2,0,.2,0,.4-.1.5-.2.2,0,.5-.2.7-.2.2,0,.5-.2.7-.3h0c.3-.1.6-.2.9-.4.1,0,.2,0,.4-.2.4-.2.8-.3,1.2-.5.2-.1.5-.2.7-.4.4-.2.8-.4,1.2-.6,1-.6,1.8-1.1,2.5-1.6l1,3.5.5,1.8,1.2,4,.2.6,1.1,3.7.5,1.5,1,3.4Z"/>
  <path class="st39" d="M200.1,114.1c-5.1,1-10.7.1-15.4-2.4-4.7-2.5-8.5-6.7-10-12.3-1.4-5.4-.4-10.7,2.2-15.2,2.6-4.4,6.7-8,11.3-9.8,5.5-2.2,11.8-2,17.2.2,5.4,2.2,10,6.4,11.8,12.1,1.9,5.9.6,12.2-2.7,17.2-3.3,5.1-8.6,8.9-14.6,10.2Z"/>
  <g>
    <path class="st39" d="M198.1,74.7c.8-.7,1.5-1.6,1.8-2.5.4-.9.5-1.9.3-2.9-.3-1.5-1.3-2.6-2.5-3.3-1.2-.7-2.5-1-3.5-.7-1,.2-1.5.9-2,1.8-.6.8-1.3,1.8-2.8,2.7-1,.6-1.9.8-2.6,1-.7.2-1.1.3-1.4.8-.2.4-.2,1,.2,1.9.4.9,1.2,2,2.7,3.6l9.7-2.3Z"/>
    <path class="st0" d="M195,74.6c.5-.6.8-1.3.9-1.9,0-.6,0-1.3-.4-1.7-.4-.5-1-.7-1.6-.8-.6,0-1.2,0-1.5,0-.2,0-.9.2-1.6.5-.7.3-1.4.9-1.5,1.7,0,.6.1,1.3.6,1.8.4.6,1.1,1,1.9,1.3l3.2-1Z"/>
    <path class="st0" d="M197.3,73c.2-.2.3-.5.4-.8,0-.3.2-.6.2-.9,0-.1,0-.3,0-.4,0-.2,0-.3,0-.5,0-.2,0-.3,0-.5,0-.1,0-.3-.1-.4-.1-.3-.3-.6-.4-.8-.2-.3-.4-.5-.7-.7-.3-.2-.5-.3-.8-.4-.3-.1-.6-.2-1-.2.3,0,.7,0,1,0,.3,0,.6.2.9.4.3.2.6.4.8.6s.4.5.6.8c0,.2.2.3.2.5,0,.2.1.3.2.5,0,.2,0,.3.1.5,0,.2,0,.4,0,.5,0,.4,0,.7-.1,1.1,0,.3-.2.7-.3,1l-.4-.2-.4-.2Z"/>
  </g>
  <path class="st46" d="M214.9,106.2c.4-.4,1.1-1.2,1.6-1.8.5-.7.9-1.3.7-1.6-.3-.4-1.8.2-3.9,1.2-2.1,1.1-4.7,2.6-7.1,4.1,0,0-1.1.7-2.9,1.4-1.8.7-4.3,1.5-7,1.5-1.2,0-3.1,0-5.1-.4-1.9-.5-3.9-1.4-4.9-3.3-.5-.8-.9-2-1-3.1-.1-1.1,0-2.3.7-3.2.4-.5.9-.8,1.3-1.2.4-.4.9-.7,1.1-1.4.2-.5.2-.9.1-1.4,0-.4-.1-.8-.3-1.1h0s0,0,0,0c0-.3-.2-.7-.4-1.1-.2-.4-.5-.8-.9-1.1-.6-.4-1.1-.5-1.7-.6-.6,0-1.1,0-1.8-.3-1-.4-1.8-1.2-2.3-2.3-.5-1-.8-2.2-.9-3.1-.1-2.1,1-4,2.4-5.4,1.4-1.5,3-2.5,4-3.1,2.3-1.4,4.8-2.2,6.7-2.5,1.9-.4,3.2-.4,3.2-.4,2.8,0,5.9,0,8.2-.2,2.3-.2,3.9-.5,4-1,0-.4-.7-.8-1.6-1.1-.9-.3-1.9-.6-2.3-.8-1.6-.5-4-1-7.3-.9-3.3,0-5.2,2-10,3.8-1.5-.2-4.5,5.6-7.9,6-3.3.4-5.2,4.3-10.1,4.4s-10.9-.7-13.2,4.3c-2.3,5-4.4,10.9-2.7,16.6,1.1,3.6,2.7,4.2,6.7,7.7,4.1,3.5,3.7,2.9,11.4,3.4,5.2.3,5.6-.2,9.1-1.6,3.5-1.4,14.6-1.3,15.7-2.1,4.5-1.4,9.6-1.7,12.3-3.4,2.7-1.8,4.5-3.5,5.8-4.8Z"/>
  <path class="st41" d="M191,88.9c-.9.3-1.8,0-2.7-.6-.8-.6-1.5-1.6-1.9-2.8s-.3-2.4,0-3.4c.3-1,1-1.7,1.9-2s1.8,0,2.7.6c.8.6,1.5,1.6,1.9,2.8s.3,2.4,0,3.4c-.3,1-1,1.7-1.9,2Z"/>
  <path class="st41" d="M197.1,109.3c-.9.3-1.8,0-2.7-.6-.8-.6-1.5-1.6-1.9-2.8s-.3-2.4,0-3.4c.3-1,1-1.7,1.9-2s1.8,0,2.7.6c.8.6,1.5,1.6,1.9,2.8s.3,2.4,0,3.4c-.3,1-1,1.7-1.9,2Z"/>
  <g>
    <path class="st24" d="M173.2,115.2c-.3,0-.6,0-.8,0-.3,0-.6,0-.8-.2-.3-.1-.6-.3-.8-.6-.2-.3-.2-.6,0-1,.1-.2,0-.3,0-.4-.1-.1-.3-.2-.4-.1-.4,0-.9,0-1.2-.3-.3-.3-.5-.7-.4-1.2,0-.3.2-.6.4-.8.2-.2.4-.4.7-.6,0,0,0,0,0-.1,0,0,0,0,0,0-.6-.1-1.1.1-1.4.6-.3.4-.5,1-.4,1.6,0,.5.3,1,.7,1.3.4.3.8.5,1.3.5,0,.3,0,.5,0,.8,0,.3.3.5.5.7.4.4.9.5,1.4.6s1,0,1.5-.2c0,0,.1,0,.1-.2,0,0,0-.1-.1-.2Z"/>
    <path class="st24" d="M164.1,89.5c-.2-.3-.3-.7-.4-1,0-.4,0-.8.2-1.1.1-.2.2-.3.4-.4s.3-.2.5-.2c.2,0,.4,0,.5,0,.2,0,.4,0,.5,0,0,0,0,0,.1-.1,0,0,0-.1,0-.2-.1-.2-.4-.3-.6-.4-.3,0-.5,0-.8,0-.3,0-.6.2-.8.3-.2.2-.5.4-.6.6-.1.2-.2.5-.3.8,0,.3,0,.6,0,.8,0,.3.2.5.3.7.2.2.4.3.6.4,0,0,.1,0,.1,0,0,0,0-.1,0-.2Z"/>
    <path class="st24" d="M158.7,97.5c-.2-.1-.4-.3-.5-.5-.1-.2-.3-.4-.3-.7,0-.4,0-.7.3-1,.3-.2.6-.3,1-.3.2,0,.4-.1.4-.3,0-.2,0-.4-.3-.5-.3-.1-.6-.4-.7-.7-.1-.3,0-.6.2-.9.1-.2.3-.2.5-.3.2,0,.4-.1.6-.2,0,0,0,0,0,0,0,0,0,0,0-.1-.3-.3-.8-.3-1.1,0-.4.2-.7.5-.8.9-.1.3-.1.6-.1.9,0,.3.2.5.3.7-.3.1-.6.3-.8.5-.2.2-.4.5-.4.9,0,.5,0,1,.3,1.4.3.4.7.6,1.3.5,0,0,0,0,0,0,0,0,0,0,0-.1Z"/>
    <path class="st24" d="M163,111.2c-.2,0-.5,0-.7,0-.2,0-.4,0-.6-.2-.3-.2-.5-.5-.5-.8,0-.3,0-.6.2-1,0-.2,0-.3,0-.4,0-.1-.2-.2-.4-.1-.4.1-.8,0-1.1-.3-.3-.3-.4-.6-.2-1,0-.2.2-.3.4-.5.2-.1.4-.3.5-.4,0,0,0,0,0-.1s0,0,0-.1c-.5-.2-1,0-1.3.2-.4.3-.6.8-.6,1.3,0,.5.2.9.5,1.2.3.3.7.5,1.2.5,0,.3,0,.7,0,1,0,.3.3.6.5.9.3.3.7.5,1.1.5.4,0,.8,0,1.1-.3,0,0,0,0,0-.1,0,0,0,0,0,0Z"/>
    <path class="st24" d="M165.7,101.4c-.3-.2-.7-.4-1-.8-.3-.3-.5-.7-.5-1.1,0-.5,0-.8.3-1.2.2-.3.5-.6.8-1,0,0,0-.2,0-.3,0,0-.1-.1-.2-.1-.6,0-1,.5-1.3.9-.3.5-.4,1.1-.4,1.7,0,.6.4,1.1.8,1.5s1,.6,1.6.5c0,0,.1,0,.1,0,0,0,0-.1,0-.1Z"/>
    <path class="st24" d="M165,107s0,0,0-.1c0,0,0,0,0-.1-.2-.3-.5-.4-.8-.6-.3-.2-.5-.5-.5-.8,0-.3,0-.6.2-.9.1-.3.3-.6.4-.8,0,0,0,0,0-.1,0,0,0,0-.1,0-.6,0-1,.3-1.3.7-.3.5-.3,1-.2,1.5.1.4.5,1,.9,1.3.4.3,1,.5,1.4,0Z"/>
    <path class="st24" d="M173.3,108.3c-.2.6,0,1.4.2,1.9.3.5.8.9,1.6.7,0,0,0,0,0,0,0,0,0,0,0-.1-.4-.3-.8-.7-1-1.1-.2-.4-.3-.9,0-1.4,0-.1,0-.2,0-.3,0-.1-.1-.2-.3-.2-.4,0-.6-.3-.6-.6,0-.3.1-.5.3-.8,0,0,0-.2,0-.3,0-.1-.2-.2-.3-.1-.6.2-.8.7-.7,1.2,0,.5.4.9.8,1.2Z"/>
    <path class="st24" d="M169.9,96.7c-.1-.3-.2-.8-.2-1.2,0-.4.1-.9.3-1.2.1-.2.2-.3.4-.4.2-.1.3-.2.5-.3.1,0,.2-.1.4-.2.1,0,.2-.1.3-.3,0,0,0,0,0,0,0,0,0,0,0,0-.3-.4-.8-.3-1.3,0-.5.3-.9.7-1.1,1-.1.2-.2.5-.3.8,0,.3,0,.5,0,.8,0,.3.1.5.3.8.2.2.4.4.6.6,0,0,.1,0,.2,0,0,0,0-.1,0-.2Z"/>
  </g>
  <path class="st46" d="M202.2,79.6c0,.2.2.4.4.6.2.2.4.3.6.5.2.2.4.5.6.7.2.3.4.5.5.8.3.6.5,1.2.5,1.9,0,.6,0,1.3,0,2,0,.4.3.6.6.6.3,0,.7-.1.8-.5.2-.8.2-1.6,0-2.3-.2-.8-.5-1.5-.9-2.2-.2-.3-.4-.6-.7-.9-.2-.3-.5-.5-.8-.8-.2-.2-.5-.4-.8-.5-.3-.2-.6-.2-.9-.2,0,0,0,0-.1,0,0,0,0,0,0,.1h0Z"/>
  <path class="st46" d="M208.1,102.4c.6-.5.8-1.4.9-2.2,0-.8,0-1.7-.1-2.4,0-.4-.2-.7-.4-1.1-.2-.4-.4-.7-.6-1-.1-.1-.2-.3-.3-.4-.1-.1-.3-.2-.4-.3-.2-.1-.4-.1-.5-.2-.2,0-.4,0-.6,0,0,0,0,0-.1,0,0,0,0,0,0,.1,0,.1.1.3.2.4,0,.1,0,.3.2.4,0,.1.2.3.3.4.1.1.2.2.3.4.2.3.4.5.5.8.1.3.3.6.4.9,0,.3.1.7.2,1.1,0,.4,0,.7,0,1.1,0,.3-.1.6-.2,1,0,.3,0,.6,0,1,0,0,0,.1.1.1,0,0,.1,0,.2,0h0Z"/>
  <path class="st24" d="M188.3,82.8c-.1-.4-.4-.8-.7-1.1-.3-.4-.6-.7-1-.9-.4-.3-.8-.5-1.2-.7-.4-.2-.9-.3-1.3-.4-1-.2-2.2-.1-3.2.1-1,.3-2,.8-2.7,1.7-.8,1.1-1.3,2.3-1.4,3.5-.1,1.2.1,2.5.7,3.7.5,1,1.1,1.8,1.9,2.4.8.6,1.7,1.1,2.7,1.5.2,0,.5.2.7.3.2,0,.5.2.7.3.1,0,.2.1.3.2.1,0,.2.1.3.2,0,0,0,0,.1,0,0,0,0,0,.1,0-.2-.1-.2-.1-.2,0,0,0,.2,0,.2.1,0,0,0,0,.1,0,0,0,0,0,0,0,0,0,0,.1.2.2,0,0,.1.1,0,0,0-.1,0,0,0,.2,0,.1.2.3.1.2,0-.1,0,0,0,.2,0,.2,0,.3,0,.2,0-.1,0-.1,0,0,0,0,0,.1,0,.2,0,.1,0,.2,0,.3,0,.1,0,.2,0,.3,0,.6.2,1.1.6,1.5.4.4.9.7,1.4.7.5,0,1.1,0,1.5-.4.5-.3.8-.7.9-1.3.2-1.4-.1-2.8-.7-3.9-.6-1.1-1.6-2.1-2.9-2.8-.4-.2-.9-.4-1.4-.6-.5-.2-.9-.4-1.4-.6-.1,0-.2-.1-.3-.2-.1,0-.2-.1-.3-.2,0,0-.1,0-.2,0,0,0-.1,0-.2,0,.1,0,.2.1.2.1,0,0,0,0-.1-.1,0,0-.2-.2-.3-.3-.1-.1-.2-.2,0,0,0-.1-.2-.2-.2-.3,0-.1-.1-.2-.2-.3,0-.1,0-.2,0-.2,0,0,0,0,0,.2,0,0,0-.1,0-.2,0,0,0-.1,0-.2,0,0,0-.1,0-.2,0,0,0-.1,0-.2,0,.1,0,.2,0,.2,0,0,0,0,0-.2,0-.1,0-.3,0-.4,0-.1,0-.3,0-.4,0,.2,0,.2,0,0,0-.2,0-.4,0-.4,0,0,0-.1,0-.2,0,0,0-.1,0-.2,0,.1,0,.2,0,.2,0,0,0,0,0-.2,0,0,.1-.2.2-.3,0-.1.1-.2,0,0,.1-.2.2-.3.3-.5.1-.2.2-.3.3-.5,0,.1-.1.1,0,0,0,0,.1-.2.3-.4,0,0,0,0,0,0,0,0,0,0,.1-.1.1,0,.3-.2.4-.3.2-.1.3-.2.5-.3.2,0,.4,0,.6,0,.2,0,.4,0,.6,0,.2,0,.5,0,.7.1.2,0,.5.1.7.2.2.1.4.3.6.4.2.2.4.3.6.5.2.1.4.1.6,0,.2,0,.3-.3.2-.5h0Z"/>
  <g>
    <path class="st46" d="M180,86.3c.1.9.5,1.6,1.1,2.2.5.6,1.2,1,2,1.4.9.4,2,.7,2.8,1.3.9.6,1.5,1.3,1.5,2.5,0,0,0,0,0,0,0,0,0,0,0,0,.3-.7.2-1.4-.1-1.9-.3-.6-.9-1.1-1.5-1.4-.7-.4-1.6-.7-2.4-1-.8-.3-1.6-.7-2.2-1.3-.6-.7-.9-1.6-1-2.4s.2-1.8.7-2.5c.6-.7,1.3-1.2,2.1-1.4.8-.2,1.7-.2,2.5,0,0,0,.1,0,.1,0,0,0,0-.1,0-.2-.7-.3-1.5-.4-2.2-.3-.8.1-1.5.4-2.1.9-.6.5-1.1,1.1-1.4,1.9-.3.7-.3,1.5-.2,2.3Z"/>
    <path class="st46" d="M186.4,94.3c.3-.9,0-1.6-.7-2.2-.6-.6-1.4-1.1-2.1-1.4-.8-.4-1.7-.7-2.5-1.1-.8-.4-1.5-1-1.9-1.9-.4-.8-.6-1.7-.6-2.6,0-.9.4-1.8,1-2.5.6-.7,1.3-1.2,2.2-1.5.8-.3,1.7-.4,2.6-.2,0,0,.2,0,.2-.1,0,0,0-.2-.1-.2-1.7-.4-3.5.1-4.7,1.2-1.2,1.1-1.9,2.7-1.7,4.5.1.9.5,1.7.9,2.4.5.7,1.1,1.3,1.9,1.7.5.3,1,.5,1.5.7.5.2,1,.4,1.4.7.5.3.9.7,1.3,1.1.4.4.7.9.9,1.4,0,0,0,0,.1,0,0,0,.1,0,.1-.1Z"/>
  </g>
  <path class="st24" d="M195.5,107.1c.1.4.1.9,0,1.3,0,.5-.2.9-.3,1.3-.2.4-.4.8-.6,1.2-.3.4-.6.7-.9,1-.8.7-1.7,1.3-2.8,1.6-1,.3-2.1.4-3.2,0-1.3-.4-2.3-1.2-3.1-2.2-.8-1-1.3-2.2-1.5-3.5-.2-1.1,0-2.1.3-3.1.3-1,.9-1.9,1.4-2.8.1-.2.3-.4.4-.6.1-.2.3-.4.4-.6,0-.1.1-.2.2-.3,0-.1.1-.2.2-.3,0,0,0,0,0-.1,0,0,0,0,0-.1-.1.2-.1.2,0,.2,0,0,0-.2,0-.2,0,0,0,0,0-.1,0,0,0,0,0-.1,0,0,0-.1,0-.2,0,0,0-.2,0,0,0,.1,0,0,0-.2,0-.2,0-.3,0-.2,0,.1,0,0,0-.2,0-.2-.1-.3,0-.2,0,.1,0,.1,0,0,0,0,0-.1,0-.1,0,0-.1-.2-.2-.3,0,0-.1-.2-.2-.2-.3-.5-.4-1-.3-1.5.1-.5.4-1,.8-1.4.4-.3.9-.5,1.5-.5.6,0,1.1.2,1.5.6.9,1.1,1.4,2.4,1.5,3.7.1,1.3-.2,2.6-.9,3.9-.2.4-.5.8-.8,1.2-.3.4-.6.8-.8,1.2,0,.1-.1.2-.2.3,0,.1-.1.2-.2.3,0,0,0,.1,0,.2,0,0,0,.1,0,.2,0-.1,0-.2,0-.2,0,0,0,0,0,.2,0,0,0,.3,0,.4,0,.2,0,.2,0,0,0,.1,0,.3,0,.4,0,.1,0,.3,0,.4,0,.1,0,.2,0,.2,0,0,0,0,0-.2,0,0,0,.1,0,.2,0,0,0,.1,0,.2,0,0,0,.1,0,.2,0,0,0,.1,0,.2,0-.1,0-.2,0-.2,0,0,0,0,0,.2,0,.1.1.2.2.3s.1.2.2.3c-.1-.2,0-.1,0,0,.1.1.3.3.3.3,0,0,0,0,.1.1,0,0,0,0,.2.1,0,0-.1-.1-.1-.1,0,0,0,0,.2.1,0,0,.2.1.4.2.1,0,.2.1,0,0,.2,0,.3.1.5.2.2,0,.3.1.5.2-.1,0-.2,0-.1,0,0,0,.2,0,.4.2,0,0-.1,0,0,0,0,0,0,0,.2,0,.2,0,.3,0,.5,0,.2,0,.4,0,.6,0,.2,0,.4-.2.6-.3.2-.1.4-.3.5-.4.2-.2.4-.3.5-.5.2-.2.3-.4.5-.6.1-.2.2-.5.3-.7,0-.2.1-.5.2-.7,0-.2.3-.3.5-.4.2,0,.4,0,.5.3h0Z"/>
  <g>
    <path class="st46" d="M186.6,108.7c-.4-.8-.4-1.6-.3-2.4.1-.8.5-1.5,1-2.3.6-.8,1.3-1.7,1.7-2.6.4-.9.5-1.9,0-3,0,0,0,0,0,0,0,0,0,0,0,0,.6.4.9,1,.9,1.7,0,.7-.2,1.4-.5,2-.4.8-1,1.4-1.5,2.1-.5.7-1,1.4-1.1,2.3-.1.9,0,1.8.5,2.6s1.1,1.4,2,1.7c.9.3,1.7.3,2.5,0,.8-.3,1.5-.8,2.1-1.5,0,0,.1,0,.2,0s0,0,0,.2c-.4.6-1,1.1-1.7,1.5-.7.3-1.5.5-2.2.4-.8,0-1.5-.3-2.1-.8-.6-.5-1.1-1.1-1.4-1.8Z"/>
    <path class="st46" d="M187.6,98.5c.7.6.8,1.4.7,2.2-.1.8-.6,1.7-1,2.3-.5.8-1,1.5-1.4,2.3-.4.8-.7,1.6-.6,2.6,0,.9.4,1.8,1,2.5.5.7,1.3,1.3,2.2,1.5.9.3,1.8.3,2.6,0,.9-.2,1.7-.6,2.3-1.3,0,0,.2,0,.2,0,0,0,0,.1,0,.2-1.2,1.3-3,1.8-4.6,1.5-1.6-.3-3.1-1.2-3.9-2.9-.4-.8-.6-1.7-.5-2.5s.3-1.7.7-2.5c.3-.5.6-.9.8-1.4.3-.5.6-.9.8-1.4.2-.5.4-1,.5-1.6,0-.5,0-1.1,0-1.7,0,0,0-.1,0-.1,0,0,.1,0,.2,0Z"/>
  </g>
  <path class="st0" d="M195,98c.7-.6,1.6-1.3,2.5-2.1,1-.8,2.1-1.6,3.3-2.5.4-.3.5-.7.3-1.1s-.5-.8-.9-.8c-1.5,0-2.9-.1-4.1-.2-1.2-.1-2.3-.2-3.3-.3-2.1-.2-3.7-.5-5.1-.5-1.3,0-2.4.3-3.2,1.1-.1.1-.3.3-.4.4-.1.1-.2.3-.3.5-.9,1.5-1,3.4-.5,5.1s1.6,3.2,3.2,4c.2,0,.3.2.5.2.2,0,.4.1.5.2,1.2.3,2.2,0,3.3-.8,1.1-.7,2.4-1.9,4-3.2Z"/>
  <path class="st19" d="M161.8,60.5l-.8-6.3c-.2-1.2-1.1-2.1-2.2-2.2-.4,0-.8,0-1.2.1-3.3.3-4.3-1.9-4.3-1.9l5.9-.8c1.6-.2,2.6-1.8,2.2-3.3h0c-.3-3.3,1.9-4.5,1.9-4.5h0s.8,5.7.8,5.7c.2,1.7,1.9,2.7,3.5,2.1.8,0,3.5.1,4.3,2.3l-5.7.8c-1.4.2-2.4,1.5-2.3,2.9,0,0,0,.1,0,.2,0,0,.3,3-2.1,4.8Z"/>
  <path class="st11" d="M161.8,60.5c2.4-1.8,2.1-4.8,2.1-4.8,0,.1,0,.2.1.4.2.5.5,1,.8,1.5,0,0,0,0,0,0,0,.3,0,3.2-2.8,4.1,0,0-.1,0-.1,0,0,0,0,0,0,0l-.2-1.1Z"/>
  <path class="st11" d="M173.3,51.3c0,0,0,.2-.1.2,0,0,0,0,0,0l-1.3.2c-.8-2.2-3.5-2.3-4.3-2.3,0,0,0,0,0,0,.5-.2,1-.5,1.5-.8,0,0,0,0,0,0,.4,0,3.2,0,4.1,2.7Z"/>
  <path class="st11" d="M156.1,53.2c0,0-.2.1-.3.1-.7,0-3-.2-3.9-2.5,0-.2,0-.4.2-.4,0,0,0,0,0,0h1.1c0-.1,1,2.1,4.3,1.7-.8.3-1.3.9-1.5,1.1Z"/>
  <path class="st11" d="M161.4,46.1c0-.2-.2-.5-.3-.7-.2-.4-.5-.7-.8-1,0,0,0-.1,0-.2,0-.5,0-3.1,2.7-4,.1,0,.3,0,.3.1,0,0,0,0,0,0l.2,1.1h0s-2.3,1.3-1.9,4.5Z"/>
  <path class="st1" d="M164.4,50.8c.1.8-.5,1.6-1.3,1.7-.8.1-1.6-.5-1.7-1.3-.1-.8.5-1.6,1.3-1.7,0,0,0,0,0,0,.8-.1,1.6.5,1.7,1.3Z"/>
  <path class="st37" d="M163.2,41.5s0,0,0,0v-1c-.2-.1-.3-.2-.4-.2,0,0,0,0,0,0-2.6.9-2.7,3.5-2.7,4,0,0,0,.1,0,.2.1.1.2.2.3.3.1-1,.7-2.6,2.6-3.3Z"/>
  <path class="st23" d="M153.3,50.2s.3.6,1,1.1l5.3-.7c1.6-.2,2.6-1.8,2.2-3.3h0c-.3-2.7,1.2-4,1.8-4.4l-.2-1.3h0s-2.3,1.3-1.9,4.5h0c.4,1.5-.6,3.1-2.2,3.3l-5.9.8Z"/>
  <path class="st37" d="M152.6,51.6h1.1c0-.1.6-.2.6-.2-.7-.5-1-1.1-1-1.1h-1.1c-.2.2-.3.3-.3.5,0,0,0,0,0,0,.1.3.3.6.4.8,0,0,.1,0,.2,0Z"/>
  <path class="st16" d="M163,47.8s0,0,0,0l-.3-2.2c0-.1,0-.3.2-.3.1,0,.3,0,.3.2,0,0,0,0,0,0l.3,2.2c0,.1,0,.3-.2.3-.1,0-.2,0-.3-.2h0Z"/>
  <path class="st16" d="M162.6,44.7s0,0,0,0v-.4c0-.1,0-.3.2-.3.1,0,.3,0,.3.2,0,0,0,0,0,0v.4c0,.1,0,.3-.2.3-.1,0-.2,0-.3-.2h0Z"/>
  <g>
    <path class="st39" d="M208.2,108.7c1.1.1,2.1.5,2.9,1.1.8.6,1.4,1.4,1.8,2.3.5,1.4.3,2.9-.2,4.1-.6,1.2-1.5,2.2-2.5,2.6-1,.3-1.7,0-2.7-.4-.9-.4-2.1-.8-3.8-.7-1.2,0-2,.4-2.7.6-.6.2-1.1.3-1.6,0-.4-.2-.7-.7-.9-1.7-.1-1,0-2.4.3-4.5l9.4-3.4Z"/>
    <path class="st0" d="M205.6,110.4c.8.2,1.4.6,1.8,1.1.4.5.6,1.1.6,1.6,0,.7-.5,1.2-.9,1.5-.5.4-1,.6-1.3.7-.2,0-.8.4-1.6.5-.8.1-1.7,0-2.2-.6-.4-.5-.6-1.1-.5-1.8,0-.7.4-1.5.9-2.1l3.2-1Z"/>
    <path class="st0" d="M208.5,110.5c.3.1.5.3.7.5.2.2.4.4.6.6,0,.1.2.2.3.4,0,.1.1.3.2.4,0,.1.1.3.2.4,0,.1,0,.3.1.4,0,.3,0,.6,0,.9,0,.3,0,.6-.2.9-.1.3-.3.6-.5.8-.2.3-.4.5-.7.7.3-.2.6-.4.8-.6.2-.2.4-.5.6-.8.2-.3.3-.6.3-1,0-.3,0-.7,0-1,0-.2,0-.3,0-.5,0-.2,0-.3-.1-.5,0-.2-.1-.3-.2-.5,0-.2-.2-.3-.3-.5-.2-.3-.4-.6-.7-.8s-.5-.5-.8-.7l-.2.4-.2.4Z"/>
  </g>
  <path class="st45" d="M217.9,86.9h0c-.1.6-.2,1.1-.3,1.7,0,.5-.2,1.4-.5,2.6-.9,4.9-1.7,8.8-2.3,11.8-.3,1.5-.5,2.2-.5,2.3-.3,1.3-.7,2.6-1.2,3.8-.5,1-1,1.9-1.6,2.8,0,0,0,0,0,.1,0,0,0,0,.1,0,0,0,0,0,.1,0,0,0,.1,0,.2,0,1.2-.8,2.4-1.6,3.9-2.4,1-.5-16.7,4.5-16.2,4.3,0,0,1.7-4.3,1.5-4.3-.2,0-.3,0-.5,0-1.1,0-2.3,0-3.4-.2,0-.1,0-.2.2-.2.7,0,1.5,0,2.2,0,0,0,0,0,.2,0,.2,0,.5,0,.8.2,0,0,.1,0,.2,0,.1-.1.3-.2.5-.2,0,0,.2,0,.5.1.3,0,.5.1.7.2.8,0,1.7,0,2.6-.1.9-.1,1.4-.2,1.4-.2.5,0,1-.2,1.4-.3.7-.3,1.1-.9,1.2-1.7,0-.6-.1-1.2-.5-1.7-.3-.5-.7-.9-1.1-1.3-1.5-1.7-2.7-3.6-3.4-5.9-.7-2.2-.8-4.4-.4-6.6,0,0,0-.2,0-.2v-.2c0,0,0-.1,0-.2-.1-.2-.3-.4-.4-.5-1-1.1-1.9-2.3-2.5-3.7-.3-.7-.6-1.4-.8-2.2-.4-1.4-.5-2.8-.5-4.2,0-.5,0-1.1.1-1.8,0-.6.2-1.2.2-1.8,0-.3,0-.7,0-1.1,0-.7-.3-1.2-.7-1.6-.4-.3-.8-.4-1.3-.4-.3,0-.7.1-1.2.4-1.5.7-3,1.6-4.4,2.6,0,0-.2.2-.4.4-.1.1-.3.2-.5.3,0,0,0,0,0,0,0,0-.1.1-.2.2-.6.4-1.3.8-2,1.4-.2.1-.5.4-1,.7-.3.2-.6.5-.9.8-.3.3,1.1-4.5.7-4.2,0,0,9.9-6.4,12.8-5.6s2.3.6,3.7,1.9c.8.8,1.5,1.4,2,1.9,4,4,7.8,8.1,11.7,12.2h0Z"/>
  <path class="st43" d="M235.9,82.5c0-.1-.2-.2-.3,0,0,0-.1.1-.2.2-.5.1-1.3.3-2.4.6-5.4,1.6-10.7,3.2-16.1,4.8s-.7.2-1,.1c-1-1.5-2.1-3-3.4-4.4-1.8-2.1-3.7-4.1-5.5-5.9-.3-.3-.5-.4-.7-.5-.4-.3-.7-.5-.9-.7-1.5-1.4-3.1-2.7-4.8-3.8-.2-.1-.2-.1,0,0,3.5,3.2,6.9,6.4,10.3,9.9.2.2.4.4.6.5,0,0,.1,0,.2,0,1.4,1.5,2.7,3.1,3.9,4.7l-.2.4s0,0-.1,0l-2.5.7h0c0,0,0-.1,0-.2-.5-.6-.8-1-.9-1.2-3.5-3.8-7.2-7.6-11-11.1-.4-.4-1.1-1-2.2-2-1.6-1.4-2.9-1.4-4.5-2.2-.5-.3,14.4-4.7,15.2-4.8,3-.3,5.9.1,8.7,1.3,1.6.7,2.9,1.4,4,2.2,1.9,1.3,3.9,2.8,5.8,4.6,1,.9,1.6,1.5,1.9,1.7,1.2,1.1,2.5,2,3.6,2.9.6.4,1.3.9,2.2,1.4.3.2.5.3.5.3.2,0,.2.1,0,.3h0Z"/>
  <path class="st35" d="M235.9,82.5c-1.1,2-1.9,4.2-2.6,6.4-.3,1-.6,1.9-.8,2.9-.5,1.9-1.1,3.8-1.7,5.6-.6,1.7-1.4,3.4-2.3,5-1.9,3.3-4.7,5.8-8.2,7.4,0,0,0-.2,0-.3,0,0,0-.1.2-.2,1.4-.6,2.6-1.4,3.8-2.3.7-.5,1.3-1.1,1.9-1.7.6-.7,1.2-1.5,1.7-2.3.3-.5.6-1,.9-1.5.3-.5.5-1,.8-1.6,1.4-3.3,2.5-6.6,3.3-10.1.5-2.3,1.4-4.6,2.6-6.9,0,0,0,0,0-.1,0,0,0-.1,0-.2,0,0,.2,0,.2-.2.1-.1.2-.1.3,0h0Z"/>
  <path class="st47" d="M235.4,82.7c0,0,0,.1,0,.2,0,0,0,0,0,.1-1.2,2.3-2,4.6-2.6,6.9-.8,3.4-1.9,6.8-3.3,10.1-.2.5-.5,1.1-.8,1.6-.3.5-.6,1-.9,1.5-.5.8-1.1,1.6-1.7,2.3-.5.6-1.2,1.2-1.9,1.7-1.2.9-2.6,2.1-4,2.7,0,0-3.5,1.6-3.5,1.6-.1,0-.2,0-.3-.2,0,0-.2,0-.5.1-.3.2-.7.4-1.1.6-.3.1-.5.2-.8.4-.2.1-.5.2-.7.3-.2,0-.4.2-.6.3-.4.2-.6.3-.6.3-.6.3-13.5,1.6-14.6-.4s9.7-.4,9.9-1.1c.6-1.8,1.6-4.1,2.2-6.6.4-2,.9-3.9,1.3-5.9.5-2.2,1-4.5,1.4-6.7,0-.5.1-.9.1-1.2,0,0,0-.1-.2,0,0-.6.2-1.2.4-1.8l2.5-.7c0,0,0,0,.1,0l.2-.4.3.4s0,0,0,0c0,0,0-.1,0-.2.3,0,.6,0,1-.1,5.4-1.6,10.7-3.2,16.1-4.8s1.8-.5,2.4-.6h0Z"/>
  <path class="st54" d="M215.9,88.2c0,0,0,.2,0,.2,0,0,0,0,0,0l-.3-.4c-1.2-1.6-2.6-3.2-3.9-4.7-1.7-2-3.5-4-5.3-5.9.2,0,.4.3.7.5,1.9,1.8,3.7,3.7,5.5,5.9,1.3,1.5,2.4,2.9,3.4,4.4h0Z"/>
  <path class="st35" d="M211.6,83.3c0,0-.1,0-.2,0-.2-.2-.4-.3-.6-.5-3.3-3.4-6.7-6.7-10.3-9.9-.2-.2-.2-.2,0,0,1.7,1.1,3.3,2.4,4.8,3.8.2.2.5.4.9.7,1.8,1.9,3.6,3.9,5.3,5.9h0Z"/>
  <path class="st35" d="M214.7,95.3c0-.1,0-.2.2-.1,0,0,0,0,0,0-.3,1.7-.5,3.4-.9,5.1-.3,1.4-.4,2.2-.5,2.5-.5,2.6-1.3,5.1-2.4,7.5,0,.1,0,.2,0,0,0,0,0,0,0,0,.3-.7.5-1.4.7-2.1,1.1-4.3,2.1-8.5,2.9-12.9h0Z"/>
  <path class="st54" d="M212.7,89.3c-4.4-4.5-9-8.8-13.5-13.1-.6-.5-1.3-1.2-2.3-2-1.6-1.4-1.9-1.7-1.4-1.4,1.6.8,1.4.8,3,2.2,1.1,1,1.8,1.6,2.2,2,3.8,3.6,7.5,7.3,11,11.1.1.1.4.5.9,1.2,0,0,0,.1,0,.2h0Z"/>
  <path class="st8" d="M211.7,97.1c.3-1.4.5-2.3.6-2.9.1,0,.2,0,.2,0,0,.3,0,.7-.1,1.2-.4,2.2-.9,4.5-1.4,6.7-.4,2-.9,3.9-1.3,5.9l2.1-11Z"/>
  <path class="st47" d="M187.4,114.7h-4.1c-.1-.2-.3-.4-.6-.7-.4-.4-.9-.8-1.6-1-.4-.2-.9-.3-1.3-.5-1.3-.4-2.5-.9-3.7-1.5-.4-.2-.8-.5-1.3-.8-.3-.2-.3-.3,0-.2.5.2,1.1.3,1.8.5,3.4.7,6.9,1,10.3.8,1.2,0,2.4-.2,3.8-.4,0,0,0,0,.1,0,0,0,0,0,0,0-2.4-.2-4.8-.9-7-1.9-1.5-.7-2.9-1.4-4.4-2.1-1-.5-2.1-1.1-3.5-1.9-1.3-.8-2.4-1.7-3.4-2.7-.2-.3-.4-.6-.5-.9.1,0,.2,0,.4,0,7.3-2.2,14.6-4.3,21.9-6.5,0,0,.1,0,.3,0,.3,0,.5-.2.7-.4l.2.2v.2c-.1,0-.1,0-.1,0,0,0,0,.1,0,.1-1.2,3.5-.8,6.8,1.1,9.9,1,1.6,2.2,3.1,3.6,4.4,0,0,.2.2.3.4.1.1.2.2.4.3,0,0,0,0,0,0,0,0,0,0,.1,0,.5.5.7,1.2.6,1.9-.1,1-.6,1.6-1.5,2-.5.2-1,.3-1.7.4,0,0-.6,0-1.7.2-1.1.2-2.1.2-3.1.2-.2,0-.5,0-.8-.1-.3,0-.5-.1-.6-.1-.2,0-.4,0-.6.2,0,0-.1,0-.2,0-.4-.1-.7-.2-1-.2-.2,0-.3,0-.3,0-.9,0-1.8,0-2.7,0-.1,0-.2,0-.2.2h0Z"/>
  <path class="st43" d="M191.4,77.5s0,0,0,0c0,0,0,0,0,0,0,.8-.2,1.5-.4,2.3-.2,1.2-.4,1.9-.4,2.2-.2,1.8,0,3.6.4,5.4.5,2.1,1.5,3.8,2.9,5.3.5.5,1,1,1.5,1.5-.2.2-.4.3-.7.4-.2,0-.3,0-.3,0-7.3,2.2-14.6,4.3-21.9,6.5s-.3,0-.4,0c-.5-.6-.6-1.2-.4-1.9.5-1.6.8-2.8,1.1-3.6.5-1.4,1-2.7,1.7-3.9.5-.9.9-1.6,1.3-2.2.7-1,1.5-2,2.4-2.8,0,0,0,0,0,0-1.6,1-3.1,2.2-4.5,3.5-.5.4-.8.8-.9,1-.4.6-.8,1.5-1.1,2.5-.5,1.6-1.1,3.1-1.8,4.6-.5,1.1-.8,1.6-.8,1.6-.5,1.2-1.1,2.4-1.7,3.6,0,.1-.1.1-.2,0v-.4c-.1,0-.2,0-.2,0-.3-.1-.4-.3-.5-.6,0-.2,0-.3,0-.3-.2-.6-.3-1-.2-1.2.2-2.5.6-4.6,1.2-6.4.4-1.4.9-2.6,1.4-3.8.9-1.9,2.1-3.5,3.6-4.9.7-.6,1.1-.9,1.2-1,.1,0,.2-.2.2-.3,0,0,0,0,0,0,0,0,0,0,0,0l.4-.3c0,0,.2,0,.2,0,0,0,.1-.1.1-.1.5-.3,1-.7,1.4-1,.4-.3.8-.6,1.2-.9.6-.4,1-.7,1.2-.8.9-.7,1.7-1.2,2.4-1.6.1,0,0-.7.1-.8,0,0,.2.5.3.5.2,0,1.6-2.1,1.8-2.2.3-.3,3-1.9,3-1.9,1.9-.5,2.7,0,3,0,.5,0,1,0,1.5.4.5.4.8,1,.8,1.7h0Z"/>
  <path class="st13" d="M191.4,77.5c0,.5,0,.9,0,1.2-.1.7-.2,1.3-.3,2-.1.8-.2,1.5-.2,2,0,1.6.1,3.1.5,4.6.2.9.5,1.7.9,2.4.7,1.5,1.7,2.8,2.9,4,.2.2.3.4.5.6,0,0,0,.2,0,.2l-.2-.2c-.5-.5-1-1-1.5-1.5-1.5-1.5-2.4-3.3-2.9-5.3-.4-1.8-.6-3.6-.4-5.4,0-.3.2-1.1.4-2.2.1-.7.3-1.5.4-2.3,0,0,0,0,0,0,0,0,0,0,0,0h0Z"/>
  <path class="st43" d="M201,110c0,0,0,0-.1,0,0,0,0,0,0,0-.1-.1-.3-.2-.4-.3-.2-.2-.3-.3-.3-.4-1.5-1.3-2.7-2.8-3.6-4.4-1.9-3.2-2.2-6.5-1.1-9.9,0,0,0,0,0-.1,0,0,0,0,0,0,0,0,0,.2,0,.3-.6,2.4-.5,4.8.3,7.2.8,2.4,2.1,4.5,3.9,6.4.4.5.9.9,1.3,1.4h0Z"/>
  <path class="st45" d="M183.3,114.6c0,0,1.5-1.2,1.5-1.1.8.8,13.1.9,12,1.1-6.9,1-14.9,2.5-15.7,2.1-.6-.3-1.3-.7-2.1-1.1-.9-.5-1.6-.9-2-1.2-1.5-.8-2.8-1.8-4.1-2.7-1.7-1.3-3.2-2.9-4.5-4.7-.8-1-1.4-2.3-1.9-3.9,0-.1,0-.3,0-.5,0-.3-.1-.7-.1-1.1,0-.3,0-.7,0-1.1.1-1,.2-2,.2-3,0-1,.1-2,.3-3.2.1-.7.3-1.3.5-1.9.2-.5.4-1.1.8-1.8.3-.6.8-1.1.9-1.7.6-2.9,3.3-3.5,5.8-5.9s8.2-5.4,8.3-5.5c0-.2-.7,1.4-1.2,2.6s-12.2,9-13.1,10.9c-.5,1.2-1,2.4-1.4,3.8-.5,1.8-.9,3.9-1.2,6.4,0,.2,0,.6.2,1.2,0,0,0,.1,0,.3,0,.3.2.5.5.6,0,0,0,0,0,0v.4c.2.2.2.2.3,0,.6-1.2,1.1-2.4,1.7-3.6,0,0,.3-.5.8-1.6.7-1.5,1.3-3,1.8-4.6.3-1,.7-1.8,1.1-2.5.2-.3.5-.6.9-1,1.4-1.3,2.9-2.5,4.5-3.5,0,0,0,0,0,0-.9.8-1.7,1.8-2.4,2.8-.4.6-.8,1.3-1.3,2.2-.7,1.3-1.2,2.6-1.7,3.9-.3.8-.6,2-1.1,3.6-.2.7,0,1.4.4,1.9.1.4.3.7.5.9.9,1,2.1,1.9,3.4,2.7,1.4.8,2.5,1.5,3.5,1.9,1.5.7,2.9,1.4,4.4,2.1,2.2,1,4.6,1.7,7,1.9,0,0,0,0,0,0,0,0,0,0-.1,0-1.4.2-2.6.4-3.8.4-3.5.1-6.9-.2-10.3-.8-.7-.1-1.3-.3-1.8-.5-.4-.1-.4,0,0,.2.4.3.8.6,1.3.8,1.2.6,2.4,1.1,3.7,1.5.4.1.9.3,1.3.5.6.2,1.1.6,1.6,1,.2.3.4.4.6.5h0Z"/>
  <path class="st34" d="M148,106.8s0,0,0,0c-.3-.3-.6-.6-1-.8-.5-.3-1-.4-1.5-.4-.6,0-1.2.2-1.8.5-.5.3-.8.7-1.1,1.2-.2.4-.3.8-.4,1.2,0,.3,0,.6,0,.8,0,.4.2.7.4,1,0,0,0,.2.2.2.3.4.7.7,1.1,1,.4.2.8.3,1.3.4.8,0,1.6-.2,2.2-.7.3-.3.6-.6.8-1,0-.2.2-.4.2-.5.1-.4.2-.8.1-1.1,0-.6-.2-1.3-.6-1.8ZM144.5,108.5c0,0,0-.2,0-.2.3-.5.8-.7,1.3-.4h0c.5.2.7.8.4,1.3-.2.5-.9.6-1.3.4-.4-.2-.6-.7-.5-1.1h0Z"/>
  <path class="st34" d="M145.4,105.9s1.1-1.6-.2-2.4l4.1-1.8.6,4.3s-1.5.1-2.1,1.3l-2.4-1.4Z"/>
  <path class="st34" d="M146.8,110.9s1.7.7,1.2,2.1l4.5-.8-1.9-3.9s-1.4.8-2.5,0l-1.3,2.5Z"/>
  <path class="st34" d="M143.9,106.2s-1.8-.7-1.2-2.1l-4.5.9,1.9,3.8s1.3-.8,2.5-.1l1.2-2.5Z"/>
  <path class="st34" d="M145.6,111.1s-1,1.6.2,2.4l-4.1,1.9-.6-4.3s1.5-.1,2.1-1.3l2.5,1.3Z"/>
  <path d="M198.5,84.6c-1.2,1.4-2.4,2.7-3.3,4.3s-.5.9-.7,1.3,0,.4.1.5.5,0,.5-.1c.7-1.6,1.8-3,2.9-4.3s.7-.8,1-1.1.2-.4,0-.6-.4-.2-.6,0h0Z"/>
  <path d="M201.4,88.9c-2.7-1.3-5.3-2.8-7.8-4.4s-.8.4-.4.7c2.5,1.6,5.1,3.1,7.8,4.4s.4,0,.5-.1,0-.5-.1-.5h0Z"/>
  <path d="M202.4,99.3c-1.2,1.4-2.4,2.7-3.3,4.3s-.5.9-.7,1.3,0,.4.1.5.5,0,.5-.1c.7-1.6,1.8-3,2.9-4.3s.7-.8,1-1.1.2-.4,0-.6-.4-.2-.6,0h0Z"/>
  <path d="M204.6,103.6c-2.7-1.3-5.3-2.8-7.8-4.4s-.8.4-.4.7c2.5,1.6,5.1,3.1,7.8,4.4s.4,0,.5-.1,0-.5-.1-.5h0Z"/>
  <polygon class="st27" points="165.9 112.4 165.9 112.4 165.9 112.4 165.9 112.4"/>
</svg>