<?xml version="1.0" encoding="UTF-8"?>
<svg xmlns="http://www.w3.org/2000/svg" version="1.1" viewBox="0 0 477.6 558">
  <!-- Generator: Adobe Illustrator 29.8.3, SVG Export Plug-In . SVG Version: 2.1.1 Build 3)  -->
  <defs>
    <style>
      .st0 {
        fill: #f79c79;
      }

      .st1 {
        fill: #f0b818;
      }

      .st2 {
        fill: #fff;
      }

      .st3 {
        fill: #e0e0e0;
      }

      .st4 {
        fill: #feca35;
      }

      .st5 {
        fill: #4e5eb0;
      }

      .st6 {
        isolation: isolate;
      }

      .st7 {
        fill: #dbdbdb;
      }

      .st8 {
        mix-blend-mode: multiply;
      }

      .st9 {
        fill: #fcee21;
      }

      .st10 {
        fill: #ffb091;
      }

      .st11 {
        fill: #dff1ff;
      }

      .st12 {
        fill: #ff6e6e;
      }

      .st13 {
        fill: #6eb07a;
      }

      .st14 {
        fill: #eb4a39;
      }

      .st15 {
        fill: #ededed;
      }

      .st16 {
        fill: #434657;
      }

      .st17 {
        fill: #7dc88b;
      }

      .st18 {
        fill: #425096;
      }
    </style>
  </defs>
  <g class="st6">
    <g id="Calque_3">
      <path class="st11" d="M375,90.7c.2-.9.8-1.8,1.4-2.6,6.4-9.2,24-11.2,33.6-6.9,8.8,3.9,14.5,13.4,14.2,23s-.4,1.1.3.7c7.4-9.1,23.9-9.3,29.9,1.4,3.3,5.9,3.7,13.3-2,17.9,13.9-2,26.8,9.3,24.9,23.7-2.6,20.5-25.1,21.9-41.4,18.8s-4-1.2-5.7-1.4-.4,0-.7,0-2.1,2-2.5,2.3c-16.9,14-41,17.7-61.3,9.2-.4,0-1.2.7-1.6,1-9,5.4-22.5,7.6-32.3,3.5-8.6-3.6-14.7-9.9-15.7-19.5-11.8,3.8-23.9-3.8-27-15.5-4.2-16.1,7-32.7,22.7-36.6,5.2-18.5,21.5-34.2,41.8-31.4s14.2,4.4,18.9,9.7,1.4,2.1,1.9,2.5.2.2.4.1ZM424.2,105.3h0c0,0,0,0,0,0Z"/>
      <path class="st11" d="M242.1,388.5c.4-1.7,1.5-3.3,2.5-4.7,11.7-16.8,43.8-20.5,61.5-12.7s26.6,24.6,26,42.1c0,.9-.8,2,.5,1.3,13.5-16.6,43.7-16.9,54.7,2.6s6.7,24.4-3.7,32.7c25.5-3.6,49,17,45.6,43.3-4.8,37.6-46,40-75.7,34.4-3.3-.6-7.3-2.1-10.4-2.6s-.8-.1-1.2,0-3.9,3.7-4.7,4.3c-30.8,25.5-75,32.4-112.1,16.7-.7,0-2.1,1.3-2.9,1.8-16.4,9.8-41.1,13.9-59.1,6.4-15.7-6.6-27-18.2-28.7-35.7-21.5,6.9-43.8-6.9-49.4-28.3-7.7-29.5,12.9-59.8,41.6-67,9.5-33.9,39.3-62.5,76.5-57.4,12.9,1.8,26,8,34.6,17.8,1,1.1,2.6,3.8,3.5,4.6s.3.4.7.3ZM332,415.2v.3c.2,0,.2-.2,0-.3Z"/>
      <g>
        <g id="Calque_2">
          <path class="st10" d="M164.9,398.8c2.1-1.9,3.6-5,4.5-7.5,1-2.5,1.5-4.6,1.5-4.6,0,0-.9,3.4-1.5,7.1-.6,3.7-.7,7.7,1.2,9,.5.3,1.1.4,1.8.4.6,0,1.2-.2,1.7-.5,2.8-1.4,3.5-6.2,3.6-10.5,0-4.4-.5-8.4-.3-8.4.2,0,0,3.1.6,6.7.5,3.5,1.7,7.4,4.6,9,.2,0,.7.4,1.3.5.6.2,1.4.2,2.1-.1,1.1-.6,1.5-2.1,1.5-4.4,0-2.4-.3-5.6-.6-9.6-.1-1.8-.3-4.1-.5-6.7-.2-2.6-.3-5.7-.5-9,.7.5,1.6,1.1,2.7,1.6,1.1.6,2.4,1.1,3.8,1.6,1.6.5,3.1,1,4.4,1.2,1.3.2,2.5.1,3.4-.5,1-.7,1.4-2,1.4-3.4,0-1.4-.5-2.9-1.4-4.1-1.1-1.5-2.7-2.2-4.4-2.7-1.7-.5-3.5-.8-5-1.2-2.4-.7-5.3-2.2-8.4-5.3-3.1-3.1-6.4-7.8-9.7-14.9l-6,5.1-6,5.1c-.8-.4-1.7-.8-2.6-1-.9-.2-1.7-.2-2.2.2-1.2,1,0,3.3,1.3,6.5,1.3,3.2,2.8,7.3,2.3,11.9-.6,5.4-3.7,9.6-6.4,13-2.7,3.4-4.9,6.2-3.6,8.6,0,0,.2.4.5.7.3.4.8.8,1.4,1,1.6.7,3.6.2,5.9-1.2,2.3-1.4,4.7-3.7,7.1-6.8-.2.2-2.1,2.5-3.7,5.2-1.6,2.7-2.8,5.8-1.6,7.6,0,.1.3.5.7.9.4.4,1,.8,1.7.9.3,0,.7,0,1.3-.1.5-.2,1.2-.6,2-1.3Z"/>
          <path class="st18" d="M182.6,347.4c-.2-1.4-.2-5.4,1.4-11.4,1.6-6,5-14.1,11.6-23.8,8.5-12.3,17.9-17.3,25.9-21.5,8-4.2,14.6-7.7,17.5-17,1.6-5.1,1.7-10.8.5-16-1.2-5.2-3.7-10-7.4-13.3-7.4-6.6-18.3-6.1-27.6-3.7-9.3,2.4-17,6.5-18,7.1-11.4,6.3-19,15.5-24.1,24.2-5.1,8.7-7.7,17.1-9.2,21.7-5.3,16.8-5.2,32.7-3.2,45.6,2,13,5.9,23.1,8.2,28.4,1.3-1,3-2.2,5.1-3.4,2.1-1.2,4.6-2.4,7.5-3.3,3.2-1,6.1-1.5,8.7-1.8,2.6-.2,4.8-.2,6.5,0-.6-1.3-1.3-3-2-5-.6-2-1.1-4.3-1.4-6.8Z"/>
        </g>
        <path class="st17" d="M187.9,353.8c-.2,9.3-.7,17.6-1.3,24.8-.6,7.2-1.3,13.3-1.9,18.3-.4,1.2-.8,2.8-1.1,4.6-.3,1.8-.6,3.8-.7,6,0,1.8-.2,4.6.3,8,.5,3.4,1.5,7.3,3.5,11.3.7,1.3,1.7,3,3.1,4.9,1.4,1.9,3.2,3.9,5.6,5.9,0,0,.3.2.7.4.4.2.8.5,1.4.7,5,2.5,11.1,2.9,16.4,2.6,5.3-.3,9.9-1.3,11.8-1.8,1.6-.4,3.6-.9,5.8-1.6,2.2-.7,4.6-1.6,7.3-2.7,1.2-2.3,2.6-5.3,3.9-9.1,1.3-3.7,2.5-8.1,3.1-13.1,1.4-10.5.3-22.2-2.5-31.4-2.7-9.2-7.1-16-12.3-16.7-.8-.1-1.9-.1-3.2.3-1.3.4-2.8,1.2-4.6,2.6l-35.2-13.8Z"/>
        <path class="st13" d="M227.2,426.8c.6.2,1.4-.8,2.2-2.2.8-1.4,1.6-3.3,2.1-4.8.7-2.3,1.1-4.7,1.1-6.7,0-1.9-.3-3.4-.9-3.5-.5-.1-1.2.7-1.9,1.7-.7,1.1-1.3,2.3-1.7,3.2-1.2,2.7-1.8,5.7-1.9,8.1-.1,2.4.2,4.1.9,4.3Z"/>
        <path class="st13" d="M212.2,424.5c.6,0,1.3-1.1,1.8-2.6.6-1.5,1.1-3.5,1.3-5.1.3-2.4.3-4.9,0-6.8-.3-1.9-.8-3.3-1.4-3.3-.5,0-1.1.9-1.6,2-.5,1.2-.9,2.5-1.1,3.4-.7,2.9-.8,6-.5,8.3.3,2.4.9,4,1.6,4.1Z"/>
        <path class="st13" d="M197.4,422.9c.6,0,1-1.3,1.3-2.9.3-1.6.4-3.6.3-5.3-.1-2.4-.6-4.8-1.3-6.7-.7-1.8-1.4-3.1-2.1-3-.5,0-.9,1.1-1.2,2.3-.3,1.2-.4,2.7-.4,3.6-.2,3,.4,6,1.1,8.3.7,2.3,1.7,3.8,2.4,3.7Z"/>
        <path class="st10" d="M326.8,396.2c-2.1-1.9-3.6-5-4.5-7.5-1-2.5-1.5-4.6-1.5-4.6,0,0,.9,3.4,1.5,7.1.6,3.7.7,7.7-1.2,9-.5.3-1.1.4-1.8.4-.6,0-1.2-.2-1.7-.5-2.8-1.4-3.5-6.2-3.6-10.5,0-4.4.5-8.4.3-8.4-.2,0,0,3.1-.6,6.7-.5,3.5-1.7,7.4-4.6,9-.2,0-.7.4-1.3.5-.6.2-1.4.2-2.1-.1-1.1-.6-1.5-2.1-1.5-4.4,0-2.4.3-5.6.6-9.6.1-1.8.3-4.1.5-6.7.2-2.6.3-5.7.5-9-.7.5-1.6,1.1-2.7,1.6-1.1.6-2.4,1.1-3.8,1.6-1.6.5-3.1,1-4.4,1.2-1.3.2-2.5.1-3.4-.5-1-.7-1.4-2-1.4-3.4,0-1.4.5-2.9,1.4-4.1,1.1-1.5,2.7-2.2,4.4-2.7,1.7-.5,3.5-.8,5-1.2,2.4-.7,5.3-2.2,8.4-5.3,3.1-3.1,6.4-7.8,9.7-14.9l6,5.1,6,5.1c.8-.4,1.7-.8,2.6-1,.9-.2,1.7-.2,2.2.2,1.2,1,0,3.3-1.3,6.5-1.3,3.2-2.8,7.3-2.3,11.9.6,5.4,3.7,9.6,6.4,13,2.7,3.4,4.9,6.2,3.6,8.6,0,0-.2.4-.5.7-.3.4-.8.8-1.4,1-1.6.7-3.6.2-5.9-1.2-2.3-1.4-4.7-3.7-7.1-6.8.2.2,2.1,2.5,3.7,5.2,1.6,2.7,2.8,5.8,1.6,7.6,0,.1-.3.5-.7.9-.4.4-1,.8-1.7.9-.3,0-.7,0-1.3-.1-.5-.2-1.2-.6-2-1.3Z"/>
        <path class="st18" d="M309.2,344.9c.2-1.4.2-5.4-1.4-11.4-1.6-6-5-14.1-11.6-23.8-8.5-12.3-17.9-17.3-25.9-21.5-8-4.2-14.6-7.7-17.5-17-1.6-5.1-1.7-10.8-.5-16,1.2-5.2,3.7-10,7.4-13.3,7.4-6.6,18.3-6.1,27.6-3.7,9.3,2.4,17,6.5,18,7.1,11.4,6.3,19,15.5,24.1,24.2,5.1,8.7,7.7,17.1,9.2,21.7,5.3,16.8,5.2,32.7,3.2,45.6-2,13-5.9,23.1-8.2,28.4-1.3-1-3-2.2-5.1-3.4-2.1-1.2-4.6-2.4-7.5-3.3-3.2-1-6.1-1.5-8.7-1.8-2.6-.2-4.8-.2-6.5,0,.6-1.3,1.3-3,2-5,.6-2,1.1-4.3,1.4-6.8Z"/>
        <path class="st17" d="M308.7,353.8c.2,9.3.7,17.6,1.3,24.8.6,7.2,1.3,13.3,1.9,18.3.4,1.2.8,2.8,1.1,4.6.3,1.8.6,3.8.7,6,0,1.8.1,4.6-.3,8-.5,3.4-1.5,7.3-3.5,11.3-.7,1.3-1.7,3-3.1,4.9-1.4,1.9-3.2,3.9-5.6,5.9,0,0-.3.2-.7.4-.4.2-.8.5-1.4.7-5,2.5-11.1,2.9-16.4,2.6-5.3-.3-9.9-1.3-11.8-1.8-1.6-.4-3.6-.9-5.8-1.6-2.2-.7-4.6-1.6-7.3-2.7-1.2-2.3-2.6-5.3-3.9-9.1-1.3-3.7-2.5-8.1-3.1-13.1-1.4-10.5-.3-22.2,2.5-31.4,2.7-9.2,7.1-16,12.3-16.7.8-.1,1.9-.1,3.2.3s2.8,1.2,4.6,2.6l35.2-13.8Z"/>
        <path class="st5" d="M320.5,397.3c-3.1,1.3-7,2.8-11.7,4.1-4.7,1.3-10.1,2.4-16.1,3-5.9.6-10.4.4-14.4-.2-4-.5-7.3-1.4-11-2.3-2.7-.6-5.5-1.3-8.7-1.8-3.3-.5-7-.8-11.5-.9-1.8,0-3.5,0-5.1,0-1.6,0-3.1.2-4.6.3-8.1.8-13.8,2.6-19.8,3.8-6,1.2-12.2,1.8-21.1.3-4.8-.8-9-2-12.7-3.2-3.6-1.3-6.6-2.6-8.9-3.7.7-6.1,1.3-11.7,1.8-16.5.5-4.8.9-8.8,1.2-11.8,0-.2,0-.4,0-.6,0-.2,0-.4,0-.6.4-4,.8-8,1.2-12,.4-4,.8-8,1.2-12,.8-7.5,1.6-14.9,2.4-22.4.8-7.5,1.6-14.9,2.4-22.4.4-3.8.8-7.5,1.4-11.3.6-3.7,1.5-7.4,2.9-10.8,1.8-4.4,4.3-8.4,7.3-12,3-3.6,6.5-6.8,10.2-9.6,4.4-3.3,8.7-6.1,12.7-8.4,4-2.3,7.8-4,11.3-5.2h33.1c4.1,2,8.3,4,12.3,6.2,4,2.2,8,4.6,11.7,7.4,3.7,2.8,7.2,6,10.2,9.6,3,3.6,5.5,7.6,7.3,12,1.4,3.5,2.3,7.1,2.9,10.8.6,3.7,1,7.5,1.4,11.3.7,6.6,1.4,13.3,2.1,19.9.7,6.6,1.4,13.3,2.1,19.9.4,4,.8,8.1,1.3,12.1.4,4,.8,8.1,1.2,12.1.1,1,.2,2,.3,3,.1,1,.2,2,.3,3,.3,3.3.8,7.4,1.3,12.2.5,4.8,1.2,10.3,2,16.4Z"/>
        <path class="st18" d="M267.4,402c-2.7-.6-5.5-1.3-8.7-1.8-3.3-.5-7-.8-11.5-.9-1.8,0-3.5,0-5.1,0-1.6,0-3.1.2-4.6.3.7-.6,1.3-1.3,2-2,.7-.7,1.3-1.5,2-2.3,0,0,.5-.6,1.2-1.6.7-1,1.7-2.3,2.5-3.7,2.2-3.6,3.3-11.1,4.1-17.7.8-6.6,1.1-12.3,1.8-12.3.5,0,1.4,2.9,2.5,7.3,1.1,4.4,2.3,10.3,3.3,16.2.3,1.8.7,3.9,1.5,6.2.8,2.3,1.9,4.7,3.6,7.2.7,1,1.5,1.9,2.4,2.8.9.8,1.9,1.6,2.9,2.2Z"/>
        <path class="st14" d="M250,305.3c2.6,0,3.9-2,3.9-4,0-2-1.3-4-3.9-4s-3.9,2-3.9,4c0,2,1.3,4,3.9,4h0Z"/>
        <path class="st14" d="M250,317.2c2.6,0,3.9-2,3.9-4,0-2-1.3-4-3.9-4s-3.9,2-3.9,4c0,2,1.3,4,3.9,4h0Z"/>
        <path class="st18" d="M250,341.6c2.6,0,3.9-2,3.9-4,0-2-1.3-4-3.9-4s-3.9,2-3.9,4c0,2,1.3,4,3.9,4h0Z"/>
        <path class="st13" d="M269.5,426.8c-.6.2-1.4-.8-2.2-2.2-.8-1.4-1.6-3.3-2.1-4.8-.7-2.3-1.1-4.7-1.1-6.7,0-1.9.3-3.4.9-3.5.5-.1,1.2.7,1.9,1.7.7,1.1,1.3,2.3,1.7,3.2,1.2,2.7,1.8,5.7,1.9,8.1.1,2.4-.2,4.1-.9,4.3Z"/>
        <path class="st13" d="M284.5,424.5c-.6,0-1.3-1.1-1.8-2.6-.6-1.5-1.1-3.5-1.3-5.1-.3-2.4-.3-4.9,0-6.8.3-1.9.8-3.3,1.4-3.3.5,0,1.1.9,1.6,2,.5,1.2.9,2.5,1.1,3.4.7,2.9.8,6,.5,8.3-.3,2.4-.9,4-1.6,4.1Z"/>
        <path class="st13" d="M299.3,422.9c-.6,0-1-1.3-1.3-2.9-.3-1.6-.4-3.6-.3-5.3.1-2.4.7-4.8,1.3-6.7.7-1.8,1.4-3.1,2.1-3,.5,0,.9,1.1,1.2,2.3.3,1.2.4,2.7.4,3.6.2,3-.4,6-1.1,8.3-.7,2.3-1.7,3.8-2.4,3.7Z"/>
        <path class="st17" d="M316.5,363.3c-22.6,5.4-45.7,8.4-68.9,9.2-23.2.8-46.4-.7-69.3-4.4-.5,0-1-.4-1.3-.8-.3-.4-.5-.9-.4-1.5.3-3.4.7-6.8,1-10.3.3-3.4.7-6.8,1.1-10.2,0-.6.4-1.1.8-1.4s1-.5,1.6-.4c3.7.6,7.4,1.2,11.1,1.7,3.7.5,7.4.9,11.1,1.3,18.4,1.7,37,2,55.4.7,18.4-1.3,36.8-4.2,54.7-8.6.6-.1,1.2,0,1.7.3.5.3.8.9.9,1.5.4,3.4.7,6.9,1.1,10.3.4,3.4.7,6.9,1.1,10.3,0,.5,0,1-.4,1.4-.3.4-.7.7-1.2.8Z"/>
        <path class="st4" d="M271.3,359.8c0,1.3-.2,2.5-.5,3.7s-.9,2.3-1.6,3.3c-.7,1-1.5,1.9-2.3,2.8-.9.8-1.8,1.6-2.8,2.2-2,1.3-4.1,2.3-6.4,3-2.2.7-4.6,1.2-6.9,1.4-2.4.2-4.8.1-7.1-.3-2.4-.4-4.7-1.1-7-2.2-1.1-.6-2.2-1.2-3.3-2-1-.8-2-1.7-2.9-2.8-.9-1-1.6-2.3-2.1-3.6-.5-1.3-.9-2.8-.9-4.2,0-1.5.2-2.9.7-4.3.5-1.4,1.1-2.6,1.9-3.7.8-1.1,1.7-2.1,2.7-2.9,1-.8,2-1.6,3.1-2.2,2.2-1.2,4.5-2.1,6.9-2.6,2.4-.5,4.7-.8,7.1-.7,2.4,0,4.7.4,7,.9,2.3.6,4.5,1.4,6.6,2.6,1,.6,2,1.3,3,2,.9.8,1.8,1.6,2.5,2.6.7,1,1.4,2.1,1.8,3.2.5,1.2.7,2.4.8,3.7ZM268.3,359.9c0-.9-.3-1.8-.6-2.7-.4-.9-.8-1.7-1.5-2.4-.6-.7-1.3-1.4-2.1-2-.8-.6-1.7-1.1-2.5-1.5-1.8-.9-3.8-1.4-5.8-1.7-2-.3-4-.4-6-.2-2,.2-4,.6-5.8,1.2-1.9.6-3.6,1.4-5.2,2.5-.8.5-1.5,1.1-2.1,1.7-.6.6-1.2,1.3-1.6,2-.4.7-.8,1.4-1,2.1-.2.7-.3,1.4-.3,2.2,0,.7.2,1.4.5,2.1.3.7.7,1.4,1.2,2,.5.7,1.1,1.3,1.8,1.9.7.6,1.4,1.1,2.2,1.6,1.6.9,3.4,1.7,5.3,2.1,1.9.5,3.9.8,5.9.8,2,0,4-.1,6-.6,2-.4,3.9-1.1,5.6-2.1.9-.5,1.7-1.1,2.4-1.7.7-.6,1.4-1.3,2-2.1.6-.8,1-1.6,1.3-2.5.3-.9.4-1.8.4-2.7Z"/>
        <path class="st1" d="M257.8,363.6c2-.1,3.9-.2,5.9-.3,2-.1,3.9-.2,5.9-.3,1.9-.1,2.9-1.7,2.8-3.2,0-1.5-1.1-3-3-2.9-2,.1-3.9.2-5.9.3-2,.1-3.9.2-5.9.3-1.9.1-2.9,1.7-2.8,3.2,0,1.5,1.1,3,3,2.9h0Z"/>
        <path class="st13" d="M242.3,364.6c2.6,0,3.9-2,3.9-4,0-2-1.3-4-3.9-4s-3.9,2-3.9,4c0,2,1.3,4,3.9,4h0Z"/>
        <path class="st13" d="M217.4,364.6c2.6,0,3.9-2,3.9-4,0-2-1.3-4-3.9-4s-3.9,2-3.9,4c0,2,1.3,4,3.9,4h0Z"/>
        <path class="st13" d="M192.5,361.8c2.6,0,3.9-2,3.9-4s-1.3-4-3.9-4-3.9,2-3.9,4c0,2,1.3,4,3.9,4h0Z"/>
        <g>
          <g>
            <path class="st10" d="M187.6,164.5c-1.4-3.1-3.6-5.7-6.2-7.6-2.6-1.9-5.7-3.1-8.9-3.3-5-.3-9.6,1.6-12.9,4.4-3.4,2.8-5.5,6.6-5.7,9.9-.2,3.2,1.6,5.2,3.7,7.6,2.1,2.5,4.6,5.4,5.9,10.7.9,3.7.7,6.4.7,8.5,0,2.1,0,3.6,1.4,4.8,1.1.9,2.9,1.6,6.1,1.2,3.2-.4,7.7-1.8,14.1-5l2-31.1Z"/>
            <path class="st0" d="M184.6,173.8c-1.4-2.1-3.3-3.6-5.3-4.4-2-.8-4-1-5.8-.3-2.1.7-3.3,2.4-4,4.1-.7,1.7-1,3.5-1.1,4.4,0,.6-.4,2.9,0,5.3.4,2.4,1.4,5,4,6.1,1.8.8,4.1.8,6.3,0,2.2-.8,4.3-2.4,5.8-4.7v-10.4Z"/>
            <path class="st0" d="M181.5,165.3c-.6-.7-1.4-1.3-2.2-1.8s-1.7-1-2.6-1.3c-.5-.2-.9-.3-1.4-.4-.5-.1-1-.2-1.5-.3-.5,0-1-.1-1.5-.1-.5,0-1,0-1.5,0-1,0-2,.3-3,.6-1,.3-1.9.8-2.7,1.4-.8.6-1.6,1.3-2.2,2.1-.6.8-1.1,1.7-1.5,2.7.2-1,.6-2,1.2-2.9s1.2-1.8,2-2.5c.8-.7,1.8-1.3,2.8-1.8,1-.5,2.1-.8,3.2-1,.6-.1,1.1-.2,1.7-.2.6,0,1.1,0,1.7,0,.6,0,1.2,0,1.7.1.6,0,1.2.2,1.7.3,1.1.3,2.2.7,3.3,1.2s2,1.2,2.9,1.9l-1.1,1-1.1,1Z"/>
          </g>
          <g>
            <path class="st10" d="M305.3,164.5c1.4-3.1,3.6-5.7,6.2-7.6,2.6-1.9,5.7-3.1,8.9-3.3,5-.3,9.6,1.6,12.9,4.4,3.4,2.8,5.5,6.6,5.7,9.9.2,3.2-1.6,5.2-3.7,7.6-2.1,2.5-4.6,5.4-5.9,10.7-.9,3.7-.7,6.4-.7,8.5,0,2.1,0,3.6-1.4,4.8-1.1.9-2.9,1.6-6.1,1.2-3.2-.4-7.7-1.8-14.1-5l-2-31.1Z"/>
            <path class="st0" d="M308.3,173.8c1.4-2.1,3.3-3.6,5.3-4.4,2-.8,4-1,5.8-.3,2.1.7,3.3,2.4,4,4.1.7,1.7,1,3.5,1.1,4.4,0,.6.4,2.9,0,5.3-.4,2.4-1.4,5-4.1,6.1-1.8.8-4.1.8-6.3,0-2.2-.8-4.3-2.4-5.8-4.7v-10.4Z"/>
            <path class="st0" d="M311.4,165.3c.6-.7,1.4-1.3,2.2-1.8.8-.5,1.7-1,2.6-1.3.5-.2.9-.3,1.4-.4.5-.1,1-.2,1.5-.3.5,0,1-.1,1.5-.1.5,0,1,0,1.5,0,1,0,2,.3,3,.6,1,.3,1.9.8,2.7,1.4.8.6,1.6,1.3,2.2,2.1.6.8,1.1,1.7,1.5,2.7-.2-1-.6-2-1.2-2.9-.5-.9-1.2-1.8-2-2.5-.8-.7-1.8-1.3-2.8-1.8-1-.5-2.1-.8-3.2-1-.6-.1-1.1-.2-1.7-.2-.6,0-1.1,0-1.7,0-.6,0-1.2,0-1.7.1-.6,0-1.2.2-1.7.3-1.1.3-2.2.7-3.3,1.2-1,.5-2,1.2-2.9,1.9l1.1,1,1.1,1Z"/>
          </g>
          <path class="st10" d="M312.8,189.3c-1.5,16.1-9.1,32.1-20.9,43.8-11.8,11.8-27.7,19.4-45.6,18.9-17.3-.5-32.3-8.4-43.3-20.1-11-11.7-18-27.1-19.4-42.6-1.7-18.3,4.6-37.1,16-51.4,11.4-14.3,27.9-24.1,46.7-24.6,19.4-.5,36.9,9,49.1,23.3,12.2,14.4,19.1,33.6,17.4,52.7Z"/>
          <path class="st15" d="M318.9,256.9c-5.7,21-18.4,36-31.7,46.5-13.3,10.5-27.1,16.4-35.1,19.3-.8.3-1.5.5-2.2.7-.7.2-1.3.4-1.8.6-.3.1-.6.2-.9.3-.3,0-.5.1-.7.2,0,0,0,0,0,0,0,0,0,0,0,0,0,0-.1,0-.2,0s-.1,0-.2,0c-.2,0-.3,0-.4.1-.1,0-.2,0-.2,0h-.1s-.1,0-.1,0c0,0-.2,0-.3-.1s-.2,0-.3-.1c-.3-.1-.6-.3-1-.4-.4-.2-.8-.3-1.2-.5-.8-.4-1.8-.8-2.8-1.3-1.1-.5-2.2-1.1-3.4-1.7-7.8-4.1-18.9-11-29.6-21.4-10.7-10.5-20.9-24.5-26.9-42.8-4.1-12.8-5.3-24.7-5.1-34.9.2-10.2,1.8-18.5,3.2-24-1-7-1.9-17.3-.5-28.1,1.4-10.8,5.1-22.2,13.3-31.3,3.1-3.4,6.8-6.5,10-8.6,3.1-2.1,5.7-3.1,6.4-2.5.9.8-1.3,3.5-4.2,8.3-3,4.8-6.8,11.7-9.2,20.8-1.2,4.6-2,9.3-2.4,13.3-.4,4-.6,7.5-.6,9.8h0c0,.4,0,.6,0,.9,0,.2,0,.5,0,.7,0,0,0,0,0,.1s0,0,0,.1c0,.4,0,.9,0,1.3s0,.8,0,1.2c0,1.6.1,3,.2,4.1,0,1.1.2,1.9.2,2.3,0,.6.1,1.2.2,1.7s.2,1.2.3,1.8c0,0,0,.2,0,.3,0,.1,0,.2,0,.3.1.6.3,1.3.4,1.9.1.6.3,1.3.5,1.9.7,2.4,1.7,6,3.3,9.8,1.6,3.8,3.8,7.7,6.9,10.9,0,0,0,0,0,0,0,0,0,0,0,0,.3.3.6.6.9.9.3.3.6.6.9.8h0c.2.2.4.3.5.5.2.1.4.3.6.4,0,0,0,0,0,0,0,0,0,0,0,0,.1,0,.2.2.4.3.1,0,.2.2.4.3.9.6,1.9,1.2,2.9,1.6,1,.5,2.1.8,3.2,1.1,1.3.3,2.7.5,4.1.6,1.5,0,3,0,4.6-.2.4,0,.7-.1,1.1-.2.4,0,.7-.1,1.1-.2.5-.1,1.1-.3,1.6-.4.5-.2,1-.4,1.5-.6,0,0,0,0,0,0,0,0,0,0,0,0,.6-.2,1.1-.5,1.6-.8.5-.3,1-.6,1.4-1,0,0,0,0,0,0,0,0,0,0,0,0,.4-.3.7-.6,1-.9.3-.3.6-.7.9-1,1.2-1.6,1.7-3.3,2.4-5,.7-1.6,1.5-3.2,3.3-4.5,1.3-.9,2.6-1.4,3.9-1.7,1.3-.3,2.6-.3,3.6-.2h0c1.1,0,2.3,0,3.6.2,1.3.3,2.7.8,3.9,1.7,1.8,1.3,2.6,2.9,3.3,4.5.7,1.6,1.2,3.4,2.4,5,.4.5.8,1,1.3,1.4.5.4,1,.8,1.5,1.2,0,0,0,0,0,0,0,0,0,0,0,0,.5.3.9.6,1.4.8.5.2,1,.5,1.6.7,0,0,0,0,0,0,0,0,0,0,0,0,.2,0,.5.2.7.2.2,0,.5.1.7.2.4,0,.7.2,1.1.3.4,0,.7.2,1.1.2,1.7.3,3.4.4,5,.3,1.6,0,3.2-.3,4.5-.6,1-.2,1.9-.5,2.8-.9.9-.4,1.7-.8,2.5-1.3.3-.2.7-.4,1-.6.3-.2.6-.4.9-.7,0,0,.2-.2.3-.2,0,0,.2-.2.3-.2,0,0,0,0,0,0,0,0,0,0,0,0,.5-.4,1-.9,1.5-1.4.5-.5.9-1,1.4-1.5,0,0,0,0,0,0,0,0,0,0,0,0,2.7-3.2,4.7-6.9,6.2-10.5s2.5-6.9,3.1-9.2c.2-.7.4-1.4.5-2.1.2-.7.3-1.4.4-2.1,0,0,0-.3.2-.9,0-.6.2-1.4.3-2.3,0-.2,0-.3,0-.5,0-.2,0-.3,0-.5,0-.5.1-1.1.2-1.6,0-.6,0-1.1.1-1.7,0-.9,0-1.7.1-2.6,0-.8,0-1.7,0-2.5,0-.5,0-1,0-1.5,0-.5,0-1,0-1.5h0c0-.8,0-1.4,0-2.1,0-.6,0-1.3,0-1.9-.5-10.7-2.4-19-4.2-24.8-1.8-5.7-3.5-8.8-3.5-8.8-2.2-4-4.5-7.1-6.2-9.2-1.7-2.2-2.7-3.5-2.2-3.9.6-.6,3.3.7,6.5,2.8,3.2,2.1,7,5.1,9.6,7.6,3,2.9,7.7,8.3,11.2,17.6,3.6,9.4,6,22.8,4.5,41.7,1.9,4.6,4.8,12.7,6.3,23,1.5,10.4,1.7,23-2,36.5Z"/>
          <path class="st12" d="M226.8,199.5c0,2.9-1.6,5.5-4.2,7.4-2.6,1.9-6.2,3.1-10.1,3.1s-7.6-1.2-10.1-3.1c-2.6-1.9-4.2-4.5-4.2-7.4s1.6-5.5,4.2-7.4c2.6-1.9,6.2-3.1,10.1-3.1s7.5,1.2,10.1,3.1c2.6,1.9,4.2,4.5,4.2,7.4Z"/>
          <path class="st12" d="M293,199.5c0,2.9-1.6,5.5-4.2,7.4-2.6,1.9-6.2,3.1-10.1,3.1s-7.6-1.2-10.1-3.1c-2.6-1.9-4.2-4.5-4.2-7.4s1.6-5.5,4.2-7.4c2.6-1.9,6.2-3.1,10.1-3.1s7.5,1.2,10.1,3.1c2.6,1.9,4.2,4.5,4.2,7.4Z"/>
          <path class="st5" d="M313.2,156.5c1.5-1.9,1.5-4.8.5-9.1-1.1-4.3-3.3-10-6.2-17.6-2.2-5.6-3.8-9.8-5.7-13.9-1.9-4.1-4.1-8.2-7.5-13.6-12.2-19.5-20-45-26.9-65.6C260.6,16.1,254.7.2,246.4,0c-6-.2-9.3,7.8-15.2,24.8-6,17-14.6,43.2-31.2,79.4-6.8,14.9-13,26.8-16.7,35.8-3.7,9-4.9,15.1-1.7,18.4,3.9,4,11,.4,21.8-4.1,10.8-4.6,25.3-10.1,43.9-10.1,17.8,0,32.7,5.2,43.9,9.3,11.2,4.1,18.8,7.2,22.1,3Z"/>
          <path class="st3" d="M300.8,232.7c-1.6,13.1-4.3,26.1-8.9,38.3-4.6,12.2-11,23.5-20.1,33.1-.5.6-2.3,2.1-5,4.6-2.7,2.4-6.2,5.7-10.3,9.6-.8.8-1.6,1.5-2.3,2.3-.7.7-1.4,1.4-2.1,2.1-.8.3-1.5.5-2.2.8-.7.2-1.3.4-1.8.6-.3,0-.6.2-.9.3-.3,0-.5.2-.7.2,0,0,0,0,0,0,0,0,0,0,0,0,0,0-.1,0-.2,0s-.1,0-.2,0c-.2,0-.3,0-.4.1-.1,0-.2,0-.2,0h-.1s-.1,0-.1,0c0,0-.2,0-.3-.1s-.2,0-.3-.1c-.3-.1-.6-.3-1-.4-.4-.2-.8-.3-1.2-.5-.8-.4-1.8-.8-2.8-1.3-1.1-.5-2.2-1.1-3.4-1.8-.4-.3-.7-.7-1.1-1-.4-.4-.8-.7-1.2-1.1-3.9-3.6-7.5-6.9-10.3-9.5-2.7-2.5-4.6-4.3-5-4.7-9.1-9.6-15.5-20.9-20.1-33.1-4.6-12.2-7.3-25.2-8.9-38.3-.9-7-1.3-14.1-1.4-21.2-.1-7.1.2-14.2.8-21.3.2-2.3.4-4.5.7-6.8.3-2.3.6-4.5,1-6.8,0,.3,0,.5,0,.8,0,.3,0,.5,0,.7,0,.4,0,.9,0,1.3s0,.8,0,1.2c0,0,0,0,0,.1s0,0,0,.1c0,.4,0,.9,0,1.3s0,.8,0,1.2c0,1.6.1,3,.2,4.1,0,1.1.2,1.9.2,2.3,0,.6.1,1.2.2,1.7s.2,1.2.3,1.8c0,.5,0,.9-.1,1.4,0,.5,0,.9,0,1.4-.8,13.3-.4,27.1,1.4,40.7,1.9,13.5,5.3,26.8,10.5,39.1,2.5,5.8,5.5,11.2,9,16.3,3.5,5.1,7.5,9.8,11.8,14.3,2.1,2.1,4.2,4.1,6.4,6.1,2.2,2,4.4,3.9,6.6,5.8.4.4.8.7,1.3,1.1.4.3.9.7,1.3,1-1.8-2.3-3.4-4.6-5.1-7-1.6-2.4-3.2-4.8-4.7-7.2-6.1-9.7-11.2-20-15.3-30.7-4.1-10.7-7.2-21.9-9.1-33.3-.7-3.9-1.2-7.8-1.7-11.8-.4-4-.8-7.9-1-11.9.3.3.6.6.9.9.3.3.6.6.9.8h0c.2.2.4.3.5.5.2.1.4.3.6.4,0,0,0,0,0,0,0,0,0,0,0,0,.5,10.1,1.9,20.1,4.2,29.9,2.3,9.8,5.3,19.4,9.2,28.7,2.1,5,4.3,9.8,6.8,14.5,2.5,4.7,5.2,9.3,8.1,13.8,1.4,2.2,2.9,4.4,4.4,6.4,1.5,2.1,3.1,4.2,4.7,6.2-.8-1.8-1.5-3.7-2.2-5.6-.7-1.9-1.4-3.7-2-5.6-3.6-10.2-6.3-20.8-8.4-31.4-2-10.7-3.4-21.5-4-32.4-.2-3.7-.3-7.5-.3-11.2,0-3.7,0-7.5.2-11.2,0,0,0,0,0,0,0,0,0,0,0,0,.6-.2,1.1-.5,1.6-.8.5-.3,1-.6,1.4-1-.6,10.1-.5,20.2.3,30.2.8,10,2.2,20,4.2,29.9,1.1,5.2,2.3,10.3,3.7,15.4,1.4,5.1,3,10.1,4.8,15.1.4,1.2.9,2.4,1.3,3.6.4,1.2.9,2.4,1.4,3.6.5-1.2.9-2.4,1.4-3.6.4-1.2.9-2.4,1.3-3.6,1.8-5,3.3-10,4.8-15.1,1.4-5.1,2.7-10.2,3.7-15.4,2-9.8,3.5-19.7,4.2-29.6.8-9.9.9-19.9.3-29.9.5.3.9.6,1.4.8.5.2,1,.5,1.6.7,0,0,0,0,0,0,0,0,0,0,0,0,.2,3.7.2,7.4.2,11.1,0,3.7-.1,7.4-.3,11.1-.6,10.9-1.9,21.7-4,32.4-2,10.7-4.8,21.2-8.4,31.4-.7,1.9-1.3,3.8-2,5.6-.7,1.9-1.4,3.7-2.2,5.6,1.6-2,3.2-4.1,4.7-6.2,1.5-2.1,3-4.2,4.4-6.4,2.9-4.5,5.6-9.1,8.1-13.8,2.5-4.7,4.8-9.6,6.9-14.5,3.9-9.4,7-19.1,9.3-29.1,2.3-9.9,3.7-20.1,4.2-30.3,0,0,0,0,0,0,0,0,0,0,0,0,.5-.4,1-.9,1.5-1.4.5-.5.9-1,1.4-1.5-.2,4.2-.5,8.3-.9,12.4-.5,4.1-1,8.2-1.7,12.3-1.9,11.4-5,22.5-9.1,33.3-4.1,10.7-9.3,21.1-15.3,30.7-1.5,2.4-3.1,4.8-4.7,7.2-1.6,2.4-3.3,4.7-5.1,7,.4-.3.9-.7,1.3-1,.4-.3.9-.7,1.3-1.1,2.2-1.9,4.5-3.8,6.6-5.8,2.2-2,4.3-4,6.3-6.1,4.4-4.4,8.3-9.2,11.8-14.3,3.5-5.1,6.5-10.5,9-16.3,5.2-12.3,8.6-25.6,10.5-39.1,1.9-13.5,2.3-27.3,1.4-40.7,0-1.1-.1-2.2-.2-3.3,0-1.1-.2-2.2-.3-3.3,0-.5.1-1.1.2-1.6,0-.6,0-1.1.1-1.7,0-.9,0-1.7.1-2.6,0-.8,0-1.7,0-2.5,0-.5,0-1,0-1.5,0-.5,0-1,0-1.5h0c0-1.2,0-2.3,0-3.4,0-1.1,0-2.1,0-3.2.6,3.1,1.1,6.2,1.5,9.4.4,3.1.8,6.3,1.1,9.4.6,7.1.9,14.2.8,21.3-.1,7.1-.6,14.2-1.4,21.2Z"/>
          <path class="st16" d="M242.2,245.7c1.4,1.1,2.9,1.8,4.5,2.1,1.6.3,3.3.1,4.9-.6,1.3-.5,2.8-1.5,3.8-2.7,1-1.2,1.6-2.7,1-4.3-.1-.3-.4-.7-.7-.9-.3-.2-.7-.3-1.1-.1-.9.4-1.5,1-2.1,1.6-.6.6-1.2,1.3-2,1.8-1,.7-2.1.9-3.3,1-1.2,0-2.3-.2-3.4-.6-.7-.3-1.4.2-1.8.8-.4.6-.4,1.4.2,1.9h0Z"/>
          <path class="st15" d="M211.3,161.4c.9-.3,1.6-.8,2.3-1.3.7-.5,1.4-1.1,2.2-1.5,1.1-.6,2.2-1,3.3-1.2s2.3-.4,3.5-.5c1.1,0,2.2,0,3.3.2,1.1.2,2.1.5,3.1,1,1.1.5,2.1,1,3.1,1.3,1,.3,2,.4,3.3.1.7-.2,1.3-.7,1.7-1.3.4-.6.5-1.4.3-2.1-.8-2.9-3.5-4.2-6.6-4.7-3.1-.5-6.5-.2-8.8.3-2,.4-4.7,1.5-7,3-2.3,1.5-4.3,3.5-4.9,5.6,0,.4,0,.7.3,1,.2.3.6.4,1,.3h0Z"/>
          <path class="st15" d="M284.2,161.4c-.9-.3-1.6-.8-2.3-1.3-.7-.5-1.4-1.1-2.2-1.5-1.1-.6-2.2-1-3.3-1.2-1.1-.3-2.3-.4-3.5-.5-1.1,0-2.2,0-3.3.2-1.1.2-2.1.5-3.1,1-1.1.5-2.1,1-3.1,1.3-1,.3-2,.4-3.3.1-.7-.2-1.3-.7-1.7-1.3-.4-.6-.5-1.4-.3-2.1.8-2.9,3.5-4.2,6.6-4.7,3.1-.5,6.5-.2,8.8.3,2,.4,4.7,1.5,7,3,2.3,1.5,4.3,3.5,4.9,5.6,0,.4,0,.7-.3,1-.2.3-.6.4-1,.3h0Z"/>
          <g>
            <path class="st18" d="M208.8,133.5c-.3,0-.5,0-.7,0-.2,0-.5,0-.7,0,0,0,0,0,0,0,0,0,0,0,0,0,0-.1-.2-.3-.2-.4,0-.1-.2-.3-.2-.4.1,0,.3-.2.4-.3.1,0,.3-.2.4-.3s0-.1,0-.2c0,0,0-.1-.2,0-.2,0-.3.1-.5.2-.2,0-.3.1-.5.2,0,0,0,0,0,0,0,0,0,0,0,0,0-.2.1-.3.2-.5,0-.2.1-.3.2-.5,0-.2,0-.4-.2-.4-.2,0-.4,0-.5.2,0,0,0,.1,0,.2,0,0,0,.1,0,.2,0,0,0-.1-.1-.2,0,0,0-.1-.1-.2,0-.1-.3-.2-.4-.2-.2,0-.3.1-.3.3,0,.1,0,.2,0,.3,0,.1,0,.2,0,.3,0,0,0,0-.1.1,0,0,0,0-.1.1-.1,0-.2,0-.3.2,0,0-.1.2-.1.3-.3.3-.6.7-.9,1l-.9,1c-.2.2-.1.4,0,.5.1.1.4.2.5,0,.2-.3.5-.5.7-.6.3-.2.5-.3.8-.4,0,.1,0,.3,0,.4,0,.1,0,.3,0,.4,0,0-.1,0-.2.1s0,0-.1.2c0,0-.1.2,0,.4,0,.1.1.2.3.3,0,0,0,.1,0,.2,0,0,0,.1,0,.1,0,0,0,0,0,.1,0,0,0,0,0,.1,0,.2,0,.3.2.4.1,0,.3,0,.4-.2,0-.2.1-.3.2-.5,0-.2.1-.3.2-.5.2,0,.3-.2.5-.3.1-.1.3-.3.4-.4.1,0,.2,0,.3,0,.1,0,.2,0,.3,0,0,0,.2.2.3.2,0,0,.2.2.3.2.1.1.3.1.4,0,.1,0,.2-.2.3-.3,0,0,.1,0,.2,0,0,0,.1,0,.2,0,.2,0,.4,0,.5-.2,0-.2,0-.4-.2-.5,0,0,0,0,0,0,0,0,0,0,0,0,.2,0,.3-.2.3-.4,0-.2,0-.3-.3-.4Z"/>
            <path class="st18" d="M245.3,84.8c-.1,0-.3,0-.4,0-.1,0-.3,0-.4.1-.3,0-.4.3-.3.5,0,.2.2.4.5.4.1,0,.2,0,.3,0,.1,0,.2,0,.3,0,0,0,0,0,0,0,0,0,0,0,0,0,0,0,0,0-.1,0,0,0,0,0-.1,0-.2,0-.3.3-.3.5,0,.2.1.4.3.5,0,.2-.1.4-.2.6,0,.2-.1.4-.2.6,0,.2,0,.4.2.5.2,0,.4,0,.5-.2,0,0,0-.1,0-.2,0,0,0-.1,0-.2,0,.1,0,.2.2.2,0,0,.2,0,.3,0,.1-.2.2-.3.3-.5.1-.2.2-.4.3-.5,0,0,0,.1.1.2,0,0,0,.1.1.2.1.2.4.3.6.2.2,0,.3-.3.3-.5.2,0,.3,0,.5,0,.2,0,.3,0,.5,0,.2,0,.3,0,.4-.2,0-.2,0-.3,0-.5-.1-.3-.3-.6-.5-.9-.2-.3-.4-.5-.7-.7.3,0,.5-.2.8-.3s.5-.2.7-.3c0,0,.1,0,0-.2,0,0,0-.1-.1-.1-.2,0-.5,0-.7,0-.2,0-.4,0-.7,0,.1-.3.2-.5.3-.8.1-.3.2-.5.3-.7.1-.2,0-.4-.2-.5-.2,0-.4,0-.5.1-.2.3-.3.6-.5.8-.2.3-.3.6-.5.8,0,0,0-.2,0-.3,0-.1,0-.2,0-.3,0-.2-.2-.3-.4-.3-.2,0-.4.1-.4.3,0,.1,0,.3-.1.4,0,.1,0,.3-.1.4-.1,0-.2,0-.3.2,0,0-.1.2-.1.3ZM247.7,86.4s0,0-.1,0c0,0,0,0-.1,0,0,0,0,0,0,0,0,0,0,0,0,0,0,0,0,0,0,0,0,0,0,0,0,0,0,0,0,0,0,0,0,0,0,0,0,0Z"/>
            <path class="st18" d="M249.7,30c0,0,.2,0,.3-.1,0,0,.2,0,.3-.1,0,.1,0,.2-.1.3,0,.1,0,.2-.1.3-.1.3-.3.6-.4.9-.1.3-.2.6-.3,1,0,.3.1.5.3.5.2,0,.4,0,.5-.3.1-.3.2-.6.3-1,.1-.3.2-.6.3-1,.1-.2.2-.4.4-.6.1-.2.3-.4.4-.6.2,0,.3,0,.5-.1.2,0,.3,0,.5-.2,0,0,0,0,0,0,0,0,0,0,0,0,0,0,0,0,0,0,0,0,0,0,0,0,0,0,0,0,0,.1,0,0,0,0,0,.1,0,0-.1,0-.2,0,0,0-.1,0-.2,0-.1,0-.3,0-.5,0-.1,0-.2.2-.2.4,0,.2,0,.4,0,.6,0,.2.1.3.2.5,0,.1-.1.2-.2.3,0,.1-.1.2-.2.3-.1.2,0,.4.1.5.1,0,.4,0,.5-.1,0,0,.1-.2.2-.2,0,0,.1-.2.2-.2,0,0,.1,0,.2.1,0,0,.1,0,.2.1.1,0,.2,0,.3,0,0,0,.2-.1.2-.2,0,0,0-.1.1-.2,0,0,0-.1,0-.2.1,0,.3.1.4.2.1,0,.3.1.4.2,0,0,.1.2.2.2,0,0,.1.2.2.2.1.2.3.2.4.2.1,0,.3,0,.4-.2,0,0,.2,0,.3.1,0,0,.2,0,.3.1.2.1.5,0,.6-.1.1-.2.2-.4,0-.6-.4-.4-.8-.8-1.2-1.3-.4-.4-.8-.8-1.2-1.3.3-.4.5-.8.8-1.2.3-.4.5-.8.8-1.2.1-.1,0-.3,0-.4,0-.1-.3-.2-.4-.2-.3,0-.6.2-.8.3-.3.1-.5.2-.8.4-.2,0-.4,0-.6,0-.2,0-.4,0-.5,0,0,0,0-.2-.1-.2,0,0,0-.2-.1-.2-.1-.2-.3-.2-.4-.2-.2,0-.3.1-.4.3,0,.2-.1.4-.2.6,0,.2-.1.4-.2.6-.5.1-.9.4-1.2.7-.3.3-.6.8-.7,1.2,0,.2,0,.4.2.5.1.1.4.1.5,0ZM253.8,27.8c0,0-.1,0-.2,0,0,0-.1,0-.2,0,0,0,.1,0,.2-.1,0,0,.1,0,.2-.1,0,0,.1,0,.1-.1,0,0,0-.1,0-.2,0,0,0,0,.1,0,0,0,0,0,.1,0,0,.1-.1.2-.2.3,0,.1-.1.2-.2.3Z"/>
            <path class="st18" d="M221.4,91.5c-.3.2-.5.5-.7.7-.2.2-.5.5-.7.7,0-.2.1-.5.2-.7,0-.2.1-.5.2-.7,0-.2,0-.4-.2-.4-.2,0-.3,0-.5.1-.1.2-.3.4-.4.6-.1.2-.3.4-.4.6,0,0,0,0,0-.1,0,0,0,0,0-.1,0-.2-.2-.3-.4-.3-.2,0-.4,0-.5.2,0,.1,0,.2-.1.3,0,.1,0,.2-.1.3,0,0,0,0,0,0,0,0,0,0,0,0-.2-.1-.4,0-.6,0-.1.1-.2.4,0,.6,0,0,.1.2.2.3,0,0,.1.2.2.3,0,0,0,0,0,.1,0,0,0,0,0,.1,0,0-.1,0-.2,0,0,0-.1,0-.2,0-.2,0-.4,0-.5.2-.1.2-.1.4,0,.5,0,0,0,0,0,0,0,0,0,0,0,0,0,0-.1,0-.2,0,0,0-.1,0-.2,0-.3,0-.4.3-.3.6,0,.2.2.4.5.4,0,0,0,0,0,0,0,0,0,0,0,0h0s0,0,0,0h0c0,0,.1,0,.2,0,0,0,.1,0,.2,0,0,.2-.2.4-.3.6,0,.2-.2.4-.3.6-.1.2,0,.5.2.6.2.1.4,0,.6-.1.2-.3.3-.5.5-.7.2-.3.3-.5.5-.7.1,0,.3.1.4.1.1,0,.3,0,.4,0,0,.3-.1.5-.2.8,0,.3-.1.5-.2.8,0,.1,0,.2.1.2,0,0,.2,0,.2-.1,0-.3.2-.5.3-.8,0-.3.2-.5.3-.8,0,0,.1,0,.2,0,0,0,0,0,.1,0,0,0,.1,0,.2,0,0,0,.1,0,.2,0,.3,0,.5.2.8.3.3,0,.5.2.8.3.3,0,.5,0,.5-.3,0-.2,0-.5-.2-.6-.1-.1-.3-.2-.4-.3-.1-.1-.3-.2-.4-.3,0,0,.1-.2.2-.3s0-.2.1-.3c0-.1,0-.2,0-.3,0,0,0-.2-.2-.2.2-.2.5-.4.7-.7.2-.3.4-.5.6-.8.1-.2,0-.5-.1-.6-.2-.1-.4-.2-.6,0ZM219.1,93.4s0,0,0,0h0s0,0,0,0h0s0,0,0,0Z"/>
            <path class="st18" d="M295.4,138.2c-.1-.3-.3-.6-.4-.8-.2-.2-.4-.5-.6-.6.1-.2.2-.4.3-.6.1-.2.2-.4.3-.6,0-.2,0-.4-.1-.5-.1-.1-.4-.1-.5,0-.2.2-.3.4-.5.6-.2.2-.3.4-.5.6,0,0-.1-.2-.2-.3,0,0-.1-.2-.2-.3,0-.1-.2-.2-.4-.2-.1,0-.3,0-.4.1,0,0-.1.2-.2.2,0,0-.1.2-.2.2,0,0,0,0,0,0,0,0,0,0,0,0-.3,0-.6.1-.9.2-.3.1-.6.3-.8.5,0,0-.1.2-.1.3,0,0,0,.2,0,.3,0,0,0,.2,0,.2,0,0,.1.1.2.1.2,0,.4,0,.5,0,.2,0,.4,0,.5,0-.2.4-.5.8-.7,1.2-.2.4-.5.8-.7,1.2-.1.2,0,.4.1.6.2.1.4.2.5,0,.2-.3.4-.5.7-.8s.4-.5.7-.8c0,0,0,0,0,.1,0,0,0,0,0,.1-.2.4-.4.8-.6,1.1-.2.4-.4.8-.6,1.1,0,.2,0,.4.1.5.1,0,.3,0,.4-.1.2-.3.3-.6.5-.9.2-.3.3-.6.5-.9.1.2.3.4.4.5.2.2.3.3.5.5.1.1.4.2.6.1.2,0,.4-.2.4-.4,0-.3,0-.6,0-.9s0-.6,0-.9c.1,0,.3-.1.4-.2.1,0,.3-.2.4-.3,0,0,.1-.1.1-.2,0,0,0-.2,0-.3ZM293.4,139.5s0,0,0,0c0,0,0,0,0,0,0,0,0,0,0,0,0,0,0,0,0,0,0,0,0,0,0,0s0,0,0,0c0,0,0,0,0,.1,0,0,0,0,0,.1Z"/>
            <path class="st18" d="M279.2,109.7c-.2-.3-.4-.6-.7-.9-.2-.3-.5-.5-.8-.7,0-.1,0-.2,0-.4,0-.1,0-.3,0-.4.2,0,.4-.2.7-.2.2,0,.4-.2.7-.2.3-.1.4-.4.3-.6s-.3-.4-.6-.3c-.2,0-.5.2-.7.2-.2,0-.5.2-.7.2,0,0,0,0-.1-.1,0,0,0,0-.1-.1,0,0,0,0,0,0,0,0,0,0,0,0,0-.1,0-.3,0-.4,0-.1-.2-.2-.3-.2,0-.2,0-.5.1-.7,0-.2,0-.5.1-.7,0-.3,0-.5-.3-.5-.2,0-.4,0-.5.3-.1.3-.2.6-.3.9,0,.3-.2.6-.2.9-.4.2-.8.4-1,.7-.3.3-.5.7-.7,1.1,0,0-.1.2-.2.2,0,0,0,.2-.1.2,0,.2,0,.4,0,.5.1.1.3.2.5.2.1,0,.3-.1.4-.2.1,0,.3-.1.4-.2,0,0,0,0,0,0,0,0,0,0,0,0,0,.3-.1.6-.2.9s-.1.6-.2.9c0,.3.1.5.3.6.2,0,.5,0,.6-.3,0-.1,0-.3.1-.4,0-.1,0-.3.1-.4.1.4.3.8.6,1.1.2.4.5.7.8,1,0,0,.1,0,.2,0,0,0,0-.1,0-.2-.2-.4-.3-.8-.5-1.2-.1-.4-.3-.8-.4-1.2.4.4.8.9,1.2,1.4.4.5.8,1,1.2,1.4s.2,0,.2,0c0,0,.1-.1.1-.2,0-.3,0-.5-.2-.8,0-.3-.2-.5-.3-.7,0,0,.2-.2.2-.3,0-.1,0-.3,0-.4ZM275.6,107s0,0,0,0c0,0,0,0,0,0,0,0,0,0,0,0,0,0,0,0,0,0,0,0,0,0,0,0,0,0,0,0,0,0Z"/>
            <path class="st18" d="M248.5,129.7c0,0-.2-.1-.3-.2,0,0-.2-.1-.3-.2-.2-.2-.3-.4-.5-.7-.2-.2-.3-.4-.5-.7.2,0,.3-.2.5-.3.2,0,.3-.2.5-.3.3-.1.3-.4.2-.6-.1-.2-.3-.3-.6-.2,0,0,0,0,0,0,0,0,0,0,0,0,.2-.4.5-.8.7-1.2.2-.4.5-.8.7-1.2.1-.2,0-.4-.1-.5-.1-.1-.3-.1-.5,0-.4.4-.8.8-1.2,1.3-.4.4-.8.8-1.2,1.3,0,0,0-.1-.1-.2s0-.1-.1-.2c0-.1,0-.3,0-.4,0-.1,0-.3,0-.4,0-.3-.3-.3-.5-.3-.2,0-.4.2-.3.5,0,0,0,.2,0,.3,0,0,0,.2,0,.3,0,0,0,0,0,0s0,0,0,0c0,0,0,0,0,0,0,0,0,0,0,0,0,.1,0,.3,0,.4,0,.1,0,.3,0,.4-.1,0-.2-.1-.3-.2-.1,0-.2-.1-.3-.2-.2-.1-.4,0-.5.1-.1.2,0,.4.1.6.1,0,.3.2.4.3.1,0,.3.2.4.3-.1.2-.3.3-.4.5-.1.2-.3.3-.4.5-.2.1-.3.3-.5.4-.2.1-.3.3-.4.4,0,0,0,0-.1.2,0,0,0,.1,0,.2-.1.2,0,.4,0,.5.1.1.3.2.5,0,0,0,0,0,0,0,0,0,0,0,0,0,0,0,0,0,0,0,0,0,0,0,0,0,.2-.1.4-.2.6-.4.2-.1.4-.2.6-.4,0,0,.2,0,.3,0,0,0,.2,0,.3,0-.3.5-.5,1-.8,1.5-.3.5-.5,1-.7,1.5,0,.1,0,.3,0,.3,0,0,.2,0,.3,0,.3-.4.6-.9.9-1.3.3-.5.6-.9.9-1.4,0,0,0,0,0,0,0,0,0,0,0,0,0,.3.3.3.5.3.2,0,.4-.2.3-.5,0,0,0-.1,0-.2,0,0,0-.1,0-.2,0,0,.2,0,.3,0,0,0,.2,0,.3,0,.2.2.5.3.7.5.2.2.4.3.7.5.2.1.3.1.4,0,.1,0,.2-.3.2-.4,0,0,0-.2,0-.3,0-.1,0-.2-.2-.3ZM246.3,126.8s0,0,0,.1c0,0,0,0,0,.1,0,0,0,0,0,0,0,0,0,0,0,0,0,0,0,0,0-.1,0,0,0,0,.1-.1Z"/>
            <path class="st18" d="M272.7,78.6c-.3.2-.6.4-.8.6s-.6.4-.8.6c-.3-.2-.6-.3-.9-.3-.3,0-.6,0-.9.2,0,0-.1,0-.2.2,0,0-.1.1-.2.2-.4,0-.7-.1-1.1-.1-.4,0-.8,0-1.1.1-.3,0-.4.3-.4.6,0,.2.2.5.5.5.2,0,.3,0,.5,0,.2,0,.3,0,.5,0,0,.1,0,.2.1.3,0,0,.2.1.4.1,0,0,0,0,.1,0,0,0,0,0,.1,0,0,0,0,0,0,0,0,0,0,0,0,0-.4.3-.8.6-1.2.9-.4.3-.8.6-1.2.9-.2.2-.2.4,0,.6.1.2.4.3.6.2.4-.2.7-.3,1.1-.5.4-.2.7-.3,1.1-.5,0,.4-.1.8-.2,1.2,0,.4-.1.8-.2,1.2,0,.4.2.7.5.8.3,0,.6,0,.7-.4,0-.4.2-.8.3-1.2,0-.4.2-.8.2-1.2,0,0,0,0,0,0,0,0,0,0,0,0,.1.2.3.3.6.3.2,0,.4-.2.5-.4,0,0,0,0,0,0s0,0,0,0c.2,0,.3,0,.4-.2.1-.1.2-.3,0-.5,0,0,0-.1,0-.2,0,0,0-.1,0-.2,0-.3.1-.6.1-.9,0-.3,0-.6-.2-.9,0,0,0,0,0,0,0,0,0,0,0,0,.3-.2.6-.4.8-.6.3-.2.5-.4.7-.7.2-.2.1-.5,0-.7-.1-.2-.4-.3-.6-.1Z"/>
            <path class="st18" d="M237.8,56.3c0-.1.1-.2.1-.4s0-.3-.1-.4c0-.1.1-.2.2-.3,0-.1.1-.2.2-.3.1-.3,0-.6-.2-.8-.2-.1-.5-.1-.8.2,0,0,0,0,0,0,0,0,0,0,0,0,0-.2-.2-.3-.4-.3-.2,0-.4,0-.5.2,0,0,0,0,0,.1,0,0,0,0,0,.1,0-.2,0-.3,0-.5,0-.2,0-.3,0-.5,0-.2-.2-.3-.5-.3-.2,0-.4.1-.5.3,0,.3-.1.6-.1,1,0,.3,0,.7,0,1.1,0,0-.1,0-.1,0,0,0,0,0-.1,0-.1,0-.2,0-.3.1s-.1.2-.1.3c-.1,0-.3.1-.4.2-.1,0-.3.2-.4.3-.1.1-.2.2-.2.4,0,.1,0,.3.1.4-.1.1-.2.3-.4.4-.1.1-.2.3-.3.4-.1.2,0,.4,0,.6.1.2.4.3.6.2.1,0,.2,0,.3,0,.1,0,.2,0,.3-.1,0,0,0,0,0,0s0,0,0,0c-.2.3,0,.6.2.7.2.1.5.1.8-.2.1-.2.3-.4.4-.6.1-.2.3-.4.4-.6,0,.3,0,.5.1.8s0,.5.1.8c0,.3.3.4.5.4.2,0,.5-.2.5-.5,0,0,0,0,0,0,0,0,0,0,0,0,.1.1.3.2.5.3.2,0,.3.1.5.2,0,0,.1,0,.1,0,0,0,0-.1,0-.2-.2-.3-.4-.5-.6-.8-.2-.3-.4-.5-.5-.8,0-.2,0-.3,0-.5,0-.2,0-.3,0-.5,0,0,0,0,.1,0,0,0,0,0,.1,0,0,0,0,0,0,0,0,0,0,0,0,0,.2.1.4.2.6.4.2.1.4.2.6.4.1,0,.2,0,.3,0,0,0,.1-.2.1-.3,0-.3-.2-.6-.4-.9-.2-.3-.4-.5-.7-.7Z"/>
            <path class="st18" d="M260.6,64.7c0-.1,0-.2-.1-.3s-.1-.2-.2-.3c0-.3-.1-.7-.2-1,0-.3-.1-.7-.2-1,0-.2-.2-.4-.5-.4-.2,0-.4,0-.5.3,0,0,0,0,0,0,0,0,0,0,0,0,0,0,0-.1,0-.2,0,0,0-.1,0-.2,0-.2-.2-.3-.4-.3s-.3,0-.4.2c-.2.3-.3.6-.4.9,0,.3-.1.6-.1,1,0,0,0,0-.1,0,0,0,0,0-.1,0,0,0-.1,0-.2,0,0,0,0,0-.1.1-.2,0-.4,0-.6,0-.2,0-.4,0-.6.1-.2,0-.4.3-.4.5,0,.2,0,.4.3.6.1,0,.2.1.3.2.1,0,.2.1.3.1,0,.2,0,.4.1.5.1.1.3.2.5,0,0,0,0,.1,0,.2,0,0,0,.1,0,.2-.2.3,0,.6.2.7.2.1.6.1.8-.2,0-.1.2-.3.3-.4,0-.1.2-.3.3-.4.2.2.3.4.6.5.2.1.4.3.7.4,0,.3.2.5.3.8,0,.3.2.5.3.8.1.4.4.5.7.4.3,0,.5-.3.4-.7,0-.3-.1-.6-.2-.9,0-.3-.1-.6-.2-.9,0,0,0,0,.1,0,0,0,0,0,.1,0,.3,0,.4-.1.5-.3,0-.2,0-.4-.1-.6-.1-.1-.2-.2-.4-.3-.1-.1-.3-.2-.4-.3ZM258.2,63s0,0,0,0c0,0,0,0,0,0,0,0,0,0,0,0,0,0,0,0,0,0,0,0,0,0,0,0h0s0,0,0-.1c0,0,0,0,0-.1ZM259,65.9s0,0,0,0c0,0,0,0,0,0,0,0,0,0,0,0,0,0,0,0,0,0,0,0,0,0,0,0,0,0,0,0,0-.1Z"/>
            <path class="st18" d="M242.9,21.3c.2.4.4.7.7,1,.3.3.6.6,1,.8.2.1.4,0,.6,0,.2-.1.2-.4,0-.6-.2-.3-.4-.5-.6-.8-.2-.3-.4-.5-.6-.8,0,0,0,0,0,0,0,0,0,0,0,0,0,0,0,0,0,0,0,0,0,0,0,0,0,0,.2.1.2,0,0,0,.1-.1.1-.2,0,0,0,0,0-.1,0,0,0,0,0-.1,0,0,0,0,.1,0,0,0,0,0,.1,0,.2,0,.2-.3.2-.4,0-.2,0-.3-.2-.4-.1,0-.2-.1-.3-.2-.1,0-.2-.1-.3-.1,0-.2-.2-.3-.3-.5-.1-.1-.2-.3-.4-.4,0,0,0,0,0,0,0,0,0,0,0,0,0,0,.1-.1.2-.2s.1-.1.2-.2c.1-.1.2-.3.1-.5,0-.2-.2-.3-.3-.3,0-.2-.1-.4-.3-.5-.2,0-.4,0-.5,0-.2.2-.4.3-.6.5-.2.2-.4.3-.6.5,0,0-.1-.2-.2-.2,0,0-.1-.2-.2-.2-.1-.2-.3-.3-.4-.5-.1-.2-.3-.3-.4-.5-.2-.2-.5-.3-.7-.1-.2.1-.3.4-.1.6.2.3.4.6.5.9.2.3.4.6.6.9-.2.1-.3.3-.5.4-.2.1-.3.3-.5.4,0,0-.1,0-.2,0,0,0-.1,0-.2,0-.3.1-.3.4-.2.6.1.2.4.4.6.3,0,0,0,0,0,0,0,0,0,0,0,0-.1.2-.3.3-.4.5-.1.2-.3.3-.4.5-.2.2-.1.5,0,.7.2.2.5.2.7,0,.2-.2.4-.4.5-.6.2-.2.4-.4.5-.6,0,0,0,0,0,0,0,0,0,0,0,0,0,0,0,0,0,0,0,0,0,0,0,0,0,0,0,0,0,0,0,0,0,0,0,0,.2.1.5.2.7.2.2,0,.5,0,.7,0ZM243.6,20.1s0,0,0,0h0s0,0,0,0h0s0,0,0,0Z"/>
            <path class="st18" d="M228.2,113.5c0,0,.1-.2.2-.3,0-.1,0-.2.1-.4,0-.2,0-.4-.2-.5-.1-.1-.3-.2-.5,0,0,0,0,0-.1,0,0,0,0,0-.1,0,0,0-.1,0-.2,0,0,0-.2,0-.3,0,0,0-.1,0-.2.1,0,0-.1,0-.2.1,0-.1.1-.3.2-.4,0-.1.1-.3.2-.4,0-.2,0-.4-.2-.5-.2-.1-.4-.1-.5,0-.2.2-.3.4-.5.6-.2.2-.3.4-.5.6-.2,0-.3-.2-.5-.3-.2,0-.4-.1-.5-.2-.3,0-.5,0-.5.3,0,.2,0,.5.2.6.1,0,.3.1.4.2.1,0,.3.1.4.2-.1.2-.3.4-.4.5-.1.2-.3.4-.4.5,0,0,0,.1-.1.2,0,0,0,.2,0,.2,0,0,0,0,0,0,0,0,0,0,0,0-.2.2-.2.5-.1.7.1.2.3.3.6.1,0,0,.2-.1.2-.2,0,0,.2-.1.2-.2,0,0,0,.2,0,.2,0,0,0,.2,0,.2,0,.2,0,.4.3.5.2,0,.5,0,.6-.2.1-.3.2-.5.4-.8s.2-.5.4-.8c.1.5.4.9.7,1.3.3.4.7.7,1.1,1,.2.1.4,0,.6,0,.2-.1.2-.3.2-.5,0-.3-.2-.5-.3-.8-.1-.2-.2-.5-.4-.7,0,0,0,0,0,0,0,0,0,0,0,0,0,0,.1,0,.2,0,0,0,0-.1,0-.2.1.1.2.3.3.4s.2.3.2.5c0,0,0,0,.1,0,0,0,.1,0,.1-.1,0-.4,0-.9-.2-1.2-.2-.4-.4-.7-.7-.9Z"/>
            <path class="st18" d="M198.2,144.7c-.5,0-1,0-1.5,0-.5,0-1,.1-1.5.2,0-.1,0-.3,0-.4,0-.1,0-.3-.2-.4,0,0,0,0,0-.1,0,0,0,0,0-.1.1-.2,0-.5-.2-.6-.2-.2-.4-.2-.6,0,0,0,0,0,0,0,0,0,0,0,0,0-.3-.2-.6-.2-.8-.2-.3,0-.5.1-.8.2,0,0,0,0-.1,0,0,0,0,0-.1,0-.2,0-.3,0-.5,0-.1,0-.2.2-.2.4,0,0,0,.1,0,.2,0,0,0,.1,0,.2-.3.3-.5.7-.7,1-.2.4-.3.7-.4,1,0,.2,0,.4.1.5.1.1.3.2.5.1,0,0,0,0,0,0,0,0,0,0,0,0,0,0,0,0,0,0,0,0,0,0,0,0-.2.2,0,.4.1.6.2.1.4.2.6,0,0,0,.1-.1.2-.2,0,0,.1-.1.2-.2,0,0,0,0,0,.1,0,0,0,0,0,.1,0,.1.3.2.4.2.2,0,.3,0,.4-.2,0,0,0-.1,0-.2,0,0,0-.1,0-.2.1,0,.3.2.4.2.1,0,.3.1.4.2.1,0,.2,0,.2-.1,0,0,0-.2,0-.3,0,0-.2-.1-.2-.2,0,0-.1-.1-.2-.2,0,0,0,0,.1,0,0,0,0,0,.1-.1.1.2.3.5.4.7.1.3.2.5.3.8,0,.3.3.4.5.3.2,0,.4-.2.4-.5,0-.3,0-.6,0-.9,0-.3-.2-.6-.3-.9.4-.1.9-.2,1.3-.4.4-.1.9-.3,1.3-.5,0,0,.1-.1.1-.2,0,0,0-.2-.2-.2ZM193.1,144.9s0,0,0,0c0,0,0,0,0,0,0,0,0-.1,0-.2,0,0,0-.1,0-.2h0s0,0,0,0c0,0,0,0,.1,0,0,0,0,0,.1,0ZM192.3,145.5s0,0,0,0c0,0,0,0,0,0,0,0,0,0,0,0,0,0,0,0,0,0,0,0,0,0,0,0,0,0,0,0,0,0Z"/>
            <path class="st18" d="M226.7,133.4s0,0-.1,0c0,0,0,0-.1,0,0,0,0,0,0,0h0c.2-.1.2-.3.2-.5,0-.2-.2-.3-.4-.4,0,0,0,0,0,0,0,0,0,0-.1,0,0,0,0,0,0,0,0,0,0,0,0,0,0,0,0,0,0,0s0,0,0,0c-.1,0-.3,0-.4,0-.1,0-.3,0-.4,0-.1-.2-.2-.3-.4-.5-.1-.2-.2-.3-.4-.5,0-.2,0-.5,0-.7v-.7c0-.2-.2-.3-.3-.3-.1,0-.3,0-.4.1,0,0,0,.2-.1.2,0,0,0,.1,0,.2-.2-.1-.3,0-.5,0-.1.1-.2.3-.2.5,0,.3.1.6.2,1,0,.3.1.6.2,1,0,0-.1,0-.2,0s-.1,0-.2,0c0,0-.1,0-.2,0s0,.1-.1.2c-.2,0-.3.3-.4.5,0,.2,0,.4.3.4.2,0,.3,0,.5,0,.2,0,.3,0,.5,0,0,0,0,0,0,0,0,0,0,0,0,0-.2.1-.3.3-.5.4-.2.1-.3.3-.5.4-.3.2-.2.5,0,.7.2.2.5.3.8,0,0,0,.2-.1.2-.2,0,0,.2-.1.2-.2,0,.2,0,.3.1.5,0,.2,0,.3.1.5,0,.2.3.3.5.3.2,0,.4-.2.4-.4,0-.3,0-.5,0-.8,0-.3,0-.5,0-.8,0,0,.1,0,.2-.1,0,0,.1,0,.2-.1,0,0,.2,0,.3,0,0,0,.2,0,.3,0,.1,0,.2,0,.3,0,0,0,.2-.1.2-.2,0,0,.2,0,.3,0,0,0,.2,0,.3,0,.3,0,.5-.2.5-.5,0-.2-.2-.5-.5-.5Z"/>
            <path class="st18" d="M254.8,106.4c-.3,0-.6,0-.9.1-.3,0-.6.1-.9.2,0,0,0,0,0,0,0,0,0,0,0,0,0,0,0,0,0,0,0,0,0,0,0,0,0-.3,0-.5-.3-.6-.2,0-.5,0-.6.2,0,.2-.2.4-.3.6,0,.2-.2.4-.3.6,0,0-.1,0-.2,0,0,0-.1,0-.1.1,0,0-.2,0-.3.1,0,0-.2,0-.3.1-.1,0-.3,0-.4,0-.1,0-.2.2-.3.3,0,0-.1,0-.2,0,0,0-.1,0-.2,0,0,0-.1,0-.2,0,0,0-.1,0-.1,0,0,0,0,0,0,0,0,0,0,0,0,0-.2,0-.4.3-.4.5,0,.2,0,.5.3.6.1,0,.3.1.4.2.1,0,.3.1.4.2,0,0,.1.1.2.2,0,0,.1.1.2.2,0,0,0,.1,0,.2,0,0,0,.1,0,.2,0,.2,0,.3,0,.4,0,.1.2.2.4.2,0,.2,0,.3,0,.5,0,.2,0,.3,0,.5,0,.3.2.4.4.4.2,0,.4,0,.5-.3,0-.1,0-.3.1-.4,0-.1,0-.3.1-.4,0,0,.1.1.2.2,0,0,.1.1.2.2.2.2.4.2.6.1.2,0,.3-.2.4-.4,0,0,0-.2,0-.2,0,0,0-.2,0-.2,0,0,.1.1.2.2,0,0,.1.1.2.2.3.2.6,0,.8-.1.2-.2.3-.5.1-.8,0,0,0,0,0,0,0,0,0,0,0,0,0,0,0,0,0,0h0s0,0,0,0c0,0,0,0,0,0-.2-.2-.4-.4-.6-.6-.2-.2-.4-.4-.6-.5,0-.2-.1-.4-.2-.5,0-.2-.2-.3-.3-.5.4-.2.8-.4,1.2-.6.4-.2.8-.5,1.1-.7,0,0,0-.1,0-.2,0,0,0-.1-.2-.1Z"/>
            <path class="st18" d="M234.4,80.9s0,0,0,0c0,0,0,0,0,0,0,0,0,0,0,0,0,0,0,0,0,0,0,0-.1-.1-.2-.2s-.1-.1-.2-.2c0-.2.1-.4.2-.6,0-.2,0-.5,0-.7,0,0,0,0,0,0,0,0,0,0,0,0,.2-.1.4-.2.5-.4.2-.1.3-.3.5-.4.1-.1.2-.3,0-.5,0-.2-.2-.3-.4-.3-.3,0-.7,0-1,0-.3,0-.7.1-1,.2,0,0,0,0,0,0,0,0,0,0,0,0,.2-.1.4-.2.5-.3.2-.1.4-.2.5-.3.3-.2.3-.4.2-.6-.1-.2-.4-.3-.7-.2-.2,0-.4.2-.6.2-.2,0-.4.2-.6.2,0,0-.1-.2-.2-.3s-.1-.2-.2-.2c0,0-.1,0-.2,0,0,0,0,.1,0,.2,0,0,0,.2,0,.3,0,0,0,.2,0,.3,0,0,0,0-.1,0,0,0,0,0-.1,0,0-.2-.2-.3-.3-.3-.2,0-.3,0-.5.1-.3.2-.5.4-.8.6-.3.2-.5.4-.8.6-.1.1-.2.3-.2.4,0,.1.1.3.3.3,0,0,0,0,0,0,0,0,0,0,0,0-.2.1-.3.3-.2.5,0,.2.1.3.3.4.3,0,.5.2.8.2.3,0,.5,0,.8,0,0,.6.2,1.2.3,1.8,0,.6.2,1.2.3,1.8,0,.2.2.3.4.4.2,0,.4,0,.5-.2.1-.3.3-.7.4-1,.1-.4.2-.7.3-1.1,0,0,0,0,.1,0,0,0,0,0,.1,0,.3.2.6.4.9.7.3.2.6.4.9.7.2.2.5,0,.6-.1.1-.2.2-.4,0-.6-.2-.2-.3-.3-.5-.5-.2-.2-.3-.3-.5-.5Z"/>
            <path class="st18" d="M271,129.4c0-.1.1-.2.2-.4,0-.1.1-.2.2-.4.1-.2,0-.5-.1-.6-.2-.1-.4-.2-.6,0,0-.1-.1-.2-.3-.2-.1,0-.2,0-.4,0-.1.1-.3.2-.4.3-.1.1-.2.2-.3.4,0,0,0,0-.1,0,0,0,0,0-.1,0,0,0,0,0,0,0,0,0,0,0,0,0,0-.2-.2-.4-.3-.6-.1-.2-.3-.4-.5-.5-.8-.6-1.8-.6-2.5-.2-.7.4-1.3,1.2-1.3,2.2,0,.1,0,.3.1.4,0,0,.2.2.3.1.3,0,.7,0,1-.1.3,0,.7,0,1-.1.2,0,.5,0,.7,0,.2,0,.5,0,.7-.1,0,.2,0,.3,0,.5,0,.2-.1.3-.2.5-.2.2-.4.4-.6.5s-.4.4-.6.5c-.2.2-.2.5,0,.6.1.2.4.3.6.1.1,0,.2-.1.3-.2.1,0,.2-.1.3-.2-.1.3-.3.5-.4.8-.1.3-.3.5-.4.8-.1.2,0,.5.2.6.2.1.4,0,.6-.1.2-.3.4-.6.6-.9.2-.3.4-.6.6-.9.3.4.6.8,1.1,1.1.4.3,1,.5,1.6.5.1,0,.2,0,.3-.2,0-.1,0-.2,0-.3-.3-.5-.6-.9-.9-1.4-.3-.5-.6-1-.9-1.4.3.2.6.4.9.5.3.2.6.4.9.5.1,0,.2,0,.3,0s0-.2,0-.3c-.2-.4-.4-.7-.6-.9-.3-.3-.6-.5-.9-.7ZM267.8,128.3c-.3,0-.6,0-.8,0-.3,0-.5,0-.8,0-.2,0-.3,0-.4.2,0,.1-.1.2-.1.4,0,0,0,0,0,0,0,0,0,0,0,0,.2-.5.6-.8,1-.9.4,0,.9,0,1.3.4ZM269.7,131.4c0,0,0-.1.1-.2,0,0,0-.1.1-.2.2.3.4.6.6.9.2.3.4.6.6.9-.4-.1-.7-.3-.9-.6-.2-.2-.4-.5-.6-.8Z"/>
          </g>
          <path class="st3" d="M249.8,218.4c0,4.1-1.2,8-2.9,11.5-1.7,3.5-3.9,6.6-6.2,8.8-6.8,6.9-16.8,9.8-26.7,9.5-9.9-.3-19.8-3.9-26.5-9.8-1-.9-3.7-3.3-6-6.6-2.3-3.3-4.1-7.6-3.4-12.4.5-2.8,1.8-6,3.7-8.4,1.9-2.5,4.4-4.2,7.2-4.3,1.7,0,3.3.5,4.7,1.2,1.4.8,2.5,1.8,3.2,2.7.3.4.5.7.7,1,.1.3.2.6,0,.7h0s0,0,0,0c-.3.5-1.5.2-2.9,0-1.4-.2-3-.2-3.9.8-.6.7-.9,1.9-.8,3s.5,2.2,1.2,2.7c1.5,1.1,3.9-.3,7.7-2.9,3.8-2.6,8.9-6.4,15.9-10,4.8-2.5,9.2-4.8,13.3-6.1,4.2-1.3,8-1.6,11.6,0,2.8,1.3,4.8,3.3,6.1,5.4,1.4,2.1,2.2,4.2,2.6,5.5,0,.2.1.4.2.6,0,.2,0,.3.1.4,0,0,0,0,0,0,0,0,0,0,0,0,.2.7.3,1.3.5,2,.1.7.2,1.3.3,2,0,.4,0,.8,0,1.1,0,.4,0,.8,0,1.1Z"/>
          <path class="st15" d="M250.7,217.1c-.2-.2-.3-.4-.5-.5-.2-.2-.3-.3-.5-.4-.5-.4-1.1-.6-1.6-.7-.6-.1-1.2-.2-1.8-.1-1.8-1.3-4.1-1.8-6.5-1.9-2.4,0-4.8.3-6.8.9-2.7.8-5,2.5-7.2,4.3-2.2,1.8-4.3,3.7-6.6,5.2-3.7,2.4-8.3,4.5-13.1,5.5-4.7,1-9.6,1-14-.6-1.9-.7-3.8-1.7-5.2-3.1-1.4-1.4-2.5-3.2-2.8-5.3-.2-1.2-.1-2.2,0-3.2.2-1,.6-1.8,1-2.5,0,.4-.1.7-.1,1.1,0,.4,0,.8,0,1.3.5,3.8,2.7,6.6,5.7,8.3,3,1.7,6.7,2.2,10.1,1.4,4.4-1,8.1-3.5,11.6-6.4,3.5-2.8,6.8-6,10.5-8.3,4.3-2.6,8.5-2.5,12.7-1.7,4.2.8,8.5,2.2,12.9,2.1,0,0,.2,0,.2,0,0,0,.1,0,.2-.1.1-.1.2-.3.2-.4,0-.1,0-.3-.2-.4,0,0-.1-.1-.2-.2,0,0-.1,0-.2-.1-3.4-3-8.3-4.7-13.3-4.9s-10.1.9-13.9,3.2c-2.8,1.8-5.2,4-7.6,6.2-2.4,2.2-4.8,4.5-7.6,6.3-1.7,1.1-3.6,2.1-5.7,2.7s-4.2.8-6.2.3c-1.3-.3-2.8-1-4-2-1.2-1-2.3-2.2-2.8-3.5-1.7-4.3-.9-6.5,1-7.5,1.8-1,4.7-.7,7,0,0,0,0,0,.1,0,0,0,0,0,.1,0,0,0,.1,0,.2,0,0,0,.1,0,.2,0,.3,0,.5.2.8.2.2,0,.5.2.7.2,0,0,0,0,0,0h0c0-.2,0-.4,0-.7-.1-.3-.4-.7-.7-1-2.1-1.1-4.5-1.6-6.7-1.3-2.2.3-4.3,1.3-5.7,3.1-.9.9-1.7,2.1-2.3,3.3-.6,1.3-.9,2.6-1.1,4.1-.3,4.5,1.4,8.4,4.1,11.6,2.8,3.2,6.6,5.6,10.4,7.1,4.3,1.7,8.9,2.4,13.5,2.2,4.6-.2,9.2-1.3,13.3-3.1,2.3-1,4.4-2.3,6.4-3.7,2-1.5,3.8-3.1,5.4-5,1.1-1.2,2.1-2.5,3.2-3.8,1.1-1.2,2.2-2.4,3.5-3.5,1.4-1.1,2.8-1.7,4.3-2.1,1.4-.4,2.9-.6,4.5-1.1.1,0,.2,0,.3-.1.1,0,.2,0,.3-.1.2,0,.4-.3.5-.5,0-.2,0-.4-.2-.6ZM237.5,220.2c-3,3.1-5.4,6.2-8.2,8.9-2.8,2.7-5.8,5.1-10.1,6.6-3.6,1.3-7.5,2-11.3,2-3.8,0-7.7-.6-11.3-2-2.4-.9-4.8-2.1-6.9-3.7-2.1-1.6-3.9-3.6-5.1-5.9,0,0,0-.2-.1-.3,0,0,0-.2-.1-.3.8,1.1,1.7,2.2,2.8,3s2.3,1.6,3.7,2.2c4.6,2,9.9,2.3,15,1.4,5.1-.8,10.1-2.8,14.3-5.2,2-1.1,3.8-2.6,5.5-4,1.8-1.4,3.5-2.9,5.4-4.1,1.6-1,3.3-1.4,4.9-1.6,1.6-.2,3.3,0,4.9,0-.7.4-1.3.9-1.8,1.4-.6.5-1.1.9-1.5,1.4Z"/>
          <path class="st3" d="M247.6,218.4c0,4.1,1.2,8,2.9,11.5,1.7,3.5,3.9,6.6,6.2,8.8,6.8,6.9,16.8,9.8,26.7,9.5,9.9-.3,19.8-3.9,26.5-9.8,1-.9,3.7-3.3,6-6.6,2.3-3.3,4.1-7.6,3.4-12.4-.5-2.8-1.8-6-3.7-8.4-1.9-2.5-4.4-4.2-7.2-4.3-1.7,0-3.3.5-4.7,1.2-1.4.8-2.5,1.8-3.2,2.7-.3.4-.5.7-.7,1-.1.3-.2.6,0,.7,0,0,0,0,0,0,0,0,0,0,0,0,.3.5,1.5.2,2.9,0,1.4-.2,3-.2,3.9.8.6.7.9,1.9.8,3,0,1.1-.5,2.2-1.3,2.7-1.5,1.1-3.9-.3-7.7-2.9-3.8-2.6-8.9-6.4-15.9-10-4.8-2.5-9.2-4.8-13.3-6.1-4.2-1.3-8-1.6-11.6,0-2.8,1.3-4.8,3.3-6.1,5.4-1.4,2.1-2.2,4.2-2.6,5.5,0,.2-.1.4-.2.6,0,.2,0,.3-.1.4,0,0,0,0,0,0,0,0,0,0,0,0-.2.7-.3,1.3-.5,2-.1.7-.2,1.3-.3,2,0,.4,0,.8,0,1.1,0,.4,0,.8,0,1.1Z"/>
          <path class="st15" d="M247,218.2c.1,0,.2,0,.3.1.1,0,.2,0,.3.1,1.6.5,3,.7,4.5,1.1,1.4.4,2.8,1,4.3,2.1,1.3,1,2.4,2.2,3.5,3.5,1.1,1.2,2.1,2.5,3.2,3.8,1.7,1.9,3.5,3.6,5.4,5,2,1.5,4.1,2.7,6.4,3.7,4.2,1.8,8.7,2.9,13.3,3.1,4.6.2,9.2-.5,13.5-2.2,3.9-1.5,7.7-3.9,10.4-7.1,2.8-3.2,4.5-7.1,4.1-11.6-.1-1.5-.5-2.9-1.1-4.1-.6-1.3-1.4-2.4-2.3-3.3-1.5-1.8-3.5-2.8-5.7-3.1-2.2-.3-4.6.2-6.7,1.3-.3.4-.5.7-.7,1-.1.3-.2.6,0,.7,0,0,0,0,0,0,0,0,0,0,0,0,.2,0,.4-.2.7-.2.2,0,.5-.2.8-.2,0,0,.1,0,.2,0,0,0,.1,0,.2,0,0,0,0,0,.1,0,0,0,0,0,.1,0,2.3-.6,5.1-.9,7,0,1.8,1,2.7,3.1,1,7.5-.5,1.3-1.6,2.5-2.8,3.5-1.2,1-2.7,1.7-4,2-2.1.5-4.2.3-6.2-.3-2-.6-4-1.6-5.7-2.7-2.7-1.8-5.1-4-7.6-6.3-2.4-2.2-4.8-4.5-7.6-6.2-3.8-2.4-8.9-3.5-13.9-3.2s-9.9,1.9-13.3,4.9c0,0-.1,0-.2.1,0,0-.1.1-.2.2-.1.1-.2.3-.2.4,0,.1,0,.3.2.4,0,0,.1,0,.2.1,0,0,.1,0,.2,0,4.4.1,8.7-1.3,12.9-2.1,4.2-.8,8.4-.9,12.7,1.7,3.7,2.3,7,5.4,10.5,8.3,3.5,2.8,7.2,5.3,11.6,6.4,3.4.8,7.1.3,10.1-1.4,3-1.7,5.2-4.5,5.7-8.3,0-.5,0-.9,0-1.3,0-.4,0-.8-.1-1.1.5.7.8,1.6,1,2.5.2,1,.2,2,0,3.2-.3,2.2-1.4,4-2.8,5.3-1.4,1.4-3.3,2.4-5.2,3.1-4.4,1.6-9.3,1.6-14,.6-4.7-1-9.3-3-13.1-5.5-2.3-1.5-4.4-3.5-6.6-5.2-2.2-1.8-4.5-3.4-7.2-4.3-2-.6-4.4-1-6.8-.9-2.4,0-4.7.7-6.5,1.9-.6,0-1.2,0-1.8.1-.6.1-1.1.4-1.6.7-.2.1-.4.3-.5.4-.2.2-.3.3-.5.5-.2.2-.2.4-.2.6,0,.2.2.4.5.5ZM256.6,217.5c1.6-.1,3.3-.2,4.9,0,1.6.2,3.3.6,4.9,1.6,1.9,1.2,3.7,2.6,5.4,4.1,1.8,1.4,3.5,2.9,5.5,4,4.2,2.4,9.2,4.3,14.3,5.2,5.1.8,10.4.6,15-1.4,1.3-.6,2.6-1.3,3.7-2.2,1.1-.9,2.1-1.9,2.8-3,0,0,0,.2-.1.3,0,0,0,.2-.1.3-1.2,2.3-3,4.3-5.1,5.9-2.1,1.6-4.5,2.8-6.9,3.7-3.6,1.4-7.5,2-11.3,2-3.8,0-7.7-.7-11.3-2-4.3-1.5-7.4-3.9-10.1-6.6-2.8-2.7-5.2-5.8-8.2-8.9-.4-.4-.9-.9-1.5-1.4-.6-.5-1.2-.9-1.8-1.4Z"/>
          <path class="st0" d="M258.8,194.1c-1-2.8-2.3-6.2-3.6-9.9-1.3-3.8-2.8-8-4.1-12.7-.4-1.4-1.7-2.1-2.9-2.1s-2.5.7-2.9,2.1c-1.3,4.7-2.8,8.9-4.1,12.7-1.3,3.8-2.6,7.1-3.6,9.9-2.3,6.4-4.4,11.3-5.5,15.5-1.1,4.2-1.2,7.7.5,11.1.3.6.6,1.1.9,1.6.3.5.7,1,1,1.4,3.4,4.3,8.6,6.4,13.8,6.4s10.4-2.1,13.8-6.4c.4-.5.7-.9,1-1.4.3-.5.6-1,.9-1.6,1.7-3.5,1.6-6.9.5-11.1-1.1-4.2-3.2-9.1-5.5-15.5Z"/>
        </g>
        <path class="st5" d="M238.1,435.1c-.1,1.1-.3,2.1-.4,3.2-.1,1.1-.3,2.1-.4,3.2-.2,1.6-.4,3.2-.6,4.8-.2,1.6-.4,3.2-.6,4.8-.7,5.4-1.4,10.9-2.1,16.3-.7,5.4-1.4,10.9-2.1,16.3-3.6,0-7.2-.1-10.8-.2-3.6,0-7.2-.1-10.8-.2-3.9.1-7.9.3-11.9.3-4,0-8.1.1-12.2.2-5.5,0-11,0-16.3,0-5.4,0-10.6-.2-15.8-.3,1.2-1.8,3-4.2,5.4-6.8,2.5-2.6,5.6-5.3,9.5-7.8,3.5-2.2,7-3.8,10-4.9,3.1-1.1,5.8-1.7,7.9-2.1-.3-2-.5-4.1-.7-6.2-.2-2.2-.4-4.4-.5-6.8,0-.5,0-1.1,0-1.6,0-.6,0-1.1,0-1.7,0-1.1,0-2.2,0-3.2,0-1.1,0-2.1,0-3.1,0-2.2.1-4.4.2-6.4.1-2.1.3-4.1.5-6,8.2,2.8,16.5,4.9,25,6.3,8.5,1.4,17.1,2.1,25.7,2.1h1.1Z"/>
        <g class="st8">
          <path class="st7" d="M237.3,441.5c-.2,1.6-.4,3.2-.6,4.8-.2,1.6-.4,3.2-.6,4.8-8.5.8-17,1.3-25.4,1.1-8.4-.2-16.8-1.2-25-3.3,0-.5,0-1.1,0-1.6,0-.6,0-1.1,0-1.7,0-1.1,0-2.2,0-3.2,0-1.1,0-2.1,0-3.1,8.3,2.5,16.9,3.6,25.6,3.8,8.7.2,17.5-.5,26.1-1.3Z"/>
        </g>
        <path class="st4" d="M205.4,447c0,.8-.3,1.6-.5,2.4-.3.8-.6,1.5-1,2.1-.4.6-.9,1.2-1.3,1.7-.5.5-1,.9-1.5,1.3-1.1.7-2.2,1.3-3.4,1.6-1.2.3-2.3.5-3.5.5-1.2,0-2.3-.2-3.5-.6-1.1-.4-2.3-1-3.3-1.8-.5-.4-1-.9-1.5-1.5-.5-.6-.9-1.2-1.2-2-.4-.7-.6-1.6-.8-2.5-.2-.9-.2-1.9-.2-2.8,0-1,.3-1.9.6-2.8.3-.9.7-1.7,1.2-2.3.5-.7,1-1.3,1.5-1.8.5-.5,1.1-.9,1.7-1.3,1.2-.7,2.4-1.1,3.6-1.3,1.2-.2,2.4-.2,3.5,0,1.2.2,2.3.5,3.4,1,1.1.5,2.1,1.2,3.1,2.1.5.4.9.9,1.3,1.5.4.6.8,1.2,1.1,1.9.3.7.5,1.4.7,2.2.1.8.2,1.6.1,2.5ZM204,446.9c0-.6,0-1.2-.1-1.8-.1-.6-.3-1.1-.6-1.7-.3-.5-.6-1-.9-1.4-.3-.4-.7-.8-1.1-1.2-.8-.7-1.8-1.2-2.7-1.5-1-.3-2-.5-3-.5-1,0-2,.2-3,.4s-1.9.7-2.7,1.3c-.4.3-.8.6-1.2,1-.4.4-.7.8-.9,1.2-.3.4-.5.9-.6,1.3s-.3.9-.3,1.4c0,.5,0,1,0,1.4,0,.5.2.9.4,1.4.2.5.4.9.7,1.3.3.4.6.8,1,1.2.7.7,1.6,1.3,2.5,1.7.9.4,1.9.7,2.9.9,1,.1,2,.1,3,0,1-.2,2-.5,2.9-1,.5-.3.9-.6,1.3-1,.4-.4.8-.8,1.1-1.3.3-.5.6-1,.8-1.6.2-.6.3-1.1.4-1.8Z"/>
        <path class="st5" d="M257.7,435.1c.1,1.1.3,2.1.4,3.2.1,1.1.3,2.1.4,3.2.2,1.6.4,3.2.6,4.8.2,1.6.4,3.2.6,4.8.7,5.4,1.4,10.9,2.1,16.3.7,5.4,1.4,10.9,2.1,16.3,3.6,0,7.2-.1,10.8-.2,3.6,0,7.2-.1,10.8-.2,3.9.1,7.9.3,11.9.3,4,0,8.1.1,12.2.2,5.5,0,11,0,16.3,0,5.4,0,10.6-.2,15.8-.3-1.2-1.8-3-4.2-5.4-6.8-2.4-2.6-5.6-5.3-9.5-7.8-3.5-2.2-7-3.8-10-4.9-3.1-1.1-5.8-1.7-7.9-2.1.3-2,.5-4.1.7-6.2.2-2.2.4-4.4.5-6.8,0-.5,0-1.1,0-1.6,0-.6,0-1.1,0-1.7,0-1.1,0-2.2,0-3.2,0-1.1,0-2.1,0-3.1,0-2.2-.1-4.4-.2-6.4-.1-2.1-.3-4.1-.5-6-8.2,2.8-16.5,4.9-25,6.3-8.5,1.4-17.1,2.1-25.7,2.1h-1.1Z"/>
        <g class="st8">
          <path class="st7" d="M258.5,441.5c.2,1.6.4,3.2.6,4.8.2,1.6.4,3.2.6,4.8,8.5.8,17,1.3,25.4,1.1,8.4-.2,16.8-1.2,25-3.3,0-.5,0-1.1,0-1.6,0-.6,0-1.1,0-1.7,0-1.1,0-2.2,0-3.2,0-1.1,0-2.1,0-3.1-8.3,2.5-16.9,3.6-25.6,3.8-8.7.2-17.5-.5-26.1-1.3Z"/>
        </g>
        <path class="st4" d="M291.1,442.3c.3-.7.7-1.3,1.1-1.9.4-.6.8-1.1,1.3-1.5.9-.9,2-1.6,3.1-2.1,1.1-.5,2.2-.8,3.4-1,1.2-.2,2.4-.2,3.5,0,1.2.2,2.4.6,3.6,1.3.6.3,1.1.8,1.7,1.3.5.5,1.1,1.1,1.5,1.8.5.7.9,1.5,1.2,2.3.3.9.5,1.8.6,2.8,0,1,0,1.9-.2,2.8-.2.9-.5,1.7-.8,2.5-.4.7-.8,1.4-1.2,2-.5.6-1,1.1-1.5,1.5-1,.9-2.2,1.5-3.3,1.8-1.1.4-2.3.6-3.5.6-1.2,0-2.4-.2-3.5-.5-1.2-.3-2.3-.9-3.4-1.6-.5-.4-1.1-.8-1.5-1.3-.5-.5-.9-1-1.3-1.7-.4-.6-.8-1.3-1-2.1-.3-.8-.5-1.6-.5-2.4,0-.8,0-1.7.1-2.5.1-.8.4-1.5.7-2.2ZM293,450.2c.3.5.7.9,1.1,1.3.4.4.9.7,1.3,1,.9.5,1.9.9,2.9,1,1,.2,2,.2,3,0,1-.2,2-.5,2.9-.9.9-.4,1.7-1,2.5-1.7.4-.4.7-.7,1-1.2.3-.4.5-.9.7-1.3.2-.5.3-.9.4-1.4,0-.5.1-.9,0-1.4,0-.5-.1-.9-.3-1.4s-.4-.9-.6-1.3c-.3-.4-.6-.8-.9-1.2-.4-.4-.7-.7-1.2-1-.8-.6-1.8-1-2.7-1.3s-2-.4-3-.4c-1,0-2,.2-3,.5-1,.3-1.9.8-2.7,1.5-.4.3-.8.7-1.1,1.2-.4.4-.7.9-.9,1.4-.3.5-.4,1.1-.6,1.7-.1.6-.2,1.2-.1,1.8,0,.6.2,1.2.4,1.8.2.6.5,1.1.8,1.6Z"/>
        <path class="st1" d="M198.5,448.7c1,0,2,0,2.9.1,1,0,2,0,2.9.1,1,0,1.5-.9,1.6-1.9,0-1-.3-2-1.3-2.1-1,0-2,0-2.9-.1-1,0-2,0-2.9-.1-1,0-1.5.9-1.6,1.9,0,1,.3,2,1.3,2.1h0Z"/>
        <path d="M257.4,167.8c1.1,4.4,5,8.1,8.8,10.1s10.9,2.7,15.7-.6,6.5-6.5,8.4-10.6-1-1.9-1.5-.9c-2.8,5.7-7.3,11.8-14.1,12.2s-9.2-2-12.4-5.3-2.7-3.4-3.2-5.4-2-.6-1.7.5h0Z"/>
        <path d="M206.9,169.5c1.1,4.4,5,8.1,8.8,10.1s10.9,2.7,15.7-.6,6.5-6.5,8.4-10.6-1-1.9-1.5-.9c-2.8,5.7-7.3,11.8-14.1,12.2s-9.2-2-12.4-5.3-2.7-3.4-3.2-5.4-2-.6-1.7.5h0Z"/>
      </g>
      <path class="st9" d="M64.7,33C29,33,0,62,0,97.7s29,64.7,64.7,64.7,33.2-6.9,44.8-18.1c1.8-1.8,2.4-4.5,1.3-6.9s-3.5-3.8-6-3.6c-1.2.1-2.5.2-3.7.2-25.7,0-46.5-20.8-46.5-46.5s10.5-34,25.8-41.7c2.3-1.1,3.6-3.6,3.3-6.2-.3-2.6-2.2-4.6-4.7-5.2-4.6-1-9.4-1.6-14.3-1.6Z"/>
      <g id="Calque_21" data-name="Calque_2">
        <g>
          <path class="st2" d="M226,72.9c6.1-.5,13.4-.4,14.4,7.2v45c-1,7.5-8.1,7.5-14.1,7.1s-6.9-2.7-7.7-6.7v-46c.7-3.8,3.5-6.3,7.4-6.6Z"/>
          <path class="st2" d="M257.2,72.9c6-.5,13.2-.5,14.4,6.9v45.6c-.6,4-3.7,6.5-7.7,6.8-6.1.4-13.2.3-14.1-7.2v-45c.5-4,3.4-6.7,7.4-7.1Z"/>
        </g>
      </g>
    </g>
  </g>
</svg>