<?xml version="1.0" encoding="UTF-8"?>
<svg id="Calque_1" xmlns="http://www.w3.org/2000/svg" version="1.1" viewBox="0 0 178.4 190.7">
  <!-- Generator: Adobe Illustrator 29.8.3, SVG Export Plug-In . SVG Version: 2.1.1 Build 3)  -->
  <defs>
    <style>
      .st0 {
        fill: #f79c79;
      }

      .st1 {
        fill: #fedd7c;
      }

      .st2 {
        fill: #f0b818;
      }

      .st3, .st4 {
        fill: #fff;
      }

      .st5 {
        fill: #e8e4e6;
      }

      .st4 {
        stroke: #000;
        stroke-miterlimit: 10;
      }

      .st6 {
        fill: #e9e4e3;
      }

      .st7 {
        fill: #d48252;
      }

      .st8 {
        fill: none;
      }

      .st9 {
        fill: #e0e0e0;
      }

      .st10, .st11 {
        fill: #feca35;
      }

      .st12 {
        fill: #b5b0ae;
      }

      .st13 {
        fill: #52576b;
      }

      .st14 {
        fill: #cfc9c7;
      }

      .st15 {
        fill: #ded7d5;
      }

      .st16 {
        fill: #d9d5d7;
      }

      .st17 {
        fill: #ff503f;
      }

      .st18 {
        fill: #ffb091;
      }

      .st19 {
        fill: #a4a2a1;
      }

      .st20 {
        fill: #a25e41;
      }

      .st21 {
        fill: #ff6e6e;
      }

      .st22 {
        fill: #a7473f;
      }

      .st11 {
        display: none;
      }

      .st23 {
        fill: #c7c3c2;
      }

      .st24 {
        fill: #eb4a39;
      }

      .st25 {
        fill: #ededed;
      }

      .st26 {
        fill: #434657;
      }
    </style>
  </defs>
  <path class="st4" d="M177.9,110.8c0,12.6-2.9,24.5-8.1,35.1-4.3,8.7-10.1,16.5-17.1,23-.3.3-.6.6-.9.9-1.3,1.2-2.7,2.4-4.1,3.5-3.3,2.6-6.9,5-10.6,7.1-.8.4-1.6.9-2.4,1.3h0c-4.1,2.1-8.5,3.9-13,5.2-.1,0-.2,0-.3,0-2,.6-4.1,1.1-6.2,1.6,0,0-.1,0-.2,0-.6.1-1.2.2-1.8.4-1.2.2-2.4.4-3.5.6-.8.1-1.6.2-2.4.3-2.9.3-5.8.5-8.7.5-9.4,0-18.4-1.6-26.7-4.6-2-.7-3.9-1.5-5.8-2.3-16.1-7.2-29.3-19.6-37.6-35.1h0c-1.2-2.3-2.3-4.6-3.3-7-.5-1.1-.9-2.2-1.3-3.4-2.7-7.5-4.3-15.5-4.7-23.8h0c0-.5,0-1.1,0-1.6,0,0,0-.2,0-.3,0-.5,0-.9,0-1.4s0-.5,0-.8c0-.2,0-.3,0-.5,0-.7,0-1.3,0-2,0-1.1.1-2.1.2-3.2,0-.4,0-.8.1-1.2.1-1.6.3-3.2.6-4.7h0c2.5-16.1,9.8-30.5,20.4-41.9h0c3.1-3.4,6.5-6.4,10.1-9.2,2-1.6,4.2-3,6.4-4.4h0s0,0,0,0c1.7-1,3.4-2,5.2-2.9,0,0,.1,0,.2,0,0,0,0,0,0,0,0,0,0,0,0,0,0,0,0,0,0,0,0,0,0,0,.1,0,0,0,.1,0,.2,0,.1,0,.2-.1.3-.2.1,0,.3-.1.4-.2,0,0,.1,0,.2,0,0,0,0,0,.1,0,0,0,0,0,.1,0,0,0,.1,0,.2,0,3.1-1.5,6.3-2.8,9.5-3.8,0,0,0,0,0,0,0,0,0,0,0,0,1.1-.4,2.3-.7,3.5-1.1.1,0,.2,0,.4,0,.1,0,.2,0,.4,0,2.8-.8,5.6-1.3,8.6-1.8.2,0,.4,0,.6,0h0c.2,0,.4,0,.6,0,.5,0,1-.1,1.5-.2h0c3-.4,6.1-.5,9.2-.5s.2,0,.4,0h0c1.9,0,3.8,0,5.7.2h0c.3,0,.5,0,.8,0h0c.4,0,.7,0,1.1,0,2.6.3,5.2.7,7.8,1.2.3,0,.7.1,1,.2h0c.3,0,.5.1.8.2,1.8.4,3.6.9,5.4,1.5.2,0,.4.1.5.2.2,0,.4.1.5.2.8.2,1.6.5,2.4.8h0c2.4.8,4.7,1.8,7,2.9.1,0,.2,0,.4.2.1,0,.2,0,.4.2.6.3,1.2.6,1.9.9,2.9,1.5,5.7,3.2,8.4,5,.2.2.5.3.7.5.2.2.4.3.6.5.2.1.3.2.5.3,0,0,.1,0,.2.1.3.2.7.5,1,.8,0,0,.1,0,.2.1,0,0,0,0,.1,0,0,0,.2.1.3.2,0,0,.2.1.2.2.2.2.4.3.6.5.6.4,1.1.9,1.7,1.4,0,0,.1.1.2.2,0,0,.1,0,.2.2,3.2,2.6,6.1,5.5,8.8,8.7,0,0,.1.2.2.3,0,0,.2.2.2.3,11.9,13.9,19.1,31.9,19.1,51.6Z"/>
  <path class="st18" d="M.1,131c0-.5.2-.9.4-1.3.2-.4.4-.6.6-.9,0,0-.3-.4-.6-.8-.2-.5-.4-1.1-.3-1.9,0-.6.3-1,.6-1.3.2-.3.5-.5.6-.6-.5-.5-.8-1.1-1-1.7-.1-.6-.1-1.3.1-1.9.3-.8,1-1.4,1.8-1.7.8-.3,1.8-.4,2.7,0,0-.2,0-.5-.1-.8,0-.3,0-.7,0-1,0-.5,0-.9,0-1.3,0-.3,0-.6.2-.8.4-.6,1-.9,1.8-1.1.7-.2,1.6-.2,2.2,0,.8.1,1.5.5,2,.8.5.4.9.7,1,1,0-.3,0-.7,0-1.1,0-.4.1-.9.4-1.5.4-1,1.1-1.9,1.9-2.5.8-.6,1.7-1,2.5-.8.6.1.9.5,1.4,1.4.5,1,1.1,2.5,2.2,5,.3.7.6,1.6,1,2.4s.8,1.8,1.2,2.8h0s0,0,0,0c.2.2.3.4.5.7.2.2.4.4.6.7.4.4,1,1.1,1.8,1.8.8.7,1.7,1.6,2.9,2.4,2.5,1.8,4.2,2.6,5.4,3.2,1.2.6,1.9,1,2.4,2,.5,1.1.5,2.5.1,3.7-.4,1.3-1.1,2.5-1.9,3.4-1.6,1.6-3.8,2.2-6.4,2.2-2.6,0-5.6-.5-8.7-1-.3,0-.5,0-.8-.2-.3,0-.5-.2-.8-.3-.6-.3-.9-.6-1.3-.9-.4-.3-.7-.6-1.4-.9-.3-.1-.5-.2-.7-.2-.2,0-.4,0-.5-.1,0,0-.2,0-.3,0,0,0-.2,0-.3,0-.7.2-1.4.3-2.1.4-.7,0-1.4,0-2.1,0-.6,0-1.6-.2-2.7-.6-1.1-.4-2.4-1-3.6-2-.5-.4-1.3-1.1-1.9-1.8-.6-.8-1-1.7-.9-2.7Z"/>
  <g>
    <path class="st23" d="M8.1,135.4c2.6-5.2,7.3-14.4,12.5-24.6l-6.1-2.9-12.3,24.6s-.2,2.1,2,3.2c2.3,1.1,3.8-.3,3.8-.3Z"/>
    <path class="st19" d="M14.6,108l-2.5,4.9c1.8,1.4,3.7,2.6,5.7,3.4.9-1.8,1.8-3.6,2.8-5.5l-6.1-2.9Z"/>
    <path class="st19" d="M8.7,119.7l-1.3,2.6c1.6,1.5,3.5,2.8,5.5,3.7.5-1,1.1-2.1,1.7-3.2-2.1-.7-4-1.7-5.9-3Z"/>
    <path class="st19" d="M11.5,128.8c-1.9-1.1-3.5-2.8-5-4.7l-1.4,2.7c1.8,1.2,3.8,2.2,5.8,3,.2-.3.3-.7.5-1Z"/>
    <path class="st19" d="M8.1,135.4c.4-.9.9-1.8,1.5-2.9-1.9-1.1-3.6-2.5-5.3-4l-2,4.1s-.2,2.1,2,3.2c2.3,1.1,3.8-.3,3.8-.3Z"/>
    <path class="st6" d="M10.5,116.2l-.7,1.4c1.7,1.4,3.5,2.8,5.5,3.7.5-.9,1-1.9,1.5-2.9-2.1-.6-4.2-1.5-6.3-2.3Z"/>
    <path class="st20" d="M3.6,129.4l-1.6,3.1s-.3,2.3,2.2,3.5c2.5,1.2,4.2-.3,4.2-.3.4-.8.9-1.9,1.4-3l-2.2-1.2c-.2.3-.3.7-.5,1,0,0-.6.5-1.4.1-.8-.4-.7-1.2-.7-1.2l.5-1-2-1.1Z"/>
  </g>
  <g>
    <path class="st7" d="M26.4,112.4c0,0,.9-1.8,1-1.9.7-1.8-1.7-3.1-7.3-5.8-5.6-2.7-7.5-3.8-8.6-2.2,0,0-1.1,1.8-1.1,1.9-.9,1.8.5,4.2,6.4,7.1,5.9,2.8,8.7,2.5,9.6.9Z"/>
    <path class="st20" d="M27.5,110.2c.7-1.5-.8-3.7-6.7-6.4-5.9-2.8-8.7-2.6-9.4-1.1-.7,1.5.8,3.7,6.7,6.4,5.9,2.8,8.7,2.6,9.4,1.1Z"/>
    <path class="st12" d="M62.6,32.1c1.3-7.1-3.9-13.3-3.9-13.3L16.3,105.8l2.8,1.8,3,1c8.2-16.7,38.6-72.4,40.6-76.5Z"/>
    <path class="st15" d="M62.6,32.1c1.3-7.1-3.9-13.3-3.9-13.3v.2c-.1,0-1.8,15.9-1.8,15.9l5.7-2.8s0,0,0-.1Z"/>
    <path class="st14" d="M57,34.8L19.1,107.6l2.9,1.2c8.2-16.5,38.2-71.8,40.6-76.6l-5.5,2.6Z"/>
  </g>
  <path class="st18" d="M12.5,116.6c0,.2.3.8.3,1.5,0,.7,0,1.5-.5,2.2-.6.7-1.6,1.1-2.9,1-1.3,0-2.8-.7-4.1-1.9,0,0,.4.3.6.7.3.4.5.9.6,1.6,0,0,0,.4,0,.8,0,.4-.2.9-.5,1.3-.4.6-1.1,1-2,1.1-.8.2-1.8,0-2.8-.3.6-.2,1.2-.1,1.7,0,.5.2.9.5,1.1.9.2.4.2.9,0,1.3-.1.4-.3.7-.3.7-.3.5-.7.8-1.1,1-.4.2-.7.3-.8.3.2,0,.4,0,.8,0,.3,0,.7.1,1.1.3.5.3.9.7,1.2,1.1.3.4.5.9.5,1.4.1,1-.3,2-.9,2.7-.6.7-1.4,1.2-2.1,1.1-.6,0-1.1-.6-1.4-1.1-.3-.5-.5-1.1-.6-1.3-.1-.3-.3-.8-.4-1.2,0-.5,0-1,.1-1.4,0,0,.1-.2.2-.4,0-.2.1-.4.1-.7,0-.1,0-.2,0-.3,0,0,0-.1,0-.2-.1-.4-.2-.9-.3-1.4,0-.5,0-1,.2-1.5.1-.3.3-.4.4-.6.1-.2.3-.3.4-.7,0-.2,0-.4,0-.5,0-.2,0-.3,0-.4,0-.4,0-1,.3-1.6.2-.6.5-1.2,1-1.6.4-.3.9-.6,1.3-.8.5-.2.8-.3,1-.3,0,0,0,0,0,0,0,0,0,0,.1,0,.1,0,.2-.1.3-.2,0,0,0-.1.1-.1,0,0,.6-.9,1.4-1.6.8-.8,1.8-1.5,2.7-1.6.2,0-.5-2-.2-1.9.3,0,1.6.5,2,.8l1.4,2Z"/>
  <path class="st18" d="M14.5,117.8c0,.2.3.8.3,1.5,0,.7,0,1.5-.5,2.2-.6.7-1.6,1.1-2.9,1-1.3,0-2.8-.7-4.1-1.9,0,0,.4.3.6.7.3.4.5.9.6,1.6,0,0,0,.4,0,.8,0,.4-.2.9-.5,1.3-.4.6-1.1,1-2,1.1-.8.2-1.8,0-2.8-.3.6-.2,1.2-.1,1.7,0,.5.2.9.5,1.1.9.2.4.2.9,0,1.3-.1.4-.3.7-.3.7-.3.5-.7.8-1.1,1-.4.2-.7.3-.8.3.2,0,.4,0,.8,0,.3,0,.7.1,1.1.3.5.3.9.7,1.2,1.1.3.4.5.9.5,1.4.1,1-.3,2-.9,2.7-.6.7-1.4,1.2-2.1,1.1-.6,0-1.1-.6-1.4-1.1-.3-.5-.5-1.1-.6-1.3-.1-.3-.3-.8-.4-1.2,0-.5,0-1,.1-1.4,0,0,.1-.2.2-.4,0-.2.1-.4.1-.7,0-.1,0-.2,0-.3,0,0,0-.1,0-.2-.1-.4-.2-.9-.3-1.4,0-.5,0-1,.2-1.5.1-.3.3-.4.4-.6.1-.2.3-.3.4-.7,0-.2,0-.4,0-.5,0-.2,0-.3,0-.4,0-.4,0-1,.3-1.6.2-.6.5-1.2,1-1.6.4-.3.9-.6,1.3-.8.5-.2.8-.3,1-.3,0,0,0,0,0,0,0,0,0,0,.1,0,.1,0,.2-.1.3-.2,0,0,0-.1.1-.1,0,0,.6-.9,1.4-1.6.8-.8,1.8-1.5,2.7-1.6.2,0-.5-2-.2-1.9.3,0,1.6.5,2,.8l1.4,2Z"/>
  <path class="st24" d="M37.1,131.5c.8.4,3,1.4,6.9,1.9,3.9.5,9.3.5,16.4-1,9.1-2,14.2-6.2,18.5-9.8,4.3-3.6,7.9-6.5,13.9-6,3.3.3,6.6,1.6,9.3,3.5,2.7,1.9,4.9,4.5,5.9,7.4,2,5.8-.9,11.9-4.4,16.7-3.6,4.8-7.8,8.2-8.4,8.7-6.3,5.1-13.4,7.2-19.7,8.1-6.2.9-11.6.4-14.6.1-10.9-.9-20-4.8-27-9-7-4.2-11.9-8.9-14.4-11.4.9-.5,2-1.2,3.2-2.1,1.2-.9,2.5-2.1,3.7-3.5,1.3-1.6,2.3-3.2,3.1-4.6.7-1.4,1.2-2.7,1.6-3.7.6.7,1.4,1.5,2.4,2.3,1,.8,2.2,1.7,3.6,2.4Z"/>
  <path class="st10" d="M107.1,189.8c-2.9.3-5.8.5-8.7.5-9.4,0-18.4-1.6-26.7-4.6.1-1.5.2-3,.3-4.6.2-3,.3-6.2.4-9.7l1.3.5,3.9,1.5,16.6,6.5c1.1-.9,2-1.4,2.8-1.6,0,0,.1,0,.2,0,.7-.2,1.3-.2,1.8-.1,2.1.3,4,2.1,5.5,5,.3.5.6,1.1.8,1.7.5,1.1,1,2.4,1.3,3.7.1.4.2.8.3,1.2Z"/>
  <path class="st10" d="M147.6,173.2c-3.3,2.6-6.9,5-10.6,7.1-.8.4-1.6.9-2.4,1.3h0c-4.1,2.1-8.5,3.9-13,5.2-.1,0-.2,0-.3,0-2,.6-4.1,1.1-6.2,1.6,0,0-.1,0-.2,0-.6.1-1.2.2-1.8.4,0-.1,0-.2.1-.4.4-1.2.8-2.4,1.2-3.4,0,0,0-.2.1-.3h0c.3-.8.7-1.5,1.1-2.1.2-.3.3-.6.5-.9,1.4-2.1,3-3.4,4.7-3.7.2,0,.4,0,.7,0,.4,0,.8,0,1.3.2.2,0,.4.1.6.2.7.3,1.4.7,2.2,1.4l9.4-3.7,12.5-4.9c0,.7,0,1.3,0,1.9Z"/>
  <path class="st17" d="M151.7,169.7c-1.3,1.2-2.7,2.4-4.1,3.5-3.3,2.6-6.9,5-10.6,7.1-.8.4-1.6.9-2.4,1.3h0c-4.1,2.1-8.5,3.9-13,5.2-.1,0-.2,0-.3,0-2,.6-4.1,1.1-6.2,1.6,0,0-.1,0-.2,0-.6.1-1.2.2-1.8.4-1.2.2-2.4.4-3.5.6-.8.1-1.6.2-2.4.3-2.9.3-5.8.5-8.7.5-9.4,0-18.4-1.6-26.7-4.6-2-.7-3.9-1.5-5.8-2.3.1-1,.2-2,.3-2.8,0-.1,0-.2,0-.4h0c0-.2,0-.3,0-.4.2-2.5.5-5,.7-7.5.3-2.5.5-5,.8-7.4,0,0,0,0,0,0l.4-3.4c.4-3.5.7-7,1.1-10.5.5-4.6,1-9.3,1.5-13.9,0-.2,0-.5,0-.7h0c.2-2.1.5-4.2.8-6.3.1-.8.3-1.6.5-2.3.3-1.5.8-3,1.4-4.4.3-.8.7-1.6,1.1-2.4.3-.5.5-1,.9-1.5.1-.2.3-.4.4-.6.3-.5.6-.9,1-1.4,0,0,0,0,0,0,.3-.4.6-.8.9-1.2,0-.1.2-.2.3-.3.3-.4.6-.7.9-1.1.5-.6,1.1-1.1,1.6-1.7,0,0,0,0,.1-.1.5-.5,1-1,1.6-1.4.4-.3.8-.7,1.2-1,.3-.2.6-.5.9-.7.2-.2.4-.3.6-.5,2-1.5,3.9-2.7,5.8-3.9.5-.3,1-.6,1.5-.9,2.5-1.4,4.9-2.5,7-3.2h20.6c.6.3,1.2.6,1.8.9,0,0,.2.1.3.2,1.9.9,3.7,1.8,5.5,2.8,2.2,1.2,4.4,2.5,6.5,4,.1,0,.2.2.3.2.2,0,.3.2.5.3.4.3.8.6,1.2.9,1.5,1.2,3,2.6,4.3,4.1,0,0,.1.1.2.2.2.2.4.5.6.8.1.1.2.3.3.4.1.1.2.3.4.4.2.3.5.7.7,1,.3.4.6.8.8,1.2.2.3.4.6.5.9.1.2.3.5.4.7.5.9.9,1.8,1.3,2.7h0s0,0,0,0c.9,2.2,1.4,4.4,1.8,6.7.4,2.3.6,4.7.9,7,.3,2.9.6,5.9.9,8.9.1,1.2.2,2.3.4,3.5.4,4.1.9,8.2,1.3,12.4,0,0,0,0,0,0,.3,2.5.5,5,.8,7.5,0,.1,0,.3,0,.4Z"/>
  <path class="st24" d="M115.1,188.5c0,0-.1,0-.2,0-.6.1-1.2.2-1.8.4-1.2.2-2.4.4-3.5.6.3-1.3.5-2.7.7-4.1.1-.8.2-1.6.3-2.4h0c0-.2,0-.4,0-.5.2-1.7.4-3.3.5-4.6.2-1.5.3-2.5.5-2.5.2,0,.7,1.1,1.2,3,.1.5.3,1,.4,1.5.2.8.4,1.6.6,2.5,0,.2,0,.3.1.5.1.7.3,1.4.4,2.1h0c0,.1,0,.2,0,.3.2.9.4,1.9.6,2.9,0,.2,0,.3,0,.5Z"/>
  <path class="st24" d="M111,141.2c1.6,0,2.4-1.3,2.4-2.5,0-1.3-.8-2.5-2.4-2.5s-2.4,1.3-2.4,2.5c0,1.3.8,2.5,2.4,2.5h0Z"/>
  <path class="st24" d="M111,148.6c1.6,0,2.4-1.3,2.4-2.5,0-1.3-.8-2.5-2.4-2.5s-2.4,1.3-2.4,2.5c0,1.3.8,2.5,2.4,2.5h0Z"/>
  <path class="st24" d="M111,163.7c1.6,0,2.4-1.3,2.4-2.5,0-1.3-.8-2.5-2.4-2.5s-2.4,1.3-2.4,2.5c0,1.3.8,2.5,2.4,2.5h0Z"/>
  <path class="st13" d="M152.6,168.8c-.3.3-.6.6-.9.9-1.3,1.2-2.7,2.4-4.1,3.5-3.3,2.6-6.9,5-10.6,7.1-.7.1-1.5.2-2.2.3h0c-4.9.8-9.8,1.3-14.7,1.7-.4,0-.8,0-1.2,0-.1,0-.2,0-.4,0-1,0-1.9.1-2.9.2-.6,0-1.1,0-1.7,0-1.1,0-2.2.1-3.3.2h0c-.3,0-.7,0-1,0-1.7,0-3.3,0-5,.1-1.1,0-2.1,0-3.2,0-9.8,0-19.6-.7-29.4-2.1-1.9-.2-3.7-.5-5.6-.8,0,0-.1,0-.2,0-.3,0-.5-.2-.6-.4-.2-.3-.3-.6-.3-.9.2-2.1.4-4.2.6-6.4.2-2.1.4-4.2.6-6.4,0-.4.2-.7.5-.9.2-.1.4-.2.6-.2.1,0,.2,0,.4,0,2.3.4,4.6.8,6.9,1.1,2.3.3,4.6.6,6.9.8,5.3.5,10.7.8,16,.9.8,0,1.5,0,2.3,0,.6,0,1.2,0,1.8,0h.2c.5,0,.9,0,1.4,0,.6,0,1.3,0,1.9,0,.5,0,.9,0,1.4,0,.5,0,1.1,0,1.6,0,.7,0,1.5,0,2.2,0,.6,0,1.1,0,1.7,0,.5,0,1,0,1.5,0,.7,0,1.3,0,2-.1.2,0,.3,0,.4,0,.4,0,.8,0,1.2,0,.1,0,.2,0,.3,0,.6,0,1.2-.1,1.8-.2,1.5-.1,2.9-.3,4.3-.4,1.2-.1,2.4-.3,3.6-.4,1.3-.2,2.5-.3,3.8-.5.8,0,1.5-.2,2.3-.3,5.6-.9,11.1-2,16.6-3.3.1,0,.3,0,.4,0,.2,0,.4,0,.6.2.3.2.5.5.5.9.2,2,.4,3.9.6,5.9Z"/>
  <path class="st10" d="M121.4,169.4c-.1-.1-.2-.2-.3-.3-.6-.5-1.2-.9-1.8-1.3,0,0-.2-.1-.3-.2-.4-.2-.7-.4-1.1-.5-.2.2-.4.4-.6.6-.2.2-.3.3-.5.4-.3.2-.6.5-.9.7.5.1.9.2,1.4.4.3.1.7.3,1,.4.4.2.8.4,1.1.6.2,0,.3.2.5.3.4-.2.9-.3,1.4-.5.2,0,.5-.2.7-.3-.2-.2-.3-.3-.5-.5ZM114,167.3c-.5,0-1,0-1.5,0,0-.1,0-.3.1-.4.1-.4.3-.8.4-1.2-.5,0-1.1-.1-1.6-.2-.2,0-.4,0-.6,0-.9,0-1.9,0-2.8.2-.5,0-1.1.2-1.6.3.2.5.4,1,.5,1.5,0,0,0,.2.1.3.2.4.3.9.5,1.3.5-.1,1-.3,1.5-.4.4,0,.9-.2,1.3-.2.2,0,.3,0,.5,0,.4,0,.8,0,1.2,0,.3,0,.7,0,1,0,.5,0,1,0,1.5.2,0,0,.2,0,.3,0,.4-.5.7-1,1.1-1.5-.7,0-1.3,0-2,.1ZM121.4,169.4c-.1-.1-.2-.2-.3-.3-.6-.5-1.2-.9-1.8-1.3,0,0-.2-.1-.3-.2-.4-.2-.7-.4-1.1-.5-.2.2-.4.4-.6.6-.2.2-.3.3-.5.4-.3.2-.6.5-.9.7.5.1.9.2,1.4.4.3.1.7.3,1,.4.4.2.8.4,1.1.6.2,0,.3.2.5.3.4-.2.9-.3,1.4-.5.2,0,.5-.2.7-.3-.2-.2-.3-.3-.5-.5ZM114,167.3c-.5,0-1,0-1.5,0,0-.1,0-.3.1-.4.1-.4.3-.8.4-1.2-.5,0-1.1-.1-1.6-.2-.2,0-.4,0-.6,0-.9,0-1.9,0-2.8.2-.5,0-1.1.2-1.6.3.2.5.4,1,.5,1.5,0,0,0,.2.1.3.2.4.3.9.5,1.3.5-.1,1-.3,1.5-.4.4,0,.9-.2,1.3-.2.2,0,.3,0,.5,0,.4,0,.8,0,1.2,0,.3,0,.7,0,1,0,.5,0,1,0,1.5.2,0,0,.2,0,.3,0,.4-.5.7-1,1.1-1.5-.7,0-1.3,0-2,.1ZM121.4,169.4c-.1-.1-.2-.2-.3-.3-.6-.5-1.2-.9-1.8-1.3,0,0-.2-.1-.3-.2-.4-.2-.7-.4-1.1-.5-.2.2-.4.4-.6.6-.2.2-.3.3-.5.4-.3.2-.6.5-.9.7.5.1.9.2,1.4.4.3.1.7.3,1,.4.4.2.8.4,1.1.6.2,0,.3.2.5.3.4-.2.9-.3,1.4-.5.2,0,.5-.2.7-.3-.2-.2-.3-.3-.5-.5ZM114,167.3c-.5,0-1,0-1.5,0,0-.1,0-.3.1-.4.1-.4.3-.8.4-1.2-.5,0-1.1-.1-1.6-.2-.2,0-.4,0-.6,0-.9,0-1.9,0-2.8.2-.5,0-1.1.2-1.6.3.2.5.4,1,.5,1.5,0,0,0,.2.1.3.2.4.3.9.5,1.3.5-.1,1-.3,1.5-.4.4,0,.9-.2,1.3-.2.2,0,.3,0,.5,0,.4,0,.8,0,1.2,0,.3,0,.7,0,1,0,.5,0,1,0,1.5.2,0,0,.2,0,.3,0,.4-.5.7-1,1.1-1.5-.7,0-1.3,0-2,.1ZM121.4,169.4c-.1-.1-.2-.2-.3-.3-.6-.5-1.2-.9-1.8-1.3,0,0-.2-.1-.3-.2-.4-.2-.7-.4-1.1-.5-.2.2-.4.4-.6.6-.2.2-.3.3-.5.4-.3.2-.6.5-.9.7.5.1.9.2,1.4.4.3.1.7.3,1,.4.4.2.8.4,1.1.6.2,0,.3.2.5.3.4-.2.9-.3,1.4-.5.2,0,.5-.2.7-.3-.2-.2-.3-.3-.5-.5ZM114,167.3c-.5,0-1,0-1.5,0,0-.1,0-.3.1-.4.1-.4.3-.8.4-1.2-.5,0-1.1-.1-1.6-.2-.2,0-.4,0-.6,0-.9,0-1.9,0-2.8.2-.5,0-1.1.2-1.6.3.2.5.4,1,.5,1.5,0,0,0,.2.1.3.2.4.3.9.5,1.3.5-.1,1-.3,1.5-.4.4,0,.9-.2,1.3-.2.2,0,.3,0,.5,0,.4,0,.8,0,1.2,0,.3,0,.7,0,1,0,.5,0,1,0,1.5.2,0,0,.2,0,.3,0,.4-.5.7-1,1.1-1.5-.7,0-1.3,0-2,.1ZM124,173.4c0-.2-.1-.4-.2-.6-.3-.7-.7-1.4-1.1-2-.2-.3-.5-.5-.7-.8-.2-.2-.3-.3-.5-.5-.1-.1-.2-.2-.3-.3-.6-.5-1.2-.9-1.8-1.3,0,0-.2-.1-.3-.2-.4-.2-.7-.4-1.1-.5,0,0-.1,0-.2,0-.4-.2-.8-.3-1.2-.5-.4-.1-.8-.3-1.2-.4-.1,0-.2,0-.4,0-.6-.1-1.2-.2-1.7-.3-.5,0-1.1-.1-1.6-.2-.2,0-.4,0-.6,0-.9,0-1.9,0-2.8.2-.5,0-1.1.2-1.6.3-.5.1-1.1.3-1.6.4-.5.2-1,.4-1.5.6-.4.2-.7.3-1,.5,0,0,0,0-.1,0,0,0,0,0,0,0-.4.2-.7.4-1,.7-.3.2-.6.4-.8.6,0,0,0,0,0,0-.6.5-1.2,1.1-1.7,1.8-.5.7-.9,1.5-1.2,2.3-.3.8-.4,1.8-.4,2.7,0,.8.2,1.6.5,2.3,0,.1,0,.2.1.4.3.8.8,1.6,1.3,2.2.5.7,1.1,1.2,1.8,1.7.3.2.5.4.8.6.4.2.8.5,1.2.7.9.4,1.9.8,2.8,1,.5.1,1,.2,1.5.3,1.1.2,2.2.2,3.3.2.4,0,.8,0,1.2,0,.2,0,.4,0,.5,0,.8,0,1.6-.2,2.4-.4,0,0,.1,0,.2,0h0s0,0,0,0c.4,0,.8-.2,1.1-.3.6-.2,1.2-.4,1.8-.7.8-.3,1.5-.7,2.2-1.2.1,0,.2-.2.3-.2.5-.3,1-.7,1.4-1.1.5-.5,1-1.1,1.5-1.7.2-.3.4-.6.5-1,.2-.4.3-.7.5-1.1,0-.2.1-.4.2-.7.1-.5.2-1.1.2-1.7,0-.6-.1-1.1-.3-1.7ZM121.3,178.4c-.3.5-.8.9-1.2,1.3-.5.4-1,.8-1.5,1.1-.8.4-1.6.8-2.4,1-.4.1-.7.2-1.1.3-.4,0-.8.2-1.2.2-.8.1-1.7.2-2.5.1-.2,0-.4,0-.5,0,0,0,0,0-.2,0-1,0-2-.2-3-.5-1.2-.3-2.3-.8-3.3-1.3-.5-.3-1-.6-1.4-1-.4-.4-.8-.8-1.1-1.2-.3-.4-.5-.8-.7-1.3-.2-.4-.3-.9-.3-1.3,0-.5,0-.9.2-1.4.1-.4.4-.9.6-1.3.3-.4.6-.8,1-1.2.3-.3.7-.6,1.1-.9,0,0,0,0,0,0,0,0,.1,0,.2-.1.3-.2.7-.4,1.1-.6.1,0,.2-.1.3-.2.5-.2,1-.5,1.5-.6.1,0,.2,0,.3-.1,0,0,.2,0,.3,0,.5-.1,1-.3,1.5-.4.4,0,.9-.2,1.3-.2.2,0,.3,0,.5,0,.4,0,.8,0,1.2,0,.3,0,.7,0,1,0,.5,0,1,0,1.5.2,0,0,.2,0,.3,0,.3,0,.6.1.9.2.5.1.9.2,1.4.4.3.1.7.3,1,.4.4.2.8.4,1.1.6.2,0,.3.2.5.3,0,0,0,0,0,0,.5.4.9.8,1.3,1.2.3.4.6.9.8,1.4,0,0,0,0,0,.1.2.5.4,1.1.4,1.7,0,.6,0,1.1-.3,1.7,0,0,0,.2,0,.3-.1.3-.3.7-.5,1,0,.1-.1.2-.2.3ZM114,167.3c-.5,0-1,0-1.5,0,0-.1,0-.3.1-.4.1-.4.3-.8.4-1.2-.5,0-1.1-.1-1.6-.2-.2,0-.4,0-.6,0-.9,0-1.9,0-2.8.2-.5,0-1.1.2-1.6.3.2.5.4,1,.5,1.5,0,0,0,.2.1.3.2.4.3.9.5,1.3.5-.1,1-.3,1.5-.4.4,0,.9-.2,1.3-.2.2,0,.3,0,.5,0,.4,0,.8,0,1.2,0,.3,0,.7,0,1,0,.5,0,1,0,1.5.2,0,0,.2,0,.3,0,.4-.5.7-1,1.1-1.5-.7,0-1.3,0-2,.1ZM121.4,169.4c-.1-.1-.2-.2-.3-.3-.6-.5-1.2-.9-1.8-1.3,0,0-.2-.1-.3-.2-.4-.2-.7-.4-1.1-.5-.2.2-.4.4-.6.6-.2.2-.3.3-.5.4-.3.2-.6.5-.9.7.5.1.9.2,1.4.4.3.1.7.3,1,.4.4.2.8.4,1.1.6.2,0,.3.2.5.3.4-.2.9-.3,1.4-.5.2,0,.5-.2.7-.3-.2-.2-.3-.3-.5-.5ZM114,167.3c-.5,0-1,0-1.5,0,0-.1,0-.3.1-.4.1-.4.3-.8.4-1.2-.5,0-1.1-.1-1.6-.2-.2,0-.4,0-.6,0-.9,0-1.9,0-2.8.2-.5,0-1.1.2-1.6.3.2.5.4,1,.5,1.5,0,0,0,.2.1.3.2.4.3.9.5,1.3.5-.1,1-.3,1.5-.4.4,0,.9-.2,1.3-.2.2,0,.3,0,.5,0,.4,0,.8,0,1.2,0,.3,0,.7,0,1,0,.5,0,1,0,1.5.2,0,0,.2,0,.3,0,.4-.5.7-1,1.1-1.5-.7,0-1.3,0-2,.1ZM121.4,169.4c-.1-.1-.2-.2-.3-.3-.6-.5-1.2-.9-1.8-1.3,0,0-.2-.1-.3-.2-.4-.2-.7-.4-1.1-.5-.2.2-.4.4-.6.6-.2.2-.3.3-.5.4-.3.2-.6.5-.9.7.5.1.9.2,1.4.4.3.1.7.3,1,.4.4.2.8.4,1.1.6.2,0,.3.2.5.3.4-.2.9-.3,1.4-.5.2,0,.5-.2.7-.3-.2-.2-.3-.3-.5-.5ZM114,167.3c-.5,0-1,0-1.5,0,0-.1,0-.3.1-.4.1-.4.3-.8.4-1.2-.5,0-1.1-.1-1.6-.2-.2,0-.4,0-.6,0-.9,0-1.9,0-2.8.2-.5,0-1.1.2-1.6.3.2.5.4,1,.5,1.5,0,0,0,.2.1.3.2.4.3.9.5,1.3.5-.1,1-.3,1.5-.4.4,0,.9-.2,1.3-.2.2,0,.3,0,.5,0,.4,0,.8,0,1.2,0,.3,0,.7,0,1,0,.5,0,1,0,1.5.2,0,0,.2,0,.3,0,.4-.5.7-1,1.1-1.5-.7,0-1.3,0-2,.1ZM121.4,169.4c-.1-.1-.2-.2-.3-.3-.6-.5-1.2-.9-1.8-1.3,0,0-.2-.1-.3-.2-.4-.2-.7-.4-1.1-.5-.2.2-.4.4-.6.6-.2.2-.3.3-.5.4-.3.2-.6.5-.9.7.5.1.9.2,1.4.4.3.1.7.3,1,.4.4.2.8.4,1.1.6.2,0,.3.2.5.3.4-.2.9-.3,1.4-.5.2,0,.5-.2.7-.3-.2-.2-.3-.3-.5-.5ZM114,167.3c-.5,0-1,0-1.5,0,0-.1,0-.3.1-.4.1-.4.3-.8.4-1.2-.5,0-1.1-.1-1.6-.2-.2,0-.4,0-.6,0-.9,0-1.9,0-2.8.2-.5,0-1.1.2-1.6.3.2.5.4,1,.5,1.5,0,0,0,.2.1.3.2.4.3.9.5,1.3.5-.1,1-.3,1.5-.4.4,0,.9-.2,1.3-.2.2,0,.3,0,.5,0,.4,0,.8,0,1.2,0,.3,0,.7,0,1,0,.5,0,1,0,1.5.2,0,0,.2,0,.3,0,.4-.5.7-1,1.1-1.5-.7,0-1.3,0-2,.1ZM121.4,169.4c-.1-.1-.2-.2-.3-.3-.6-.5-1.2-.9-1.8-1.3,0,0-.2-.1-.3-.2-.4-.2-.7-.4-1.1-.5-.2.2-.4.4-.6.6-.2.2-.3.3-.5.4-.3.2-.6.5-.9.7.5.1.9.2,1.4.4.3.1.7.3,1,.4.4.2.8.4,1.1.6.2,0,.3.2.5.3.4-.2.9-.3,1.4-.5.2,0,.5-.2.7-.3-.2-.2-.3-.3-.5-.5Z"/>
  <path class="st2" d="M115.8,177.4c1.2,0,2.4-.1,3.7-.2,1.2,0,2.4-.1,3.7-.2,1.2,0,1.8-1,1.8-2,0-.9-.7-1.8-1.9-1.8-1.2,0-2.4.1-3.7.2-1.2,0-2.4.1-3.7.2-1.2,0-1.8,1-1.8,2,0,.9.7,1.8,1.9,1.8h0Z"/>
  <path class="st26" d="M106.3,178c1.6,0,2.4-1.3,2.4-2.5,0-1.3-.8-2.5-2.4-2.5s-2.4,1.3-2.4,2.5c0,1.3.8,2.5,2.4,2.5h0Z"/>
  <path class="st26" d="M90.8,178c1.6,0,2.4-1.3,2.4-2.5,0-1.3-.8-2.5-2.4-2.5s-2.4,1.3-2.4,2.5c0,1.3.8,2.5,2.4,2.5h0Z"/>
  <path class="st26" d="M75.3,176.3c1.6,0,2.4-1.3,2.4-2.5,0-1.3-.8-2.5-2.4-2.5s-2.4,1.3-2.4,2.5.8,2.5,2.4,2.5h0Z"/>
  <path class="st24" d="M169.7,145.8c-4.3,8.7-10.1,16.5-17.1,23-.3.3-.6.6-.9.9-1.3,1.2-2.7,2.4-4.1,3.5-3.3,2.6-6.9,5-10.6,7.1-.8.4-1.6.9-2.4,1.3,0,0,0,0,0,0,0-.2,0-.5.1-.8,0,0,0,0,0,0h0c0-.5.1-1,.2-1.6,0-.4,0-.8,0-1.2,0-.4,0-.8,0-1.2s0-.3,0-.4c0-.7,0-1.4-.1-2.2,0-.4,0-.8-.2-1.2,0,0,0,0,0,0,0-.4-.1-.7-.2-1-.2-.8-.4-1.6-.6-2.4,0-.2-.1-.4-.2-.6-.2-.6-.4-1.1-.6-1.6,0-.2-.2-.5-.3-.7,0-.1-.1-.3-.2-.4.4-.3.7-.6,1.1-.8,2.5-1.9,5-3.9,7.4-5.8,2.8-2.2,5.7-4.4,8.5-6.6-.1-1.6-.3-3.2-.5-5,0-.5-.1-1.1-.2-1.7-.2-1.2-.4-2.4-.6-3.7-.4-2-.8-3.9-1.3-5.5-.4-1.7-.9-3.1-1.2-4.2-.6-1.8-1.3-3.8-2.2-6-.2-.6-.5-1.2-.7-1.7,0-.2-.2-.4-.2-.5-.3-.7-.6-1.4-1-2.1-.2-.4-.4-.7-.5-1.1-.2-.5-.5-1-.8-1.5v-.3c0,0,.8-2.9.8-2.9v-.4c.1,0,.3-1,.3-1,.3,0,.7.2,1.1.3.5.1,1,.3,1.6.5.3,0,.6.2.9.3.6.2,1.3.5,2,.8.6.2,1.2.5,1.8.8.2,0,.4.2.6.3.5.2,1,.5,1.5.8,1.9,1.1,3.9,2.4,5.8,4,1.2,1,2.4,2.2,3.6,3.5,3.5,3.9,5.6,7.9,6.9,11.3,1.3,3.4,1.8,6.3,2.1,8Z"/>
  <g>
    <g>
      <path class="st18" d="M73.9,74.2c-.9-1.9-2.2-3.6-3.9-4.8-1.6-1.2-3.5-1.9-5.6-2.1-3.1-.2-5.9,1-8,2.7-2.1,1.8-3.4,4.1-3.6,6.1-.1,2,1,3.2,2.3,4.7,1.3,1.5,2.9,3.4,3.7,6.7.6,2.3.4,4,.4,5.3,0,1.3,0,2.2.8,3,.7.6,1.8,1,3.8.7,2-.3,4.8-1.1,8.8-3.1l1.3-19.3Z"/>
      <path class="st0" d="M72,80c-.9-1.3-2.1-2.2-3.3-2.7-1.2-.5-2.5-.6-3.6-.2-1.3.5-2,1.5-2.5,2.6s-.6,2.2-.7,2.8c0,.4-.2,1.8,0,3.3.2,1.5.9,3.1,2.5,3.8,1.1.5,2.6.5,3.9,0,1.4-.5,2.7-1.5,3.6-2.9v-6.5Z"/>
      <path class="st0" d="M70.1,74.7c-.4-.4-.9-.8-1.4-1.1-.5-.3-1-.6-1.6-.8-.3-.1-.6-.2-.9-.3-.3,0-.6-.1-.9-.2-.3,0-.6,0-1,0-.3,0-.6,0-1,0-.6,0-1.3.2-1.9.4-.6.2-1.2.5-1.7.9-.5.4-1,.8-1.4,1.3-.4.5-.7,1.1-.9,1.7.2-.6.4-1.2.7-1.8.3-.6.8-1.1,1.3-1.5.5-.5,1.1-.8,1.7-1.1.6-.3,1.3-.5,2-.6.4,0,.7-.1,1.1-.1.4,0,.7,0,1.1,0,.4,0,.7,0,1.1,0,.4,0,.7.1,1.1.2.7.2,1.4.4,2,.8s1.3.7,1.8,1.2l-.7.6-.7.6Z"/>
    </g>
    <g>
      <path class="st18" d="M147,74.2c.9-1.9,2.2-3.6,3.9-4.8,1.6-1.2,3.5-1.9,5.6-2.1,3.1-.2,5.9,1,8,2.7,2.1,1.8,3.4,4.1,3.6,6.1.1,2-1,3.2-2.3,4.7-1.3,1.5-2.9,3.4-3.7,6.7-.6,2.3-.4,4-.4,5.3,0,1.3,0,2.2-.8,3-.7.6-1.8,1-3.8.7-2-.3-4.8-1.1-8.8-3.1l-1.3-19.3Z"/>
      <path class="st0" d="M148.9,80c.9-1.3,2.1-2.2,3.3-2.7,1.2-.5,2.5-.6,3.6-.2,1.3.5,2,1.5,2.5,2.6.4,1.1.6,2.2.7,2.8,0,.4.2,1.8,0,3.3-.2,1.5-.9,3.1-2.5,3.8-1.1.5-2.6.5-3.9,0-1.4-.5-2.7-1.5-3.6-2.9v-6.5Z"/>
      <path class="st0" d="M150.8,74.7c.4-.4.9-.8,1.4-1.1.5-.3,1-.6,1.6-.8.3-.1.6-.2.9-.3.3,0,.6-.1.9-.2.3,0,.6,0,.9,0,.3,0,.6,0,1,0,.6,0,1.3.2,1.9.4.6.2,1.2.5,1.7.9.5.4,1,.8,1.4,1.3.4.5.7,1.1.9,1.7-.1-.6-.4-1.2-.7-1.8-.3-.6-.8-1.1-1.3-1.5-.5-.5-1.1-.8-1.7-1.1-.6-.3-1.3-.5-2-.6-.3,0-.7-.1-1.1-.1-.4,0-.7,0-1.1,0-.4,0-.7,0-1.1,0-.4,0-.7.1-1.1.2-.7.2-1.4.4-2,.8-.6.3-1.3.7-1.8,1.2l.7.6.7.6Z"/>
    </g>
    <path class="st18" d="M151.7,89.6c-.9,10-5.7,19.9-13,27.2-7.3,7.3-17.2,12-28.3,11.7-10.8-.3-20.1-5.3-26.9-12.5-6.8-7.3-11.2-16.9-12.1-26.5-1-11.4,2.9-23.1,9.9-31.9,7.1-8.9,17.3-15,29.1-15.3,12.1-.3,23,5.6,30.5,14.5,7.6,8.9,11.9,20.9,10.8,32.7Z"/>
    <path class="st25" d="M155.5,131.7c-3.6,13-11.5,22.4-19.7,28.9-8.2,6.5-16.8,10.2-21.8,12-.5.2-.9.3-1.3.5-.4.1-.8.3-1.1.4-.2,0-.4.1-.5.2-.2,0-.3,0-.5.1,0,0,0,0,0,0,0,0,0,0,0,0,0,0,0,0-.1,0,0,0,0,0-.1,0,0,0-.2,0-.2,0,0,0-.1,0-.1,0h0s0,0,0,0c0,0-.1,0-.2,0,0,0-.1,0-.2,0-.2,0-.4-.2-.6-.3-.2,0-.5-.2-.7-.3-.5-.2-1.1-.5-1.8-.8-.7-.3-1.4-.7-2.1-1.1-4.8-2.5-11.7-6.8-18.4-13.3-6.6-6.5-13-15.2-16.7-26.6-2.6-7.9-3.3-15.4-3.1-21.7.1-6.3,1.1-11.5,2-14.9-.6-4.3-1.2-10.7-.3-17.5.9-6.7,3.2-13.8,8.3-19.5,1.9-2.1,4.2-4.1,6.2-5.4,2-1.3,3.5-2,4-1.5.5.5-.8,2.2-2.6,5.2-1.8,3-4.2,7.3-5.7,12.9-.8,2.9-1.2,5.8-1.5,8.3-.3,2.5-.3,4.7-.4,6.1h0c0,.2,0,.4,0,.5,0,.2,0,.3,0,.4,0,0,0,0,0,0s0,0,0,0c0,.3,0,.5,0,.8s0,.5,0,.8c0,1,0,1.9.1,2.5,0,.7.1,1.2.1,1.5,0,.4,0,.7.1,1.1,0,.4.1.7.2,1.1,0,0,0,.1,0,.2,0,0,0,.1,0,.2,0,.4.2.8.2,1.2,0,.4.2.8.3,1.2.4,1.5,1.1,3.7,2.1,6.1,1,2.3,2.4,4.8,4.3,6.8,0,0,0,0,0,0,0,0,0,0,0,0,.2.2.4.4.5.5.2.2.4.4.6.5h0c.1,0,.2.2.3.3.1,0,.2.2.3.3,0,0,0,0,0,0,0,0,0,0,0,0,0,0,.1.1.2.2,0,0,.2.1.2.2.6.4,1.2.7,1.8,1,.6.3,1.3.5,2,.7.8.2,1.7.3,2.6.4.9,0,1.9,0,2.8-.1.2,0,.5,0,.7-.1.2,0,.5,0,.7-.1.3,0,.7-.2,1-.3.3-.1.6-.2.9-.4,0,0,0,0,0,0,0,0,0,0,0,0,.3-.1.7-.3,1-.5.3-.2.6-.4.9-.6,0,0,0,0,0,0,0,0,0,0,0,0,.2-.2.4-.4.6-.6.2-.2.4-.4.5-.6.8-1,1.1-2.1,1.5-3.1.4-1,.9-2,2.1-2.8.8-.6,1.6-.9,2.4-1,.8-.2,1.6-.2,2.3-.2h0c.7,0,1.4,0,2.3.2s1.7.5,2.4,1c1.1.8,1.6,1.8,2.1,2.8.4,1,.7,2.1,1.5,3.1.2.3.5.6.8.9.3.3.6.5.9.7,0,0,0,0,0,0,0,0,0,0,0,0,.3.2.6.4.9.5.3.2.6.3,1,.4,0,0,0,0,0,0,0,0,0,0,0,0,.1,0,.3.1.4.1.1,0,.3,0,.4.1.2,0,.5.1.7.2.2,0,.5,0,.7.1,1,.2,2.1.2,3.1.2,1,0,2-.2,2.8-.4.6-.1,1.2-.3,1.7-.6.5-.2,1.1-.5,1.6-.8.2-.1.4-.3.6-.4.2-.1.4-.3.6-.4,0,0,.1,0,.2-.1,0,0,.1,0,.2-.1,0,0,0,0,0,0,0,0,0,0,0,0,.3-.3.6-.6.9-.9.3-.3.6-.6.9-.9,0,0,0,0,0,0,0,0,0,0,0,0,1.7-2,2.9-4.3,3.8-6.5.9-2.2,1.5-4.3,1.9-5.7.1-.4.2-.9.3-1.3,0-.4.2-.9.3-1.3,0,0,0-.2,0-.6,0-.4.1-.9.2-1.4,0,0,0-.2,0-.3,0,0,0-.2,0-.3,0-.3,0-.7.1-1,0-.4,0-.7,0-1.1,0-.5,0-1.1,0-1.6,0-.5,0-1,0-1.6,0-.3,0-.6,0-.9,0-.3,0-.6,0-.9h0c0-.5,0-.9,0-1.3,0-.4,0-.8,0-1.2-.3-6.6-1.5-11.8-2.6-15.4-1.1-3.5-2.2-5.4-2.2-5.4-1.4-2.5-2.8-4.4-3.9-5.7-1-1.4-1.7-2.2-1.4-2.5.4-.4,2,.4,4,1.8,2,1.3,4.3,3.1,6,4.8,1.9,1.8,4.8,5.1,7,11,2.2,5.8,3.7,14.2,2.8,25.9,1.2,2.8,3,7.9,3.9,14.3,1,6.4,1,14.3-1.3,22.7Z"/>
    <path class="st5" d="M103,78.6c0,2-.7,3.8-1.9,5.2-1.2,1.3-2.8,2.1-4.6,2.1s-3.4-.8-4.6-2.1c-1.2-1.3-1.9-3.2-1.9-5.2s.7-3.9,1.9-5.2c1.2-1.3,2.8-2.1,4.6-2.1s3.4.8,4.6,2.1c1.2,1.3,1.9,3.2,1.9,5.2Z"/>
    <path class="st26" d="M100.3,78.6c0,1.2-.4,2.3-1.1,3-.7.8-1.6,1.3-2.7,1.3s-2-.5-2.7-1.3c-.7-.8-1.1-1.8-1.1-3s.4-2.3,1.1-3c.7-.8,1.6-1.3,2.7-1.3s2,.5,2.7,1.3c.7.8,1.1,1.8,1.1,3Z"/>
    <path class="st16" d="M96.1,75.2c0-.5-.2-1-.6-1.4s-.9-.6-1.4-.6-1,.2-1.4.6-.6.9-.6,1.4.2,1,.6,1.4.9.6,1.4.6,1-.2,1.4-.6.6-.9.6-1.4Z"/>
    <path class="st5" d="M132.5,78.6c0,2-.7,3.8-1.9,5.2-1.2,1.3-2.8,2.1-4.6,2.1s-3.4-.8-4.6-2.1c-1.2-1.3-1.9-3.2-1.9-5.2s.7-3.9,1.9-5.2c1.2-1.3,2.8-2.1,4.6-2.1s3.4.8,4.6,2.1c1.2,1.3,1.9,3.2,1.9,5.2Z"/>
    <path class="st26" d="M129.8,78.6c0,1.2-.4,2.3-1.1,3-.7.8-1.6,1.3-2.7,1.3s-2-.5-2.7-1.3c-.7-.8-1.1-1.8-1.1-3s.4-2.3,1.1-3c.7-.8,1.6-1.3,2.7-1.3s2,.5,2.7,1.3c.7.8,1.1,1.8,1.1,3Z"/>
    <path class="st16" d="M125.6,75.2c0-.5-.2-1-.6-1.4s-.9-.6-1.4-.6-1,.2-1.4.6c-.4.4-.6.9-.6,1.4s.2,1,.6,1.4c.4.4.9.6,1.4.6s1-.2,1.4-.6.6-.9.6-1.4Z"/>
    <path class="st21" d="M98.2,96c0,1.8-1,3.4-2.6,4.6-1.6,1.2-3.8,1.9-6.3,1.9s-4.7-.7-6.3-1.9c-1.6-1.2-2.6-2.8-2.6-4.6s1-3.4,2.6-4.6c1.6-1.2,3.8-1.9,6.3-1.9s4.7.7,6.3,1.9c1.6,1.2,2.6,2.8,2.6,4.6Z"/>
    <path class="st21" d="M139.4,96c0,1.8-1,3.4-2.6,4.6-1.6,1.2-3.8,1.9-6.3,1.9s-4.7-.7-6.3-1.9c-1.6-1.2-2.6-2.8-2.6-4.6s1-3.4,2.6-4.6c1.6-1.2,3.8-1.9,6.3-1.9s4.7.7,6.3,1.9c1.6,1.2,2.6,2.8,2.6,4.6Z"/>
    <path class="st11" d="M283.7,10.7c.9-1.2,1-3,.3-5.6-.7-2.7-2-6.2-3.9-10.9-1.3-3.5-2.3-6.1-3.5-8.7-1.2-2.6-2.6-5.1-4.7-8.5-7.6-12.1-12.5-28-16.7-40.8-4.2-12.8-7.9-22.7-13.1-22.8-3.7-.1-5.8,4.8-9.5,15.4-3.7,10.6-9.1,26.8-19.4,49.4-4.2,9.3-8.1,16.6-10.4,22.2-2.3,5.6-3.1,9.4-1.1,11.4,2.4,2.5,6.9.3,13.6-2.6,6.7-2.8,15.7-6.3,27.3-6.3,11.1,0,20.3,3.2,27.3,5.8,7,2.6,11.7,4.5,13.7,1.9Z"/>
    <path class="st9" d="M144.2,116.6c-1,8.1-2.7,16.2-5.5,23.8-2.8,7.6-6.8,14.6-12.5,20.6-.3.3-1.4,1.3-3.1,2.8-1.7,1.5-3.9,3.5-6.4,6-.5.5-1,1-1.5,1.4-.5.5-.9.9-1.3,1.3-.5.2-.9.3-1.3.5-.4.1-.8.3-1.1.4-.2,0-.4.1-.5.2-.2,0-.3,0-.5.1,0,0,0,0,0,0,0,0,0,0,0,0,0,0,0,0-.1,0,0,0,0,0-.1,0,0,0-.2,0-.2,0,0,0-.1,0-.1,0h0s0,0,0,0c0,0-.1,0-.2,0,0,0-.1,0-.2,0-.2,0-.4-.2-.6-.3-.2-.1-.5-.2-.7-.3-.5-.2-1.1-.5-1.8-.8-.7-.3-1.4-.7-2.1-1.1-.2-.2-.5-.4-.7-.6-.2-.2-.5-.4-.7-.7-2.4-2.2-4.7-4.3-6.4-5.9-1.7-1.6-2.9-2.7-3.1-2.9-5.6-6-9.6-13-12.5-20.6-2.8-7.6-4.5-15.7-5.5-23.8-.5-4.4-.8-8.8-.9-13.2,0-4.4.1-8.8.5-13.2.1-1.4.3-2.8.5-4.2.2-1.4.4-2.8.6-4.2,0,.2,0,.3,0,.5,0,.2,0,.3,0,.4,0,.3,0,.6,0,.8s0,.5,0,.8c0,0,0,0,0,0s0,0,0,0c0,.3,0,.5,0,.8s0,.5,0,.8c0,1,0,1.9.1,2.5,0,.7.1,1.2.1,1.5,0,.4,0,.7.1,1.1,0,.4.1.7.2,1.1,0,.3,0,.6,0,.9,0,.3,0,.6,0,.9-.5,8.3-.3,16.9.9,25.3,1.2,8.4,3.3,16.7,6.5,24.3,1.5,3.6,3.4,7,5.6,10.1,2.2,3.2,4.7,6.1,7.4,8.9,1.3,1.3,2.6,2.6,3.9,3.8,1.4,1.2,2.7,2.4,4.1,3.6.3.2.5.4.8.7.3.2.5.4.8.6-1.1-1.4-2.1-2.9-3.2-4.4-1-1.5-2-3-2.9-4.5-3.8-6-7-12.4-9.5-19.1-2.6-6.7-4.5-13.6-5.7-20.7-.4-2.4-.8-4.9-1-7.3-.3-2.5-.5-4.9-.6-7.4.2.2.4.4.5.5.2.2.4.4.6.5h0c.1,0,.2.2.3.3.1,0,.2.2.3.3,0,0,0,0,0,0,0,0,0,0,0,0,.3,6.3,1.2,12.5,2.6,18.6,1.4,6.1,3.3,12.1,5.7,17.8,1.3,3.1,2.7,6.1,4.3,9,1.6,2.9,3.2,5.8,5,8.6.9,1.4,1.8,2.7,2.8,4,.9,1.3,1.9,2.6,2.9,3.8-.5-1.1-.9-2.3-1.4-3.5-.4-1.2-.9-2.3-1.3-3.5-2.2-6.4-3.9-12.9-5.2-19.5-1.3-6.6-2.1-13.4-2.5-20.1-.1-2.3-.2-4.6-.2-7,0-2.3,0-4.7.1-7,0,0,0,0,0,0,0,0,0,0,0,0,.3-.1.7-.3,1-.5.3-.2.6-.4.9-.6-.4,6.3-.3,12.5.2,18.8.5,6.2,1.4,12.5,2.6,18.6.7,3.2,1.4,6.4,2.3,9.5.9,3.2,1.9,6.3,3,9.4.3.7.5,1.5.8,2.2.3.7.6,1.5.8,2.2.3-.7.6-1.5.8-2.2.3-.7.5-1.5.8-2.2,1.1-3.1,2.1-6.2,3-9.4.9-3.2,1.6-6.3,2.3-9.5,1.3-6.1,2.1-12.2,2.6-18.4.5-6.2.5-12.4.2-18.6.3.2.6.4.9.5.3.2.6.3,1,.4,0,0,0,0,0,0,0,0,0,0,0,0,.1,2.3.1,4.6.1,6.9,0,2.3,0,4.6-.2,6.9-.4,6.8-1.2,13.5-2.5,20.1-1.3,6.6-3,13.2-5.2,19.5-.4,1.2-.8,2.3-1.3,3.5-.4,1.2-.9,2.3-1.4,3.5,1-1.3,2-2.5,2.9-3.8.9-1.3,1.9-2.6,2.8-4,1.8-2.8,3.5-5.7,5-8.6,1.6-2.9,3-6,4.3-9,2.4-5.8,4.4-11.9,5.8-18.1,1.4-6.2,2.3-12.5,2.6-18.8,0,0,0,0,0,0,0,0,0,0,0,0,.3-.3.6-.6.9-.9.3-.3.6-.6.9-.9-.1,2.6-.3,5.2-.6,7.7-.3,2.6-.6,5.1-1.1,7.7-1.2,7.1-3.1,14-5.7,20.7-2.6,6.7-5.8,13.1-9.5,19.1-.9,1.5-1.9,3-2.9,4.5-1,1.5-2.1,2.9-3.2,4.4.3-.2.5-.4.8-.6.3-.2.5-.4.8-.7,1.4-1.2,2.8-2.4,4.1-3.6,1.3-1.2,2.7-2.5,3.9-3.8,2.7-2.8,5.2-5.7,7.4-8.9,2.2-3.2,4.1-6.5,5.6-10.1,3.2-7.7,5.3-15.9,6.5-24.3,1.2-8.4,1.4-17,.9-25.3,0-.7,0-1.4-.1-2.1,0-.7-.1-1.4-.2-2.1,0-.3,0-.7.1-1,0-.4,0-.7,0-1.1,0-.5,0-1.1,0-1.6,0-.5,0-1,0-1.6,0-.3,0-.6,0-.9,0-.3,0-.6,0-.9h0c0-.8,0-1.5,0-2.1,0-.7,0-1.3,0-2,.4,1.9.7,3.9.9,5.8.3,1.9.5,3.9.7,5.9.4,4.4.6,8.8.5,13.2,0,4.4-.4,8.8-.9,13.2Z"/>
    <path class="st26" d="M107.8,124.7c.8.7,1.8,1.1,2.8,1.3,1,.2,2,0,3-.3.8-.3,1.7-.9,2.4-1.7.6-.8,1-1.7.6-2.6,0-.2-.2-.4-.5-.6-.2-.1-.5-.2-.7,0-.6.2-.9.6-1.3,1-.4.4-.7.8-1.2,1.1-.6.4-1.3.6-2,.6-.7,0-1.5-.1-2.1-.4-.4-.2-.9,0-1.1.5-.2.4-.2.9.1,1.2h0Z"/>
    <path class="st25" d="M88.6,72.3c.5-.2,1-.5,1.5-.8.5-.3.9-.7,1.4-.9.7-.4,1.3-.6,2-.8s1.4-.2,2.2-.3c.7,0,1.4,0,2,.1.7.1,1.3.3,1.9.6.7.3,1.3.6,1.9.8.6.2,1.3.3,2,0,.4-.1.8-.4,1-.8.2-.4.3-.9.2-1.3-.5-1.8-2.2-2.6-4.1-2.9-1.9-.3-4-.1-5.5.2-1.2.2-2.9.9-4.4,1.9-1.5.9-2.7,2.2-3,3.5,0,.2,0,.5.2.6.2.2.4.3.6.2h0Z"/>
    <path class="st25" d="M133.9,72.3c-.5-.2-1-.5-1.4-.8-.5-.3-.9-.7-1.4-.9-.7-.4-1.3-.6-2-.8s-1.4-.2-2.2-.3c-.7,0-1.4,0-2,.1-.7.1-1.3.3-1.9.6-.7.3-1.3.6-1.9.8-.6.2-1.3.3-2,0-.4-.1-.8-.4-1-.8-.2-.4-.3-.9-.2-1.3.5-1.8,2.2-2.6,4.1-2.9,1.9-.3,4-.1,5.5.2,1.2.2,2.9.9,4.4,1.9,1.5.9,2.7,2.2,3,3.5,0,.2,0,.5-.2.6-.2.2-.4.3-.6.2h0Z"/>
    <g>
      <path class="st1" d="M87,55c-.2,0-.3,0-.5,0-.2,0-.3,0-.5,0,0,0,0,0,0,0,0,0,0,0,0,0,0,0,0-.2-.1-.2,0,0-.1-.2-.2-.2,0,0,.2-.1.3-.2,0,0,.2-.1.3-.2,0,0,0,0,0-.1,0,0,0,0-.1,0-.1,0-.2,0-.3.1-.1,0-.2,0-.3.1,0,0,0,0,0,0,0,0,0,0,0,0,0-.1,0-.2.1-.3,0-.1,0-.2.1-.3,0-.1,0-.2-.1-.3-.1,0-.3,0-.3.2,0,0,0,0,0,.1,0,0,0,0,0,.1,0,0,0,0,0-.1,0,0,0,0,0-.1,0,0-.2-.1-.3-.1,0,0-.2,0-.2.2,0,0,0,.1,0,.2,0,0,0,.1,0,.2,0,0,0,0,0,0,0,0,0,0,0,0,0,0-.1,0-.2,0,0,0,0,.1,0,.2-.2.2-.4.4-.6.6-.2.2-.4.4-.6.6,0,.1,0,.3,0,.3,0,0,.2.1.3,0,.1-.2.3-.3.5-.4s.3-.2.5-.3c0,0,0,.2,0,.2,0,0,0,.2,0,.2,0,0,0,0,0,0,0,0,0,0,0,0,0,0,0,.2,0,.2,0,0,0,.1.2.2,0,0,0,0,0,.1,0,0,0,0,0,0,0,0,0,0,0,0,0,0,0,0,0,0,0,.1,0,.2.1.2,0,0,.2,0,.2-.1,0-.1,0-.2.1-.3,0-.1,0-.2.1-.3.1,0,.2-.1.3-.2,0,0,.2-.2.2-.3,0,0,.1,0,.2,0,0,0,.1,0,.2,0,0,0,.1.1.2.2,0,0,.1.1.2.2,0,0,.2,0,.3,0,0,0,.2-.1.2-.2,0,0,0,0,.1,0,0,0,0,0,.1,0,.1,0,.2,0,.3-.2,0-.1,0-.2,0-.3,0,0,0,0,0,0,0,0,0,0,0,0,.1,0,.2-.1.2-.2,0-.1,0-.2-.2-.2Z"/>
      <path class="st1" d="M140.8,57.8c0-.1-.1-.3-.2-.4,0,0-.1-.2-.2-.2,0,0-.1-.1-.2-.2,0,0,0-.1,0-.2,0,0,0-.2.1-.2,0,0,0,0,0-.1,0,0,0,0,0,0,0,0,0,0,0-.1h0s0,0,0,0c0,0,0,0,0,0,0,0,0-.2,0-.3,0,0,0,0,0,0,0,0,0,0,0,0,0,0-.1,0-.2,0h0c0,0,0,0,0,.1,0,0,0,0,0,0,0,0-.1.1-.2.2,0,0,0,0-.1.1,0,0-.1.1-.2.2,0,0,0-.1-.1-.2h0c0,0,0-.1-.1-.2,0,0-.1-.1-.2-.1,0,0,0,0,0,0,0,0-.2,0-.2,0s0,0,0,0c0,0,0,0-.1.1,0,0,0,0-.1.1,0,0,0,0,0,0,0,0,0,0,0,0-.2,0-.4,0-.6.2,0,0-.1,0-.2,0-.1,0-.2.1-.3.2,0,0,0,0,0,0,0,0,0,0,0,.2,0,0,0,.1,0,.2,0,0,0,0,0,.1,0,0,0,0,.1,0,0,0,0,0,0,0,0,0,.2,0,.3,0,0,0,0,0,.1,0,0,0,0,0,.1,0h0s0,0,0,0c0,0,0,.2-.1.3h0c0,.2-.2.3-.2.4,0,0,0,0,0,0,0,0,0,.1-.1.2,0,.2-.2.4-.3.6,0,.1,0,.3,0,.3,0,0,.2,0,.3,0,0,0,.1-.2.2-.3h0s0,0,0,0c0,0,0-.1.1-.2,0,0,0-.1.1-.2,0-.1.2-.2.3-.3,0,0,0,0,0,0s0,0,0,0c0,0,0,0,0,0,0,0,0,0,0,0,0,.2-.1.3-.2.5,0,0,0,0,0,0,0,0,0,.1,0,.2,0,0,0,.1-.1.2,0,0,0,0,0,0,0,.1-.1.3-.2.4,0,0,0,.1,0,.2,0,0,0,0,0,.1,0,0,.2,0,.3,0,0,0,0,0,0,0,0,0,0-.1,0-.2,0,0,0,0,0-.1h0c0,0,0-.1,0-.2,0,0,0,0,0,0,0-.1.1-.2.2-.4,0,0,0-.1.1-.2,0,.1.2.2.3.3h0c0,.1.2.2.3.3,0,0,.2.1.4,0,.1,0,.2-.1.2-.2,0-.2,0-.4,0-.6h0c0-.2,0-.3,0-.4,0,0,0-.1,0-.2,0,0,.2,0,.3-.1,0,0,.1,0,.2,0,0,0,0,0,0,0,0,0,0,0,0-.1,0,0,0-.1,0-.2,0,0,0,0,0-.1ZM139.6,58.6h0c0,0,0,.1,0,.1,0,0,0,0,0,0,0,0,0,0,0,0,0,0,0,0,0,0h0s0,0,0,0h0Z"/>
      <path class="st1" d="M130.9,41c0-.1,0-.3-.2-.4,0,0,0,0,0,0h-.5c0,.1-.2.2-.2.2,0,0,.2.2.2.3.2.2.3.4.5.6,0,0,.1,0,.2,0,0,0,0,0,0-.1h0c0-.2,0-.3,0-.5ZM129.8,41.3c0-.1,0-.2-.1-.4,0-.1,0-.2-.1-.3h0s-.3.2-.3.2c0,0,0,0,0,0,0,0,.1.2.2.3,0,.1.1.2.2.3h0c0,0,0,0,0,0,0,0,0,0,0-.1,0,0,0,0,0,0ZM128.1,40.5c0,.2,0,.3.2.4.1,0,.3,0,.4-.2l-.6-.2Z"/>
      <path class="st1" d="M111.7,52.6c0,0-.1,0-.2-.1s-.1,0-.2-.1c0-.1-.2-.3-.3-.4-.1-.1-.2-.3-.3-.4.1,0,.2-.1.3-.2.1,0,.2-.1.3-.2.1,0,.2-.2,0-.4,0-.1-.2-.2-.4-.1,0,0,0,0,0,0,0,0,0,0,0,0,.1-.3.3-.5.4-.8.1-.3.3-.5.4-.8,0-.1,0-.2,0-.3,0,0-.2,0-.3,0-.2.3-.5.5-.8.8-.3.3-.5.5-.8.8,0,0,0,0,0,0,0,0,0,0,0,0,0,0,0-.2,0-.2,0,0,0-.2,0-.2,0-.2-.2-.2-.3-.2-.1,0-.2.2-.2.3,0,0,0,.1,0,.2,0,0,0,.1,0,.2s0,0,0,0c0,0,0,0,0,0h0s0,0,0,0c0,0,0,.2,0,.2,0,0,0,.2,0,.2,0,0-.1,0-.2-.1,0,0-.1,0-.2-.1-.2,0-.3,0-.3,0s0,.3,0,.4c0,0,.2.1.2.2,0,0,.2.1.2.2,0,0-.2.2-.3.3,0,0-.2.2-.3.3,0,0-.2.2-.3.2,0,0-.2.2-.3.2s0,0,0,0c0,0,0,0,0,0,0,.1,0,.2,0,.3,0,0,.2.1.3,0s0,0,0,0c0,0,0,0,0,0h0s0,0,0,0c.1,0,.2-.2.4-.2s.2-.1.4-.2c0,0,.1,0,.2,0,0,0,.1,0,.2,0-.2.3-.3.6-.5.9,0,0,0,.2-.1.3,0,.1-.1.2-.2.4,0,.1,0,.2-.2.3,0,0,0,0,0,0,0,0,0,.1,0,.2,0,0,.1,0,.2,0,0,0,0,0,0,0,0-.1.2-.2.2-.4,0-.1.2-.2.2-.4.2-.3.4-.6.5-.9,0,0,0,0,0,0h0c0,.2.2.2.3.2.1,0,.2-.2.2-.3,0,0,0,0,0,0,0,0,0,0,0,0,0,0,.1,0,.2,0,0,0,.1,0,.2,0,.1,0,.3.2.4.3.1,0,.3.2.4.3.1,0,.2,0,.3,0s.1-.2.1-.3c0,0,0-.1,0-.2,0,0,0-.1-.1-.2ZM110.3,50.8s0,0,0,0c0,0,0,0,0,0,0,0,0,0,0,0,0,0,0,0,0,0,0,0,0,0,0,0,0,0,0,0,0,0Z"/>
      <path class="st8" d="M99.5,43.9s0,0,0,0c0,0,0,0,0,0"/>
      <path class="st1" d="M98.1,44.1c.2.2.4.4.7.6.1,0,.2,0,.3,0,0,0,.2-.2.1-.3,0-.2-.1-.3-.2-.5l-1,.2Z"/>
      <path class="st1" d="M96.2,43.9c0,.1.2.2.4,0,0,0,.1,0,.2-.1,0,0,.1,0,.2-.1,0,0,0,0,0,.1,0,0,0,0,0,.1,0,.1,0,.3.2.3.1,0,.3,0,.4-.1,0-.2.1-.3.2-.5h-1.3Z"/>
      <path class="st1" d="M80.4,61.9c-.1,0-.2,0-.3,0h0c-.2,0-.4,0-.6,0-.3,0-.6,0-.9.1,0,0,0-.2,0-.2,0,0,0-.1,0-.2,0,0,0,0,0,0,0,0,0,0,0,0,0,0,0,0,0,0,0-.1,0-.3-.1-.4,0,0,0,0,0,0,0,0-.1,0-.2,0,0,0-.1,0-.1,0,0,0,0,0,0,0,0,0,0,0,0,0,0,0,0,0,0,0,0,0,0,0-.1,0,0,0-.1,0-.2,0,0,0-.1,0-.2,0-.2,0-.3,0-.5.2,0,0,0,0,0,0,0,0,0,0,0,0-.1,0-.2,0-.3,0,0,0-.1.2,0,.3,0,0,0,0,0,0,0,0,0,0,0,.1-.2.2-.3.4-.4.6-.1.2-.2.5-.3.6,0,.1,0,.2,0,.3,0,0,.2.1.3,0h0c-.1.1,0,.3,0,.4.1,0,.3.1.4,0,0,0,0,0,.1-.1,0,0,0,0,.1-.1,0,0,0,0,0,0,0,0,0,0,0,0,0,0,0,0,.1.1,0,0,0,0,0,0,0,0,0,0,0,0h0c0,0,.1,0,.2,0,0,0,0,0,0,0,0,0,0,0,0-.1,0,0,0,0,0-.1,0,0,0,0,.1,0,0,0,0,0,.1,0,0,0,.2,0,.3.1,0,0,.1,0,.2,0,0,0,0-.1,0-.2s0,0-.1-.1c0,0,0,0-.1-.1,0,0,0,0,0,0,0,0,0,0,0,0,0,.1.2.3.2.5,0,.2.1.3.2.5,0,.2.2.2.3.2s.2-.1.3-.3c0-.2,0-.4,0-.6,0-.2-.1-.4-.2-.6.3,0,.5-.1.8-.2,0,0,.2,0,.3-.1.2,0,.3-.1.5-.2,0,0,0,0,0-.1,0,0,0,0-.1,0ZM76.7,62.4s0,0,0,0c0,0,0,0,0,0,0,0,0,0,0,0,0,0,0,0,0,0,0,0,0,0,0,0,0,0,0,0,0,0ZM77.1,61.9h0s0,0,0,0c0,0,0,0,0,0,0,0,0,0,0,0,0,0,0,0,0,0,0,0,0,0,0-.1,0,0,0,0,0-.1h0Z"/>
      <path class="st1" d="M98.2,54.9s0,0,0,0c0,0,0,0,0,0t0,0h0c.1,0,.1-.2,0-.3,0,0-.1-.2-.2-.2,0,0,0,0,0,0,0,0,0,0,0,0,0,0,0,0,0,0,0,0,0,0,0,0,0,0,0,0,0,0s0,0,0,0c0,0-.2,0-.2,0,0,0-.2,0-.2,0,0,0-.2-.2-.2-.3,0,0-.2-.2-.2-.3v-.5c0-.2,0-.3,0-.5,0,0,0-.2-.2-.2,0,0-.2,0-.2,0,0,0,0,0,0,.1,0,0,0,0,0,.1,0,0-.2,0-.3,0,0,0-.1.2-.1.3,0,.2,0,.4.1.6,0,.2,0,.4.1.6,0,0,0,0-.1,0,0,0,0,0-.1,0,0,0,0,0-.1,0,0,0,0,0,0,.1-.1,0-.2.2-.2.3,0,.1,0,.3.2.3.1,0,.2,0,.3,0,.1,0,.2,0,.3,0,0,0,0,0,0,0,0,0,0,0,0,0-.1,0-.2.2-.3.2,0,0-.2.2-.3.3-.2.2-.1.3,0,.5.1.1.3.2.5,0,0,0,0,0,.1-.1,0,0,0,0,.1-.1,0,.1,0,.2,0,.3,0,.1,0,.2,0,.3,0,.1.2.2.3.2.1,0,.2-.1.2-.3,0-.2,0-.3,0-.5,0-.2,0-.3,0-.5,0,0,0,0,.1,0,0,0,0,0,.1,0,0,0,.1,0,.2,0,0,0,.1,0,.2,0,0,0,.1,0,.2,0,0,0,0,0,.1-.1,0,0,.1,0,.2,0,0,0,.1,0,.2,0,.2,0,.3-.1.3-.3,0-.2-.1-.3-.3-.3Z"/>
      <path class="st1" d="M112.6,40.5c0,.1,0,.2,0,.3,0,0,.1.1.2.2,0,0,0,.2,0,.3s0,.2,0,.3c0,.2.1.3.2.3.1,0,.3,0,.3-.2,0,0,0-.2,0-.2,0,0,0-.2,0-.2,0,0,0,0,.1.1,0,0,0,0,.1.1.1.1.2.1.4,0,.1,0,.2-.1.3-.3,0,0,0,0,0-.1,0,0,0,0,0-.1,0,0,0,0,.1.1,0,0,0,0,.1.1.2.1.4,0,.5,0,.1-.1.2-.3,0-.5,0,0,0,0,0,0,0,0,0,0,0,0t0,0s0,0,0,0c0,0,0,0,0,0,0,0,0,0,0,0h-2.6Z"/>
      <path class="st1" d="M126.6,53.4c0,0,0-.2-.1-.2,0-.1-.2-.3-.3-.4,0,0-.1-.1-.2-.2,0,0-.2-.2-.3-.2,0,0,0-.1.1-.2,0,0,.1-.1.1-.2,0,0,0,0,0,0,0-.1,0-.2-.1-.3,0,0-.3,0-.4,0,0,0,0-.1-.2-.1,0,0-.2,0-.2,0,0,0-.2.1-.2.2,0,0-.1.2-.2.2,0,0,0,0,0,0,0,0,0,0,0,0,0,0,0,0,0,0,0,0,0,0,0,0,0-.1-.1-.2-.2-.4,0-.1-.2-.2-.3-.3-.1-.1-.3-.2-.4-.2-.4-.1-.8,0-1.1,0-.5.2-.8.7-.8,1.3,0,0,0,.2,0,.2s.1,0,.2,0c.2,0,.4,0,.6,0,.2,0,.4,0,.6,0,0,0,.2,0,.3,0h.2c.1,0,.3,0,.4,0,0,.1,0,.2,0,.3,0,0,0,.2-.1.3,0,0-.1.1-.2.2,0,0-.1.1-.2.2-.1.1-.2.2-.4.3-.1.1-.1.3,0,.4,0,0,0,0,0,0,0,.1.2.2.4,0,0,0,.1,0,.2-.1,0,0,.1,0,.2-.1,0,.2-.2.3-.2.5h0c0,.2-.2.3-.2.5,0,.2,0,.3.1.4.1,0,.3,0,.4,0,.1-.2.2-.4.3-.6,0,0,.1-.2.2-.3,0,0,0-.1.1-.2,0,0,0,0,0,0,0,0,0,0,0,0,0,0,0,.1.1.2.1.2.3.3.5.4.3.2.6.3,1,.3,0,0,.2,0,.2-.1,0,0,0-.2,0-.2-.1-.2-.2-.4-.4-.6,0-.1-.1-.2-.2-.3,0,0,0,0,0,0,0-.1-.1-.2-.2-.3,0-.2-.2-.3-.3-.5,0,0,.1,0,.2.1.1,0,.2.2.4.2,0,0,0,0,0,0,.1,0,.3.2.4.2,0,0,0,0,0,0,0,0,.1,0,.2,0s0,0,0,0c0,0,0,0,0,0ZM123.2,51.7c-.2,0-.3,0-.5,0,0,0-.2,0-.2.1,0,0,0,.1,0,.2,0,0,0,0,0,0s0,0,0,0c0-.1.1-.2.2-.2.1-.2.3-.3.5-.3.3,0,.6,0,.8.2-.2,0-.4,0-.5,0ZM125.4,54s0,0,0,0c0,0,.1.2.2.2,0,0,.1.2.2.3-.2,0-.3-.2-.5-.3,0,0,0,0,0,0,0,0-.1-.1-.1-.2-.1-.1-.2-.2-.2-.3h0s0,0,0-.1c0,0,0,0,0-.1,0,0,0,.1.1.2,0,.1.1.2.2.3Z"/>
    </g>
    <path class="st9" d="M112.5,107.7c0,2.5-.8,5-1.8,7.2-1.1,2.2-2.5,4.1-3.8,5.5-4.3,4.3-10.4,6.1-16.6,5.9-6.2-.2-12.3-2.4-16.5-6.1-.6-.6-2.3-2-3.7-4.1-1.4-2.1-2.6-4.7-2.1-7.7.3-1.8,1.1-3.7,2.3-5.2,1.2-1.5,2.8-2.6,4.5-2.7,1,0,2,.3,2.9.8.9.5,1.6,1.1,2,1.7.2.2.3.5.4.7,0,.2.1.3,0,.5,0,0,0,0,0,0,0,0,0,0,0,0-.2.3-.9.1-1.8,0-.9,0-1.8-.1-2.4.5-.4.4-.5,1.2-.5,1.8,0,.7.3,1.4.8,1.7.9.7,2.4-.2,4.8-1.8,2.3-1.6,5.5-4,9.9-6.2,3-1.5,5.7-3,8.3-3.8,2.6-.8,5-1,7.2,0,1.7.8,3,2.1,3.8,3.4.9,1.3,1.4,2.6,1.6,3.4,0,.1,0,.3.1.4,0,.1,0,.2,0,.3,0,0,0,0,0,0,0,0,0,0,0,0,.1.4.2.8.3,1.2,0,.4.1.8.2,1.2,0,.2,0,.5,0,.7,0,.2,0,.5,0,.7Z"/>
    <path class="st25" d="M96.2,117.2c.3,0,.6.2.9.3.2,0,.5.2.7.3,0-.6,0-1.1,0-1.7-.5.4-1.1.8-1.7,1.2ZM96.2,117.2c.3,0,.6.2.9.3.2,0,.5.2.7.3,0-.6,0-1.1,0-1.7-.5.4-1.1.8-1.7,1.2ZM96.2,117.2c.3,0,.6.2.9.3.2,0,.5.2.7.3,0-.6,0-1.1,0-1.7-.5.4-1.1.8-1.7,1.2ZM96.2,117.2c.3,0,.6.2.9.3.2,0,.5.2.7.3,0-.6,0-1.1,0-1.7-.5.4-1.1.8-1.7,1.2ZM113.1,106.9c0-.1-.2-.2-.3-.3-.1,0-.2-.2-.3-.2-.2-.1-.4-.2-.6-.3-.1,0-.3,0-.4-.1,0,0-.1,0-.2,0-.3,0-.6,0-.9,0-1.1-.8-2.6-1.2-4-1.2-1.2,0-2.4.1-3.5.4-.2,0-.5.1-.7.2-.4.1-.8.3-1.1.4-1.2.5-2.3,1.4-3.3,2.2-1.4,1.1-2.7,2.3-4.1,3.3-.4.2-.8.5-1.2.7-2.1,1.2-4.4,2.1-6.9,2.7,0,0,0,0,0,0-.5.1-1,.2-1.6.3h0c-.5,0-1,.1-1.4.1-1.2,0-2.3,0-3.4-.2-.8-.1-1.5-.3-2.2-.6,0,0-.2,0-.2,0h0c-.6-.2-1.2-.5-1.8-.9-.5-.3-.9-.6-1.2-1-.9-.9-1.5-2-1.8-3.3-.1-.7,0-1.4,0-2,.1-.6.3-1.1.6-1.6,0,.2,0,.5,0,.7,0,.3,0,.5,0,.8.2,1.8,1,3.2,2.2,4.2.4.4.9.7,1.3.9.1,0,.3.2.5.2,1.3.6,2.8.9,4.3.8,0,0,.1,0,.2,0,.5,0,.9,0,1.3-.2.5-.1,1-.3,1.5-.4.6-.2,1.1-.5,1.6-.7.6-.3,1.2-.7,1.7-1,.8-.5,1.6-1.1,2.3-1.8,2.2-1.8,4.2-3.7,6.5-5.1,1.9-1.1,3.7-1.4,5.6-1.3.8,0,1.5.1,2.3.3.2,0,.4,0,.7.1,2.4.5,4.8,1.2,7.2,1.1h.1s0,0,0,0c0,0,0,0,0,0,0,0,0,0,.1,0,0,0,.1-.2.1-.2,0,0,0-.2-.1-.3s0,0,0,0c0,0,0,0,0,0,0,0,0,0,0,0,0,0,0,0,0,0-.8-.7-1.7-1.3-2.7-1.8h0s0,0,0,0c0,0,0,0,0,0-1.7-.8-3.6-1.2-5.5-1.3-.5,0-1,0-1.5,0-2.6,0-5.2.8-7.2,2-1.5,1-2.9,2.1-4.2,3.4-.2.2-.4.3-.6.5-1.4,1.4-2.9,2.7-4.6,3.8,0,0,0,0-.1,0-.1,0-.2.2-.4.2-.5.3-1.1.6-1.7.9-.4.2-.8.3-1.2.5,0,0-.2,0-.3,0-.7.2-1.3.3-2,.3-.6,0-1.2,0-1.9-.2-.6-.1-1.3-.4-1.9-.8-.2-.1-.4-.3-.6-.4-.5-.4-.9-.8-1.2-1.2-.2-.3-.4-.6-.5-1-1-2.5-.6-3.8.3-4.5,0,0,.2-.1.3-.2.2,0,.4-.2.6-.2.3,0,.6-.1.9-.2.9,0,2,0,2.9.3,0,0,0,0,0,0,0,0,0,0,0,0,0,0,0,0,.1,0,0,0,0,0,.1,0,.2,0,.3.1.5.2.1,0,.3,0,.4.1h0c0-.1,0-.3,0-.5,0-.2-.2-.4-.4-.7-1.2-.6-2.5-.9-3.7-.8-.2,0-.3,0-.4,0-.3,0-.7.1-1,.2-.1,0-.2,0-.4.1-.9.3-1.6.8-2.2,1.6-.6.6-1.1,1.3-1.4,2.1-.4.8-.6,1.6-.7,2.6-.2,2.8.9,5.2,2.6,7.2.8.9,1.8,1.8,2.9,2.5.2.1.4.2.6.4.4.3.8.5,1.3.7.6.3,1.2.6,1.8.8.7.3,1.4.5,2.1.7,1.2.3,2.5.5,3.7.6.6,0,1.1,0,1.7,0s.6,0,.9,0c.7,0,1.5,0,2.2-.2h0c2.1-.3,4.2-.9,6.1-1.7.8-.3,1.6-.8,2.3-1.2.2-.1.5-.3.7-.4.3-.2.7-.5,1-.7,0,0,0,0,.1-.1,1.2-.9,2.3-1.9,3.3-3,.5-.6,1-1.1,1.4-1.7.2-.2.3-.4.5-.6.7-.8,1.3-1.5,2.2-2.1.9-.7,1.8-1.1,2.7-1.3.5-.1,1-.2,1.5-.4.2,0,.4,0,.6-.2.2,0,.4-.1.7-.2,0,0,.1,0,.2,0,0,0,.1,0,.2,0,.2,0,.2-.2.3-.3,0-.1,0-.3-.1-.4ZM105.8,108c-.3.3-.7.6-.9.9-.7.7-1.3,1.4-2,2.1-1.1,1.2-2.1,2.3-3.1,3.4,0,0,0,0,0,0-.6.6-1.2,1.1-1.8,1.6-.5.4-1.1.8-1.7,1.2-.8.5-1.7.9-2.7,1.3-2,.7-4.1,1.1-6.2,1.2-.3,0-.6,0-.9,0h-.3c-.6,0-1.1,0-1.7,0-.5,0-1-.1-1.5-.2-1.2-.2-2.4-.5-3.6-.9-.9-.3-1.7-.7-2.6-1.2,0,0,0,0,0,0-.6-.3-1.2-.7-1.7-1.1,0,0,0,0,0,0-1.3-1-2.4-2.2-3.1-3.6,0,0,0-.1,0-.2,0,0,0-.1,0-.2.5.7,1.1,1.3,1.8,1.9.4.3.9.7,1.4.9h0c.3.2.6.3.9.5.3.1.6.2.9.3h0c.3.1.7.2,1.1.3,2,.5,4,.6,6.1.4,0,0,.1,0,.2,0,.4,0,.7,0,1.1-.2.2,0,.4,0,.6-.1,3-.5,5.9-1.7,8.3-3.1.9-.5,1.8-1.1,2.6-1.8h0c.3-.2.6-.5.8-.7,1.1-.9,2.2-1.8,3.4-2.5.1,0,.3-.2.5-.2.1,0,.3-.1.4-.2.7-.3,1.5-.5,2.2-.5,1-.1,2,0,3.1,0-.4.3-.8.5-1.1.8ZM96.2,117.2c.3,0,.6.2.9.3.2,0,.5.2.7.3,0-.6,0-1.1,0-1.7-.5.4-1.1.8-1.7,1.2ZM96.2,117.2c.3,0,.6.2.9.3.2,0,.5.2.7.3,0-.6,0-1.1,0-1.7-.5.4-1.1.8-1.7,1.2ZM96.2,117.2c.3,0,.6.2.9.3.2,0,.5.2.7.3,0-.6,0-1.1,0-1.7-.5.4-1.1.8-1.7,1.2ZM96.2,117.2c.3,0,.6.2.9.3.2,0,.5.2.7.3,0-.6,0-1.1,0-1.7-.5.4-1.1.8-1.7,1.2Z"/>
    <path class="st9" d="M111.2,107.7c0,2.5.8,5,1.8,7.2,1.1,2.2,2.5,4.1,3.8,5.5,4.3,4.3,10.4,6.1,16.6,5.9,6.2-.2,12.3-2.4,16.5-6.1.6-.6,2.3-2,3.7-4.1,1.4-2.1,2.6-4.7,2.1-7.7-.3-1.8-1.1-3.7-2.3-5.2-1.2-1.5-2.8-2.6-4.5-2.7-1,0-2,.3-2.9.8-.9.5-1.6,1.1-2,1.7-.2.2-.3.5-.4.7,0,.2-.1.3,0,.5,0,0,0,0,0,0,0,0,0,0,0,0,.2.3.9.1,1.8,0,.9,0,1.8-.1,2.4.5.4.4.5,1.2.5,1.8,0,.7-.3,1.4-.8,1.7-.9.7-2.4-.2-4.8-1.8-2.3-1.6-5.5-4-9.9-6.2-3-1.5-5.7-3-8.3-3.8-2.6-.8-5-1-7.2,0-1.7.8-3,2.1-3.8,3.4-.9,1.3-1.4,2.6-1.6,3.4,0,.1,0,.3-.1.4,0,.1,0,.2,0,.3,0,0,0,0,0,0,0,0,0,0,0,0-.1.4-.2.8-.3,1.2,0,.4-.1.8-.2,1.2,0,.2,0,.5,0,.7,0,.2,0,.5,0,.7Z"/>
    <path class="st25" d="M120.4,110.6c-.5-.6-1-1.1-1.6-1.7-.3-.3-.6-.6-.9-.9-.3-.3-.6-.5-1-.7.1.2.2.5.4.7,0,0,.1.2.2.2,0,.1.1.2.2.3.2.3.5.6.8.9.3.3.6.5,1,.7h0s0,0,0,0c.3.2.6.3.9.5,0,0,0,0,0,0,0,0,.1,0,.2,0,0,0,0-.1-.1-.2ZM120.4,110.6c-.5-.6-1-1.1-1.6-1.7-.3-.3-.6-.6-.9-.9-.3-.3-.6-.5-1-.7.1.2.2.5.4.7,0,0,.1.2.2.2,0,.1.1.2.2.3.2.3.5.6.8.9.3.3.6.5,1,.7h0s0,0,0,0c.3.2.6.3.9.5,0,0,0,0,0,0,0,0,.1,0,.2,0,0,0,0-.1-.1-.2ZM120.4,110.6c-.5-.6-1-1.1-1.6-1.7-.3-.3-.6-.6-.9-.9-.3-.3-.6-.5-1-.7.1.2.2.5.4.7,0,0,.1.2.2.2,0,.1.1.2.2.3.2.3.5.6.8.9.3.3.6.5,1,.7h0s0,0,0,0c.3.2.6.3.9.5,0,0,0,0,0,0,0,0,.1,0,.2,0,0,0,0-.1-.1-.2ZM120.4,110.6c-.5-.6-1-1.1-1.6-1.7-.3-.3-.6-.6-.9-.9-.3-.3-.6-.5-1-.7.1.2.2.5.4.7,0,0,.1.2.2.2,0,.1.1.2.2.3.2.3.5.6.8.9.3.3.6.5,1,.7h0s0,0,0,0c.3.2.6.3.9.5,0,0,0,0,0,0,0,0,.1,0,.2,0,0,0,0-.1-.1-.2ZM153.8,108.6c0-.9-.3-1.8-.7-2.6-.4-.8-.8-1.5-1.4-2.1-.8-1-2-1.6-3.2-1.8-.1,0-.2,0-.3,0-1-.1-2,0-3,.3-.4.1-.8.3-1.1.5-.2.2-.3.5-.4.7s-.1.3,0,.4c0,0,0,0,0,0,.1,0,.3,0,.4-.1.1,0,.3-.1.5-.2,0,0,0,0,.1,0,0,0,0,0,.1,0,0,0,0,0,0,0s0,0,0,0c0,0,.2,0,.3,0,.9-.2,2-.4,2.9-.2.4,0,.8.2,1.2.3,1.1.6,1.7,2,.6,4.7-.3.8-1,1.6-1.8,2.2-.8.6-1.7,1-2.5,1.2-.3,0-.6.1-.9.1-.6,0-1.1,0-1.7,0,0,0,0,0,0,0-.4,0-.9-.2-1.3-.3-1.3-.4-2.5-1-3.5-1.7-.8-.5-1.5-1-2.2-1.6-.2-.2-.4-.3-.5-.5-.7-.6-1.3-1.2-2-1.8-1.4-1.3-2.8-2.5-4.3-3.6h0s0,0,0,0c-.1,0-.3-.2-.4-.3-1.4-.9-3.1-1.5-4.9-1.8-1-.2-2-.3-3-.2h0c-.3,0-.5,0-.8,0-1.9,0-3.8.5-5.5,1.3-.5.2-.9.5-1.4.7-.5.3-1,.7-1.4,1,0,0,0,0,0,0,0,0,0,0,0,0,0,0,0,0,0,0,0,0,0,0,0,0,0,0-.1.2-.1.3s0,.2.1.2,0,0,.1,0c0,0,0,0,0,0,0,0,0,0,0,0h.1c1.1,0,2.1,0,3.2-.3,1.6-.3,3.2-.7,4.7-1,.6-.1,1.1-.2,1.7-.2,0,0,.2,0,.3,0,2-.2,3.9,0,5.9,1.3,2.3,1.4,4.4,3.4,6.5,5.1,0,0,0,0,0,0,.5.4,1,.8,1.5,1.2,1.7,1.2,3.5,2.3,5.6,2.8.2,0,.4,0,.6.1.2,0,.5,0,.8,0,.6,0,1.1,0,1.7,0,1.1-.1,2.2-.5,3.2-1,1.8-1,3.2-2.8,3.5-5.1,0-.3,0-.5,0-.8,0-.2,0-.5,0-.7.3.5.5,1,.7,1.6.1.6.1,1.3,0,2-.2,1.4-.9,2.5-1.8,3.3-.9.9-2,1.5-3.2,2-.8.3-1.6.5-2.5.6-.6,0-1.1.1-1.7.2-.7,0-1.5,0-2.2,0-.1,0-.2,0-.3,0-.7,0-1.3-.2-1.9-.3-.9-.2-1.8-.4-2.7-.8-.5-.2-1.1-.4-1.6-.6-1.3-.5-2.6-1.2-3.7-1.9,0,0,0,0-.1,0-1.4-.9-2.7-2.2-4.1-3.3-1.2-1-2.5-1.9-4-2.5-.2,0-.3-.1-.5-.2-1.3-.4-2.8-.6-4.2-.6-.5,0-1,0-1.5.2-.9.2-1.8.5-2.5,1-.3,0-.6,0-.9,0,0,0-.1,0-.2,0-.1,0-.3,0-.4.1-.2,0-.4.2-.6.3-.1,0-.2.2-.3.2-.1.1-.2.2-.3.3-.1.1-.1.3-.1.4,0,.1.1.2.3.3,0,0,.1,0,.2,0,0,0,.1,0,.2,0,.2,0,.5.1.7.2.2,0,.4.1.6.2.5.1,1,.2,1.5.4.9.2,1.8.6,2.7,1.3.8.6,1.5,1.4,2.1,2.1,0,.1.2.2.2.3.2.2.4.4.5.6.4.5.8.9,1.2,1.4.2.2.5.5.7.7.8.9,1.7,1.7,2.7,2.4,1.2.9,2.6,1.7,4,2.3,1.5.7,3.2,1.2,4.9,1.5.2,0,.4,0,.5,0,.4,0,.7.1,1.1.2.6,0,1.2.1,1.8.1,1.6,0,3.2,0,4.8-.3.2,0,.5-.1.8-.2.6-.1,1.2-.3,1.7-.5.2,0,.3-.1.5-.2.2,0,.4-.1.5-.2,1.5-.6,3-1.4,4.3-2.4.8-.6,1.5-1.3,2.2-2,1.7-2,2.8-4.4,2.6-7.2ZM151.8,112.4c0,0,0,.1,0,.2-.8,1.4-1.9,2.7-3.2,3.7-.4.3-.8.6-1.3.9-1,.6-2,1.1-3,1.5,0,0-.2,0-.3,0-.2,0-.5.2-.7.2-.3.1-.7.2-1,.3h0c-.6.1-1.1.3-1.7.3-1.1.2-2.2.3-3.3.3s-1.1,0-1.7,0c-.2,0-.5,0-.7,0-.6,0-1.1-.2-1.6-.3-1-.2-2-.5-3-.8-2.7-1-4.6-2.4-6.3-4.1-.9-.9-1.7-1.8-2.6-2.8-.2-.3-.5-.6-.8-.8,0,0,0-.1-.1-.2-.5-.6-1-1.1-1.6-1.7-.3-.3-.6-.6-.9-.9-.3-.3-.6-.5-1-.7,0,0,0,0-.1,0,0,0,0,0,0,0,1,0,2-.1,3,0,.7,0,1.3.2,2,.5.3.1.7.3,1,.5,1.2.7,2.3,1.6,3.4,2.5.5.4.9.8,1.4,1.1.6.5,1.3,1,2,1.4,1.3.7,2.7,1.4,4.1,1.9.5.2,1.1.4,1.6.5,1,.3,2.1.6,3.2.7.2,0,.3,0,.5,0,.7,0,1.4.2,2.1.2.2,0,.3,0,.5,0,.3,0,.6,0,.9,0,.6,0,1.1,0,1.7-.1.3,0,.7-.1,1-.2.9-.2,1.8-.5,2.7-.8.8-.4,1.6-.8,2.3-1.4.7-.6,1.3-1.2,1.8-1.9,0,0,0,.1,0,.2ZM120.4,110.6c-.5-.6-1-1.1-1.6-1.7-.3-.3-.6-.6-.9-.9-.3-.3-.6-.5-1-.7.1.2.2.5.4.7,0,0,.1.2.2.2,0,.1.1.2.2.3.2.3.5.6.8.9.3.3.6.5,1,.7h0s0,0,0,0c.3.2.6.3.9.5,0,0,0,0,0,0,0,0,.1,0,.2,0,0,0,0-.1-.1-.2ZM120.4,110.6c-.5-.6-1-1.1-1.6-1.7-.3-.3-.6-.6-.9-.9-.3-.3-.6-.5-1-.7.1.2.2.5.4.7,0,0,.1.2.2.2,0,.1.1.2.2.3.2.3.5.6.8.9.3.3.6.5,1,.7h0s0,0,0,0c.3.2.6.3.9.5,0,0,0,0,0,0,0,0,.1,0,.2,0,0,0,0-.1-.1-.2ZM120.4,110.6c-.5-.6-1-1.1-1.6-1.7-.3-.3-.6-.6-.9-.9-.3-.3-.6-.5-1-.7.1.2.2.5.4.7,0,0,.1.2.2.2,0,.1.1.2.2.3.2.3.5.6.8.9.3.3.6.5,1,.7h0s0,0,0,0c.3.2.6.3.9.5,0,0,0,0,0,0,0,0,.1,0,.2,0,0,0,0-.1-.1-.2ZM120.4,110.6c-.5-.6-1-1.1-1.6-1.7-.3-.3-.6-.6-.9-.9-.3-.3-.6-.5-1-.7.1.2.2.5.4.7,0,0,.1.2.2.2,0,.1.1.2.2.3.2.3.5.6.8.9.3.3.6.5,1,.7h0s0,0,0,0c.3.2.6.3.9.5,0,0,0,0,0,0,0,0,.1,0,.2,0,0,0,0-.1-.1-.2Z"/>
    <path class="st0" d="M118.1,92.6c-.6-1.8-1.4-3.8-2.3-6.2-.8-2.3-1.7-5-2.5-7.9-.2-.9-1-1.3-1.8-1.3s-1.6.4-1.8,1.3c-.8,2.9-1.7,5.5-2.5,7.9-.8,2.3-1.6,4.4-2.3,6.2-1.4,4-2.7,7-3.4,9.7-.7,2.6-.7,4.8.3,6.9.2.3.4.7.5,1,.2.3.4.6.6.9,2.1,2.6,5.3,4,8.6,4s6.5-1.3,8.6-4c.2-.3.4-.6.6-.9.2-.3.4-.6.5-1,1.1-2.2,1-4.3.3-6.9-.7-2.6-2-5.7-3.4-9.7Z"/>
  </g>
  <path class="st18" d="M135,176.6c0,.4,0,.8,0,1.2,0,.4,0,.8,0,1.2,0,.6-.1,1.1-.2,1.6,0,0,0,0,0,0,0,.3,0,.5-.1.8,0,0,0,0,0,0-4.1,2.1-8.5,3.9-13,5.2.2-.6.5-1.2.8-1.8-.3.5-.7,1.2-1.2,1.9-2,.6-4.1,1.1-6.2,1.6,0,0-.1,0-.2,0,0-.2,0-.3,0-.5,0-.2,0-.4.2-.7.5-1.3,1.4-2.5,2.4-3.6.3-.3.5-.6.8-.8.2-.2.3-.3.5-.5,1-.9,1.7-1.5,1.7-1.5,0,0-.9.7-2.1,1.5-.5.4-1,.7-1.6,1.1-.8.5-1.5.9-2.3,1.2,0,0,0,0,0,0h0c0,0-.1,0-.2,0-.9.4-1.8.5-2.4.4-.2,0-.3-.1-.5-.2-.3-.2-.5-.5-.7-.9-.1-.4-.2-.8-.1-1.1,0,0,0,0,0-.1,0-.2,0-.4.1-.5.4-1,1.3-1.9,2.5-2.6.8-.5,1.7-1,2.6-1.4,1-.5,2-.8,2.8-1.1h0c1.2-.4,2-.7,2-.8,0,0-.9.3-2.2.8h0c-.5.2-1.1.4-1.7.5-1.2.3-2.6.5-3.9.4-.6,0-1.2-.2-1.7-.4-.2-.1-.5-.2-.7-.4,0,0-.4-.3-.6-.6-.2-.3-.5-.7-.4-1.2,0-.8.8-1.4,2.2-2,1.3-.6,3.3-1.2,5.7-2,.7-.2,1.6-.5,2.6-.9.4-.2.9-.3,1.4-.5.2,0,.5-.2.7-.3,1.4-.5,2.9-1,4.5-1.7-.4-.2-.8-.5-1.2-.8-.1,0-.3-.2-.4-.3-.2-.2-.5-.4-.7-.7-.4-.3-.7-.7-1.1-1.1-.2-.3-.5-.5-.7-.8-.3-.3-.5-.6-.7-.9-.1-.2-.3-.4-.4-.5-.4-.7-.7-1.4-.5-2,.2-.7.8-1.3,1.6-1.6.8-.3,1.8-.4,2.7-.2.2,0,.4.1.6.2.5.2.9.5,1.3.8.3.3.5.5.8.8.7.8,1.3,1.8,1.9,2.6.2.2.4.5.7.8.2.2.4.4.7.6.2.2.4.3.6.4.4.3.9.6,1.4.9,0,.2.2.4.3.7.2.5.4,1,.6,1.6,0,.2,0,.3.1.5,0,.1,0,.3.1.5,0,.3.2.5.2.8,0,0,0,.1,0,.2,0,.3.2.7.2,1,0,.3.1.7.2,1,0,0,0,0,0,0,0,.4.1.8.2,1.2,0,.8.1,1.5.1,2.2,0,.1,0,.3,0,.4Z"/>
  <path d="M149.9,112.7h0Z"/>
  <path class="st22" d="M152.8,94.6c-.5-2.1-5.9-24.1-14.4-46.9-4.5-12.1-12.4-18-18.3-20.9-6.3-3.1-11.7-3.2-11.7-3.3,0,0-5.4.2-11.7,3.3-5.8,2.8-13.7,8.7-18.3,20.9-8.5,22.8-14.1,46.8-14.6,48.9,0,0,28-54.7,44.6-55,16.6-.4,44.4,53,44.4,53Z"/>
  <g>
    <path class="st22" d="M62.3,40.1c.4-2.5,1.9-5.1,4.1-6.8.5-.4,1.2-.6,1.8-.5,2.3.3,4.3,1,5.5,2.5.2.2.3.5.2.7-.4,3.4-1.2,6.6-2.4,9.8-.3.9-1.4,1.1-2.1.4l-3.1-3.1c-.5-.5-1.4,0-1.2.7,0,0,0,0,0,.1l-2.8-3.8Z"/>
    <path class="st22" d="M70.4,46.5c0,0-.1,0-.2,0-.1,0-.2,0-.4,0,0,0-.1,0-.2,0,0,0-.2-.1-.2-.2l-.7-.7-1.6-1.6-.8-.8c0,0-.2-.1-.3-.2,0,0,0,0,.1.1h0s0,0,.1.1l1.5,1.5s0,0,0,0c.3.3.6.6.8.9l.7.7c.1.1.2.2.4.3h0c0,0,0-.1,0-.1,0,0,.2,0,.3.1t0,0c.1,0,.2,0,.3,0,0,0,0,0,.1,0h0ZM70.4,46.5c0,0-.1,0-.2,0-.1,0-.2,0-.4,0,0,0-.1,0-.2,0,0,0-.2-.1-.2-.2l-.7-.7-1.6-1.6-.8-.8c0,0-.2-.1-.3-.2,0,0,0,0,.1.1h0s0,0,.1.1l1.5,1.5s0,0,0,0c.3.3.6.6.8.9l.7.7c.1.1.2.2.4.3h0c0,0,0-.1,0-.1,0,0,.2,0,.3.1t0,0c.1,0,.2,0,.3,0,0,0,0,0,.1,0h0ZM70.4,46.5c0,0-.1,0-.2,0-.1,0-.2,0-.4,0,0,0-.1,0-.2,0,0,0-.2-.1-.2-.2l-.7-.7-1.6-1.6-.8-.8c0,0-.2-.1-.3-.2,0,0,0,0,.1.1h0s0,0,.1.1l1.5,1.5s0,0,0,0c.3.3.6.6.8.9l.7.7c.1.1.2.2.4.3h0c0,0,0-.1,0-.1,0,0,.2,0,.3.1t0,0c.1,0,.2,0,.3,0,0,0,0,0,.1,0h0ZM70.4,46.5c0,0-.1,0-.2,0-.1,0-.2,0-.4,0,0,0-.1,0-.2,0,0,0-.2-.1-.2-.2l-.7-.7-1.6-1.6-.8-.8c0,0-.2-.1-.3-.2,0,0,0,0,.1.1h0s0,0,.1.1l1.5,1.5s0,0,0,0c.3.3.6.6.8.9l.7.7c.1.1.2.2.4.3h0c0,0,0-.1,0-.1,0,0,.2,0,.3.1t0,0c.1,0,.2,0,.3,0,0,0,0,0,.1,0h0ZM73.7,35.2h0c-1.1-1.4-3-2.2-5.5-2.5-.7,0-1.4,0-1.9.5-2,1.6-3.4,3.8-3.9,6.1,0,.2-.1.5-.1.7,0,0,0,0,0,0h0s0,0,0,0h0c0,.1.1.3.1.3v.2c.1,0,2.8,3.5,2.8,3.5v-.3c0,0,0,0,0-.1,0-.3,0-.6.3-.7.3-.1.6,0,.8.1l.3.3,2.1,2.1.7.7c.1.1.2.2.4.3,0,0,0,0,.1,0h0c0,0,.2,0,.3,0,0,0,.1,0,.2,0s0,0,.1,0c0,0,0,0,0,0,0,0,0,0,.1,0,.2,0,.4-.1.6-.3.2-.1.3-.3.4-.6,0-.2.2-.4.2-.6,0-.2.2-.4.2-.7,0-.2.2-.5.2-.7.9-2.6,1.5-5.2,1.7-7.8,0-.3,0-.6-.2-.8ZM70.5,46.5s0,0-.1,0c0,0-.1,0-.2,0-.1,0-.2,0-.4,0,0,0-.1,0-.2,0,0,0-.2-.1-.2-.2l-.7-.7-1.6-1.6-.8-.8c0,0-.2-.1-.3-.2,0,0-.2,0-.3,0-.1,0-.3,0-.4,0-.3.1-.4.4-.4.7l-2.3-3.1-.2-.2h-.1c0-.1,0-.2,0-.2,0,0,0-.1,0-.2s0,0,0-.2c0-.5.2-1,.4-1.5h0c.7-1.9,1.9-3.6,3.5-4.9.5-.4,1.2-.6,1.8-.5,2.5.3,4.3,1.1,5.4,2.4,0,0,0,0,0,0,.2.2.2.4.2.7-.3,2.6-.8,5.2-1.7,7.8,0,.2-.2.5-.2.7,0,.2-.2.5-.2.7,0,.2-.1.4-.2.6,0,.2-.2.3-.3.5-.2.1-.3.2-.6.3ZM70.4,46.5c0,0-.1,0-.2,0-.1,0-.2,0-.4,0,0,0-.1,0-.2,0,0,0-.2-.1-.2-.2l-.7-.7-1.6-1.6-.8-.8c0,0-.2-.1-.3-.2,0,0,0,0,.1.1h0s0,0,.1.1l1.5,1.5s0,0,0,0c.3.3.6.6.8.9l.7.7c.1.1.2.2.4.3h0c0,0,0-.1,0-.1,0,0,.2,0,.3.1t0,0c.1,0,.2,0,.3,0,0,0,0,0,.1,0h0ZM70.4,46.5c0,0-.1,0-.2,0-.1,0-.2,0-.4,0,0,0-.1,0-.2,0,0,0-.2-.1-.2-.2l-.7-.7-1.6-1.6-.8-.8c0,0-.2-.1-.3-.2,0,0,0,0,.1.1h0s0,0,.1.1l1.5,1.5s0,0,0,0c.3.3.6.6.8.9l.7.7c.1.1.2.2.4.3h0c0,0,0-.1,0-.1,0,0,.2,0,.3.1t0,0c.1,0,.2,0,.3,0,0,0,0,0,.1,0h0ZM70.4,46.5c0,0-.1,0-.2,0-.1,0-.2,0-.4,0,0,0-.1,0-.2,0,0,0-.2-.1-.2-.2l-.7-.7-1.6-1.6-.8-.8c0,0-.2-.1-.3-.2,0,0,0,0,.1.1h0s0,0,.1.1l1.5,1.5s0,0,0,0c.3.3.6.6.8.9l.7.7c.1.1.2.2.4.3h0c0,0,0-.1,0-.1,0,0,.2,0,.3.1t0,0c.1,0,.2,0,.3,0,0,0,0,0,.1,0h0ZM70.4,46.5c0,0-.1,0-.2,0-.1,0-.2,0-.4,0,0,0-.1,0-.2,0,0,0-.2-.1-.2-.2l-.7-.7-1.6-1.6-.8-.8c0,0-.2-.1-.3-.2,0,0,0,0,.1.1h0s0,0,.1.1l1.5,1.5s0,0,0,0c.3.3.6.6.8.9l.7.7c.1.1.2.2.4.3h0c0,0,0-.1,0-.1,0,0,.2,0,.3.1t0,0c.1,0,.2,0,.3,0,0,0,0,0,.1,0h0Z"/>
  </g>
  <path class="st22" d="M154.5,40.3c-.4-2.5-1.9-5.1-4.1-6.8-.5-.4-1.2-.6-1.8-.5-2.3.3-4.3,1-5.5,2.5-.2.2-.3.5-.2.7.4,3.4,1.2,6.6,2.4,9.8.3.9,1.4,1.1,2.1.4l3.1-3.1c.5-.5,1.4,0,1.2.7,0,0,0,0,0,.1l2.8-3.8Z"/>
  <path class="st3" d="M78,52.1c20.3,4.3,40.6,4.3,61,0-9.3,3.5-18.8,5.4-28.5,6.4-1.3.1-2.6.1-3.9,0-8.9-1-18.5-3.4-28.5-6.3Z"/>
  <g>
    <path class="st3" d="M65.7,77.7h4.8v21.9h-3.7c-1.4,0-2.6-1.2-2.6-2.6v-17.8c0-.8.7-1.5,1.5-1.5Z" transform="translate(26.8 -15.1) rotate(15.9)"/>
    <path d="M73.6,78.8l-1.7-.5-2.5-.7-.5-.2h-.4c-.4-.2-.8-.2-1.1,0-.2.1-.4.4-.5.7l-3.1,10.9-2,7.2c0,.1,0,.2,0,.3,0,.4,0,.9.2,1.3.3.5.7.8,1.2,1l3.5,1,.9.2,1.4-4.9,2.2-7.6v-.3c0,0,0,0,0,0l.8-2.7,1.4-4.8h0s.2-.7.2-.7v-.2c0,0,0,0,0,0ZM63,98.5c-.3-.1-.6-.4-.8-.7-.2-.3-.3-.7-.2-1.1,0,0,0,0,0,0h0c0-.1,0-.2,0-.2l2-7.1,3.1-11c0,0,0-.2.1-.3,0-.1.2-.2.3-.3.1,0,.3-.1.5-.1s.2,0,.3,0h.4c0,.1,1.4.5,1.4.5l1.6.5,1.4.4-.5,1.6h0s-.8,2.8-.8,2.8l-.8,2.8h0c0,0-.5,1.7-.5,1.7l-2.1,7.4-1.3,4.5-.6-.2-3.4-1c0,0-.2,0-.3-.1,0,0,0,0,0,0Z"/>
  </g>
  <g>
    <path class="st3" d="M78,51.3c-4.8-.5-9.8-5.9-14.8-12.9-2.6,5.8-4.3,12.5-5,20.1,4.5,4.8,9.6,7.7,15.1,9.7l4.7-16.8Z"/>
    <path d="M76.5,55.9h0s0,0,0,0h0ZM69.7,46.5c-.1,0-.2-.2-.4-.3l-.7-.7c.4.4.7.8,1.1,1.1v-.2ZM76.5,55.9h0s0,0,0,0h0ZM69.7,46.5c-.1,0-.2-.2-.4-.3l-.7-.7c.4.4.7.8,1.1,1.1v-.2ZM76.5,55.9h0s0,0,0,0h0ZM69.7,46.5c-.1,0-.2-.2-.4-.3l-.7-.7c.4.4.7.8,1.1,1.1v-.2ZM76.5,55.9h0s0,0,0,0h0ZM69.4,46.2l-.7-.7c.4.4.7.8,1.1,1.1v-.2c-.2,0-.3-.2-.4-.3ZM78,51.2c-.2,0-.5,0-.7-.1-1.8-.4-3.7-1.4-5.8-3.2-.3-.2-.6-.5-.9-.8-.2-.1-.3-.3-.5-.4,0,0,0,0,0-.1t0,0s0,0,0-.1l-.2-.2c-1.8-1.8-3.7-4.1-5.8-7-.2-.3-.4-.6-.6-.8l-.2-.2v.2c-.3.5-.5.9-.7,1.4,0,0,0,.1,0,.2,0,0,0,0,0,.1,0,0,0,0,0,0,0,0,0,0,0,0-2.2,5.3-3.6,11.5-4.2,18.3h0c0,0,0,.1,0,.1,3.2,3.4,6.9,6.1,11.4,8.2,0,0,.1,0,.2,0,0,0,0,0,.1,0,0,0,0,0,.1,0,0,0,0,0,0,0,0,0,0,0,.1,0,.5.2,1.1.5,1.6.7.5.2,1,.4,1.5.6h.1s.8-2.9.8-2.9l.3-1.2.3-1.1.8-2.7h0s.3-1.1.3-1.1v-.3c.1,0,.3-.7.3-.7h0s.2-.7.2-.7l.2-.7.2-.6v-.2s0-.1,0-.1h0c0-.1,0-.3,0-.3v-.2s.2-.5.2-.5l.3-1.2.7-2.5h-.2ZM76.8,55v.2c0,0-.1.3-.1.3v.2c0,0,0,.1,0,.1h0c0,.1,0,.1,0,.1v.2s-.4,1.1-.4,1.1h0s0,0,0,0l-.2.7-.2.7v.3c0,0-.4,1.1-.4,1.1l-.8,2.7-.3,1.1-.3,1.1-.8,2.8c-.5-.2-.9-.3-1.3-.5-.6-.2-1.1-.5-1.6-.7,0,0,0,0,0,0,0,0,0,0-.1,0,0,0,0,0-.1,0,0,0,0,0-.1,0,0,0-.1,0-.2,0-4.5-2.1-8.2-4.7-11.3-8,.7-6.7,2.1-12.7,4.2-18,0,0,0,0,0,0h0s0,0,0,0c0-.2.1-.3.2-.5.1-.4.3-.7.5-1.1.2.2.3.4.5.6,1.2,1.7,2.4,3.2,3.5,4.5.2.3.4.5.7.8,0,0,0,0,0,0,.3.3.6.6.8.9.4.4.7.8,1.1,1.1.3.3.6.6.9.9.3.3.6.5.9.8,2,1.7,3.8,2.7,5.6,3,.2,0,.4,0,.6.1l-.6,2.2-.3,1.1v.3ZM69.7,46.5c-.1,0-.2-.2-.4-.3l-.7-.7c.4.4.7.8,1.1,1.1v-.2ZM76.5,55.9h0s0,0,0,0h0ZM69.7,46.5c-.1,0-.2-.2-.4-.3l-.7-.7c.4.4.7.8,1.1,1.1v-.2ZM76.5,55.9h0s0,0,0,0h0ZM69.7,46.5c-.1,0-.2-.2-.4-.3l-.7-.7c.4.4.7.8,1.1,1.1v-.2ZM76.5,55.9h0s0,0,0,0h0ZM69.7,46.5c-.1,0-.2-.2-.4-.3l-.7-.7c.4.4.7.8,1.1,1.1v-.2ZM76.5,55.9h0s0,0,0,0h0Z"/>
  </g>
  <g>
    <path class="st3" d="M72.7,55.3h3.7v21.9h-3.7c-1.4,0-2.6-1.2-2.6-2.6v-16.7c0-1.4,1.2-2.6,2.6-2.6Z" transform="translate(20.9 -17.5) rotate(15.9)"/>
    <path d="M77.8,56h-.3c0,0,0,0,0,0h-.4c0-.1-.2-.2-.2-.2h0s0,0,0,0h-.1s-.2,0-.2,0l-.5-.2h-.1s-.4-.1-.4-.1c-.6-.2-1.2-.1-1.8.2,0,0-.1,0-.2.1-.2.1-.4.3-.5.5-.1.1-.2.3-.3.4,0,0,0,.1,0,.2,0,0,0,.1,0,.2v.3c0,0-.3.8-.3.8l-1,3.4-.2.8-.2.8-1,3.4v.2s0,.1,0,.1h0c0,.1,0,.4,0,.4l-.5,1.8-.8,2.8-.4,1.4-.5,1.7c-.1.4,0,.8.2,1.1h0c.1.2.4.3.6.4l.9.3,2.9.8,1.3.4.3-1.1h0s0,0,0,0l3.7-12.9.2-.6.6-2,.2-.6.2-.7.2-.7.5-1.9.2-.6-1.6-.5ZM68.3,76.1c-.3,0-.5-.3-.6-.5,0-.2,0-.4,0-.6l.2-.7.2-.8h0s0-.2,0-.2l.4-1.4.8-2.8.2-.8h0s.3-1,.3-1v-.2c0,0,0-.1,0-.1h0c0-.1,0-.3,0-.3l.9-3.3h0s.2-.8.2-.8l.2-.8,1-3.4.2-.8v-.4c.1,0,.1,0,.2,0,0,0,0-.2,0-.2,0-.1.1-.3.2-.4,0,0,.1-.1.2-.2,0,0,0,0,.1-.1,0,0,.2-.1.2-.2,0,0,0,0,0,0,.1,0,.3-.1.4-.2,0,0,0,0,0,0,.2,0,.3,0,.5,0s.4,0,.6,0h.3c0,0,.7.3.7.3h.2c0,0,0,0,0,0h0s0,0,0,0h.1s.2,0,.2,0h.2c0,0,1.2.4,1.2.4,0,0,0,0,0,0l.6.2v.2c0,0-.6,1.9-.6,1.9l-.2.7-.2.7-.3.9-.7,2.6v.3c0,0-.1,0-.1,0l-3.2,11.3-.6,2.1-1.1-.3-2.9-.8h-.3c0,0-.6-.3-.6-.3Z"/>
  </g>
  <g>
    <path class="st17" d="M65.7,77.7h4.8v21.9h-3.7c-1.4,0-2.6-1.2-2.6-2.6v-17.8c0-.8.7-1.5,1.5-1.5Z" transform="translate(26.8 -15.1) rotate(15.9)"/>
    <path class="st17" d="M73.6,78.6l-1.7-.5-3-.8h-.4c0-.1-.2-.2-.2-.2h0c-.3,0-.6,0-.8.2h0c-.3.2-.6.5-.7.9l-3.1,10.8-2.1,7.3c0,.1,0,.2,0,.3,0,.5,0,1,.3,1.4.3.5.8.9,1.4,1.1l3.5,1h0l1,.3,1.5-5.3h0l2-7.1.2-.8.5-1.9,1.5-5.3h0s.3-1,.3-1h0s.1-.4.1-.4h-.3ZM62.4,97.7c-.2-.3-.2-.6-.2-1,0,0,0-.2,0-.2l2-7.1,3-10.4h0s.2-.6.2-.6c0-.2.2-.3.3-.5.1,0,.2,0,.4,0s.1,0,.2,0h.4c0,.1,1.9.7,1.9.7l1.1.3,1.2.3-.6,2.2h0s-.4,1.3-.4,1.3l-.8,2.8h0c0,0-.8,2.8-.8,2.8l-2,7.2-1.2,4.1h-.4c0-.1-3.4-1.1-3.4-1.1-.4-.1-.8-.4-1-.8Z"/>
  </g>
  <g>
    <path class="st17" d="M78,51.3c-4.8-.5-9.8-5.9-14.8-12.9-2.6,5.8-4.3,12.5-5,20.1,4.5,4.8,9.6,7.7,15.1,9.7l4.7-16.8Z"/>
    <path class="st22" d="M76.5,55.1v.4c0,0-.2.2-.2.2h0c0,.1,0,.2,0,.2h0c0,0,0,.3,0,.3l-.3,1.1v.4c0,0,0-.2.2-.3,0,0,0,0,0,0h0s.3-1.1.3-1.1v-.2s0,0,0,0h0s0-.2,0-.2h0c0-.1,0-.3,0-.3v-.3s0,0-.1-.1ZM75.7,58h0s.1.1.1.1c0,0,0,0-.1-.1ZM70.7,47.5c-.3-.3-.6-.6-.9-.9v-.2c-.2,0-.3-.2-.4-.3l-.7-.7c-.3-.3-.5-.6-.8-.9,0,0,0,0,0,0l-1.5-1.5s0,0-.1,0c0,.1.2.3.3.4,1.2,1.4,2.3,2.6,3.3,3.6.3.3.6.6.9.8v-.3ZM76.5,55.1v.4c0,0-.2.2-.2.2h0c0,.1,0,.2,0,.2h0c0,0,0,.3,0,.3l-.3,1.1v.4c0,0,0-.2.2-.3,0,0,0,0,0,0h0s.3-1.1.3-1.1v-.2s0,0,0,0h0s0-.2,0-.2h0c0-.1,0-.3,0-.3v-.3s0,0-.1-.1ZM75.7,58h0s.1.1.1.1c0,0,0,0-.1-.1ZM70.7,47.5c-.3-.3-.6-.6-.9-.9v-.2c-.2,0-.3-.2-.4-.3l-.7-.7c-.3-.3-.5-.6-.8-.9,0,0,0,0,0,0l-1.5-1.5s0,0-.1,0c0,.1.2.3.3.4,1.2,1.4,2.3,2.6,3.3,3.6.3.3.6.6.9.8v-.3ZM76.5,55.1v.4c0,0-.2.2-.2.2h0c0,.1,0,.2,0,.2h0c0,0,0,.3,0,.3l-.3,1.1v.4c0,0,0-.2.2-.3,0,0,0,0,0,0h0s.3-1.1.3-1.1v-.2s0,0,0,0h0s0-.2,0-.2h0c0-.1,0-.3,0-.3v-.3s0,0-.1-.1ZM75.7,58h0s.1.1.1.1c0,0,0,0-.1-.1ZM70.7,47.5c-.3-.3-.6-.6-.9-.9v-.2c-.2,0-.3-.2-.4-.3l-.7-.7c-.3-.3-.5-.6-.8-.9,0,0,0,0,0,0l-1.5-1.5s0,0-.1,0c0,.1.2.3.3.4,1.2,1.4,2.3,2.6,3.3,3.6.3.3.6.6.9.8v-.3ZM76.5,55.1v.4c0,0-.2.2-.2.2h0c0,.1,0,.2,0,.2h0c0,0,0,.3,0,.3l-.3,1.1v.4c0,0,0-.2.2-.3,0,0,0,0,0,0h0s.3-1.1.3-1.1v-.2s0,0,0,0h0s0-.2,0-.2h0c0-.1,0-.3,0-.3v-.3s0,0-.1-.1ZM75.7,58h.1s0,0-.1,0h0ZM69.7,46.7v-.2c-.2,0-.3-.2-.4-.3l-.7-.7c-.3-.3-.5-.6-.8-.9,0,0,0,0,0,0l-1.5-1.5s0,0-.1,0c0,.1.2.3.3.4,1.2,1.4,2.3,2.6,3.3,3.6.3.3.6.6.9.8v-.3c-.4-.3-.7-.6-1-.9ZM78,51c-.2,0-.5,0-.7,0-1.8-.4-3.8-1.5-5.9-3.4-.3-.3-.6-.5-.9-.8,0,0,0,0,0,0,0,0,0,0,0,0,0,0,0,0,0,0-.2-.2-.5-.5-.7-.7-1.7-1.8-3.5-4-5.5-6.7-.2-.3-.4-.6-.6-.9l-.4-.5-.2.5h0c0,.3-.2.5-.3.7,0,0,0,0,0,0,0,.1-.1.3-.2.4-.1.3-.2.5-.3.8-2.2,5.4-3.6,11.5-4.3,18.4v.2s0,.1,0,.1c3.2,3.5,6.9,6.1,11.5,8.2,0,0,.1,0,.2.1,0,0,0,0,.1,0,0,0,0,0,.1,0,0,0,0,0,0,0,0,0,0,0,.1,0,.5.2,1.1.5,1.6.7.5.2,1,.4,1.5.6h.4c0,.1.9-3,.9-3l.3-1.2.3-1.1h0s.7-2.6.7-2.6l.3-1.1v-.3c0,0,.3-.7.3-.7h0c0,0,.2-.7.2-.7l.3-1.1h0s0-.2,0-.2v-.2c0,0,.1-.1.1-.1h0c0-.1,0-.3,0-.3h0c0,0,0-.4,0-.4l.2-.6h0s.2-.8.2-.8l.5-1.7h0s.3-1.1.3-1.1h-.4ZM76.6,54.9v.2s-.1.4-.1.4v.2c0,0,0,.1,0,.1h0s0,.1,0,.1v.2s-.4,1.1-.4,1.1v.4c-.1,0-.2.3-.2.3h0s-.2.7-.2.7v.3c-.1,0-.4,1.1-.4,1.1l-.8,2.8-.3,1.1-.3,1.1-.7,2.6c-.4-.1-.8-.3-1.1-.4-.6-.2-1.1-.4-1.6-.7,0,0,0,0,0,0,0,0,0,0-.1,0,0,0,0,0-.1,0,0,0,0,0-.1,0,0,0-.1,0-.2,0-4.4-2-8-4.6-11.1-7.9.7-6.6,2-12.5,4.1-17.7,0,0,0,0,0,0,0,0,0,0,0,0,.1-.3.2-.6.4-.9,0-.2.1-.3.2-.5,0,0,.1.2.2.3.9,1.2,1.8,2.4,2.7,3.4,0,0,0,0,.1.1h0c0,.2.2.3.3.4,1.2,1.4,2.3,2.6,3.3,3.6.3.3.6.6.9.8h0c.3.3.6.5.9.8,1.9,1.6,3.7,2.6,5.5,2.9.1,0,.3,0,.4,0l-.5,1.9-.3,1.1v.3ZM70.7,47.5c-.3-.3-.6-.6-.9-.9v-.2c-.2,0-.3-.2-.4-.3l-.7-.7c-.3-.3-.5-.6-.8-.9,0,0,0,0,0,0l-1.5-1.5s0,0-.1,0c0,.1.2.3.3.4,1.2,1.4,2.3,2.6,3.3,3.6.3.3.6.6.9.8v-.3ZM75.7,58h0s.1.1.1.1c0,0,0,0-.1-.1ZM76.5,55.1v.4c0,0-.2.2-.2.2h0c0,.1,0,.2,0,.2h0c0,0,0,.3,0,.3l-.3,1.1v.4c0,0,0-.2.2-.3,0,0,0,0,0,0h0s.3-1.1.3-1.1v-.2s0,0,0,0h0s0-.2,0-.2h0c0-.1,0-.3,0-.3v-.3s0,0-.1-.1ZM70.7,47.5c-.3-.3-.6-.6-.9-.9v-.2c-.2,0-.3-.2-.4-.3l-.7-.7c-.3-.3-.5-.6-.8-.9,0,0,0,0,0,0l-1.5-1.5s0,0-.1,0c0,.1.2.3.3.4,1.2,1.4,2.3,2.6,3.3,3.6.3.3.6.6.9.8v-.3ZM75.7,58h0s.1.1.1.1c0,0,0,0-.1-.1ZM76.5,55.1v.4c0,0-.2.2-.2.2h0c0,.1,0,.2,0,.2h0c0,0,0,.3,0,.3l-.3,1.1v.4c0,0,0-.2.2-.3,0,0,0,0,0,0h0s.3-1.1.3-1.1v-.2s0,0,0,0h0s0-.2,0-.2h0c0-.1,0-.3,0-.3v-.3s0,0-.1-.1ZM70.7,47.5c-.3-.3-.6-.6-.9-.9v-.2c-.2,0-.3-.2-.4-.3l-.7-.7c-.3-.3-.5-.6-.8-.9,0,0,0,0,0,0l-1.5-1.5s0,0-.1,0c0,.1.2.3.3.4,1.2,1.4,2.3,2.6,3.3,3.6.3.3.6.6.9.8v-.3ZM75.7,58h0s.1.1.1.1c0,0,0,0-.1-.1ZM76.5,55.1v.4c0,0-.2.2-.2.2h0c0,.1,0,.2,0,.2h0c0,0,0,.3,0,.3l-.3,1.1v.4c0,0,0-.2.2-.3,0,0,0,0,0,0h0s.3-1.1.3-1.1v-.2s0,0,0,0h0s0-.2,0-.2h0c0-.1,0-.3,0-.3v-.3s0,0-.1-.1ZM70.7,47.5c-.3-.3-.6-.6-.9-.9v-.2c-.2,0-.3-.2-.4-.3l-.7-.7c-.3-.3-.5-.6-.8-.9,0,0,0,0,0,0l-1.5-1.5s0,0-.1,0c0,.1.2.3.3.4,1.2,1.4,2.3,2.6,3.3,3.6.3.3.6.6.9.8v-.3ZM75.7,58h0s.1.1.1.1c0,0,0,0-.1-.1ZM76.5,55.1v.4c0,0-.2.2-.2.2h0c0,.1,0,.2,0,.2h0c0,0,0,.3,0,.3l-.3,1.1v.4c0,0,0-.2.2-.3,0,0,0,0,0,0h0s.3-1.1.3-1.1v-.2s0,0,0,0h0s0-.2,0-.2h0c0-.1,0-.3,0-.3v-.3s0,0-.1-.1Z"/>
  </g>
  <g>
    <path class="st17" d="M149.1,77.7h3.7v21.9h-4.8c-.8,0-1.5-.7-1.5-1.5v-17.8c0-1.4,1.2-2.6,2.6-2.6Z" transform="translate(317.9 132.9) rotate(164.1)"/>
    <path class="st17" d="M155.5,96.4s0,0,0-.1l-1.9-6.6-.6-2h0s-1.4-4.9-1.4-4.9h0s-1.3-4.5-1.3-4.5v-.2c-.3-.8-1.1-1.2-1.9-1h-.5c0,.1-.9.4-.9.4l-3.6,1h-.4c0,.1,6.1,21.6,6.1,21.6v.3c0,0,4.6-1.3,4.6-1.3.2,0,.3-.1.5-.2.9-.5,1.4-1.5,1.2-2.6ZM154.8,96.5c.2.7,0,1.4-.7,1.8-.1,0-.3.1-.4.2l-3.8,1.1-.2-.6h0s-5.5-19.5-5.5-19.5h0s0-.3,0-.3l3.2-.9,1-.3h.5c.4-.2.8,0,.9.4v.5c.1,0,2.1,7,2.1,7l1,3.6.2.6h0c0,0,1.7,6,1.7,6v.3Z"/>
  </g>
  <g>
    <path class="st17" d="M139.1,51.3c4.8-.5,9.8-5.9,14.8-12.9,2.6,5.8,4.3,12.5,5,20.1-4.5,4.8-9.6,7.7-15.1,9.7l-4.7-16.8Z"/>
    <path class="st8" d="M150.8,43.1c0,0-.1,0-.2,0,0,0,0,0,0,0,0,0,0,0,0,0l-1.9,1.9h0c0,0-.1.1-.2.2,0,0,0,0,0,0,0,0-.1.2-.2.2-.3.3-.6.6-.9,1h0c-.3.3-.5.5-.8.7,0,0-.1.1-.2.1v.6c0-.2.2-.3.4-.5.1-.1.2-.2.4-.3h0c.3-.3.6-.6.9-.9.9-1,1.9-2,2.9-3.3h0ZM140.8,56.1h0s0,0,0,0c0,0,0,0,0,0,0,0,0,0,0,0,0,0,0,0-.1,0,0,0,0,0,0,.1v.2c.2.1.2.2.3.3,0,.1.2.2.3.3l-.3-1.1ZM150.8,43.1c0,0-.1,0-.2,0,0,0,0,0,0,0,0,0,0,0,0,0l-1.9,1.9h0c0,0-.1.1-.2.2,0,0-.2.2-.3.3-.3.3-.6.6-.9,1h0c-.3.3-.5.5-.8.7,0,0-.1.1-.2.1v.6c0-.2.2-.3.4-.5.1-.1.2-.2.4-.3h0c.3-.3.6-.6.9-.9.9-1,1.9-2,2.9-3.3h0ZM140.8,56.1h0s0,0,0,0c0,0,0,0,0,0,0,0,0,0,0,0,0,0,0,0-.1,0,0,0,0,0,0,.1v.2c.2.1.2.2.3.3,0,.1.2.2.3.3l-.3-1.1ZM150.8,43.1c0,0-.1,0-.2,0,0,0,0,0,0,0,0,0,0,0,0,0l-1.9,1.9h0c0,0-.1.1-.2.2,0,0-.2.2-.3.3-.3.3-.6.6-.9,1h0c-.3.3-.5.5-.8.7,0,0-.1.1-.2.1v.6c0-.2.2-.3.4-.5.1-.1.2-.2.4-.3h0c.3-.3.6-.6.9-.9.9-1,1.9-2,2.9-3.3h0ZM140.8,56.1h0s0,0,0,0c0,0,0,0,0,0,0,0,0,0,0,0,0,0,0,0-.1,0,0,0,0,0,0,.1v.2c.2.1.2.2.3.3,0,.1.2.2.3.3l-.3-1.1ZM150.8,43.1c0,0-.1,0-.2,0,0,0,0,0,0,0,0,0,0,0,0,0l-1.9,1.9h0c0,0-.1.1-.2.2,0,0-.2.2-.3.3-.3.3-.6.6-.9,1h0c-.3.3-.5.5-.8.7,0,0-.1.1-.2.1v.6c0-.2.2-.3.4-.5.1-.1.2-.2.4-.3h0c.3-.3.6-.6.9-.9.9-1,1.9-2,2.9-3.3h0ZM140.8,56.1s0,0,0,0c0,0,0,0,0,0,0,0,0,0,0,0,0,0,0,0-.1,0,0,0,0,0,0,.1v.2c.2.1.2.2.3.3,0,.1.2.2.3.3l-.3-1.1h0ZM159.3,58.5c-.8-7.6-2.4-14.4-5-20.2l-.2-.6-.2.3v.2c-2.1,2.8-3.9,5-5.6,6.9-.3.3-.6.7-.9,1-.3.3-.5.5-.8.7s-.1.1-.2.2c0,0-.2.2-.2.2-.5.4-.9.8-1.3,1.1-.6.5-1.2.9-1.8,1.2h0c-1.2.7-2.3,1.2-3.4,1.3-.2,0-.3,0-.5,0h-.4s.9,3.3.9,3.3l.2.6.2.7v.3c0,0,0,0,0,0h0c0,.1,0,.3,0,.3v.2c0,0,.2.3.2.3v.3c0,0,.3.8.3.8v.4c.1,0,.2.2.2.2h0c0,.1.2.8.2.8v.3c0,0,.4,1.2.4,1.2l.7,2.6.2.8h0s1.2,4.4,1.2,4.4h.4c.5-.3.9-.5,1.4-.6.6-.2,1.2-.5,1.7-.7.1,0,.2,0,.3-.1,0,0,0,0,0,0,0,0,.2,0,.2-.1.4-.2.9-.4,1.3-.6,3.8-1.9,7-4.3,9.8-7.2.1-.1.3-.3.4-.4h.1c0-.1,0-.3,0-.3ZM147.2,66.4h0s0,0,0,0c-.1,0-.2,0-.3.1-.6.2-1.2.5-1.8.7-.3.1-.7.3-1,.4l-.6-2.3-.3-1.2-.3-1.1-.8-2.7-.3-1.1v-.3c0,0-.3-.7-.3-.7h0s-.2-.7-.2-.7v-.3c0,0,0,0,0,0l-.3-1.1h0s0-.3,0-.3h0s0-.1,0-.1v-.3c0,0-.2-.5-.2-.5l-.3-1v-.2c0,0-.6-2.1-.6-2.1,0,0,.2,0,.2,0,.8-.2,1.7-.5,2.5-.9h0c.7-.4,1.5-.8,2.3-1.4.5-.4,1-.8,1.5-1.2.2-.2.4-.3.5-.5.1-.1.2-.2.4-.3h0c.3-.3.6-.6.9-.9.9-1,1.9-2,2.9-3.3h0s0,0,0,0c1-1.2,2-2.5,3.1-4,.2.4.4.8.5,1.3,2.1,5.2,3.5,11.3,4.2,18,0,0-.1.2-.2.2-2.7,2.9-5.9,5.2-9.7,7.1-.4.2-.8.4-1.2.6-.1,0-.2.1-.3.2ZM140.8,56.1h0s0,0,0,0c0,0,0,0,0,0,0,0,0,0,0,0,0,0,0,0-.1,0,0,0,0,0,0,.1v.2c.2.1.2.2.3.3,0,.1.2.2.3.3l-.3-1.1ZM150.8,43.1c0,0-.1,0-.2,0,0,0,0,0,0,0,0,0,0,0,0,0l-1.9,1.9h0c0,0-.1.1-.2.2,0,0-.2.2-.3.3-.3.3-.6.6-.9,1h0c-.3.3-.5.5-.8.7,0,0-.1.1-.2.1v.6c0-.2.2-.3.4-.5.1-.1.2-.2.4-.3h0c.3-.3.6-.6.9-.9.9-1,1.9-2,2.9-3.3h0ZM140.8,56.1h0s0,0,0,0c0,0,0,0,0,0,0,0,0,0,0,0,0,0,0,0-.1,0,0,0,0,0,0,.1v.2c.2.1.2.2.3.3,0,.1.2.2.3.3l-.3-1.1ZM150.8,43.1c0,0-.1,0-.2,0,0,0,0,0,0,0,0,0,0,0,0,0l-1.9,1.9h0c0,0-.1.1-.2.2,0,0-.2.2-.3.3-.3.3-.6.6-.9,1h0c-.3.3-.5.5-.8.7,0,0-.1.1-.2.1v.6c0-.2.2-.3.4-.5.1-.1.2-.2.4-.3h0c.3-.3.6-.6.9-.9.9-1,1.9-2,2.9-3.3h0ZM140.8,56.1h0s0,0,0,0c0,0,0,0,0,0,0,0,0,0,0,0,0,0,0,0-.1,0,0,0,0,0,0,.1v.2c.2.1.2.2.3.3,0,.1.2.2.3.3l-.3-1.1ZM150.8,43.1c0,0-.1,0-.2,0,0,0,0,0,0,0,0,0,0,0,0,0l-1.9,1.9h0c0,0-.1.1-.2.2,0,0-.2.2-.3.3-.3.3-.6.6-.9,1h0c-.3.3-.5.5-.8.7,0,0-.1.1-.2.1v.6c0-.2.2-.3.4-.5.1-.1.2-.2.4-.3h0c.3-.3.6-.6.9-.9.9-1,1.9-2,2.9-3.3h0ZM140.8,56.1h0s0,0,0,0c0,0,0,0,0,0,0,0,0,0,0,0,0,0,0,0-.1,0,0,0,0,0,0,.1v.2c.2.1.2.2.3.3,0,.1.2.2.3.3l-.3-1.1ZM150.8,43.1c0,0-.1,0-.2,0,0,0,0,0,0,0,0,0,0,0,0,0l-1.9,1.9h0c0,0-.1.2-.2.2,0,0-.1.2-.2.2-.3.3-.6.6-.9,1h0c-.3.3-.5.5-.8.7,0,0-.1.1-.2.1v.6c0-.2.2-.3.4-.5.1-.1.2-.2.4-.3h0c.3-.3.6-.6.9-.9.9-1,1.9-2,2.9-3.3h0Z"/>
  </g>
  <g>
    <g>
      <line class="st8" x1="77.2" y1="55" x2="66" y2="48.5"/>
      <polygon class="st22" points="76.6 56 66 48.5 77.8 53.9 76.6 56"/>
    </g>
    <g>
      <line class="st8" x1="76.7" y1="59.8" x2="65.5" y2="53.3"/>
      <polygon class="st22" points="76.1 60.8 65.5 53.3 77.3 58.7 76.1 60.8"/>
    </g>
    <g>
      <line class="st8" x1="75" y1="64.5" x2="63.7" y2="58"/>
      <polygon class="st22" points="74.4 65.5 63.7 58 75.6 63.4 74.4 65.5"/>
    </g>
  </g>
  <g>
    <g>
      <line class="st8" x1="140.3" y1="55" x2="151.5" y2="48.6"/>
      <polygon class="st22" points="139.7 54 151.5 48.6 140.9 56.1 139.7 54"/>
    </g>
    <g>
      <line class="st8" x1="140.8" y1="59.8" x2="152" y2="53.4"/>
      <polygon class="st22" points="140.2 58.8 152 53.4 141.4 60.9 140.2 58.8"/>
    </g>
    <g>
      <line class="st8" x1="142.5" y1="64.5" x2="153.8" y2="58.1"/>
      <polygon class="st22" points="141.9 63.5 153.8 58.1 143.1 65.6 141.9 63.5"/>
    </g>
  </g>
  <g>
    <path class="st17" d="M72.7,55.3h3.7v21.9h-3.7c-1.4,0-2.6-1.2-2.6-2.6v-16.7c0-1.4,1.2-2.6,2.6-2.6Z" transform="translate(20.9 -17.5) rotate(15.9)"/>
    <path class="st17" d="M78.5,56.5s0,0,0,0l-1.2-.4c0,0-.1.1-.2.2l1.8.5-.5,1.9-.2.7-.2.7-.3,1-.7,2.4-.4,1.4c.2-.3.3-.6.5-.9h0s0-.3,0-.3l.7-2.6.3-.9.2-.7.2-.7.5-1.9c-.2-.1-.4-.2-.5-.4ZM78.5,56.5s0,0,0,0l-1.2-.4c0,0-.1.1-.2.2l1.8.5-.5,1.9-.2.7-.2.7-.3,1-.7,2.4-.4,1.4c.2-.3.3-.6.5-.9h0s0-.3,0-.3l.7-2.6.3-.9.2-.7.2-.7.5-1.9c-.2-.1-.4-.2-.5-.4ZM78.5,56.5s0,0,0,0l-1.2-.4c0,0-.1.1-.2.2l1.8.5-.5,1.9-.2.7-.2.7-.3,1-.7,2.4-.4,1.4c.2-.3.3-.6.5-.9h0s0-.3,0-.3l.7-2.6.3-.9.2-.7.2-.7.5-1.9c-.2-.1-.4-.2-.5-.4ZM78.5,56.5s0,0,0,0l-1.2-.4c0,0-.1.1-.2.2l1.8.5-.5,1.9-.2.7-.2.7-.3,1-.7,2.4-.4,1.4c.2-.3.3-.6.5-.9h0s0-.3,0-.3l.7-2.6.3-.9.2-.7.2-.7.5-1.9c-.2-.1-.4-.2-.5-.4ZM79,56.1s0,0-.1,0l-1.2-.3h-.4c0-.1-.2-.2-.2-.2h-.2c0,0,0,0,0,0h0s-.1,0-.1,0h-.2s-.6-.2-.6-.2h-.4c0-.1,0-.1,0-.1-.6-.2-1.3,0-1.9.2,0,0-.2.1-.3.2-.2.1-.4.3-.5.5-.1.1-.2.3-.3.5,0,0,0,.1,0,.2,0,0,0,.2,0,.2v.3c0,0-.3.7-.3.7l-1,3.5-.2.7-.2.8-1,3.4v.2c0,0,0,.1,0,.1h0c0,.1,0,.3,0,.3l-.5,1.8-.8,2.9-.4,1.4-.5,1.8c-.2.5,0,1.1.4,1.4.2.2.4.3.6.3l.9.3,3,.8,1.5.4v-.4c0,0,.1,0,.1,0l4-14.3.3-1h0s.4-1.3.4-1.3l.2-.5.2-.7.2-.7.5-1.9.2-.7h0c0-.1-.7-.3-.7-.3ZM68.4,75.9c-.4-.1-.6-.5-.5-.9v-.2c0,0,.5-1.4.5-1.4l.4-1.5.8-2.8.5-1.9v-.2c0,0,0-.1,0-.1v-.2s.1-.2.1-.2v-.4c.1,0,.9-2.9.9-2.9l.2-.8.2-.8h0s.9-3.3.9-3.3l.2-.8v-.4c.1,0,.1,0,.1,0,0,0,0-.2.1-.3,0-.1.1-.2.2-.3.1-.2.3-.3.5-.5,0,0,0,0,0,0,.3-.1.6-.2.9-.2s.3,0,.5,0h.3c0,0,.7.3.7.3h.2c0,0,.1.1.1.1h.1s.2,0,.2,0h.1s1.8.5,1.8.5l-.5,1.9-.2.7-.2.7-.3,1-.7,2.4-.4,1.4h0s-2.7,9.4-2.7,9.4h0s-.8,2.9-.8,2.9l-.9-.2-2.9-.8-.7-.2h-.2ZM78.5,56.5s0,0,0,0l-1.2-.4c0,0-.1.1-.2.2l1.8.5-.5,1.9-.2.7-.2.7-.3,1-.7,2.4-.4,1.4c.2-.3.3-.6.5-.9h0s0-.3,0-.3l.7-2.6.3-.9.2-.7.2-.7.5-1.9c-.2-.1-.4-.2-.5-.4ZM78.5,56.5s0,0,0,0l-1.2-.4c0,0-.1.1-.2.2l1.8.5-.5,1.9-.2.7-.2.7-.3,1-.7,2.4-.4,1.4c.2-.3.3-.6.5-.9h0s0-.3,0-.3l.7-2.6.3-.9.2-.7.2-.7.5-1.9c-.2-.1-.4-.2-.5-.4ZM78.5,56.5s0,0,0,0l-1.2-.4c0,0-.1.1-.2.2l1.8.5-.5,1.9-.2.7-.2.7-.3,1-.7,2.4-.4,1.4c.2-.3.3-.6.5-.9h0s0-.3,0-.3l.7-2.6.3-.9.2-.7.2-.7.5-1.9c-.2-.1-.4-.2-.5-.4ZM78.5,56.5s0,0,0,0l-1.2-.4c0,0-.1.1-.2.2l1.8.5-.5,1.9-.2.7-.2.7-.3,1-.7,2.4-.4,1.4c.2-.3.3-.6.5-.9h0s0-.3,0-.3l.7-2.6.3-.9.2-.7.2-.7.5-1.9c-.2-.1-.4-.2-.5-.4Z"/>
  </g>
  <g>
    <path class="st17" d="M143.3,55.3h3.7v21.9h-3.7c-1.4,0-2.6-1.2-2.6-2.6v-16.7c0-1.4,1.2-2.6,2.6-2.6Z" transform="translate(300.3 90.7) rotate(164.1)"/>
    <path class="st17" d="M149.9,74.8l-.4-1.3h0c0,0-.6-2.2-.6-2.2l-.7-2.6h0s0,0,0,0l-.5-1.7v-.3c-.1,0-.2-.4-.2-.4l-.9-3.1-.2-.8-.2-.8v-.3c0,0-1-3.1-1-3.1l-.2-.8v-.5c-.1,0-.2,0-.2,0,0,0,0-.1,0-.2,0-.1-.1-.3-.2-.4h0c-.1-.2-.3-.4-.4-.6-.4-.4-1-.6-1.6-.7,0,0-.1,0-.2,0-.2,0-.4,0-.7.1h-.5c0,.1-.5.3-.5.3h-.1s0,0,0,0h-.1s-.3.1-.3.1h-.2s-2.4.7-2.4.7l.2.6.2.6v.3c.1,0,.2.5.2.5l.2.8v.2s0,.1,0,.1h0s0,.2,0,.2v.4c.1,0,.2.2.2.2l.2.5,3.9,13.6h0s.9,3.3.9,3.3v.3c0,0,3.8-1,3.8-1l.8-.2,1-.3c.8-.2,1.2-1,1-1.8ZM148.7,75.9h-.2c0,0-.8.3-.8.3l-.6.2-3.1.9-4.8-16.8-.2-.7v-.4c-.1,0-.2-.4-.2-.4v-.3c0,0-.1-.2-.1-.2l-.3-1-.2-.7,1.3-.4h.3c0,0,.3-.2.3-.2h.2s.2,0,.2,0h.1s.2,0,.2,0c0,0,0,0,0,0h0s.3,0,.3,0h.2c0,0,.5-.2.5-.2.6-.2,1.2,0,1.6.3.2.1.4.3.5.5,0,.1.1.2.2.3,0,0,0,0,0,.1v.2c0,0,.2.4.2.4l.2.8.3,1.1.6,2.1h0s.2.8.2.8l.2.9.4,1.4h0s.5,1.6.5,1.6v.3c.1,0,.2.3.2.3l1.3,4.7.8,2.8v.2c.2.4,0,.8-.4.9Z"/>
  </g>
  <path class="st3" d="M82,49.3c3.6-8,9.5-14.2,17.9-18.6,5.2-2.8,11.5-2.8,16.8,0,9.1,4.7,15.5,11,19.7,18.7-19.4,10.3-37.6,9-54.4,0Z"/>
  <g>
    <path class="st3" d="M146.6,2.8c-.7,5.9-2.7,11.7-6.2,17-11.9,18.3-36.4,23.4-54.7,11.4-9.9-6.5-16-16.7-17.5-27.6-1.7,14.4,4.7,29.2,17.6,37.6,18.3,11.9,42.7,6.8,54.7-11.4,5.4-8.3,7.3-17.9,6.1-27Z"/>
    <path class="st17" d="M147,2.8l-.4-2.8-.3,2.8c-.7,6.1-2.8,11.7-6.1,16.9-3.3,5-7.6,9.1-12.6,12.1-1.5.9-3.1,1.7-4.8,2.5-.4.2-.8.3-1.2.5-1,.4-2,.7-3.1,1-.1,0-.2,0-.4.1-.1,0-.2,0-.4,0-.8.2-1.5.4-2.3.6-1.2.2-2.4.4-3.6.6-.2,0-.4,0-.6,0-.2,0-.5,0-.8,0-1.2,0-2.4.1-3.7.1-.2,0-.5,0-.8,0-.2,0-.4,0-.6,0-2-.1-4-.4-6-.8-.1,0-.2,0-.4,0-.1,0-.2,0-.3,0-1.8-.4-3.5-.9-5.2-1.6h0c-1.7-.7-3.4-1.4-5-2.3-.3-.2-.5-.3-.8-.5-.6-.3-1.1-.7-1.7-1-9.5-6.2-15.8-16.1-17.3-27.4l-.4-2.8-.3,2.8c-.8,7.2.3,14.6,3.4,21.2,1.5,3.4,3.5,6.5,5.9,9.3,1.6,1.9,3.4,3.7,5.4,5.2,1,.8,2,1.5,3.1,2.2.2.1.4.3.6.4,2.8,1.8,5.8,3.2,9,4.2.8.3,1.7.5,2.5.7,0,0,.1,0,.2,0,0,0,.1,0,.2,0,.2,0,.3,0,.5.1,2.9.7,5.8,1,8.8,1s.8,0,1.2,0c.3,0,.5,0,.8,0h0c2.1-.1,4.1-.4,6.2-.8,1-.2,2.1-.5,3.1-.8.2,0,.3,0,.5-.1.2,0,.3,0,.4-.1.1,0,.3,0,.4-.1,1.2-.4,2.5-.9,3.7-1.4,2-.9,4-2,5.8-3.2,0,0,.1,0,.2-.1.2-.1.3-.2.5-.3,0,0,.1,0,.2-.1.1,0,.2-.1.3-.2.7-.5,1.4-1,2-1.5.3-.2.5-.4.8-.7,2.8-2.4,5.2-5.2,7.3-8.4,5.3-8.1,7.4-17.8,6.1-27.3ZM129.9,40.3c-.2.1-.3.2-.4.3h0c0,0-.2.1-.3.2,0,0,0,0,0,0-2,1.3-4.1,2.5-6.4,3.4-.8.3-1.6.7-2.5.9-.1,0-.3,0-.4.1-.1,0-.3,0-.4.1-.5.1-.9.3-1.4.4h0c-.9.2-1.7.5-2.6.6-1.2.2-2.3.4-3.5.6-.3,0-.6,0-.9,0-.6,0-1.2.1-1.8.1,0,0,0,0,0,0-.2,0-.5,0-.7,0-.6,0-1.2,0-1.8,0h0c-.3,0-.6,0-.9,0-2.4,0-4.9-.4-7.2-1-.1,0-.2,0-.4,0-.1,0-.3,0-.4-.1-.1,0-.3,0-.4-.1-.4-.1-.9-.2-1.3-.4-3.3-1-6.5-2.4-9.5-4.3-.2-.1-.4-.3-.7-.4-1.1-.7-2.1-1.4-3.1-2.2-1.9-1.5-3.5-3.1-5.1-4.8-6.6-7.5-10-17.3-9.6-27.5,2.2,10.3,8.3,19.3,17.2,25.1.3.2.6.4,1,.6.5.3.9.6,1.4.8,1.6.9,3.2,1.7,4.9,2.3,1.8.7,3.7,1.3,5.5,1.7.1,0,.2,0,.3,0,.1,0,.2,0,.4,0,1.8.4,3.7.7,5.6.8.2,0,.3,0,.5,0h0c.2,0,.3,0,.5,0,2,0,4,0,6.1-.2.2,0,.3,0,.5,0,.2,0,.3,0,.5,0,1-.1,1.9-.3,2.9-.5.9-.2,1.8-.4,2.6-.6.1,0,.2,0,.4,0,.1,0,.2,0,.3-.1,1.3-.4,2.5-.8,3.8-1.3.3-.1.6-.2.8-.4,1.6-.7,3.2-1.5,4.7-2.4,5-3,9.3-7.2,12.6-12.2,2.9-4.4,4.9-9.3,5.8-14.4.6,8.4-1.6,16.9-6.3,24-2,3.1-4.4,5.8-7.1,8.2-.4.3-.7.6-1.1.9-.7.6-1.4,1.1-2.1,1.6Z"/>
  </g>
  <g>
    <circle class="st17" cx="108.8" cy="42.6" r="11.5" transform="translate(49.4 143.1) rotate(-80.8)"/>
    <path class="st17" d="M118.9,36.4c0-.1-.1-.2-.2-.3,0-.1-.1-.2-.2-.3-.7-.9-1.5-1.8-2.4-2.5-2-1.6-4.6-2.5-7.3-2.5s-3,.3-4.3.8h0c-2.4,1-4.5,2.7-5.8,4.9,0,.1-.1.2-.2.3,0,.1-.1.2-.2.3-.9,1.7-1.4,3.5-1.4,5.5s0,.9,0,1.3c0,.2,0,.4,0,.6h0c0,.3,0,.5.2.8,0,.3.1.6.2.8,0,.1,0,.3.1.4,0,.1.1.3.2.4,0,0,0,.1,0,.2,1.7,4.2,5.8,7.1,10.5,7.3.1,0,.2,0,.3,0h.1c4.9,0,9-3,10.9-7.2.2-.4.3-.8.4-1.2,0-.1,0-.3.1-.4,0-.1,0-.3,0-.4.1-.5.2-1.1.3-1.6,0-.4,0-.7,0-1.1,0-2.3-.6-4.4-1.7-6.2ZM119.9,43.4c0,.7-.2,1.4-.4,2.1,0,.1,0,.3-.1.4,0,.1,0,.3-.1.4,0,.1,0,.3-.2.4-1.6,4-5.4,6.8-9.9,6.9-.1,0-.3,0-.4,0h-.1c-4.5,0-8.3-2.7-10-6.6,0-.1-.1-.3-.2-.4,0,0,0,0,0-.1,0,0,0-.2-.1-.3-.1-.4-.3-.9-.4-1.3-.2-.8-.3-1.6-.3-2.4,0-1.9.5-3.8,1.4-5.4,0-.1.1-.2.2-.3,0-.1.1-.2.2-.3,1.6-2.5,4.1-4.2,7-4.9.8-.2,1.5-.2,2.3-.2,2,0,3.8.5,5.4,1.4,1.4.8,2.6,1.8,3.5,3.1,0,.1.2.2.2.3,0,.1.1.2.2.3,1.1,1.7,1.7,3.8,1.7,6s0,.6,0,.9Z"/>
  </g>
  <g>
    <circle class="st3" cx="108.8" cy="42.2" r="5.6" transform="translate(42.8 138.4) rotate(-76.7)"/>
    <path class="st17" d="M114.6,41h0c0-.2,0-.3-.1-.5-.3-1.1-1-2-1.8-2.8-.1-.1-.2-.2-.4-.3h0c-.1-.1-.3-.2-.5-.3-.9-.5-1.9-.9-3-.9s-2.4.4-3.4,1.1c-.2,0-.3.2-.4.3-.1.1-.3.2-.4.4-1.1,1.1-1.7,2.5-1.7,4.2s0,.8.1,1.2h0c.4,1.7,1.5,3.2,2.9,4,.3.2.6.3.8.4.6.2,1.2.3,1.9.3,0,0,0,0,.1,0,.2,0,.4,0,.6,0h0c.6,0,1.2-.2,1.8-.5h0c.3-.1.5-.3.8-.4,1.3-.8,2.2-2.1,2.5-3.6,0-.3.1-.6.1-1,0-.1,0-.2,0-.4,0-.4,0-.8-.1-1.2ZM113.9,43.1c-.4,2.2-2.3,4-4.5,4.2,0,0,0,0,0,0-.2,0-.3,0-.5,0s0,0-.1,0c-2.5,0-4.5-1.8-5-4.2,0,0,0-.1,0-.2,0-.3,0-.5,0-.8,0-1.7.8-3.2,2-4.1.2-.1.3-.2.5-.3.2-.1.4-.2.7-.3.6-.3,1.3-.4,2-.4s1.1.1,1.7.3c.2,0,.5.2.7.3.2,0,.4.2.5.3.9.6,1.7,1.6,2,2.7.1.3.2.6.2.9,0,.2,0,.5,0,.7s0,.2,0,.3c0,.2,0,.5,0,.7Z"/>
  </g>
  <circle class="st17" cx="108.8" cy="42.2" r="1.5"/>
  <g>
    <g>
      <path class="st17" d="M147.9,43.2c-12.8,7.4-25.8,11.6-39,12.5v16.4s0-16.4,0-16.4c-13.3-.9-26.3-5.1-39-12.5l2.7,12.6c12,7.6,22.3,13.5,36.4,16.3h0c14.1-2.7,24.4-8.6,36.4-16.3l2.7-12.6Z"/>
      <path class="st17" d="M71.6,48.3v-.2c0,0-.1-.2-.1-.2v-.3c0,0-.3-1.2-.3-1.2h0c0,0,0-.2,0-.2-.2.1-.3.2-.6.3,0,0,0,0-.1,0h0c0,0,0,0-.1,0-.1,0-.2,0-.3,0t0,0c0,0-.2,0-.3-.1h0s0,.1,0,.1v.2c.3.3.6.6.9.9v.3h0c.3.3.6.5.9.8v-.3ZM125.9,53.3c-.1,0-.2-.2-.4-.2,0,0-.1,0-.2-.1.1.2.2.3.3.5,0,0,.1,0,.2,0,0,0,.1,0,.2,0,0,0,0,0,0,0ZM71.6,48.3v-.2c0,0-.1-.2-.1-.2v-.3c0,0-.3-1.2-.3-1.2h0c0,0,0-.2,0-.2-.2.1-.3.2-.6.3,0,0,0,0-.1,0h0c0,0,0,0-.1,0-.1,0-.2,0-.3,0t0,0c0,0-.2,0-.3-.1h0s0,.1,0,.1v.2c.3.3.6.6.9.9v.3h0c.3.3.6.5.9.8v-.3ZM125.9,53.3c-.1,0-.2-.2-.4-.2,0,0-.1,0-.2-.1.1.2.2.3.3.5,0,0,.1,0,.2,0,0,0,.1,0,.2,0,0,0,0,0,0,0ZM71.6,48.3v-.2c0,0-.1-.2-.1-.2v-.3c0,0-.3-1.2-.3-1.2h0c0,0,0-.2,0-.2-.2.1-.3.2-.6.3,0,0,0,0-.1,0h0c0,0,0,0-.1,0-.1,0-.2,0-.3,0t0,0c0,0-.2,0-.3-.1h0s0,.1,0,.1v.2c.3.3.6.6.9.9v.3h0c.3.3.6.5.9.8v-.3ZM125.9,53.3c-.1,0-.2-.2-.4-.2,0,0-.1,0-.2-.1.1.2.2.3.3.5,0,0,.1,0,.2,0,0,0,.1,0,.2,0,0,0,0,0,0,0ZM71.6,48.3v-.2c0,0-.1-.2-.1-.2v-.3c0,0-.3-1.2-.3-1.2h0c0,0,0-.2,0-.2-.2.1-.3.2-.6.3,0,0,0,0-.1,0h0c0,0,0,0-.1,0-.1,0-.2,0-.3,0t0,0c0,0-.2,0-.3-.1h0s0,.1,0,.1v.2c.3.3.6.6.9.9v.3h0c.3.3.6.5.9.8v-.3ZM125.9,53.3c-.1,0-.2-.2-.4-.2,0,0-.1,0-.2-.1.1.2.2.3.3.5,0,0,.1,0,.2,0,0,0,.1,0,.2,0,0,0,0,0,0,0ZM147.5,42.6c-1,.5-1.9,1.1-2.9,1.6-.5.3-1,.5-1.5.8-1.6.8-3.2,1.6-4.8,2.3-.8.4-1.6.7-2.4,1-1,.4-1.9.8-2.9,1.2h0c-2.3.9-4.6,1.7-6.9,2.3-.4.1-.9.2-1.3.4-.4.1-.8.2-1.3.3-4.9,1.3-9.8,2.1-14.6,2.4-4-.3-8.1-.9-12.1-1.8-.3,0-.5-.1-.8-.2h0c-1-.2-2.1-.5-3.2-.8-1.5-.4-3.1-.9-4.7-1.4-1.9-.6-3.9-1.4-5.8-2.1-1.2-.5-2.4-1-3.6-1.6-2.2-1-4.3-2.1-6.5-3.2,0,0,0,0,0,0,0,0,0,0,0,0-.7-.4-1.3-.8-2-1.1l-1.4-.8.8,4v.4c0,0,.1.1.1.1h0c0,0,0,.1,0,.1h0c0,0,0,.2,0,.2v.4c0,0,.8,3.6.8,3.6v.6c.1,0,.1,0,.1,0l.2.7h0s.9,4.2.9,4.2h0c0,.1.2.3.2.3.1,0,.2.1.3.2,0,0,.1,0,.2.1,0,0,.1,0,.2.1,0,0,0,0,0,0,0,0,.1,0,.2.1.6.4,1.2.8,1.8,1.2.1,0,.2.1.3.2.1,0,.3.2.4.2,0,0,.1,0,.2.1,0,0,0,0,.1,0,0,0,0,0,.1,0,0,0,.1,0,.2.1.2.2.5.3.7.4.3.2.7.4,1,.6,0,0,.1,0,.2.1,0,0,0,0,.1,0,0,0,0,0,.1,0,0,0,.1,0,.2.1.2,0,.3.2.5.3.4.3.9.5,1.3.8,1.2.7,2.4,1.4,3.5,2,2.6,1.4,5.2,2.7,7.9,3.9,1.6.7,3.2,1.4,4.9,2h0s0,0,0,0c3.7,1.4,7.7,2.5,12,3.3h.1s.1,0,.1,0c3.2-.6,6.3-1.4,9.2-2.3,3.6-1.2,6.9-2.5,10.2-4.1,1.9-.9,3.7-1.8,5.5-2.8,1.6-.9,3.3-1.8,4.9-2.8,0,0,.1,0,.2-.1,0,0,0,0,.1,0,.1,0,.2-.1.3-.2.5-.3.9-.5,1.4-.8.1,0,.2-.1.4-.2.1,0,.2-.1.3-.2,0,0,.2-.1.3-.2.2-.1.4-.2.6-.4.3-.2.7-.4,1-.6.3-.2.6-.4,1-.6,0,0,.2-.1.3-.2.1,0,.2-.1.3-.2.2-.2.5-.3.8-.5l.2-.2h0c0-.1.9-4.4.9-4.4l.2-.7h0s.1-.6.1-.6l.5-2.3.4-1.9v-.7c.1,0,.1,0,.1,0v-.6c.1,0,.8-3.2.8-3.2l-1.4.8ZM146.4,46.8v.2s-.1.4-.1.4v.2s-.2.6-.2.6l-.7,3.2-.2.8h0s-.2,1-.2,1l-.5,2.3c-.2,0-.3.2-.5.3-.2,0-.3.2-.5.3,0,0-.1,0-.2.1-.4.3-.9.5-1.3.8-.1,0-.3.2-.4.2-.1,0-.3.2-.4.3h0s0,0-.1,0c0,0-.2.1-.3.2,0,0,0,0,0,0,0,0-.1,0-.2.1-.3.2-.7.4-1,.6,0,0,0,0,0,0,0,0,0,0,0,0-.2.1-.4.3-.7.4-.1,0-.2.1-.3.2,0,0,0,0,0,0,0,0-.2.1-.3.2,0,0,0,0,0,0-1.8,1.1-3.5,2.1-5.3,3-2.3,1.3-4.7,2.4-7.1,3.5h0c-2.6,1.2-5.3,2.2-8.1,3.1-2.6.9-5.3,1.6-8.2,2.2v-12.8s0-2.1,0-2.1c3.6-.3,7.2-.8,10.8-1.6,0,0,0,0,0,0,.9-.2,1.8-.4,2.8-.6.6-.1,1.1-.3,1.7-.5.1,0,.2,0,.3,0,.2,0,.3,0,.5-.1,0,0,.1,0,.2,0,0,0,.1,0,.2,0,.2,0,.4-.1.5-.2,1.8-.5,3.7-1.1,5.5-1.8,0,0,0,0,0,0,.7-.3,1.5-.5,2.2-.8,1.5-.6,3-1.2,4.5-1.9,1.9-.8,3.8-1.8,5.6-2.7.2-.1.5-.2.7-.4.6-.3,1.2-.6,1.7-.9l-.4,2.2ZM93.4,66.7c-3-1.3-5.9-2.7-8.8-4.3-1.3-.7-2.5-1.4-3.8-2.1-.4-.2-.7-.4-1.1-.7-.3-.2-.6-.3-.9-.5,0,0-.1,0-.2-.1,0,0,0,0-.1,0,0,0,0,0-.1,0,0,0-.1,0-.2-.1-.6-.4-1.2-.7-1.7-1.1,0,0-.1,0-.2-.1,0,0,0,0-.1,0,0,0,0,0-.1,0,0,0,0,0,0,0,0,0,0,0-.2,0-.2-.1-.5-.3-.7-.4-.5-.3-.9-.6-1.4-.9,0,0-.1,0-.2-.1h0c0,0-.2-.1-.3-.2,0,0-.1,0-.2-.1,0,0-.1,0-.2-.1l-.5-2.3-.2-1-.2-.8-.6-2.7v-.3c0,0-.1-.2-.1-.2v-.2s-.1-.3-.1-.3l-.2-1.2h0c0,0,0-.2,0-.2l-.3-1.5c.3.2.6.3.9.5,0,0,0,0,0,0,0,0,0,0,0,0,2.1,1.2,4.3,2.2,6.5,3.2,2.1,1,4.1,1.8,6.2,2.6.5.2,1,.4,1.5.6.3.1.6.2.9.3.8.3,1.6.5,2.4.8h0s0,0,0,0c0,0,0,0,0,0,.8.2,1.6.5,2.4.7h0c1.4.4,2.9.8,4.3,1.1.5.1,1,.2,1.5.3,0,0,0,0,0,0h0c.3,0,.5.1.8.2,2.5.5,5,.9,7.5,1.2,0,0,0,0,0,0,.7,0,1.4.1,2.1.2v14.9c-1.2-.2-2.5-.5-3.6-.8-3.9-1-7.5-2.3-11-3.7h0ZM125.9,53.3c-.1,0-.2-.2-.4-.2,0,0-.1,0-.2-.1.1.2.2.3.3.5,0,0,.1,0,.2,0,0,0,.1,0,.2,0,0,0,0,0,0,0ZM71.6,48.3v-.2c0,0-.1-.2-.1-.2v-.3c0,0-.3-1.2-.3-1.2h0c0,0,0-.2,0-.2-.2.1-.3.2-.6.3,0,0,0,0-.1,0h0c0,0,0,0-.1,0-.1,0-.2,0-.3,0t0,0c0,0-.2,0-.3-.1h0s0,.1,0,.1v.2c.3.3.6.6.9.9v.3h0c.3.3.6.5.9.8v-.3ZM125.9,53.3c-.1,0-.2-.2-.4-.2,0,0-.1,0-.2-.1.1.2.2.3.3.5,0,0,.1,0,.2,0,0,0,.1,0,.2,0,0,0,0,0,0,0ZM71.6,48.3v-.2c0,0-.1-.2-.1-.2v-.3c0,0-.3-1.2-.3-1.2h0c0,0,0-.2,0-.2-.2.1-.3.2-.6.3,0,0,0,0-.1,0h0c0,0,0,0-.1,0-.1,0-.2,0-.3,0t0,0c0,0-.2,0-.3-.1h0s0,.1,0,.1v.2c.3.3.6.6.9.9v.3h0c.3.3.6.5.9.8v-.3ZM125.9,53.3c-.1,0-.2-.2-.4-.2,0,0-.1,0-.2-.1.1.2.2.3.3.5,0,0,.1,0,.2,0,0,0,.1,0,.2,0,0,0,0,0,0,0ZM71.6,48.3v-.2c0,0-.1-.2-.1-.2v-.3c0,0-.3-1.2-.3-1.2h0c0,0,0-.2,0-.2-.2.1-.3.2-.6.3,0,0,0,0-.1,0h0c0,0,0,0-.1,0-.1,0-.2,0-.3,0t0,0c0,0-.2,0-.3-.1h0s0,.1,0,.1v.2c.3.3.6.6.9.9v.3h0c.3.3.6.5.9.8v-.3ZM125.9,53.3c-.1,0-.2-.2-.4-.2,0,0-.1,0-.2-.1.1.2.2.3.3.5,0,0,.1,0,.2,0,0,0,.1,0,.2,0,0,0,0,0,0,0ZM71.6,48.3v-.2c0,0-.1-.2-.1-.2v-.3c0,0-.3-1.2-.3-1.2h0c0,0,0-.2,0-.2-.2.1-.3.2-.6.3,0,0,0,0-.1,0h0c0,0,0,0-.1,0-.1,0-.2,0-.3,0t0,0c0,0-.2,0-.3-.1h0s0,.1,0,.1v.2c.3.3.6.6.9.9v.3h0c.3.3.6.5.9.8v-.3Z"/>
    </g>
    <g>
      <path class="st3" d="M145.1,45.8l-3.1,5.4c-.1,1-.7,2-1.6,2.5-8.8,5.5-19.1,10.1-29.9,14.4,11.7-3,23.1-7,33.2-14,0,0,.1-.2.1-.3l1.2-8.1Z"/>
      <path class="st3" d="M106,56l-1.5,8.6c-.2,1-1.2,1.6-2.1,1.3-8.6-2.6-17.5-6.6-26.5-11.3,7.6,6,17.1,11.1,30.1,14.6v-13.2Z"/>
    </g>
  </g>
</svg>