<?xml version="1.0" encoding="UTF-8"?>
<svg id="Calque_2_-_copie" xmlns="http://www.w3.org/2000/svg" version="1.1" viewBox="0 0 226.9 177.9">
  <!-- Generator: Adobe Illustrator 29.8.3, SVG Export Plug-In . SVG Version: 2.1.1 Build 3)  -->
  <defs>
    <style>
      .st0 {
        fill: #f79c79;
      }

      .st1 {
        fill: #9a9faf;
      }

      .st2 {
        fill: #2b373f;
      }

      .st3 {
        fill: #e87187;
      }

      .st4 {
        fill: #eff7fa;
      }

      .st5 {
        fill: #e8e4e6;
      }

      .st6 {
        fill: #b0b5ca;
      }

      .st7 {
        fill: #82523b;
      }

      .st8 {
        stroke: #000;
        stroke-miterlimit: 10;
      }

      .st9 {
        fill: #808593;
      }

      .st10 {
        fill: #e0e0e0;
      }

      .st11 {
        fill: #603813;
      }

      .st12 {
        fill: #0c121c;
      }

      .st13 {
        fill: #d9d5d7;
      }

      .st14 {
        fill: #bc6174;
      }

      .st15 {
        fill: #ffb091;
      }

      .st16 {
        fill: #ff6e6e;
      }

      .st17 {
        fill: #324049;
      }

      .st18 {
        fill: #6eb07a;
      }

      .st19 {
        fill: #111016;
      }

      .st20 {
        fill: #ededed;
      }

      .st21 {
        fill: #1a272e;
      }

      .st22 {
        fill: #434657;
      }

      .st23 {
        fill: #7dc88b;
      }

      .st24 {
        fill: #e2edf5;
      }
    </style>
  </defs>
  <path class="st8" d="M185,98c0,12.6-2.9,24.5-8.1,35.1-.6,1.1-1.1,2.3-1.8,3.4-3.3,5.9-7.3,11.4-11.9,16.2-1.1,1.2-2.3,2.3-3.5,3.4l-.9.9c-.8.7-1.6,1.4-2.4,2.1-.6.5-1.1.9-1.7,1.4-2.6,2.1-5.4,4-8.3,5.7-.8.5-1.5.9-2.3,1.3-.8.4-1.6.9-2.4,1.3h0c-4.1,2.1-8.5,3.9-13,5.2h-.4c-1,.3-1.9.5-2.9.8-.7.2-1.4.3-2.1.5h-.3c-.2,0-.5.1-.8.2h-.2c-.5.1-1,.2-1.6.3h-.2c-.8.1-1.6.3-2.3.4-.4,0-.8.1-1.2.2-.8.1-1.6.2-2.4.3h0c-.6,0-1.2.1-1.9.2-.6,0-1.1,0-1.7.1-.8,0-1.6,0-2.4.1h-2.7c-9.4,0-18.4-1.6-26.7-4.6h0c-1.9-.7-3.8-1.4-5.7-2.3-1.6-.7-3.3-1.5-4.8-2.4-12.5-6.7-23.1-16.6-30.5-28.7h0c-.8-1.3-1.6-2.6-2.3-4h0c-.5-1-1-1.9-1.5-2.9-.7-1.3-1.3-2.7-1.8-4.1-.5-1.1-.9-2.2-1.3-3.4-.1-.3-.2-.6-.3-.9-.1-.4-.3-.7-.4-1.1-.6-1.8-1.2-3.7-1.6-5.6-.8-3.1-1.4-6.2-1.8-9.4h0c-.3-2.2-.5-4.5-.6-6.8h0v-1.6h0v-1.6h0v-3.4c0-1.1.1-2.1.2-3.2,0-.4,0-.8.1-1.2.1-1.6.3-3.2.6-4.7h0c2.5-16.1,9.8-30.5,20.4-41.9h0c3.1-3.4,6.5-6.4,10.1-9.2,2-1.6,4.2-3,6.4-4.4h0c1.7-1,3.4-2,5.2-2.9h.5c0,0,.2-.1.3-.2,0,0,.3-.1.4-.2h.6c3.1-1.5,6.3-2.8,9.5-3.8h0c1.1-.4,2.3-.7,3.5-1.1h.8l3.6-.9c1.6-.4,3.3-.7,5-.9h1.2c.5,0,1-.1,1.5-.2h0c3-.4,6.1-.5,9.2-.5s.2,0,.4,0h0c1.9,0,3.8,0,5.7.2h1.9c1.2.1,2.3.3,3.4.4,1.5.2,2.9.5,4.4.8.3,0,.7.1,1,.2h0c.3,0,.5.1.8.2,1.8.4,3.6.9,5.4,1.5.2,0,.4.1.5.2.2,0,.4.1.5.2.8.2,1.6.5,2.4.8h0c2.4.8,4.7,1.8,7,2.9.1,0,.2,0,.4.2.1,0,.2,0,.4.2.6.3,1.2.6,1.9.9,2.9,1.5,5.7,3.2,8.4,5,.2.2.5.3.7.5s.4.3.6.5c.2,0,.3.2.5.3,0,0,.1,0,.2,0,.3.2.7.5,1,.8,0,0,.1,0,.2,0h.1s.2,0,.3.2c0,0,.2,0,.2.2.2.2.4.3.6.5.5.4,1.1.9,1.6,1.3h.1s.1,0,.2.2c.1,0,.3.2.4.4,3,2.5,5.8,5.3,8.4,8.3,0,0,.1.2.2.3,0,0,.2.2.2.3,11.9,13.9,19.1,31.9,19.1,51.6l.5-.3Z"/>
  <path class="st15" d="M224.4,150.6c-1.2-1.2-3.1-2.1-4.7-2.6-1.6-.5-2.8-.8-2.8-.8,0,0,2.1.5,4.4.8,2.3.3,4.7.3,5.5-.9.2-.3.2-.7.2-1.1s-.2-.7-.3-1c-.9-1.7-3.9-2-6.5-2s-5.1.5-5.1.4,1.9-.1,4.1-.5c2.2-.4,4.5-1.2,5.4-3,0-.1.2-.4.3-.8,0-.4.1-.9-.1-1.3-.4-.7-1.3-.9-2.8-.8-1.4,0-3.4.3-5.9.6-1.1.1-2.5.3-4.1.5s-3.5.3-5.5.5c.3-.5.6-1,.9-1.7.3-.7.6-1.5.9-2.4.3-1,.5-1.9.6-2.7,0-.8,0-1.5-.4-2.1-.5-.6-1.3-.8-2.1-.8s-1.8.4-2.5,1c-.9.7-1.3,1.7-1.6,2.7s-.4,2.2-.6,3.1c-.4,1.5-1.2,3.3-3,5.2-1.8,2-4.6,4.1-8.9,6.3l3.3,3.5,3.3,3.5c-.2.5-.5,1.1-.6,1.6s0,1,.2,1.4c.6.7,2,0,3.9-.9s4.4-1.9,7.2-1.7c3.3.2,5.9,2.1,8.1,3.6,2.2,1.6,3.9,2.9,5.4,2,0,0,.2-.1.4-.3s.5-.5.6-.9c.4-1,0-2.2-.9-3.6-.9-1.4-2.4-2.8-4.3-4.2.2.1,1.6,1.2,3.3,2.1,1.7.9,3.6,1.6,4.7.8,0,0,.3-.2.6-.5.2-.3.5-.6.5-1s0-.4-.1-.8c-.1-.3-.4-.7-.9-1.2h0Z"/>
  <path class="st18" d="M205.6,155.5c-3.2,1.5-9.3,4.1-17.2,5.6-7.1,1.4-15.7,1.8-24.9-.2-1-.2-2.1-.5-3.1-.8s-2.4-.7-4-1.1c-2.7-.9-6.1-2.1-9.5-4-1.9-1-3.7-2.1-5.6-3.5-3.6-2.7-7.1-6.2-9.8-10.7-.2-.4-1.3-2.2-2.5-4.9-.8-1.7-1.6-3.8-2.2-5.9,0-.2,0-.3,0-.5-.2-.7-.3-1.3-.5-2-.4-1.8-.6-3.6-.6-5.4v-1.8c.2-2.7,1.1-5.2,2.8-7.3.9-1,1.9-2,3.1-2.7.3-.2.5-.3.8-.5,1.2-.7,2.5-1.2,3.9-1.6h.1c.9-.2,1.8-.4,2.8-.5.9,0,1.8-.2,2.7,0h1c.7,0,1.4,0,2,.3.2,0,.5,0,.7,0,.2,0,.4,0,.6.2.4,0,.8.2,1.2.4.4,0,.7.3,1,.4.2,0,.4.2.5.2.6.3,1.2.7,1.7,1,.3.2.6.5.9.7,2.2,2,3.7,4.6,5.4,7.5,2.8,4.8,6,10.4,13.8,15.4,1.5,1,3,1.8,4.4,2.6,4.1,2.2,7.6,3.4,10.4,4,3.7.9,6.2.7,7,.6,1.5-.2,2.9-.6,4.1-1,1.2-.4,2.2-.9,3-1.3v.9c0,.9,0,1.9.2,3,.1,1.1.4,2.3.7,3.6v.2c.2.5.3,1,.5,1.5v.2c0,.3.2.5.3.8.2.6.5,1.2.8,1.7.3.7.7,1.2,1,1.8.5.8,1,1.5,1.5,2.1.3.3.5.6.7.9h.4Z"/>
  <path class="st15" d="M7.8,124.5c0-.5,0-.9.3-1.3.2-.4.4-.7.6-.9,0,0-.4-.3-.6-.8-.3-.4-.5-1.1-.4-1.8,0-.6.2-1,.4-1.3.2-.3.4-.6.5-.6-.5-.5-.9-1-1.1-1.6s-.2-1.2,0-1.8c.2-.8.8-1.4,1.6-1.8s1.7-.5,2.6-.3c0-.2-.1-.5-.2-.8,0-.3,0-.6-.1-1v-1.2c0-.3,0-.6.2-.8.3-.6.9-1,1.6-1.3.7-.2,1.5-.3,2.2-.3s1.5.4,2,.7c.5.3.9.7,1.1.9v-1.1c0-.4,0-.9.2-1.5.3-1,.9-1.9,1.7-2.6.7-.7,1.6-1.1,2.4-1,.6,0,.9.4,1.5,1.3s1.3,2.4,2.5,4.8c.4.7.8,1.5,1.2,2.3s.9,1.7,1.4,2.7h0c.2.2.4.4.6.6s.4.4.6.6c.4.4,1.1,1,1.9,1.6.8.7,1.8,1.4,3,2.2,2.6,1.6,4.3,2.2,5.6,2.7,1.2.5,2,.8,2.5,1.8.6,1.1.7,2.4.4,3.7-.2,1.3-.8,2.5-1.6,3.5-1.4,1.7-3.5,2.4-6.1,2.7-2.5.2-5.5,0-8.6-.3h-.8c-.3,0-.5-.1-.8-.2-.6-.2-1-.5-1.3-.8-.4-.3-.8-.6-1.4-.8-.3,0-.5-.1-.7-.2h-1.1c-.7.3-1.3.4-2,.5s-1.4.2-2.1.1c-.6,0-1.6,0-2.7-.3-1.1-.3-2.4-.7-3.7-1.6-.6-.4-1.3-.9-2-1.6-.6-.7-1.1-1.6-1.1-2.6l-.2-.5Z"/>
  <path class="st18" d="M40,119.8c.8.3,3.2,1,7,1s9.1-.8,15.9-3.2c8.6-3.2,13-7.9,16.8-12,3.7-4.1,6.8-7.4,12.8-7.7,3.3-.2,6.7.6,9.6,2.2,2.9,1.5,5.4,3.7,6.7,6.4,2.8,5.4.8,11.8-2.1,16.9-2.8,5.1-6.5,9.1-7,9.6-5.5,5.8-12.1,8.9-18.1,10.5-6,1.7-11.3,1.9-14.3,2.1-10.8.5-20.2-2-27.6-5.2-7.4-3.2-12.8-7.1-15.6-9.2.8-.6,1.8-1.4,2.8-2.5,1-1.1,2.1-2.4,3.1-4,1.1-1.7,1.9-3.4,2.4-4.9.5-1.5.8-2.8,1-3.8.7.6,1.6,1.3,2.6,1.9,1.1.7,2.3,1.3,3.8,1.9h.2Z"/>
  <path class="st15" d="M18.8,108.6c0,0,.4.7.5,1.4.2.7.2,1.5-.2,2.2-.5.8-1.5,1.3-2.7,1.4-1.3,0-2.8-.3-4.3-1.3,0,0,.4.3.7.6.3.3.6.8.8,1.4v.7c0,.4,0,.9-.3,1.3-.3.6-1,1.1-1.8,1.4s-1.8.3-2.8,0c.6-.2,1.1-.3,1.6-.2.5,0,.9.4,1.2.7.3.4.3.9.2,1.2,0,.4-.2.7-.2.8-.2.5-.6.9-1,1.1-.3.2-.6.3-.7.4.2,0,.4,0,.7,0s.7,0,1.1.2c.5.2,1,.5,1.3.9s.6.8.7,1.3c.2.9,0,2-.5,2.8s-1.2,1.4-1.9,1.4-1.1-.4-1.5-.9-.7-1-.8-1.2c-.1-.3-.4-.7-.5-1.1-.1-.5-.2-.9,0-1.4,0,0,0-.2.1-.4v-1.2c-.2-.4-.4-.8-.5-1.3,0-.5-.2-1,0-1.5,0-.3.2-.4.3-.6s.2-.3.3-.7v-2.5c.1-.6.3-1.2.8-1.7.3-.4.8-.7,1.2-.9.4-.2.8-.4.9-.4h.1c.1,0,.2,0,.2-.2v-.2c0,0,.5-.9,1.2-1.8.7-.8,1.5-1.7,2.4-1.9h.8c.3,0,.7,0,1.2.4h1.4Z"/>
  <path class="st23" d="M114.3,177h0c-.6,0-1.2.1-1.9.2-.6,0-1.1,0-1.7.1-.8,0-1.6,0-2.4.1h-2.7c-9.4,0-18.4-1.6-26.7-4.6h0v-.8c.4-4.4.7-9.5.8-15.2l21.5,8.5c1.1-.9,2-1.3,2.8-1.6.8-.2,1.4-.2,2-.2,2.5.4,4.7,3,6.4,6.9.3.7.6,1.4.8,2.1,0,.4.3.8.4,1.2v.3q0,0,0,0c0,.2,0,.3,0,.5,0,.3.2.6.3,1,0,.5.2.9.3,1.4h0Z"/>
  <path class="st23" d="M142.9,159.2c1.2,2.5,2.3,4.8,3.4,6.9-.8.5-1.5.9-2.3,1.3-.8.4-1.6.9-2.4,1.3h0c-4.1,2.1-8.5,3.9-13,5.2h-.4l14.7-15v.3Z"/>
  <path class="st23" d="M156.4,159c-.6.5-1.1.9-1.7,1.4-2.6,2.1-5.4,4-8.3,5.7-.8.5-1.5.9-2.3,1.3-.8.4-1.6.9-2.4,1.3h0c-4.1,2.1-8.5,3.9-13,5.2h-.4c-1,.3-1.9.5-2.9.8-.7.2-1.4.3-2.1.5h-.3c-.2,0-.5.1-.8.2h-.2c-.5.1-1,.2-1.6.3h-.2c-.8.1-1.6.3-2.3.4-.4,0-.8.1-1.2.2-.8.1-1.6.2-2.4.3h0c-.6,0-1.2.1-1.9.2-.6,0-1.1,0-1.7.1-.8,0-1.6,0-2.4.1h-2.7c-9.4,0-18.4-1.6-26.7-4.6h0c-1.9-.7-3.8-1.4-5.7-2.3-1.6-.7-3.3-1.5-4.8-2.4v-11.4c0-1.8.2-3.9.4-6.2.2-1.6.4-3.3.6-5.1.5-3.6,1.3-7.5,2.5-11.7,1.8-6.2,4.4-13,8.4-19.8.9-1.5,2-3.3,3.3-5.2.4-.6.8-1.2,1.3-1.8,0,0,.2-.3.3-.4,0-.2.2-.3.3-.5h0c0,0,0-.2.2-.3,0-.2.3-.3.4-.5s.3-.4.5-.6.3-.4.5-.6c.5-.6.9-1.2,1.4-1.7s.3-.4.5-.6c.3-.3.6-.7.9-1,0-.2.3-.3.4-.5h0c.7-.8,1.4-1.6,2.2-2.4l1.8-1.8h43.1c1.5,1.5,2.9,2.9,4.2,4.4.1.2.3.3.4.5.3.3.6.6.8,1h0c.2.3.3.5.5.7s.4.4.5.6c.3.4.6.7.9,1.1.2.2.3.4.5.7.2.3.5.6.7.9,0,0,.2.2.2.3.2.2.4.5.5.7.3.4.5.8.8,1.1h0c.2.4.5.7.7,1,.1.2.3.4.4.6.6.8,1.1,1.6,1.5,2.4.3.5.6,1,.9,1.4.1.2.3.5.4.7,4,6.8,7.7,13.4,8.4,19.9,1.6,13.8-2,25.7-3.5,25.2v.2Z"/>
  <path class="st7" d="M154.7,160.4c-2.6,2.1-5.4,4-8.3,5.7-.8.5-1.5.9-2.3,1.3-.8.4-1.6.9-2.4,1.3h0c-4.1,2.1-8.5,3.9-13,5.2h-.4c-1,.3-1.9.5-2.9.8-.7.2-1.4.3-2.1.5h-.3c-.2,0-.5.1-.8.2h-.2c-.5.1-1,.2-1.6.3h-.2c-.8.1-1.6.3-2.3.4-.4,0-.8.1-1.2.2-.8.1-1.6.2-2.4.3h0c-.6,0-1.2.1-1.9.2-.6,0-1.1,0-1.7.1-.8,0-1.6,0-2.4.1h-2.7c-9.4,0-18.4-1.6-26.7-4.6h0c-1.9-.7-3.8-1.4-5.7-2.3-1.6-.7-3.3-1.5-4.8-2.4v-11.4c0-1.8.2-3.9.4-6.2,1.6,1.1,3.3,2,4.9,2.4,1.6.5,3.2.5,4.6.2,2.5-.5,4.4-2.1,6.4-4.7.4-.6.9-1.2,1.3-1.9,1.1-1.7,2.3-3.8,3.6-6.2.5-1,1.1-2,1.7-3.1,1.3-2.4,2.7-5.1,4.1-8.1.2-.5.5-1,.7-1.6.5-1.2,1-2.4,1.5-3.7.5-1.3.9-2.6,1.2-3.9.2-.8.4-1.6.6-2.4,0-.4.2-.9.3-1.3.4-2.1.8-4.4,1-6.8h0c0-1.1,0-2.2.2-3.3v-2.3h0v-2.8h0c0-.7,0-1.3-.2-1.9v-.8c0-.8-.2-1.7-.3-2.5,0-.5-.2-1-.2-1.5-.2-.9-.3-1.7-.5-2.5-.5-2.1-1-3.9-1.5-5.5h36.7c-.5,1.5-1,3.3-1.5,5.4-.2.8-.4,1.7-.5,2.5,0,.5-.2,1-.2,1.5-.1.7-.2,1.5-.3,2.3,0,.9-.2,1.8-.3,2.7h0c0,.5,0,1-.1,1.6h0v3.7c0,1.1,0,2.2.2,3.3v.9c.2,1.8.4,3.5.7,5.2.1.7.3,1.4.4,2,.5,2.3,1.2,4.4,1.9,6.4.2.6.4,1.2.7,1.8.1.3.2.6.3.9,0,.2.1.3.2.5,0,.2.2.5.3.7.5,1,.9,2.1,1.4,3,1.1,2.2,2.1,4.2,3.1,6.1,0,.1.1.2.2.4.2.3.3.6.5.9,1.4,2.5,2.6,4.7,3.7,6.6.8,1.4,1.6,2.6,2.4,3.7,2,2.6,4.3,3.4,6.4,4.7s1.5,6.8.9,7.2l-.6.5Z"/>
  <path class="st15" d="M155.5,83.2c-.9,9.9-5.6,19.7-12.8,26.9-7.2,7.2-17,11.9-27.9,11.6-10.6-.3-19.8-5.2-26.5-12.3-6.7-7.2-11-16.6-11.9-26.1-1-11.2,2.8-22.7,9.8-31.5s17.1-14.8,28.6-15.1c11.9-.3,22.6,5.5,30.1,14.3s11.7,20.6,10.6,32.3h0Z"/>
  <g>
    <path class="st15" d="M82.2,65.3c-.8-1.9-2.1-3.5-3.6-4.7s-3.3-1.9-5.2-2c-2.9-.2-5.5,1-7.5,2.7-1.9,1.7-3.2,4-3.3,6.1,0,2,.9,3.2,2.1,4.7,1.2,1.5,2.6,3.3,3.4,6.6.5,2.2.4,3.9.4,5.2s0,2.2.8,2.9c.6.6,1.7,1,3.5.7,1.8-.2,4.4-1.1,8.1-3l1.2-19.1h0Z"/>
    <path class="st0" d="M80.4,71c-.8-1.3-1.9-2.2-3.1-2.7-1.1-.5-2.3-.6-3.3-.2-1.2.5-1.9,1.5-2.3,2.5-.4,1.1-.6,2.1-.6,2.7s-.2,1.7,0,3.2.8,3.1,2.3,3.8c1.1.5,2.4.5,3.6,0,1.3-.5,2.5-1.5,3.4-2.9v-6.4Z"/>
    <path class="st0" d="M78.7,65.8c-.4-.4-.8-.8-1.3-1.1-.5-.3-1-.6-1.5-.8-.3,0-.5-.2-.8-.3-.3,0-.6,0-.8-.2h-1.8c-.6,0-1.2.2-1.7.4-.6.2-1.1.5-1.6.8-.5.4-.9.8-1.3,1.3s-.6,1.1-.9,1.6c0-.6.4-1.2.7-1.8.3-.6.7-1.1,1.2-1.5.5-.5,1-.8,1.6-1.1s1.2-.5,1.9-.6c.3,0,.7,0,1,0h2c.3,0,.7,0,1,.2.7.2,1.3.4,1.9.8.6.3,1.2.7,1.7,1.2l-.6.6-.6.6h0Z"/>
  </g>
  <path class="st20" d="M149.1,51.8c-.6-1-1.5-2.6-2.5-4-.9-1.3-1.9-2.4-2.5-2.1-.9.3-.6,3.4.2,7.8.8,4.3,2.2,9.9,3.6,15.2,0,0,.7,2.4,1,6.1s.3,8.6-1,13.7c-.6,2.1-1.6,5.7-3.6,9-1.9,3.3-4.7,6.3-8.7,7.3-1.8.4-4.1.5-6.2,0-2.2-.4-4.2-1.4-5.4-3-.7-1-1.1-2-1.5-3.1-.4-1-.9-2-2-2.8-.8-.5-1.6-.9-2.4-1-.8-.2-1.6-.2-2.2,0h0c-.6,0-1.4,0-2.2,0-.8.2-1.6.5-2.4,1-1.1.8-1.6,1.8-2,2.8s-.7,2.1-1.5,3.1c-1.2,1.6-3.2,2.6-5.4,3-2.2.4-4.5.3-6.2,0-4-1-6.7-4-8.7-7.3-1.9-3.3-3-6.9-3.6-9-1.3-5-1.3-10-1-13.7s1-6.1,1-6.1c1.6-5.2,3.1-10.8,4-15.1.9-4.4,1.2-7.5.3-7.9-.6-.3-1.8.9-2.9,2.3-1.1,1.4-2.2,3.1-2.7,3.9-1.7,2.7-4,6.9-5.7,12.9-1.7,6,.9,10.6,1.5,20.4-1.1,2.6,7.7,11.4,6.7,17.7-1,6.3,5.1,11.8,2.7,20.8-2.7,10-7.2,19.6.7,26.5,7.9,6.8,17.6,14.1,29,14.1s9.1-2.6,17.7-8.1c8.6-5.6,7.3-5.2,12.3-19,3.4-9.4,2.8-10.4,2-17.5-.7-7.1,5.6-27.5,4.7-29.9-.2-9.1,2.1-18.5.4-24.4-1.7-5.9-3.9-10.2-5.7-13.3l.2-.3Z"/>
  <path class="st5" d="M107.6,70.1c0,2-.7,3.8-1.9,5.1-1.2,1.3-2.8,2.1-4.6,2.1s-3.4-.8-4.6-2.1c-1.2-1.3-1.9-3.1-1.9-5.1s.7-3.8,1.9-5.1c1.2-1.3,2.8-2.1,4.6-2.1s3.4.8,4.6,2.1c1.2,1.3,1.9,3.1,1.9,5.1Z"/>
  <path class="st22" d="M104.9,70.1c0,1.2-.4,2.2-1.1,3s-1.6,1.2-2.7,1.2-2-.5-2.7-1.2-1.1-1.8-1.1-3,.4-2.2,1.1-3,1.6-1.2,2.7-1.2,2,.5,2.7,1.2c.7.8,1.1,1.8,1.1,3Z"/>
  <path class="st13" d="M100.8,66.7c0-.5-.2-1-.6-1.4s-.8-.6-1.4-.6-1,.2-1.4.6-.6.8-.6,1.4.2,1,.6,1.4.8.6,1.4.6,1-.2,1.4-.6.6-.8.6-1.4Z"/>
  <path class="st5" d="M136.7,70.1c0,2-.7,3.8-1.9,5.1-1.2,1.3-2.8,2.1-4.6,2.1s-3.4-.8-4.6-2.1c-1.2-1.3-1.9-3.1-1.9-5.1s.7-3.8,1.9-5.1c1.2-1.3,2.8-2.1,4.6-2.1s3.4.8,4.6,2.1c1.2,1.3,1.9,3.1,1.9,5.1Z"/>
  <path class="st22" d="M134,70.1c0,1.2-.4,2.2-1.1,3-.7.8-1.6,1.2-2.7,1.2s-2-.5-2.7-1.2-1.1-1.8-1.1-3,.4-2.2,1.1-3,1.6-1.2,2.7-1.2,2,.5,2.7,1.2c.7.8,1.1,1.8,1.1,3Z"/>
  <path class="st13" d="M129.9,66.7c0-.5-.2-1-.6-1.4-.4-.4-.8-.6-1.4-.6s-1,.2-1.4.6-.6.8-.6,1.4.2,1,.6,1.4.8.6,1.4.6,1-.2,1.4-.6.6-.8.6-1.4Z"/>
  <path class="st16" d="M104.4,86c0,1.8-1,3.4-2.6,4.5-1.6,1.2-3.8,1.9-6.2,1.9s-4.6-.7-6.2-1.9c-1.6-1.2-2.6-2.8-2.6-4.5s1-3.4,2.6-4.5c1.6-1.2,3.8-1.9,6.2-1.9s4.6.7,6.2,1.9c1.6,1.2,2.6,2.8,2.6,4.5Z"/>
  <path class="st16" d="M145,86c0,1.8-1,3.4-2.6,4.5-1.6,1.2-3.8,1.9-6.2,1.9s-4.6-.7-6.2-1.9c-1.6-1.2-2.6-2.8-2.6-4.5s1-3.4,2.6-4.5c1.6-1.2,3.8-1.9,6.2-1.9s4.6.7,6.2,1.9c1.6,1.2,2.6,2.8,2.6,4.5Z"/>
  <g>
    <path class="st10" d="M142.8,133.1c-.2.5-.4,1-.6,1.5-.2.5-.4,1-.7,1.4-.4.5-1,1-1.6,1.2s-1.3,0-1.8-.6c-.2-.3-.5-.3-.8-.2s-.5.4-.5.7c0,.8-.5,1.6-1.2,2.1s-1.5.6-2.4.2c-.5-.3-.9-.7-1.2-1.2s-.5-1.1-.8-1.5c0,0-.1-.1-.2-.1,0,0-.2,0-.2.1-.6,1-.4,2.1.2,2.9.6.8,1.6,1.5,2.6,1.6,1,.2,1.9,0,2.7-.6.8-.5,1.4-1.3,1.7-2.1.5.2,1,.3,1.5.3s1-.2,1.5-.5c.9-.5,1.4-1.3,1.8-2.2s.5-1.9.5-2.8-.1-.3-.2-.3-.3,0-.4.1h0Z"/>
    <path class="st10" d="M90.7,135.7c-.6.2-1.4.2-2.1.1-.7,0-1.4-.4-1.9-.9-.2-.3-.4-.6-.5-1s-.2-.7,0-1.1c0-.4.2-.7.3-1,0-.3.3-.6.3-1s0-.2,0-.3h-.3c-.5,0-.8.5-1,.9s-.3,1-.4,1.4c0,.5,0,1.1.2,1.6s.4,1,.8,1.4.8.7,1.3.9,1,.4,1.5.4,1,0,1.4-.3c.4-.2.7-.5,1-1v-.3s-.2-.1-.3,0v.2Z"/>
    <path class="st10" d="M102.6,149.9c-.3.3-.8.5-1.2.6-.5.2-.9.2-1.4.2-.8,0-1.3-.5-1.6-1.1-.3-.6-.3-1.3,0-2,.2-.4,0-.8-.3-1s-.7-.1-1,.2c-.4.6-1,.9-1.6.9s-1.2-.2-1.6-.9c-.2-.3-.3-.7-.3-1.1v-1.1s0-.2,0-.2h-.2c-.7.5-.9,1.2-.7,2,0,.8.6,1.5,1.1,2,.5.4,1,.6,1.5.7.5,0,1.1,0,1.6-.2,0,.6.2,1.2.5,1.8.3.5.8,1,1.4,1.3.9.4,1.9.5,2.7.1.8-.3,1.4-1,1.6-2v-.2h-.4Z"/>
    <path class="st10" d="M130,149.5c-.2.4-.3.8-.5,1.2s-.4.8-.8,1c-.6.4-1.2.6-1.8.5-.6,0-1.2-.3-1.7-.8s-.6-.3-.8-.2c-.3.1-.5.4-.5.7,0,.8-.5,1.4-1.1,1.8-.6.3-1.4.3-2-.3-.3-.3-.5-.6-.7-1s-.3-.8-.4-1.2c0,0,0-.2-.2-.2h-.3c-.7.8-.7,1.7-.3,2.6.4.8,1.2,1.5,2.1,1.8s1.8.1,2.5-.3c.7-.4,1.3-1.1,1.6-1.9.6.3,1.2.5,1.8.5s1.3-.1,1.9-.5c.6-.4,1.2-1,1.5-1.6.3-.7.4-1.4,0-2.2,0,0-.1-.1-.2-.1,0,0-.2,0-.2.1h.1Z"/>
    <path class="st10" d="M113.4,139.2c-.5.5-1.2,1-1.9,1.4-.8.3-1.6.5-2.3.4-.9-.1-1.5-.6-2-1.1s-.9-1.2-1.3-1.9c0-.1-.3-.2-.4-.2-.2,0-.3.1-.4.3-.2,1.1.3,2.2,1,3s1.8,1.4,2.8,1.6c1.2.2,2.3,0,3.2-.6s1.5-1.4,1.8-2.6c0-.1,0-.2,0-.3h-.4Z"/>
    <path class="st10" d="M123.4,143.6s0-.1-.2-.1h-.2c-.6.3-1.1.7-1.6,1.1-.5.4-1.1.6-1.8.5-.6,0-1.1-.4-1.6-.8-.5-.4-.9-.8-1.3-1.2h-.2s0,0-.2.2c-.4,1,0,2,.7,2.7s1.7,1.2,2.7,1.2,2-.3,2.8-1c.8-.6,1.4-1.5.9-2.6h0Z"/>
    <path class="st10" d="M130.2,129.1c1.1.6,2.5.9,3.6.6,1.2-.3,2.1-1.1,2.2-2.6,0,0,0,0-.1-.2h-.2c-.8.5-1.7,1.1-2.6,1.3-.9.2-1.8,0-2.6-.7-.2,0-.4-.2-.6-.2s-.4,0-.5.3c-.4.8-.9,1-1.4.9-.5,0-.9-.5-1.3-.9,0-.2-.4-.3-.6-.2-.2,0-.4.2-.4.5,0,1.2.9,1.9,1.8,2,.9.2,1.9-.1,2.6-.9h.1Z"/>
    <path class="st10" d="M107.1,129c-.7.1-1.5,0-2.3-.3s-1.5-.7-2-1.2-.4-.6-.6-1c0-.4-.2-.7-.3-1.1v-.7c0-.2,0-.4-.3-.6h-.3c-.9.3-1,1.3-.7,2.3s.8,2.1,1.3,2.5c.3.4.8.7,1.2,1,.5.3,1,.4,1.5.5.6,0,1.1,0,1.5-.1.5-.2.9-.4,1.4-.8,0,0,0-.2,0-.3,0,0-.2-.2-.3-.1h0Z"/>
  </g>
  <path class="st20" d="M93.4,60.4c.5,0,.9-.2,1.4-.5.4-.3.9-.6,1.3-.8.5-.3,1.1-.5,1.7-.8.6-.2,1.2-.4,1.8-.5,1.3-.3,2.5-.2,3.7,0s2.4.6,3.6,1.1c.7.3,1.3-.2,1.5-.8s0-1.4-.5-1.7c-1.3-.7-2.8-1.1-4.3-1.3-1.5,0-3.1,0-4.4.4-.7.2-1.3.4-2,.7-.6.3-1.2.7-1.8,1.1-.4.3-1,.7-1.4,1.1-.4.4-.8,1-.8,1.6v.2s0,0,.2,0h0Z"/>
  <path class="st20" d="M138.5,62.1c-.7-1.3-2-2.3-3.5-2.9-1.5-.6-3.1-1-4.4-1h-2.2c-.7,0-1.5.3-2.2.5-.3,0-.6.2-.9.4s-.6.3-.8.6c-.3.3-.5.6-.6.9,0,.3-.3.6-.5,1v.2s0,0,.2,0c.3,0,.6,0,.9,0h.9c.3,0,.6-.2.9-.3s.6-.3.9-.4c.6-.2,1.2-.4,1.8-.5s1.2-.2,1.8-.2,1.4,0,2,.3c.7.2,1.3.4,1.9.7.6.3,1.1.6,1.7.8.6.3,1.2.4,1.8.5.1,0,.2,0,.3-.2v-.4h0Z"/>
  <path class="st10" d="M91.8,87.7c-.8,0-1.6.2-2.5.6-.8.3-1.6.8-2.2,1.3-.7.5-1.3,1.1-1.9,1.8-.5.7-1,1.4-1.4,2.2-.9,1.8-1.4,3.9-1.5,5.9,0,2.1.4,4.1,1.6,5.8,1.5,2.1,3.4,3.7,5.6,4.6s4.7,1.2,7.2.8c2.1-.3,3.9-1.1,5.5-2.2s3-2.6,4.3-4.2c.3-.4.6-.7.9-1.1s.6-.7.9-1.1l.5-.5.5-.5.2-.2.2-.2-.3.3s.3-.2.4-.3c0,0,0,0,.2,0,0,0,0,0,.2,0,0,0,.3,0,.4-.2.2,0,.3,0,0,0-.2,0,0,0,.4,0s.6,0,.4,0c-.3,0,0,0,.4,0s.7,0,.4,0-.2,0,0,0h.3c.2,0,.4,0,.6.2.2,0,.4,0,.6.2,1,.3,2.1.2,3-.3s1.7-1.3,2.1-2.2c.4-.9.4-2,0-3s-.9-1.9-1.9-2.3c-2.6-1.1-5.2-1.3-7.6-.8s-4.7,1.8-6.7,3.8-1.3,1.4-1.9,2.1-1.2,1.5-1.8,2.2l-.5.5-.5.5s-.2.2-.3.2c0,0-.2.2-.3.2.2-.2.3-.2.3-.2l-.3.2s-.5.2-.7.4c-.3,0-.4.2,0,0-.2,0-.5.2-.7.2s-.5,0-.8.2h-.4.4-1.6.4-.4c-.3,0-.5,0-.7-.2-.2,0-.5,0-.7-.2.4.2.3,0,0,0-.3,0-.7-.3-.7-.4,0,0-.2,0-.3-.2,0,0-.2,0-.3-.2.2,0,.3.2.3.2l-.3-.2s-.3-.3-.5-.6c-.2-.2-.3-.3,0,0-.2-.3-.4-.5-.7-.8-.2-.3-.4-.5-.7-.8.2.2.2.3,0,.2,0,0-.3-.3-.6-.7,0,0,0,.2,0,0,0,0,0,0-.2-.3,0-.3-.3-.6-.4-.9s-.2-.7-.2-1.1,0-.8.2-1.2c0-.4.3-.8.4-1.1.2-.4.4-.8.7-1.2.2-.4.5-.8.8-1.1.3-.4.7-.7,1.1-.9.4-.3.8-.5,1.2-.8.3-.3.5-.7.4-1.1,0-.4-.4-.7-.9-.7h0l.2-.4Z"/>
  <g>
    <path class="st20" d="M93.7,104.9c1.7.2,3.2,0,4.6-.7s2.6-1.7,3.6-3c1.2-1.5,2.4-3.2,3.9-4.5s3.2-2,5.5-1.4h.2v-.2c-1.1-1-2.4-1.1-3.6-.8-1.3.3-2.5,1.1-3.4,1.9-1.2,1.1-2.1,2.6-3.1,3.9s-2.1,2.6-3.6,3.3c-1.6.7-3.4.9-5,.5s-3.2-1.3-4.2-2.7c-1-1.4-1.4-3-1.4-4.7s.6-3.2,1.6-4.6v-.3h-.3c-.9,1.1-1.5,2.5-1.7,4-.2,1.4,0,3,.5,4.3.5,1.4,1.5,2.6,2.7,3.5s2.6,1.4,4.1,1.6h-.4Z"/>
    <path class="st20" d="M111.8,97.5c-1.5-.9-3-.7-4.5,0-1.4.7-2.8,1.9-3.7,3-1.1,1.3-2.2,2.7-3.4,3.9s-2.6,2.2-4.4,2.5c-1.7.3-3.5.2-5.1-.4s-3-1.6-4-3.1c-1-1.4-1.5-3.1-1.6-4.8,0-1.7.3-3.4,1.1-4.9,0-.2,0-.3,0-.4h-.4c-1.7,3-1.6,6.4-.3,9.2,1.3,2.8,3.9,5,7.4,5.5,1.7.3,3.4,0,4.9-.4,1.6-.5,3-1.4,4.2-2.6s1.4-1.5,2.1-2.3,1.3-1.6,2.1-2.3c.8-.7,1.7-1.3,2.7-1.7,1-.4,2-.7,3.1-.9,0,0,.2,0,.2-.2s0-.2,0-.3l-.2.2Z"/>
  </g>
  <path class="st10" d="M140.2,87.7c.8,0,1.6.2,2.5.6.8.3,1.6.8,2.2,1.3.7.5,1.3,1.1,1.9,1.8.5.7,1,1.4,1.4,2.2.9,1.8,1.4,3.9,1.5,5.9,0,2.1-.4,4.1-1.6,5.8-1.5,2.1-3.4,3.7-5.6,4.6-2.2.9-4.7,1.2-7.2.8-2.1-.3-3.9-1.1-5.5-2.2s-3-2.6-4.3-4.2c-.3-.4-.6-.7-.9-1.1s-.6-.7-.9-1.1l-.5-.5-.5-.5-.2-.2-.2-.2.3.3s-.2-.2-.4-.3c0,0,0,0-.2,0,0,0,0,0-.2,0,0,0-.3,0-.4-.2-.2,0-.3,0,0,0,.2,0,0,0-.4,0s-.6,0-.4,0c.3,0,0,0-.4,0s-.7,0-.4,0,.2,0,0,0h-.3c-.2,0-.4,0-.6.2-.2,0-.4,0-.6.2-1,.3-2.1.2-3-.3s-1.7-1.3-2.1-2.2c-.4-.9-.4-2,0-3s.9-1.9,1.9-2.3c2.6-1.1,5.2-1.3,7.6-.8s4.7,1.8,6.7,3.8c.7.7,1.3,1.4,1.9,2.1.6.7,1.2,1.5,1.8,2.2l.5.5.5.5s.2.2.3.2c0,0,.2.2.3.2-.2-.2-.3-.2-.3-.2l.3.2s.5.2.7.4c.3,0,.4.2,0,0,.2,0,.5.2.7.2s.5,0,.8.2h.4-.4,1.6-.4.4c.3,0,.5,0,.7-.2s.5,0,.7-.2c-.4.2-.3,0,0,0,.3,0,.7-.3.7-.4.1,0,.2,0,.3-.2.1,0,.2,0,.3-.2-.2,0-.3.2-.3.2l.3-.2s.3-.3.5-.6c.2-.2.3-.3,0,0,.2-.3.4-.5.7-.8.2-.3.4-.5.7-.8-.2.2-.2.3-.1.2,0,0,.3-.3.6-.7,0,0-.1.2-.1,0,0,0,0,0,.2-.3.1-.3.3-.6.4-.9.1-.3.2-.7.2-1.1s0-.8-.2-1.2c-.1-.4-.3-.8-.4-1.1-.2-.4-.4-.8-.7-1.2-.2-.4-.5-.8-.8-1.1-.3-.4-.7-.7-1.1-.9-.4-.3-.8-.5-1.2-.8-.3-.3-.5-.7-.4-1.1,0-.4.4-.7.9-.7h0l-.2-.4Z"/>
  <g>
    <path class="st20" d="M138.3,104.9c-1.7.2-3.2,0-4.6-.7-1.4-.7-2.6-1.7-3.6-3-1.2-1.5-2.4-3.2-3.9-4.5s-3.2-2-5.5-1.4h-.2v-.2c1.1-1,2.4-1.1,3.6-.8,1.3.3,2.5,1.1,3.4,1.9,1.2,1.1,2.1,2.6,3.1,3.9s2.1,2.6,3.6,3.3c1.6.7,3.4.9,5,.5s3.2-1.3,4.2-2.7c1-1.4,1.4-3,1.4-4.7s-.6-3.2-1.6-4.6v-.3c0-.1.2,0,.3,0,.9,1.1,1.5,2.5,1.7,4,.2,1.4,0,3-.5,4.3-.5,1.4-1.5,2.6-2.7,3.5s-2.6,1.4-4.1,1.6h.4Z"/>
    <path class="st20" d="M120.2,97.5c1.5-.9,3-.7,4.5,0s2.8,1.9,3.7,3c1.1,1.3,2.2,2.7,3.4,3.9,1.2,1.2,2.6,2.2,4.4,2.5,1.7.3,3.5.2,5.1-.4s3-1.6,4-3.1c1-1.4,1.5-3.1,1.6-4.8,0-1.7-.3-3.4-1.1-4.9,0-.2,0-.3.1-.4h.4c1.7,3,1.6,6.4.3,9.2-1.3,2.8-3.9,5-7.3,5.5-1.7.3-3.4,0-4.9-.4-1.6-.5-3-1.4-4.2-2.6s-1.4-1.5-2.1-2.3c-.7-.8-1.3-1.6-2.1-2.3-.8-.7-1.7-1.3-2.7-1.7-1-.4-2-.7-3.1-.9,0,0-.2,0-.2-.2s0-.2,0-.3v.2Z"/>
  </g>
  <g>
    <path class="st15" d="M150,65.3c.8-1.9,2.1-3.5,3.6-4.7s3.3-1.9,5.2-2c2.9-.2,5.5,1,7.5,2.7,1.9,1.7,3.2,4,3.3,6.1.1,2-.9,3.2-2.1,4.7-1.2,1.5-2.6,3.3-3.4,6.6-.5,2.2-.4,3.9-.4,5.2s0,2.2-.8,2.9c-.6.6-1.7,1-3.5.7-1.8-.2-4.4-1.1-8.1-3l-1.2-19.1h-.1Z"/>
    <path class="st0" d="M151.7,71c.8-1.3,1.9-2.2,3.1-2.7,1.1-.5,2.3-.6,3.3-.2,1.2.5,1.9,1.5,2.3,2.5.4,1.1.5,2.1.6,2.7,0,.3.2,1.7,0,3.2s-.8,3.1-2.3,3.8c-1.1.5-2.4.5-3.6,0-1.3-.5-2.5-1.5-3.4-2.9v-6.4h0Z"/>
    <path class="st0" d="M153.5,65.8c.4-.4.8-.8,1.3-1.1.5-.3,1-.6,1.5-.8.3,0,.5-.2.8-.3.3,0,.6,0,.8-.2h1.8c.6,0,1.2.2,1.7.4.6.2,1.1.5,1.6.8.5.4.9.8,1.3,1.3.4.5.6,1.1.9,1.6-.1-.6-.4-1.2-.7-1.8-.3-.6-.7-1.1-1.2-1.5-.5-.5-1-.8-1.6-1.1s-1.2-.5-1.9-.6c-.3,0-.7,0-1,0h-2c-.3,0-.7,0-1,.2-.7.2-1.3.4-1.9.8s-1.2.7-1.7,1.2l.6.6.6.6h0Z"/>
  </g>
  <path class="st0" d="M123.2,83.6c-.7-1.7-1.5-3.6-2.4-5.8-.9-2.2-1.8-4.7-2.7-7.4-.3-.8-1.1-1.2-1.9-1.2s-1.7.4-1.9,1.2c-.9,2.7-1.8,5.2-2.7,7.4-.9,2.2-1.7,4.1-2.4,5.8-1.5,3.7-2.9,6.6-3.6,9.1s-.8,4.5.3,6.5c.2.3.4.6.6.9s.4.6.7.8c2.2,2.5,5.6,3.7,9,3.7s6.8-1.2,9-3.7c.2-.3.5-.5.7-.8s.4-.6.6-.9c1.1-2,1-4,.3-6.5s-2.1-5.3-3.6-9.1Z"/>
  <path class="st19" d="M115.4,35.8h0c.9.6,1.9,1,2.9,1.4.9.4,2.4,1.2,4.6,2.3,8.4,4.4,15.2,7.9,20.3,10.7,2.6,1.4,3.9,2.1,3.9,2.1,2.2,1.3,4.3,2.7,6.3,4.3,1.5,1.4,3,2.9,4.3,4.5,0,0,.1,0,.2,0,0,0,.1,0,.1-.2v-.6c-.9-2.6-1.7-5.4-2.3-8.3-.4-2.1-.8,33-1,32.1,0,0-7-5.5-7.1-5.2,0,.3-.1.6-.2.9-.6,2.1-1.4,4.1-2.2,6.2-.2,0-.3-.2-.2-.5.4-1.4.9-2.7,1.4-4.1,0,0,0,0,.1-.4.1-.4.4-.9.8-1.4v-.3c-.1-.3-.2-.6,0-1,0-.2.2-.4.5-.8s.5-.8.7-1.2c.5-1.4.9-3,1.2-4.8.3-1.7.4-2.6.4-2.7.1-1,.2-1.9.1-2.7-.1-1.5-.9-2.6-2.5-3.2-1.1-.4-2.3-.4-3.4,0-1,.4-2.1.8-3.1,1.3-3.9,1.9-8.1,2.9-12.6,3-4.4,0-8.5-.8-12.3-2.8-.2,0-.3,0-.4,0l-.3-.2c0,0-.2,0-.4,0-.4,0-.8.3-1.2.5-2.6,1.3-5.3,2.2-8.1,2.6-1.5.2-2.9.3-4.5.3-2.7,0-5.4-.5-8-1.4-.8-.3-1.9-.7-3.2-1.3-1.1-.5-2.1-.9-3.2-1.4-.5-.2-1.2-.4-2.1-.5-1.3-.3-2.3-.2-3.3.5-.8.5-1.2,1.2-1.4,2.1,0,.5,0,1.3,0,2.4.5,3.2,1.3,6.4,2.3,9.5,0,0,.2.4.5,1,.2.3.3.7.3,1.1v.2c0,0,.2.3.2.5.3,1.3.9,2.8,1.5,4.4.2.4.4,1.1.8,2.2.3.7.6,1.4.9,2.2.4.7-7.6-4.4-7.3-3.5,0,0-6.4-21.6-3.3-26.5,1.8-2.9,2.4-3.9,5.6-5.8,1.8-1.1,3.3-1.9,4.5-2.5,9.5-5.1,19.1-10,28.7-14.7h0l.5-.3Z"/>
  <path class="st17" d="M117.1.3c-.3,0-.4.3-.2.6,0,.2.2.3.2.5,0,1,0,2.6,0,4.7v32.1c0,.7,0,1.4-.3,1.9-3.3,1-6.6,2.3-10,3.8-4.9,2.2-9.5,4.5-13.8,7-.6.4-1.1.7-1.4,1-.7.6-1.3,1-1.7,1.2-3.4,1.9-6.6,4.2-9.6,6.8-.4.3-.3.3,0,0,7.7-4.7,15.6-9.2,23.7-13.4.4-.2.8-.5,1.2-.7.2,0,.2-.2,0-.4,3.5-1.7,7.1-3.2,10.7-4.6l.7.6v5.2h-.4c-1.5.6-2.4.9-2.7,1.1-9,4.4-17.8,9.1-26.4,14.1-.9.5-2.4,1.5-4.8,2.9-3.5,2.2-4.1,4.6-6.4,7-.8.8-.8-28.9-.5-30.4,1-5.7,3.4-10.8,7.2-15.2,2.2-2.5,4.2-4.6,6.2-6.2,3.4-2.8,7.3-5.5,11.6-8.1,2.2-1.3,3.6-2.2,4.2-2.6,2.6-1.7,5-3.4,7.2-5.1,1.1-.8,2.4-1.9,3.8-3.2.5-.4.7-.7.8-.8.2-.3.4-.2.5,0h0l.3.2Z"/>
  <path class="st12" d="M117.1.3c3.2,3.1,6.6,5.8,10.3,8.2,1.6,1.1,3.2,2.1,4.8,3.1,3.2,1.9,6.3,4,9.3,6.2,2.8,2.1,5.5,4.4,7.9,7,5.1,5.4,8.1,11.7,9,19.1-.2,0-.4,0-.5,0,0,0-.2-.2-.2-.4-.4-2.8-1.1-5.6-2.1-8.2-.6-1.6-1.3-3.1-2.2-4.4-1-1.5-2-3-3.2-4.3-.8-.9-1.5-1.7-2.2-2.4-.8-.8-1.6-1.5-2.4-2.2-5.2-4.3-10.8-8.1-16.6-11.5-3.9-2.3-7.7-5.1-11.3-8.5,0,0,0,0-.2-.1,0,0-.2,0-.3-.1,0-.2,0-.4-.2-.5-.2-.3,0-.5.2-.6h0v-.3Z"/>
  <path class="st21" d="M117.1,1.4c0,0,.2.1.3.1,0,0,.2,0,.2.1,3.6,3.4,7.3,6.3,11.3,8.5,5.9,3.4,11.4,7.2,16.6,11.5.9.7,1.7,1.4,2.4,2.2.7.7,1.4,1.5,2.2,2.4,1.2,1.3,2.3,2.8,3.2,4.3.8,1.3,1.6,2.8,2.2,4.4,1,2.7,2.4,5.9,2.8,8.8,0,.2.9,7.3.9,7.3-.1.2-.3.4-.5.5-.2,0-.2.4,0,.9.2.8.4,1.5.4,2.3s.1,1.1.2,1.7c.1.5.2,1,.2,1.5s0,.8.2,1.2c.2.8.2,1.2.2,1.2.2,1.2-4.4,25.6-8.7,26.5-3.6.8,4.5-17.9,3.4-18.7-3-2.1-6.6-5.1-10.9-7.5-3.4-1.9-6.7-3.8-10.1-5.7-3.8-2.1-7.6-4.2-11.5-6.2-.8-.4-1.5-.7-2.1-.9-.2,0-.3,0-.2.2-1.1-.4-2.2-1-3.1-1.6v-5.2l-.7-.6.9-.4v-.2c0,0-.2-.2-.4-.2.2-.6.3-1.2.3-1.9V6.1c0-2.1,0-3.6,0-4.7h.2Z"/>
  <path class="st24" d="M116.7,40.1c.2,0,.3,0,.4.2v.2l-.9.4c-3.6,1.4-7.2,2.9-10.7,4.6-4.7,2-9.3,4.1-13.8,6.5.3-.3.7-.6,1.4-1,4.3-2.4,8.9-4.7,13.8-7,3.4-1.5,6.7-2.8,10-3.8h-.2Z"/>
  <path class="st12" d="M105.4,45.4c0,0,0,.3,0,.4-.4.3-.8.5-1.2.7-8.1,4.2-16,8.7-23.7,13.4-.4.3-.4.2,0,0,3-2.6,6.2-4.8,9.6-6.8.4-.2.9-.6,1.7-1.2,4.5-2.3,9.1-4.5,13.8-6.5h-.2Z"/>
  <path class="st12" d="M129,46.1c-.2,0-.2-.2-.1-.4h.2c3,1.4,5.9,2.8,8.8,4.3,2.3,1.2,3.8,2,4.4,2.3,4.4,2.4,8.5,5.2,12.4,8.5.2.2.2.3,0,.2h-.1c-1.1-.8-2.3-1.6-3.5-2.4-7.2-4.4-14.5-8.5-22-12.4h0Z"/>
  <path class="st24" d="M116.8,46.6c-10.6,5.7-21.1,11.6-31.5,17.6-1.3.8-3,1.8-5,3.1-3.5,2.2-4.2,2.6-3.4,1.7,2.3-2.4,2.2-2.1,5.6-4.3,2.3-1.4,3.9-2.4,4.8-2.9,8.6-5,17.4-9.7,26.4-14.1.3,0,1.2-.5,2.7-1.1h.4Z"/>
  <path class="st2" d="M130.7,52.6c-2.3-1.3-4-2.3-5-2.8,0-.2,0-.3.2-.2.6.2,1.3.5,2.1.9,3.9,2,7.7,4.1,11.5,6.2,3.4,1.9,6.7,3.8,10.1,5.7l-19-9.8h0Z"/>
  <path class="st21" d="M149.6,106.8l-2.5,7.4c-.3.2-.7.4-1.3.7-1,.5-1.9,1.3-2.7,2.3-.6.7-1.1,1.4-1.6,2.2-1.4,2.1-3,4.1-4.8,6-.6.7-1.4,1.3-2.2,1.9-.6.4-.7.3-.3-.3.6-.8,1.2-1.9,1.9-3.1,3.1-5.9,5.5-12,7.2-18.5.6-2.2,1-4.6,1.3-7.2v-.2h-.1c-1.8,4.4-4.2,8.3-7.3,11.8-2.1,2.3-4.1,4.6-6.3,6.9-1.4,1.5-3.2,3.2-5.4,5.3-2.2,2-4.4,3.6-6.8,4.7-.6.3-1.3.5-2,.5.2-.2.2-.4.2-.7v-44.2c0-.5,0-1-.3-1.4l.4-.3.4.2c0,0,0,.2,0,.2h.2c5.7,4,12,5.2,18.8,3.5,3.5-.9,6.8-2.3,10.1-4.2.2,0,.4-.2.8-.4.3,0,.6-.3.8-.5h.1c.1,0,.1,0,0-.2,1.2-.6,2.5-.6,3.7,0,1.7.7,2.7,2,2.8,3.8,0,1,0,2.1-.1,3.3,0,0-.2,1.2-.5,3.2-.3,2.1-.7,4-1.3,5.7-.1.4-.4.9-.7,1.5-.3.5-.5.8-.5,1v1.5c-.4.7-.7,1.2-.8,1.7,0,.3-.1.5-.1.5-.5,1.6-1,3.3-1.5,4.9,0,.3,0,.5.2.6h.1Z"/>
  <path class="st17" d="M83.6,79.1h0c1.3.6,2.7,1.2,3.9,1.9,2,1.1,3.3,1.7,3.9,2,3.2,1.3,6.6,2.1,10.1,2.3,4,.2,7.8-.6,11.4-2.5,1.2-.6,2.5-1.3,3.7-2,.3.4.4.9.3,1.4v44.2c0,.3,0,.6-.2.7-1.3.6-2.5.5-3.8-.3-2.7-1.8-4.7-3.1-6-4-2.2-1.6-4.3-3.3-6.2-5.2s-2.5-2.6-3.3-3.6c-1.5-1.8-2.8-3.8-3.8-5.9h0c.9,3.5,2.3,6.9,4,10.2.6,1.1,1,1.8,1.4,2.3,1,1.1,2.3,2.3,3.9,3.4,2.6,1.8,5.1,3.8,7.5,5.9,1.7,1.5,2.6,2.3,2.6,2.3,1.9,1.7,3.8,3.3,5.6,5,.2.2.2.3,0,.3h-.8s0,0-.2.1c-.4.4-.9.6-1.4.6h-.5c-1.2,0-1.9,0-2.3-.2-4.4-1.8-8.1-3.6-11.1-5.6-2.3-1.5-4.3-3.1-6.2-4.7-2.9-2.6-5.2-5.7-6.9-9.3-.7-1.5-1.1-2.4-1.3-2.7,0-.3-.2-.5-.4-.6h0c0,0-.4-1-.4-1,.2,0,.2-.3.2-.4,0-.2-.2-.3-.2-.3-.4-1.1-.7-2.2-1.1-3.1s-.7-1.8-1-2.6c-.4-1.3-.7-2.2-.9-2.6-.7-2-1.3-3.7-1.7-5.3,0-.3-1.3-.5-1.4-.6,0,0,1.1,0,1.1-.2,0-.4-2.9-4.1-3.1-4.5-.3-.7-1.9-6.5-1.9-6.6,0-3.8,1.4-4.9,1.5-5.5.2-1,.7-1.9,1.6-2.5,1-.8,2.2-1,3.6-.6h0v-.2Z"/>
  <path class="st4" d="M83.6,79.1c.9,0,1.7.3,2.3.6,1.1.6,2.3,1.1,3.4,1.7,1.4.7,2.6,1.2,3.5,1.5,2.8,1,5.8,1.5,8.8,1.6,1.7,0,3.3,0,4.9-.3,3.1-.5,6.1-1.6,8.9-3.1.4-.2.8-.4,1.3-.6.2,0,.3,0,.4,0l-.4.3c-1.2.7-2.4,1.3-3.7,2-3.6,1.8-7.4,2.7-11.4,2.5-3.5-.2-6.9-.9-10.1-2.3-.6-.2-1.9-.9-3.9-2-1.3-.7-2.6-1.3-3.9-1.9h-.1Z"/>
  <path class="st17" d="M148.5,79.2c.1,0,.2,0,0,.2h-.1c-.3.2-.5.3-.8.5-.4.2-.7.3-.8.4-3.2,1.9-6.6,3.3-10.1,4.2-6.8,1.7-13.1.5-18.8-3.5h-.2s0,0,0-.2c0,0,.3,0,.5,0,4.1,2.4,8.6,3.5,13.4,3.4,4.9,0,9.5-1.3,13.7-3.6,1.1-.6,2.2-1.1,3.3-1.5h0Z"/>
  <path class="st19" d="M147.2,114.1c.1,0-1.3-3.3-1.3-3.3,2-1,8.8-23.5,8.5-21.3-2,13.2-3.4,28.6-4.7,29.9-.9,1-1.9,2.1-3.1,3.2-1.4,1.4-2.5,2.4-3.2,3.1-2.4,2.2-4.8,4.2-7.3,6-3.3,2.4-7,4.3-11,5.7-2.3.8-5,1.3-8.1,1.4-.2-.1-.5-.2-.9-.3-.7,0-1.4-.2-2.1-.4-.5-.1-1.2-.4-2-.7-1.8-.8-3.6-1.5-5.4-2.1s-3.7-1.3-5.6-2.3c-1.2-.6-2.3-1.2-3.3-2-.8-.6-1.8-1.4-2.9-2.4-.9-.8-1.6-2.1-2.7-2.7-5-2.7-4.5-8-7.6-13.9s-5.4-18-5.6-18.1c-.3-.2,2.2,2.1,4.1,3.5s9.9,27.3,12.8,29.9c1.8,1.6,3.9,3.2,6.2,4.7,3,2,6.7,3.9,11.1,5.6.4.1,1.1.2,2.3.2h.5c.6,0,1-.2,1.4-.6,0,0,0-.1.2-.1h.8c.3,0,.4-.1,0-.3-1.9-1.7-3.7-3.4-5.6-5,0,0-.9-.8-2.6-2.3-2.4-2.1-4.9-4.1-7.5-5.9-1.6-1.2-2.9-2.3-3.9-3.4-.4-.4-.8-1.2-1.4-2.3-1.7-3.2-3-6.6-4-10.2h0c1,2.1,2.3,4.1,3.8,5.9.9,1,2,2.2,3.3,3.6,1.9,1.9,4,3.7,6.2,5.2,1.3.9,3.3,2.2,6,4,1.2.8,2.5.9,3.8.3.8,0,1.4-.2,2-.5,2.4-1.2,4.7-2.8,6.8-4.7,2.2-2,4-3.8,5.4-5.3,2.1-2.3,4.2-4.6,6.3-6.9,3.1-3.5,5.5-7.5,7.3-11.8,0,0,.1,0,.1,0v.2c-.3,2.6-.8,5-1.3,7.2-1.7,6.4-4.1,12.6-7.2,18.5-.7,1.3-1.3,2.3-1.9,3.1-.4.6-.3.7.3.3.8-.6,1.6-1.2,2.2-1.9,1.8-1.9,3.4-3.9,4.8-6,.5-.7,1-1.5,1.6-2.2.8-1,1.7-1.8,2.7-2.3s1-.6,1.3-.7h0l.3.4Z"/>
  <path class="st11" d="M120.3,175.9c-.8-.8-1.8-1.3-2.9-1.6-1.2-.3-2.4-.2-3.6.2h0c-.7.3-1.4.8-2,1.4-.4.4-.7.8-1,1.3.6,0,1.1,0,1.7-.1.6,0,1.2-.1,1.9-.2h0c.8,0,1.6-.2,2.4-.3.4,0,.8-.1,1.2-.2.8-.1,1.6-.2,2.3-.4h.2,0q0-.1,0,0Z"/>
  <path class="st11" d="M114.4,175.2l-.4.4-1.6,1.6c-.6,0-1.1,0-1.7.1-.8,0-1.6,0-2.4.1h0c-.4-.1-.8-.1-1.2,0h-1l-1-8.1,7.3,1.1h.8c0,.1-.2,1,0,2.1,0,.5.2,1,.5,1.5q.2.3,0,0c0,.2.2.3.3.4.2.2.3.4.5.6v.2Z"/>
  <path class="st11" d="M126,169.4l-.6,5.5c-.7.2-1.4.3-2.1.5h-.3c-.2,0-.5.1-.8.2h-.2c-.5.1-1,.2-1.6.3h-.2c-.8.1-1.6.3-2.3.4l-1.2-1.1c.3-.3.6-.7.8-1,.9-1.6.4-3.5.4-3.5l8.1-1.4h0Z"/>
  <path class="st6" d="M36.5,124l-12-1.9c-2.2-.3-4.4.8-5.3,2.8-.3.7-.5,1.5-.4,2.3-1.2,6.2-5.8,6.8-5.8,6.8l1.8-11.3c.5-3.1-1.9-5.7-4.8-5.8h0c-6.2-1.2-7.2-6-7.2-6h0l10.9,1.7c3.1.5,6-2,5.8-5.2.4-1.4,2.1-6.4,6.5-6.6l-1.7,10.8c-.4,2.7,1.4,5.3,4.2,5.7h.4s5.7,1.2,7.7,6.5v.2Z"/>
  <path class="st3" d="M36.5,124c-2-5.4-7.7-6.5-7.7-6.5h.7c1.1,0,2.2-.3,3.2-.7h0c.6,0,5.9,1.6,6,7.4,0,0,0,.2-.2.2h0l-2.2-.3h.1Z"/>
  <path class="st3" d="M25.9,98.1c.2,0,.3,0,.3.3h0l-.4,2.5c-4.4.3-6.1,5.2-6.5,6.6v-.2c0-1.1-.3-2.1-.6-3.1v-.2c.2-.7,1.6-5.8,7.2-6h0Z"/>
  <path class="st3" d="M20,130.6c.1.2.1.4,0,.6-.4,1.2-1.9,5.3-6.7,5.7-.4,0-.7-.2-.7-.6v-.2l.3-2.1s4.6-.6,5.8-6.8c.1,1.5.9,2.8,1.2,3.3h0Z"/>
  <path class="st3" d="M9.9,117c-.5,0-1,0-1.4.2-.8.2-1.6.5-2.3,1h-.3C4.9,117.9.3,116.4,0,111.1c0-.2.2-.4.4-.5H.4l2.2.3h0s1.1,4.8,7.2,6h.1Z"/>
  <path class="st1" d="M20.1,114.1c1.6.2,2.7,1.7,2.4,3.3-.2,1.6-1.7,2.7-3.3,2.4-1.6-.2-2.7-1.7-2.4-3.3h0c.3-1.6,1.7-2.7,3.3-2.4Z"/>
  <path class="st14" d="M2.4,111.1h0c0,0-1.9-.4-1.9-.4C.3,110.7,0,110.8,0,111.1H0c.3,5.3,4.9,6.8,5.9,7.1h.3c.3-.2.5-.3.8-.4-1.7-.8-4.4-2.6-4.6-6.6h0Z"/>
  <path class="st9" d="M12.9,134.1s1.3-.2,2.6-1.2l1.6-10.1c.5-3.1-1.9-5.7-4.8-5.8h0c-5.1-1-6.7-4.4-7.1-5.6l-2.5-.4h0s1.1,4.8,7.2,6h0c2.9,0,5.3,2.7,4.8,5.8l-1.8,11.3Z"/>
  <path class="st14" d="M15.1,136.1l.3-2.1.2-1.2c-1.4,1-2.6,1.2-2.6,1.2l-.3,2.1c0,.4.2.7.5.8h.2c.6,0,1.2-.2,1.8-.4v-.4h0Z"/>
  <path class="st6" d="M220.6,144.5l-5.7,2.8c-1,.5-1.1,2.1,0,3.9.4.6.9,1.3,1.5,1.8,3.8,4.9,2.6,6.9,2.6,6.9l-7.1-8.8c-1.9-2.4-4.6-3.5-5.8-2.5h0c-3.1,1.3-6.8-1.8-6.8-1.8h0l5.2-2.5c1.5-.7.8-3.5-1.4-5.8-.8-1.2-3.6-5.3-2.2-7.1l6.8,8.4c1.7,2.1,4.2,3.3,5.5,2.7,0,0,.1,0,.2-.1,0,0,2.9-1.1,7.3,2.1h-.1Z"/>
  <path class="st3" d="M220.6,144.5c-4.4-3.2-7.3-2.1-7.3-2.1l.3-.3c.3-.4.6-1,.7-1.6h0c.3-.1,3.3-.9,7.3,3.3,0,0,.1.2,0,.2h0l-1,.5h0Z"/>
  <path class="st3" d="M198.8,129.4s.2,0,.3.1h0l1.6,1.9c-1.4,1.7,1.4,5.9,2.2,7.1h-.1c-.8-.8-1.6-1.5-2.4-2.2h-.1c-.4-.7-3.4-4.9-1.5-7h0Z"/>
  <path class="st3" d="M219.1,155c.2,0,.3.2.4.4.7,1,3,4.5,1.5,6.5-.1.1-.4,0-.7-.2h-.1c0-.1-1.3-1.7-1.3-1.7,0,0,1.2-2.1-2.6-6.9,1.1,1.1,2.3,1.7,2.7,2h.1Z"/>
  <path class="st3" d="M206,148.7c-.2.2-.3.4-.4.6-.1.4-.2.9-.2,1.5v.2c-.5.2-3.3.7-7-3.1-.2-.2-.2-.4-.2-.5h0l1-.5h0s3.7,3.1,6.8,1.8h0Z"/>
  <path class="st1" d="M207.7,143c.8-.4,2.2.3,3.2,1.6,1,1.2,1.2,2.5.5,2.9-.8.4-2.2-.3-3.2-1.6h0c-1-1.2-1.2-2.5-.5-2.9Z"/>
  <path class="st14" d="M199.2,147h0c0-.1-.9.4-.9.4-.1,0,0,.3,0,.4h0c3.7,3.7,6.5,3.2,7,3.1v-.8c-1.2,0-3.4-.4-6.2-3.2h0Z"/>
  <path class="st9" d="M218.9,160s.3-.6.1-1.8l-6.4-7.8c-1.9-2.4-4.6-3.5-5.8-2.5h0c-2.5,1.1-5.5-.9-6.5-1.6l-1.2.6h0s3.7,3.1,6.8,1.8h0c1.1-1,3.8.1,5.8,2.5l7.1,8.8h0Z"/>
  <path class="st14" d="M221.1,160.8l-1.3-1.6-.8-.9c.2,1.2-.1,1.8-.1,1.8l1.3,1.6c.2.3.5.4.7.4h0c.2-.2.3-.5.4-.9-.1,0-.2-.2-.3-.3h.1Z"/>
</svg>