<?xml version="1.0" encoding="UTF-8"?>
<svg xmlns="http://www.w3.org/2000/svg" version="1.1" xmlns:xlink="http://www.w3.org/1999/xlink" viewBox="0 0 257.2 222.4">
  <!-- Generator: Adobe Illustrator 29.8.3, SVG Export Plug-In . SVG Version: 2.1.1 Build 3)  -->
  <defs>
    <style>
      .st0 {
        fill: #f79c79;
      }

      .st1 {
        fill: url(#linear-gradient2);
      }

      .st2 {
        opacity: .7;
      }

      .st2, .st3, .st4, .st5, .st6, .st7 {
        mix-blend-mode: multiply;
      }

      .st2, .st4 {
        fill: #88070b;
      }

      .st8 {
        fill: #fedd7c;
      }

      .st9 {
        fill: none;
      }

      .st9, .st10 {
        stroke: #000;
      }

      .st9, .st10, .st11 {
        stroke-miterlimit: 10;
      }

      .st3 {
        opacity: .7;
      }

      .st3, .st5, .st7 {
        fill: #b65b24;
      }

      .st12 {
        fill: url(#linear-gradient1);
      }

      .st13 {
        fill: #e8e4e6;
      }

      .st10 {
        fill: #fff;
      }

      .st4 {
        opacity: 1;
      }

      .st14, .st11 {
        fill: #e0e0e0;
      }

      .st15 {
        fill: #feca35;
      }

      .st16 {
        isolation: isolate;
      }

      .st17, .st18 {
        fill: #52576b;
      }

      .st19 {
        fill: #fef0c6;
      }

      .st20 {
        fill: #fee7a3;
      }

      .st21 {
        fill: url(#linear-gradient4);
      }

      .st22 {
        fill: #d9d5d7;
      }

      .st23 {
        fill: url(#linear-gradient5);
      }

      .st24 {
        fill: url(#linear-gradient3);
      }

      .st25 {
        fill: #ffb091;
      }

      .st26, .st18 {
        display: none;
      }

      .st27 {
        fill: #ff6e6e;
      }

      .st5 {
        opacity: .9;
      }

      .st6 {
        fill: #96400f;
      }

      .st28 {
        fill: url(#linear-gradient6);
      }

      .st29 {
        fill: #6eb07a;
      }

      .st30 {
        fill: #434657;
      }

      .st31 {
        fill: #7dc88b;
      }

      .st32 {
        fill: url(#linear-gradient);
      }

      .st11 {
        stroke: #e0e0e0;
      }

      .st7 {
        opacity: .5;
      }
    </style>
    <linearGradient id="linear-gradient" x1="34.2" y1="114.1" x2="82.5" y2="114.1" gradientTransform="translate(2.8 -.5) rotate(.6)" gradientUnits="userSpaceOnUse">
      <stop offset="0" stop-color="#e71822"/>
      <stop offset="1" stop-color="#e7442f"/>
    </linearGradient>
    <linearGradient id="linear-gradient1" x1="-480.2" x2="-431.9" gradientTransform="translate(-346.5 -4.4) rotate(-179.4) scale(1 -1)" xlink:href="#linear-gradient"/>
    <linearGradient id="linear-gradient2" x1="-267.5" y1="143.5" x2="-256.4" y2="143.5" gradientTransform="translate(-181.5 -2.5) rotate(-179.4) scale(1 -1)" xlink:href="#linear-gradient"/>
    <linearGradient id="linear-gradient3" x1="-278.4" y1="149.4" x2="-268.3" y2="149.4" gradientTransform="translate(-181.5 -2.5) rotate(-179.4) scale(1 -1)" xlink:href="#linear-gradient"/>
    <linearGradient id="linear-gradient4" x1="78.9" y1="133.9" x2="87.4" y2="133.9" xlink:href="#linear-gradient"/>
    <linearGradient id="linear-gradient5" x1="82.5" y1="78.6" x2="82.5" y2="97.2" gradientTransform="translate(2.8 -.5) rotate(.6)" gradientUnits="userSpaceOnUse">
      <stop offset="0" stop-color="#bd5732"/>
      <stop offset="1" stop-color="#cc6732"/>
    </linearGradient>
    <linearGradient id="linear-gradient6" x1="60.9" y1="41.2" x2="95.7" y2="112.6" gradientTransform="translate(2.8 -.5) rotate(.6)" gradientUnits="userSpaceOnUse">
      <stop offset="0" stop-color="#ffd575"/>
      <stop offset="1" stop-color="#e8a94c"/>
    </linearGradient>
  </defs>
  <g class="st16">
    <g id="Calque_2_-_copie">
      <path class="st10" d="M159.4,142.5c0,.2,0,.5,0,.7,0,.6,0,1.2,0,1.8,0,.7,0,1.3,0,2,0,0,0,0,0,.1,0,.3,0,.7,0,1,0,.4,0,.9,0,1.3,0,0,0,0,0,0,0,.3,0,.6,0,.9,0,.2,0,.4,0,.6,0,.1,0,.2,0,.3,0,0,0,0,0,0,0,.4,0,.7-.1,1.1,0,.4,0,.7-.1,1.1,0,.3,0,.6-.1,1-.2,1.3-.4,2.5-.7,3.8,0,.3-.1.7-.2,1-.1.6-.2,1.1-.4,1.7-.1.7-.3,1.3-.5,2-.2.7-.4,1.5-.6,2.2-.2.7-.4,1.4-.7,2.1-.2.6-.4,1.3-.7,1.9,0,.2-.1.4-.2.6-.5,1.3-1,2.5-1.5,3.8-.3.6-.5,1.3-.8,1.9-.3.7-.7,1.4-1,2.2-.5.9-.9,1.8-1.4,2.7h0c0,.2-.2.4-.3.5,0,0,0,0,0,.1s0,0,0,.1c-.3.6-.7,1.1-1,1.7-.5.8-1,1.6-1.5,2.5-.2.2-.3.5-.5.7-.4.6-.7,1.1-1.1,1.7-.4.6-.9,1.2-1.3,1.8-.5.7-1,1.3-1.5,2,0,0,0,0,0,0-.5.6-1,1.2-1.4,1.8-.1.1-.2.2-.3.3-1,1.2-2.1,2.4-3.2,3.6-.5.5-.9,1-1.4,1.4h0c-.1.1-.3.3-.4.4-.5.5-1.1,1.1-1.6,1.6-.3.3-.6.6-.9.9-.6.5-1.2,1-1.7,1.5-.5.4-1,.9-1.6,1.3-.1.1-.2.2-.3.3-.2.1-.3.3-.5.4-.7.5-1.3,1-2,1.5-.6.5-1.2.9-1.8,1.3,0,0-.1,0-.2.2-.7.5-1.3.9-2,1.3-.1,0-.3.2-.4.3-.6.4-1.2.8-1.8,1.1-.3.2-.6.4-.9.5-.5.3-.9.5-1.4.8-.8.4-1.6.9-2.4,1.3h0c-4.1,2.1-8.5,3.9-13,5.2,0,0-.2,0-.3,0h0s0,0,0,0c0,0,0,0-.1,0-.2,0-.4.1-.6.2-.3,0-.6.2-.8.2-.4.1-.7.2-1.1.3-.2,0-.5.1-.8.2-.5.1-.9.2-1.4.3-.1,0-.2,0-.3,0-.1,0-.2,0-.3,0,0,0,0,0,0,0-.2,0-.5.1-.7.1h0s0,0,0,0c0,0-.1,0-.2,0-.5.1-1,.2-1.6.3,0,0-.2,0-.2,0-.4,0-.8.1-1.2.2h-.2c-.3,0-.7.1-1,.2-.3,0-.6,0-.8.1,0,0,0,0-.1,0,0,0-.1,0-.2,0-.2,0-.3,0-.5,0-.3,0-.6,0-.9.1-.1,0-.2,0-.3,0h0c-.2,0-.5,0-.7,0-.7,0-1.4.1-2.1.2-.5,0-1,0-1.4.1-.1,0-.3,0-.4,0-.3,0-.6,0-.9,0-.3,0-.7,0-1,0h0c-.1,0-.3,0-.4,0-.7,0-1.4,0-2.2,0h-.2c-.4,0-.8,0-1.2,0-.5,0-1,0-1.6,0-.3,0-.5,0-.8,0-.1,0-.3,0-.4,0-.8,0-1.5,0-2.2-.1h0c-.5,0-1,0-1.5-.1-.3,0-.6,0-.8,0-.9,0-1.8-.2-2.7-.3-.5,0-.9-.1-1.4-.2,0,0,0,0-.1,0,0,0-.1,0-.2,0-.6,0-1.1-.2-1.7-.3-.6-.1-1.2-.2-1.9-.4,0,0,0,0,0,0-.2,0-.4,0-.6-.1-.4,0-.8-.2-1.1-.3-1.2-.3-2.3-.6-3.5-.9-.5-.1-1-.3-1.5-.5-.3,0-.6-.2-.9-.3h0c-.8-.3-1.5-.5-2.3-.8,0,0,0,0,0,0-1.1-.4-2.2-.8-3.3-1.2-.8-.3-1.6-.7-2.4-1-.3-.2-.6-.3-1-.5h0c-.4-.2-.7-.4-1-.5-.3-.2-.7-.3-1-.5h0c-.5-.2-.9-.5-1.3-.7,0,0-.2,0-.2-.1-.3-.2-.7-.4-1-.6-.3-.2-.6-.3-.9-.5-.3-.2-.6-.4-1-.5-.6-.4-1.2-.7-1.8-1.1-.6-.4-1.2-.7-1.7-1.1-.3-.2-.6-.4-.8-.6-.5-.3-1-.7-1.5-1.1-1.3-.9-2.5-1.8-3.7-2.8h0c0,0-.2-.1-.2-.2-.4-.3-.7-.6-1.1-.9-1-.8-2-1.7-3-2.6-.3-.3-.6-.6-1-.9-.5-.5-1-1-1.5-1.5-.5-.5-1-1.1-1.5-1.6-.2-.2-.3-.3-.5-.5-.4-.5-.9-.9-1.3-1.4-.6-.7-1.2-1.3-1.7-2-.3-.3-.6-.7-.8-1-.1-.2-.2-.3-.4-.5-.3-.4-.6-.8-1-1.2-.6-.7-1.1-1.5-1.6-2.2-.3-.4-.6-.9-.9-1.3-.2-.2-.3-.5-.5-.8-.4-.6-.8-1.2-1.1-1.8,0,0,0,0,0-.1h0c-.3-.5-.6-1-.8-1.4,0,0,0,0,0-.1-.2-.3-.3-.5-.5-.8-.3-.5-.6-1.1-.9-1.6h0c-.5-1-1-1.9-1.5-2.9-.3-.7-.6-1.4-1-2-.3-.7-.6-1.4-.9-2.1-.5-1.1-.9-2.2-1.3-3.4-.1-.3-.2-.6-.3-.9-.1-.3-.2-.7-.3-1,0,0,0,0,0,0,0,0,0,0,0-.1-.1-.4-.3-.8-.4-1.3-.1-.5-.3-.9-.4-1.4-.1-.5-.3-.9-.4-1.4-.1-.5-.2-.9-.4-1.4-.2-.6-.3-1.2-.4-1.8,0-.2-.1-.5-.2-.7-.1-.5-.2-1-.3-1.5,0-.5-.2-.9-.2-1.3,0,0,0-.1,0-.2-.2-1.3-.4-2.6-.6-3.9h0c0-.4,0-.8-.1-1.2,0-.3,0-.6-.1-.9,0-.5,0-1-.1-1.5,0-1-.1-2.1-.2-3.1h0c0-.5,0-1.1,0-1.6h0c0-.2,0-.2,0-.3,0-.4,0-.9,0-1.3h0c0-.4,0-.6,0-.9,0-.2,0-.3,0-.5,0-.7,0-1.3,0-2,0-1.1.1-2.1.2-3.2,0-.4,0-.8.1-1.2.1-1.6.3-3.2.6-4.7h0c2.5-16.1,9.8-30.5,20.4-41.9h0c3.1-3.4,6.5-6.4,10.1-9.2,2-1.6,4.2-3,6.4-4.4h0s0,0,0,0c1.7-1,3.4-2,5.2-2.9,0,0,.1,0,.2,0,0,0,0,0,0,0,0,0,0,0,0,0,0,0,0,0,0,0,0,0,0,0,.1,0,0,0,.1,0,.2,0,.1,0,.2-.1.3-.2.1,0,.3-.1.4-.2,0,0,.1,0,.2,0,0,0,0,0,.1,0,0,0,0,0,.1,0,0,0,.1,0,.2,0,.7-.4,1.5-.7,2.2-1,.2,0,.3-.2.5-.2.5-.2,1-.4,1.4-.6.4-.2.9-.3,1.3-.5.3-.1.5-.2.8-.3.4-.2.9-.3,1.3-.5,0,0,.2,0,.2,0,.6-.2,1.1-.4,1.7-.6,0,0,0,0,0,0,0,0,0,0,0,0,1.1-.4,2.3-.7,3.5-1.1.1,0,.2,0,.4,0,.1,0,.2,0,.4,0,1.2-.3,2.4-.6,3.6-.9.4,0,.8-.2,1.2-.2,0,0,0,0,0,0,.5-.1,1-.2,1.5-.3.8-.1,1.5-.3,2.3-.4.2,0,.4,0,.6,0h0c.2,0,.4,0,.6,0,.5,0,1-.1,1.5-.2h0c1-.1,1.9-.2,2.9-.3.4,0,.9,0,1.3-.1.5,0,1,0,1.5,0,0,0,.2,0,.3,0,.6,0,1.3,0,1.9,0h0c.4,0,.8,0,1.3,0s.2,0,.4,0h0c1.1,0,2.1,0,3.1,0,.8,0,1.7,0,2.5.1,0,0,0,0,0,0h0c.3,0,.5,0,.8,0h0c.4,0,.7,0,1.1,0,1.2.1,2.3.3,3.4.4,0,0,0,0,.1,0,.6,0,1.1.2,1.7.3.8.2,1.7.3,2.5.5.3,0,.7.1,1,.2h0c.3,0,.5.1.8.2,1.8.4,3.6.9,5.4,1.5.2,0,.4.1.5.2.2,0,.4.1.5.2.8.2,1.6.5,2.4.8h0c2.4.8,4.7,1.8,7,2.9.1,0,.2,0,.4.2.1,0,.2,0,.4.2.6.3,1.2.6,1.9.9.7.4,1.4.8,2.2,1.2.6.3,1.2.7,1.8,1,.5.3,1,.6,1.5.9.2,0,.3.2.5.3.6.4,1.2.8,1.8,1.2.2.1.4.3.6.4.2.2.5.3.7.5.2.2.4.3.6.5.2.1.3.2.5.3,0,0,.1,0,.2.1.3.2.7.5,1,.8,0,0,.1,0,.2.1,0,0,0,0,.1,0,0,0,.2.1.3.2,0,0,.2.1.2.2.2.2.4.3.6.5.5.4,1.1.9,1.6,1.3h0s0,0,0,0c0,0,0,0,.1,0,0,0,.1,0,.2.2.1.1.3.2.4.4.3.2.5.5.8.7.4.3.7.7,1.1,1,.4.3.8.7,1.1,1,.4.4.8.7,1.1,1.1.4.4.7.7,1.1,1.1,1.1,1.1,2.1,2.2,3.1,3.4,0,0,.1.2.2.3,0,0,.2.2.2.3.8,1,1.6,2,2.4,3,.3.3.5.7.8,1,.3.4.7.9,1,1.3,0,0,0,.1.1.2.3.4.6.9.9,1.3.3.4.6.8.8,1.2,1.3,2,2.5,4,3.6,6.1.3.5.5,1,.8,1.5.2.4.4.8.6,1.2.2.4.4.8.6,1.2.9,2,1.8,4,2.5,6,.2.5.4,1,.5,1.5.2.6.4,1.3.6,1.9.4,1.4.8,2.8,1.2,4.2.1.5.3,1,.4,1.5,0,.4.2.8.3,1.2,0,.3.1.6.2,1,0,.4.2.8.2,1.1,0,.5.2,1,.3,1.5,0,.5.2,1,.2,1.5,0,0,0,.2,0,.2,0,.5.1,1,.2,1.5.1.7.2,1.4.2,2.2,0,.4,0,.7.1,1.1,0,.5,0,1.1.1,1.6,0,.5,0,1,0,1.5s0,1,0,1.5c0,.2,0,.4,0,.6s0,.4,0,.6c0,.4,0,.8,0,1.2Z"/>
      <path class="st9" d="M159.4,142.5c0,.2,0,.5,0,.7,0,.6,0,1.2,0,1.8,0,.7,0,1.3,0,2,0,0,0,0,0,.1,0,.3,0,.7,0,1,0,.4,0,.9,0,1.3,0,0,0,0,0,0,0,.3,0,.6,0,.9,0,.2,0,.4,0,.6,0,.1,0,.2,0,.3,0,0,0,0,0,0,0,.4,0,.7-.1,1.1,0,.4,0,.7-.1,1.1,0,.3,0,.6-.1,1-.2,1.3-.4,2.5-.7,3.8,0,.3-.1.7-.2,1-.1.6-.2,1.1-.4,1.7-.1.7-.3,1.3-.5,2-.2.7-.4,1.5-.6,2.2-.2.7-.4,1.4-.7,2.1-.2.6-.4,1.3-.7,1.9,0,.2-.1.4-.2.6-.5,1.3-1,2.5-1.5,3.8-.3.6-.5,1.3-.8,1.9-.3.7-.7,1.4-1,2.2-.5.9-.9,1.8-1.4,2.7h0c0,.2-.2.4-.3.5,0,0,0,0,0,.1s0,0,0,.1c-.3.6-.7,1.1-1,1.7-.5.8-1,1.6-1.5,2.5-.2.2-.3.5-.5.7-.4.6-.7,1.1-1.1,1.7-.4.6-.9,1.2-1.3,1.8-.5.7-1,1.3-1.5,2,0,0,0,0,0,0-.5.6-1,1.2-1.4,1.8-.1.1-.2.2-.3.3-1,1.2-2.1,2.4-3.2,3.6-.5.5-.9,1-1.4,1.4h0c-.1.1-.3.3-.4.4-.5.5-1.1,1.1-1.6,1.6-.3.3-.6.6-.9.9-.6.5-1.2,1-1.7,1.5-.5.4-1,.9-1.6,1.3-.1.1-.2.2-.3.3h0c-.2.1-.3.3-.5.4-.7.5-1.3,1-2,1.5-.6.5-1.2.9-1.8,1.3,0,0-.1,0-.2.2-.7.5-1.3.9-2,1.3-.1,0-.3.2-.4.3-.6.4-1.2.8-1.8,1.1-.3.2-.6.4-.9.5-.5.3-.9.5-1.4.8-.8.4-1.6.9-2.4,1.3h0c-4.1,2.1-8.5,3.9-13,5.2,0,0-.2,0-.3,0h0s0,0,0,0c0,0,0,0-.1,0-.2,0-.4.1-.6.2-.3,0-.6.2-.8.2-.4.1-.7.2-1.1.3-.2,0-.5.1-.8.2-.5.1-.9.2-1.4.3-.2,0-.4.1-.7.2,0,0,0,0,0,0-.2,0-.5.1-.7.2h0c0,0-.1,0-.2,0-.5.1-1,.2-1.6.3,0,0-.2,0-.2,0-.4,0-.8.1-1.2.2h-.2c-.3,0-.7.1-1,.2-.3,0-.6,0-.8.1,0,0,0,0-.1,0,0,0-.1,0-.2,0-.2,0-.3,0-.5,0-.3,0-.6,0-.9.1-.1,0-.2,0-.3,0-.2,0-.5,0-.7,0-.7,0-1.4.1-2.1.2-1.4.1-2.8.2-4.3.2-.7,0-1.4,0-2.2,0h-.2c-.4,0-.8,0-1.2,0-.5,0-1,0-1.6,0-.3,0-.5,0-.8,0-.1,0-.3,0-.4,0-.8,0-1.5,0-2.2-.1h0c-.5,0-1,0-1.5-.1-.3,0-.6,0-.8,0-.9,0-1.8-.2-2.7-.3-.5,0-.9-.1-1.4-.2,0,0,0,0-.1,0,0,0-.1,0-.2,0-.6,0-1.1-.2-1.7-.3-.6-.1-1.2-.2-1.9-.4,0,0,0,0,0,0-.2,0-.4,0-.6-.1-.4,0-.8-.2-1.1-.3-1.2-.3-2.3-.6-3.5-.9-.5-.1-1-.3-1.5-.5-.3,0-.6-.2-.9-.3h0c-.8-.3-1.5-.5-2.3-.8,0,0,0,0,0,0-1.1-.4-2.2-.8-3.3-1.2-.8-.3-1.6-.7-2.4-1-.3-.2-.6-.3-1-.5h0c-.4-.2-.7-.4-1-.5-.3-.2-.7-.3-1-.5-.5-.2-.9-.5-1.3-.7,0,0-.2,0-.2-.1-.3-.2-.7-.4-1-.6-.3-.2-.6-.3-.9-.5-.3-.2-.6-.4-1-.5-.6-.4-1.2-.7-1.8-1.1-.6-.4-1.2-.7-1.7-1.1-.3-.2-.6-.4-.8-.6-.5-.3-1-.7-1.5-1.1-1.3-.9-2.5-1.8-3.7-2.8,0,0-.2-.1-.2-.2-.4-.3-.7-.6-1.1-.9-1-.8-2-1.7-3-2.6-.3-.3-.6-.6-1-.9-.5-.5-1-1-1.5-1.5-.5-.5-1-1.1-1.5-1.6-.2-.2-.3-.3-.5-.5-.4-.5-.9-.9-1.3-1.4-.6-.7-1.2-1.3-1.7-2-.3-.3-.6-.7-.8-1-.1-.2-.2-.3-.4-.5-.3-.4-.6-.8-1-1.2-.6-.7-1.1-1.5-1.6-2.2-.3-.4-.6-.9-.9-1.3-.2-.2-.3-.5-.5-.8-.4-.6-.8-1.2-1.1-1.8,0,0,0-.1,0-.2-.3-.5-.6-.9-.8-1.4,0,0,0,0,0-.1-.2-.3-.3-.5-.5-.8-.3-.5-.6-1.1-.9-1.6h0c-.5-1-1-1.9-1.5-2.9-.3-.7-.6-1.4-1-2-.3-.7-.6-1.4-.9-2.1-.5-1.1-.9-2.2-1.3-3.4-.1-.3-.2-.6-.3-.9-.1-.3-.2-.7-.3-1,0,0,0,0,0,0,0,0,0,0,0-.1-.1-.4-.3-.8-.4-1.3-.1-.5-.3-.9-.4-1.4-.1-.5-.3-.9-.4-1.4-.1-.5-.2-.9-.4-1.4-.2-.6-.3-1.2-.4-1.8,0-.2-.1-.5-.2-.7-.1-.5-.2-1-.3-1.5,0-.5-.2-.9-.2-1.3,0,0,0-.1,0-.2-.2-1.3-.4-2.6-.6-3.9h0c0-.4,0-.8-.1-1.2,0-.3,0-.6-.1-.9,0-.5,0-1-.1-1.5,0-1-.1-2.1-.2-3.1h0c0-.5,0-1.1,0-1.6h0c0-.2,0-.2,0-.3,0-.4,0-.9,0-1.3h0c0-.4,0-.6,0-.9,0-.2,0-.3,0-.5,0-.7,0-1.3,0-2,0-1.1.1-2.1.2-3.2,0-.4,0-.8.1-1.2.1-1.6.3-3.2.6-4.7h0c2.5-16.1,9.8-30.5,20.4-41.9h0c3.1-3.4,6.5-6.4,10.1-9.2,2-1.6,4.2-3,6.4-4.4h0s0,0,0,0c1.7-1,3.4-2,5.2-2.9,0,0,.1,0,.2,0,0,0,0,0,0,0,0,0,0,0,0,0,0,0,0,0,0,0,0,0,0,0,.1,0,0,0,.1,0,.2,0,.1,0,.2-.1.3-.2.1,0,.3-.1.4-.2,0,0,.1,0,.2,0,0,0,0,0,.1,0,0,0,0,0,.1,0,0,0,.1,0,.2,0,.7-.4,1.5-.7,2.2-1,.2,0,.3-.2.5-.2.5-.2,1-.4,1.4-.6.4-.2.9-.3,1.3-.5.3-.1.5-.2.8-.3.4-.2.9-.3,1.3-.5,0,0,.2,0,.2,0,.6-.2,1.1-.4,1.7-.6,0,0,0,0,0,0,0,0,0,0,0,0,1.1-.4,2.3-.7,3.5-1.1.1,0,.2,0,.4,0,.1,0,.2,0,.4,0,1.2-.3,2.4-.6,3.6-.9.4,0,.8-.2,1.2-.2,0,0,0,0,0,0,.5-.1,1-.2,1.5-.3.8-.1,1.5-.3,2.3-.4.2,0,.4,0,.6,0h0c.2,0,.4,0,.6,0,.5,0,1-.1,1.5-.2h0c1-.1,1.9-.2,2.9-.3.4,0,.9,0,1.3-.1.5,0,1,0,1.5,0,0,0,.2,0,.3,0,.6,0,1.3,0,1.9,0h0c.4,0,.8,0,1.3,0s.2,0,.4,0h0c1.1,0,2.1,0,3.1,0,.8,0,1.7,0,2.5.1,0,0,0,0,0,0,0,0,0,0,0,0h0c.3,0,.5,0,.8,0h0c.4,0,.7,0,1.1,0,1.2.1,2.3.3,3.4.4,0,0,0,0,.1,0,.6,0,1.1.2,1.7.3.8.2,1.7.3,2.5.5.3,0,.7.1,1,.2h0c.3,0,.5.1.8.2,1.8.4,3.6.9,5.4,1.5.2,0,.4.1.5.2.2,0,.4.1.5.2.8.2,1.6.5,2.4.8h0c2.4.8,4.7,1.8,7,2.9.1,0,.2,0,.4.2.1,0,.2,0,.4.2.6.3,1.2.6,1.9.9.7.4,1.4.8,2.2,1.2.6.3,1.2.7,1.8,1,.5.3,1,.6,1.5.9.2,0,.3.2.5.3.6.4,1.2.8,1.8,1.2.2.1.4.3.6.4.2.2.5.3.7.5.2.2.4.3.6.5.2.1.3.2.5.3,0,0,.1,0,.2.1.3.2.7.5,1,.8,0,0,.1,0,.2.1,0,0,0,0,.1,0,0,0,.2.1.3.2,0,0,.2.1.2.2.2.2.4.3.6.5.5.4,1.1.9,1.6,1.3h0s0,0,0,0c0,0,0,0,.1,0,0,0,.1,0,.2.2.1.1.3.2.4.4.3.2.5.5.8.7.4.3.7.7,1.1,1,.4.3.8.7,1.1,1,.4.4.8.7,1.1,1.1.4.4.7.7,1.1,1.1,1.1,1.1,2.1,2.2,3.1,3.4,0,0,.1.2.2.3,0,0,.2.2.2.3.8,1,1.6,2,2.4,3,.3.3.5.7.8,1,.3.4.7.9,1,1.3,0,0,0,.1.1.2.3.4.6.9.9,1.3.3.4.6.8.8,1.2,1.3,2,2.5,4,3.6,6.1.3.5.5,1,.8,1.5.2.4.4.8.6,1.2.2.4.4.8.6,1.2.9,2,1.8,4,2.5,6,.2.5.4,1,.5,1.5.2.6.4,1.3.6,1.9.4,1.4.8,2.8,1.2,4.2.1.5.3,1,.4,1.5,0,.4.2.8.3,1.2,0,.3.1.6.2,1,0,.4.2.8.2,1.1,0,.5.2,1,.3,1.5,0,.5.2,1,.2,1.5,0,0,0,.2,0,.2,0,.5.1,1,.2,1.5.1.7.2,1.4.2,2.2,0,.4,0,.7.1,1.1,0,.5,0,1.1.1,1.6,0,.5,0,1,0,1.5s0,1,0,1.5c0,.2,0,.4,0,.6s0,.4,0,.6c0,.4,0,.8,0,1.2Z"/>
      <g>
        <path class="st25" d="M195.7,123.7c-.3-.4-.7-.8-1-1-.4-.2-.8-.4-1.1-.5,0,0,.1-.5.1-1.1,0-.6-.2-1.3-.7-2-.4-.5-.8-.8-1.2-1-.4-.2-.7-.3-.9-.3.2-.7.2-1.5,0-2.2-.2-.7-.5-1.3-1.1-1.8-.7-.6-1.6-.9-2.6-.8-1,0-1.9.5-2.7,1.3,0-.2-.2-.5-.3-.8-.1-.3-.3-.7-.5-1.1-.3-.5-.5-.9-.7-1.2-.2-.3-.4-.5-.6-.7-.6-.4-1.5-.4-2.3-.2-.8.2-1.6.6-2.2,1.1-.7.6-1.2,1.2-1.5,1.8-.3.6-.5,1.2-.5,1.5-.1-.3-.3-.7-.6-1.1-.3-.4-.6-.9-1.1-1.3-.9-.7-2-1.3-3.2-1.5-1.1-.2-2.2-.1-2.9.5-.5.4-.7.9-.7,2.1s.2,3,.4,6.1c0,.9.2,1.9.2,2.9,0,1,.2,2.2.3,3.4h0s0,0,0,0c0,.3-.1.6-.2.9,0,.3-.1.6-.2,1-.2.6-.4,1.6-.8,2.7-.4,1.1-.9,2.4-1.6,3.9-1.5,3.1-2.8,4.7-3.7,5.9-.9,1.2-1.4,1.9-1.3,3.2,0,1.4.8,2.7,1.8,3.7,1,1.1,2.3,1.9,3.6,2.4,2.4.8,4.8.2,7.4-1.1,2.6-1.3,5.2-3.3,8-5.4.3-.2.5-.4.7-.6.2-.2.4-.4.6-.7.4-.6.6-1.1.8-1.5.2-.5.4-1,.9-1.6.2-.2.4-.4.6-.6.2-.2.3-.3.5-.4,0,0,.2-.1.3-.2,0,0,.2-.1.2-.2.8-.2,1.5-.4,2.3-.7.7-.3,1.4-.7,2.1-1.1.6-.4,1.5-1,2.4-2,.9-.9,1.9-2.2,2.6-3.8.3-.7.7-1.7.9-2.7.2-1,.1-2.1-.5-3.1Z"/>
        <path class="st31" d="M162.3,138.5c-.6.8-2.4,2.8-6.1,5.1-3.7,2.3-9.1,4.7-17,6.4-10.1,2.2-17.2.2-23.1-1.4-6-1.6-10.9-3-16.8.3-3.2,1.8-5.9,4.6-7.8,7.8-1.9,3.2-2.9,6.8-2.6,10.1.6,6.8,6.3,11.7,12.1,14.9,5.8,3.2,11.6,4.7,12.4,4.9,8.7,2.2,16.8,1.2,23.5-.8,6.7-2,11.9-4.9,14.8-6.5,10.6-5.9,18-13.9,23.1-21.4,5.1-7.4,7.9-14.3,9.3-18.1-1.1,0-2.5-.3-4.1-.7-1.6-.4-3.4-1-5.3-1.9-2.1-1-3.8-2.1-5.2-3.2-1.4-1.1-2.5-2.2-3.3-3-.3,1-.7,2.1-1.4,3.4s-1.4,2.7-2.5,4.1Z"/>
        <path class="st31" d="M45.4,209.5c-.1.3-.2.7-.3,1-.1.4-.2.9-.3,1.3,0,.3-.1.5-.2.8,0,.3-.1.6-.2.8,0,0,0,0,0,.1-.5-.3-1-.5-1.6-.8,0-1.4,0-2.8.1-4.2l2.5,1Z"/>
        <path class="st31" d="M60.1,215.7c0-.1,1.3.9,3.1,1.9h0c-1.7-1-3.1-1.8-3.1-1.9Z"/>
        <path class="st31" d="M67,220.9c0,0-.1,0-.2,0-.6,0-1.1-.2-1.7-.3-.6-.1-1.2-.2-1.9-.4,0,0,0,0,0,0v-2.4c.6.4,1.1.8,1.7,1.2.7.6,1.5,1.2,2.1,1.9Z"/>
        <path class="st31" d="M76.4,221.8c0,0,0,.2,0,.2-.2,0-.4-.2-.5-.3-.5-.2-.9-.5-1.3-.7-.6-.3-1.2-.7-1.8-1.1-.5-.3-.9-.6-1.4-1-.2.1-.4.2-.4.2-2,.9-4.7,0-6.8-1.2-.3-.2-.6-.3-.9-.5v-1.2l3.9,1.5c.5-.4,1-.8,1.5-1,.6-.4,1.1-.6,1.6-.7,0,0,0,0,.1,0,.6-.2,1.1-.2,1.5-.2.2,0,.4,0,.5,0,.6,0,1.2.3,1.8.6,1.1.6,2.1,1.6,3,2.9,0,0,0,0,0,0,.2.3.4.5.5.8.3.5.6,1,.9,1.5-.8,0-1.6,0-2.3,0Z"/>
        <path class="st31" d="M105.3,216.6c-.8.7-1.6,1.4-2.5,2-.3.2-.5.4-.8.6v-.3c-.9.3-1.8.5-2.7.7-.9.2-1.9.5-2.8.7h0c0,0-.1,0-.2,0-.6.1-1.2.2-1.8.4-.4,0-.8.1-1.2.2-.7.1-1.3.2-2,.3,0,0,0,0-.1,0,0,0-.1,0-.2,0-.2,0-.3,0-.5,0,.4-.7.8-1.3,1.2-1.8.3-.4.5-.7.8-1,.8-.9,1.7-1.6,2.7-2,.4-.2.8-.3,1.2-.3.6,0,1.3,0,2.2.2.1,0,.2,0,.3.1.5.2,1.1.5,1.8.9.3.2.7.5,1,.8h.3c0-.1,3.2-1.4,3.2-1.4Z"/>
        <path class="st29" d="M60.1,215.7c0-.1,1.3.9,3.1,1.9h0c-1.7-1-3.1-1.8-3.1-1.9Z"/>
        <path class="st29" d="M67,220.9c0,0-.1,0-.2,0-.6,0-1.1-.2-1.7-.3-.6-.1-1.2-.2-1.9-.4,0,0,0,0,0,0v-2.4c.6.4,1.1.8,1.7,1.2.7.6,1.5,1.2,2.1,1.9Z"/>
        <path class="st29" d="M136.3,198.5c-.7.7-1.4,1.4-2.1,2-.3.3-.6.6-.9.9-1.2,1.1-2.4,2.1-3.6,3.1h0c-1.2.2-2.4.1-3.5,0-2.7-.5-4.9-2.2-7-5-4,6.7-8.6,12.8-13.8,17.2-.8.7-1.6,1.4-2.5,2-.3.2-.5.4-.8.6v-.3c-.9.3-1.8.5-2.7.7-.9.2-1.9.5-2.8.7h0c0,0-.1,0-.2,0-.6.1-1.2.2-1.8.4-.4,0-.8.1-1.2.2-.7.1-1.3.2-2,.3,0,0,0,0-.1,0,0,0-.1,0-.2,0-.2,0-.3,0-.5,0-.4,0-.8.1-1.2.2-.2,0-.5,0-.7,0-2.8.3-5.7.5-8.6.5h-.2c-.4,0-.8,0-1.2,0-.8,0-1.6,0-2.3,0,0,0,0,.2,0,.2-.2,0-.4-.2-.5-.3-.5-.2-.9-.5-1.3-.7-.6-.3-1.2-.7-1.8-1.1-.5-.3-.9-.6-1.4-1-.2.1-.4.2-.4.2-2,.9-4.7,0-6.8-1.2-.3-.2-.6-.3-.9-.5v-1.2l-17.8-7c-.1.3-.2.7-.3,1-.1.4-.2.9-.3,1.3,0,.3-.1.5-.2.8,0,.3-.1.6-.2.8,0,0,0,0,0,.1-.5-.3-1-.5-1.6-.8-4.4-2.3-8.6-5.1-12.5-8.2,0-1,.1-2,.2-3,.5-5.4,1.5-11.9,3.5-18.9,1.5-5.4,3.6-11.1,6.6-16.9.9-1.8,1.8-3.5,2.9-5.3,1.1-1.8,2.4-3.9,3.9-6.2.4-.6.8-1.1,1.2-1.7.3-.4.6-.9,1-1.3,1.1-1.4,2.3-2.9,3.6-4.4.2-.2.4-.5.6-.7,1.1-1.2,2.2-2.5,3.5-3.8.4-.4.8-.9,1.3-1.3,0,0,.2-.2.2-.2.2-.2.4-.3.5-.5h48.4c.5.5,1,1,1.5,1.5.5.5,1,1,1.5,1.6.4.5.9.9,1.3,1.4,1.1,1.2,2.2,2.4,3.1,3.6,0,0,0,.1.2.2.8.9,1.5,1.8,2.1,2.7,1,1.4,2,2.7,2.9,4,.5.7.9,1.4,1.4,2.1.7,1.1,1.4,2.2,1.9,3.2,2.7,4.6,4.9,9.2,6.6,13.7,1.1,2.9,2.1,5.8,2.9,8.6.4,1.3.7,2.6,1,3.8,1,4.3,1.7,8.4,2.1,12Z"/>
        <path class="st17" d="M60.1,215.7c0-.1,1.3.9,3.1,1.9h0c-1.7-1-3.1-1.8-3.1-1.9Z"/>
        <path class="st17" d="M67,220.9c0,0-.1,0-.2,0-.6,0-1.1-.2-1.7-.3-.6-.1-1.2-.2-1.9-.4,0,0,0,0,0,0v-2.4c.6.4,1.1.8,1.7,1.2.7.6,1.5,1.2,2.1,1.9Z"/>
        <path class="st17" d="M106.4,176.5c.3.8.7,1.5,1,2.3h0c1.2,2.6,2.5,5,3.7,7.2.1.2.2.4.3.6.3.5.6,1.1.9,1.6.4.8.8,1.5,1.2,2.2,2,3.7,3.8,6.6,5.4,8.9,0,0,.1.2.2.2-4,6.7-8.6,12.8-13.8,17.2-.8.7-1.6,1.4-2.5,2-.3.2-.5.4-.8.6v-.3c-.9.3-1.8.5-2.7.7-.9.2-1.9.5-2.8.7h0c0,0-.1,0-.2,0-.6.1-1.2.2-1.8.4-.4,0-.8.1-1.2.2-.7.1-1.3.2-2,.3,0,0,0,0-.1,0,0,0-.1,0-.2,0-.2,0-.3,0-.5,0-.4,0-.8.1-1.2.2-.2,0-.5,0-.7,0-2.8.3-5.7.5-8.6.5h-.2c-.4,0-.8,0-1.2,0-.8,0-1.6,0-2.3,0,0,0,0,.2,0,.2-.2,0-.4-.2-.5-.3-.5-.2-.9-.5-1.3-.7-.6-.3-1.2-.7-1.8-1.1-.5-.3-.9-.6-1.4-1-.2.1-.4.2-.4.2-2,.9-4.7,0-6.8-1.2-.3-.2-.6-.3-.9-.5v-1.2l-17.8-7c-.1.3-.2.7-.3,1-.1.4-.2.9-.3,1.3,0,.3-.1.5-.2.8,0,.3-.1.6-.2.8,0,0,0,0,0,.1-.5-.3-1-.5-1.6-.8-4.4-2.3-8.6-5.1-12.5-8.2,0-1,.1-2,.2-3,1.8,1.3,3.7,2.2,5.5,2.7,1.8.5,3.5.6,5.2.3,2.8-.6,4.9-2.3,7.2-5.2,0,0,0,0,0,0,1-1.4,2.1-3,3.2-4.9,1.1-1.9,2.2-4,3.5-6.3.2-.4.5-.9.7-1.3.1-.2.2-.4.4-.7,1.6-3,3.4-6.4,5-10.2.3-.8.7-1.7,1-2.5.2-.5.4-1,.6-1.6,1.5-4.4,2.8-9.3,3.3-14.8.2-1.9.3-4,.3-6,0-2.8-.2-5.5-.5-8-.1-.9-.2-1.8-.4-2.6,0-.6-.2-1.1-.3-1.7-.5-2.4-1-4.6-1.5-6.5-.3-.9-.5-1.7-.8-2.5h41.2c-.2.6-.4,1.1-.6,1.7h0c-.6,2-1.2,4.5-1.8,7.2,0,.5-.2,1.1-.3,1.7-.1.8-.2,1.6-.3,2.5-.2,1.7-.4,3.5-.4,5.4,0,.9,0,1.8,0,2.7,0,2.5.2,4.9.4,7.1"/>
        <path class="st31" d="M48.3,199.2c.5.7,1.1,1.4,1.6,2,0,.1-.2.2-.3.4-.3.4-.7.9-1,1.4-.3.4-.5.8-.8,1.3,0,.2-.2.3-.3.5-.3.6-.7,1.2-1,1.9,0,.2-.2.4-.2.5-.3.6-.6,1.3-.8,2,0,0,0,.1,0,.2-.1.3-.2.7-.3,1-.1.4-.2.9-.3,1.3,0,.3-.1.5-.2.8,0,.3-.1.6-.2.8,0,0,0,0,0,.1-.5-.3-1-.5-1.6-.8-4.4-2.3-8.6-5.1-12.5-8.2-7.6-6.1-14-13.5-18.9-21.9,1.2-5.9,3.3-10.7,4.1-12.7.8-1.7,2.1-4.8,4.4-8.1,2.3-3.4,5.7-7.1,10.4-10.4,2.5-1.7,5-3,7.4-4,2.3-1,4.6-1.6,6.6-2.1.8-.2,1.5-.3,2.2-.4.5,0,.9-.1,1.3-.2,1.2-.2,2.4-.3,3.4-.3,1,0,1.9,0,2.6,0v1.7s0,1.4,0,1.4h0s0,2.1,0,2.1c-1.8,2.1-3.4,4.1-4.8,6h0c-.2.2-.3.5-.5.7-.2.3-.5.7-.7,1-1.2,1.7-2.3,3.3-3.2,4.8-.7,1.2-1.6,2.6-2.5,4.2-.3.6-.6,1.2-.9,1.8-.6,1.2-1.2,2.5-1.9,3.9-.9,1.9-1.6,3.7-2.3,5.5-.7,1.8-1.3,3.5-1.8,5.2,2.5,3.1,4.9,6.2,7.4,9.4,1.9,2.5,3.9,4.9,5.8,7.3Z"/>
        <path class="st30" d="M67,220.9c0,0-.1,0-.2,0-.6,0-1.1-.2-1.7-.3-.6-.1-1.2-.2-1.9-.4,0,0,0,0,0,0v-2.4c.6.4,1.1.8,1.7,1.2.7.6,1.5,1.2,2.1,1.9Z"/>
        <path class="st30" d="M102.1,208.6v10.2c-.9.3-1.8.5-2.7.7-.9.2-1.9.5-2.8.7h0c0,0-.1,0-.2,0-.6.1-1.2.2-1.8.4-.4,0-.8.1-1.2.2-.7.1-1.3.2-2,.3,0,0,0,0-.1,0,0,0-.1,0-.2,0-.2,0-.3,0-.5,0-.4,0-.8.1-1.2.2-.2,0-.5,0-.7,0-2.8.3-5.7.5-8.6.5h-.2c-.4,0-.8,0-1.2,0-.8,0-1.6,0-2.3,0,0,0,0,.2,0,.2-.2,0-.4-.2-.5-.3-.5-.2-.9-.5-1.3-.7-.6-.3-1.2-.7-1.8-1.1-.5-.3-.9-.6-1.4-1-.2.1-.4.2-.4.2-2,.9-4.7,0-6.8-1.2-.3-.2-.6-.3-.9-.5v-9c0-.4,0-.8.2-1.1.2-.7.6-1.4,1.1-1.9,0,0,0,0,0,0,.8-.8,1.8-1.2,3-1.2h30.4c0,0,.1,0,.2,0,.6,0,1.1.2,1.6.4.4.2.8.5,1.2.8.8.8,1.2,1.8,1.2,3Z"/>
        <g>
          <path class="st25" d="M129.4,118.2c-1,11.1-6.3,22.1-14.4,30.2-8.1,8.1-19,13.3-31.4,13-11.9-.3-22.2-5.8-29.8-13.9-7.6-8-12.4-18.7-13.3-29.3-1.1-12.6,3.2-25.5,11-35.3,7.8-9.8,19.2-16.6,32.2-16.9,13.4-.4,25.4,6.2,33.8,16.1,8.4,9.9,13.1,23.1,12,36.2Z"/>
          <g>
            <path class="st25" d="M47.1,98.1c-.9-2.1-2.3-3.9-4-5.3-1.7-1.3-3.7-2.1-5.8-2.3-3.2-.2-6.2,1.1-8.4,3-2.2,1.9-3.6,4.5-3.7,6.8-.1,2.2,1,3.6,2.4,5.2,1.4,1.7,3,3.7,3.8,7.4.6,2.5.5,4.4.4,5.9,0,1.5,0,2.5.9,3.3.7.7,1.9,1.1,4,.8,2.1-.3,5-1.3,9.1-3.4l1.3-21.4Z"/>
            <path class="st0" d="M45.1,104.4c-.9-1.4-2.2-2.5-3.5-3-1.3-.6-2.6-.7-3.7-.2-1.3.5-2.1,1.7-2.6,2.8-.5,1.2-.6,2.4-.7,3,0,.4-.2,2,0,3.6.2,1.7.9,3.4,2.6,4.2,1.2.5,2.7.5,4.1,0,1.4-.6,2.8-1.6,3.8-3.2v-7.2Z"/>
            <path class="st0" d="M43.1,98.6c-.4-.5-.9-.9-1.4-1.3-.5-.4-1.1-.7-1.7-.9-.3-.1-.6-.2-.9-.3-.3,0-.6-.1-1-.2-.3,0-.7,0-1,0-.3,0-.7,0-1,0-.7,0-1.3.2-1.9.4-.6.2-1.2.5-1.8,1-.5.4-1,.9-1.4,1.5-.4.6-.7,1.2-1,1.8.2-.7.4-1.4.8-2,.3-.6.8-1.2,1.3-1.7.5-.5,1.1-.9,1.8-1.3.7-.3,1.4-.6,2.1-.7.4,0,.7-.1,1.1-.2.4,0,.7,0,1.1,0,.4,0,.8,0,1.1,0,.4,0,.7.1,1.1.2.7.2,1.4.5,2.1.9.7.4,1.3.8,1.9,1.3l-.7.7-.7.7Z"/>
          </g>
          <g>
            <path class="st25" d="M123.2,98.1c.9-2.1,2.3-3.9,4-5.3,1.7-1.3,3.7-2.1,5.8-2.3,3.2-.2,6.2,1.1,8.4,3,2.2,1.9,3.6,4.5,3.7,6.8.1,2.2-1,3.6-2.4,5.2-1.4,1.7-3,3.7-3.8,7.4-.6,2.5-.5,4.4-.4,5.9,0,1.5,0,2.5-.9,3.3-.7.7-1.9,1.1-4,.8-2-.3-5-1.3-9.1-3.4l-1.3-21.4Z"/>
            <path class="st0" d="M125.2,104.4c.9-1.4,2.2-2.5,3.5-3,1.3-.6,2.6-.7,3.7-.2,1.3.5,2.1,1.7,2.6,2.8.5,1.2.6,2.4.7,3,0,.4.2,2,0,3.6-.2,1.7-.9,3.4-2.6,4.2-1.2.5-2.7.5-4.1,0-1.4-.6-2.8-1.6-3.8-3.2v-7.2Z"/>
            <path class="st0" d="M127.2,98.6c.4-.5.9-.9,1.4-1.3.5-.4,1.1-.7,1.7-.9.3-.1.6-.2.9-.3.3,0,.6-.1,1-.2.3,0,.7,0,1,0,.3,0,.7,0,1,0,.7,0,1.3.2,1.9.4.6.2,1.2.5,1.8,1,.5.4,1,.9,1.4,1.5.4.6.7,1.2,1,1.8-.2-.7-.4-1.4-.8-2-.3-.6-.8-1.2-1.3-1.7-.5-.5-1.1-.9-1.8-1.3-.7-.3-1.4-.6-2.1-.7-.4,0-.7-.1-1.1-.2-.4,0-.7,0-1.1,0-.4,0-.8,0-1.1,0-.4,0-.7.1-1.1.2-.7.2-1.4.5-2.1.9-.7.4-1.3.8-1.9,1.3l.7.7.7.7Z"/>
          </g>
          <path class="st13" d="M76.2,106c0,2.2-.8,4.3-2.1,5.7-1.3,1.5-3.1,2.4-5.1,2.4s-3.8-.9-5.1-2.4c-1.3-1.5-2.1-3.5-2.1-5.7s.8-4.3,2.1-5.7c1.3-1.5,3.1-2.4,5.1-2.4s3.8.9,5.1,2.4c1.3,1.5,2.1,3.5,2.1,5.7Z"/>
          <path class="st30" d="M73.2,106c0,1.3-.5,2.5-1.2,3.4-.8.9-1.8,1.4-3,1.4s-2.2-.5-3-1.4c-.8-.9-1.2-2-1.2-3.4s.5-2.5,1.2-3.4c.8-.9,1.8-1.4,3-1.4s2.2.5,3,1.4c.8.9,1.2,2,1.2,3.4Z"/>
          <path class="st22" d="M68.6,102.2c0-.6-.2-1.2-.6-1.5-.4-.4-.9-.6-1.5-.6s-1.2.2-1.5.6-.6.9-.6,1.5.2,1.2.6,1.5.9.6,1.5.6,1.2-.2,1.5-.6c.4-.4.6-.9.6-1.5Z"/>
          <path class="st13" d="M108.9,106c0,2.2-.8,4.3-2.1,5.7-1.3,1.5-3.1,2.4-5.1,2.4s-3.8-.9-5.1-2.4c-1.3-1.5-2.1-3.5-2.1-5.7s.8-4.3,2.1-5.7c1.3-1.5,3.1-2.4,5.1-2.4s3.8.9,5.1,2.4c1.3,1.5,2.1,3.5,2.1,5.7Z"/>
          <path class="st30" d="M105.9,106c0,1.3-.5,2.5-1.2,3.4-.8.9-1.8,1.4-3,1.4s-2.2-.5-3-1.4c-.8-.9-1.2-2-1.2-3.4s.5-2.5,1.2-3.4c.8-.9,1.8-1.4,3-1.4s2.2.5,3,1.4c.8.9,1.2,2,1.2,3.4Z"/>
          <path class="st22" d="M101.3,102.2c0-.6-.2-1.2-.6-1.5-.4-.4-.9-.6-1.5-.6s-1.2.2-1.5.6-.6.9-.6,1.5.2,1.2.6,1.5.9.6,1.5.6,1.2-.2,1.5-.6c.4-.4.6-.9.6-1.5Z"/>
          <path class="st27" d="M72.5,124.8c0,2-1.1,3.8-2.9,5.1-1.8,1.3-4.3,2.1-7,2.1s-5.2-.8-7-2.1c-1.8-1.3-2.9-3.1-2.9-5.1s1.1-3.8,2.9-5.1c1.8-1.3,4.3-2.1,7-2.1s5.2.8,7,2.1c1.8,1.3,2.9,3.1,2.9,5.1Z"/>
          <path class="st27" d="M118,124.8c0,2-1.1,3.8-2.9,5.1-1.8,1.3-4.3,2.1-7,2.1s-5.2-.8-7-2.1c-1.8-1.3-2.9-3.1-2.9-5.1s1.1-3.8,2.9-5.1c1.8-1.3,4.3-2.1,7-2.1s5.2.8,7,2.1c1.8,1.3,2.9,3.1,2.9,5.1Z"/>
          <path class="st0" d="M93.1,124.1c-.8-1.4-1.7-3.1-2.7-5-1-1.9-2-4-3-6.4-.3-.7-1.2-1.1-2.2-1.1s-1.9.4-2.2,1.1c-1,2.4-2,4.5-3,6.4-1,1.9-1.9,3.6-2.7,5-1.7,3.2-3.3,5.7-4.1,7.9-.8,2.1-.9,3.9.4,5.6.2.3.4.5.7.8s.5.5.8.7c2.5,2.2,6.3,3.2,10.2,3.2s7.7-1.1,10.2-3.2c.3-.2.5-.5.8-.7s.5-.5.7-.8c1.2-1.8,1.2-3.5.4-5.6-.8-2.1-2.4-4.6-4.1-7.9Z"/>
          <path class="st13" d="M61,99.6c1.2-.6,2.3-1.3,3.5-1.8,1.2-.5,2.4-1,3.7-1.1,1.3-.2,2.9,0,4.4.2,1.5.1,3,.1,4.1-.7.7-.5,1.1-1.1,1.4-1.8.2-.7.1-1.5-.3-2.2-1-1.8-3-2.4-5.1-2.4-2.1,0-4.3.5-5.9,1-1.7.5-3.3,1.3-4.9,2.3-1.5,1-2.9,2.2-3.8,3.7-.6.9-.3,1.9.3,2.5.7.6,1.7.9,2.6.4h0Z"/>
          <path class="st13" d="M112.4,96.7c-1-1.5-2.3-2.7-3.8-3.7-1.5-1-3.2-1.7-4.9-2.3-1.6-.5-3.9-1.1-5.9-1-2.1,0-4,.7-5.1,2.4-.4.7-.5,1.5-.3,2.2.2.7.7,1.4,1.4,1.8,1.1.8,2.6.8,4.1.7s3.1-.4,4.4-.2c1.4.2,2.6.6,3.7,1.1,1.2.5,2.3,1.2,3.5,1.8.9.5,1.9.2,2.6-.4.7-.6.9-1.6.3-2.5h0Z"/>
          <path class="st18" d="M126.2,89.5c-4.4-1.7-10.2-3.6-17.1-5.1-6.9-1.5-14.8-2.5-23.6-2.4-9.4,0-17.8,1.3-25,3-7.2,1.7-13.1,3.9-17.6,5.8.4-.8.9-1.8,1.3-2.8.5-1,1-2.1,1.5-3.2.1-.3.3-.6.4-1,.1-.3.3-.7.5-1,.5-1,.9-2,1.4-3.1.5-1.1,1-2.2,1.5-3.3.1-.3.3-.7.4-1,.1-.3.3-.6.4-1,.1-.3.3-.6.4-.9.1-.3.3-.6.4-.9,1-2.3,1.9-4.4,2.7-6.3s1.6-3.8,2.3-5.6c.2-.4.3-.8.5-1.2.1-.4.3-.8.4-1.1.6-1.5,1.1-2.9,1.5-4.2.5-1.3.8-2.6,1.2-3.9,0-.3.2-.6.3-.9,0-.3.2-.6.2-.9,0,0,0,0,0,0,0,0,0,0,0,0,.3-1.3.5-2.6.7-3.8.2-1.2.3-2.5.4-3.6,0-.4,0-.8,0-1.2,0-.4,0-.8,0-1.2,0-1.4,0-2.7,0-3.9,0-1.3-.2-2.5-.4-3.7,0-.3,0-.7-.2-1,0-.3-.1-.7-.2-1-.2-1.2-.4-2.3-.7-3.4-.3-1.1-.5-2.1-.8-3.1,0-.3-.2-.6-.2-.8,0-.3-.2-.6-.2-.8-.3-.9-.5-1.8-.8-2.6-.3-.8-.5-1.6-.7-2.3-.1-.3-.2-.7-.3-1,0-.3-.2-.6-.2-.9-.3-1.3-.4-2.4-.1-3.3.2-.9.8-1.5,1.8-1.9,1-.4,2.2-.5,3.6-.3,1.4.2,3,.6,4.6,1.2.4.2.9.3,1.3.5.5.2.9.4,1.4.6,1.2.6,2.5,1.2,3.8,1.9,1.3.7,2.6,1.5,4,2.3.4.2.7.4,1.1.7.4.2.7.4,1.1.7,1,.6,2,1.3,3,2,1,.7,1.9,1.3,2.9,2,.4.3.8.6,1.2.8.4.3.8.6,1.1.8,1.1.9,2.2,1.7,3.3,2.5,1,.8,2,1.6,2.8,2.3.5.4.9.8,1.4,1.2.5.4.9.8,1.3,1.2.4.4.8.7,1.2,1.1.4.4.8.7,1.2,1.1,1.1,1.1,2.1,2.1,3.1,3.2,1,1.1,1.9,2.1,2.8,3.1.3.4.6.7.9,1.1.3.4.6.7.9,1.1,1.3,1.6,2.4,3.1,3.5,4.7s2,3,2.9,4.5c.3.4.5.9.8,1.3.3.4.5.9.7,1.3.8,1.5,1.6,3,2.3,4.4.7,1.4,1.3,2.7,1.8,4,.2.4.4.9.5,1.3.2.4.3.8.5,1.2.2.4.3.7.4,1.1.1.3.3.7.4,1,1,2.5,1.9,5,2.6,7.3.7,2.3,1.3,4.6,1.7,6.7.1.6.2,1.1.4,1.7.1.5.2,1.1.3,1.6.3,1.5.5,2.8.7,4.1.2,1.3.3,2.5.4,3.6Z"/>
          <g class="st26">
            <path class="st30" d="M124.5,78.5c-2.5-1.1-5.2-2.1-7.8-2.9-2.7-.8-5.4-1.5-8.1-2.1-7.5-1.5-15.1-1.8-22.7-1.2-7.5.6-15,2.1-22.3,4.3-2.8.9-5.7,1.8-8.5,2.8-2.8,1-5.7,2.1-8.4,3.4-.2.3-.3.7-.5,1-.1.3-.3.6-.4,1,2.4-1,4.8-2,7.2-3,2.4-1,4.9-1.8,7.4-2.6,3.7-1.2,7.5-2.1,11.3-2.9,3.8-.7,7.7-1.3,11.6-1.6,7-.6,14.1-.4,21.1.7,6.9,1.1,13.7,3,20.2,6,.1,0,.2.1.3.2.1,0,.2.1.3.2,0-.5-.2-1.1-.3-1.6-.1-.5-.2-1.1-.4-1.7Z"/>
            <path class="st30" d="M119.4,62.5c-.2-.4-.3-.8-.5-1.2-.2-.4-.4-.8-.5-1.3-1.8-.2-3.5-.4-5.3-.5-1.8-.1-3.5-.2-5.3-.2-7.7-.1-15.4.8-22.9,2.4-7.5,1.6-14.9,3.9-22.1,6.6-1.9.7-3.9,1.5-5.8,2.2-1.9.8-3.8,1.6-5.7,2.4-.1.3-.3.6-.4.9-.1.3-.3.6-.4.9,5.2-2.1,10.4-4.2,15.7-6,5.3-1.8,10.7-3.4,16.2-4.7,6-1.4,12.2-2.3,18.5-2.6,6.2-.3,12.4,0,18.6,1Z"/>
            <path class="st30" d="M114.2,51.6c-.2-.4-.5-.9-.7-1.3-.3-.4-.5-.9-.8-1.3-7.6-.2-15.2.2-22.8,1.1-7.6,1-15,2.6-22.3,4.8-1.8.5-3.5,1.1-5.3,1.7-1.7.6-3.5,1.3-5.2,1.9-.1.4-.3.7-.4,1.1-.1.4-.3.8-.5,1.2,5-1.9,10.1-3.5,15.3-4.9,5.2-1.4,10.4-2.5,15.8-3.2,4.5-.6,9-1,13.4-1.2,4.5-.2,9-.1,13.5.1Z"/>
            <path class="st30" d="M60.4,48.6c0,.3-.1.6-.2.9,0,.3-.2.6-.3.9,7.3-3.5,14.9-6.2,22.7-8,7.8-1.8,15.8-2.7,23.8-2.7-.3-.3-.6-.7-.9-1.1-.3-.4-.6-.7-.9-1.1-5.8.1-11.7.7-17.4,1.8-5.7,1.1-11.4,2.7-16.8,4.7-1.7.6-3.4,1.3-5.1,2.1-1.7.7-3.3,1.5-4.9,2.3Z"/>
            <path class="st30" d="M61.6,38.6c0,.4,0,.8,0,1.2,0,.4,0,.8,0,1.2,1.2-.6,2.4-1.1,3.7-1.7s2.5-1,3.8-1.5c2.8-1,5.6-2,8.5-2.8,2.9-.8,5.8-1.5,8.7-2.1,2.1-.4,4.1-.7,6.2-1,2.1-.3,4.2-.5,6.3-.6-.4-.4-.8-.7-1.2-1.1-.4-.4-.8-.7-1.2-1.1-4.4.4-8.8,1.1-13.2,2-4.3,1-8.6,2.2-12.7,3.7-1.5.5-2.9,1.1-4.4,1.7-1.5.6-2.9,1.3-4.4,2Z"/>
            <path class="st30" d="M60.9,29c0,.3.1.7.2,1,0,.3.1.7.2,1,.8-.4,1.7-.8,2.5-1.2.8-.4,1.7-.8,2.5-1.1,2.7-1.2,5.5-2.2,8.3-3.1,2.8-.9,5.6-1.8,8.5-2.5.8-.2,1.5-.4,2.3-.6.8-.2,1.5-.4,2.3-.5-.4-.3-.7-.5-1.1-.8-.4-.3-.8-.6-1.2-.8-3,.7-6,1.5-8.9,2.5s-5.8,2-8.7,3.2c-1.1.5-2.3.9-3.4,1.4-1.1.5-2.3,1-3.4,1.5Z"/>
            <path class="st30" d="M58.9,20.9c0,.3.2.5.2.8,0,.3.2.6.2.8.6-.3,1.1-.6,1.7-.8.6-.3,1.2-.5,1.8-.7,2.7-1.1,5.4-2,8.1-2.7,2.8-.8,5.6-1.4,8.4-1.9-.4-.2-.7-.5-1.1-.7-.4-.2-.7-.4-1.1-.7-2.7.5-5.3,1.2-7.9,1.9s-5.2,1.6-7.7,2.7c-.4.2-.9.4-1.4.6-.5.2-.9.4-1.4.6Z"/>
            <path class="st30" d="M63.8,12.9c.9-.4,1.9-.7,2.8-1.1.9-.3,1.9-.7,2.8-1-.5-.2-.9-.4-1.4-.6-.5-.2-.9-.4-1.3-.5-.6.2-1.2.4-1.8.7-.6.2-1.2.5-1.8.7-1,.4-2,.9-3.1,1.4-1.1.5-2.1,1-3.2,1.6,0,.3.1.6.2.9,0,.3.2.7.3,1,1-.6,2.1-1.1,3.2-1.6,1.1-.5,2.2-1,3.3-1.5Z"/>
          </g>
          <path class="st30" d="M79,151.6c1.4.1,2.7.2,4.1.4,1.4.2,2.7.3,4.1.5.9,0,2.3.2,3.4-.1,1.1-.3,2-.9,2-2.3s-.9-2-2-2.3c-1.1-.3-2.5-.2-3.4-.1-1.4.1-2.7.3-4.1.5-1.4.2-2.7.3-4.1.4-1,0-1.5.8-1.5,1.5s.5,1.5,1.5,1.5h0Z"/>
        </g>
        <path class="st25" d="M67,220.9"/>
        <path class="st25" d="M68.7,220.7c0,.1,0,.2-.1.4-.5,0-.9-.1-1.4-.2,0,0,0,0-.1,0,0,0-.1,0-.2,0-.6,0-1.1-.2-1.7-.3-.6-.1-1.2-.2-1.9-.4,0,0,0,0,0,0-.2,0-.4,0-.6-.1-.4,0-.8-.2-1.1-.3-1.2-.3-2.3-.6-3.5-.9-.5-.1-1-.3-1.5-.5-.3,0-.6-.2-.9-.3h0s-9-3.5-9-3.5h0s-4.9-2-4.9-2c0,0,0-.1,0-.2,0-.1,0-.2.1-.3.2-.6.5-1.2.7-1.8,0-.2.2-.4.2-.5,0-.1.1-.3.2-.4.1-.3.3-.5.4-.8.1-.2.2-.5.4-.7,0-.2.2-.3.3-.5.3-.5.5-.9.8-1.3.4-.5.7-1,1-1.4.8-.2,1.6-.5,2.2-.8,0,0,.2,0,.2-.1.7-.3,1.3-.7,1.9-1.1.1-.1.3-.2.4-.3.8-.6,1.5-1.3,2.3-1.9.5-.4,1-.7,1.6-.9,0,0,0,0,0,0,.5-.2,1.1-.3,1.6-.3h0c1,0,2,.4,2.8.9.8.6,1.3,1.3,1.3,2.1,0,.7-.4,1.4-1.1,2.1-.2.2-.3.3-.5.5-.2.1-.3.3-.5.4-.3.2-.6.5-1,.7-.2.1-.3.2-.5.3-.8.6-1.7,1.1-2.4,1.4,0,0-.2.1-.3.1-.7.3-1.2.5-1.7.7,1.6,1.1,3,2,4.4,2.9.3.2.5.4.8.5.7.5,1.3.9,1.9,1.2.7.5,1.4.9,2,1.2,0,0,.1,0,.2.1.6.4,1.1.7,1.7,1,.7.4,1.3.8,1.8,1.2.5.3,1,.6,1.4.9.2.1.3.2.5.4.5.4.9.7,1.2,1.1.1.2.3.3.4.5.2.4.3.7.2,1.1Z"/>
        <g>
          <path class="st30" d="M170.9,188.1c0,.3.2.8.4,1.3.2.4.4.9.7,1.4.6,1.1,1.5,2.2,2.8,3.2,2,1.5,4.4,2.3,6.9,2.3s4.9-.8,6.9-2.3c1.3-1,2.2-2.2,2.8-3.2.3-.5.5-1,.7-1.4.2-.5.3-.9.4-1.3h-21.6ZM182.7,193.2c-.3.3-.7.5-1.2.5s-.9-.2-1.2-.5c-.3-.3-.5-.7-.5-1.2s.2-.9.5-1.2c.3-.3.7-.5,1.2-.5s.9.2,1.2.5c.3.3.5.7.5,1.2s-.2.9-.5,1.2Z"/>
          <path class="st15" d="M175.4,146.3c-2.6.3-5.1.5-7.7.8-2.6.3-5.1.5-7.7.8l-1.1.4-1.1.4,1.9,2.5,1.9,2.5,1.7,4.6,1.7,4.6.6,4.3.6,4.3s0,1.8,0,3.7c0,1.9,0,3.9-.2,4.3-.1.4-.3,2.2-.5,4-.2,1.7-.4,3.4-.4,3.4l5.2-.2,5.2-.2,7.2-.3,7.2-.3s2.3.2,4.5.4c2.2.2,4.4.4,4.3.3-.1,0-.3-1.4-.4-2.8-.2-1.4-.3-2.9-.3-3s0-3.1.1-6.1c0-3,.1-5.9.1-6s.4-2.4.8-4.7c.4-2.3.8-4.6.8-4.6l1.6-3.7,1.6-3.7,1.2-1.5,1.2-1.5-4.2-.4-4.2-.4-21.5-1.8Z"/>
          <path class="st8" d="M195.1,168.2c0-3.8-1.5-7.2-4-9.7-2.5-2.5-5.9-4-9.7-4s-7.2,1.5-9.7,4c-2.5,2.5-4,5.9-4,9.7s1.5,7.2,4,9.7c2.5,2.5,5.9,4,9.7,4s7.2-1.5,9.7-4c2.5-2.5,4-5.9,4-9.7Z"/>
          <path class="st20" d="M191,168.2c0-2.7-1.1-5.1-2.8-6.8s-4.2-2.8-6.8-2.8-5.1,1.1-6.8,2.8-2.8,4.2-2.8,6.8,1.1,5.1,2.8,6.8,4.2,2.8,6.8,2.8,5.1-1.1,6.8-2.8,2.8-4.2,2.8-6.8Z"/>
          <path class="st19" d="M186.7,168.2c0-1.5-.6-2.8-1.5-3.7-1-1-2.3-1.5-3.7-1.5s-2.8.6-3.7,1.5c-1,1-1.5,2.3-1.5,3.7s.6,2.8,1.5,3.7c1,1,2.3,1.5,3.7,1.5s2.8-.6,3.7-1.5c1-1,1.5-2.3,1.5-3.7Z"/>
          <path class="st17" d="M192,122.4c-.6-1.3-1.4-2.4-2.4-3.4,0,0-.1-.1-.2-.2,0,0-.2-.2-.3-.3-1.4-1.3-3.2-2.2-5.2-2.7-.1,0-.2,0-.3,0-.7-.2-1.5-.2-2.2-.2-1.9,0-3.7.5-5.3,1.2-1.1.6-2.1,1.3-3,2.2-2.1,2.1-3.4,5-3.4,8.3s1.3,6,3.3,8.1c0,0,0,0,.1.1,1.1,1.1,2.4,2,3.8,2.6,0,0,0,0,0,0,0,0,0,0,0,0h0c.5.2.9.3,1.4.5.9.2,1.9.4,2.9.4s1.9-.1,2.8-.3h0c2-.5,3.9-1.5,5.3-3h0s0,0,0,0c0,0,0,0,0,0s0,0,.1-.1c1.5-1.6,2.7-3.6,3.1-5.9.1-.7.2-1.5.2-2.3,0-1.8-.4-3.4-1.1-4.9ZM181.4,135.2c-2,0-3.9-.8-5.3-2,0,0-.2-.2-.3-.2-1.4-1.4-2.3-3.4-2.3-5.5s.9-4.1,2.3-5.5c1.4-1.4,3.4-2.3,5.5-2.3s4.1.9,5.5,2.3c1.4,1.4,2.3,3.4,2.3,5.5s-.9,4.1-2.3,5.5c0,0-.2.2-.3.2-1.4,1.3-3.2,2-5.3,2Z"/>
          <path class="st30" d="M206.6,148.5c.2-.2.1-.4,0-.6-.1-.1-.4-.2-.6,0-4.8,4.3-7.4,9.9-8.7,15.9-1.3,6.1-1.2,12.6-.8,18.6,0,0-.2-.2-.3-.3,0,0-.2-.2-.3-.3-.8-.8-1.5-1.6-2.3-2.5-.8-.8-1.5-1.6-2.3-2.5-1.4-1.5-2.9-3.1-4.3-4.6-1.5-1.5-2.9-3-4.4-4.6,1.5-1.5,3.1-3,4.6-4.4,1.5-1.5,3.1-2.9,4.6-4.4.8-.7,1.5-1.4,2.3-2.2.8-.7,1.5-1.4,2.3-2.2.8-.8,1.7-1.5,2.5-2.3.8-.8,1.6-1.6,2.3-2.6.3-.4.1-.9-.2-1.2-.3-.3-.8-.5-1.2-.2-1.7,1.2-3.2,2.7-4.7,4.2-1.5,1.6-2.9,3.2-4.4,4.7-1.6,1.5-3.1,3.1-4.6,4.6-1.5,1.5-3.1,3.1-4.6,4.6-1.5-1.5-3-3.1-4.5-4.7-1.5-1.6-3-3.1-4.4-4.7-.7-.8-1.4-1.5-2.2-2.3-.7-.8-1.4-1.5-2.2-2.3-.8-.8-1.5-1.7-2.3-2.5s-1.6-1.6-2.6-2.3c-.4-.3-.9-.1-1.2.2-.3.3-.5.8-.2,1.2,1.2,1.7,2.7,3.2,4.2,4.7,1.6,1.5,3.2,2.9,4.7,4.4,1.6,1.6,3.1,3.1,4.7,4.7,1.6,1.6,3.1,3.1,4.7,4.7-1.5,1.5-3,2.9-4.4,4.4-1.5,1.4-3,2.9-4.4,4.4-.7.7-1.5,1.5-2.2,2.2-.7.7-1.5,1.5-2.2,2.2.3-5.9.3-12.1-1.1-17.9-1.3-5.8-3.9-11.1-8.5-15.2-.2-.2-.4-.1-.6,0-.1.1-.2.4,0,.6,2.1,2.5,3.7,5.3,4.9,8.2,1.2,2.9,1.9,6,2.3,9.3.4,3,.5,6,.4,9,0,3-.3,6-.5,9.1-.3.3-.7.7-1,1.1-.3.4-.6.7-.9,1.1,0,0,0,.1,0,.2,0,0,.2.1.3.1.2,0,.4,0,.6,0,.2-.1.5-.4.7-.6,0,0,0,.1,0,.2,0,0,0,.2,0,.3,0,0,0,.2,0,.4,0,.2,0,.4.2.5.3.5,1,.6,1.5.5s1.1-.6,1.2-1.3c0-.6.1-1.2.1-1.8,0-.6,0-1.2.1-1.8,0,0,.1-.1.2-.2,0,0,.1-.1.2-.2.8-.8,1.6-1.5,2.5-2.3.8-.8,1.6-1.5,2.5-2.3,1.6-1.5,3.1-2.9,4.7-4.4,1.6-1.5,3.1-3,4.6-4.5,1.4,1.4,2.9,2.9,4.3,4.4,1.4,1.5,2.8,2.9,4.3,4.4.8.8,1.6,1.6,2.4,2.4.8.8,1.6,1.6,2.4,2.4.3.3.6.6.9.9.3.3.6.6.9.9,0,.3,0,.7,0,1,0,.3,0,.7,0,1,0,.8.6,1.2,1.3,1.4.6.1,1.3-.1,1.5-.7,0,0,0,0,0,0,0,0,0,0,0,0,.1,0,.2,0,.3,0,0,0,.1-.2,0-.3,0-.1-.1-.2-.2-.3,0-.1-.2-.2-.2-.3-.3-3.4-.6-6.7-.7-10.1-.1-3.4,0-6.7.4-10.1.4-3.3,1.2-6.4,2.3-9.3,1.2-2.9,2.8-5.6,4.9-8.2Z"/>
          <path class="st17" d="M181.4,149.8c3.2.2,6.2.4,9.2.5,3,.2,6,.4,9.2.5,2.1.1,4.3.2,6.4-.2,2.1-.4,4-1.1,5.4-2.7.9-1,1.5-2.3,1.7-3.6.2-1.3,0-2.7-.5-4-.6-1.2-1.5-2.3-2.6-3-1.1-.7-2.5-1.1-3.8-1.1-.6,0-1.3.1-1.9.3-.6.2-1.1.6-1.6,1-.4.5-.7,1.1-.7,1.8,0,.6.1,1.3.5,1.7.3-.8,1-1.4,1.9-1.6.8-.2,1.8-.1,2.5.4.7.5,1.1,1.3,1.3,2.2.1.9,0,1.8-.5,2.5-.4.8-1.1,1.3-1.9,1.7-.8.4-1.7.6-2.5.6-.9,0-1.7-.2-2.6-.5-.8-.3-1.6-.7-2.3-1.3-1.5-1.1-2.7-2.4-3.9-3.9s-2.2-3-3.4-4.4c-1.2-1.4-2.7-2.8-4.4-3.8-1.7-1-3.6-1.7-5.4-1.6-1.8,0-3.7.6-5.4,1.6-1.7,1-3.2,2.4-4.4,3.8-1.2,1.4-2.2,3-3.4,4.4s-2.4,2.8-3.9,3.9c-.7.5-1.5.9-2.3,1.3-.8.3-1.7.5-2.6.5-.9,0-1.8-.2-2.5-.6-.8-.4-1.5-1-1.9-1.7-.4-.8-.6-1.7-.5-2.5.1-.9.5-1.7,1.3-2.2.7-.5,1.7-.6,2.5-.4.8.2,1.6.8,1.9,1.6.4-.5.6-1.1.5-1.7,0-.6-.3-1.3-.7-1.8-.4-.5-1-.8-1.6-1-.6-.2-1.2-.3-1.9-.3-1.4,0-2.7.4-3.8,1.1-1.1.7-2.1,1.8-2.6,3-.6,1.2-.7,2.6-.5,4,.2,1.3.8,2.6,1.7,3.6,1.4,1.5,3.3,2.3,5.4,2.7,2.1.4,4.3.3,6.4.2,3.2-.2,6.2-.4,9.2-.5,3-.2,6-.4,9.2-.5h0Z"/>
          <path class="st17" d="M181.7,189.4c3.3,0,6.2,0,9.2,0,3,0,5.9,0,9.2,0,.4,0,.8,0,1.2,0,.4,0,.8-.1,1.1-.3.4-.2.7-.5.8-.8.2-.4.3-.8.1-1.1-.2-.5-.5-.7-1-.9-.4-.2-1-.3-1.5-.3-2.9-.2-6.3-.5-9.6-.7-3.4-.2-6.7-.5-9.6-.7-2.9.2-6.3.5-9.6.7-3.4.2-6.7.5-9.6.7-.5,0-1,.1-1.5.3-.4.2-.8.5-1,.9-.1.4,0,.8.1,1.1.2.4.5.7.8.8.4.2.7.3,1.1.3.4,0,.8,0,1.2,0,3.3,0,6.2,0,9.2,0,3,0,5.9,0,9.2,0h0Z"/>
          <path class="st17" d="M203.9,141.9c0,.4-.2.8-.4,1.1-.3.3-.7.5-1.1.5s-.8-.2-1.1-.5c-.3-.3-.4-.7-.4-1.1s.2-.8.4-1.1c.3-.3.7-.5,1.1-.5s.8.2,1.1.5c.3.3.4.7.4,1.1Z"/>
          <path class="st17" d="M161.9,141.9c0,.4-.2.8-.5,1.1-.3.3-.7.5-1.1.5s-.8-.2-1.1-.5c-.3-.3-.4-.7-.4-1.1s.2-.8.4-1.1c.3-.3.7-.5,1.1-.5s.8.2,1.1.5c.3.3.5.7.5,1.1Z"/>
        </g>
        <path class="st25" d="M175.7,115.2c0,.2,0,.9.3,1.6.3.8.7,1.6,1.5,1.9.9.5,2.2.3,3.4-.3,1.3-.7,2.5-1.9,3.3-3.8,0,.1-.2.5-.3,1,0,.5-.1,1.1.1,1.8,0,0,.1.4.4.8.2.4.6.8,1.1,1.1.7.4,1.6.5,2.5.3.9-.2,1.9-.8,2.7-1.6-.7.1-1.2.4-1.6.8-.4.4-.6.9-.7,1.4,0,.5.2,1,.5,1.3.3.3.6.5.7.6.5.4,1.1.5,1.6.5.5,0,.8,0,.9,0-.2,0-.5.2-.8.3-.3.2-.7.4-1,.8-.4.5-.6,1.1-.7,1.7,0,.6,0,1.1.1,1.6.3,1,1.2,1.9,2.1,2.4.9.5,1.9.6,2.6.2.6-.4.8-1.1.9-1.8,0-.7,0-1.4,0-1.6,0-.4,0-.9-.2-1.4-.1-.5-.4-1-.8-1.3,0,0-.2-.2-.4-.3-.2-.2-.3-.4-.5-.7,0-.1,0-.2-.1-.3,0,0,0-.2,0-.2,0-.4-.2-1-.3-1.6s-.4-1.1-.8-1.4c-.2-.2-.5-.3-.7-.4-.2,0-.4-.2-.7-.5-.2-.2-.3-.3-.3-.5,0-.1-.1-.3-.2-.4-.2-.4-.5-1-1-1.5-.5-.5-1.1-1-1.7-1.2-.5-.2-1.2-.2-1.7-.2-.5,0-1,0-1.1.1,0,0,0,0,0,0,0,0,0,0-.2,0-.1,0-.3,0-.4,0,0,0-.2,0-.2,0-.1,0-1-.6-2.2-1-1.1-.4-2.5-.7-3.5-.4-.2,0-.5.2-.8.4-.3.2-.6.6-.9,1l-1.1.8Z"/>
      </g>
      <g id="Calque_9">
        <g>
          <path class="st14" d="M102.1,182.7c-.2-10.2,1.3-24.3.4-34.5-.1-1.7-1-5.8-2.7-6.3-.8-.2-3.9,1.2-4.7,1.4l-5.9,1.8s7.9-1.5,8.6-.5c4.9,6.5,4.3,38,4.3,38Z"/>
          <path class="st14" d="M103.6,182.7c-.1-8.1.6-16.3.7-24.4s.2-7.5-.4-11.1-1.3-6.6-4.2-6.7-2.9.7-4.3,1.3c-2.1.8-4.4,1.4-6.6,2.1s-1.1,3.2.8,2.9,2.3-.4,3.5-.6,1.8-.2,2.7-.2.8,0,1.2,0c-.2,0,0,0,0,0,.2,0,.2,0,0,0-.3-.4-.4-.5-.3-.2.1.5.6,1,.8,1.4s.5,1.3.6,1.9c.5,1.6.8,3.3,1.1,4.9,1.2,7.6,1.4,15.4,1.5,23.1s0,3.8,0,5.7,3,1.9,3,0c.1-5.6,0-11.2-.3-16.9s-.6-8.6-1.3-12.9-1-6.4-2.8-8.9-3.6-1.2-5.3-1-3.4.4-5.1.8l.8,2.9c2-.6,4-1.2,6-1.8s2.2-.9,3.3-1.2.6,0,.5-.1c.4.2.6,1,.8,1.4.4,1.1.7,2.3.8,3.5.6,7.3.1,14.8-.2,22.1s-.3,8.1-.3,12.2,3,1.9,3,0Z"/>
        </g>
        <g>
          <path class="st14" d="M82.6,145.7l-7.7-2.4c-.3,0-1.8-2-3.4-1s-2,7.1-2,7.8c0,11.8,3.6,18.5,3.6,30.4v-22.9s-.7-11.2,2.8-12.6,6.6.7,6.6.7Z"/>
          <path class="st14" d="M83,144.2c-2.3-.7-4.5-1.4-6.8-2.1s-2.1-1.6-3.6-1.6c-3.1,0-3.8,3.6-4.2,6-1,6.8.4,13.7,1.7,20.3s1.5,9.1,1.5,13.7,3,1.9,3,0c0-5.5,0-11,0-16.5s0-4.2,0-6.3-.1-4.9.3-7.3.6-3.5,1.7-3.9c1.6-.6,4,.2,5.6.7s2.6-2.3.8-2.9c-3.3-1.1-8.1-2-9.9,1.8s-1.6,7.3-1.4,10.8c.2,5.3,0,10.6,0,15.8s0,5.2,0,7.8h3c0-7.3-1.8-14.3-2.9-21.4s-.9-6.4-.7-9.6.2-2,.4-3,.3-2.5.9-2.9c-.1,0,.1,0,.3,0,.3,0,.5.3.7.4.6.5,1.1.7,1.8,1l7,2.2c1.8.6,2.6-2.3.8-2.9Z"/>
        </g>
        <path class="st11" d="M102.8,153.8s-10.2,17.7-12.3,24.3-2.8,6.9-2.5,10.5-.1,5.8-2.7,5.3-1.5-10.1-1.5-10.1c0,0-.5-9.9-5.9-18s-5.1-10.4-5.1-10.4c0,0,9.7,5.9,11.8,5.9s-1.2-2.6.4-3.9,3.6,0,4.2.5c1,.9-2,3.8,1.5,3.1s7.1-5.1,12.1-7.1Z"/>
      </g>
      <g id="Calque_10">
        <g>
          <line x1="100.5" y1="149.5" x2="100.5" y2="149.6"/>
          <g class="st26">
            <path class="st32" d="M36,95c2.3,5.4,6.2,12.7,12.9,19.9,12.6,13.4,27.6,18.5,34.7,20.4,0-.7.2-1.5.3-2.2-5.2-1.8-15.8-6-25.2-15.9-8.7-9.2-12.3-18.8-13.8-23.8-3,.6-5.9,1.1-8.9,1.7Z"/>
            <path class="st12" d="M132.6,96.1c-2.4,5.3-6.5,12.5-13.4,19.6-12.9,13.2-28,17.9-35.1,19.6,0-.7-.1-1.5-.2-2.2,5.3-1.6,15.9-5.7,25.6-15.4,9-9,12.7-18.5,14.3-23.5,2.9.6,5.9,1.3,8.8,1.9Z"/>
            <path class="st2" d="M49.5,104.6c-3.9-1-7.4-2.1-10.5-3.2-1.3-2.3-2.3-4.4-3.1-6.3,3-.6,5.9-1.1,8.9-1.7.8,2.7,2.2,6.7,4.6,11.3Z"/>
            <path class="st4" d="M132.6,96.1c-1.3,2.9-3.1,6.5-5.7,10.2-3,.6-6.3,1.2-9.6,1.7,3.6-5.6,5.5-10.6,6.5-13.8,2.9.6,5.9,1.3,8.8,1.9Z"/>
            <path class="st1" d="M84.4,133.4c-1.2,2.2-2.5,4.9-3.6,8.1-1.8,5.4-2.5,10.2-2.6,13.9-.9-.7-2.1-1.7-3.2-3-.8-1-1.4-2-1.9-2.8.8-2.7,2.1-6.3,4.6-10.2,1.9-3,4-5.3,5.7-7,.3.3.6.7,1,1Z"/>
            <path class="st24" d="M86.7,133.1c-.5.4-1,.8-1.5,1.2,1,3.7,1.9,8,2.5,12.8.9,7.5.7,14.2.2,19.6,1.2-.7,3-1.9,4.6-3.8,1.3-1.5,2.1-2.9,2.6-4-.6-3.9-1.5-8.7-3.3-13.8-1.6-4.7-3.4-8.6-5.1-11.9Z"/>
            <path class="st2" d="M84.4,133.4c-.8,1.4-1.6,3.1-2.4,4.9-.4-.1-.7-.3-1.1-.5l-.8-.5c-.3-.2-.5-.3-.7-.6,1.4-1.8,2.7-3.3,3.9-4.4.3.3.6.7,1,1Z"/>
            <path class="st2" d="M88.8,137.4l-.8.5c-.6.3-1.1.5-1.7.7-.3-1.5-.7-2.9-1-4.3.5-.4,1-.8,1.5-1.2.7,1.3,1.4,2.7,2.1,4.3Z"/>
            <path class="st21" d="M83.1,131.2h2.7c.7,0,1.3.3,1.7.8l1,1.6c.6.9.3,2.2-.7,2.7l-1,.5c-1.6.9-3.5.8-5,0l-.6-.3c-.9-.5-1.2-1.7-.7-2.7l1-1.7c.3-.6,1-.9,1.6-1Z"/>
          </g>
          <path class="st23" d="M84.5,77.1c36.3.4,65.7,3.6,65.7,10.6s-29.6,17.7-66,17.3c-36.3-.4-65.6-11.7-65.6-18.7s29.6-9.6,65.9-9.2Z"/>
          <path class="st5" d="M150.1,87.8c0,6.3-23.5,15.4-54.2,17l5.1-27.3c28.3,1.1,49.2,4.3,49.2,10.2Z"/>
          <path class="st28" d="M148,86.7c0,1.4-4.4,5.5-17.9,9.4-7.7,2.2-23.9,6-46,5.7s-38.1-4.3-45.8-6.8c-13.4-4.2-17.7-8.4-17.6-9.8s.1-.4.5-.8l61.9-58.1c1-1,2.6-.9,3.6,0l60.6,59.5c.4.3.5.6.5.8Z"/>
          <path class="st3" d="M148,86.7c0,1.4-4.4,5.5-17.9,9.4-5.8,1.7-16.5,4.2-30.9,5.3l-12.4-74.9,60.6,59.5c.4.3.5.6.5.8Z"/>
          <path class="st6" d="M148,86.7c0,1.4-4.4,5.5-17.9,9.4-7.7,2.2-23.9,6-46,5.7s-38.1-4.3-45.8-6.8c-13.4-4.2-17.7-8.4-17.6-9.8s0-.3.2-.4c.6,1.6,5.1,5.5,17.5,9.4,7.6,2.4,23.8,6.5,45.7,6.8s38.1-3.5,45.8-5.7c12.5-3.6,17.1-7.4,17.7-9,.1.2.2.3.2.4Z"/>
          <line x1="147.5" y1="86" x2="147.5" y2="85.9"/>
          <path class="st7" d="M135.8,83.7c-.9-1.1-1.8-2.1-2.7-3.2.3-.2.7-.4,1-.5,1.1-.6,2.1-1.2,3.1-2,.4-.3.8-.7,1.1-1.1h0c-.4.3-.8.6-1.2,1-1,.7-2,1.3-3.1,1.8-.4.2-.7.4-1.1.5-1.8-2.1-3.6-4.3-5.4-6.4l-5.4-6.4c.3-.1.5-.3.8-.4.8-.5,1.6-.9,2.4-1.5.3-.2.5-.5.8-.7h0c-.2.2-.5.4-.8.6-.7.5-1.6,1-2.4,1.4-.3.1-.6.3-.9.4l-2.7-3.2-8.4-9.8c0,0,0-.1-.1-.2.3-.2.6-.3.9-.5.6-.3,1.1-.7,1.6-1.1,0,0,0,0,.1-.1h0c0,0,0,0-.1,0-.5.4-1.1.7-1.7,1-.3.2-.7.3-1,.5-2.7-3.1-5.4-6.3-8.1-9.4,0,0,0,0,0,0,.3-.1.6-.3.9-.4.3-.2.7-.4,1-.6h0c-.3.1-.6.3-1,.5-.3.2-.6.3-1,.4-2.5-2.8-4.9-5.6-7.4-8.4.4-.2.8-.3,1.2-.5l-.2-.2c-.4.2-.8.3-1.2.4,0,0,0,0,0,0-2.9-3.2-5.7-6.5-8.6-9.7,0,0,0,0,0,0,2.7,3.3,5.3,6.6,8,9.9-.6.1-1.2.3-1.8.4-2.1-3.4-4.3-6.9-6.4-10.3,0,0,0,0,0,0,1.9,3.5,3.9,6.9,5.8,10.4-.6,0-1.3.2-1.9.3-1.3-3.6-2.7-7.1-4.1-10.7,0,0,0,0,0,0,1.1,3.6,2.3,7.2,3.5,10.7-.2,0-.4,0-.6,0-.4,0-.9,0-1.3,0-.5-3.6-1.1-7.2-1.7-10.9,0,0,0,0,0,0,.3,3.6.7,7.3,1.1,10.9-.4,0-.9,0-1.3,0-.4,0-.9,0-1.3,0,.5-3.6.9-7.2,1.4-10.8,0,0,0,0,0,0-.7,3.6-1.3,7.2-1.9,10.8-.4,0-.8,0-1.3,0-.2,0-.4,0-.6,0,1.3-3.5,2.5-7.1,3.7-10.6,0,0,0,0,0,0-1.5,3.5-2.9,7-4.3,10.6-.6,0-1.3-.2-1.9-.3,0,0,0,0,0,0,2-3.4,4.1-6.8,6.1-10.3,0,0,0,0,0,0-2.2,3.4-4.5,6.7-6.7,10.1-.6-.1-1.2-.3-1.7-.4,2.8-3.2,5.5-6.4,8.3-9.7,0,0,0,0,0,0-3,3.1-5.9,6.3-8.8,9.5,0,0,0,0,0,0-.4-.1-.8-.3-1.2-.4l-.2.2c.4.2.8.4,1.2.6-2.5,2.7-5.1,5.5-7.6,8.3-.3-.1-.6-.3-1-.4-.3-.2-.7-.4-1-.6h0c.3.3.6.5,1,.7.3.2.6.3.9.5,0,0,0,0,0,0-2.8,3-5.6,6.1-8.3,9.2-.3-.2-.7-.3-1-.5-.6-.3-1.1-.6-1.7-1,0,0,0,0-.1-.1h0c0,.1,0,.2.1.2.5.4,1.1.8,1.6,1.1.3.2.6.3.9.5,0,0,0,.1-.1.2l-8.6,9.6-2.8,3.2c-.3-.1-.6-.3-.9-.4-.8-.4-1.6-.9-2.4-1.5-.3-.2-.5-.4-.8-.7h0c.2.3.5.6.8.8.7.6,1.5,1.1,2.3,1.6.3.1.5.3.8.4l-5.6,6.3c-1.8,2.1-3.7,4.2-5.5,6.3-.4-.2-.7-.4-1.1-.6-1.1-.6-2.1-1.2-3.1-1.9-.4-.3-.8-.7-1.2-1.1h0c.3.5.7.9,1.1,1.2.9.8,2,1.4,3,2,.3.2.7.4,1,.6-.9,1.1-1.9,2.1-2.8,3.2-2.2,2.5-4.4,5.1-6.6,7.6.2.1.4.2.6.3,2.2-2.4,4.5-4.9,6.7-7.3,1-1.1,2-2.2,3-3.3,1.5.8,3.1,1.4,4.7,2,2,.8,4.1,1.5,6.1,2.1-.2.3-.4.7-.6,1-2.2,3.5-4.3,7.1-6.4,10.6.2,0,.4.1.6.2,2.2-3.4,4.5-6.9,6.7-10.3.3-.4.5-.8.8-1.2,2.3.7,4.6,1.2,6.9,1.8,1.8.4,3.7.8,5.6,1.1,0,.1,0,.2-.1.3-1.4,3.9-2.9,7.9-4.3,11.8.2,0,.3,0,.5,0,1.6-3.9,3.1-7.7,4.6-11.6,0-.2.1-.3.2-.5,4.3.7,8.6,1.2,13,1.6,0,.4-.1.7-.2,1.1-.5,3.8-1,7.6-1.5,11.4.2,0,.4,0,.6,0,.6-3.8,1.3-7.5,1.9-11.3,0-.4.1-.8.2-1.2,2.8.2,5.6.3,8.5.3,2.8,0,5.5,0,8.3-.1,0,.4.1.8.2,1.2.5,3.8,1.1,7.5,1.6,11.3.2,0,.4,0,.6,0-.4-3.8-.8-7.6-1.3-11.4,0-.4,0-.7-.1-1.1,4.4-.2,8.8-.6,13.1-1.3,0,.2.1.3.2.5,1.4,3.9,2.9,7.8,4.3,11.7.2,0,.3,0,.5,0-1.3-4-2.6-8-4-12,0-.1,0-.2-.1-.3,1.9-.3,3.8-.6,5.7-1,2.3-.5,4.6-1,6.9-1.6.2.4.5.8.7,1.2,2.1,3.5,4.3,7,6.4,10.5.2,0,.4-.1.6-.1-2.1-3.6-4.1-7.2-6.2-10.8-.2-.3-.4-.7-.6-1,2.1-.6,4.2-1.2,6.2-2,1.6-.6,3.2-1.2,4.7-1.9,1,1.1,1.9,2.2,2.9,3.4,2.2,2.5,4.4,5,6.5,7.5.2-.1.4-.2.6-.3-2.1-2.6-4.3-5.2-6.4-7.8ZM109.8,54.9l8.4,9.9,2.5,2.9c-1,.4-2.1.8-3.2,1.1-1.6.5-3.3,1-4.9,1.4l-2.8-4.8-5.5-9.2c1.2-.3,2.4-.7,3.6-1.1.5-.2,1.1-.4,1.6-.6.1.1.2.3.3.4ZM95.7,56.8v.3c-1,.1-2.1.2-3.2.3-.9,0-1.8.1-2.7.2h0c-.5-3.5-.9-6.9-1.4-10.3,1.3,0,2.6-.2,3.9-.4,1.1,3.3,2.2,6.6,3.4,9.8ZM93.3,46.8c.7-.1,1.5-.2,2.2-.4.5-.1,1.1-.2,1.6-.4,1.9,3.3,3.8,6.5,5.7,9.8h0c-.9.3-1.8.5-2.6.6-1.1.2-2.2.3-3.2.5l-.2-.6c-1.2-3.2-2.3-6.4-3.5-9.6ZM88.6,57.7c-1.3,0-2.6,0-3.9,0-1.3,0-2.7,0-4-.1.5-3.4,1-6.8,1.5-10.3.9,0,1.8,0,2.6,0,.9,0,1.7,0,2.6,0,.4,3.4.8,6.9,1.2,10.3ZM79.6,57.5h0c-.9,0-1.8,0-2.6-.2-1.1-.1-2.2-.2-3.4-.4v-.3c1.3-3.3,2.5-6.5,3.7-9.8,1.3.2,2.6.4,3.9.5-.6,3.4-1.1,6.8-1.6,10.2ZM72.7,56.2l-.2.6c-1.1-.2-2.1-.3-3.2-.6-.9-.2-1.8-.4-2.6-.6h0c2-3.3,4-6.5,5.9-9.8.5.1,1.1.3,1.6.4.7.2,1.4.3,2.2.4-1.3,3.2-2.5,6.3-3.7,9.5ZM69.1,56.9c1,.2,2,.4,3,.6l-3.5,9.1-2,5.2c-1.4-.2-2.9-.5-4.3-.8-1.6-.3-3.2-.7-4.7-1.1l2.8-4.4,5.8-9.3c.9.3,1.9.5,2.9.7ZM69.8,67l3.5-9.3c2,.3,4.1.6,6.2.7l-1.5,9.9-.7,4.7c-1.3,0-2.5-.2-3.8-.3-1.8-.2-3.7-.4-5.5-.7,0,0,0,0,0,0l1.9-5ZM79.1,68.5l1.5-10c1.4,0,2.7.1,4.1.2,1.3,0,2.7,0,4,0l1.2,10,.6,4.6c-2,0-4,.1-6,0-2,0-4.1,0-6.1-.2l.7-4.6ZM89.9,58.6c2.1-.1,4.2-.3,6.2-.6l3.3,9.4,1.8,5c-1.8.2-3.6.4-5.5.6-1.3.1-2.6.2-4,.2l-.6-4.7-1.3-9.9ZM100.5,66.9l-3.3-9.1c1-.2,2.1-.3,3.1-.6,1-.2,1.9-.4,2.8-.6l5.6,9.5,2.7,4.5c-1.6.4-3.1.7-4.7,1-1.5.3-2.9.5-4.4.7l-1.8-5.2ZM101.5,45c2.6,3.1,5.1,6.1,7.7,9.2-.5.2-1,.3-1.5.5-1.2.4-2.5.7-3.8,1l-.3-.4c-1.9-3.1-3.8-6.3-5.7-9.4.9-.2,1.8-.5,2.6-.8.2,0,.5-.2.7-.3,0,0,.2.2.2.3ZM94,36c2.4,2.9,4.7,5.7,7.1,8.5-.2,0-.4.1-.6.2-.9.3-1.8.5-2.8.7,0,0-.1-.2-.2-.3-1.8-2.9-3.5-5.8-5.3-8.7.6-.1,1.2-.3,1.7-.5ZM91.4,36.7c0,0,.1,0,.2,0,1.7,3,3.4,6,5.2,9-.5,0-.9.2-1.4.3-.8.1-1.5.2-2.3.3,0-.1,0-.2-.1-.3-1.1-3-2.2-6-3.3-8.9.6,0,1.2-.2,1.8-.3ZM89,37.1c1,3.1,2,6.1,3.1,9.2,0,0,0,0,0,.1-.7,0-1.3.1-2,.2-.6,0-1.2,0-1.9.1-.4-3.1-.9-6.3-1.3-9.4.7,0,1.4,0,2-.2ZM83.5,37.3c.5,0,.9,0,1.4,0,.5,0,.9,0,1.4,0,.3,3.1.7,6.3,1,9.4-.8,0-1.7,0-2.5,0-.9,0-1.7,0-2.6,0,.4-3.1.9-6.3,1.3-9.4ZM80.9,37c.7,0,1.4.2,2,.2-.5,3.1-1.1,6.2-1.6,9.4-.6,0-1.2,0-1.8-.1-.7,0-1.3-.1-2-.2,0,0,0,0,0,0,1.1-3,2.2-6.1,3.3-9.1ZM78.3,36.5c0,0,.1,0,.2,0,.6.1,1.2.3,1.8.4-1.2,3-2.4,5.9-3.5,8.9,0,0,0,.2-.1.3-.8-.1-1.5-.2-2.3-.4-.5,0-1-.2-1.4-.3,1.8-3,3.6-5.9,5.4-8.9ZM75.9,35.8c.6.2,1.1.4,1.7.6-1.9,2.9-3.7,5.7-5.5,8.6,0,0-.1.2-.2.2-.9-.2-1.8-.5-2.7-.8-.2,0-.4-.1-.6-.2,2.4-2.8,4.9-5.6,7.3-8.4ZM68.2,44.7c0,0,.2-.2.2-.3.2,0,.4.2.7.3.8.3,1.7.6,2.6.9-2,3.1-4,6.2-5.9,9.3l-.3.4c-1.3-.3-2.5-.7-3.7-1.1-.5-.2-1-.3-1.5-.5,2.6-3,5.3-6,7.9-9ZM51.1,64l8.6-9.7c.1-.1.2-.3.3-.4.5.2,1,.5,1.6.7,1.2.5,2.3.9,3.5,1.2l-5.7,9-2.9,4.7c-1.6-.4-3.3-.9-4.8-1.5-1.1-.4-2.1-.8-3.1-1.2l2.6-2.9ZM48,83.4c-2.1-.6-4.3-1.2-6.3-2-1.6-.5-3.1-1.1-4.6-1.8,1.8-2,3.6-4,5.4-6l5.8-6.5c1.1.5,2.1,1,3.2,1.4,1.5.6,3.1,1.1,4.7,1.6l-3,4.8c-1.7,2.8-3.5,5.6-5.2,8.4ZM61.3,86.2c-1.9-.3-3.8-.6-5.7-1-2.2-.5-4.4-1-6.6-1.5,1.7-2.7,3.4-5.4,5.1-8.1l3.2-5.1c1.6.5,3.3.9,4.9,1.2,1.4.3,2.8.6,4.2.8l-1.7,4.5c-1.1,3.1-2.3,6.1-3.4,9.2ZM75.1,87.7c-1.7-.1-3.4-.3-5.2-.4-2.4-.2-4.8-.5-7.2-.9-.1,0-.3,0-.4,0,1.2-3,2.3-5.9,3.5-8.9l1.8-4.7c3.2.5,6.3.9,9.5,1.1l-.8,5.2c-.4,2.9-.8,5.7-1.2,8.6ZM84.4,88.1c-2.8,0-5.5-.1-8.3-.3.5-2.8.9-5.7,1.4-8.5l.8-5.3c2.1.1,4.2.2,6.3.2,2,0,4.1,0,6.1-.1l.7,5.3c.4,2.8.8,5.7,1.1,8.5-2.7.1-5.4.1-8.1.1ZM106,86.9c-2.4.3-4.8.6-7.2.7-1.8.1-3.6.3-5.3.3-.3-2.9-.7-5.8-1-8.6l-.6-5.2c3.2-.2,6.4-.5,9.6-.9l1.7,4.7c1.1,3,2.2,6,3.3,9-.1,0-.2,0-.3,0ZM113.2,85.8c-1.9.3-3.9.6-5.9.9-1-3.1-2.1-6.2-3.2-9.2l-1.6-4.5c1.4-.2,2.9-.5,4.3-.8,1.6-.3,3.3-.7,4.9-1.1l3.1,5.1c1.7,2.7,3.3,5.5,5,8.2-2.2.5-4.4,1-6.6,1.4ZM127.2,82.4c-2.1.7-4.3,1.3-6.4,1.8-1.7-2.9-3.3-5.7-5-8.5l-2.9-4.9c1.6-.4,3.2-.9,4.7-1.5,1.1-.4,2.2-.8,3.3-1.3l5.7,6.6c1.8,2,3.5,4.1,5.3,6.1-1.5.6-3.1,1.2-4.6,1.7Z"/>
        </g>
      </g>
      <path class="st31" d="M206.7,94.2c27.6,0,50-21,50-46.9S234.3.5,206.7.5s-50,21-50,46.9,3.7,20.4,10.1,28.2l-9.5,18c-.9,1.8-.6,3.9.7,5.4s3.5,1.9,5.3,1.1l23.1-9.9c6.2,2.6,13.1,4,20.3,4ZM181.7,41.1c3.5,0,6.2,2.8,6.2,6.2s-2.8,6.2-6.2,6.2-6.2-2.8-6.2-6.2,2.8-6.2,6.2-6.2ZM206.7,41.1c3.5,0,6.2,2.8,6.2,6.2s-2.8,6.2-6.2,6.2-6.2-2.8-6.2-6.2,2.8-6.2,6.2-6.2ZM225.4,47.4c0-3.5,2.8-6.2,6.2-6.2s6.2,2.8,6.2,6.2-2.8,6.2-6.2,6.2-6.2-2.8-6.2-6.2Z"/>
    </g>
  </g>
</svg>