<?xml version="1.0" encoding="UTF-8"?>
<svg xmlns="http://www.w3.org/2000/svg" version="1.1" viewBox="0 0 250 250">
  <!-- Generator: Adobe Illustrator 29.8.3, SVG Export Plug-In . SVG Version: 2.1.1 Build 3)  -->
  <defs>
    <style>
      .st0 {
        fill: #f79c79;
      }

      .st1 {
        fill: #9a9faf;
      }

      .st2 {
        fill: #49494a;
      }

      .st3 {
        fill: #ffdc6c;
      }

      .st4 {
        fill: #2b373f;
      }

      .st5 {
        fill: #ccc;
        mix-blend-mode: multiply;
      }

      .st6 {
        fill: #e87187;
      }

      .st7 {
        fill: #606161;
      }

      .st8 {
        fill: #eff7fa;
      }

      .st9 {
        fill: #734833;
      }

      .st10 {
        fill: #e8e4e6;
      }

      .st11 {
        fill: #b0b5ca;
      }

      .st12 {
        fill: #444344;
      }

      .st13 {
        fill: #faa822;
      }

      .st14 {
        fill: none;
      }

      .st15 {
        fill: #82523b;
      }

      .st16 {
        fill: #e7b024;
      }

      .st17 {
        fill: #808593;
      }

      .st18 {
        fill: #e0e0e0;
      }

      .st19 {
        isolation: isolate;
      }

      .st20 {
        fill: #575757;
      }

      .st21 {
        fill: #ffc937;
      }

      .st22 {
        fill: #fcb736;
      }

      .st23 {
        fill: #603813;
      }

      .st24 {
        fill: #0c121c;
      }

      .st25 {
        fill: #d9d5d7;
      }

      .st26 {
        fill: #bc6174;
      }

      .st27 {
        fill: #ffb091;
      }

      .st28 {
        fill: #4d4c4d;
      }

      .st29 {
        fill: #ff6e6e;
      }

      .st30 {
        fill: #6b6b6b;
      }

      .st31 {
        fill: #324049;
      }

      .st32 {
        fill: #6eb07a;
      }

      .st33 {
        fill: #111016;
      }

      .st34 {
        fill: #ededed;
      }

      .st35 {
        fill: #1a272e;
      }

      .st36 {
        fill: #434657;
      }

      .st37 {
        fill: #7dc88b;
      }

      .st38 {
        fill: #e2edf5;
      }
    </style>
  </defs>
  <g class="st19">
    <g id="Calque_1">
      <g>
        <path class="st5" d="M200.1,236.3c0,6.5-32.5,11.7-72.5,11.7s-72.5-5.2-72.5-11.7,32.5-11.7,72.5-11.7,72.5,5.2,72.5,11.7Z"/>
        <path class="st27" d="M19.1,125.9c0-.5.1-.9.3-1.3.2-.4.4-.7.6-.9,0,0-.4-.3-.6-.8-.3-.4-.5-1.1-.4-1.8,0-.6.2-1,.4-1.3.2-.3.4-.6.5-.6-.5-.5-.9-1-1.1-1.6-.2-.6-.2-1.2,0-1.8.2-.8.8-1.4,1.6-1.8.8-.4,1.7-.5,2.6-.3,0-.2-.1-.5-.2-.8,0-.3,0-.6-.1-1,0-.5,0-.9,0-1.2,0-.3,0-.6.2-.8.3-.6.9-1,1.6-1.2.7-.2,1.5-.3,2.2-.3.8,0,1.5.4,2,.7.5.3.9.7,1.1.9,0-.3,0-.7,0-1.1,0-.4,0-.9.2-1.5.3-1,.9-1.9,1.7-2.6.7-.7,1.6-1.1,2.4-1,.5,0,.9.4,1.5,1.3.6.9,1.3,2.4,2.5,4.8.4.7.8,1.5,1.2,2.3.4.8.9,1.7,1.4,2.7h0s0,0,0,0c.2.2.4.4.6.6.2.2.4.4.6.6.4.4,1,1,1.9,1.6.8.6,1.8,1.4,3,2.1,2.6,1.6,4.3,2.2,5.5,2.7,1.2.5,2,.8,2.5,1.8.6,1,.7,2.4.4,3.6-.2,1.3-.8,2.5-1.6,3.5-1.4,1.7-3.5,2.4-6,2.6-2.5.2-5.5,0-8.6-.3-.3,0-.5,0-.8,0-.3,0-.5-.1-.8-.2-.6-.2-1-.5-1.3-.8-.4-.3-.8-.6-1.4-.8-.3,0-.5-.1-.7-.2-.2,0-.4,0-.5,0,0,0-.2,0-.3,0,0,0-.2,0-.3,0-.6.2-1.3.4-2,.5-.7.1-1.4.2-2.1.1-.6,0-1.6,0-2.7-.3-1.1-.3-2.4-.7-3.7-1.6-.6-.4-1.3-.9-2-1.6-.6-.7-1.1-1.5-1.1-2.6Z"/>
        <path class="st32" d="M51,121.2c.8.3,3.1,1,7,.9,3.8,0,9.1-.7,15.8-3.2,8.6-3.1,13-7.9,16.7-11.9,3.7-4.1,6.8-7.4,12.7-7.7,3.2-.2,6.6.6,9.5,2.1,2.9,1.5,5.3,3.7,6.7,6.4,2.8,5.4.8,11.7-2.1,16.8-2.8,5.1-6.5,9-7,9.5-5.5,5.7-12.1,8.8-18,10.5-5.9,1.7-11.2,1.9-14.2,2.1-10.7.5-20-2-27.4-5.1-7.3-3.2-12.7-7-15.5-9.2.8-.6,1.8-1.4,2.8-2.4,1-1.1,2.1-2.4,3.1-3.9,1.1-1.7,1.9-3.4,2.4-4.9.5-1.5.8-2.8,1-3.8.7.6,1.6,1.2,2.6,1.9,1.1.7,2.3,1.3,3.8,1.9Z"/>
        <path class="st27" d="M30,110.1c0,.1.4.7.5,1.4.2.7.2,1.5-.2,2.2-.5.8-1.5,1.3-2.7,1.3-1.3,0-2.8-.3-4.3-1.3,0,0,.4.3.7.6.3.3.6.8.8,1.4,0,0,0,.4,0,.7,0,.4,0,.9-.3,1.3-.3.6-1,1.1-1.8,1.4-.8.3-1.8.3-2.7,0,.6-.2,1.1-.3,1.6-.2.5.1.9.4,1.2.7.3.4.3.9.2,1.2,0,.4-.2.7-.2.8-.2.5-.6.9-.9,1.1-.3.2-.6.3-.7.4.2,0,.4-.1.7-.1.3,0,.7,0,1.1.2.5.2,1,.5,1.3.9.3.4.6.8.7,1.3.2.9,0,2-.5,2.8-.5.8-1.2,1.4-1.9,1.4-.6,0-1.1-.4-1.5-.9-.4-.5-.7-1-.8-1.2-.1-.3-.4-.7-.5-1.1-.1-.4-.2-.9,0-1.4,0,0,0-.2.1-.4,0-.2,0-.4,0-.7,0-.1,0-.2,0-.3,0,0,0-.1,0-.2-.2-.4-.4-.8-.5-1.3-.1-.5-.2-1,0-1.5,0-.3.2-.4.3-.6.1-.2.2-.3.3-.7,0-.2,0-.4,0-.5,0-.1,0-.3,0-.4,0-.4,0-1,0-1.6.1-.6.3-1.2.7-1.7.3-.4.8-.7,1.2-.9.4-.2.8-.4.9-.4,0,0,0,0,0,0,0,0,0,0,.1,0,.1,0,.2-.1.2-.2,0,0,0-.1,0-.2,0-.1.5-.9,1.2-1.8.7-.8,1.5-1.7,2.4-1.9.2,0,.4,0,.8,0,.3,0,.7.1,1.1.4h1.2Z"/>
        <path class="st37" d="M90.4,158c-.1,5.7-.4,10.7-.8,15.1-.4,4.4-.8,8.1-1.2,11.1-.2.8-.5,1.7-.7,2.8-.2,1.1-.3,2.3-.4,3.7,0,1.1,0,2.8.2,4.9.3,2,.9,4.4,2.2,6.9.4.8,1,1.8,1.9,3,.9,1.1,2,2.4,3.4,3.6,0,0,.2.1.4.2.2.1.5.3.8.5,3,1.5,6.7,1.8,10,1.6,3.2-.2,6-.8,7.2-1.1,1-.2,2.2-.5,3.5-1,1.3-.4,2.8-1,4.4-1.7.7-1.4,1.6-3.3,2.4-5.5.8-2.3,1.5-5,1.9-8,.8-6.4.2-13.5-1.5-19.1-1.7-5.6-4.3-9.7-7.5-10.2-.5,0-1.2,0-1.9.2-.8.2-1.7.7-2.8,1.6l-21.4-8.4Z"/>
        <path class="st15" d="M121.2,207.5c-.6,4.9-1.2,9.8-1.9,14.8-.6,4.9-1.2,9.8-1.9,14.8-2.2,0-4.4,0-6.5-.1-2.2,0-4.4,0-6.5-.1,0-.6,0-1.1,0-1.7,0-.6,0-1.1,0-1.7-1.9.7-4.1,1.4-6.6,2.1-2.4.6-5.1,1.2-8.1,1.6-4,.5-7.6.7-10.9.6-3.3,0-6.2-.4-8.7-.8.7-1.1,1.8-2.6,3.3-4.2,1.5-1.6,3.4-3.3,5.8-4.8,2.1-1.4,4.2-2.3,6.1-3,1.9-.7,3.5-1,4.8-1.3-.2-1.5-.4-3.1-.5-4.7-.1-1.7-.2-3.4-.3-5.2,0-2.1,0-4.1,0-6,0-1.9.2-3.7.4-5.4h0c5,1.7,10.1,3,15.3,3.8,5.2.9,10.5,1.3,15.8,1.3h.4Z"/>
        <path class="st32" d="M114.3,202.5c.4,0,.9-.5,1.4-1.4.5-.9,1-2,1.3-2.9.4-1.4.7-2.9.7-4.1,0-1.2-.2-2.1-.5-2.2-.3,0-.8.4-1.2,1-.4.6-.8,1.4-1,1.9-.7,1.7-1.1,3.5-1.2,4.9,0,1.4.1,2.5.5,2.6Z"/>
        <path class="st32" d="M105.2,201.1c.4,0,.8-.6,1.1-1.6.3-.9.6-2.1.8-3.1.2-1.4.2-3,0-4.1-.2-1.2-.5-2-.9-2-.3,0-.7.5-1,1.2-.3.7-.6,1.5-.7,2.1-.4,1.8-.5,3.6-.3,5.1.2,1.4.5,2.4,1,2.5Z"/>
        <path class="st32" d="M96.2,200.1c.4,0,.6-.8.8-1.8.2-1,.2-2.2.2-3.2,0-1.4-.4-2.9-.8-4.1-.4-1.1-.9-1.9-1.3-1.8-.3,0-.6.6-.7,1.4-.2.7-.2,1.6-.3,2.2,0,1.8.2,3.7.7,5,.4,1.4,1,2.3,1.4,2.2Z"/>
        <path class="st9" d="M88.6,207.6c0,0,.3-.2.7-.2.5,0,1.2.1,2.4.5.9.3,2,.7,2.9,1,.9.4,1.5.8,1.5,1.2,0,.5-1.7,1.1-3.4,1.2-1.7.1-3.6-.2-4.3-1.3-.2-.4-.3-.8-.3-1.3,0-.4.2-.9.4-1.1Z"/>
        <path class="st9" d="M88.6,212.5c0,0,.3-.2.7-.2.5,0,1.2.1,2.4.5.9.3,2,.7,2.9,1,.9.4,1.5.8,1.5,1.2,0,.5-1.7,1.1-3.4,1.2-1.7.1-3.6-.2-4.3-1.3-.2-.4-.3-.8-.3-1.3,0-.4.2-.9.4-1.1Z"/>
        <path class="st9" d="M88.6,217.5c0,0,.3-.2.7-.2.5,0,1.2.1,2.4.5.9.3,2,.7,2.9,1,.9.4,1.5.8,1.5,1.2,0,.5-1.7,1.1-3.4,1.2-1.7.1-3.6-.2-4.3-1.3-.2-.4-.3-.8-.3-1.3s.2-.9.4-1.1Z"/>
        <path class="st37" d="M153.3,160.4c2.5,5.1,4.8,9.6,6.9,13.4,2.1,3.8,4,7.1,5.6,9.7.5.6,1.1,1.4,1.7,2.3.6.9,1.3,2,1.9,3.2.5,1,1.2,2.5,1.8,4.5.6,2,1,4.4.8,7.2,0,.9-.2,2.1-.5,3.5-.3,1.4-.8,3-1.6,4.6,0,0-.1.2-.3.4-.1.2-.3.5-.6.7-2.1,2.6-5.4,4.4-8.4,5.5-3,1.2-5.8,1.7-7,1.9-1,.2-2.2.4-3.6.5-1.4.2-3,.3-4.7.3-1.2-1-2.8-2.3-4.4-4.1-1.7-1.8-3.4-3.9-5-6.5-3.4-5.5-5.7-12.3-6.4-18.1-.8-5.8,0-10.7,2.7-12.4.4-.3,1-.5,1.8-.6.8-.1,1.8,0,3.2.3l16.1-16.4Z"/>
        <path class="st15" d="M146,217.1c2.6,4.3,5.1,8.5,7.7,12.8,2.6,4.3,5.1,8.5,7.7,12.8,2-.9,4-1.8,6-2.7,2-.9,4-1.8,6-2.7-.2-.5-.4-1-.6-1.5s-.4-1-.6-1.5c2.1-.1,4.4-.3,6.9-.8,2.5-.4,5.2-1,8-1.8,3.8-1.1,7.2-2.5,10.2-3.9,3-1.4,5.5-2.9,7.6-4.2-1.1-.7-2.7-1.6-4.7-2.5-2-.8-4.4-1.6-7.2-2-2.5-.4-4.8-.4-6.8-.3-2,.1-3.6.5-4.9.8-.4-1.4-.9-3-1.4-4.5-.5-1.6-1.1-3.2-1.8-4.9-.8-1.9-1.6-3.8-2.5-5.5-.8-1.7-1.7-3.3-2.5-4.8h0c-3.9,3.6-8.1,6.8-12.5,9.7-4.4,2.9-9.1,5.4-13.9,7.5h-.2c0,0-.2.2-.2.2Z"/>
        <path class="st32" d="M140,202.5c-.4,0-.9-.5-1.4-1.4-.5-.9-1-2-1.3-2.9-.4-1.4-.7-2.9-.7-4.1,0-1.2.2-2.1.5-2.2.3,0,.8.4,1.2,1s.8,1.4,1,1.9c.7,1.7,1.1,3.5,1.2,4.9,0,1.4-.1,2.5-.5,2.6Z"/>
        <path class="st32" d="M149.2,201.1c-.4,0-.8-.6-1.1-1.6-.3-.9-.6-2.1-.8-3.1-.2-1.4-.2-3,0-4.1.2-1.2.5-2,.9-2,.3,0,.7.5,1,1.2.3.7.6,1.5.7,2.1.4,1.8.5,3.6.3,5.1-.2,1.4-.5,2.4-1,2.5Z"/>
        <path class="st32" d="M158.2,200.1c-.4,0-.6-.8-.8-1.8-.2-1-.2-2.2-.2-3.2,0-1.4.4-2.9.8-4.1.4-1.1.9-1.9,1.3-1.8.3,0,.6.6.7,1.4.2.7.2,1.6.3,2.2,0,1.8-.2,3.7-.7,5-.4,1.4-1,2.3-1.4,2.2Z"/>
        <path class="st9" d="M175.9,204c-.1,0-.3,0-.8,0-.4.2-1.1.6-2,1.5-.7.6-1.6,1.4-2.2,2.1-.7.7-1.1,1.4-.9,1.7.3.5,2,.3,3.6-.3,1.6-.6,3.2-1.6,3.4-2.9,0-.4,0-.9-.2-1.3-.2-.4-.5-.7-.9-.8Z"/>
        <path class="st9" d="M177.9,208.5c-.1,0-.3,0-.8,0-.4.2-1.1.6-2,1.5-.7.6-1.6,1.4-2.2,2.1-.7.7-1.1,1.4-.9,1.7.3.5,2,.3,3.6-.3,1.6-.6,3.2-1.6,3.4-2.9,0-.4,0-.9-.2-1.3-.2-.4-.5-.7-.9-.8Z"/>
        <path class="st9" d="M179.9,213.1c-.1,0-.3,0-.8,0-.4.2-1.1.6-2,1.5-.7.6-1.6,1.4-2.2,2.1-.7.7-1.1,1.4-.9,1.7.3.5,2,.3,3.6-.3,1.6-.6,3.2-1.6,3.4-2.9,0-.4,0-.9-.2-1.3-.2-.4-.5-.7-.9-.8Z"/>
        <path class="st37" d="M105,97.5c-3.5,3.3-6.3,6.7-8.6,9.7-2.3,3.1-4.1,5.9-5.5,8.2-4,6.8-6.6,13.5-8.4,19.7-1.8,6.2-2.6,11.9-3.1,16.7-.2,2.3-.3,4.4-.4,6.2,0,1.8,0,3.4,0,4.7,0,4.7,0,8.3.4,11.6.4,3.2,1.1,6,2.6,9,3,6,8,10,13.1,12.7,5.1,2.7,10.2,4.2,13.7,5.2,3.5,1,6.8,1.6,9.7,2,3,.3,5.6.4,7.8.4-.2,0-.4,0-.6,0-.2,0-.4,0-.6,0h2.5c-.2,0-.4,0-.6,0-.2,0-.4,0-.6,0,2.2,0,4.8,0,7.8-.4,3-.3,6.2-1,9.7-2,3.5-1,8.7-2.5,13.7-5.2,5.1-2.7,10-6.7,13.1-12.7,1.5-3,2.3-5.7,2.6-9,.4-3.2.4-6.9.4-11.6,0-1.3,0-2.8,0-4.6,0-1.8-.2-3.9-.4-6.1-.4-4.8-1.3-10.5-3.1-16.7-1.8-6.2-4.4-12.9-8.4-19.7-1.3-2.3-3.1-5.1-5.5-8.2-2.3-3.1-5.2-6.4-8.6-9.7h-42.8Z"/>
        <path class="st15" d="M173.7,162.6c0,4.7,0,8.3-.4,11.6-.4,3.2-1.1,6-2.6,9-3,6-8,10-13.1,12.7-5.1,2.7-10.2,4.2-13.7,5.2-3.5,1-6.8,1.6-9.7,2-3,.3-5.6.4-7.8.4-2.2,0-4.8,0-7.8-.4-3-.3-6.2-1-9.7-2-3.5-1-8.7-2.5-13.7-5.2-5.1-2.7-10-6.7-13.1-12.7-1.5-3-2.3-5.7-2.6-9-.4-3.2-.4-6.9-.4-11.6,0-1.3,0-2.8,0-4.7,0-1.8.2-3.9.4-6.2,1.6,1.1,3.2,1.9,4.8,2.4,1.6.5,3.1.5,4.6.2,2.5-.5,4.4-2,6.4-4.7,2-2.6,4-6.3,6.6-11.2,2-3.7,4.3-8,6.2-13.3,1.8-5.2,3.2-11.3,3.2-18.4,0-4-.4-7.7-1-10.8-.6-3.2-1.4-5.8-2.1-7.9h36.5c-.7,2.1-1.5,4.8-2.1,7.9-.6,3.2-1,6.8-1,10.8,0,7.1,1.4,13.2,3.2,18.4,1.8,5.2,4.2,9.6,6.2,13.3,2.6,4.8,4.6,8.5,6.6,11.2,2,2.6,3.9,4.2,6.4,4.7,1.4.3,3,.2,4.5-.2,1.6-.4,3.1-1.2,4.7-2.3.2,2.3.3,4.3.4,6.1,0,1.8,0,3.4,0,4.6Z"/>
        <path class="st27" d="M165.8,84.9c-.9,9.8-5.6,19.5-12.7,26.7-7.2,7.2-16.8,11.8-27.8,11.5-10.6-.3-19.7-5.1-26.4-12.3-6.7-7.1-11-16.5-11.8-25.9-1-11.2,2.8-22.6,9.7-31.3,6.9-8.7,17-14.7,28.5-15,11.8-.3,22.5,5.5,29.9,14.2,7.4,8.8,11.6,20.5,10.6,32.1Z"/>
        <g>
          <path class="st27" d="M92.9,67.1c-.8-1.9-2.1-3.5-3.6-4.7-1.5-1.2-3.3-1.9-5.1-2-2.9-.2-5.5.9-7.4,2.7-1.9,1.7-3.2,4-3.3,6-.1,2,.9,3.1,2.1,4.6,1.2,1.5,2.6,3.3,3.4,6.5.5,2.2.4,3.9.4,5.2,0,1.3,0,2.2.8,2.9.6.6,1.7,1,3.5.7,1.8-.2,4.4-1.1,8.1-3l1.2-18.9Z"/>
          <path class="st0" d="M91.2,72.7c-.8-1.3-1.9-2.2-3.1-2.7-1.1-.5-2.3-.6-3.3-.2-1.2.4-1.9,1.5-2.3,2.5-.4,1-.5,2.1-.6,2.7,0,.3-.2,1.7,0,3.2.2,1.5.8,3,2.3,3.7,1,.5,2.4.5,3.6,0,1.3-.5,2.5-1.5,3.3-2.9v-6.4Z"/>
          <path class="st0" d="M89.4,67.6c-.4-.4-.8-.8-1.3-1.1-.5-.3-1-.6-1.5-.8-.3-.1-.5-.2-.8-.3-.3,0-.6-.1-.8-.2-.3,0-.6,0-.9,0-.3,0-.6,0-.9,0-.6,0-1.2.2-1.7.4-.6.2-1.1.5-1.6.8-.5.4-.9.8-1.3,1.3-.4.5-.6,1-.8,1.6.1-.6.4-1.2.7-1.7.3-.6.7-1.1,1.2-1.5.5-.4,1-.8,1.6-1.1s1.2-.5,1.9-.6c.3,0,.6-.1,1-.1.3,0,.7,0,1,0,.3,0,.7,0,1,0,.3,0,.7.1,1,.2.7.2,1.3.4,1.9.8.6.3,1.2.7,1.7,1.2l-.6.6-.6.6Z"/>
        </g>
        <path class="st34" d="M159.4,53.6c-.6-1-1.5-2.6-2.4-3.9-.9-1.3-1.9-2.3-2.4-2.1-.9.3-.6,3.4.2,7.7.8,4.3,2.2,9.9,3.5,15.1,0,0,.7,2.4,1,6.1.3,3.7.3,8.6-1,13.6-.6,2.1-1.6,5.7-3.5,9-1.9,3.3-4.7,6.3-8.6,7.2-1.8.4-4.1.5-6.2,0-2.1-.4-4.2-1.4-5.4-3-.7-1-1.1-2-1.5-3-.4-1-.9-2-2-2.7-.8-.5-1.6-.9-2.4-1-.8-.2-1.6-.2-2.2-.1h0c-.6,0-1.4,0-2.2.1-.8.2-1.6.5-2.4,1-1.1.8-1.6,1.7-2,2.7-.4,1-.7,2.1-1.5,3-1.2,1.6-3.2,2.5-5.4,3-2.1.4-4.4.3-6.2,0-3.9-1-6.7-3.9-8.6-7.2-1.9-3.3-3-6.9-3.5-9-1.3-5-1.3-9.9-1-13.6.3-3.7,1-6.1,1-6.1,1.5-5.2,3.1-10.7,4-15,.9-4.3,1.2-7.4.3-7.8-.6-.3-1.8.9-2.9,2.2-1.1,1.4-2.1,3-2.6,3.8-1.7,2.7-3.9,6.8-5.6,12.8-1.7,5.9.9,10.5,1.5,20.2-1.1,2.6,7.6,11.3,6.6,17.6-1,6.3,5.1,11.7,2.6,20.7s-7.1,19.5.7,26.3c7.8,6.8,17.5,14,28.8,14s9.1-2.6,17.6-8.1c8.5-5.5,7.3-5.2,12.3-18.9,3.4-9.3,2.7-10.3,2-17.4-.7-7.1,5.5-27.3,4.6-29.8-.2-9,2.1-18.4.4-24.3-1.7-5.8-3.9-10.2-5.6-13.2Z"/>
        <path class="st10" d="M118.2,71.9c0,2-.7,3.8-1.9,5.1-1.2,1.3-2.8,2.1-4.5,2.1s-3.4-.8-4.5-2.1c-1.2-1.3-1.9-3.1-1.9-5.1s.7-3.8,1.9-5.1c1.2-1.3,2.8-2.1,4.5-2.1s3.4.8,4.5,2.1c1.2,1.3,1.9,3.1,1.9,5.1Z"/>
        <path class="st36" d="M115.5,71.9c0,1.2-.4,2.2-1.1,3s-1.6,1.2-2.6,1.2-2-.5-2.6-1.2-1.1-1.8-1.1-3,.4-2.2,1.1-3c.7-.8,1.6-1.2,2.6-1.2s2,.5,2.6,1.2c.7.8,1.1,1.8,1.1,3Z"/>
        <path class="st25" d="M111.4,68.5c0-.5-.2-1-.6-1.4-.4-.4-.8-.6-1.4-.6s-1,.2-1.4.6c-.3.4-.6.8-.6,1.4s.2,1,.6,1.4.8.6,1.4.6,1-.2,1.4-.6c.4-.3.6-.8.6-1.4Z"/>
        <path class="st10" d="M147.1,71.9c0,2-.7,3.8-1.9,5.1-1.2,1.3-2.8,2.1-4.5,2.1s-3.4-.8-4.5-2.1c-1.2-1.3-1.9-3.1-1.9-5.1s.7-3.8,1.9-5.1c1.2-1.3,2.8-2.1,4.5-2.1s3.4.8,4.5,2.1c1.2,1.3,1.9,3.1,1.9,5.1Z"/>
        <path class="st36" d="M144.4,71.9c0,1.2-.4,2.2-1.1,3-.7.8-1.6,1.2-2.6,1.2s-2-.5-2.6-1.2-1.1-1.8-1.1-3,.4-2.2,1.1-3c.7-.8,1.6-1.2,2.6-1.2s2,.5,2.6,1.2c.7.8,1.1,1.8,1.1,3Z"/>
        <path class="st25" d="M140.4,68.5c0-.5-.2-1-.6-1.4-.4-.4-.8-.6-1.4-.6s-1,.2-1.4.6c-.4.4-.6.8-.6,1.4s.2,1,.6,1.4c.4.4.8.6,1.4.6s1-.2,1.4-.6.6-.8.6-1.4Z"/>
        <path class="st29" d="M115.1,87.7c0,1.8-1,3.4-2.6,4.5-1.6,1.2-3.8,1.9-6.2,1.9s-4.6-.7-6.2-1.9c-1.6-1.2-2.6-2.8-2.6-4.5s1-3.4,2.6-4.5c1.6-1.2,3.8-1.9,6.2-1.9s4.6.7,6.2,1.9c1.6,1.2,2.6,2.8,2.6,4.5Z"/>
        <path class="st29" d="M155.4,87.7c0,1.8-1,3.4-2.6,4.5-1.6,1.2-3.8,1.9-6.2,1.9s-4.6-.7-6.2-1.9c-1.6-1.2-2.6-2.8-2.6-4.5s1-3.4,2.6-4.5c1.6-1.2,3.8-1.9,6.2-1.9s4.6.7,6.2,1.9c1.6,1.2,2.6,2.8,2.6,4.5Z"/>
        <g>
          <path class="st18" d="M153.2,134.4c-.2.5-.4,1-.6,1.5-.2.5-.4,1-.7,1.4-.4.5-1,1-1.6,1.2-.6.2-1.3,0-1.7-.6-.2-.3-.5-.3-.8-.2-.3.1-.5.4-.5.7,0,.8-.5,1.6-1.2,2.1-.7.5-1.5.6-2.3.2-.5-.3-.9-.7-1.2-1.2-.3-.5-.5-1-.8-1.5,0,0-.1-.1-.2-.1,0,0-.2,0-.2.1-.6,1-.4,2,.2,2.9.6.8,1.6,1.5,2.6,1.6,1,.2,1.9,0,2.7-.6.8-.5,1.3-1.3,1.7-2.1.5.2,1,.3,1.5.3.5,0,1-.2,1.5-.4.9-.5,1.4-1.3,1.8-2.2s.5-1.9.5-2.8c0-.1-.1-.3-.2-.3-.1,0-.3,0-.3.1Z"/>
          <path class="st18" d="M101.4,137c-.6.2-1.4.2-2.1.1-.7,0-1.4-.3-1.9-.9-.2-.3-.4-.6-.5-1s-.2-.7-.1-1.1c0-.4.2-.7.3-1,.1-.3.3-.6.3-1,0-.1,0-.2-.1-.3,0,0-.2,0-.3,0-.5,0-.8.5-1,.9-.2.4-.3,1-.4,1.4,0,.5,0,1.1.1,1.6.2.5.4,1,.8,1.4.4.4.8.7,1.3.9.5.2,1,.4,1.5.4.5,0,1,0,1.4-.3.4-.2.7-.5,1-1,0,0,0-.2,0-.3,0,0-.2-.1-.3,0Z"/>
          <path class="st18" d="M113.3,151.1c-.3.3-.8.5-1.2.6-.5.2-.9.2-1.4.2-.8,0-1.3-.5-1.6-1.1-.3-.6-.3-1.3,0-1.9.2-.4,0-.8-.3-1-.3-.2-.7-.1-1,.2-.4.6-1,.9-1.6.9-.6,0-1.2-.2-1.6-.9-.2-.3-.3-.7-.3-1.1,0-.4,0-.8,0-1.1,0,0,0-.1-.1-.2,0,0-.1,0-.2,0-.7.5-.9,1.2-.7,2,.1.8.6,1.5,1.1,2,.5.4,1,.6,1.5.7.5,0,1,0,1.5-.2,0,.6.2,1.2.5,1.7.3.5.8,1,1.4,1.3.9.4,1.9.5,2.7.1.8-.3,1.4-1,1.6-2,0,0,0-.2,0-.2,0,0-.1,0-.2,0Z"/>
          <path class="st18" d="M140.5,150.8c-.2.4-.3.8-.5,1.2-.2.4-.4.7-.8,1-.6.4-1.2.6-1.8.5-.6,0-1.2-.3-1.7-.8-.2-.2-.5-.3-.8-.2-.3.1-.5.4-.5.7,0,.8-.5,1.4-1.1,1.8-.6.3-1.4.3-2-.3-.3-.3-.5-.6-.7-1-.2-.4-.3-.8-.4-1.2,0,0-.1-.2-.2-.2s-.2,0-.3,0c-.7.8-.7,1.7-.3,2.5.4.8,1.2,1.5,2.1,1.8.9.3,1.8.1,2.5-.3.7-.4,1.3-1.1,1.6-1.9.6.3,1.2.5,1.8.5.6,0,1.3-.1,1.9-.5.6-.4,1.2-1,1.5-1.6.3-.7.4-1.4,0-2.1,0,0-.1-.1-.2-.1,0,0-.2,0-.2.1Z"/>
          <path class="st18" d="M124,140.5c-.5.5-1.2,1-1.9,1.4-.8.3-1.6.5-2.3.4-.9-.1-1.5-.5-2-1.1-.5-.5-.9-1.2-1.3-1.9,0-.1-.3-.2-.4-.2-.2,0-.3.1-.4.3-.2,1.1.3,2.1,1,3,.7.8,1.8,1.4,2.8,1.6,1.2.2,2.3,0,3.1-.6s1.5-1.4,1.8-2.6c0-.1,0-.2-.1-.3,0,0-.2,0-.3,0Z"/>
          <path class="st18" d="M133.9,144.9c0,0,0-.1-.2-.1,0,0-.2,0-.2,0-.6.3-1.1.7-1.6,1.1-.5.4-1.1.6-1.8.5-.6,0-1.1-.4-1.6-.8-.5-.4-.9-.8-1.3-1.2,0,0-.2,0-.2,0,0,0-.1,0-.2.2-.4,1,0,2,.7,2.7.7.7,1.7,1.2,2.7,1.2.8,0,2-.3,2.8-1,.8-.6,1.4-1.5.9-2.6Z"/>
          <path class="st18" d="M140.6,130.5c1.1.6,2.4.9,3.6.6,1.1-.3,2.1-1,2.2-2.5,0,0,0-.1-.1-.2,0,0-.1,0-.2,0-.8.5-1.7,1.1-2.5,1.3-.9.2-1.8,0-2.6-.7-.2-.1-.4-.2-.6-.2-.2,0-.4.1-.5.3-.4.8-.9,1-1.4.9-.5,0-.9-.5-1.3-.9-.1-.2-.4-.3-.6-.2-.2,0-.4.2-.4.5.1,1.2.9,1.8,1.8,2,.9.2,1.9-.1,2.6-.9Z"/>
          <path class="st18" d="M117.7,130.4c-.7,0-1.5,0-2.3-.3-.8-.3-1.5-.7-2-1.2-.3-.3-.4-.6-.6-1-.1-.4-.2-.7-.3-1.1,0-.3,0-.5,0-.7,0-.2-.1-.4-.3-.6,0,0,0,0-.1,0,0,0-.1,0-.2,0-.9.3-1,1.3-.7,2.3.3,1,.8,2,1.2,2.5.3.4.8.7,1.2.9.5.3.9.4,1.4.5.6,0,1.1,0,1.5-.1.5-.2.9-.4,1.3-.8.1,0,.1-.2,0-.3,0,0-.1-.2-.3-.1Z"/>
        </g>
        <path class="st34" d="M104.1,62.2c.5,0,.9-.2,1.3-.5.4-.3.8-.6,1.2-.8.5-.3,1.1-.5,1.7-.8.6-.2,1.2-.4,1.8-.5,1.3-.3,2.5-.2,3.7,0,1.2.2,2.4.6,3.6,1.1.7.3,1.3-.2,1.5-.8.2-.6.1-1.4-.5-1.7-1.3-.7-2.8-1.1-4.3-1.3-1.5-.1-3,0-4.4.4-.7.2-1.3.4-2,.7-.6.3-1.2.6-1.8,1.1-.4.3-1,.7-1.4,1.1-.4.4-.8,1-.8,1.6,0,0,0,.2,0,.2,0,0,.1,0,.2.1h0Z"/>
        <path class="st34" d="M148.9,63.9c-.7-1.3-2-2.2-3.5-2.9-1.5-.6-3.1-1-4.4-1-.7,0-1.5,0-2.2,0-.7,0-1.5.3-2.2.5-.3.1-.6.2-.9.4-.3.1-.6.3-.8.6-.3.3-.5.6-.6.9-.1.3-.3.6-.4,1,0,0,0,.2,0,.2,0,0,.1.1.2,0,.3,0,.6,0,.9,0,.3,0,.6,0,.9,0,.3,0,.6-.2.9-.3.3-.1.6-.3.9-.4.6-.2,1.2-.4,1.8-.5.6-.1,1.2-.2,1.8-.2.7,0,1.4.1,2,.3.7.2,1.3.4,1.9.7.6.3,1.1.6,1.7.8.6.3,1.2.4,1.8.5.1,0,.2,0,.3-.2,0-.1,0-.3,0-.4h0Z"/>
        <path class="st18" d="M102.5,89.3c-.8,0-1.6.2-2.4.6-.8.3-1.6.8-2.2,1.3-.7.5-1.3,1.1-1.9,1.8-.5.7-1,1.4-1.4,2.2-.9,1.8-1.4,3.9-1.5,5.9,0,2,.4,4.1,1.6,5.8,1.5,2.1,3.4,3.6,5.6,4.5,2.2.9,4.6,1.2,7.2.8,2.1-.3,3.8-1.1,5.4-2.2,1.6-1.1,3-2.6,4.2-4.1.3-.4.6-.7.9-1.1.3-.4.6-.7.9-1.1.2-.2.3-.3.5-.5.2-.2.3-.3.5-.5,0,0,.1-.1.2-.2,0,0,.1-.1.2-.2-.3.3-.3.3-.3.3,0,0,.2-.2.4-.3,0,0,.1,0,.2-.1,0,0,.1,0,.2-.1,0,0,.2-.1.4-.2.2,0,.3-.1,0,0-.2,0,.1,0,.4,0,.3,0,.6-.1.4-.1-.3,0,0,0,.4,0,.3,0,.7,0,.4,0-.3,0-.2,0-.1,0,0,0,.3,0,.3,0,.2,0,.4.1.6.2.2,0,.4.1.5.2,1,.3,2.1.2,3-.3.9-.5,1.7-1.3,2.1-2.2.4-.9.4-2,.1-3-.3-1-.9-1.9-1.9-2.3-2.5-1.1-5.1-1.3-7.6-.8-2.4.5-4.7,1.8-6.6,3.8-.7.7-1.2,1.4-1.8,2.1-.6.7-1.2,1.5-1.8,2.2-.2.2-.3.3-.5.5-.2.2-.3.3-.5.5,0,0-.2.2-.3.2,0,0-.2.2-.3.2.2-.2.3-.2.3-.2,0,0,0,0-.3.2,0,0-.5.2-.7.4-.3.1-.4.2,0,0-.2,0-.5.2-.7.2-.2,0-.5.1-.7.2-.3,0-.4,0-.4,0,0,0,.1,0,.4,0-.1,0-.3,0-.4,0-.1,0-.3,0-.4,0-.1,0-.3,0-.4,0-.1,0-.3,0-.4,0,.2,0,.4,0,.4,0,0,0-.1,0-.4,0-.2,0-.5-.1-.7-.2-.2,0-.5-.1-.7-.2.4.2.3,0,0,0-.3-.1-.6-.3-.7-.4-.1,0-.2-.1-.3-.2-.1,0-.2-.1-.3-.2.2.1.3.2.3.2,0,0,0,0-.3-.2,0,0-.3-.3-.5-.6-.2-.2-.3-.3,0,0-.2-.3-.4-.5-.7-.8-.2-.3-.4-.5-.7-.8.2.2.2.3.1.2,0,0-.3-.3-.6-.7,0,.1.1.2.1.1,0,0,0-.1-.2-.3-.1-.3-.3-.6-.4-.9-.1-.3-.2-.7-.2-1.1,0-.4,0-.8.2-1.2.1-.4.3-.8.4-1.1.2-.4.4-.8.7-1.2.2-.4.5-.8.8-1.1.3-.4.7-.7,1.1-.9.4-.3.8-.5,1.2-.8.3-.3.5-.7.4-1.1,0-.4-.4-.7-.9-.7h0Z"/>
        <g>
          <path class="st34" d="M104.4,106.4c1.7.2,3.2,0,4.6-.7,1.4-.7,2.6-1.7,3.6-3,1.2-1.4,2.4-3.2,3.9-4.5,1.5-1.2,3.2-2,5.4-1.4,0,0,.1,0,.2,0,0,0,0-.1,0-.2-1.1-1-2.4-1.1-3.6-.8-1.2.3-2.4,1.1-3.4,1.9-1.2,1.1-2.1,2.5-3.1,3.9-1,1.3-2.1,2.6-3.6,3.3-1.5.7-3.3.9-5,.5s-3.2-1.3-4.2-2.7c-1-1.4-1.4-3-1.4-4.6,0-1.6.6-3.2,1.5-4.6,0-.1,0-.2,0-.3,0,0-.2,0-.3,0-.9,1.1-1.5,2.5-1.7,3.9-.2,1.4,0,2.9.5,4.3.5,1.4,1.5,2.6,2.6,3.5,1.2.9,2.6,1.4,4.1,1.6Z"/>
          <path class="st34" d="M122.3,99.1c-1.4-.9-3-.7-4.5,0-1.4.7-2.8,1.9-3.7,3-1.1,1.3-2.2,2.7-3.4,3.9-1.2,1.2-2.6,2.1-4.4,2.5-1.7.3-3.5.2-5-.4-1.6-.6-3-1.6-4-3.1-1-1.4-1.5-3.1-1.6-4.7,0-1.7.3-3.4,1.1-4.9,0-.2,0-.3-.1-.4-.1,0-.3,0-.4,0-1.7,3-1.6,6.4-.3,9.2,1.3,2.8,3.9,5,7.3,5.5,1.7.3,3.4.1,4.9-.4,1.5-.5,3-1.4,4.2-2.6.7-.7,1.4-1.5,2.1-2.3.7-.8,1.3-1.5,2.1-2.2.8-.7,1.7-1.3,2.7-1.7,1-.4,2-.7,3-.9.1,0,.2-.1.2-.2,0-.1,0-.2-.1-.3Z"/>
        </g>
        <path class="st18" d="M150.6,89.3c.8,0,1.6.2,2.4.6.8.3,1.6.8,2.2,1.3.7.5,1.3,1.1,1.9,1.8.5.7,1,1.4,1.4,2.2.9,1.8,1.4,3.9,1.5,5.9,0,2-.4,4.1-1.6,5.8-1.5,2.1-3.4,3.6-5.6,4.5-2.2.9-4.6,1.2-7.2.8-2.1-.3-3.8-1.1-5.4-2.2-1.6-1.1-3-2.6-4.2-4.1-.3-.4-.6-.7-.9-1.1-.3-.4-.6-.7-.9-1.1-.2-.2-.3-.3-.5-.5-.2-.2-.3-.3-.5-.5,0,0-.1-.1-.2-.2,0,0-.1-.1-.2-.2.3.3.3.3.3.3,0,0-.2-.2-.4-.3,0,0-.1,0-.2-.1,0,0-.1,0-.2-.1,0,0-.2-.1-.4-.2-.2,0-.3-.1,0,0,.2,0-.1,0-.4,0-.3,0-.6-.1-.4-.1.3,0,0,0-.4,0-.3,0-.7,0-.4,0,.3,0,.2,0,.1,0-.1,0-.3,0-.3,0-.2,0-.4.1-.6.2-.2,0-.4.1-.5.2-1,.3-2.1.2-3-.3-.9-.5-1.7-1.3-2.1-2.2-.4-.9-.4-2-.1-3,.3-1,.9-1.9,1.9-2.3,2.5-1.1,5.1-1.3,7.6-.8,2.4.5,4.7,1.8,6.6,3.8.7.7,1.2,1.4,1.8,2.1.6.7,1.2,1.5,1.8,2.2.2.2.3.3.5.5.2.2.3.3.5.5,0,0,.2.2.3.2,0,0,.2.2.3.2-.2-.2-.3-.2-.3-.2,0,0,0,0,.3.2,0,0,.5.2.7.4.3.1.4.2,0,0,.2,0,.5.2.7.2.2,0,.5.1.7.2.3,0,.4,0,.4,0,0,0-.1,0-.4,0,.1,0,.3,0,.4,0,.1,0,.3,0,.4,0,.1,0,.3,0,.4,0,.1,0,.3,0,.4,0-.2,0-.4,0-.4,0,0,0,.1,0,.4,0,.3,0,.5-.1.7-.2s.5-.1.7-.2c-.4.2-.3,0,0,0,.3-.1.6-.3.7-.4.1,0,.2-.1.3-.2.1,0,.2-.1.3-.2-.2.1-.3.2-.3.2,0,0,0,0,.3-.2,0,0,.3-.3.5-.6.2-.2.3-.3,0,0,.2-.3.4-.5.7-.8.2-.3.4-.5.7-.8-.2.2-.2.3-.1.2,0,0,.3-.3.6-.7,0,.1-.1.2-.1.1,0,0,0-.1.2-.3.1-.3.3-.6.4-.9.1-.3.2-.7.2-1.1,0-.4,0-.8-.2-1.2-.1-.4-.3-.8-.4-1.1-.2-.4-.4-.8-.7-1.2-.2-.4-.5-.8-.8-1.1-.3-.4-.7-.7-1.1-.9-.4-.3-.8-.5-1.2-.8-.3-.3-.5-.7-.4-1.1,0-.4.4-.7.9-.7h0Z"/>
        <g>
          <path class="st34" d="M148.7,106.4c-1.7.2-3.2,0-4.6-.7-1.4-.7-2.6-1.7-3.6-3-1.2-1.4-2.4-3.2-3.9-4.5-1.5-1.2-3.2-2-5.4-1.4,0,0-.1,0-.2,0,0,0,0-.1,0-.2,1.1-1,2.4-1.1,3.6-.8,1.2.3,2.4,1.1,3.4,1.9,1.2,1.1,2.1,2.5,3.1,3.9,1,1.3,2.1,2.6,3.6,3.3,1.5.7,3.3.9,5,.5s3.2-1.3,4.2-2.7c1-1.4,1.4-3,1.4-4.6,0-1.6-.6-3.2-1.5-4.6,0-.1,0-.2,0-.3s.2,0,.3,0c.9,1.1,1.5,2.5,1.7,3.9.2,1.4,0,2.9-.5,4.3-.5,1.4-1.5,2.6-2.6,3.5-1.2.9-2.6,1.4-4.1,1.6Z"/>
          <path class="st34" d="M130.7,99.1c1.4-.9,3-.7,4.5,0,1.4.7,2.8,1.9,3.7,3,1.1,1.3,2.2,2.7,3.4,3.9,1.2,1.2,2.6,2.1,4.4,2.5,1.7.3,3.5.2,5-.4,1.6-.6,3-1.6,4-3.1,1-1.4,1.5-3.1,1.6-4.7,0-1.7-.3-3.4-1.1-4.9,0-.2,0-.3.1-.4.1,0,.3,0,.4,0,1.7,3,1.6,6.4.3,9.2-1.3,2.8-3.9,5-7.3,5.5-1.7.3-3.4.1-4.9-.4s-3-1.4-4.2-2.6c-.7-.7-1.4-1.5-2.1-2.3-.7-.8-1.3-1.5-2.1-2.2-.8-.7-1.7-1.3-2.7-1.7-1-.4-2-.7-3-.9-.1,0-.2-.1-.2-.2,0-.1,0-.2.1-.3Z"/>
        </g>
        <g>
          <path class="st27" d="M160.3,67.1c.8-1.9,2.1-3.5,3.6-4.7,1.5-1.2,3.3-1.9,5.1-2,2.9-.2,5.5.9,7.4,2.7,1.9,1.7,3.2,4,3.3,6,.1,2-.9,3.1-2.1,4.6-1.2,1.5-2.6,3.3-3.4,6.5-.5,2.2-.4,3.9-.4,5.2,0,1.3,0,2.2-.8,2.9-.6.6-1.7,1-3.5.7-1.8-.2-4.4-1.1-8.1-3l-1.2-18.9Z"/>
          <path class="st0" d="M162.1,72.7c.8-1.3,1.9-2.2,3.1-2.7,1.1-.5,2.3-.6,3.3-.2,1.2.4,1.9,1.5,2.3,2.5.4,1,.5,2.1.6,2.7,0,.3.2,1.7,0,3.2-.2,1.5-.8,3-2.3,3.7-1,.5-2.3.5-3.6,0-1.3-.5-2.5-1.5-3.3-2.9v-6.4Z"/>
          <path class="st0" d="M163.8,67.6c.4-.4.8-.8,1.3-1.1.5-.3,1-.6,1.5-.8.3-.1.5-.2.8-.3.3,0,.6-.1.8-.2.3,0,.6,0,.9,0,.3,0,.6,0,.9,0,.6,0,1.2.2,1.7.4.6.2,1.1.5,1.6.8.5.4.9.8,1.3,1.3.4.5.6,1,.8,1.6-.1-.6-.4-1.2-.7-1.7-.3-.6-.7-1.1-1.2-1.5-.5-.4-1-.8-1.6-1.1-.6-.3-1.2-.5-1.9-.6-.3,0-.6-.1-1-.1-.3,0-.7,0-1,0-.3,0-.7,0-1,0-.3,0-.7.1-1,.2-.7.2-1.3.4-1.9.8s-1.2.7-1.7,1.2l.6.6.6.6Z"/>
        </g>
        <path class="st0" d="M133.7,85.3c-.7-1.6-1.5-3.6-2.4-5.8-.9-2.2-1.8-4.6-2.7-7.3-.3-.8-1.1-1.2-1.9-1.2s-1.6.4-1.9,1.2c-.9,2.7-1.8,5.1-2.7,7.3-.9,2.2-1.7,4.1-2.4,5.8-1.5,3.7-2.9,6.6-3.6,9-.7,2.4-.8,4.5.3,6.5.2.3.4.6.6.9.2.3.4.6.7.8,2.2,2.5,5.6,3.7,9,3.7s6.8-1.2,9-3.7c.2-.3.5-.5.7-.8.2-.3.4-.6.6-.9,1.1-2,1-4,.3-6.5-.7-2.4-2.1-5.3-3.6-9Z"/>
        <path class="st33" d="M125.9,37.8h0c.9.5,1.8,1,2.9,1.4.9.4,2.4,1.2,4.5,2.3,8.3,4.3,15.1,7.9,20.2,10.6,2.6,1.4,3.8,2,3.9,2.1,2.2,1.3,4.3,2.7,6.3,4.3,1.5,1.4,3,2.9,4.3,4.5,0,0,.1.1.2.1,0,0,.1,0,.1-.2,0,0,0-.1,0-.2,0-.1,0-.2,0-.4-.9-2.6-1.6-5.3-2.2-8.3-.4-2.1-.8,32.8-1,31.9,0,0-7-5.5-7-5.1,0,.3-.1.6-.2.9-.6,2.1-1.4,4.1-2.2,6.1-.2,0-.3-.2-.2-.5.4-1.4.9-2.7,1.4-4,0,0,0-.1.1-.4.1-.4.4-.9.8-1.4,0,0,0-.2,0-.3-.1-.3-.2-.6,0-1,0-.2.2-.4.5-.8.3-.4.5-.8.7-1.2.5-1.4.9-3,1.2-4.8.3-1.7.4-2.6.4-2.7.1-1,.2-1.9.1-2.7-.1-1.5-.9-2.5-2.5-3.2-1.1-.4-2.3-.4-3.4,0-1,.4-2,.8-3,1.3-3.9,1.9-8.1,2.9-12.5,3-4.4.1-8.4-.8-12.2-2.8-.2,0-.3-.1-.4-.1l-.3-.2c0-.1-.2-.1-.4,0-.4.1-.8.3-1.2.5-2.6,1.3-5.2,2.1-8.1,2.6-1.4.2-2.9.3-4.4.3-2.7,0-5.4-.5-8-1.3-.8-.3-1.9-.7-3.2-1.2-1-.5-2.1-.9-3.1-1.4-.5-.2-1.2-.4-2.1-.5-1.2-.3-2.3-.2-3.2.5-.8.5-1.2,1.2-1.4,2.1-.1.5,0,1.3,0,2.3.5,3.2,1.3,6.3,2.3,9.4,0,0,.2.4.5,1,.2.3.3.7.3,1.1,0,0,0,.1,0,.2,0,.1.2.3.2.5.3,1.3.9,2.8,1.5,4.4.1.4.4,1.1.8,2.2.3.7.6,1.4.9,2.2.4.7-7.5-4.4-7.2-3.4,0,0-6.3-21.5-3.3-26.4,1.8-2.9,2.4-3.9,5.5-5.7,1.8-1.1,3.3-1.9,4.5-2.5,9.4-5,18.9-9.9,28.6-14.6h0Z"/>
        <path class="st31" d="M127.7,2.5c-.3.1-.4.3-.2.6.1.2.2.3.2.5,0,1-.1,2.6-.1,4.6v31.9c0,.7-.1,1.4-.3,1.9-3.2,1-6.5,2.3-9.9,3.8-4.8,2.2-9.4,4.5-13.7,6.9-.6.4-1.1.7-1.3,1-.7.6-1.3,1-1.7,1.2-3.4,1.9-6.6,4.2-9.5,6.7-.4.3-.3.3,0,0,7.6-4.7,15.5-9.1,23.5-13.3.4-.2.8-.5,1.2-.7.2-.1.2-.2,0-.4,3.5-1.6,7.1-3.2,10.7-4.6l.7.6s0,.1,0,.2v4.9s0,0,0,0c0,0-.2,0-.4,0-1.5.6-2.3.9-2.6,1.1-8.9,4.4-17.7,9.1-26.2,14.1-.8.5-2.4,1.5-4.7,2.9-3.4,2.1-4.1,4.6-6.4,7-.8.8-.8-28.7-.5-30.2,1-5.7,3.4-10.7,7.1-15.1,2.1-2.5,4.2-4.6,6.2-6.2,3.4-2.8,7.3-5.5,11.5-8.1,2.1-1.3,3.5-2.2,4.2-2.6,2.6-1.7,5-3.4,7.2-5,1.1-.8,2.3-1.9,3.7-3.2.5-.4.7-.7.8-.8.2-.3.4-.2.5,0h0Z"/>
        <path class="st24" d="M127.7,2.5c3.1,3.1,6.6,5.8,10.3,8.1,1.6,1.1,3.2,2.1,4.8,3,3.2,1.9,6.2,4,9.2,6.2,2.8,2.1,5.4,4.4,7.8,6.9,5,5.3,8,11.7,9,19-.2,0-.4,0-.5-.1,0,0-.2-.2-.2-.4-.4-2.8-1.1-5.5-2.1-8.2-.6-1.6-1.3-3.1-2.1-4.4-1-1.5-2-2.9-3.2-4.3-.8-.9-1.5-1.7-2.2-2.4-.8-.8-1.6-1.5-2.4-2.2-5.2-4.3-10.7-8.1-16.5-11.4-3.9-2.2-7.6-5.1-11.2-8.5,0,0-.1,0-.2-.1-.1,0-.2,0-.3-.1,0-.2,0-.4-.2-.5-.2-.3-.1-.5.2-.6h0Z"/>
        <path class="st35" d="M127.7,3.6c.1,0,.2.1.3.1,0,0,.2,0,.2.1,3.6,3.4,7.3,6.2,11.2,8.5,5.8,3.3,11.3,7.2,16.5,11.4.8.7,1.7,1.4,2.4,2.2.7.7,1.4,1.5,2.2,2.4,1.2,1.3,2.3,2.8,3.2,4.3.8,1.3,1.5,2.8,2.1,4.4,1,2.6,2.4,5.9,2.8,8.7,0,.2.9,7.3.9,7.3-.1.2-.3.4-.5.5-.2,0-.2.4,0,.9.2.8.4,1.5.4,2.3,0,.6.1,1.1.2,1.6.1.5.2,1,.2,1.5,0,.4,0,.8.2,1.2.2.8.2,1.2.2,1.2.2,1.2-4.4,25.4-8.6,26.3-3.5.8,4.4-17.8,3.4-18.6-2.9-2.1-6.5-5.1-10.8-7.5-3.3-1.9-6.7-3.8-10-5.6-3.8-2.1-7.6-4.2-11.4-6.2-.8-.4-1.5-.7-2.1-.9-.2,0-.3,0-.2.2-1.1-.4-2.1-1-3.1-1.6v-4.9c0-.1,0-.2,0-.2l-.7-.6.9-.4c0,0,0-.1,0-.2,0-.1-.2-.2-.4-.2.2-.5.3-1.2.3-1.9V8.2c0-2.1,0-3.6.1-4.6h0Z"/>
        <path class="st38" d="M127.2,42c.2,0,.3,0,.4.2,0,0,0,.1,0,.2l-.9.4c-3.6,1.4-7.2,2.9-10.7,4.6-4.6,2-9.2,4.1-13.7,6.4.3-.3.7-.6,1.3-1,4.3-2.4,8.8-4.7,13.7-6.9,3.4-1.5,6.7-2.8,9.9-3.8h0Z"/>
        <path class="st24" d="M116,47.3c.1.1.1.3,0,.4-.4.3-.8.5-1.2.7-8,4.2-15.9,8.6-23.5,13.3-.4.3-.4.2,0,0,3-2.5,6.1-4.8,9.5-6.7.4-.2.9-.6,1.7-1.2,4.5-2.3,9-4.5,13.7-6.4h0Z"/>
        <path class="st24" d="M139.5,48c-.2-.1-.2-.2-.1-.4,0,0,.1,0,.2,0,2.9,1.4,5.8,2.8,8.7,4.3,2.3,1.2,3.8,2,4.3,2.3,4.4,2.4,8.5,5.2,12.3,8.4.2.2.2.3,0,.2,0,0,0,0-.1,0-1.1-.8-2.3-1.6-3.5-2.4-7.1-4.3-14.4-8.4-21.8-12.3h0Z"/>
        <path class="st38" d="M127.4,48.5c-10.5,5.7-20.9,11.5-31.3,17.5-1.3.8-2.9,1.8-4.9,3-3.5,2.2-4.2,2.5-3.4,1.7,2.3-2.4,2.1-2.1,5.6-4.2,2.3-1.4,3.9-2.4,4.7-2.9,8.6-5,17.3-9.7,26.2-14.1.3-.1,1.2-.5,2.6-1.1.2,0,.3,0,.4,0h0Z"/>
        <path class="st4" d="M141.2,54.5c-2.3-1.3-4-2.2-5-2.7,0-.2,0-.3.2-.2.5.2,1.2.5,2.1.9,3.8,2,7.7,4,11.4,6.2,3.3,1.9,6.7,3.7,10,5.6"/>
        <path class="st35" d="M160,108.3l-2.4,7.3c-.3.2-.7.4-1.3.7-1,.5-1.9,1.3-2.7,2.3-.5.7-1.1,1.4-1.6,2.2-1.4,2.1-3,4.1-4.8,6-.6.7-1.4,1.3-2.2,1.8-.6.4-.7.3-.3-.3.6-.8,1.2-1.9,1.9-3.1,3.1-5.8,5.5-12,7.1-18.4.6-2.2,1-4.5,1.3-7.1,0,0,0-.2,0-.2,0,0,0,0-.1,0-1.7,4.3-4.2,8.3-7.3,11.8-2,2.3-4.1,4.6-6.2,6.8-1.4,1.5-3.2,3.2-5.4,5.2-2.1,2-4.4,3.5-6.8,4.7-.6.3-1.3.4-2,.5.2-.2.2-.4.2-.7v-43.3s0-.2,0-.6c0-.5,0-1-.3-1.4l.4-.3.4.2c0,.1,0,.2.1.2.1,0,.2,0,.2,0,5.7,4,11.9,5.1,18.7,3.4,3.5-.9,6.8-2.3,10-4.2.2,0,.4-.2.8-.4.3-.1.6-.3.8-.5,0,0,0,0,.1,0,.1,0,.1-.1,0-.2,1.2-.6,2.5-.6,3.7,0,1.7.7,2.6,2,2.8,3.8,0,1,0,2-.1,3.2,0,.1-.2,1.2-.5,3.2-.3,2.1-.7,4-1.3,5.7-.1.4-.4.9-.7,1.4-.3.5-.5.8-.5,1,0,.4,0,.7,0,1.1,0,.1,0,.3,0,.4-.4.7-.7,1.2-.8,1.7,0,.3-.1.5-.1.5-.5,1.6-1,3.2-1.5,4.9,0,.3,0,.5.2.6h0Z"/>
        <path class="st31" d="M94.4,80.8s0,0,0,0c0,0,0,0,0,0,1.3.6,2.6,1.2,3.9,1.9,2,1.1,3.3,1.7,3.9,1.9,3.2,1.3,6.5,2.1,10,2.2,4,.2,7.8-.6,11.3-2.4,1.2-.6,2.4-1.3,3.6-2,.3.4.4.9.3,1.4,0,.4,0,.6,0,.6v43.3c0,.3,0,.5-.2.7-1.3.6-2.5.5-3.7-.3-2.7-1.7-4.6-3.1-5.9-4-2.2-1.6-4.3-3.3-6.2-5.2-1.4-1.3-2.5-2.5-3.3-3.6-1.5-1.8-2.8-3.8-3.8-5.9,0,0,0,0,0,0,.9,3.5,2.3,6.9,3.9,10.1.6,1.1,1,1.8,1.4,2.3.9,1.1,2.2,2.2,3.9,3.4,2.6,1.8,5,3.8,7.4,5.9,1.7,1.5,2.6,2.3,2.6,2.3,1.9,1.6,3.8,3.3,5.6,5,.2.2.2.3-.1.3h-.8c0,0-.1,0-.2.1-.4.4-.9.6-1.4.6-.3,0-.5,0-.5,0-1.2,0-1.9,0-2.3-.2-4.4-1.8-8-3.6-11-5.6-2.3-1.5-4.3-3-6.1-4.7-2.9-2.6-5.2-5.7-6.9-9.2-.7-1.5-1.1-2.4-1.2-2.7-.1-.3-.2-.5-.4-.6,0,0,0,0,0,0,0,0,0,0,0-.1l-.4-.9c.2-.1.2-.2.2-.4-.1-.2-.2-.3-.2-.3-.3-1.1-.7-2.2-1.1-3-.4-.9-.7-1.7-1-2.6-.4-1.3-.7-2.2-.9-2.6-.7-1.9-1.3-3.7-1.7-5.3,0-.3-1.3-.5-1.4-.6,0,0,1.1-.1,1.1-.2,0-.4-2.9-4.1-3-4.5-.3-.7-1.9-6.5-1.9-6.5,0-3.8,1.4-4.9,1.5-5.5.2-1,.7-1.8,1.6-2.5,1-.8,2.2-1,3.5-.6h0Z"/>
        <path class="st8" d="M94.4,80.8c.9.1,1.7.3,2.2.6,1.1.6,2.3,1.1,3.4,1.7,1.4.7,2.6,1.2,3.5,1.5,2.8,1,5.7,1.5,8.7,1.6,1.7,0,3.3,0,4.9-.3,3.1-.5,6-1.5,8.8-3.1.4-.2.8-.4,1.3-.6.2,0,.3,0,.4.1l-.4.3c-1.2.7-2.4,1.3-3.6,2-3.5,1.8-7.3,2.6-11.3,2.4-3.5-.2-6.8-.9-10-2.2-.6-.2-1.8-.9-3.9-1.9-1.3-.7-2.6-1.3-3.9-1.9,0,0,0,0,0,0,0,0,0,0,0,0h0Z"/>
        <path class="st31" d="M158.8,80.9c.1,0,.2.1,0,.2,0,0-.1,0-.1,0-.3.2-.5.3-.8.5-.4.2-.7.3-.8.4-3.2,1.9-6.5,3.3-10,4.2-6.8,1.7-13,.5-18.7-3.4,0,0,0,0-.2,0,0,0-.1-.1-.1-.2.1,0,.3,0,.5.1,4.1,2.4,8.5,3.5,13.3,3.4,4.8-.1,9.4-1.3,13.7-3.6,1.1-.6,2.2-1.1,3.3-1.5h0Z"/>
        <path class="st33" d="M157.5,115.6c.1,0-1.3-3.3-1.3-3.3,2-1,8.7-23.4,8.4-21.2-2,13.1-3.4,28.4-4.6,29.8-.9,1-1.9,2-3.1,3.2-1.4,1.4-2.5,2.4-3.2,3.1-2.3,2.2-4.7,4.2-7.2,6-3.3,2.4-6.9,4.3-10.9,5.7-2.3.8-5,1.3-8.1,1.4-.2-.1-.5-.2-.9-.3-.7,0-1.4-.2-2.1-.4-.5-.1-1.2-.4-2-.7-1.8-.8-3.6-1.5-5.4-2-1.8-.6-3.6-1.3-5.6-2.3-1.2-.6-2.2-1.2-3.2-1.9-.8-.6-1.7-1.4-2.9-2.4-.9-.8-1.6-2-2.7-2.6-5-2.7-4.5-8-7.6-13.8s-5.4-17.9-5.6-18c-.3-.2,2.2,2.1,4.1,3.5s9.8,27.1,12.7,29.7c1.8,1.6,3.9,3.2,6.1,4.7,3,2,6.6,3.8,11,5.6.4.1,1.1.2,2.3.2,0,0,.2,0,.5,0,.6,0,1-.2,1.4-.6,0,0,.1-.1.2-.1h.8c.3,0,.4-.1.1-.3-1.9-1.7-3.7-3.3-5.6-5,0,0-.9-.8-2.6-2.3-2.4-2.1-4.8-4-7.4-5.9-1.6-1.2-2.9-2.3-3.9-3.4-.4-.4-.8-1.2-1.4-2.3-1.7-3.2-3-6.6-3.9-10.1,0,0,0,0,0,0,1,2.1,2.3,4.1,3.8,5.9.9,1,2,2.2,3.3,3.6,1.9,1.9,4,3.6,6.2,5.2,1.3.9,3.2,2.2,5.9,4,1.2.8,2.5.9,3.7.3.7,0,1.4-.2,2-.5,2.4-1.2,4.6-2.7,6.8-4.7,2.2-2,4-3.8,5.4-5.2,2.1-2.2,4.2-4.5,6.2-6.8,3.1-3.5,5.5-7.4,7.3-11.8,0-.1.1-.1.1,0,0,0,0,.1,0,.2-.3,2.6-.8,5-1.3,7.1-1.7,6.4-4,12.5-7.1,18.4-.7,1.2-1.3,2.3-1.9,3.1-.4.6-.3.7.3.3.8-.6,1.5-1.2,2.2-1.8,1.8-1.9,3.3-3.8,4.8-6,.5-.7,1-1.5,1.6-2.2.8-1,1.7-1.8,2.7-2.3.6-.3,1-.6,1.3-.7h0Z"/>
        <path class="st23" d="M122.2,177c-2.4,2.4-2.3,6.2,0,8.6,2.4,2.4,6.2,2.3,8.6,0,2.4-2.4,2.3-6.2,0-8.6-2.4-2.4-6.2-2.3-8.6,0ZM127.9,182.6c-.7.7-1.9.7-2.6,0-.7-.7-.7-1.9,0-2.6s1.9-.7,2.6,0,.7,1.9,0,2.6Z"/>
        <path class="st23" d="M121.2,180s-2.3-2.8-4.5-1l-1.1-8.5,8.1,1.2s-.6,2.9,1.3,4.5l-3.8,3.7Z"/>
        <path class="st23" d="M131,180.1s2.2-2.8,4.5-1l1-8.5-8.1,1.3s.6,2.9-1.2,4.5l3.8,3.7Z"/>
        <path class="st23" d="M121,182.7s-2.2,2.8-4.5,1.1l-.9,8.6,8-1.5s-.7-2.9,1.1-4.6l-3.9-3.6Z"/>
        <path class="st23" d="M130.9,182.3s2.3,2.7,4.5.9l1.2,8.5-8.1-1.1s.6-2.9-1.3-4.5l3.7-3.8Z"/>
        <path class="st11" d="M47.5,125.4l-11.9-1.9c-2.2-.3-4.4.8-5.3,2.8-.3.7-.5,1.5-.4,2.3-1.2,6.1-5.7,6.8-5.7,6.8l1.8-11.2c.5-3.1-1.9-5.7-4.8-5.8h0c-6.1-1.2-7.2-6-7.2-6h0s10.8,1.7,10.8,1.7c3.1.5,5.9-2,5.8-5.1.4-1.4,2.1-6.3,6.5-6.6l-1.7,10.7c-.4,2.7,1.4,5.3,4.1,5.7.1,0,.3,0,.4,0,0,0,5.6,1.2,7.6,6.5Z"/>
        <path class="st6" d="M47.5,125.4c-2-5.3-7.6-6.5-7.6-6.5.2,0,.5,0,.7,0,1.1,0,2.2-.3,3.2-.7,0,0,0,0,.1,0,.6.1,5.9,1.6,6,7.4,0,.1,0,.2-.2.2,0,0,0,0,0,0l-2.1-.3Z"/>
        <path class="st6" d="M37.1,99.6c.2,0,.3.1.3.3,0,0,0,0,0,0l-.4,2.5c-4.4.3-6.1,5.2-6.5,6.6,0,0,0-.1,0-.2,0-1.1-.3-2.1-.6-3.1,0,0,0-.1,0-.2.2-.7,1.6-5.8,7.2-6Z"/>
        <path class="st6" d="M31.1,132c.1.2.1.4,0,.6-.4,1.2-1.9,5.3-6.7,5.7-.4,0-.7-.2-.7-.6,0,0,0-.1,0-.2l.3-2s4.6-.6,5.7-6.8c.1,1.5.9,2.8,1.2,3.3Z"/>
        <path class="st1" d="M31.2,115.5c1.6.2,2.7,1.7,2.4,3.3-.2,1.6-1.7,2.7-3.3,2.4-1.6-.2-2.7-1.7-2.4-3.3,0,0,0,0,0,0,.2-1.6,1.7-2.7,3.3-2.4Z"/>
        <path class="st17" d="M24.2,135.4s1.2-.2,2.6-1.2l1.6-10c.5-3.1-1.9-5.7-4.8-5.8h0c-5-1-6.7-4.4-7.1-5.6l-2.5-.4h0s1.1,4.8,7.2,6h0c2.9,0,5.3,2.7,4.8,5.8l-1.8,11.2Z"/>
        <path class="st26" d="M26.3,137.5l.3-2,.2-1.2c-1.4,1-2.6,1.2-2.6,1.2l-.3,2c0,.4.2.7.5.7,0,0,.1,0,.2,0,.6,0,1.2-.2,1.8-.4,0-.1,0-.3,0-.4Z"/>
        <path class="st32" d="M163.6,115c1.7.4,4.7,1.2,8.2,3,3.5,1.7,7.5,4.4,11.1,8.4,3.5,3.9,5.7,8,7,11.5,1.3,3.5,1.9,6.5,2.2,8.2.4,2.2,1.4,8.1.7,14.8-.7,6.6-3.1,14-9.7,19-5.4,4.1-11.6,5.2-16.8,5.2-5.1,0-9.2-1.2-10.2-1.5.2-1,.5-2.3.6-3.8.1-1.5.2-3.2,0-5.1-.2-1.8-.5-3.4-.9-4.7-.4-1.4-.9-2.5-1.3-3.4,2.9-2.2,5.7-4.5,8.6-6.7s5.7-4.5,8.6-6.7c-.1-1.6-.3-3.3-.5-5-.2-1.7-.5-3.5-.9-5.4-.4-2.1-.9-4-1.3-5.6-.4-1.7-.9-3.1-1.3-4.3-.6-1.8-1.3-3.8-2.2-6-.9-2.2-2-4.6-3.3-7.1l1.2-4.6Z"/>
        <g>
          <path class="st21" d="M164,188.3h0s-32.6-5.3-32.6-5.3h0c7.5,0,14.2-6,15.5-14.1l.8-4.9,6.8,1.1-.8,4.9c-1.3,8.2,3.2,15.9,10.2,18.3Z"/>
          <rect class="st16" x="147.7" y="169.2" width="0" height="33" transform="translate(-59.3 301.7) rotate(-80.8)"/>
          <path class="st22" d="M164,188.3h0s-6-1-6-1h0c-4.4-2-7.5-9.5-6.2-17.7l.8-4.9,1.9.3-.8,4.9c-1.3,8.2,3.1,15.9,10.2,18.3Z"/>
          <path class="st21" d="M165.7,190.6l-.2,1.4-36.6-5.9.2-1.4c.2-1.1,1.4-1.8,2.8-1.6l31.7,5.2c1.3.2,2.3,1.3,2.1,2.4Z"/>
          <g>
            <path class="st3" d="M149,164.2l-.8,4.9c-1.3,8.2-5.9,14.4-10.7,14.9h0s-2.7-.4-2.7-.4h0c6-.3,11.6-6.4,12.9-14.6l.8-4.9h.6Z"/>
            <path class="st3" d="M137.7,184.1c-.8-.1-1.7.6-1.9,1.7l-.2,1.4-3.1-.5.2-1.4c.2-1.1,1.2-1.8,2.3-1.7l2.7.4Z"/>
          </g>
          <path class="st22" d="M154.5,165.1l-.7,4.1c-5.6.4-6.5-2.9-6.5-2.9l.4-2.3,6.8,1.1Z"/>
          <path class="st22" d="M165.7,190.6l-.2,1.4-5.8-.9.2-1.4c.2-1.1-.4-2.1-1.3-2.2l5,.8c1.3.2,2.3,1.3,2.1,2.4Z"/>
          <path class="st7" d="M165.4,192.1l-36.6-5.9c-1.9,1.2-3,1.9-4.9,3.2h0s45.2,7.3,45.2,7.3h0c-1.4-1.8-2.2-2.8-3.7-4.6Z"/>
          <path class="st2" d="M135.3,192.9h20c9.1,0,16.5,7.4,16.5,16.5v.2h-53.1v-.2c0-9.1,7.4-16.5,16.5-16.5Z" transform="translate(34.1 -20.7) rotate(9.2)"/>
          <rect class="st21" x="140.5" y="178.3" width="9.4" height="45.8" transform="translate(367.1 90.1) rotate(99.2)"/>
          <rect class="st7" x="114.7" y="209.4" width="57.9" height="3.5" rx="1.8" ry="1.8" transform="translate(35.7 -20.3) rotate(9.2)"/>
          <path class="st22" d="M164,188.3l-32.6-5.3c1.3,0,2.6-.2,3.9-.6,0,0,9.9,2,12.9,2.4,2.4.3,12.2,1.6,12.2,1.6,1.1.7,2.3,1.3,3.5,1.8Z"/>
          <path class="st12" d="M172.5,198.8l-2.4,15-12.3-2,.6-3.6,8.7,1.4,1.5-9.3-8.7-1.4.6-3.6,10.7,1.7c.9.1,1.4.9,1.3,1.8Z"/>
          <rect class="st22" x="158.8" y="199.8" width="9.4" height="8.8" transform="translate(-64.2 332.9) rotate(-80.8)"/>
          <path class="st20" d="M169.1,196.6h0s-8.5-1.4-8.5-1.4l-.9-4.1,5.8.9c1.4,1.8,2.2,2.8,3.7,4.5Z"/>
          <path class="st20" d="M172.4,214.9l-.3,2c0,.4-.5.7-.9.6l-13.9-2.3c.4,0,.8-.2.8-.6l.3-2c0-.4-.2-.8-.6-.9l13.9,2.3c.4,0,.7.5.6.9Z"/>
          <path class="st30" d="M129.8,210.8l-3.9-.6c-.4,0-.7-.5-.6-.9l.3-2c0-.4.4-.7.8-.6l3.9.6c-.4,0-.8.2-.8.6l-.3,2c0,.4.2.8.6.9Z"/>
          <path class="st21" d="M184.5,117.1c-.3,1.6-.5,3.2-.9,4.7-.3,1.3-.6,2.6-.9,3.9-2.3,9.5-5.8,18-9.8,24.7-1,1.6-2,3.1-3.1,4.6-5.8,7.8-12.6,12-19.1,10.9-6.5-1.1-11.5-7.2-14.6-16.4-.5-1.7-1-3.4-1.5-5.3-1.7-7.6-2.3-16.7-1.5-26.5.1-1.3.2-2.7.4-4,.2-1.6.4-3.2.7-4.8l50.2,8.1Z"/>
          <path class="st3" d="M150.4,165.8c-5.2-1.1-9.1-7-11.4-15.9-.4-1.6-.8-3.4-1.1-5.2-1.3-7.5-1.5-16.6-.6-26.3.1-1.3.3-2.6.4-4,.2-1.6.4-3.2.7-4.8l4.1.7c-.3,1.6-.5,3.2-.7,4.8-.2,1.3-.3,2.7-.5,4-1.1,9.7-1.1,18.7-.4,26.2.2,1.8.4,3.5.7,5.2,1.6,8.7,4.5,14.4,8.7,15.4Z"/>
          <path class="st22" d="M184.5,117.1c0,.4-.1.8-.2,1.3l-50.2-8.1c0-.4.1-.8.2-1.3l50.2,8.1Z"/>
          <path class="st22" d="M184.5,117.1c-.3,1.6-.5,3.2-.9,4.7-.3,1.3-.6,2.6-.9,3.9-2.3,9.5-5.8,18-9.8,24.7-1,1.6-2,3.1-3.1,4.6-5.8,7.8-12.6,12-19.1,10.9,3.9.6,8.2-4,12.2-12,.7-1.5,1.4-3,2.1-4.7,2.9-6.9,5.5-15.4,7.5-25,.3-1.3.5-2.6.8-3.9.3-1.6.6-3.1.8-4.7l10.2,1.7Z"/>
          <rect class="st21" x="132.2" y="107.8" width="55.2" height="5.2" rx="2.6" ry="2.6" transform="translate(19.8 -24.2) rotate(9.2)"/>
          <path class="st3" d="M141.7,110.2l-3.4-.6c-.9-.1-1.5-1-1.3-1.8l.3-2c.1-.9,1-1.5,1.8-1.3l3.4.6c-.9-.1-1.7.4-1.8,1.3l-.3,2c-.1.9.5,1.7,1.3,1.8Z"/>
          <path class="st22" d="M187.2,113.9l-.3,2c-.1.9-1,1.5-1.8,1.3l-10.9-1.8c.9.1,1.7-.4,1.8-1.3l.3-2c.1-.9-.5-1.7-1.3-1.8l10.9,1.8c.9.1,1.5,1,1.3,1.8Z"/>
          <path class="st22" d="M190.8,123l-7.2-1.2c-.3,1.3-.6,2.6-.9,3.9l4.8.8c.4,0,.7.5.7.9l-1.2,7.7c-1.2,7.7-7,13.5-14.1,15.3-1,1.6-2,3.1-3.1,4.6,10.4-.7,19.4-8.5,21.1-19.2l1.7-10.2c.2-1.2-.6-2.3-1.8-2.5Z"/>
          <path class="st21" d="M134.7,144.2c-6.2-3.9-9.7-11.3-8.5-19l1.2-7.6c0-.4.5-.7.9-.7l4.8.8c.1-1.3.2-2.7.4-4l-7.2-1.2c-1.2-.2-2.3.6-2.5,1.8l-1.7,10.2c-1.7,10.7,4.3,20.9,13.9,24.9-.5-1.7-1-3.4-1.5-5.3Z"/>
          <polygon class="st30" points="132.6 186.7 129.2 190.2 133.2 190.8 135.6 187.2 132.6 186.7"/>
          <rect class="st28" x="128.9" y="190.5" width="3.9" height="3.6" transform="translate(32.5 -18.5) rotate(9.2)"/>
          <rect class="st28" x="126.8" y="203.3" width="3.9" height="3.6" transform="translate(34.5 -18) rotate(9.2)"/>
          <rect class="st3" x="127.8" y="194" width="3.9" height="9.4" transform="translate(33.5 -18.2) rotate(9.2)"/>
          <path class="st13" d="M157.6,125.7l1.2,5.1c0,.1.1.2.2.2l5.1,1.2c.3,0,.3.4,0,.6l-4.5,2.7c0,0-.2.2-.1.3l.4,5.2c0,.3-.3.4-.5.3l-3.9-3.4c0,0-.2,0-.3,0l-4.8,2c-.3.1-.5-.2-.4-.4l2-4.8c0-.1,0-.2,0-.3l-3.4-4c-.2-.2,0-.5.3-.5l5.2.4c.1,0,.2,0,.3-.1l2.7-4.4c.1-.2.5-.2.6,0Z"/>
        </g>
        <rect class="st14" x="86.7" y="78" width="130.1" height="164.9" transform="translate(27.7 -22.2) rotate(9.2)"/>
        <path class="st27" d="M131,176.1c0,.5.2.9.4,1.2.3.3.5.6.6.6,1.6,1.3,4.2,1,6.3.4,2.2-.6,4-1.4,4-1.3,0,.1-2.4.8-4.9,1.9-2.5,1.1-5.1,2.7-5.2,4.7,0,.3,0,.7.1,1.1.1.4.4.7.7.9,1.2.8,3.5-.3,5.5-1.5,2-1.3,3.7-2.7,3.8-2.6,0,0-1,.8-2.3,2-1.2,1.2-2.6,2.8-3.2,4.5-.2.6-.3,1.1-.3,1.5,0,.4.1.6.2.8.2.4.6.6.9.8.3.1.6.2.7.2,1.1.2,2.4-.8,3.4-2,1-1.2,1.9-2.7,2.4-3.6-1,2-1.7,3.9-1.9,5.4-.2,1.5,0,2.7.8,3.5.3.3.7.5.9.6.3,0,.5.1.5.1,1.8.1,2.8-1.8,4.1-4.2,1.3-2.4,3-5.3,6-6.9.3-.1.5-.3.8-.4.3-.1.5-.2.8-.3.2-1,.5-2.3.6-3.7.1-1.5.2-3.2,0-5-.2-1.7-.5-3.2-.8-4.4-.4-1.3-.8-2.4-1.2-3.3-.8-.4-1.4-.9-2-1.3-.6-.5-1-.9-1.4-1.4-.6-.8-1.2-1.8-1.9-2.6-.7-.9-1.5-1.6-2.7-1.9-.9-.2-1.9-.2-2.7.2-.8.3-1.5.9-1.6,1.6-.2.7,0,1.4.5,2.1.5.7,1.1,1.5,1.8,2.3.6.7,1.3,1.3,1.9,1.8.6.5,1.1.9,1.6,1.2-2,.7-3.8,1.4-5.3,1.9-1.6.6-2.9,1-4,1.4-2.4.8-4.4,1.4-5.7,2-1.4.6-2.1,1.2-2.2,2Z"/>
      </g>
    </g>
  </g>
</svg>