<?xml version="1.0" encoding="UTF-8"?>
<svg xmlns="http://www.w3.org/2000/svg" version="1.1" viewBox="0 0 250 250">
  <!-- Generator: Adobe Illustrator 29.8.3, SVG Export Plug-In . SVG Version: 2.1.1 Build 3)  -->
  <defs>
    <style>
      .st0 {
        fill: #f79c79;
      }

      .st1 {
        fill: #fedd7c;
      }

      .st2 {
        fill: #49494a;
      }

      .st3 {
        fill: #ffdc6c;
      }

      .st4 {
        fill: #f0b818;
      }

      .st5 {
        fill: #ccc;
      }

      .st5, .st6 {
        mix-blend-mode: multiply;
      }

      .st7 {
        fill: #606161;
      }

      .st8 {
        fill: #fff;
      }

      .st9 {
        fill: #e8e4e6;
      }

      .st10 {
        fill: #e9e4e3;
      }

      .st11 {
        fill: #d48252;
      }

      .st12 {
        fill: #444344;
      }

      .st13 {
        fill: #faa822;
      }

      .st14 {
        fill: none;
      }

      .st15 {
        fill: #e7b024;
      }

      .st16 {
        fill: #e0e0e0;
      }

      .st17 {
        fill: #feca35;
      }

      .st18 {
        fill: #b5b0ae;
      }

      .st19 {
        isolation: isolate;
      }

      .st20 {
        fill: #52576b;
      }

      .st21 {
        fill: #575757;
      }

      .st22 {
        fill: #ffc937;
      }

      .st23 {
        fill: #dbdbdb;
      }

      .st24 {
        fill: #fcb736;
      }

      .st25 {
        fill: #cfc9c7;
      }

      .st26 {
        fill: #ded7d5;
      }

      .st27 {
        fill: #d9d5d7;
      }

      .st28 {
        fill: #ff503f;
      }

      .st29 {
        fill: #ffb091;
      }

      .st30 {
        fill: #a4a2a1;
      }

      .st31 {
        fill: #a25e41;
      }

      .st32 {
        fill: #4d4c4d;
      }

      .st33 {
        fill: #ff6e6e;
      }

      .st34 {
        fill: #6b6b6b;
      }

      .st35 {
        fill: #a7473f;
      }

      .st36 {
        fill: #c7c3c2;
      }

      .st37 {
        fill: #eb4a39;
      }

      .st38 {
        fill: #ededed;
      }

      .st39 {
        fill: #434657;
      }
    </style>
  </defs>
  <g class="st19">
    <g id="Calque_1">
      <g>
        <path class="st5" d="M204.1,236.9c0,6.3-31.5,11.3-70.3,11.3s-70.3-5.1-70.3-11.3,31.5-11.3,70.3-11.3,70.3,5.1,70.3,11.3Z"/>
        <path class="st29" d="M28.8,124.3c0-.5.2-.9.4-1.2.2-.3.4-.6.6-.8,0,0-.3-.4-.5-.8-.2-.4-.4-1.1-.3-1.8,0-.5.3-1,.5-1.3.2-.3.4-.5.5-.6-.5-.5-.8-1.1-.9-1.7-.1-.6-.1-1.2.1-1.8.3-.7.9-1.3,1.7-1.6.8-.3,1.7-.4,2.6,0,0-.2,0-.5,0-.8,0-.3,0-.6,0-1,0-.5,0-.9,0-1.2,0-.3,0-.6.2-.8.3-.6,1-.9,1.7-1.1.7-.2,1.5-.2,2.1,0,.8.1,1.4.5,1.9.8.5.3.8.7,1,.9,0-.3,0-.6,0-1.1,0-.4.1-.9.3-1.4.4-.9,1-1.8,1.8-2.4.8-.6,1.6-1,2.4-.8.5.1.9.5,1.3,1.4.5.9,1.1,2.4,2.1,4.8.3.7.6,1.5,1,2.3s.7,1.7,1.1,2.7h0s0,0,0,0c.2.2.3.4.5.6.2.2.4.4.6.6.4.4.9,1,1.7,1.7.7.7,1.6,1.5,2.8,2.3,2.3,1.8,4,2.5,5.1,3,1.2.5,1.8.9,2.3,1.9.5,1.1.4,2.3.1,3.6-.3,1.2-1,2.4-1.8,3.2-1.5,1.5-3.6,2.1-6,2.1-2.5,0-5.3-.5-8.3-1-.3,0-.5,0-.8-.2-.2,0-.5-.1-.7-.3-.6-.3-.9-.6-1.2-.9-.3-.3-.7-.6-1.3-.9-.2-.1-.5-.2-.7-.2-.2,0-.4,0-.5-.1,0,0-.2,0-.3,0,0,0-.2,0-.2,0-.6.2-1.3.3-2,.4-.7,0-1.4,0-2,0-.6,0-1.5-.2-2.6-.5-1.1-.3-2.3-.9-3.4-1.9-.5-.4-1.2-1-1.8-1.7-.6-.7-1-1.6-.8-2.6Z"/>
        <g>
          <path class="st36" d="M36.4,128.5c2.5-4.9,6.9-13.6,11.9-23.4l-5.7-2.7-11.7,23.3s-.2,2,1.9,3c2.1,1.1,3.6-.3,3.6-.3Z"/>
          <path class="st30" d="M42.6,102.4l-2.3,4.7c1.7,1.3,3.5,2.4,5.4,3.2.9-1.7,1.7-3.4,2.6-5.2l-5.7-2.7Z"/>
          <path class="st30" d="M37,113.6l-1.2,2.4c1.5,1.4,3.3,2.7,5.2,3.5.5-1,1-2,1.6-3.1-1.9-.6-3.8-1.6-5.6-2.8Z"/>
          <path class="st30" d="M39.6,122.2c-1.8-1.1-3.3-2.7-4.7-4.5l-1.3,2.6c1.7,1.1,3.6,2.1,5.5,2.8.2-.3.3-.6.5-.9Z"/>
          <path class="st30" d="M36.4,128.5c.4-.8.9-1.7,1.4-2.8-1.8-1-3.4-2.4-5-3.8l-1.9,3.8s-.2,2,1.9,3c2.1,1.1,3.6-.3,3.6-.3Z"/>
          <path class="st10" d="M38.7,110.3l-.7,1.3c1.6,1.3,3.4,2.7,5.2,3.5.4-.9.9-1.8,1.4-2.7-2-.6-4-1.5-6-2.1Z"/>
          <path class="st31" d="M32.1,122.8l-1.5,3s-.3,2.1,2.1,3.3c2.3,1.2,4-.3,4-.3.4-.8.9-1.8,1.4-2.8l-2.1-1.1c-.2.3-.3.7-.4.9,0,0-.5.5-1.3.1-.8-.4-.7-1.1-.7-1.1l.5-1-1.9-1Z"/>
        </g>
        <g>
          <path class="st11" d="M53.8,106.6c0,0,.9-1.7.9-1.8.7-1.7-1.6-2.9-7-5.5-5.3-2.6-7.2-3.6-8.1-2.1,0,0-1,1.7-1,1.8-.8,1.7.5,4,6.1,6.7,5.6,2.7,8.3,2.4,9.1.9Z"/>
          <path class="st31" d="M54.8,104.6c.7-1.4-.8-3.5-6.4-6.1-5.6-2.6-8.2-2.5-8.9-1.1-.7,1.4.8,3.5,6.4,6.1,5.6,2.6,8.2,2.5,8.9,1.1Z"/>
          <path class="st18" d="M88.2,30.4c1.2-6.8-3.7-12.6-3.7-12.6l-40.3,82.5,2.6,1.7,2.9,1c7.8-15.8,36.6-68.7,38.5-72.6Z"/>
          <path class="st26" d="M88.2,30.4c1.2-6.8-3.7-12.6-3.7-12.6v.2c-.1,0-1.7,15.1-1.7,15.1l5.4-2.6s0,0,0-.1Z"/>
          <path class="st25" d="M82.8,33l-36,69.1,2.8,1.2c7.8-15.7,36.3-68.1,38.5-72.7l-5.3,2.4Z"/>
        </g>
        <path class="st29" d="M40.6,110.6c0,.1.2.7.3,1.4,0,.7,0,1.5-.5,2-.5.7-1.6,1-2.8.9-1.2,0-2.6-.6-3.9-1.8,0,0,.3.3.6.6.2.4.5.9.5,1.5,0,0,0,.4,0,.7,0,.4-.2.8-.4,1.2-.4.6-1.1.9-1.9,1.1-.8.1-1.7,0-2.6-.3.6-.1,1.1-.1,1.6,0,.5.2.8.5,1,.8.2.4.2.9,0,1.2-.1.4-.3.6-.3.7-.3.5-.7.8-1.1,1-.4.2-.7.2-.8.3.2,0,.4,0,.7,0,.3,0,.7.1,1.1.3.5.3.9.6,1.1,1,.3.4.4.9.5,1.3.1.9-.3,1.9-.8,2.6-.6.7-1.3,1.2-2,1.1-.6,0-1-.5-1.3-1.1-.3-.5-.5-1.1-.6-1.3-.1-.3-.3-.7-.3-1.2,0-.4,0-.9.1-1.3,0,0,.1-.2.2-.4,0-.2.1-.4.1-.7,0-.1,0-.2,0-.3,0,0,0-.1,0-.2-.1-.4-.2-.8-.3-1.3,0-.5,0-1,.1-1.4.1-.3.3-.4.4-.5.1-.1.3-.3.4-.6,0-.2,0-.4,0-.5,0-.1,0-.3,0-.3,0-.4,0-1,.2-1.5.2-.6.5-1.1.9-1.5.4-.3.8-.6,1.3-.7.4-.2.8-.3.9-.3,0,0,0,0,0,0,0,0,0,0,.1,0,.1,0,.2-.1.2-.2,0,0,0-.1.1-.1,0,0,.6-.8,1.3-1.5.7-.7,1.7-1.4,2.6-1.5.2,0-.5-1.9-.2-1.8.3,0,1.5.5,1.9.8l1.3,1.9Z"/>
        <path class="st29" d="M42.5,111.7c0,.1.2.7.3,1.4,0,.7,0,1.5-.5,2-.5.7-1.6,1-2.8.9-1.2,0-2.6-.6-3.9-1.8,0,0,.3.3.6.6.2.4.5.9.5,1.5,0,0,0,.4,0,.7,0,.4-.2.8-.4,1.2-.4.6-1.1.9-1.9,1.1-.8.1-1.7,0-2.6-.3.6-.1,1.1-.1,1.6,0,.5.2.8.5,1,.8.2.4.2.9,0,1.2-.1.4-.3.6-.3.7-.3.5-.7.8-1.1,1-.4.2-.7.2-.8.3.2,0,.4,0,.7,0,.3,0,.7.1,1.1.3.5.3.9.6,1.1,1,.3.4.4.9.5,1.3.1.9-.3,1.9-.8,2.6-.6.7-1.3,1.2-2,1.1-.6,0-1-.5-1.3-1.1-.3-.5-.5-1.1-.6-1.3-.1-.3-.3-.7-.3-1.2,0-.4,0-.9.1-1.3,0,0,.1-.2.2-.4,0-.2.1-.4.1-.7,0-.1,0-.2,0-.3,0,0,0-.1,0-.2-.1-.4-.2-.8-.3-1.3,0-.5,0-1,.1-1.4.1-.3.3-.4.4-.5.1-.1.3-.3.4-.6,0-.2,0-.4,0-.5,0-.1,0-.3,0-.3,0-.4,0-1,.2-1.5.2-.6.5-1.1.9-1.5.4-.3.8-.6,1.3-.7.4-.2.8-.3.9-.3,0,0,0,0,0,0,0,0,0,0,.1,0,.1,0,.2-.1.2-.2,0,0,0-.1.1-.1,0,0,.6-.8,1.3-1.5.7-.7,1.7-1.4,2.6-1.5.2,0-.5-1.9-.2-1.8.3,0,1.5.5,1.9.8l1.3,1.9Z"/>
        <path class="st37" d="M63.9,124.7c.7.4,2.9,1.4,6.5,1.8,3.7.5,8.8.5,15.6-1,8.6-1.9,13.5-5.9,17.6-9.3,4.1-3.4,7.5-6.2,13.2-5.7,3.1.3,6.3,1.5,8.8,3.3,2.6,1.8,4.6,4.3,5.6,7,1.9,5.5-.8,11.3-4.2,15.9-3.4,4.5-7.4,7.8-7.9,8.2-6,4.8-12.7,6.9-18.6,7.7-5.9.8-11,.4-13.9.1-10.4-.9-19-4.5-25.6-8.5-6.6-4-11.3-8.4-13.6-10.8.8-.5,1.9-1.1,3-2,1.1-.9,2.3-2,3.5-3.4,1.3-1.5,2.2-3,2.9-4.4.7-1.4,1.2-2.6,1.5-3.5.6.6,1.3,1.4,2.3,2.2.9.8,2.1,1.6,3.4,2.3Z"/>
        <path class="st17" d="M97.5,162.5c-.1,5.5-.4,10.4-.8,14.6-.3,4.2-.8,7.8-1.1,10.8-.2.7-.4,1.6-.6,2.7-.2,1.1-.3,2.2-.4,3.6,0,1.1,0,2.7.2,4.7.3,2,.9,4.3,2.1,6.7.4.8,1,1.8,1.8,2.9.8,1.1,1.9,2.3,3.3,3.5,0,0,.2.1.4.2s.5.3.8.4c2.9,1.5,6.5,1.7,9.7,1.5,3.1-.2,5.8-.8,6.9-1,1-.2,2.1-.5,3.4-.9,1.3-.4,2.7-.9,4.3-1.6.7-1.3,1.5-3.2,2.3-5.4.8-2.2,1.5-4.8,1.8-7.7.8-6.2.2-13.1-1.5-18.5-1.6-5.4-4.2-9.4-7.3-9.9-.5,0-1.1,0-1.9.2-.8.2-1.7.7-2.7,1.5l-20.7-8.1Z"/>
        <path class="st20" d="M127.3,210.5c0,.6-.2,1.3-.2,1.9,0,.6-.2,1.3-.2,1.9-.1.9-.2,1.9-.4,2.8-.1.9-.2,1.9-.4,2.8-.4,3.2-.8,6.4-1.2,9.6-.4,3.2-.8,6.4-1.2,9.6-2.1,0-4.2,0-6.3-.1-2.1,0-4.2,0-6.3-.1-2.3,0-4.7.2-7,.2-2.4,0-4.8,0-7.2.1-3.3,0-6.5,0-9.6,0-3.2,0-6.3-.1-9.3-.2.7-1.1,1.8-2.5,3.2-4,1.4-1.5,3.3-3.1,5.6-4.6,2.1-1.3,4.1-2.2,5.9-2.9,1.8-.6,3.4-1,4.6-1.2-.2-1.2-.3-2.4-.4-3.7-.1-1.3-.2-2.6-.3-4,0-.3,0-.6,0-1,0-.3,0-.7,0-1,0-.6,0-1.3,0-1.9,0-.6,0-1.2,0-1.8,0-1.3,0-2.6.1-3.8,0-1.2.2-2.4.3-3.5,4.8,1.6,9.7,2.9,14.7,3.7s10.1,1.2,15.2,1.2h.7Z"/>
        <path class="st1" d="M120.6,205.6c.3,0,.8-.5,1.3-1.3.5-.8.9-1.9,1.2-2.8.4-1.3.6-2.8.7-4,0-1.2-.2-2-.5-2.1-.3,0-.7.4-1.1,1-.4.6-.8,1.4-1,1.9-.7,1.6-1.1,3.4-1.1,4.8,0,1.4.1,2.4.5,2.5Z"/>
        <path class="st1" d="M111.8,204.3c.4,0,.7-.6,1.1-1.5.3-.9.6-2,.8-3,.2-1.4.2-2.9,0-4-.2-1.1-.5-1.9-.9-2-.3,0-.7.5-.9,1.2-.3.7-.5,1.5-.7,2-.4,1.7-.5,3.5-.3,4.9.2,1.4.5,2.4.9,2.4Z"/>
        <path class="st1" d="M103,203.3c.4,0,.6-.8.8-1.7.2-.9.2-2.1.2-3.1,0-1.4-.4-2.8-.8-3.9-.4-1.1-.8-1.8-1.2-1.8-.3,0-.5.6-.7,1.4-.2.7-.2,1.6-.3,2.1,0,1.8.2,3.5.6,4.9.4,1.3,1,2.2,1.4,2.2Z"/>
        <path class="st17" d="M168.7,162.5c.1,5.5.4,10.4.8,14.6.4,4.2.8,7.8,1.1,10.8.2.7.4,1.6.6,2.7.2,1.1.3,2.2.4,3.6,0,1.1,0,2.7-.2,4.7-.3,2-.9,4.3-2.1,6.7-.4.8-1,1.8-1.8,2.9-.8,1.1-1.9,2.3-3.3,3.5,0,0-.2.1-.4.2-.2.1-.5.3-.8.4-2.9,1.5-6.5,1.7-9.7,1.5-3.1-.2-5.8-.8-6.9-1-1-.2-2.1-.5-3.4-.9-1.3-.4-2.7-.9-4.3-1.6-.7-1.3-1.5-3.2-2.3-5.4-.8-2.2-1.5-4.8-1.8-7.7-.8-6.2-.2-13.1,1.5-18.5,1.6-5.4,4.2-9.4,7.3-9.9.5,0,1.1,0,1.9.2.8.2,1.7.7,2.7,1.5l20.7-8.1Z"/>
        <path class="st28" d="M175.6,188.2c-1.8.8-4.1,1.7-6.9,2.4-2.8.8-5.9,1.4-9.5,1.8-3.5.3-6.2.2-8.5,0-2.3-.3-4.3-.8-6.5-1.4-1.6-.4-3.2-.8-5.1-1-1.9-.3-4.1-.5-6.8-.5-1.1,0-2.1,0-3,0-.9,0-1.8.1-2.7.2-4.8.5-8.1,1.5-11.7,2.2-3.5.7-7.2,1.1-12.5.2-2.8-.5-5.3-1.2-7.5-1.9-2.1-.7-3.9-1.5-5.3-2.2.4-3.6.8-6.9,1-9.7.3-2.8.5-5.2.7-7,0-.1,0-.2,0-.4,0-.1,0-.2,0-.4.2-2.4.5-4.7.7-7.1.2-2.4.5-4.7.7-7.1.5-4.4.9-8.8,1.4-13.2.5-4.4.9-8.8,1.4-13.2.2-2.2.5-4.4.9-6.6.4-2.2.9-4.3,1.7-6.4,1-2.6,2.5-5,4.3-7.1,1.8-2.1,3.8-4,6-5.6,2.6-1.9,5.1-3.6,7.5-4.9,2.4-1.3,4.6-2.4,6.6-3.1h19.5c2.4,1.2,4.9,2.4,7.2,3.7,2.4,1.3,4.7,2.7,6.9,4.3,2.2,1.6,4.2,3.5,6,5.6,1.8,2.1,3.3,4.5,4.3,7.1.8,2.1,1.4,4.2,1.7,6.4.4,2.2.6,4.4.8,6.6.4,3.9.8,7.8,1.2,11.7s.8,7.8,1.2,11.7c.3,2.4.5,4.8.7,7.1.2,2.4.5,4.8.7,7.2,0,.6.1,1.2.2,1.8,0,.6.1,1.2.2,1.8.2,1.9.5,4.4.8,7.2.3,2.8.7,6.1,1.2,9.7Z"/>
        <path class="st37" d="M144.3,191c-1.6-.4-3.2-.8-5.1-1-1.9-.3-4.1-.5-6.8-.5-1.1,0-2.1,0-3,0-.9,0-1.8.1-2.7.2.4-.4.8-.8,1.2-1.2.4-.4.8-.9,1.2-1.3,0,0,.3-.4.7-1,.4-.6,1-1.4,1.5-2.2,1.3-2.1,1.9-6.6,2.4-10.4.4-3.9.7-7.2,1.1-7.3.3,0,.8,1.7,1.5,4.3.6,2.6,1.4,6.1,2,9.5.2,1.1.4,2.3.9,3.7.5,1.3,1.1,2.8,2.1,4.2.4.6.9,1.1,1.4,1.6.5.5,1.1.9,1.7,1.3Z"/>
        <path class="st37" d="M134.1,134c1.5,0,2.3-1.2,2.3-2.4,0-1.2-.8-2.4-2.3-2.4s-2.3,1.2-2.3,2.4c0,1.2.8,2.4,2.3,2.4h0Z"/>
        <path class="st37" d="M134.1,141c1.5,0,2.3-1.2,2.3-2.4,0-1.2-.8-2.4-2.3-2.4s-2.3,1.2-2.3,2.4c0,1.2.8,2.4,2.3,2.4h0Z"/>
        <path class="st37" d="M134.1,155.4c1.5,0,2.3-1.2,2.3-2.4,0-1.2-.8-2.4-2.3-2.4s-2.3,1.2-2.3,2.4c0,1.2.8,2.4,2.3,2.4h0Z"/>
        <path class="st1" d="M145.5,205.6c-.3,0-.8-.5-1.3-1.3-.5-.8-1-1.9-1.2-2.8-.4-1.3-.7-2.8-.7-4,0-1.2.2-2,.5-2.1.3,0,.7.4,1.1,1,.4.6.8,1.4,1,1.9.7,1.6,1.1,3.4,1.1,4.8,0,1.4-.1,2.4-.5,2.5Z"/>
        <path class="st1" d="M154.4,204.3c-.4,0-.7-.6-1.1-1.5-.3-.9-.6-2-.8-3-.2-1.4-.2-2.9,0-4,.2-1.1.5-1.9.9-2,.3,0,.7.5.9,1.2.3.7.5,1.5.7,2,.4,1.7.5,3.5.3,4.9-.2,1.4-.5,2.4-.9,2.4Z"/>
        <path class="st1" d="M163.1,203.3c-.4,0-.6-.8-.8-1.7-.2-.9-.2-2.1-.2-3.1,0-1.4.4-2.8.8-3.9.4-1.1.9-1.8,1.2-1.8.3,0,.5.6.7,1.4.2.7.2,1.6.3,2.1,0,1.8-.2,3.5-.6,4.9-.4,1.3-1,2.2-1.4,2.2Z"/>
        <path class="st20" d="M173.3,168.1c-13.3,3.2-27,5-40.6,5.5-13.7.5-27.4-.4-40.9-2.6-.3,0-.6-.2-.8-.5-.2-.2-.3-.5-.3-.9.2-2,.4-4,.6-6,.2-2,.4-4,.6-6,0-.4.2-.7.5-.9.3-.2.6-.3,1-.2,2.2.4,4.4.7,6.6,1,2.2.3,4.4.5,6.6.8,10.9,1,21.8,1.2,32.7.4,10.9-.8,21.7-2.4,32.3-5,.4,0,.7,0,1,.2.3.2.5.5.5.9.2,2,.4,4.1.6,6.1.2,2,.4,4.1.6,6.1,0,.3,0,.6-.2.8-.2.2-.4.4-.7.5Z"/>
        <path class="st17" d="M146.6,166.1c0,.8,0,1.5-.3,2.2-.2.7-.6,1.4-1,2-.4.6-.9,1.1-1.4,1.6-.5.5-1.1.9-1.7,1.3-1.2.8-2.4,1.4-3.8,1.8-1.3.4-2.7.7-4.1.8-1.4,0-2.8,0-4.2-.2-1.4-.2-2.8-.6-4.1-1.3-.7-.3-1.3-.7-1.9-1.2-.6-.5-1.2-1-1.7-1.6-.5-.6-.9-1.3-1.3-2.1-.3-.8-.5-1.6-.5-2.5,0-.9.1-1.7.4-2.5.3-.8.7-1.6,1.1-2.2.5-.7,1-1.2,1.6-1.7.6-.5,1.2-.9,1.8-1.3,1.3-.7,2.7-1.2,4-1.5,1.4-.3,2.8-.4,4.2-.4,1.4,0,2.8.2,4.1.6,1.3.3,2.7.8,3.9,1.5.6.3,1.2.7,1.7,1.2.5.5,1,1,1.5,1.5.4.6.8,1.2,1.1,1.9.3.7.4,1.4.5,2.2ZM144.9,166.2c0-.5-.1-1.1-.4-1.6-.2-.5-.5-1-.9-1.4-.4-.4-.8-.8-1.2-1.2-.5-.3-1-.6-1.5-.9-1.1-.5-2.2-.8-3.4-1-1.2-.2-2.4-.2-3.6-.1-1.2.1-2.3.4-3.4.7-1.1.4-2.1.9-3.1,1.5-.5.3-.9.6-1.3,1-.4.4-.7.8-1,1.2-.3.4-.5.8-.6,1.2-.1.4-.2.8-.2,1.3,0,.4.1.8.3,1.3.2.4.4.8.7,1.2.3.4.6.8,1,1.1.4.3.8.7,1.3.9,1,.6,2,1,3.1,1.3,1.1.3,2.3.5,3.5.5,1.2,0,2.4,0,3.6-.3,1.2-.3,2.3-.7,3.3-1.2.5-.3,1-.6,1.4-1,.4-.4.8-.8,1.2-1.3.3-.5.6-1,.8-1.5.2-.5.3-1.1.3-1.6Z"/>
        <path class="st4" d="M138.6,168.3c1.2,0,2.3-.1,3.5-.2,1.2,0,2.3-.1,3.5-.2,1.1,0,1.7-1,1.7-1.9,0-.9-.6-1.8-1.8-1.7-1.2,0-2.3.1-3.5.2-1.2,0-2.3.1-3.5.2-1.1,0-1.7,1-1.7,1.9,0,.9.6,1.8,1.8,1.7h0Z"/>
        <path class="st39" d="M129.5,168.9c1.5,0,2.3-1.2,2.3-2.4,0-1.2-.8-2.4-2.3-2.4s-2.3,1.2-2.3,2.4c0,1.2.8,2.4,2.3,2.4h0Z"/>
        <path class="st39" d="M114.9,168.9c1.5,0,2.3-1.2,2.3-2.4,0-1.2-.8-2.4-2.3-2.4s-2.3,1.2-2.3,2.4c0,1.2.8,2.4,2.3,2.4h0Z"/>
        <path class="st39" d="M100.2,167.3c1.5,0,2.3-1.2,2.3-2.4,0-1.2-.8-2.4-2.3-2.4s-2.3,1.2-2.3,2.4.8,2.4,2.3,2.4h0Z"/>
        <g>
          <path class="st29" d="M98.8,70.4c-.8-1.8-2.1-3.4-3.7-4.5-1.5-1.1-3.4-1.8-5.3-2-2.9-.2-5.6.9-7.6,2.6-2,1.7-3.3,3.9-3.4,5.8-.1,1.9.9,3,2.2,4.5,1.2,1.4,2.7,3.2,3.5,6.3.5,2.2.4,3.8.4,5,0,1.2,0,2.1.8,2.8.7.6,1.7.9,3.6.7,1.9-.2,4.5-1.1,8.3-2.9l1.2-18.4Z"/>
          <path class="st0" d="M97,75.9c-.8-1.2-2-2.1-3.1-2.6-1.2-.5-2.4-.6-3.4-.2-1.2.4-1.9,1.4-2.3,2.4s-.6,2.1-.6,2.6c0,.3-.2,1.7,0,3.1.2,1.4.8,2.9,2.4,3.6,1.1.5,2.4.4,3.7,0,1.3-.5,2.5-1.4,3.4-2.8v-6.2Z"/>
          <path class="st0" d="M95.2,70.9c-.4-.4-.8-.8-1.3-1.1-.5-.3-1-.6-1.5-.8-.3-.1-.5-.2-.8-.3-.3,0-.6-.1-.9-.2-.3,0-.6,0-.9,0-.3,0-.6,0-.9,0-.6,0-1.2.2-1.8.3-.6.2-1.1.5-1.6.8-.5.3-.9.8-1.3,1.3-.4.5-.7,1-.9,1.6.1-.6.4-1.2.7-1.7.3-.5.7-1,1.2-1.5.5-.4,1-.8,1.6-1.1.6-.3,1.2-.5,1.9-.6.3,0,.7-.1,1-.1.3,0,.7,0,1,0,.3,0,.7,0,1,0,.3,0,.7.1,1,.2.7.2,1.3.4,1.9.7s1.2.7,1.7,1.1l-.6.6-.6.6Z"/>
        </g>
        <g>
          <path class="st29" d="M168.2,70.4c.8-1.8,2.1-3.4,3.7-4.5,1.5-1.1,3.4-1.8,5.3-2,2.9-.2,5.6.9,7.6,2.6,2,1.7,3.3,3.9,3.4,5.8.1,1.9-.9,3-2.2,4.5-1.2,1.4-2.7,3.2-3.5,6.3-.5,2.2-.4,3.8-.4,5,0,1.2,0,2.1-.8,2.8-.7.6-1.7.9-3.6.7-1.9-.2-4.5-1.1-8.3-2.9l-1.2-18.4Z"/>
          <path class="st0" d="M170,75.9c.8-1.2,2-2.1,3.1-2.6,1.2-.5,2.4-.6,3.4-.2,1.2.4,1.9,1.4,2.3,2.4.4,1,.6,2.1.6,2.6,0,.3.2,1.7,0,3.1-.2,1.4-.8,2.9-2.4,3.6-1.1.5-2.4.4-3.7,0-1.3-.5-2.5-1.4-3.4-2.8v-6.2Z"/>
          <path class="st0" d="M171.8,70.9c.4-.4.8-.8,1.3-1.1.5-.3,1-.6,1.5-.8.3-.1.5-.2.8-.3.3,0,.6-.1.9-.2.3,0,.6,0,.9,0,.3,0,.6,0,.9,0,.6,0,1.2.2,1.8.3.6.2,1.1.5,1.6.8.5.3.9.8,1.3,1.3.4.5.7,1,.9,1.6-.1-.6-.4-1.2-.7-1.7-.3-.5-.7-1-1.2-1.5-.5-.4-1-.8-1.6-1.1-.6-.3-1.2-.5-1.9-.6-.3,0-.7-.1-1-.1-.3,0-.7,0-1,0-.3,0-.7,0-1,0-.3,0-.7.1-1,.2-.7.2-1.3.4-1.9.7-.6.3-1.2.7-1.7,1.1l.6.6.6.6Z"/>
        </g>
        <path class="st29" d="M172.6,85c-.9,9.5-5.4,18.9-12.3,25.9-6.9,6.9-16.3,11.4-26.9,11.1-10.2-.3-19.1-5-25.5-11.9-6.5-6.9-10.6-16-11.4-25.1-1-10.8,2.7-21.9,9.4-30.3,6.7-8.4,16.4-14.2,27.6-14.5,11.5-.3,21.8,5.3,29,13.8,7.2,8.5,11.3,19.8,10.2,31.1Z"/>
        <path class="st38" d="M176.2,124.9c-3.4,12.4-10.9,21.2-18.7,27.4-7.8,6.2-16,9.7-20.7,11.4-.5.2-.9.3-1.3.4-.4.1-.7.2-1.1.3-.2,0-.4.1-.5.2-.2,0-.3,0-.4.1,0,0,0,0,0,0,0,0,0,0,0,0,0,0,0,0-.1,0,0,0,0,0-.1,0,0,0-.2,0-.2,0,0,0-.1,0-.1,0h0s0,0,0,0c0,0,0,0-.2,0,0,0-.1,0-.2,0-.2,0-.4-.2-.6-.2-.2,0-.5-.2-.7-.3-.5-.2-1.1-.5-1.7-.8-.6-.3-1.3-.6-2-1-4.6-2.4-11.1-6.5-17.4-12.6-6.3-6.2-12.3-14.4-15.8-25.3-2.4-7.5-3.1-14.6-3-20.6.1-6,1.1-10.9,1.9-14.1-.6-4.1-1.1-10.2-.3-16.6.8-6.4,3-13.1,7.9-18.5,1.8-2,4-3.9,5.9-5.1,1.9-1.2,3.4-1.9,3.8-1.5.5.5-.8,2.1-2.5,4.9-1.7,2.8-4,6.9-5.4,12.3-.7,2.7-1.2,5.5-1.4,7.8-.3,2.4-.3,4.4-.4,5.8h0c0,.2,0,.4,0,.5,0,.1,0,.3,0,.4,0,0,0,0,0,0s0,0,0,0c0,.3,0,.5,0,.8s0,.5,0,.7c0,1,0,1.8.1,2.4,0,.6.1,1.1.1,1.4,0,.3,0,.7.1,1,0,.3.1.7.2,1,0,0,0,.1,0,.2,0,0,0,.1,0,.2,0,.4.1.7.2,1.1,0,.4.2.8.3,1.1.4,1.4,1,3.5,2,5.8,1,2.2,2.3,4.6,4,6.4,0,0,0,0,0,0,0,0,0,0,0,0,.2.2.3.3.5.5.2.2.4.3.5.5h0c.1,0,.2.2.3.3.1,0,.2.2.3.3,0,0,0,0,0,0,0,0,0,0,0,0,0,0,.1.1.2.2,0,0,.1.1.2.2.5.4,1.1.7,1.7,1,.6.3,1.2.5,1.9.6.7.2,1.6.3,2.4.3.9,0,1.8,0,2.7-.1.2,0,.4,0,.7-.1.2,0,.4,0,.6-.1.3,0,.6-.2.9-.3.3,0,.6-.2.9-.3,0,0,0,0,0,0,0,0,0,0,0,0,.3-.1.6-.3.9-.5.3-.2.6-.4.8-.6,0,0,0,0,0,0,0,0,0,0,0,0,.2-.2.4-.3.6-.5.2-.2.4-.4.5-.6.7-1,1-2,1.4-2.9.4-1,.9-1.9,1.9-2.7.7-.5,1.5-.8,2.3-1,.8-.2,1.5-.2,2.1-.1h0c.6,0,1.4,0,2.1.1s1.6.5,2.3,1c1.1.8,1.6,1.7,1.9,2.7.4,1,.7,2,1.4,2.9.2.3.5.6.8.8.3.3.6.5.9.7,0,0,0,0,0,0,0,0,0,0,0,0,.3.2.6.3.9.5.3.1.6.3.9.4,0,0,0,0,0,0,0,0,0,0,0,0,.1,0,.3,0,.4.1.1,0,.3,0,.4.1.2,0,.4.1.6.2.2,0,.4,0,.7.1,1,.2,2,.2,2.9.2,1,0,1.9-.2,2.7-.3.6-.1,1.1-.3,1.6-.5.5-.2,1-.5,1.5-.8.2-.1.4-.2.6-.4.2-.1.4-.3.5-.4,0,0,.1,0,.2-.1,0,0,.1,0,.2-.1,0,0,0,0,0,0,0,0,0,0,0,0,.3-.3.6-.5.9-.8.3-.3.6-.6.8-.9,0,0,0,0,0,0,0,0,0,0,0,0,1.6-1.9,2.8-4.1,3.6-6.2.9-2.1,1.4-4.1,1.8-5.4.1-.4.2-.8.3-1.2,0-.4.2-.8.2-1.2,0,0,0-.2,0-.5,0-.3.1-.8.2-1.4,0,0,0-.2,0-.3,0,0,0-.2,0-.3,0-.3,0-.6,0-1,0-.3,0-.7,0-1,0-.5,0-1,0-1.5,0-.5,0-1,0-1.5,0-.3,0-.6,0-.9,0-.3,0-.6,0-.9h0c0-.5,0-.8,0-1.2,0-.4,0-.7,0-1.1-.3-6.3-1.4-11.2-2.5-14.6-1.1-3.4-2.1-5.2-2.1-5.2-1.3-2.4-2.7-4.2-3.7-5.5-1-1.3-1.6-2.1-1.3-2.3.3-.4,1.9.4,3.8,1.7,1.9,1.3,4.1,3,5.7,4.5,1.8,1.7,4.5,4.9,6.6,10.4,2.1,5.5,3.5,13.4,2.6,24.6,1.1,2.7,2.8,7.5,3.7,13.6.9,6.1,1,13.5-1.2,21.5Z"/>
        <path class="st9" d="M126.4,74.6c0,1.9-.7,3.7-1.8,4.9-1.1,1.3-2.7,2-4.4,2s-3.3-.8-4.4-2c-1.1-1.3-1.8-3-1.8-4.9s.7-3.7,1.8-4.9c1.1-1.3,2.7-2,4.4-2s3.3.8,4.4,2c1.1,1.3,1.8,3,1.8,4.9Z"/>
        <path class="st39" d="M123.9,74.6c0,1.1-.4,2.1-1.1,2.9-.7.7-1.6,1.2-2.6,1.2s-1.9-.5-2.6-1.2c-.7-.7-1.1-1.8-1.1-2.9s.4-2.1,1.1-2.9c.7-.7,1.6-1.2,2.6-1.2s1.9.5,2.6,1.2c.7.7,1.1,1.8,1.1,2.9Z"/>
        <path class="st27" d="M119.9,71.3c0-.5-.2-1-.5-1.3s-.8-.5-1.3-.5-1,.2-1.3.5-.5.8-.5,1.3.2,1,.5,1.3.8.5,1.3.5,1-.2,1.3-.5.5-.8.5-1.3Z"/>
        <path class="st9" d="M154.4,74.6c0,1.9-.7,3.7-1.8,4.9-1.1,1.3-2.7,2-4.4,2s-3.3-.8-4.4-2c-1.1-1.3-1.8-3-1.8-4.9s.7-3.7,1.8-4.9c1.1-1.3,2.7-2,4.4-2s3.3.8,4.4,2c1.1,1.3,1.8,3,1.8,4.9Z"/>
        <path class="st39" d="M151.9,74.6c0,1.1-.4,2.1-1.1,2.9-.7.7-1.6,1.2-2.6,1.2s-1.9-.5-2.6-1.2c-.7-.7-1.1-1.8-1.1-2.9s.4-2.1,1.1-2.9c.7-.7,1.6-1.2,2.6-1.2s1.9.5,2.6,1.2c.7.7,1.1,1.8,1.1,2.9Z"/>
        <path class="st27" d="M147.9,71.3c0-.5-.2-1-.5-1.3s-.8-.5-1.3-.5-1,.2-1.3.5c-.3.3-.5.8-.5,1.3s.2,1,.5,1.3c.3.3.8.5,1.3.5s1-.2,1.3-.5.5-.8.5-1.3Z"/>
        <path class="st33" d="M121.9,91.1c0,1.7-.9,3.3-2.5,4.4-1.5,1.1-3.6,1.8-6,1.8s-4.5-.7-6-1.8c-1.5-1.1-2.5-2.7-2.5-4.4s.9-3.3,2.5-4.4c1.5-1.1,3.6-1.8,6-1.8s4.5.7,6,1.8c1.5,1.1,2.5,2.7,2.5,4.4Z"/>
        <path class="st33" d="M161,91.1c0,1.7-.9,3.3-2.5,4.4-1.5,1.1-3.6,1.8-6,1.8s-4.5-.7-6-1.8c-1.5-1.1-2.5-2.7-2.5-4.4s.9-3.3,2.5-4.4c1.5-1.1,3.6-1.8,6-1.8s4.5.7,6,1.8c1.5,1.1,2.5,2.7,2.5,4.4Z"/>
        <path class="st16" d="M165.6,110.7c-.9,7.7-2.5,15.4-5.2,22.6-2.7,7.2-6.5,13.8-11.9,19.5-.3.3-1.4,1.3-2.9,2.7-1.6,1.4-3.7,3.4-6.1,5.7-.5.5-.9.9-1.4,1.3-.4.4-.8.8-1.2,1.2-.5.2-.9.3-1.3.4-.4.1-.7.3-1.1.4-.2,0-.4.1-.5.2-.2,0-.3,0-.4.1,0,0,0,0,0,0,0,0,0,0,0,0,0,0,0,0-.1,0,0,0,0,0-.1,0,0,0-.2,0-.2,0,0,0-.1,0-.1,0h0s0,0,0,0c0,0,0,0-.2,0,0,0-.1,0-.2,0-.2,0-.4-.2-.6-.3-.2,0-.5-.2-.7-.3-.5-.2-1.1-.5-1.7-.8-.6-.3-1.3-.7-2-1-.2-.2-.4-.4-.7-.6-.2-.2-.5-.4-.7-.6-2.3-2.1-4.4-4.1-6.1-5.6-1.6-1.5-2.7-2.5-3-2.8-5.4-5.7-9.2-12.3-11.9-19.5-2.7-7.2-4.3-14.9-5.2-22.6-.5-4.2-.8-8.3-.8-12.5,0-4.2,0-8.4.5-12.5.1-1.3.3-2.7.4-4,.2-1.3.4-2.7.6-4,0,.2,0,.3,0,.5,0,.1,0,.3,0,.4,0,.3,0,.5,0,.8s0,.5,0,.7c0,0,0,0,0,0s0,0,0,0c0,.3,0,.5,0,.8s0,.5,0,.7c0,1,0,1.8.1,2.4,0,.6.1,1.1.1,1.4,0,.3,0,.7.1,1,0,.3.1.7.2,1,0,.3,0,.5,0,.8,0,.3,0,.5,0,.8-.5,7.9-.3,16,.8,24,1.1,8,3.1,15.8,6.2,23.1,1.4,3.4,3.2,6.6,5.3,9.6,2.1,3,4.4,5.8,7,8.4,1.2,1.2,2.5,2.4,3.7,3.6,1.3,1.2,2.6,2.3,3.9,3.4.2.2.5.4.7.6.3.2.5.4.8.6-1-1.4-2-2.7-3-4.1-1-1.4-1.9-2.8-2.8-4.2-3.6-5.7-6.6-11.8-9-18.1-2.4-6.3-4.2-12.9-5.4-19.6-.4-2.3-.7-4.6-1-7-.3-2.3-.5-4.7-.6-7,.2.2.3.3.5.5.2.2.4.3.5.5h0c.1,0,.2.2.3.3.1,0,.2.2.3.3,0,0,0,0,0,0,0,0,0,0,0,0,.3,5.9,1.1,11.9,2.5,17.6,1.3,5.8,3.2,11.5,5.4,16.9,1.2,2.9,2.6,5.8,4,8.6,1.5,2.8,3.1,5.5,4.8,8.2.8,1.3,1.7,2.6,2.6,3.8.9,1.2,1.8,2.5,2.8,3.6-.4-1.1-.9-2.2-1.3-3.3-.4-1.1-.8-2.2-1.2-3.3-2.1-6-3.7-12.2-4.9-18.5-1.2-6.3-2-12.7-2.3-19.1-.1-2.2-.2-4.4-.2-6.6,0-2.2,0-4.4.1-6.6,0,0,0,0,0,0,0,0,0,0,0,0,.3-.1.6-.3.9-.5.3-.2.6-.4.8-.6-.3,5.9-.3,11.9.2,17.8.4,5.9,1.3,11.8,2.5,17.6.6,3,1.4,6.1,2.2,9.1.8,3,1.8,6,2.8,8.9.3.7.5,1.4.8,2.1.3.7.5,1.4.8,2.1.3-.7.5-1.4.8-2.1.3-.7.5-1.4.8-2.1,1-2.9,2-5.9,2.8-8.9.8-3,1.6-6,2.2-9.1,1.2-5.8,2-11.6,2.5-17.5.5-5.9.5-11.8.2-17.6.3.2.6.3.9.5.3.1.6.3.9.4,0,0,0,0,0,0,0,0,0,0,0,0,0,2.2.1,4.4.1,6.5,0,2.2,0,4.3-.2,6.5-.4,6.4-1.1,12.8-2.3,19.1-1.2,6.3-2.9,12.5-4.9,18.5-.4,1.1-.8,2.2-1.2,3.3-.4,1.1-.8,2.2-1.3,3.3.9-1.2,1.9-2.4,2.8-3.6.9-1.2,1.8-2.5,2.6-3.8,1.7-2.6,3.3-5.4,4.8-8.2,1.5-2.8,2.8-5.7,4-8.6,2.3-5.5,4.1-11.3,5.5-17.1,1.3-5.9,2.2-11.9,2.5-17.9,0,0,0,0,0,0,0,0,0,0,0,0,.3-.3.6-.5.9-.8.3-.3.6-.6.8-.9-.1,2.5-.3,4.9-.6,7.3-.3,2.4-.6,4.9-1,7.3-1.1,6.7-3,13.3-5.4,19.6-2.4,6.3-5.5,12.4-9,18.1-.9,1.4-1.8,2.8-2.8,4.2-1,1.4-2,2.8-3,4.1.3-.2.5-.4.8-.6.3-.2.5-.4.7-.6,1.3-1.1,2.6-2.2,3.9-3.4,1.3-1.2,2.5-2.3,3.7-3.6,2.6-2.6,4.9-5.4,7-8.4,2.1-3,3.9-6.2,5.3-9.6,3.1-7.3,5.1-15.1,6.2-23.1,1.1-8,1.3-16.1.8-24,0-.7,0-1.3-.1-2,0-.7-.1-1.3-.2-2,0-.3,0-.6,0-1,0-.3,0-.7,0-1,0-.5,0-1,0-1.5,0-.5,0-1,0-1.5,0-.3,0-.6,0-.9,0-.3,0-.6,0-.9h0c0-.7,0-1.4,0-2,0-.6,0-1.3,0-1.9.3,1.8.6,3.7.9,5.5.3,1.8.5,3.7.6,5.6.4,4.2.5,8.4.5,12.5,0,4.2-.3,8.4-.9,12.5Z"/>
        <path class="st39" d="M131,118.3c.8.6,1.7,1.1,2.6,1.3.9.2,1.9,0,2.9-.3.7-.3,1.6-.9,2.2-1.6.6-.7,1-1.6.6-2.5,0-.2-.2-.4-.4-.5-.2-.1-.4-.2-.7,0-.5.2-.9.6-1.3,1-.4.4-.7.8-1.2,1.1-.6.4-1.3.6-1.9.6-.7,0-1.4-.1-2-.3-.4-.1-.8,0-1,.4-.2.4-.2.8.1,1.1h0Z"/>
        <path class="st38" d="M112.8,68.6c.5-.2.9-.5,1.4-.8.4-.3.8-.6,1.3-.9.6-.3,1.3-.6,1.9-.7s1.4-.2,2.1-.3c.7,0,1.3,0,1.9,0,.6.1,1.2.3,1.8.6.6.3,1.2.6,1.8.7.6.2,1.2.2,1.9,0,.4-.1.8-.4,1-.8.2-.4.3-.8.2-1.2-.5-1.7-2.1-2.5-3.9-2.8-1.8-.3-3.8,0-5.2.2-1.2.2-2.8.9-4.1,1.8-1.4.9-2.5,2.1-2.9,3.3,0,.2,0,.4.2.6.1.2.4.2.6.2h0Z"/>
        <path class="st38" d="M155.8,68.6c-.5-.2-.9-.5-1.4-.8-.4-.3-.8-.6-1.3-.9-.6-.3-1.3-.6-1.9-.7s-1.4-.2-2.1-.3c-.7,0-1.3,0-1.9,0-.6.1-1.2.3-1.8.6-.6.3-1.2.6-1.8.7-.6.2-1.2.2-1.9,0-.4-.1-.8-.4-1-.8-.2-.4-.3-.8-.2-1.2.5-1.7,2.1-2.5,3.9-2.8,1.8-.3,3.8,0,5.2.2,1.2.2,2.8.9,4.1,1.8,1.4.9,2.5,2.1,2.9,3.3,0,.2,0,.4-.2.6-.1.2-.4.2-.6.2h0Z"/>
        <g>
          <path class="st1" d="M111.3,52.1c-.1,0-.3,0-.4,0-.1,0-.3,0-.4,0,0,0,0,0,0,0,0,0,0,0,0,0,0,0,0-.2-.1-.2,0,0,0-.2-.1-.2,0,0,.2-.1.2-.2,0,0,.2-.1.2-.2,0,0,0,0,0-.1,0,0,0,0-.1,0,0,0-.2,0-.3.1,0,0-.2,0-.3.1,0,0,0,0,0,0,0,0,0,0,0,0,0,0,0-.2.1-.3,0,0,0-.2.1-.3,0-.1,0-.2-.1-.3-.1,0-.2,0-.3.1,0,0,0,0,0,.1,0,0,0,0,0,.1,0,0,0,0,0-.1,0,0,0,0,0-.1,0,0-.1-.1-.2-.1,0,0-.2,0-.2.2,0,0,0,.1,0,.2,0,0,0,.1,0,.2,0,0,0,0,0,0,0,0,0,0,0,0,0,0-.1,0-.2,0,0,0,0,.1,0,.2-.2.2-.4.4-.5.6-.2.2-.4.4-.5.6,0,.1,0,.2,0,.3,0,0,.2.1.3,0,.1-.1.3-.3.4-.4s.3-.2.5-.3c0,0,0,.2,0,.2,0,0,0,.2,0,.2,0,0,0,0,0,0,0,0,0,0,0,0,0,0,0,.1,0,.2,0,0,0,.1.2.2,0,0,0,0,0,.1,0,0,0,0,0,0,0,0,0,0,0,0,0,0,0,0,0,0,0,.1,0,.2.1.2,0,0,.2,0,.2-.1,0,0,0-.2.1-.3,0,0,0-.2.1-.3.1,0,.2-.1.3-.2,0,0,.2-.2.2-.3,0,0,.1,0,.2,0,0,0,.1,0,.2,0,0,0,.1,0,.2.1,0,0,.1,0,.2.1,0,0,.2,0,.3,0,0,0,.1,0,.2-.2,0,0,0,0,.1,0,0,0,0,0,.1,0,.1,0,.2,0,.3-.1,0,0,0-.2,0-.3,0,0,0,0,0,0,0,0,0,0,0,0,.1,0,.2-.1.2-.2,0,0,0-.2-.2-.2Z"/>
          <path class="st1" d="M162.4,54.9c0-.2-.2-.3-.3-.5-.1-.1-.2-.3-.4-.4,0-.1.1-.3.2-.4,0-.1.1-.3.2-.4,0-.1,0-.2,0-.3,0,0-.2,0-.3,0,0,.1-.2.2-.3.3,0,.1-.2.2-.3.3,0,0,0-.1,0-.2,0,0,0,0,0-.1,0,0-.1-.1-.2-.1,0,0-.2,0-.2,0,0,0,0,0-.1.1,0,0,0,0-.1.1,0,0,0,0,0,0,0,0,0,0,0,0-.2,0-.4,0-.5.1-.2,0-.3.2-.5.3,0,0,0,0,0,.1,0,0,0,.1,0,.2,0,0,0,0,0,.1,0,0,0,0,.1,0,.1,0,.2,0,.3,0,.1,0,.2,0,.3,0-.1.2-.3.5-.4.7-.1.2-.3.5-.4.7,0,.1,0,.3,0,.3,0,0,.2,0,.3,0,.1-.2.3-.3.4-.5.1-.2.3-.3.4-.5,0,0,0,0,0,0,0,0,0,0,0,0-.1.2-.2.4-.3.7-.1.2-.2.4-.3.7,0,.1,0,.2,0,.3,0,0,.2,0,.3,0,0-.2.2-.4.3-.5,0-.2.2-.4.3-.5,0,.1.2.2.2.3,0,.1.2.2.3.3,0,0,.2.1.3,0,.1,0,.2-.1.2-.2,0-.2,0-.4,0-.5,0-.2,0-.4,0-.5,0,0,.2,0,.2-.1,0,0,.2,0,.2-.2,0,0,0,0,0-.1,0,0,0-.1,0-.2ZM161.2,55.7s0,0,0,0c0,0,0,0,0,0,0,0,0,0,0,0,0,0,0,0,0,0,0,0,0,0,0,0,0,0,0,0,0,0,0,0,0,0,0,0,0,0,0,0,0,0Z"/>
          <path class="st1" d="M152.1,38.7c.2.3.5.6.7.8,0,0,0,0,.1,0,0,0,0,0,0-.1,0-.2,0-.3,0-.5,0-.1-.1-.3-.2-.4M151.3,38.8c.1.2.3.4.5.6,0,0,0,0,0,0s0,0,0,0c-.1-.2-.2-.5-.3-.7M150.2,38.5c0,.2,0,.3.2.3.1,0,.3,0,.4-.2"/>
          <path class="st1" d="M134.7,49.9c0,0-.1,0-.2-.1,0,0-.1,0-.2-.1-.1-.1-.2-.3-.3-.4-.1-.1-.2-.3-.3-.4,0,0,.2-.1.3-.2,0,0,.2-.1.3-.2.1,0,.2-.2,0-.4,0-.1-.2-.2-.4-.1,0,0,0,0,0,0s0,0,0,0c.1-.2.3-.5.4-.7.1-.2.3-.5.4-.7,0-.1,0-.2,0-.3,0,0-.2,0-.3,0-.2.2-.5.5-.7.7-.2.2-.5.5-.7.7,0,0,0,0,0,0s0,0,0,0c0,0,0-.1,0-.2,0,0,0-.1,0-.2,0-.2-.2-.2-.3-.2-.1,0-.2.1-.2.3,0,0,0,.1,0,.2,0,0,0,.1,0,.2,0,0,0,0,0,0s0,0,0,0c0,0,0,0,0,0,0,0,0,0,0,0,0,0,0,.2,0,.2,0,0,0,.1,0,.2,0,0-.1,0-.2-.1,0,0-.1,0-.2-.1-.1,0-.3,0-.3,0,0,.1,0,.3,0,.3,0,0,.2.1.2.2,0,0,.2.1.2.2,0,0-.2.2-.3.3,0,0-.2.2-.3.3,0,0-.2.1-.3.2,0,0-.2.2-.3.2,0,0,0,0,0,0,0,0,0,0,0,0,0,0,0,.2,0,.3,0,0,.2.1.3,0,0,0,0,0,0,0,0,0,0,0,0,0,0,0,0,0,0,0,0,0,0,0,0,0,.1,0,.2-.1.4-.2.1,0,.2-.1.4-.2,0,0,.1,0,.2,0,0,0,.1,0,.2,0-.2.3-.3.6-.5.9-.1.3-.3.6-.4.9,0,0,0,.2,0,.2,0,0,.1,0,.2,0,.2-.3.4-.5.5-.8.2-.3.3-.5.5-.8,0,0,0,0,0,0,0,0,0,0,0,0,0,.2.2.2.3.2.1,0,.2-.1.2-.3,0,0,0,0,0,0,0,0,0,0,0,0,0,0,.1,0,.2,0,0,0,.1,0,.2,0,.1,0,.3.2.4.3.1,0,.3.2.4.3,0,0,.2,0,.3,0,0,0,.1-.2.1-.2,0,0,0-.1,0-.2,0,0,0-.1-.1-.2ZM133.4,48.2s0,0,0,0c0,0,0,0,0,0,0,0,0,0,0,0,0,0,0,0,0,0,0,0,0,0,0,0,0,0,0,0,0,0Z"/>
          <path class="st1" d="M123.1,41.6s0,0,0,0c0,0,0,0,0,0"/>
          <path class="st1" d="M121.8,41.8c.2.2.4.4.7.6.1,0,.2,0,.3,0,0,0,.1-.2.1-.3,0-.2-.1-.3-.2-.4"/>
          <path class="st1" d="M120,41.7c0,.1.2.2.4,0,0,0,0,0,.1,0,0,0,0,0,.1,0,0,0,0,0,0,.1,0,0,0,0,0,.1,0,.1,0,.3.2.3.1,0,.3,0,.3-.1,0-.2.1-.3.2-.5"/>
          <path class="st1" d="M105,58.8c-.3,0-.6,0-.9,0-.3,0-.6,0-.9.1,0,0,0-.2,0-.2,0,0,0-.1,0-.2,0,0,0,0,0,0,0,0,0,0,0,0,0-.1,0-.3,0-.4,0,0-.2-.1-.4,0,0,0,0,0,0,0,0,0,0,0,0,0-.2,0-.3-.1-.5-.1-.2,0-.3,0-.4.1,0,0,0,0,0,0,0,0,0,0,0,0-.1,0-.2,0-.3,0,0,0-.1.1,0,.3,0,0,0,0,0,.1,0,0,0,0,0,.1-.2.2-.3.4-.4.6-.1.2-.2.4-.2.6,0,.1,0,.2,0,.3,0,0,.2.1.3,0,0,0,0,0,0,0,0,0,0,0,0,0,0,0,0,0,0,0,0,0,0,0,0,0,0,.1,0,.3,0,.3.1,0,.3.1.4,0,0,0,0,0,0-.1,0,0,0,0,0-.1,0,0,0,0,0,0,0,0,0,0,0,0,0,0,.1.1.2.1,0,0,.2,0,.2-.1,0,0,0,0,0-.1,0,0,0,0,0-.1,0,0,.1,0,.2.1,0,0,.2,0,.2,0,0,0,.1,0,.1,0,0,0,0-.1,0-.2,0,0,0,0-.1-.1,0,0,0,0-.1-.1,0,0,0,0,0,0,0,0,0,0,0,0,0,.1.2.3.2.4,0,.1.1.3.2.5,0,.2.2.2.3.2.1,0,.2-.1.3-.3,0-.2,0-.4,0-.6,0-.2-.1-.4-.2-.5.3,0,.5-.1.8-.2.3,0,.5-.2.8-.3,0,0,0,0,0-.1,0,0,0,0-.1,0ZM102,58.9s0,0,0,0c0,0,0,0,0,0,0,0,0,0,0,0,0,0,0,0,0-.1,0,0,0,0,0,0,0,0,0,0,0,0,0,0,0,0,0,0,0,0,0,0,0,0ZM101.6,59.2s0,0,0,0c0,0,0,0,0,0,0,0,0,0,0,0,0,0,0,0,0,0,0,0,0,0,0,0,0,0,0,0,0,0Z"/>
          <path class="st1" d="M121.9,52.1s0,0,0,0c0,0,0,0,0,0t0,0h0c.1,0,.1-.2,0-.3,0,0-.1-.2-.2-.2,0,0,0,0,0,0,0,0,0,0,0,0,0,0,0,0,0,0,0,0,0,0,0,0,0,0,0,0,0,0s0,0,0,0c0,0-.2,0-.2,0,0,0-.2,0-.2,0,0,0-.1-.2-.2-.3,0,0-.1-.2-.2-.3v-.4c0-.1,0-.3,0-.4,0,0,0-.2-.2-.2,0,0-.2,0-.2,0,0,0,0,0,0,.1,0,0,0,0,0,.1,0,0-.2,0-.3,0,0,0-.1.2-.1.3,0,.2,0,.4.1.6,0,.2,0,.4.1.6,0,0,0,0-.1,0,0,0,0,0-.1,0,0,0,0,0-.1,0,0,0,0,0,0,0-.1,0-.2.1-.2.3,0,.1,0,.2.2.3,0,0,.2,0,.3,0,0,0,.2,0,.3,0,0,0,0,0,0,0,0,0,0,0,0,0,0,0-.2.2-.3.2,0,0-.2.2-.3.2-.2.1-.1.3,0,.4.1.1.3.2.5,0,0,0,0,0,.1-.1,0,0,0,0,.1-.1,0,0,0,.2,0,.3,0,0,0,.2,0,.3,0,.1.2.2.3.2.1,0,.2-.1.2-.3,0-.2,0-.3,0-.5,0-.2,0-.3,0-.5,0,0,0,0,.1,0,0,0,0,0,.1,0,0,0,.1,0,.2,0,0,0,.1,0,.2,0,0,0,.1,0,.2,0,0,0,0,0,.1-.1,0,0,.1,0,.2,0,0,0,.1,0,.2,0,.2,0,.3-.1.3-.3,0-.1,0-.3-.3-.3Z"/>
          <path class="st1" d="M135.6,38.5c0,0,0,.2,0,.3,0,0,.1.1.2.1,0,0,0,.2,0,.3s0,.2,0,.3c0,.1.1.2.2.3.1,0,.2,0,.3-.2,0,0,0-.1,0-.2,0,0,0-.2,0-.2,0,0,0,0,.1.1,0,0,0,0,.1.1.1,0,.2.1.3,0,.1,0,.2-.1.2-.2,0,0,0,0,0-.1,0,0,0,0,0-.1,0,0,0,0,.1,0,0,0,0,0,.1,0,.1.1.3,0,.5,0,.1-.1.2-.3,0-.5,0,0,0,0,0,0,0,0,0,0,0,0t0,0s0,0,0,0c0,0,0,0,0,0,0,0,0,0,0,0"/>
          <path class="st1" d="M148,49.7c0,0,0-.1.1-.2,0,0,0-.1.1-.2,0-.1,0-.3,0-.3-.1,0-.3,0-.4,0,0,0,0-.1-.2-.1,0,0-.1,0-.2,0,0,0-.1.1-.2.2,0,0-.1.1-.2.2,0,0,0,0,0,0,0,0,0,0,0,0,0,0,0,0,0,0,0,0,0,0,0,0,0-.1-.1-.2-.2-.3,0-.1-.2-.2-.3-.3-.5-.4-1-.4-1.5-.1-.4.2-.8.7-.8,1.3,0,0,0,.1,0,.2,0,0,.1,0,.2,0,.2,0,.4,0,.6,0,.2,0,.4,0,.6,0,.1,0,.3,0,.4,0,.1,0,.3,0,.4,0,0,.1,0,.2,0,.3,0,0,0,.2-.1.3-.1.1-.2.2-.3.3-.1.1-.2.2-.3.3-.1.1-.1.3,0,.4,0,.1.2.2.4,0,0,0,.1,0,.2-.1,0,0,.1,0,.2-.1,0,.2-.2.3-.2.5,0,.2-.2.3-.2.5,0,.1,0,.3,0,.3s.2,0,.3,0c.1-.2.2-.4.3-.5.1-.2.2-.4.3-.5.2.3.4.5.6.6.3.2.6.3.9.3,0,0,.1,0,.2-.1,0,0,0-.1,0-.2-.2-.3-.4-.6-.5-.8-.2-.3-.4-.6-.5-.8.2.1.3.2.5.3.2.1.3.2.5.3,0,0,.1,0,.2,0,0,0,0-.1,0-.2,0-.2-.2-.4-.4-.6-.2-.2-.3-.3-.5-.4ZM146.1,49.1c-.2,0-.3,0-.5,0-.2,0-.3,0-.5,0,0,0-.2,0-.2.1,0,0,0,.1,0,.2,0,0,0,0,0,0,0,0,0,0,0,0,0-.3.3-.5.6-.5.3,0,.5,0,.8.2ZM147.2,50.9s0,0,0-.1c0,0,0,0,0-.1.1.2.2.4.4.5.1.2.2.4.4.5-.2,0-.4-.2-.5-.3-.1-.1-.3-.3-.3-.5Z"/>
        </g>
        <path class="st16" d="M135.5,102.2c0,2.4-.7,4.7-1.7,6.8-1,2.1-2.3,3.9-3.6,5.2-4,4.1-9.9,5.8-15.7,5.6-5.8-.2-11.7-2.3-15.6-5.8-.6-.5-2.2-1.9-3.6-3.9-1.3-2-2.4-4.5-2-7.3.3-1.7,1.1-3.5,2.2-5,1.1-1.5,2.6-2.5,4.3-2.6,1,0,1.9.3,2.7.7.8.5,1.5,1.1,1.9,1.6.2.2.3.4.4.6,0,.2,0,.3,0,.4,0,0,0,0,0,0,0,0,0,0,0,0-.1.3-.9.1-1.7,0-.8,0-1.8-.1-2.3.5-.4.4-.5,1.1-.5,1.8,0,.7.3,1.3.7,1.6.9.6,2.3-.2,4.5-1.7,2.2-1.5,5.3-3.8,9.4-5.9,2.8-1.5,5.4-2.8,7.9-3.6,2.5-.8,4.7-.9,6.8,0,1.6.7,2.8,2,3.6,3.2.8,1.2,1.3,2.5,1.5,3.3,0,.1,0,.3.1.4,0,.1,0,.2,0,.3,0,0,0,0,0,0,0,0,0,0,0,0,.1.4.2.8.3,1.2,0,.4.1.8.2,1.2,0,.2,0,.4,0,.7,0,.2,0,.4,0,.7Z"/>
        <path class="st38" d="M136,101.4c0-.1-.2-.2-.3-.3,0,0-.2-.2-.3-.2-.3-.2-.6-.3-1-.4-.3,0-.7,0-1,0-1.1-.8-2.4-1.1-3.8-1.1-1.4,0-2.8.2-4,.6-1.6.5-2.9,1.5-4.2,2.5-1.3,1.1-2.5,2.2-3.9,3.1-2.2,1.4-4.9,2.6-7.7,3.2-2.8.6-5.7.6-8.3-.4-1.1-.4-2.2-1-3.1-1.8-.9-.8-1.5-1.9-1.7-3.2-.1-.7,0-1.3,0-1.9.1-.6.3-1.1.6-1.5,0,.2,0,.4,0,.7,0,.2,0,.5,0,.8.3,2.2,1.6,3.9,3.3,4.9,1.8,1,3.9,1.3,5.9.8,2.6-.6,4.8-2.1,6.8-3.8,2.1-1.7,4-3.5,6.2-4.9,2.5-1.5,5-1.4,7.5-1,2.5.5,5,1.3,7.6,1.2,0,0,0,0,.1,0,0,0,0,0,.1,0,0,0,0-.1.1-.2,0,0,0-.2-.1-.2,0,0,0,0,0,0,0,0,0,0-.1,0-2-1.8-4.9-2.7-7.8-2.9s-6,.5-8.2,1.9c-1.6,1-3.1,2.4-4.5,3.7-1.4,1.3-2.8,2.6-4.5,3.7-1,.7-2.1,1.2-3.3,1.6-1.2.3-2.5.4-3.7.2-.8-.2-1.6-.6-2.4-1.2-.7-.6-1.4-1.3-1.7-2.1-1-2.6-.5-3.9.6-4.4,1.1-.6,2.8-.4,4.1,0,0,0,0,0,0,0,0,0,0,0,0,0,0,0,0,0,.1,0,0,0,0,0,.1,0,.2,0,.3,0,.5.1.1,0,.3,0,.4.1,0,0,0,0,0,0,0,0,0,0,0,0,0-.1,0-.3,0-.4,0-.2-.2-.4-.4-.6-1.2-.7-2.6-.9-3.9-.8-1.3.2-2.5.8-3.4,1.8-.5.6-1,1.2-1.3,2-.3.7-.6,1.6-.6,2.4-.2,2.7.8,5,2.4,6.8,1.6,1.9,3.9,3.3,6.2,4.2,2.5,1,5.2,1.4,8,1.3,2.7-.1,5.4-.7,7.9-1.8,1.4-.6,2.6-1.3,3.8-2.2,1.2-.9,2.2-1.9,3.2-3,.6-.7,1.2-1.5,1.9-2.2.6-.7,1.3-1.4,2-2,.8-.7,1.7-1,2.5-1.2.8-.2,1.7-.4,2.6-.7,0,0,.1,0,.2,0,0,0,.1,0,.2,0,.1,0,.2-.2.3-.3,0-.1,0-.3,0-.4ZM128.2,103.3c-1.8,1.8-3.2,3.6-4.8,5.3-1.6,1.6-3.4,3-6,3.9-2.1.8-4.4,1.2-6.7,1.2-2.3,0-4.5-.4-6.7-1.2-1.4-.5-2.8-1.3-4.1-2.2-1.2-.9-2.3-2.1-3-3.5,0,0,0-.1,0-.2,0,0,0-.1,0-.2.5.7,1,1.3,1.7,1.8.6.5,1.4,1,2.2,1.3,2.7,1.2,5.8,1.3,8.8.8,3-.5,6-1.6,8.5-3,1.2-.7,2.2-1.5,3.2-2.4,1-.9,2.1-1.7,3.2-2.4,1-.6,1.9-.8,2.9-.9,1,0,1.9,0,2.9,0-.4.3-.7.5-1.1.8-.3.3-.6.5-.9.8Z"/>
        <path class="st16" d="M134.2,102.2c0,2.4.7,4.7,1.7,6.8,1,2.1,2.3,3.9,3.7,5.2,4,4.1,9.9,5.8,15.7,5.6,5.8-.2,11.7-2.3,15.6-5.8.6-.5,2.2-1.9,3.6-3.9,1.3-2,2.4-4.5,2-7.3-.3-1.7-1.1-3.5-2.2-5-1.1-1.5-2.6-2.5-4.3-2.6-1,0-1.9.3-2.7.7-.8.5-1.5,1.1-1.9,1.6-.2.2-.3.4-.4.6,0,.2,0,.3,0,.4,0,0,0,0,0,0,0,0,0,0,0,0,.1.3.9.1,1.7,0,.8,0,1.8-.1,2.3.5.4.4.5,1.1.5,1.8,0,.7-.3,1.3-.7,1.6-.9.6-2.3-.2-4.5-1.7-2.2-1.5-5.3-3.8-9.4-5.9-2.8-1.5-5.4-2.8-7.9-3.6-2.4-.8-4.7-.9-6.8,0-1.6.7-2.8,2-3.6,3.2-.8,1.2-1.3,2.5-1.5,3.3,0,.1,0,.3-.1.4,0,.1,0,.2,0,.3,0,0,0,0,0,0,0,0,0,0,0,0-.1.4-.2.8-.3,1.2,0,.4-.1.8-.2,1.2,0,.2,0,.4,0,.7,0,.2,0,.4,0,.7Z"/>
        <path class="st38" d="M133.8,102.1c0,0,.1,0,.2,0,0,0,.1,0,.2,0,.9.3,1.8.4,2.6.7.8.2,1.7.6,2.5,1.2.8.6,1.4,1.3,2,2,.6.7,1.2,1.5,1.9,2.2,1,1.1,2,2.1,3.2,3,1.2.9,2.4,1.6,3.8,2.2,2.5,1.1,5.1,1.7,7.9,1.8,2.7.1,5.4-.3,8-1.3,2.3-.9,4.5-2.3,6.2-4.2,1.6-1.9,2.6-4.2,2.4-6.8,0-.9-.3-1.7-.6-2.4-.3-.7-.8-1.4-1.3-2-.9-1.1-2.1-1.7-3.4-1.8-1.3-.2-2.7,0-3.9.8-.2.2-.3.4-.4.6,0,.2,0,.3,0,.4,0,0,0,0,0,0,0,0,0,0,0,0,.1,0,.3,0,.4-.1.1,0,.3,0,.5-.1,0,0,0,0,.1,0,0,0,0,0,.1,0,0,0,0,0,0,0,0,0,0,0,0,0,1.4-.3,3-.5,4.1,0,1.1.6,1.6,1.9.6,4.4-.3.8-.9,1.5-1.7,2.1-.7.6-1.6,1-2.4,1.2-1.2.3-2.5.2-3.7-.2-1.2-.3-2.4-.9-3.4-1.6-1.6-1.1-3-2.4-4.5-3.7-1.4-1.3-2.8-2.6-4.5-3.7-2.2-1.4-5.2-2.1-8.2-1.9s-5.8,1.1-7.8,2.9c0,0,0,0,0,0,0,0,0,0,0,0,0,0-.1.2-.1.2,0,0,0,.2.1.2,0,0,0,0,.1,0,0,0,0,0,.1,0,2.6,0,5.1-.8,7.6-1.2,2.5-.5,5-.6,7.5,1,2.2,1.3,4.1,3.2,6.2,4.9,2.1,1.7,4.2,3.2,6.8,3.8,2,.5,4.2.2,5.9-.8,1.8-1,3.1-2.6,3.3-4.9,0-.3,0-.5,0-.8,0-.2,0-.5,0-.7.3.4.5.9.6,1.5.1.6.1,1.2,0,1.9-.2,1.3-.8,2.3-1.7,3.2-.9.8-1.9,1.4-3.1,1.8-2.6,1-5.5,1-8.3.4-2.8-.6-5.5-1.8-7.7-3.2-1.4-.9-2.6-2-3.9-3.1-1.3-1.1-2.6-2-4.2-2.5-1.2-.4-2.6-.6-4-.6-1.4,0-2.8.4-3.8,1.1-.4,0-.7,0-1,0-.3,0-.7.2-1,.4-.1,0-.2.2-.3.2,0,0-.2.2-.3.3-.1.1-.1.3,0,.4,0,.1.1.2.3.3ZM139.5,101.7c1,0,1.9-.1,2.9,0,1,0,1.9.4,2.9.9,1.1.7,2.2,1.5,3.2,2.4,1,.9,2.1,1.7,3.2,2.4,2.5,1.4,5.4,2.6,8.5,3,3,.5,6.1.3,8.8-.8.8-.3,1.5-.8,2.2-1.3.6-.5,1.2-1.1,1.7-1.8,0,0,0,.1,0,.2,0,0,0,.1,0,.2-.7,1.4-1.8,2.5-3,3.5-1.2.9-2.7,1.7-4.1,2.2-2.1.8-4.4,1.2-6.7,1.2-2.3,0-4.5-.4-6.7-1.2-2.5-.9-4.3-2.3-6-3.9-1.6-1.6-3.1-3.4-4.8-5.3-.3-.3-.6-.5-.9-.8-.3-.3-.7-.5-1.1-.8Z"/>
        <path class="st0" d="M140.8,87.9c-.6-1.7-1.4-3.6-2.1-5.9-.8-2.2-1.6-4.7-2.4-7.5-.2-.8-1-1.2-1.7-1.2s-1.5.4-1.7,1.2c-.8,2.7-1.6,5.2-2.4,7.5-.8,2.2-1.5,4.2-2.1,5.9-1.4,3.8-2.6,6.7-3.3,9.2-.6,2.5-.7,4.5.3,6.6.2.3.3.6.5.9.2.3.4.6.6.8,2,2.5,5.1,3.8,8.1,3.8s6.1-1.3,8.1-3.8c.2-.3.4-.5.6-.8.2-.3.4-.6.5-.9,1-2,.9-4.1.3-6.6s-1.9-5.4-3.3-9.2Z"/>
        <g>
          <path class="st22" d="M179.7,173.5h0s-30.5-4.9-30.5-4.9h0c7,0,13.3-5.6,14.5-13.3l.7-4.6,6.4,1-.7,4.6c-1.2,7.7,3,14.9,9.6,17.2Z"/>
          <rect class="st15" x="164.4" y="155.6" width="0" height="30.9" transform="translate(-30.7 305.9) rotate(-80.8)"/>
          <path class="st24" d="M179.7,173.5h0s-5.6-.9-5.6-.9h0c-4.1-1.9-7-8.9-5.8-16.5l.7-4.6,1.8.3-.7,4.6c-1.2,7.7,3,14.9,9.6,17.2Z"/>
          <path class="st22" d="M181.3,175.7l-.2,1.3-34.3-5.6.2-1.3c.2-1,1.3-1.7,2.6-1.5l29.7,4.8c1.3.2,2.1,1.2,2,2.2Z"/>
          <g>
            <path class="st3" d="M165.6,150.9l-.7,4.6c-1.2,7.7-5.6,13.5-10,14h0s-2.6-.4-2.6-.4h0c5.6-.3,10.8-6,12.1-13.7l.7-4.6h.5Z"/>
            <path class="st3" d="M155.1,169.5c-.8-.1-1.6.6-1.7,1.6l-.2,1.3-2.9-.5.2-1.3c.2-1,1.1-1.7,2.1-1.6l2.5.4Z"/>
          </g>
          <path class="st24" d="M170.8,151.7l-.6,3.8c-5.2.3-6.1-2.7-6.1-2.7l.3-2.1,6.4,1Z"/>
          <path class="st24" d="M181.3,175.7l-.2,1.3-5.5-.9.2-1.3c.2-1-.4-2-1.3-2.1l4.7.8c1.3.2,2.1,1.2,2,2.2Z"/>
          <path class="st7" d="M181,177l-34.3-5.6-4.6,3h0s42.3,6.9,42.3,6.9h0c-1.3-1.7-2.1-2.6-3.4-4.3Z"/>
          <path class="st2" d="M150.1,177.7h24.2c7,0,12.8,5.7,12.8,12.8v2.9h-49.7v-2.9c0-7,5.7-12.8,12.8-12.8Z" transform="translate(31.8 -23.6) rotate(9.2)"/>
          <rect class="st22" x="157.8" y="164.1" width="8.8" height="42.9" transform="translate(371.3 55.2) rotate(99.2)"/>
          <rect class="st7" x="133.5" y="193.3" width="54.2" height="3.3" rx="1.4" ry="1.4" transform="translate(33.3 -23.2) rotate(9.2)"/>
          <path class="st24" d="M179.7,173.5l-30.5-5c1.2,0,2.5-.2,3.6-.5,0,0,9.2,1.9,12.1,2.3s11.5,1.5,11.5,1.5c1,.7,2.1,1.3,3.3,1.7Z"/>
          <path class="st12" d="M187.7,183.3l-2.3,14-11.5-1.9.5-3.4,8.1,1.3,1.4-8.7-8.1-1.3.5-3.4,10,1.6c.8.1,1.3.9,1.2,1.7Z"/>
          <rect class="st24" x="174.9" y="184.2" width="8.8" height="8.2" transform="translate(-35.3 335.1) rotate(-80.8)"/>
          <path class="st21" d="M184.5,181.2h0s-8-1.3-8-1.3l-.9-3.9,5.4.9c1.3,1.7,2.1,2.6,3.4,4.3Z"/>
          <path class="st21" d="M187.6,198.3l-.3,1.9c0,.4-.4.7-.8.6l-13-2.1c.4,0,.7-.2.8-.6l.3-1.9c0-.4-.2-.7-.6-.8l13,2.1c.4,0,.7.4.6.8Z"/>
          <path class="st34" d="M147.7,194.5l-3.6-.6c-.4,0-.6-.4-.6-.8l.3-1.9c0-.4.4-.6.8-.6l3.6.6c-.4,0-.7.2-.8.6l-.3,1.9c0,.4.2.7.6.8Z"/>
          <path class="st22" d="M198.9,106.8c-.2,1.5-.5,3-.8,4.4-.3,1.2-.5,2.5-.8,3.7-2.2,8.9-5.4,16.8-9.2,23.1-.9,1.5-1.9,2.9-2.9,4.3-5.5,7.3-11.8,11.2-17.9,10.2s-10.8-6.7-13.7-15.4c-.5-1.6-1-3.2-1.4-5-1.6-7.1-2.2-15.7-1.4-24.8,0-1.2.2-2.5.4-3.7.2-1.5.4-3,.6-4.5l47,7.6Z"/>
          <path class="st3" d="M167,152.4c-4.9-1-8.5-6.6-10.7-14.9-.4-1.5-.7-3.2-1-4.9-1.2-7.1-1.4-15.5-.5-24.7.1-1.2.2-2.5.4-3.7.2-1.5.4-3,.6-4.5l3.8.6c-.2,1.5-.5,3-.7,4.5-.2,1.3-.3,2.5-.4,3.7-1,9.1-1.1,17.6-.3,24.5.2,1.7.4,3.3.7,4.8,1.5,8.1,4.3,13.5,8.1,14.4Z"/>
          <path class="st24" d="M198.9,106.8c0,.4-.1.8-.2,1.2l-47-7.6c0-.4.1-.8.2-1.2l47,7.6Z"/>
          <path class="st24" d="M198.9,106.8c-.2,1.5-.5,3-.8,4.4-.3,1.2-.5,2.5-.8,3.7-2.2,8.9-5.4,16.8-9.2,23.1-.9,1.5-1.9,2.9-2.9,4.3-5.5,7.3-11.8,11.2-17.9,10.2,3.6.6,7.7-3.7,11.5-11.3.7-1.4,1.4-2.8,2-4.4,2.7-6.4,5.1-14.5,7-23.5.3-1.2.5-2.4.7-3.7.3-1.5.5-2.9.8-4.4l9.5,1.5Z"/>
          <rect class="st22" x="150" y="98.1" width="51.7" height="4.9" rx="2" ry="2" transform="translate(18.4 -26.9) rotate(9.2)"/>
          <path class="st3" d="M158.9,100.3l-3.2-.5c-.8-.1-1.4-.9-1.2-1.7l.3-1.9c.1-.8.9-1.4,1.7-1.2l3.2.5c-.8-.1-1.6.4-1.7,1.2l-.3,1.9c-.1.8.4,1.6,1.2,1.7Z"/>
          <path class="st24" d="M201.5,103.8l-.3,1.9c-.1.8-.9,1.4-1.7,1.2l-10.2-1.7c.8.1,1.6-.4,1.7-1.2l.3-1.9c.1-.8-.4-1.6-1.2-1.7l10.2,1.7c.8.1,1.4.9,1.2,1.7Z"/>
          <path class="st24" d="M204.9,112.3l-6.7-1.1c-.3,1.2-.5,2.5-.8,3.7l4.5.7c.4,0,.7.5.6.9l-1.2,7.2c-1.2,7.2-6.5,12.7-13.2,14.3-.9,1.5-1.9,2.9-2.9,4.3,9.8-.7,18.1-7.9,19.8-18l1.6-9.6c.2-1.1-.6-2.2-1.7-2.4Z"/>
          <path class="st22" d="M152.3,132.2c-5.8-3.7-9.1-10.6-8-17.8l1.2-7.2c0-.4.5-.7.9-.6l4.5.7c0-1.2.2-2.5.4-3.7l-6.7-1.1c-1.1-.2-2.2.6-2.4,1.7l-1.6,9.6c-1.6,10.1,4,19.6,13.1,23.3-.5-1.6-1-3.2-1.4-5Z"/>
          <polygon class="st34" points="150.3 172 147.1 175.2 150.9 175.8 153.2 172.5 150.3 172"/>
          <rect class="st32" x="146.8" y="175.5" width="3.7" height="3.4" transform="translate(30.3 -21.5) rotate(9.2)"/>
          <rect class="st32" x="144.9" y="187.6" width="3.7" height="3.4" transform="translate(32.2 -21.1) rotate(9.2)"/>
          <rect class="st3" x="145.9" y="178.8" width="3.7" height="8.8" transform="translate(31.3 -21.3) rotate(9.2)"/>
          <path class="st13" d="M173.8,114.8l1.1,4.8c0,.1.1.2.2.2l4.7,1.2c.3,0,.3.4,0,.5l-4.2,2.5c0,0-.1.2-.1.3l.4,4.9c0,.3-.3.4-.5.2l-3.7-3.2c0,0-.2,0-.3,0l-4.5,1.9c-.2,0-.5-.1-.4-.4l1.9-4.5c0-.1,0-.2,0-.3l-3.2-3.7c-.2-.2,0-.5.2-.5l4.9.4c.1,0,.2,0,.3-.1l2.6-4.2c.1-.2.5-.2.5,0Z"/>
        </g>
        <polyline class="st14" points="240.7 80.9 216 233.3 95.7 213.8 120.5 61.3 240.7 80.9"/>
        <path class="st37" d="M189.8,142.3c-.7,6.2-3,22.4-9.1,27.1-5.1,3.9-10.9,4.9-15.7,4.9-4.8,0-8.6-1.1-9.5-1.4.2-.9.5-2.1.6-3.5.1-1.4.2-3,0-4.8-.2-1.7-.5-3.2-.9-4.4-.4-1.3-.8-2.3-1.2-3.2,2.7-2.1,5.4-4.2,8.1-6.3s28.4-14.5,27.7-8.3Z"/>
        <g class="st6">
          <path class="st23" d="M126.9,214.3c-.1.9-.2,1.9-.4,2.8-.1.9-.2,1.9-.4,2.8-5,.5-10,.8-15,.6-5-.1-9.9-.7-14.7-2,0-.3,0-.6,0-1,0-.3,0-.7,0-1,0-.6,0-1.3,0-1.9,0-.6,0-1.2,0-1.8,4.9,1.5,10,2.1,15.1,2.2,5.1.1,10.3-.3,15.4-.8Z"/>
        </g>
        <path class="st17" d="M108.1,217.6c0,.5-.1,1-.3,1.4-.2.4-.4.9-.6,1.2-.2.4-.5.7-.8,1-.3.3-.6.5-.9.8-.6.4-1.3.7-2,.9-.7.2-1.4.3-2.1.3-.7,0-1.4-.1-2.1-.4-.7-.2-1.3-.6-1.9-1.1-.3-.3-.6-.5-.9-.9-.3-.3-.5-.7-.7-1.2-.2-.4-.4-.9-.5-1.5-.1-.5-.1-1.1,0-1.7,0-.6.2-1.1.4-1.6.2-.5.4-1,.7-1.4.3-.4.6-.7.9-1,.3-.3.7-.5,1-.7.7-.4,1.4-.6,2.1-.8.7-.1,1.4-.1,2.1,0,.7.1,1.4.3,2,.6.6.3,1.2.7,1.8,1.2.3.3.5.6.8.9.2.3.4.7.6,1.1.2.4.3.8.4,1.3,0,.5.1,1,0,1.4ZM107.2,217.5c0-.4,0-.7,0-1.1,0-.3-.2-.7-.3-1-.1-.3-.3-.6-.5-.8-.2-.3-.4-.5-.7-.7-.5-.4-1-.7-1.6-.9-.6-.2-1.2-.3-1.7-.3-.6,0-1.2,0-1.7.3-.6.2-1.1.4-1.6.8-.2.2-.5.4-.7.6-.2.2-.4.5-.6.7-.2.3-.3.5-.4.8,0,.3-.2.5-.2.8,0,.3,0,.6,0,.8,0,.3.1.6.3.8.1.3.3.5.4.8.2.2.4.5.6.7.4.4.9.8,1.5,1s1.1.4,1.7.5c.6,0,1.2,0,1.8,0,.6,0,1.2-.3,1.7-.6.3-.2.5-.4.8-.6.2-.2.5-.5.7-.7.2-.3.4-.6.5-.9.1-.3.2-.7.2-1Z"/>
        <path class="st20" d="M138.9,210.5c0,.6.2,1.3.2,1.9,0,.6.2,1.3.2,1.9.1.9.2,1.9.4,2.8.1.9.2,1.9.4,2.8.4,3.2.8,6.4,1.2,9.6.4,3.2.8,6.4,1.2,9.6,2.1,0,4.2,0,6.3-.1,2.1,0,4.2,0,6.3-.1,2.3,0,4.7.2,7,.2,2.4,0,4.8,0,7.2.1,3.3,0,6.5,0,9.6,0,3.2,0,6.3-.1,9.3-.2-.7-1.1-1.8-2.5-3.2-4-1.4-1.5-3.3-3.1-5.6-4.6-2.1-1.3-4.1-2.2-5.9-2.9-1.8-.6-3.4-1-4.6-1.2.2-1.2.3-2.4.4-3.7.1-1.3.2-2.6.3-4,0-.3,0-.6,0-1,0-.3,0-.7,0-1,0-.6,0-1.3,0-1.9,0-.6,0-1.2,0-1.8,0-1.3,0-2.6-.1-3.8,0-1.2-.2-2.4-.3-3.5-4.8,1.6-9.7,2.9-14.7,3.7-5,.8-10.1,1.2-15.2,1.2h-.7Z"/>
        <g class="st6">
          <path class="st23" d="M139.4,214.3c.1.9.2,1.9.4,2.8.1.9.2,1.9.4,2.8,5,.5,10,.8,15,.6,5-.1,9.9-.7,14.7-2,0-.3,0-.6,0-1,0-.3,0-.7,0-1,0-.6,0-1.3,0-1.9,0-.6,0-1.2,0-1.8-4.9,1.5-10,2.1-15.1,2.2-5.1.1-10.3-.3-15.4-.8Z"/>
        </g>
        <path class="st17" d="M158.6,214.8c.2-.4.4-.8.6-1.1.2-.3.5-.6.8-.9.6-.5,1.2-.9,1.8-1.2.6-.3,1.3-.5,2-.6.7,0,1.4,0,2.1,0,.7.1,1.4.4,2.1.8.3.2.7.4,1,.7.3.3.6.6.9,1,.3.4.5.9.7,1.4.2.5.3,1.1.4,1.6,0,.6,0,1.1,0,1.7-.1.5-.3,1-.5,1.5-.2.4-.5.8-.7,1.2-.3.3-.6.6-.9.9-.6.5-1.3.9-1.9,1.1-.7.2-1.4.3-2.1.4-.7,0-1.4,0-2.1-.3-.7-.2-1.3-.5-2-.9-.3-.2-.6-.5-.9-.8-.3-.3-.6-.6-.8-1-.2-.4-.4-.8-.6-1.2-.2-.4-.3-.9-.3-1.4,0-.5,0-1,0-1.4,0-.5.2-.9.4-1.3ZM159.7,219.4c.2.3.4.5.7.7.2.2.5.4.8.6.5.3,1.1.5,1.7.6.6,0,1.2,0,1.8,0,.6,0,1.2-.3,1.7-.5.5-.3,1-.6,1.5-1,.2-.2.4-.4.6-.7.2-.2.3-.5.4-.8.1-.3.2-.5.3-.8,0-.3,0-.6,0-.8,0-.3,0-.6-.2-.8,0-.3-.2-.5-.4-.8-.2-.3-.3-.5-.6-.7-.2-.2-.4-.4-.7-.6-.5-.3-1-.6-1.6-.8-.6-.2-1.2-.3-1.7-.3-.6,0-1.2,0-1.7.3-.6.2-1.1.5-1.6.9-.2.2-.5.4-.7.7-.2.3-.4.5-.5.8-.1.3-.3.6-.3,1,0,.3,0,.7,0,1.1,0,.4.1.7.2,1,.1.3.3.6.5.9Z"/>
        <path class="st4" d="M104,218.5c.6,0,1.2,0,1.7,0,.6,0,1.2,0,1.7,0,.6,0,.9-.5.9-1.1,0-.6-.2-1.2-.8-1.2-.6,0-1.2,0-1.7,0-.6,0-1.2,0-1.7,0-.6,0-.9.5-.9,1.1,0,.6.2,1.2.8,1.2h0Z"/>
        <path d="M170.9,107"/>
        <path class="st35" d="M173.7,89.8c-.5-2-5.6-22.9-13.7-44.5-4.3-11.5-11.8-17.1-17.3-19.8-6-2.9-11.1-3.1-11.1-3.1,0,0-5.1.2-11.1,3.1-5.5,2.7-13,8.3-17.3,19.8-8,21.6-13.4,44.4-13.9,46.4,0,0,26.6-51.9,42.3-52.2,15.7-.3,42.1,50.3,42.1,50.3Z"/>
        <g>
          <path class="st35" d="M87.8,38c.4-2.4,1.8-4.8,3.9-6.5.5-.4,1.1-.6,1.8-.5,2.2.3,4.1,1,5.2,2.4.2.2.2.4.2.7-.3,3.2-1.1,6.3-2.3,9.3-.3.8-1.4,1-2,.4l-2.9-2.9c-.5-.5-1.3,0-1.2.6,0,0,0,0,0,.1l-2.7-3.6Z"/>
          <path class="st35" d="M95.4,44.2c-.3,0-.7-.1-.9-.4l-2.9-2.9c-.2-.2-.5-.2-.7-.1-.2.1-.4.4-.3.7,0,0,0,0,0,.1v.3c0,0-2.8-3.8-2.8-3.8h0c.4-2.5,1.8-4.9,3.9-6.6.5-.4,1.2-.6,1.8-.5,2.5.3,4.2,1.1,5.3,2.4.2.2.3.5.2.7-.3,3.1-1.1,6.2-2.3,9.3-.2.4-.5.7-.9.8,0,0-.2,0-.3,0ZM91.1,40.6c.2,0,.4,0,.5.2l2.9,2.9c.3.3.7.4,1,.3.4,0,.7-.3.8-.7,1.2-3.1,2-6.2,2.3-9.3,0-.2,0-.5-.2-.6-1.1-1.3-2.8-2-5.2-2.3-.6,0-1.2,0-1.7.5-2.1,1.7-3.5,4-3.8,6.4l2.5,3.3c0-.3.1-.5.4-.7.1,0,.2,0,.4,0Z"/>
        </g>
        <path class="st35" d="M175.3,38.3c-.4-2.4-1.8-4.8-3.9-6.5-.5-.4-1.1-.6-1.8-.5-2.2.3-4.1,1-5.2,2.4-.2.2-.2.4-.2.7.3,3.2,1.1,6.3,2.3,9.3.3.8,1.4,1,2,.4l2.9-2.9c.5-.5,1.3,0,1.2.6,0,0,0,0,0,.1l2.7-3.6Z"/>
        <path class="st8" d="M102.7,49.4c19.3,4.1,38.6,4.1,57.8,0-8.8,3.3-17.8,5.2-27.1,6-1.2.1-2.5.1-3.7,0-8.4-1-17.6-3.2-27.1-6Z"/>
        <g>
          <path class="st8" d="M92.4,73.7h3.2v20.8h-1.1c-2.7,0-4.9-2.2-4.9-4.9v-13.1c0-1.5,1.2-2.8,2.8-2.8Z" transform="translate(26.5 -22.1) rotate(15.9)"/>
          <path d="M92.8,95l-4.1-1.2c-.5-.1-.9-.5-1.2-.9-.3-.5-.3-1-.2-1.5l4.9-17.2c.2-.6.8-1,1.5-.8l4.9,1.4-5.7,20.2ZM93.4,73.6c-.2,0-.3,0-.4.1-.2.1-.4.3-.4.5l-4.9,17.2c-.1.4,0,.9.2,1.3.2.4.6.7,1,.8l3.8,1.1,5.6-19.7-4.6-1.3c0,0-.2,0-.2,0Z"/>
        </g>
        <g>
          <path class="st8" d="M102.7,48.7c-4.6-.5-9.3-5.6-14.1-12.3-2.5,5.5-4,11.8-4.7,19.1,4.2,4.6,9.1,7.3,14.4,9.2l4.5-16Z"/>
          <path d="M98.3,64.9h-.1c-6.1-2.2-10.6-5.2-14.4-9.3h0s0-.1,0-.1c.7-7.2,2.3-13.6,4.8-19.1v-.2c0,0,.2.2.2.2,5.8,8,10.1,11.8,14,12.2h.2s-4.5,16.3-4.5,16.3ZM84,55.5c3.7,4,8.2,6.9,14.1,9.1l4.4-15.7c-3.9-.5-8.2-4.2-13.9-12.1-2.4,5.4-3.9,11.7-4.6,18.7Z"/>
        </g>
        <g>
          <path class="st8" d="M100.1,52.5h1.1v20.8h-1.1c-2.7,0-4.9-2.2-4.9-4.9v-11c0-2.7,2.2-4.9,4.9-4.9Z" transform="translate(20.9 -24.5) rotate(15.9)"/>
          <path d="M98.4,73.8l-4.9-1.4c-.6-.2-1-.8-.8-1.4l4.8-17c.2-.6.5-1.1,1.1-1.3.5-.3,1.1-.4,1.7-.2l3.9,1.1-5.7,20.2ZM99.6,52.7c-.3,0-.7,0-1,.2-.5.3-.8.7-.9,1.2l-4.8,17c-.1.5.1,1,.6,1.1l4.6,1.3,5.6-19.7-3.6-1c-.2,0-.4,0-.5,0Z"/>
        </g>
        <g>
          <path class="st28" d="M92.4,73.7h3.2v20.8h-1.1c-2.7,0-4.9-2.2-4.9-4.9v-13.1c0-1.5,1.2-2.8,2.8-2.8Z" transform="translate(26.5 -22.1) rotate(15.9)"/>
          <path class="st28" d="M93,95.3l-4.3-1.2c-.6-.2-1-.5-1.3-1-.3-.5-.4-1.1-.2-1.7l4.9-17.2c.1-.4.3-.6.7-.8.3-.2.7-.2,1.1-.1l5.1,1.4-5.9,20.6ZM93.4,73.8c-.1,0-.2,0-.3,0-.2,0-.3.2-.3.4l-4.9,17.2c-.1.4,0,.8.1,1.1.2.4.5.6.9.7l3.7,1,5.5-19.3-4.4-1.3c0,0-.1,0-.2,0Z"/>
        </g>
        <g>
          <path class="st28" d="M102.7,48.7c-4.6-.5-9.3-5.6-14.1-12.3-2.5,5.5-4,11.8-4.7,19.1,4.2,4.6,9.1,7.3,14.4,9.2l4.5-16Z"/>
          <path class="st35" d="M98.5,65.1h-.3c-6.1-2.3-10.7-5.3-14.5-9.4h-.1c0-.1,0-.3,0-.3.7-7.2,2.3-13.7,4.8-19.2l.2-.5.3.5c5.7,8,10,11.7,13.8,12.1h.4s-4.7,16.7-4.7,16.7ZM84.2,55.4c3.6,3.9,8,6.7,13.8,8.9l4.3-15.2c-3.8-.6-8.1-4.3-13.6-11.9-2.3,5.3-3.8,11.4-4.5,18.3Z"/>
        </g>
        <g>
          <path class="st28" d="M172.6,73.7h1.1v20.8h-3.2c-1.5,0-2.8-1.2-2.8-2.8v-13.1c0-2.7,2.2-4.9,4.9-4.9Z" transform="translate(357.9 118.2) rotate(164.1)"/>
          <path class="st28" d="M170.5,95.3l-5.9-20.6,5.1-1.4c.7-.2,1.5.2,1.7,1l4.9,17.2c.3,1.2-.3,2.4-1.5,2.7l-4.3,1.2ZM165.4,75.1l5.5,19.3,3.7-1c.8-.2,1.3-1.1,1-1.9l-4.9-17.2c-.1-.4-.5-.6-.9-.5l-4.4,1.3Z"/>
        </g>
        <g>
          <path class="st28" d="M160.7,48.7c4.6-.5,9.3-5.6,14.1-12.3,2.5,5.5,4,11.8,4.7,19.1-4.2,4.6-9.1,7.3-14.4,9.2l-4.5-16Z"/>
          <path class="st14" d="M165,65.1l-4.7-16.7h.4c3.8-.4,8.1-4.2,13.8-12.2l.3-.5.2.5c2.5,5.5,4.1,11.9,4.8,19.2v.2s0,.1,0,.1c-3.8,4.1-8.4,7.1-14.5,9.3h-.3ZM161.2,49l4.3,15.2c5.8-2.1,10.2-5,13.8-8.9-.7-6.9-2.2-13-4.5-18.3-5.5,7.6-9.7,11.3-13.6,11.9Z"/>
        </g>
        <g>
          <g>
            <line class="st35" x1="102" y1="52.1" x2="91.3" y2="46"/>
            <polygon class="st35" points="101.4 53.1 91.3 46 102.6 51.2 101.4 53.1"/>
          </g>
          <g>
            <line class="st35" x1="101.5" y1="56.7" x2="90.9" y2="50.6"/>
            <polygon class="st35" points="101 57.7 90.9 50.6 102.1 55.7 101 57.7"/>
          </g>
          <g>
            <line class="st35" x1="99.9" y1="61.2" x2="89.2" y2="55.1"/>
            <polygon class="st35" points="99.3 62.2 89.2 55.1 100.4 60.2 99.3 62.2"/>
          </g>
        </g>
        <g>
          <g>
            <line class="st35" x1="161.8" y1="52.2" x2="172.5" y2="46.1"/>
            <polygon class="st35" points="161.3 51.2 172.5 46.1 162.4 53.2 161.3 51.2"/>
          </g>
          <g>
            <line class="st35" x1="162.3" y1="56.7" x2="173" y2="50.6"/>
            <polygon class="st35" points="161.7 55.8 173 50.6 162.9 57.7 161.7 55.8"/>
          </g>
          <g>
            <line class="st35" x1="163.9" y1="61.2" x2="174.6" y2="55.1"/>
            <polygon class="st35" points="163.4 60.2 174.6 55.1 164.5 62.2 163.4 60.2"/>
          </g>
        </g>
        <g>
          <path class="st28" d="M100.1,52.5h1.1v20.8h-1.1c-2.7,0-4.9-2.2-4.9-4.9v-11c0-2.7,2.2-4.9,4.9-4.9Z" transform="translate(20.9 -24.5) rotate(15.9)"/>
          <path class="st28" d="M98.5,74.1l-5.1-1.5c-.7-.2-1.1-1-.9-1.7l4.8-17c.2-.6.6-1.1,1.2-1.5.6-.3,1.2-.4,1.9-.2l4.1,1.2-5.9,20.6ZM99.6,52.9c-.3,0-.6,0-.9.2-.4.2-.7.6-.8,1.1l-4.8,17c-.1.4.1.7.5.8l4.5,1.3,5.5-19.3-3.4-1c-.2,0-.3,0-.5,0Z"/>
        </g>
        <g>
          <path class="st28" d="M167.1,52.5h1.1v20.8h-1.1c-2.7,0-4.9-2.2-4.9-4.9v-11c0-2.7,2.2-4.9,4.9-4.9Z" transform="translate(341.3 78.2) rotate(164.1)"/>
          <path class="st28" d="M164.9,74.1v-.3c0,0-5.9-20.3-5.9-20.3l4.1-1.2c1.3-.4,2.6.4,3,1.7l4.8,17c.2.7-.2,1.5-.9,1.7l-5.1,1.5ZM159.9,53.9l5.5,19.3,4.5-1.3c.4-.1.6-.5.5-.8l-4.8-17c-.3-.9-1.2-1.5-2.2-1.2l-3.4,1Z"/>
        </g>
        <path class="st8" d="M106.5,46.8c3.4-7.6,9-13.5,17-17.7,5-2.6,10.9-2.7,15.9,0,8.7,4.5,14.7,10.5,18.7,17.8-18.4,9.7-35.7,8.6-51.6,0Z"/>
        <g>
          <path class="st8" d="M167.9,2.7c-.6,5.6-2.6,11.1-5.9,16.2-11.3,17.3-34.5,22.2-51.9,10.8-9.4-6.2-15.2-15.9-16.6-26.2-1.6,13.7,4.4,27.7,16.7,35.7,17.3,11.3,40.5,6.5,51.9-10.8,5.2-7.9,7-17,5.8-25.7Z"/>
          <path class="st28" d="M130.7,45.6c-7.3,0-14.4-2.1-20.6-6.2-6-3.9-10.7-9.4-13.7-15.9-2.9-6.3-4-13.3-3.2-20.1l.3-2.6.4,2.6c1.5,10.6,7.5,20.1,16.5,26,8.3,5.4,18.2,7.3,27.9,5.3,9.7-2,18-7.7,23.5-16,3.2-4.9,5.1-10.3,5.8-16l.3-2.6.4,2.6c1.3,9-.8,18.2-5.8,25.9-5.5,8.5-14,14.2-23.9,16.3-2.6.5-5.2.8-7.8.8ZM93.7,6.1c-.6,13.1,5.7,25.5,16.8,32.8,8.3,5.4,18.2,7.3,27.9,5.3,9.7-2,18-7.7,23.5-16,4.4-6.8,6.5-14.8,6-22.8-.9,4.9-2.8,9.5-5.5,13.7-5.5,8.5-14,14.2-23.9,16.3-9.9,2.1-20,.2-28.4-5.4-8.4-5.5-14.2-14.1-16.3-23.8Z"/>
        </g>
        <g>
          <circle class="st28" cx="132" cy="40.4" r="10.9" transform="translate(71 164.2) rotate(-80.8)"/>
          <path class="st28" d="M132,51.6c-6.2,0-11.2-5-11.2-11.2s5-11.2,11.2-11.2,11.2,5,11.2,11.2-5,11.2-11.2,11.2ZM132,29.8c-5.8,0-10.5,4.7-10.5,10.5s4.7,10.5,10.5,10.5,10.5-4.7,10.5-10.5-4.7-10.5-10.5-10.5Z"/>
        </g>
        <g>
          <circle class="st8" cx="132" cy="40" r="5.3" transform="translate(62.7 159.3) rotate(-76.7)"/>
          <path class="st28" d="M132,45.6c-3.1,0-5.6-2.5-5.6-5.6s2.5-5.6,5.6-5.6,5.6,2.5,5.6,5.6-2.5,5.6-5.6,5.6ZM132,35.1c-2.7,0-4.9,2.2-4.9,4.9s2.2,4.9,4.9,4.9,4.9-2.2,4.9-4.9-2.2-4.9-4.9-4.9Z"/>
        </g>
        <circle class="st28" cx="132" cy="40" r="1.4"/>
        <g>
          <g>
            <path class="st28" d="M169,41c-12.1,7-24.5,11-37,11.8v15.6s0-15.6,0-15.6c-12.6-.9-24.9-4.9-37-11.8l2.5,12c11.4,7.3,21.1,12.9,34.5,15.4h0c13.4-2.6,23.2-8.2,34.5-15.4l2.5-12Z"/>
            <path class="st28" d="M132,69.1h-.1c-13.8-2.7-23.9-8.6-34.8-15.5l-.2-.2-2.9-13.7,1.3.8c12.1,6.9,24.4,10.9,36.7,11.7,12.3-.8,24.6-4.8,36.7-11.7l1.3-.8-2.9,13.7-.2.2c-10.9,6.9-21,12.9-34.8,15.5h-.1ZM132.6,53.5v14.1c13-2.7,22.8-8.4,33.2-15l2.2-10.2c-11.6,6.5-23.5,10.2-35.4,11.1ZM98,52.6c10.4,6.6,20.2,12.4,33.3,15v-14.1c-11.9-.9-23.8-4.7-35.4-11.1l2.2,10.2Z"/>
          </g>
          <g>
            <path class="st8" d="M166.4,43.5l-2.9,5.1c-.1,1-.6,1.9-1.5,2.4-8.3,5.3-18.1,9.6-28.4,13.7,11.1-2.9,21.9-6.7,31.5-13.3,0,0,.1-.2.1-.3l1.2-7.6Z"/>
            <path class="st8" d="M129.3,53.1l-1.4,8.1c-.2.9-1.1,1.5-2,1.2-8.2-2.5-16.6-6.3-25.1-10.7,7.2,5.7,16.2,10.5,28.5,13.8v-12.5Z"/>
          </g>
        </g>
        <path d="M134.7,197.4"/>
        <path d="M179.9,196.5"/>
        <path d="M142.8,195.4"/>
        <path d="M117.2.9"/>
        <path class="st29" d="M132.5,166.5c0,.4.2.8.4,1.2.2.3.5.5.6.6,1.5,1.2,3.9.9,5.9.4,2-.5,3.7-1.3,3.8-1.2,0,0-2.3.7-4.6,1.8-2.4,1.1-4.8,2.6-4.9,4.4,0,.3,0,.7.1,1,.1.3.3.7.6.9,1.1.8,3.3-.2,5.1-1.4,1.9-1.2,3.5-2.5,3.5-2.5,0,0-1,.8-2.1,1.9-1.1,1.1-2.4,2.6-3,4.2-.2.6-.3,1-.3,1.4,0,.3.1.6.2.7.2.4.6.6.9.7.3.1.6.2.7.2,1.1.2,2.2-.8,3.2-1.9,1-1.2,1.8-2.5,2.2-3.3-1,1.9-1.6,3.6-1.7,5.1-.2,1.4,0,2.6.8,3.2.3.3.6.4.9.5.3,0,.5.1.5.1,1.6.1,2.6-1.7,3.9-4,1.3-2.3,2.8-4.9,5.6-6.5.2-.1.5-.3.7-.4.2-.1.5-.2.7-.3.2-.9.4-2.1.6-3.5.1-1.4.2-3,0-4.7-.2-1.6-.4-3-.8-4.2-.3-1.2-.7-2.2-1.1-3.1-.7-.4-1.4-.8-1.9-1.3-.5-.4-1-.9-1.3-1.3-.6-.7-1.2-1.7-1.8-2.5-.7-.8-1.4-1.5-2.5-1.8-.9-.2-1.8-.1-2.6.2-.8.3-1.4.8-1.5,1.5-.1.6,0,1.3.5,1.9.4.7,1,1.4,1.7,2.1.6.7,1.2,1.2,1.7,1.7.6.5,1.1.8,1.5,1.1-1.8.7-3.5,1.3-5,1.8-1.5.5-2.7.9-3.8,1.3-2.3.8-4.1,1.3-5.4,1.9-1.3.6-2,1.1-2.1,1.9Z"/>
      </g>
    </g>
  </g>
</svg>