<?xml version="1.0" encoding="UTF-8"?>
<svg id="Calque_1" xmlns="http://www.w3.org/2000/svg" version="1.1" viewBox="0 0 100 100">
  <!-- Generator: Adobe Illustrator 29.8.3, SVG Export Plug-In . SVG Version: 2.1.1 Build 3)  -->
  <defs>
    <style>
      .st0 {
        fill: #dc0122;
      }

      .st1 {
        fill: #fff;
      }
    </style>
  </defs>
  <g id="Calque_2">
    <ellipse class="st0" cx="49.9" cy="50" rx="50.1" ry="50"/>
  </g>
  <g id="Calque_21" data-name="Calque_2">
    <path class="st1" d="M31.7,20h16v12.6c0,5.7,4.6,10.3,10.3,10.3h12.6v34.4c0,1.3-1,2.3-2.3,2.3H31.7c-1.3,0-2.3-1-2.3-2.3V22.3c0-1.3,1-2.3,2.3-2.3ZM54.6,22.9l13.2,13.2h-9.8c-1.9,0-3.4-1.5-3.4-3.4v-9.8ZM31.7,13.1c-5.1,0-9.2,4.1-9.2,9.2v55c0,5.1,4.1,9.2,9.2,9.2h36.7c5.1,0,9.2-4.1,9.2-9.2v-37.5c0-2.4-1-4.8-2.7-6.5l-17.6-17.5c-1.7-1.7-4-2.7-6.5-2.7h-19.1ZM39.7,49.8c-1.9,0-3.4,1.5-3.4,3.4s1.5,3.4,3.4,3.4h20.6c1.9,0,3.4-1.5,3.4-3.4s-1.5-3.4-3.4-3.4h-20.6ZM39.7,63.5c-1.9,0-3.4,1.5-3.4,3.4s1.5,3.4,3.4,3.4h20.6c1.9,0,3.4-1.5,3.4-3.4s-1.5-3.4-3.4-3.4h-20.6Z"/>
  </g>
</svg>