<?xml version="1.0" encoding="UTF-8"?>
<svg id="Calque_1" xmlns="http://www.w3.org/2000/svg" version="1.1" viewBox="0 0 100 100">
  <!-- Generator: Adobe Illustrator 29.8.3, SVG Export Plug-In . SVG Version: 2.1.1 Build 3)  -->
  <defs>
    <style>
      .st0 {
        fill: #dc0122;
      }

      .st1 {
        fill: #fff;
      }
    </style>
  </defs>
  <g id="Calque_2">
    <ellipse class="st0" cx="49.9" cy="50" rx="50.1" ry="50"/>
  </g>
  <path class="st1" d="M77.6,50.5v33.2c0,.8-1.6,2.2-2.4,2.1-4.9-.3-10.4.4-15.3,0s-3-1.6-3.2-3.7c-.4-5.6.3-11.7,0-17.3-.2-.9-.8-1-1.6-1-2.5-.2-7.7-.3-10.2,0s-1.4.7-1.5,1.8c-.5,5.6.4,12,0,17.7-.3,1.5-1.5,2.4-3,2.6-4.9.4-10.4-.3-15.3,0-.9,0-2.4-1.4-2.4-2.1v-33.2h-5.4c-.2,0-.8-.4-1-.5-1.3-1-1.4-2.6-.5-3.9L48.2,14c1.2-.9,2.5-.9,3.8,0l32.5,32c.9,1.2.9,2.6-.2,3.7s-1,.8-1.3.8h-5.4Z"/>
</svg>