<?xml version="1.0" encoding="UTF-8"?>
<svg id="Calque_2" xmlns="http://www.w3.org/2000/svg" version="1.1" viewBox="0 0 576 336.6">
  <!-- Generator: Adobe Illustrator 29.8.3, SVG Export Plug-In . SVG Version: 2.1.1 Build 3)  -->
  <defs>
    <style>
      .st0 {
        fill: #fff;
      }
    </style>
  </defs>
  <path class="st0" d="M373.4,102.6v113.9h-170.8v-113.9h170.8ZM202.6,74.2c-15.7,0-28.5,12.8-28.5,28.5v113.9c0,15.7,12.8,28.5,28.5,28.5h64.1l-7.1,21.4h-32c-5.9,0-10.7,4.8-10.7,10.7s4.8,10.7,10.7,10.7h121c5.9,0,10.7-4.8,10.7-10.7s-4.8-10.7-10.7-10.7h-32l-7.1-21.4h64.1c15.7,0,28.5-12.8,28.5-28.5v-113.9c0-15.7-12.8-28.5-28.5-28.5h-170.8Z"/>
  <path class="st0" d="M120,54.1C119,24.8,95.2,1,65.8,0,33.5-1,7,25.5,8,57.8c.9,29.3,24.8,53.2,54.1,54.1,32.4,1,58.9-25.5,57.8-57.8ZM192.1,269.5c0-6.9-4.3-13.2-10.8-15.7-5.7-2.2-10.8-6.1-14.4-11.2l-48.7-68.2c-14-19.6-36.8-31-60.9-30.4-31.5.8-57.3,28.1-57.3,59.6v100.3c0,5.8.5,11.6,1.6,17.2,1.6,8.9,9.5,15.4,18.6,15.4h74.1c9.8,0,17.8-8,17.8-17.8v-38.1c0-1.5,1.9-2.1,2.8-.9h0c13.7,19.2,34,32.5,56.5,37.7,10.8,2.5,21.1-5.7,21-16.8l-.2-31.2ZM518.7,144c-24.2-.6-47,10.8-60.9,30.4l-48.7,68.2c-3.8,5.3-9,9.3-15,11.5-6.2,2.3-10.1,8.3-10.1,14.9v38.5c0,7.1,6.4,12.6,13.4,11.5,25.5-3.8,48.6-17.8,63.8-39.1h0c.9-1.2,2.8-.6,2.8.9v37.6c0,10.1,8.2,18.3,18.3,18.3h72.2c10.1,0,18.6-7.3,20.2-17.2.8-5.1,1.2-10.2,1.2-15.4v-100.3c0-31.5-25.8-58.8-57.3-59.6ZM568,54.1c-.9-29.3-24.8-53.2-54.1-54.1-32.4-1-58.9,25.5-57.8,57.8.9,29.3,24.8,53.2,54.1,54.1,32.4,1,58.9-25.5,57.8-57.8Z"/>
</svg>