<?xml version="1.0" encoding="UTF-8"?>
<svg id="Calque_1" xmlns="http://www.w3.org/2000/svg" version="1.1" viewBox="0 0 100 100">
  <!-- Generator: Adobe Illustrator 29.8.3, SVG Export Plug-In . SVG Version: 2.1.1 Build 3)  -->
  <defs>
    <style>
      .st0 {
        fill: #dc0122;
      }

      .st1 {
        fill: #fff;
      }
    </style>
  </defs>
  <g id="Calque_2">
    <ellipse class="st0" cx="49.9" cy="50" rx="50.1" ry="50"/>
  </g>
  <path class="st1" d="M54.6,12c4.7,1,4,6,4.6,9.7l.3.3,4.1,1.7c3-1.9,6.4-6.6,10.3-3.6s4.7,4.4,5.8,5.8c3.3,4-1.7,7.3-3.5,10.5.7,1.1,1,2.6,1.5,3.7s.2.5.5.6c3.7.6,8.7-.1,9.7,4.6v8.5c-1.1,4.8-6.1,3.9-9.8,4.6-.4.2-.6,1.4-.8,1.8s-.9,1.7-1,2.2,0,.3,0,.5c2,3,6.5,6.3,3.5,10.2s-4.6,4.9-5.9,5.8c-3.9,3-7.3-1.7-10.3-3.6l-4.1,1.7c-.2,0-.3.2-.3.4-.8,3.7.3,9.1-5,9.6s-7.3.2-8.8-.3c-4-1.3-3.1-6.2-3.8-9.5-.2-.4-3.5-1.3-4.1-1.9-.3,0-.5.2-.8.4-3,2-6,6.2-9.9,3.1-1.3-1-4.8-4.5-5.8-5.8-2.9-3.8,1.6-7.2,3.5-10.1.2-.2.1-.3,0-.5-.1-.5-.8-1.6-1-2.2s-.4-1.6-.8-1.8c-3.8-.7-9.4,0-9.8-5.1s-.2-7.3.2-8.6c1.2-4.1,6.1-3.2,9.4-3.9s.4-.2.5-.4l1.6-4c-1.9-3-6.6-6.4-3.6-10.3s4.4-4.7,5.8-5.8c4-3.3,7.4,1.6,10.5,3.5,1.1-.7,2.6-1,3.7-1.5s.5-.2.6-.5c.6-2.9,0-7.1,2.7-8.9l1.9-.8h8.5ZM49.6,33.9c-12.4.6-19.2,14.8-11.8,24.9,7.4,10.1,23.3,7.6,27.3-4.2,3.5-10.4-4.6-21.2-15.5-20.7Z"/>
</svg>