<?xml version="1.0" encoding="UTF-8"?>
<svg id="Calque_1" xmlns="http://www.w3.org/2000/svg" version="1.1" viewBox="0 0 100 100">
  <!-- Generator: Adobe Illustrator 29.8.3, SVG Export Plug-In . SVG Version: 2.1.1 Build 3)  -->
  <defs>
    <style>
      .st0 {
        fill: #dc0122;
      }

      .st1 {
        fill: #fff;
      }
    </style>
  </defs>
  <g id="Calque_2">
    <ellipse class="st0" cx="49.9" cy="50" rx="50.1" ry="50"/>
  </g>
  <g>
    <path class="st1" d="M71.6,21.5c1.1.3,1.9,1.1,2.1,2.3v16.3c-.4,2-2.6,3-4.3,1.6s-1-1.2-1-1.7v-13.2h-20.8l9,2.8c.6.2,1.4,1.3,1.4,1.9v42.1h10.4v-13.3c0,0,.2-.6.3-.7,1-2.4,4.4-1.9,5,.5v16.5c0,.7-1.3,2.1-1.9,2.1h-13.7v3.1c0,0-.3.8-.4.9-.5.9-1.6,1.3-2.6,1.2l-25.9-5.2c-1.3-.2-2.3-1.3-2.3-2.7V24c.1-1.4,1-2.2,2.3-2.5h42.4Z"/>
    <path class="st1" d="M89.3,49.5v1.1l-.7,1.2c-2.7,2.3-5.2,5.7-7.9,7.9s-5.7-1-3.8-3.5,2.6-2.3,3.5-3.6h-15c0,0-.8-.3-.9-.4-1.7-1.1-1.5-3.8.4-4.5s.7-.3.7-.3h14.7c-1.3-1.9-5-3.6-3.7-6.3s2.8-1.8,4.2-.7c2.7,2.1,5,5.4,7.7,7.7l.9,1.4Z"/>
  </g>
</svg>