<?xml version="1.0" encoding="UTF-8"?>
<svg id="Calque_1" xmlns="http://www.w3.org/2000/svg" version="1.1" viewBox="0 0 100 100">
  <!-- Generator: Adobe Illustrator 29.8.3, SVG Export Plug-In . SVG Version: 2.1.1 Build 3)  -->
  <defs>
    <style>
      .st0 {
        fill: #dc0122;
      }

      .st1 {
        display: none;
      }

      .st1, .st2 {
        fill: #fff;
      }

      .st2 {
        stroke: #fff;
        stroke-miterlimit: 10;
        stroke-width: 2px;
      }
    </style>
  </defs>
  <g id="Calque_2">
    <ellipse class="st0" cx="49.9" cy="50" rx="50.1" ry="50"/>
  </g>
  <g id="Calque_21" data-name="Calque_2">
    <path class="st1" d="M24.4,42.5h16.9c1.1,0,2.2-.7,2.6-1.7s.2-2.3-.6-3.1l-5.5-5.5c8.8-6.9,21.6-6.2,29.7,1.9,8.8,8.8,8.8,23,0,31.8s-23,8.8-31.8,0c-1.2-1.2-2.2-2.5-3.1-3.9-1.1-1.7-3.4-2.3-5.2-1.1-1.7,1.1-2.3,3.4-1.1,5.2,1.1,1.8,2.5,3.6,4.1,5.1,11.7,11.7,30.7,11.7,42.4,0,11.7-11.7,11.7-30.7,0-42.4-11-11.1-28.6-11.7-40.3-1.9l-6.1-6.1c-.8-.8-2-1-3.1-.6-1.1.4-1.7,1.5-1.7,2.6v16.9c0,1.6,1.3,2.8,2.8,2.8Z"/>
    <path class="st2" d="M26,25.5c0-2.2-1.8-3.9-3.9-3.9s-3.9,1.8-3.9,3.9v41.3c0,5.4,4.4,9.8,9.8,9.8h49.1c2.2,0,3.9-1.8,3.9-3.9s-1.8-3.9-3.9-3.9H28c-1.1,0-2-.9-2-2V25.5ZM75.9,36.2c1.5-1.5,1.5-4,0-5.6s-4-1.5-5.6,0l-12.9,12.9-7-7c-1.5-1.5-4-1.5-5.6,0l-11.8,11.8c-1.5,1.5-1.5,4,0,5.6s4,1.5,5.6,0l9-9,7,7c1.5,1.5,4,1.5,5.6,0l15.7-15.7h0Z"/>
  </g>
</svg>