<?xml version="1.0" encoding="UTF-8"?>
<svg xmlns="http://www.w3.org/2000/svg" version="1.1" xmlns:xlink="http://www.w3.org/1999/xlink" viewBox="0 0 477.6 279.2">
  <!-- Generator: Adobe Illustrator 29.8.3, SVG Export Plug-In . SVG Version: 2.1.1 Build 3)  -->
  <defs>
    <style>
      .st0 {
        fill: url(#linear-gradient2);
      }

      .st1 {
        opacity: .7;
      }

      .st1, .st2, .st3, .st4, .st5, .st6 {
        mix-blend-mode: multiply;
      }

      .st1, .st3 {
        fill: #88070b;
      }

      .st2 {
        opacity: .7;
      }

      .st2, .st4, .st6 {
        fill: #b65b24;
      }

      .st7 {
        fill: url(#linear-gradient1);
      }

      .st8 {
        fill: none;
      }

      .st3 {
        opacity: 1;
      }

      .st9 {
        isolation: isolate;
      }

      .st10 {
        fill: #c1272d;
      }

      .st11 {
        fill: url(#linear-gradient4);
      }

      .st12 {
        fill: #fff;
        stroke-width: 2.9px;
      }

      .st12, .st13 {
        stroke: #c1272d;
        stroke-miterlimit: 10;
      }

      .st14 {
        fill: url(#linear-gradient5);
      }

      .st15 {
        fill: url(#linear-gradient3);
      }

      .st13 {
        fill: #eb4a39;
        stroke-width: 4.5px;
      }

      .st16 {
        display: none;
      }

      .st4 {
        opacity: .9;
      }

      .st5 {
        fill: #96400f;
      }

      .st17 {
        fill: url(#linear-gradient6);
      }

      .st18 {
        fill: url(#linear-gradient);
      }

      .st6 {
        opacity: .5;
      }
    </style>
    <linearGradient id="linear-gradient" x1="-16.8" y1="100.2" x2="60.3" y2="100.2" gradientTransform="translate(12.6 60.1) rotate(-28)" gradientUnits="userSpaceOnUse">
      <stop offset="0" stop-color="#e71822"/>
      <stop offset="1" stop-color="#e7442f"/>
    </linearGradient>
    <linearGradient id="linear-gradient1" x1="-96.5" y1="100.1" x2="-19.3" y2="100.1" gradientTransform="translate(48.8 40.8) rotate(152) scale(1 -1)" xlink:href="#linear-gradient"/>
    <linearGradient id="linear-gradient2" x1="144.7" y1="145" x2="162.6" y2="145" gradientTransform="translate(194.4 -36.7) rotate(152) scale(1 -1)" xlink:href="#linear-gradient"/>
    <linearGradient id="linear-gradient3" x1="127.3" y1="154.1" x2="143.5" y2="154.1" gradientTransform="translate(194.4 -36.7) rotate(152) scale(1 -1)" xlink:href="#linear-gradient"/>
    <linearGradient id="linear-gradient4" x1="54.5" y1="130.3" x2="68.1" y2="130.3" xlink:href="#linear-gradient"/>
    <linearGradient id="linear-gradient5" x1="60.4" y1="46" x2="60.4" y2="74.4" gradientTransform="translate(12.6 60.1) rotate(-28)" gradientUnits="userSpaceOnUse">
      <stop offset="0" stop-color="#bd5732"/>
      <stop offset="1" stop-color="#cc6732"/>
    </linearGradient>
    <linearGradient id="linear-gradient6" x1="27.5" y1="-10.9" x2="81.2" y2="99.5" gradientTransform="translate(12.6 60.1) rotate(-28)" gradientUnits="userSpaceOnUse">
      <stop offset="0" stop-color="#ffd575"/>
      <stop offset="1" stop-color="#e8a94c"/>
    </linearGradient>
  </defs>
  <g class="st9">
    <g id="Calque_4_-_copie">
      <g id="Calque_11">
        <rect class="st12" x="90.2" y="75.8" width="342.1" height="175"/>
      </g>
      <path class="st13" d="M474.1,72.6c-.5-1.8-1.1-3.5-1.8-5.1-2.8-6.3-7.2-11.4-12.7-14.6-1.2-.7-2.3-1.2-3.6-1.7-2.8-1.1-5.7-1.6-8.8-1.6H70.2c-5.2,0-10,1.6-14.2,4.5-.1,0-.2.1-.3.2-5.5,3.8-9.8,9.8-12,16.9-.3,1-.6,2.1-.8,3.2-.6,2.6-.8,5.2-.8,8v161.8c0,.7,0,1.3,0,1.9.1,2.8.6,5.5,1.3,8,1.2,4.6,3.3,8.7,6.1,12.2,2.2,2.7,4.7,5.1,7.5,6.8,3.9,2.5,8.5,3.8,13.2,3.8h376.9c5.3,0,10.4-1.7,14.6-4.7,2.1-1.5,4-3.2,5.6-5.2,3.3-4,5.8-9,7-14.5.4-1.9.7-3.8.8-5.8,0-.8,0-1.6,0-2.5V82.4c0-3.4-.4-6.7-1.3-9.8ZM416.7,125.5c0,.1,0,.3,0,.4v74.8c0,3-.5,6-1.4,8.7-1.7,5.1-4.8,9.6-8.8,13-4.9,4-11.1,6.5-18,6.5H128.8c-7.4,0-14.1-2.8-19.1-7.5-3.3-3.1-5.9-6.9-7.4-11.3-1-3-1.6-6.1-1.6-9.4v-74.8c0-3.9.8-7.6,2.2-10.9,2.1-5,5.6-9.2,9.9-12.3,4.6-3.2,10.1-5,16-5h259.8c4.5,0,8.8,1.1,12.6,2.9,5,2.5,9.1,6.4,11.9,11.2,2.3,4,3.7,8.7,3.7,13.6Z"/>
      <g>
        <polygon class="st10" points="100.6 144 42.1 134.7 42.1 114.6 100.6 129.4 100.6 144"/>
        <path class="st10" d="M100.6,176.1c-19.5.9-39,1.8-58.6,2.7v-19.4c1.3.1,2.5.2,3.8.2,18.3.8,36.5,1.5,54.8,2.2v14.2Z"/>
        <path class="st10" d="M102.3,210.1l-60.2,16.1v-20.1l58.6-10.2v4.8c0,3.3.6,6.5,1.6,9.4Z"/>
        <path class="st10" d="M102.8,115l-60.8-21.9v-10.7c0-2.8.3-5.5.8-8,.2-1.1.5-2.2.8-3.2l69,31.6c-4.4,3-7.9,7.3-9.9,12.3Z"/>
        <path class="st10" d="M129.3,228.8c-26.6,12.5-53.2,25.1-79.9,37.5-2.7-3.5-4.8-7.6-6.1-12.2-.7-2.5-1.1-5.2-1.3-8l67.6-24.8c5,4.6,11.7,7.5,19.1,7.5h.5Z"/>
        <path class="st10" d="M131.1,97.7L55.7,54.3c0,0,.2-.1.3-.2,4.2-2.8,9-4.5,14.2-4.5h16.4l68.6,48.1h-24.1Z"/>
        <polygon class="st10" points="173.1 228.8 106.5 277 72.4 277 153 228.8 173.1 228.8"/>
        <path class="st10" d="M176.9,97.7c-17.4-16.1-34.7-32.2-52.1-48.1h22.6l44.3,48.1h-14.8Z"/>
        <polygon class="st10" points="201.8 228.8 157.5 277 137.4 277 189.9 228.8 201.8 228.8"/>
        <polygon class="st10" points="204.1 97.7 169.7 49.6 185.7 49.6 214.5 97.7 204.1 97.7"/>
        <polygon class="st10" points="221.8 228.8 194 277 179.5 277 213.1 228.8 221.8 228.8"/>
        <polygon class="st10" points="222.1 97.7 199.5 49.6 212.6 49.6 230.5 97.7 222.1 97.7"/>
        <polygon class="st10" points="234.9 228.8 217.8 277 205.3 277 227.5 228.8 234.9 228.8"/>
        <polygon class="st10" points="236.5 97.7 223.7 49.6 235.5 49.6 244.1 97.7 236.5 97.7"/>
        <polygon class="st10" points="240.4 228.8 246.6 228.8 238.6 277 228 277 240.4 228.8"/>
        <polygon class="st10" points="258.9 228.8 261.1 277 250.5 277 252.7 228.8 258.9 228.8"/>
        <path class="st10" d="M250.3,49.6h11.7c-.8,16-1.6,32-2.1,48.1h-7.6c-.6-16-1.2-32.1-2-48.1Z"/>
        <polygon class="st10" points="272.5 228.8 285.6 277 274.3 277 265.9 228.8 272.5 228.8"/>
        <polygon class="st10" points="274.6 97.7 267.2 97.7 275 49.6 286.7 49.6 274.6 97.7"/>
        <polygon class="st10" points="284.6 228.8 307.1 277 295.1 277 277.5 228.8 284.6 228.8"/>
        <polygon class="st10" points="281 97.7 298.4 49.6 311.5 49.6 289.4 97.7 281 97.7"/>
        <polygon class="st10" points="299.8 228.8 334.5 277 319.3 277 290.6 228.8 299.8 228.8"/>
        <polygon class="st10" points="295.6 97.7 323.7 49.6 339.8 49.6 306.2 97.7 295.6 97.7"/>
        <polygon class="st10" points="322.4 228.8 374.5 277 353.8 277 309.2 228.8 322.4 228.8"/>
        <path class="st10" d="M320.6,97.7l43.9-48.1h23.1c-17.6,16-35.3,32-52.9,48.1h-14.1Z"/>
        <polygon class="st10" points="361.4 228.8 445 277 409.1 277 340.3 228.8 361.4 228.8"/>
        <path class="st10" d="M353.5,97.7l66.7-48.1h26.9c3.1,0,6.1.6,8.8,1.6l-78.4,46.5h-24Z"/>
        <path class="st10" d="M406.6,222.4l68.7,24.3c-.1,2-.4,3.9-.8,5.8-1.2,5.5-3.7,10.5-7,14.5l-82.6-38.1h3.8c6.8,0,13.1-2.4,18-6.5Z"/>
        <path class="st10" d="M475.3,82.4v6.9l-62.3,22.6c-2.8-4.8-6.9-8.7-11.9-11.2l71.1-33.1c.7,1.6,1.3,3.3,1.8,5.1.8,3.1,1.3,6.4,1.3,9.8Z"/>
        <path class="st10" d="M416.7,125.5l58.6-15.7v21.6l-58.6,10.6v-16.1c0-.1,0-.3,0-.4Z"/>
        <path class="st10" d="M465.8,159.7c3.2-.1,6.3-.5,9.6-.7v20c-3.5,0-7,0-10.5,0-16-.7-32.1-1.4-48.1-2.2v-15c16.3-.6,32.7-1.3,49-2Z"/>
        <path class="st10" d="M416.8,194.3l58.6,9.5v20.7l-60-15.1c.9-2.7,1.4-5.7,1.4-8.7v-6.4Z"/>
      </g>
      <line class="st8" x1="-101.9" y1="301.8" x2="-101.9" y2="309"/>
      <line class="st8" x1="-101.9" y1="172.6" x2="-101.9" y2="201.7"/>
      <line class="st8" x1="-101.9" y1="-24.3" x2="-101.9" y2="8.4"/>
      <g>
        <line x1="161.6" y1="154.4" x2="161.5" y2="154.6"/>
        <g class="st16">
          <path class="st18" d="M31.2,130.8c7.1,5.5,17.9,12.2,32.6,16.7,27.5,8.3,52.2,3.6,63.6.8-.4-1.1-.8-2.1-1.3-3.2-8.6,1.7-26.6,4-47-2-19-5.6-31-15.7-36.7-21.3-3.7,3-7.5,6.1-11.2,9.1Z"/>
          <path class="st7" d="M167.4,58.3c.5,9,.1,21.7-4.4,36.4-8.5,27.5-26.2,45.4-34.9,53.2-.6-.9-1.3-1.9-1.9-2.8,6.2-6.2,18.2-19.8,24.6-40.1,6-18.9,4.3-34.5,2.9-42.4,4.6-1.4,9.2-2.8,13.8-4.2Z"/>
          <path class="st1" d="M57.1,133.3c-6.1,1.6-11.9,2.8-17,3.7-3.4-2.1-6.4-4.2-8.9-6.1,3.7-3,7.5-6.1,11.2-9.1,3.1,3,8,7.3,14.8,11.5Z"/>
          <path class="st3" d="M167.4,58.3c.3,4.9.3,11.1-.5,18-3.8,3.2-7.9,6.4-12.3,9.6.9-10.2,0-18.3-1-23.4,4.6-1.4,9.2-2.8,13.8-4.2Z"/>
          <path class="st0" d="M127.2,145.2c-.1,3.9,0,8.5.9,13.6,1.3,8.6,4,15.5,6.4,20.6-1.8-.2-4.2-.7-6.7-1.6-1.9-.7-3.4-1.5-4.7-2.3-.9-4.2-1.6-10.1-1-17.1.5-5.5,1.7-10.2,2.9-13.8.7.2,1.4.4,2.1.7Z"/>
          <path class="st15" d="M130.2,143.1c-.4.9-.8,1.8-1.2,2.7,4.1,4.2,8.5,9.3,12.8,15.2,6.7,9.4,11.4,18.4,14.6,26,1.2-1.9,2.8-4.8,3.7-8.6.7-2.9.8-5.5.8-7.4-3.7-4.9-8.5-10.4-14.7-16-5.6-5-11.1-9-15.9-12Z"/>
          <path class="st1" d="M127.2,145.2c0,2.5,0,5.4.2,8.4-.6,0-1.2.1-1.8.1h-1.4c-.5,0-.9,0-1.4-.2.6-3.5,1.4-6.5,2.3-9,.7.2,1.4.4,2.1.7Z"/>
          <path class="st1" d="M136.3,147.2l-.8,1.3c-.5.8-1.2,1.6-1.9,2.2-1.5-1.8-3.1-3.4-4.6-4.9.4-.9.8-1.8,1.2-2.7,2,1.2,4,2.6,6.1,4.1Z"/>
          <path class="st11" d="M123.7,143.3l3.7-2.2c1-.6,2.1-.6,3.1,0l2.5,1.4c1.5.8,2,2.7,1,4.2l-1,1.5c-1.6,2.4-4.2,3.8-7.1,3.8h-1c-1.7,0-3-1.4-2.9-3v-3c.2-1,.8-2,1.7-2.5Z"/>
        </g>
        <path class="st14" d="M86.1,69.8c51.2-27.3,94.8-45.6,99.9-36,5.1,9.5-28.7,46.4-79.9,73.7C54.9,134.7,5.5,142.1.4,132.6c-5.1-9.5,34.4-35.5,85.7-62.8Z"/>
        <path class="st4" d="M186,33.7c4.5,8.5-21.7,38.6-63.6,64.3l-12.9-40.4c40.5-20.2,72.2-32,76.4-23.9Z"/>
        <path class="st17" d="M182.2,33.9c1,1.8-2.2,10.7-18.2,26.2-9.2,8.9-29.2,26.3-60.3,42.9-31,16.5-56.7,23.4-69.2,26.1-21.8,4.6-30.9,2.3-31.9.4s-.1-.7.2-1.4L47.3,2.9c.7-2.1,3-3.3,5.1-2.7l128.5,33.1c.8.2,1.2.4,1.3.6Z"/>
        <path class="st2" d="M182.2,33.9c1,1.8-2.2,10.7-18.2,26.2-6.9,6.7-20.1,18.3-39.5,30.8L52.4.1l128.5,33.1c.8.2,1.2.4,1.3.6Z"/>
        <path class="st5" d="M182.2,33.9c1,1.8-2.2,10.7-18.2,26.2-9.2,8.9-29.2,26.3-60.3,42.9-31,16.5-56.7,23.4-69.2,26.1-21.8,4.6-30.9,2.3-31.9.4s0-.4,0-.8c2,1.7,11.3,3.4,31.5-.8,12.5-2.6,38.1-9.5,69-26s51-33.9,60.1-42.8c14.8-14.4,18.6-23.1,18.3-25.7.3.1.5.3.6.4Z"/>
        <line x1="181" y1="33.3" x2="180.9" y2="33.3"/>
        <path class="st6" d="M162.9,39.4c-2-.8-4.1-1.5-6.1-2.2.4-.5.7-1,1.1-1.5,1.1-1.6,2.1-3.2,2.9-5,.3-.8.6-1.5.8-2.4h-.2c-.2.7-.5,1.5-.9,2.2-.8,1.7-1.9,3.3-3,4.8-.4.5-.8,1.1-1.2,1.6-4.1-1.5-8.1-3-12.2-4.4l-12.3-4.4c.3-.4.6-.8.8-1.2.8-1.2,1.6-2.5,2.2-3.8.2-.5.4-1,.6-1.6h-.1c-.2.5-.4,1-.6,1.5-.6,1.3-1.5,2.5-2.3,3.7-.3.4-.6.8-.9,1.2l-6.2-2.2-19-6.7c-.1,0-.2,0-.3-.1.3-.5.7-.9,1-1.4.6-.9,1.1-1.8,1.5-2.7,0,0,0-.2.1-.3h-.2s0,.1-.1.2c-.5.9-1,1.8-1.6,2.6-.4.5-.7,1-1.1,1.4-6.1-2.1-12.1-4.2-18.2-6.3,0,0,0,0-.1,0,.3-.4.6-.8.9-1.3.3-.5.7-1.1.9-1.6h-.2c-.3.5-.6,1-1,1.5-.3.4-.7.9-1,1.3-5.5-1.9-11-3.8-16.5-5.6.4-.5.9-1.1,1.3-1.6h-.4c-.4.4-.9.9-1.4,1.4,0,0,0,0,0,0-6.4-2.1-12.7-4.3-19.1-6.3,0,0,0,0-.1,0,6.1,2.4,12.3,4.7,18.5,7-.7.6-1.4,1.3-2.2,1.9-5.5-3-11-5.9-16.5-8.8,0,0,0,0,0,0,5.2,3.2,10.5,6.3,15.8,9.4-.8.6-1.6,1.2-2.5,1.8-4.5-3.7-9-7.5-13.5-11.2,0,0,0,0,0,0,4.2,3.9,8.5,7.8,12.7,11.7-.3.2-.6.4-.8.5-.6.4-1.2.7-1.8,1.1-3.4-4.4-6.8-8.9-10.3-13.3,0,0,0,0,0,0,3.1,4.6,6.3,9.2,9.5,13.7-.6.3-1.2.7-1.8,1-.6.3-1.2.6-1.9,1-2-5.2-4-10.4-6-15.6,0,0,0,0,0,0,1.7,5.3,3.4,10.6,5.2,16-.6.3-1.2.6-1.9.8-.3.1-.6.3-1,.4-.8-5.7-1.7-11.4-2.5-17.1,0,0,0,0,0,0,.5,5.8,1.1,11.6,1.7,17.5-.9.4-1.9.7-2.9,1.1,0,0,0,0,0,0,.4-6.1.7-12.3,1-18.4,0,0,0,0,0,0-.7,6.2-1.3,12.4-2,18.7-.9.3-1.8.5-2.7.8,1.5-6.4,3-12.8,4.5-19.3,0,0,0,0-.1,0-1.9,6.5-3.7,12.9-5.5,19.4,0,0,0,0-.1,0-.7.1-1.3.2-2,.3v.4c.6,0,1.3,0,1.9-.1-1.5,5.6-3.1,11.2-4.6,16.9-.6,0-1.1.1-1.7.1-.6,0-1.2,0-1.8,0v.2c.5,0,1.2.1,1.8.1.5,0,1,0,1.6,0,0,0,0,0,0,.1-1.7,6.2-3.3,12.4-5,18.7-.6,0-1.2.1-1.8.1-1,0-2,0-3.1,0,0,0-.2,0-.3,0v.2s.1,0,.2,0c1,.2,2.1.2,3.1.3.6,0,1.1,0,1.7,0,0,.1,0,.2,0,.3l-5.1,19.5-1.6,6.4c-.5,0-1,0-1.5,0-1.5,0-2.9,0-4.4-.2-.5,0-1.1-.2-1.6-.3h0c.5.3,1.1.4,1.6.5,1.5.3,2.9.3,4.4.3.5,0,.9,0,1.4,0l-3.2,12.7c-1,4.2-2.1,8.4-3.2,12.6-.7,0-1.3,0-2,.1-1.9,0-3.8,0-5.7-.2-.8-.1-1.6-.3-2.4-.5h0c.8.4,1.6.6,2.4.8,1.9.3,3.8.4,5.7.4.6,0,1.2,0,1.8,0-.5,2.1-1.1,4.2-1.6,6.3-1.3,5.1-2.5,10.2-3.7,15.3.4,0,.7,0,1.1,0,1.4-5,2.7-9.9,4-14.9.6-2.2,1.2-4.5,1.8-6.7,2.7-.2,5.4-.4,8-.8,3.4-.5,6.8-1.2,10.1-1.9,0,.6,0,1.2-.1,1.8-.4,6.4-.9,12.8-1.3,19.2.3,0,.6-.1.9-.2.6-6.3,1.2-12.6,1.8-18.9,0-.7.1-1.5.2-2.2,3.7-.9,7.3-1.9,10.9-2.9,2.9-.9,5.8-1.8,8.6-2.8,0,.2,0,.4,0,.5.9,6.4,1.7,12.8,2.7,19.1.3,0,.5-.2.8-.3-.6-6.4-1.3-12.7-2-19.1,0-.3,0-.5,0-.8,6.6-2.3,13-5,19.4-7.9.2.5.4,1,.6,1.6,2,5.5,4.1,10.9,6.2,16.4.3-.1.5-.3.8-.4-1.8-5.5-3.7-11-5.6-16.5-.2-.6-.4-1.1-.6-1.7,4.1-1.9,8.1-3.9,12.1-6,3.9-2.1,7.8-4.3,11.5-6.6.4.5.7.9,1.1,1.4,3.5,4.7,7,9.3,10.5,13.9.3-.2.5-.3.8-.5-3.3-4.8-6.7-9.6-10.1-14.3-.3-.5-.6-.9-1-1.3,6-3.7,11.8-7.6,17.4-11.7.2.2.4.3.6.5,4.9,4.1,9.8,8.3,14.7,12.4.2-.2.5-.3.7-.5-4.8-4.3-9.5-8.7-14.4-12.9-.1-.1-.3-.2-.4-.3,2.5-1.8,4.9-3.7,7.3-5.7,2.9-2.4,5.7-4.8,8.5-7.4.6.4,1.3.7,1.9,1.1,5.6,3.1,11.1,6.1,16.7,9.1.2-.2.5-.4.7-.6-5.5-3.3-11.1-6.5-16.6-9.7-.5-.3-1-.6-1.5-.9,2.5-2.4,5-4.8,7.3-7.4,1.8-2,3.6-4.1,5.2-6.2,2.2.8,4.4,1.5,6.6,2.3,4.9,1.7,9.7,3.3,14.6,5,.2-.3.4-.6.6-.9-4.9-1.8-9.8-3.6-14.7-5.4ZM105.4,20.7l18.9,6.8,5.7,2c-1.2,1.4-2.4,2.7-3.6,4-1.9,1.9-3.9,3.8-5.9,5.6l-7.5-4.2-14.4-8.1c1.5-1.4,2.9-2.8,4.2-4.3.6-.7,1.2-1.4,1.8-2.1.3,0,.5.2.8.3ZM86.9,34l.4.4c-1.5,1-2.9,2-4.4,3-1.2.8-2.5,1.6-3.7,2.3h0c-3.1-4.3-6.3-8.5-9.4-12.7,1.8-1.1,3.6-2.3,5.3-3.5,4,3.5,7.9,7.1,11.9,10.6ZM76.3,22.5c.9-.7,1.9-1.4,2.8-2.2.7-.6,1.3-1.1,2-1.7,5,2.9,10.1,5.8,15.2,8.7h.2c-1.1,1-2.2,1.9-3.3,2.8-1.4,1.1-2.8,2.1-4.2,3.1l-.7-.6c-4-3.4-7.9-6.8-11.9-10.2ZM77.7,40.6c-1.8,1.1-3.6,2.1-5.5,3-1.9,1-3.8,2-5.7,2.9-1.8-5-3.6-9.9-5.5-14.9,1.3-.6,2.5-1.2,3.8-1.9,1.2-.7,2.4-1.3,3.6-2,3,4.3,6.1,8.6,9.2,12.9ZM64.9,47.2h0c-1.3.7-2.6,1.2-3.9,1.8-1.7.7-3.3,1.4-5,2v-.5c-.8-5.3-1.4-10.6-2.1-15.8,2-.7,3.9-1.5,5.8-2.4,1.7,5,3.4,9.9,5.2,14.9ZM54.2,50.8v.9c-1.5.6-3.1,1.2-4.8,1.7-1.4.4-2.8.9-4.1,1.3v-.2c.4-5.8.9-11.6,1.3-17.5.8-.2,1.7-.4,2.5-.7,1.1-.3,2.2-.7,3.3-1.1.6,5.2,1.2,10.4,1.8,15.6ZM49.8,54.5c1.6-.5,3.1-1,4.7-1.5l1.8,14.8,1.1,8.5c-2.2.8-4.4,1.5-6.6,2.3-2.5.8-4.9,1.5-7.4,2.2l.7-8,1.3-17c1.5-.4,3-.8,4.5-1.2ZM58.1,67.5l-1.9-15.1c3.1-1.1,6.2-2.4,9.2-3.7l5.1,14.4,2.5,6.8c-1.9.9-3.7,1.7-5.6,2.5-2.7,1.2-5.5,2.3-8.3,3.3,0,0,0,0,0,0l-1-8.1ZM72.2,62.3l-5.2-14.5c2-.9,4-1.9,5.9-2.9,1.9-1,3.8-2.1,5.6-3.2l9,12.4,4.2,5.7c-2.8,1.6-5.5,3.2-8.4,4.7-2.9,1.5-5.8,3-8.8,4.4l-2.4-6.7ZM80.1,40.8c2.8-1.7,5.6-3.6,8.3-5.6l11.4,10,6.2,5.3c-2.4,1.7-4.8,3.4-7.3,4.9-1.8,1.1-3.6,2.3-5.4,3.4l-4.3-5.9-9-12.3ZM101.1,43.9l-11.3-9.7c1.3-1,2.7-2.1,4-3.1,1.2-1,2.4-2,3.5-3l14.8,8.4,7,3.9c-1.9,1.7-3.9,3.3-5.9,4.9-1.9,1.5-3.8,2.9-5.7,4.3l-6.4-5.6ZM86.5,13.8c5.8,2.2,11.7,4.3,17.5,6.4-.6.6-1.1,1.2-1.7,1.8-1.5,1.5-3,2.9-4.5,4.3l-.7-.4c-5-2.8-9.9-5.5-14.9-8.3,1.1-1,2.1-2,3.1-3.1.3-.3.5-.6.8-.9.2,0,.3.1.5.2ZM69.3,7.4c5.4,2,10.8,4,16.2,6-.2.2-.4.5-.7.7-1.1,1.1-2.2,2.1-3.3,3.1-.1,0-.3-.1-.4-.2-4.6-2.5-9.2-5-13.8-7.5.7-.6,1.4-1.3,2.1-2ZM66.2,10.3c0,0,.1-.1.2-.2,4.6,2.7,9.2,5.4,13.8,8.1-.6.5-1.2,1-1.8,1.4-1,.8-2,1.5-3,2.2-.1-.1-.3-.2-.4-.3-3.7-3.2-7.4-6.3-11.2-9.4.8-.6,1.5-1.2,2.3-1.8ZM63.1,12.8c3.7,3.3,7.3,6.6,11,9.9,0,0,0,0,.1.1-.9.6-1.7,1.2-2.6,1.8-.8.5-1.7,1.1-2.5,1.6-2.9-3.9-5.8-7.7-8.7-11.6.9-.6,1.9-1.2,2.7-1.8ZM55.6,17.1c.7-.3,1.3-.7,2-1,.6-.3,1.3-.7,1.9-1.1,2.8,3.9,5.5,7.9,8.3,11.8-1.2.7-2.3,1.3-3.5,1.9-1.2.6-2.4,1.3-3.6,1.9-1.7-4.5-3.4-9-5.1-13.5ZM51.7,18.8c1-.4,2-.8,3-1.3,1.5,4.6,3.1,9.2,4.7,13.7-.9.4-1.7.8-2.6,1.2-1,.4-2,.8-3,1.2,0,0,0-.1,0-.2-.7-4.9-1.3-9.8-2-14.7ZM47.7,20.1c.1,0,.2,0,.3,0,.9-.3,1.8-.6,2.7-.9.5,4.9,1,9.7,1.5,14.6,0,.2,0,.3,0,.5-1.1.4-2.3.8-3.5,1.2-.7.2-1.5.5-2.2.7.4-5.3.7-10.7,1.1-16ZM43.9,21c.9-.2,1.9-.3,2.8-.6-.5,5.2-1,10.5-1.5,15.7,0,.1,0,.3,0,.4-1.5.4-2.9.7-4.4,1-.3,0-.6.1-1,.2,1.4-5.6,2.7-11.2,4.1-16.8ZM39.5,38.8c0-.2,0-.4.1-.5.4,0,.8,0,1.1-.1,1.4-.2,2.9-.5,4.3-.8-.5,5.7-1,11.4-1.5,17v.8c-2.1.5-4.1,1-6.1,1.4-.8.2-1.6.3-2.5.4,1.5-6,3-12.1,4.5-18.1ZM29.7,77.8l5-19.5c0-.3.1-.5.2-.8.9,0,1.8-.2,2.7-.3,2-.3,3.9-.6,5.8-1.1l-1.4,16.5-.7,8.6c-2.6.7-5.2,1.2-7.9,1.7-1.8.3-3.5.6-5.3.8l1.5-5.8ZM39.5,106.1c-3.4.9-6.9,1.6-10.3,2.3-2.6.5-5.2.8-7.8,1.1,1.1-4,2.1-8.1,3.2-12.1l3.4-13.1c1.9-.1,3.7-.3,5.5-.6,2.6-.4,5.2-.9,7.7-1.5l-.7,8.7c-.4,5.1-.8,10.2-1.1,15.2ZM60.3,99.7c-2.9,1.1-5.8,2.1-8.8,3-3.5,1.1-6.9,2.1-10.4,3,.4-4.9.9-9.8,1.3-14.8l.8-9.2c2.6-.6,5.2-1.3,7.8-2.1,2.2-.6,4.3-1.3,6.5-2.1l.9,7.3c.6,5,1.3,9.9,1.9,14.9ZM80.7,91.2c-2.5,1.2-5,2.3-7.6,3.4-3.5,1.5-7.1,2.9-10.7,4.3-.2,0-.4.2-.6.2-.5-4.9-1.1-9.7-1.7-14.6l-.9-7.6c4.8-1.7,9.5-3.7,14.2-5.8l2.7,7.6c1.5,4.2,3,8.3,4.6,12.5ZM94,84.6c-3.9,2.1-7.9,4.1-11.9,6-1.4-4.1-2.9-8.3-4.3-12.4l-2.7-7.8c3-1.4,6-2.9,9-4.5,2.9-1.5,5.7-3.2,8.5-4.8l4.9,6.6c2.6,3.5,5.2,7.1,7.9,10.6-3.7,2.2-7.5,4.4-11.3,6.4ZM123.5,66.4c-3.1,2.2-6.3,4.4-9.6,6.5-2.4,1.6-4.8,3.1-7.2,4.5-2.6-3.6-5.2-7.2-7.8-10.8l-4.7-6.5c4.4-2.7,8.6-5.5,12.8-8.6l5.8,5c3.7,3.2,7.4,6.4,11.2,9.6-.1.1-.3.2-.4.3ZM132.7,59.4c-2.5,2-5,3.9-7.6,5.7-3.7-3.3-7.5-6.6-11.2-9.9l-5.5-4.8c1.8-1.4,3.7-2.8,5.4-4.3,2.1-1.7,4.1-3.5,6.1-5.3l8,4.5c4.3,2.4,8.6,4.8,13,7.2-2.7,2.4-5.5,4.7-8.3,6.9ZM149.9,44.1c-2.5,2.6-5,5-7.7,7.4-4.4-2.6-8.8-5.1-13.2-7.6l-7.6-4.3c1.9-1.8,3.8-3.7,5.6-5.6,1.2-1.4,2.5-2.8,3.6-4.3l12.8,4.5c3.9,1.4,7.9,2.7,11.8,4.1-1.7,2-3.4,4-5.2,5.8Z"/>
      </g>
    </g>
  </g>
</svg>