<?xml version="1.0" encoding="UTF-8"?>
<svg id="Calque_1" xmlns="http://www.w3.org/2000/svg" version="1.1" viewBox="0 0 617 617">
  <!-- Generator: Adobe Illustrator 29.8.3, SVG Export Plug-In . SVG Version: 2.1.1 Build 3)  -->
  <defs>
    <style>
      .st0 {
        stroke-width: .6px;
      }

      .st0, .st1 {
        stroke: #000;
        stroke-miterlimit: 10;
      }

      .st2 {
        fill: #39b54a;
      }

      .st3 {
        fill: #007337;
      }

      .st1 {
        fill: #e2e2e2;
        stroke-width: .7px;
      }
    </style>
  </defs>
  <rect class="st1" x=".3" y=".3" width="616.3" height="616.3" rx="23.1" ry="23.1"/>
  <rect class="st0" x="10.6" y="10.1" width="594.9" height="594.9" rx="23.1" ry="23.1"/>
  <rect class="st2" x="29.7" y="25.9" width="64.8" height="64.8" rx="19.3" ry="19.3"/>
  <rect class="st3" x="100.9" y="25.9" width="64.8" height="64.8" rx="19.3" ry="19.3"/>
  <rect class="st2" x="172.1" y="25.9" width="64.8" height="64.8" rx="19.3" ry="19.3"/>
  <rect class="st3" x="243.3" y="25.9" width="64.8" height="64.8" rx="19.3" ry="19.3"/>
  <rect class="st3" x="29.7" y="96.4" width="64.8" height="64.8" rx="19.3" ry="19.3"/>
  <rect class="st2" x="100.9" y="96.4" width="64.8" height="64.8" rx="19.3" ry="19.3"/>
  <rect class="st3" x="172.1" y="96.4" width="64.8" height="64.8" rx="19.3" ry="19.3"/>
  <rect class="st2" x="243.3" y="96.4" width="64.8" height="64.8" rx="19.3" ry="19.3"/>
  <rect class="st2" x="29.7" y="167" width="64.8" height="64.8" rx="19.3" ry="19.3"/>
  <rect class="st3" x="100.9" y="167" width="64.8" height="64.8" rx="19.3" ry="19.3"/>
  <rect class="st2" x="172.1" y="167" width="64.8" height="64.8" rx="19.3" ry="19.3"/>
  <rect class="st3" x="243.3" y="167" width="64.8" height="64.8" rx="19.3" ry="19.3"/>
  <rect class="st3" x="29.7" y="237.5" width="64.8" height="64.8" rx="19.3" ry="19.3"/>
  <rect class="st2" x="100.9" y="237.5" width="64.8" height="64.8" rx="19.3" ry="19.3"/>
  <rect class="st3" x="172.1" y="237.5" width="64.8" height="64.8" rx="19.3" ry="19.3"/>
  <rect class="st2" x="243.3" y="237.5" width="64.8" height="64.8" rx="19.3" ry="19.3"/>
  <rect class="st2" x="314.5" y="25.4" width="64.8" height="64.8" rx="19.3" ry="19.3"/>
  <rect class="st3" x="385.7" y="25.4" width="64.8" height="64.8" rx="19.3" ry="19.3"/>
  <rect class="st2" x="456.9" y="25.4" width="64.8" height="64.8" rx="19.3" ry="19.3"/>
  <rect class="st3" x="528.1" y="25.4" width="64.8" height="64.8" rx="19.3" ry="19.3"/>
  <rect class="st3" x="314.5" y="96" width="64.8" height="64.8" rx="19.3" ry="19.3"/>
  <rect class="st2" x="385.7" y="96" width="64.8" height="64.8" rx="19.3" ry="19.3"/>
  <rect class="st3" x="456.9" y="96" width="64.8" height="64.8" rx="19.3" ry="19.3"/>
  <rect class="st2" x="528.1" y="96" width="64.8" height="64.8" rx="19.3" ry="19.3"/>
  <rect class="st2" x="314.5" y="166.5" width="64.8" height="64.8" rx="19.3" ry="19.3"/>
  <rect class="st3" x="385.7" y="166.5" width="64.8" height="64.8" rx="19.3" ry="19.3"/>
  <rect class="st2" x="456.9" y="166.5" width="64.8" height="64.8" rx="19.3" ry="19.3"/>
  <rect class="st3" x="528.1" y="166.5" width="64.8" height="64.8" rx="19.3" ry="19.3"/>
  <rect class="st3" x="314.5" y="237" width="64.8" height="64.8" rx="19.3" ry="19.3"/>
  <rect class="st2" x="385.7" y="237" width="64.8" height="64.8" rx="19.3" ry="19.3"/>
  <rect class="st3" x="456.9" y="237" width="64.8" height="64.8" rx="19.3" ry="19.3"/>
  <rect class="st2" x="528.1" y="237" width="64.8" height="64.8" rx="19.3" ry="19.3"/>
  <rect class="st2" x="29.7" y="308.5" width="64.8" height="64.8" rx="19.3" ry="19.3"/>
  <rect class="st3" x="100.9" y="308.5" width="64.8" height="64.8" rx="19.3" ry="19.3"/>
  <rect class="st2" x="172.1" y="308.5" width="64.8" height="64.8" rx="19.3" ry="19.3"/>
  <rect class="st3" x="243.3" y="308.5" width="64.8" height="64.8" rx="19.3" ry="19.3"/>
  <rect class="st3" x="29.7" y="379" width="64.8" height="64.8" rx="19.3" ry="19.3"/>
  <rect class="st2" x="100.9" y="379" width="64.8" height="64.8" rx="19.3" ry="19.3"/>
  <rect class="st3" x="172.1" y="379" width="64.8" height="64.8" rx="19.3" ry="19.3"/>
  <rect class="st2" x="243.3" y="379" width="64.8" height="64.8" rx="19.3" ry="19.3"/>
  <rect class="st2" x="29.7" y="449.5" width="64.8" height="64.8" rx="19.3" ry="19.3"/>
  <rect class="st3" x="100.9" y="449.5" width="64.8" height="64.8" rx="19.3" ry="19.3"/>
  <rect class="st2" x="172.1" y="449.5" width="64.8" height="64.8" rx="19.3" ry="19.3"/>
  <rect class="st3" x="243.3" y="449.5" width="64.8" height="64.8" rx="19.3" ry="19.3"/>
  <rect class="st3" x="29.7" y="520.1" width="64.8" height="64.8" rx="19.3" ry="19.3"/>
  <rect class="st2" x="100.9" y="520.1" width="64.8" height="64.8" rx="19.3" ry="19.3"/>
  <rect class="st3" x="172.1" y="520.1" width="64.8" height="64.8" rx="19.3" ry="19.3"/>
  <rect class="st2" x="243.3" y="520.1" width="64.8" height="64.8" rx="19.3" ry="19.3"/>
  <rect class="st2" x="314.5" y="308" width="64.8" height="64.8" rx="19.3" ry="19.3"/>
  <rect class="st3" x="385.7" y="308" width="64.8" height="64.8" rx="19.3" ry="19.3"/>
  <rect class="st2" x="456.9" y="308" width="64.8" height="64.8" rx="19.3" ry="19.3"/>
  <rect class="st3" x="528.1" y="308" width="64.8" height="64.8" rx="19.3" ry="19.3"/>
  <rect class="st3" x="314.5" y="378.5" width="64.8" height="64.8" rx="19.3" ry="19.3"/>
  <rect class="st2" x="385.7" y="378.5" width="64.8" height="64.8" rx="19.3" ry="19.3"/>
  <rect class="st3" x="456.9" y="378.5" width="64.8" height="64.8" rx="19.3" ry="19.3"/>
  <rect class="st2" x="528.1" y="378.5" width="64.8" height="64.8" rx="19.3" ry="19.3"/>
  <rect class="st2" x="314.5" y="449.1" width="64.8" height="64.8" rx="19.3" ry="19.3"/>
  <rect class="st3" x="385.7" y="449.1" width="64.8" height="64.8" rx="19.3" ry="19.3"/>
  <rect class="st2" x="456.9" y="449.1" width="64.8" height="64.8" rx="19.3" ry="19.3"/>
  <rect class="st3" x="528.1" y="449.1" width="64.8" height="64.8" rx="19.3" ry="19.3"/>
  <rect class="st3" x="314.5" y="519.6" width="64.8" height="64.8" rx="19.3" ry="19.3"/>
  <rect class="st2" x="385.7" y="519.6" width="64.8" height="64.8" rx="19.3" ry="19.3"/>
  <rect class="st3" x="456.9" y="519.6" width="64.8" height="64.8" rx="19.3" ry="19.3"/>
  <rect class="st2" x="528.1" y="519.6" width="64.8" height="64.8" rx="19.3" ry="19.3"/>
  <circle cx="168.9" cy="164.1" r="17.3"/>
  <circle cx="453.7" cy="163.6" r="17.3"/>
  <circle cx="168.9" cy="446.7" r="17.3"/>
  <circle cx="453.7" cy="446.2" r="17.3"/>
</svg>