<?xml version="1.0" encoding="UTF-8"?>
<svg id="Calque_80" xmlns="http://www.w3.org/2000/svg" version="1.1" viewBox="0 0 617 617">
  <!-- Generator: Adobe Illustrator 29.8.3, SVG Export Plug-In . SVG Version: 2.1.1 Build 3)  -->
  <defs>
    <style>
      .st0 {
        fill: #39b54a;
      }

      .st1, .st2 {
        fill: #fff;
      }

      .st3 {
        fill: #007337;
      }

      .st4 {
        fill: #e2e2e2;
        stroke: #000;
        stroke-miterlimit: 10;
        stroke-width: .7px;
      }

      .st5 {
        display: none;
      }

      .st2 {
        font-family: InriaSans-Bold, 'Inria Sans';
        font-size: 24px;
        font-weight: 700;
      }
    </style>
  </defs>
  <g id="Calque_1">
    <g id="Calque_4">
      <g id="Calque_5">
        <g id="Calque_6">
          <g id="Calque_7">
            <g id="Calque_77" class="st5">
              <rect class="st4" x=".3" y=".3" width="616.3" height="616.3" rx="23.1" ry="23.1"/>
            </g>
            <g id="Calque_76">
              <g>
                <path d="M29.3,4.2h558.6c13.6,0,24.7,11,24.7,24.7v558.6c0,13.6-11,24.7-24.7,24.7H29.3c-13.6,0-24.7-11-24.7-24.7V28.8C4.7,15.2,15.7,4.2,29.3,4.2Z"/>
                <path class="st1" d="M587.9,5.7c12.8,0,23.1,10.4,23.1,23.1v558.6c0,12.8-10.4,23.1-23.1,23.1H29.3c-12.8,0-23.1-10.4-23.1-23.1V28.8c0-12.8,10.4-23.1,23.1-23.1h558.6M587.9,2.6H29.3C14.9,2.6,3.2,14.4,3.2,28.8v558.6c0,14.4,11.7,26.2,26.2,26.2h558.6c14.4,0,26.2-11.7,26.2-26.2V28.8c0-14.4-11.7-26.2-26.2-26.2h0Z"/>
              </g>
            </g>
          </g>
          <g id="Calque_78">
            <g id="Calque_75">
              <rect class="st0" x="27" y="28" width="64.8" height="64.8" rx="19.3" ry="19.3"/>
            </g>
            <g id="Calque_74">
              <rect class="st3" x="98.2" y="28" width="64.8" height="64.8" rx="19.3" ry="19.3"/>
            </g>
            <g id="Calque_73">
              <rect class="st0" x="169.4" y="28" width="64.8" height="64.8" rx="19.3" ry="19.3"/>
            </g>
            <g id="Calque_72">
              <rect class="st3" x="240.6" y="28" width="64.8" height="64.8" rx="19.3" ry="19.3"/>
            </g>
            <g id="Calque_71">
              <rect class="st3" x="27" y="98.6" width="64.8" height="64.8" rx="19.3" ry="19.3"/>
            </g>
            <g id="Calque_70">
              <rect class="st0" x="98.2" y="98.6" width="64.8" height="64.8" rx="19.3" ry="19.3"/>
            </g>
            <g id="Calque_69">
              <rect class="st3" x="169.4" y="98.6" width="64.8" height="64.8" rx="19.3" ry="19.3"/>
            </g>
            <g id="Calque_68">
              <rect class="st0" x="240.6" y="98.6" width="64.8" height="64.8" rx="19.3" ry="19.3"/>
            </g>
            <g id="Calque_67">
              <rect class="st0" x="27" y="169.1" width="64.8" height="64.8" rx="19.3" ry="19.3"/>
            </g>
            <g id="Calque_66">
              <rect class="st3" x="98.2" y="169.1" width="64.8" height="64.8" rx="19.3" ry="19.3"/>
            </g>
            <g id="Calque_65">
              <rect class="st0" x="169.4" y="169.1" width="64.8" height="64.8" rx="19.3" ry="19.3"/>
            </g>
            <g id="Calque_64">
              <rect class="st3" x="240.6" y="169.1" width="64.8" height="64.8" rx="19.3" ry="19.3"/>
            </g>
            <g id="Calque_63">
              <rect class="st3" x="27" y="239.6" width="64.8" height="64.8" rx="19.3" ry="19.3"/>
            </g>
            <g id="Calque_62">
              <rect class="st0" x="98.2" y="239.6" width="64.8" height="64.8" rx="19.3" ry="19.3"/>
            </g>
            <g id="Calque_61">
              <rect class="st3" x="169.4" y="239.6" width="64.8" height="64.8" rx="19.3" ry="19.3"/>
            </g>
            <g id="Calque_60">
              <rect class="st0" x="240.6" y="239.6" width="64.8" height="64.8" rx="19.3" ry="19.3"/>
            </g>
            <g id="Calque_59">
              <rect class="st0" x="311.8" y="27.6" width="64.8" height="64.8" rx="19.3" ry="19.3"/>
            </g>
            <g id="Calque_58">
              <rect class="st3" x="383" y="27.6" width="64.8" height="64.8" rx="19.3" ry="19.3"/>
            </g>
            <g id="Calque_57">
              <rect class="st0" x="454.2" y="27.6" width="64.8" height="64.8" rx="19.3" ry="19.3"/>
            </g>
            <g id="Calque_56">
              <rect class="st3" x="525.4" y="27.6" width="64.8" height="64.8" rx="19.3" ry="19.3"/>
            </g>
            <g id="Calque_55">
              <rect class="st3" x="311.8" y="98.1" width="64.8" height="64.8" rx="19.3" ry="19.3"/>
            </g>
            <g id="Calque_54">
              <rect class="st0" x="383" y="98.1" width="64.8" height="64.8" rx="19.3" ry="19.3"/>
            </g>
            <g id="Calque_53">
              <rect class="st3" x="454.2" y="98.1" width="64.8" height="64.8" rx="19.3" ry="19.3"/>
            </g>
            <g id="Calque_52">
              <rect class="st0" x="525.4" y="98.1" width="64.8" height="64.8" rx="19.3" ry="19.3"/>
            </g>
            <g id="Calque_51">
              <rect class="st0" x="311.8" y="168.6" width="64.8" height="64.8" rx="19.3" ry="19.3"/>
            </g>
            <g id="Calque_50">
              <rect class="st3" x="383" y="168.6" width="64.8" height="64.8" rx="19.3" ry="19.3"/>
            </g>
            <g id="Calque_49">
              <rect class="st0" x="454.2" y="168.6" width="64.8" height="64.8" rx="19.3" ry="19.3"/>
            </g>
            <g id="Calque_48">
              <rect class="st3" x="525.4" y="168.6" width="64.8" height="64.8" rx="19.3" ry="19.3"/>
            </g>
            <g id="Calque_47">
              <rect class="st3" x="311.8" y="239.2" width="64.8" height="64.8" rx="19.3" ry="19.3"/>
            </g>
            <g id="Calque_46">
              <rect class="st0" x="383" y="239.2" width="64.8" height="64.8" rx="19.3" ry="19.3"/>
            </g>
            <g id="Calque_45">
              <rect class="st3" x="454.2" y="239.2" width="64.8" height="64.8" rx="19.3" ry="19.3"/>
            </g>
            <g id="Calque_44">
              <rect class="st0" x="525.4" y="239.2" width="64.8" height="64.8" rx="19.3" ry="19.3"/>
            </g>
            <g id="Calque_43">
              <rect class="st0" x="27" y="310.6" width="64.8" height="64.8" rx="19.3" ry="19.3"/>
            </g>
            <g id="Calque_42">
              <rect class="st3" x="98.2" y="310.6" width="64.8" height="64.8" rx="19.3" ry="19.3"/>
            </g>
            <g id="Calque_41">
              <rect class="st0" x="169.4" y="310.6" width="64.8" height="64.8" rx="19.3" ry="19.3"/>
            </g>
            <g id="Calque_40">
              <rect class="st3" x="240.6" y="310.6" width="64.8" height="64.8" rx="19.3" ry="19.3"/>
            </g>
            <g id="Calque_39">
              <rect class="st3" x="27" y="381.2" width="64.8" height="64.8" rx="19.3" ry="19.3"/>
            </g>
            <g id="Calque_38">
              <rect class="st0" x="98.2" y="381.2" width="64.8" height="64.8" rx="19.3" ry="19.3"/>
            </g>
            <g id="Calque_37">
              <rect class="st3" x="169.4" y="381.2" width="64.8" height="64.8" rx="19.3" ry="19.3"/>
            </g>
            <g id="Calque_36">
              <rect class="st0" x="240.6" y="381.2" width="64.8" height="64.8" rx="19.3" ry="19.3"/>
            </g>
            <g id="Calque_35">
              <rect class="st0" x="27" y="451.7" width="64.8" height="64.8" rx="19.3" ry="19.3"/>
            </g>
            <g id="Calque_34">
              <rect class="st3" x="98.2" y="451.7" width="64.8" height="64.8" rx="19.3" ry="19.3"/>
            </g>
            <g id="Calque_33">
              <rect class="st0" x="169.4" y="451.7" width="64.8" height="64.8" rx="19.3" ry="19.3"/>
            </g>
            <g id="Calque_32">
              <rect class="st3" x="240.6" y="451.7" width="64.8" height="64.8" rx="19.3" ry="19.3"/>
            </g>
            <g id="Calque_31">
              <rect class="st3" x="27" y="522.2" width="64.8" height="64.8" rx="19.3" ry="19.3"/>
            </g>
            <g id="Calque_30">
              <rect class="st0" x="98.2" y="522.2" width="64.8" height="64.8" rx="19.3" ry="19.3"/>
            </g>
            <g id="Calque_29">
              <rect class="st3" x="169.4" y="522.2" width="64.8" height="64.8" rx="19.3" ry="19.3"/>
            </g>
            <g id="Calque_28">
              <rect class="st0" x="240.6" y="522.2" width="64.8" height="64.8" rx="19.3" ry="19.3"/>
            </g>
            <g id="Calque_27">
              <rect class="st0" x="311.8" y="310.2" width="64.8" height="64.8" rx="19.3" ry="19.3"/>
            </g>
            <g id="Calque_26">
              <rect class="st3" x="383" y="310.2" width="64.8" height="64.8" rx="19.3" ry="19.3"/>
            </g>
            <g id="Calque_25">
              <rect class="st0" x="454.2" y="310.2" width="64.8" height="64.8" rx="19.3" ry="19.3"/>
            </g>
            <g id="Calque_24">
              <rect class="st3" x="525.4" y="310.2" width="64.8" height="64.8" rx="19.3" ry="19.3"/>
            </g>
            <g id="Calque_23">
              <rect class="st3" x="311.8" y="380.7" width="64.8" height="64.8" rx="19.3" ry="19.3"/>
            </g>
            <g id="Calque_22">
              <rect class="st0" x="383" y="380.7" width="64.8" height="64.8" rx="19.3" ry="19.3"/>
            </g>
            <g id="Calque_21">
              <rect class="st3" x="454.2" y="380.7" width="64.8" height="64.8" rx="19.3" ry="19.3"/>
            </g>
            <g id="Calque_20">
              <rect class="st0" x="525.4" y="380.7" width="64.8" height="64.8" rx="19.3" ry="19.3"/>
            </g>
            <g id="Calque_19">
              <rect class="st0" x="311.8" y="451.2" width="64.8" height="64.8" rx="19.3" ry="19.3"/>
            </g>
            <g id="Calque_18">
              <rect class="st3" x="383" y="451.2" width="64.8" height="64.8" rx="19.3" ry="19.3"/>
            </g>
            <g id="Calque_17">
              <rect class="st0" x="454.2" y="451.2" width="64.8" height="64.8" rx="19.3" ry="19.3"/>
            </g>
            <g id="Calque_16">
              <rect class="st3" x="525.4" y="451.2" width="64.8" height="64.8" rx="19.3" ry="19.3"/>
            </g>
            <g id="Calque_15">
              <rect class="st3" x="311.8" y="521.7" width="64.8" height="64.8" rx="19.3" ry="19.3"/>
            </g>
            <g id="Calque_14">
              <rect class="st0" x="383" y="521.7" width="64.8" height="64.8" rx="19.3" ry="19.3"/>
            </g>
            <g id="Calque_13">
              <rect class="st3" x="454.2" y="521.7" width="64.8" height="64.8" rx="19.3" ry="19.3"/>
            </g>
            <g id="Calque_12">
              <rect class="st0" x="525.4" y="521.7" width="64.8" height="64.8" rx="19.3" ry="19.3"/>
            </g>
            <g id="Calque_11">
              <circle cx="166.2" cy="166.2" r="17.3"/>
            </g>
            <g id="Calque_10">
              <circle cx="451" cy="165.8" r="17.3"/>
            </g>
            <g id="Calque_9">
              <circle cx="166.2" cy="448.8" r="17.3"/>
            </g>
            <g id="Calque_8">
              <circle cx="451" cy="448.4" r="17.3"/>
            </g>
          </g>
        </g>
      </g>
    </g>
  </g>
  <g id="Calque_2">
    <text class="st2" transform="translate(13.4 65.6)"><tspan x="0" y="0">1</tspan></text>
    <text class="st2" transform="translate(11.9 136.1)"><tspan x="0" y="0">2</tspan></text>
    <text class="st2" transform="translate(11.9 206.7)"><tspan x="0" y="0">3</tspan></text>
    <text class="st2" transform="translate(11.6 277.2)"><tspan x="0" y="0">4</tspan></text>
    <text class="st2" transform="translate(11.7 348.2)"><tspan x="0" y="0">5</tspan></text>
    <text class="st2" transform="translate(11.1 418.7)"><tspan x="0" y="0">6</tspan></text>
    <text class="st2" transform="translate(12.4 489.2)"><tspan x="0" y="0">7</tspan></text>
    <text class="st2" transform="translate(11.2 559.8)"><tspan x="0" y="0">8</tspan></text>
    <text class="st2" transform="translate(594.8 68.2)"><tspan x="0" y="0">1</tspan></text>
    <text class="st2" transform="translate(593.2 138.7)"><tspan x="0" y="0">2</tspan></text>
    <text class="st2" transform="translate(593.3 209.3)"><tspan x="0" y="0">3</tspan></text>
    <text class="st2" transform="translate(593 279.8)"><tspan x="0" y="0">4</tspan></text>
    <text class="st2" transform="translate(593.1 350.8)"><tspan x="0" y="0">5</tspan></text>
    <text class="st2" transform="translate(592.5 421.3)"><tspan x="0" y="0">6</tspan></text>
    <text class="st2" transform="translate(593.7 491.9)"><tspan x="0" y="0">7</tspan></text>
    <text class="st2" transform="translate(592.6 562.4)"><tspan x="0" y="0">8</tspan></text>
  </g>
  <g id="Calque_2_-_copie">
    <text class="st2" transform="translate(53.7 607.3)"><tspan x="0" y="0">A</tspan></text>
    <text class="st2" transform="translate(125.5 607.3)"><tspan x="0" y="0">B</tspan></text>
    <text class="st2" transform="translate(197.6 607.3)"><tspan x="0" y="0">C</tspan></text>
    <text class="st2" transform="translate(267.9 607.3)"><tspan x="0" y="0">D</tspan></text>
    <text class="st2" transform="translate(340.7 607.3)"><tspan x="0" y="0">E</tspan></text>
    <text class="st2" transform="translate(412.6 607.3)"><tspan x="0" y="0">F</tspan></text>
    <text class="st2" transform="translate(483 607.3)"><tspan x="0" y="0">G</tspan></text>
    <text class="st2" transform="translate(553.6 607.3)"><tspan x="0" y="0">H</tspan></text>
  </g>
  <g id="Calque_2_-_copie_2">
    <text class="st2" transform="translate(47.8 24.9)"><tspan x="0" y="0">A</tspan></text>
    <text class="st2" transform="translate(119.5 24.9)"><tspan x="0" y="0">B</tspan></text>
    <text class="st2" transform="translate(191.7 24.9)"><tspan x="0" y="0">C</tspan></text>
    <text class="st2" transform="translate(262 24.9)"><tspan x="0" y="0">D</tspan></text>
    <text class="st2" transform="translate(334.8 24.9)"><tspan x="0" y="0">E</tspan></text>
    <text class="st2" transform="translate(406.7 24.9)"><tspan x="0" y="0">F</tspan></text>
    <text class="st2" transform="translate(477.1 24.9)"><tspan x="0" y="0">G</tspan></text>
    <text class="st2" transform="translate(547.7 24.9)"><tspan x="0" y="0">H</tspan></text>
  </g>
</svg>