<?xml version="1.0" encoding="UTF-8"?>
<svg xmlns="http://www.w3.org/2000/svg" version="1.1" viewBox="0 0 206.3 153.1">
  <!-- Generator: Adobe Illustrator 29.8.3, SVG Export Plug-In . SVG Version: 2.1.1 Build 3)  -->
  <defs>
    <style>
      .st0 {
        fill: #f79c79;
      }

      .st1 {
        fill: #acb119;
      }

      .st2 {
        fill: #9a9faf;
      }

      .st3 {
        fill: #fedd7c;
      }

      .st4 {
        fill: #f0b818;
      }

      .st5 {
        fill: #2b373f;
      }

      .st6 {
        fill: #ccc;
      }

      .st6, .st7 {
        mix-blend-mode: multiply;
      }

      .st8 {
        fill: #e87187;
      }

      .st9 {
        fill: #eff7fa;
      }

      .st10 {
        fill: #fff;
      }

      .st11 {
        fill: #734833;
      }

      .st12 {
        fill: #e8e4e6;
      }

      .st13 {
        fill: #e9e4e3;
      }

      .st14 {
        fill: #d48252;
      }

      .st15 {
        fill: #b0b5ca;
      }

      .st16 {
        fill: none;
      }

      .st17 {
        fill: #82523b;
      }

      .st18 {
        fill: #9aa420;
      }

      .st19 {
        fill: #808593;
      }

      .st20 {
        fill: #e0e0e0;
      }

      .st21, .st22 {
        fill: #feca35;
      }

      .st23 {
        fill: #b5b0ae;
      }

      .st24 {
        isolation: isolate;
      }

      .st25 {
        fill: #52576b;
      }

      .st26 {
        fill: #72892a;
      }

      .st27 {
        fill: #dbdbdb;
      }

      .st28 {
        fill: #60782a;
      }

      .st29 {
        fill: #cfc9c7;
      }

      .st30 {
        fill: #f7af6b;
      }

      .st31 {
        fill: #603813;
      }

      .st32 {
        fill: #0c121c;
      }

      .st33 {
        fill: #ded7d5;
      }

      .st34 {
        fill: #d9d5d7;
      }

      .st35 {
        fill: #ff503f;
      }

      .st36 {
        fill: #bc6174;
      }

      .st37 {
        fill: #ffb091;
      }

      .st38 {
        fill: #a4a2a1;
      }

      .st39 {
        fill: #a25e41;
      }

      .st40 {
        fill: #ff6e6e;
      }

      .st41 {
        fill: #f39844;
      }

      .st42 {
        fill: #a7473f;
      }

      .st43 {
        fill: #324049;
      }

      .st22 {
        display: none;
      }

      .st44 {
        fill: #6eb07a;
      }

      .st45 {
        fill: #c7c3c2;
      }

      .st46 {
        fill: #eb4a39;
      }

      .st47 {
        fill: #111016;
      }

      .st48 {
        fill: #ededed;
      }

      .st49 {
        fill: #1a272e;
      }

      .st50 {
        fill: #d47b37;
      }

      .st51 {
        fill: #434657;
      }

      .st52 {
        fill: #7dc88b;
      }

      .st53 {
        fill: #e2edf5;
      }
    </style>
  </defs>
  <g class="st24">
    <g id="Calque_3">
      <g>
        <path class="st41" d="M205.6,101.2l-26.5-7.5-11.8,7.3c-5-2.6,3.5,8.4-2,6.5-9.4-3.1-18.9-5.9-28.4-8.6-7.1-2-35.5-4.6-56.8-2.8-13.2,1.2-25.5,6.7-38.1,10.7-7,2.2,3.7-9.4-2.9-6.2l-16.5,3.3-20.7,6.2c1.7,1.9,6.6,24.2,6.6,24.2h0c.3,2,7.3-.8,9.4-1,1.8-.1,6.2.3,10.6.5.6,3,1.1,6.2,1.3,9.4,0,0,0,.1,0,.2h0c.1,1.1,1.3,2.1,4.1,2.9,10.2,2.9,21.9,1.9,32.3,2.7,8.3.6,16.3,0,24.5-.2,8.6-.3,16.6,2.6,25,3.6,1.9.2,3.8.9,5.8.7,2.6-.3,3.1-2,4.7-2.9,3.5-2,8.3-.6,12.1-.3,4.3.3,8.3,1,12.4.6,3.8-.4,7.6,1,11.2-.1,3.5-1.1,6.4-3.9,9.9-5.2,1.8-.7,8-2.4,7.8-5.1,0,0,.9-5.4,2.2-11.5,1.5-.2,3-.4,4.5-.9,3.1-.9,9.4.5,11.9-1.1.7-.5,1.1-.9,1.2-1.4h0s0,0,0,0c0-.3,0-.5,0-.8-.1-3.5-.2-17.5,6.1-23.2Z"/>
        <polygon class="st41" points="14.9 99.2 0 100.1 3.9 108.9 14.9 99.2"/>
        <path class="st30" d="M59.3,133.5c-1.6-5.9-7.6-4.7-12.6-3.5-1.9.3-3.8.5-5.7.5-1.1,0-2.2,0-3.4,0-1,0-2.4-.3-3.3,0-2.7,1.1-.3,7.3.7,8.9,3.2,5.1,11.5,4.5,16.7,4,2-.2,5.2-.1,6.6-1.7,1.9-2.1,1.6-5.8.9-8.3Z"/>
        <path class="st30" d="M103.7,134.5c-2-5.5-9.7-4.4-15.9-3.3-2.4.3-4.8.5-7.2.5-1.4,0-2.8,0-4.3,0-1.2,0-3-.3-4.1,0-3.4,1-.4,6.9.9,8.4,4.1,4.8,14.5,4.2,21.1,3.8,2.5-.2,6.6-.1,8.3-1.6,2.4-2,2.1-5.5,1.2-7.9Z"/>
        <path class="st30" d="M118.4,135.5c-.1-.1-.3-.2-.4-.3-1-.6-3.2-.2-4.1.4-1.2.7-1.7,2.1-2,3.5-.5,2.7.5,5.6,2.6,7.3,1,.9,2.5,1.5,3.8,1.6,5.4.2,3.1-10.1.1-12.5Z"/>
        <path class="st30" d="M148.5,134.4c-.2-.4-.6-.7-1.1-1-1.6-.8-3.3.1-4.8.4-2,.3-4.1.1-6-.1-1.7-.2-4.1-.8-5.6.3-1.4,1-1.4,3.2-1.4,4.7-.2,5.3,5,3.7,8.4,3.9,3.1.2,6.7,2.9,8.9-.5,1.1-1.7,3.1-5.6,1.7-7.8Z"/>
        <path class="st30" d="M174.5,130.1c-1.1-.9-3.4.7-4.3,1.3-1.8,1.2-3,1.5-5.2,1.6-2.8,0-8.9-.5-8.7,3.9,0,1.2.5,2.5.7,3.7.2,1.2,0,2.5.4,3.7,1.4,4,5.7.4,7.8-.5,3.1-1.4,6.7-3,8.6-6,.9-1.4,1.6-5.2,1.1-6.8,0-.4-.3-.6-.4-.8Z"/>
        <path class="st30" d="M199.1,109.8c-.1-1.4-1.2-1.8-2.2-1.4-1.6.1-3.2.5-4.7.9-2.1.5-2.9,1-2.9,3.2-.1,4.2-.9,9.5,4.7,9.6,4.1.1,4-4.6,4.6-7.8.2-1.2.7-3.3.6-4.5Z"/>
        <path class="st30" d="M22.8,115.4c-.4-1-1.2-1.5-2.7-1.3-1.6.3-3.2.6-4.8.7-1.1,0-2.3.2-3.4.3-.9,0-1.9,0-2.6.5-.9.7-1,1.8-1,2.9,0,2.3.6,4.4.9,6.6.2,1.6-.3,3.5,1.1,4.5,1.8,1.2,4.5.7,6.5.4,1.9-.3,4.8-.7,5.3-3,.4-1.6.3-3.3.6-5,.2-1.6.8-4.7,0-6.5Z"/>
        <path class="st50" d="M179.1,93.6l-11.8,7.3c-5-2.6,3.5,8.4-2,6.5-9.4-3.1-18.9-5.9-28.4-8.6-7.1-2-35.5-4.6-56.8-2.8-13.2,1.2-25.5,6.7-38.1,10.7-7,2.2,3.7-9.4-2.9-6.2l-16.5,3.3-20.7,6.2c.3.4.7,1.4,1.2,2.9,7.8.8,15.6-2.1,23.4-2.5,1.8,0,3.5,0,4.1,2,.5,1.9-1,3.6-2.4,4.5-.6.3-3.1,1.3-3.4,2.4.3,1.3.4,8.8-.7,9.8-2.2,2-5.6,2-8.3,2.6-2.5.5-4.9,1.1-7.4,1.6.1.5.2.8.2.8h0c.3,2,7.3-.8,9.4-1,1.8-.1,6.2.3,10.6.5.6,3,1.1,6.2,1.3,9.4,0,0,0,.1,0,.2h0c.1,1.1,1.3,2.1,4.1,2.9,10.2,2.9,21.9,1.9,32.3,2.7,8.3.6,16.3,0,24.5-.2,8.6-.3,16.6,2.6,25,3.6,1.9.2,3.8.9,5.8.7,2.6-.3,3.1-2,4.7-2.9,3.5-2,8.3-.6,12.1-.3,4.3.3,8.3,1,12.4.6,3.8-.4,7.6,1,11.2-.1,3.5-1.1,6.4-3.9,9.9-5.2,1.8-.7,8-2.4,7.8-5.1,0,0,.9-5.4,2.2-11.5,1.5-.2,3-.4,4.5-.9,3.1-.9,9.4.5,11.9-1.1.7-.5,1.1-.9,1.2-1.4h0s0,0,0,0c0-.3,0-.5,0-.8h0c-5.6,1.6-12.1,2.6-13.3-3.1-.3-1.5,0-3.3,0-4.8,0-2.2,0-4.3-.4-6.4-.2-1.4.2-2.3,1.5-3,4.7-2.3,10.3-.3,15.2-1.6.8-1.7,1.8-3.1,3.1-4.3l-26.5-7.5ZM49.9,146.7c-7.8,0-18.7-.9-18.5-10.6.1-4-3.4-8.2-.3-10.1,2-1.2,5.9.9,8,1.4,4.4,1,8.9-.5,13.3-.8,1.3,0,2.5,0,3.8.1,1.4.2,2.8.6,4,1.4,3.2,2,3.2,5.9,3.8,9.7,1.4,9.6-7.8,8.9-14,8.9ZM103.2,147.2c-3.2-1-6.3-1.9-9.8-1.8-3.6.1-7.2.7-10.8.8-4.1.2-10.9,1.2-13.8-2.6-1.2-1.6-1.1-4.4-1.3-6.2-.2-2.2-.8-4.4-.2-6.5.9-3.4,5.9-1.6,8.1-1.4,3.8.4,7.6,0,11.3-.4,1.9-.2,3.8-.4,5.7-.6,1.4-.2,2.8.2,4.2,0,1.1-.2,2.1-.3,3.2-.3,2.4,0,4.9.6,6.5,2.5,1.5,1.7,1.3,4.1,1.8,6.2.5,2.2,0,4.1.3,6.3.5,4.4-1.7,5.3-5.2,4.2ZM123.7,149.5c-.4,2.1-2.1,2.4-4,2.2-2.6-.4-5.4-1.1-7.2-3.3-1.8-2.2-2.1-5.7-2.1-8.4,0-2-.2-5.6,1.4-7.1,1.2-1.1,3.1-1.3,4.6-1.3,1.3,0,3.2-.4,4.3.3,1.5.9,1.7,2.9,1.8,4.5,0,1.8.4,3.4.4,5.2,0,1.2.2,2.6.5,3.7.3,1.3.7,2.9.4,4.3ZM151.5,130.7c.3.8.1,1.8.2,2.6,0,1.2.1,2.4.2,3.6,0,2.4.2,5-.5,7.3-.5,1.9-1.7,3.4-3.8,3.4-3.5,0-6.8-1.2-10.3-1.2-2.8,0-5.8.4-8.5-.7-2.3-.9-3.4-3.4-3.5-5.7-.1-2.7-.4-6.7,1.5-8.9,2.6-2.9,5.9-1.8,9.3-1.3,2.6.4,5.1.8,7.7.8,1.3,0,2.6,0,3.8-.2.6,0,1.2-.2,1.7-.4.6-.2,1.1-.4,1.6,0,.2.2.4.4.5.7ZM177,132.8c-.5,2.2-.3,5.4-1.7,7.3-1.2,1.6-2.9,2.2-4.6,3.1-2.1,1-4,2.2-6,3.5-2.7,1.7-5.5,3-8.3.8-2.3-1.8-1.7-7.2-2.3-9.7-.6-2.6-1.1-6.1,1.8-7.4,1.3-.6,2.8.4,4.1.3,2-.2,3.9-.3,5.9-.7,3.9-.7,8.1-1.7,10.9-4.8.1-.2.3-.2.5-.2.2,0,.4,0,.5.3,1,2.1-.2,5.5-.7,7.5ZM182.8,106.7c0,.7-.2,1.7-.3,2.1-.3,1.5-.6,3.4-1.4,4.8-.5.9-1.6,1.5-2.5,1.9-2.7,1.2-5.9.2-7.8-2.1-1.1-1.3-2.9-4.5-.7-5.8.6-.3,1.2-.5,1.8-.5,1.2,0,2.3-.5,3.4-.7,1.4-.2,2.8-.2,4.2-.5.8-.2,2.4-.7,3,.2,0,.1.1.3.1.5Z"/>
        <path class="st50" d="M17.8,130.4c0-.5,0-1.1-.1-1.6,0-.5,0-1-.2-1.5,0-.5-.2-.9-.2-1.3,0-.4-.1-.8-.2-1.1,0-.3-.2-.6-.2-.8-.1-.5-.2-.7-.2-.7,0,0,0,.3.1.7,0,.2,0,.5.1.8,0,.3,0,.7.1,1.1,0,.4,0,.8,0,1.3,0,.5,0,1,0,1.5,0,.5,0,1,0,1.6,0,.5,0,1.1,0,1.6,0,.5,0,1-.1,1.5.4,0,.8-.2,1.1-.2,0-.4,0-.9,0-1.3,0-.5,0-1.1,0-1.6Z"/>
        <path class="st50" d="M34.6,122.3c0,.4,0,.7,0,1.1,0,.4,0,.8.1,1.3,0,.9.2,1.8.3,2.8.1.9.2,1.9.3,2.8.1.9.2,1.7.2,2.4.1,1.4.2,2.4.2,2.4,0,0,0-.9,0-2.4,0-.7,0-1.5,0-2.4,0-.9,0-1.8,0-2.8,0-.9,0-1.9,0-2.7,0-.4,0-.9,0-1.3,0-.4,0-.8,0-1.1,0-1.4.2-2.4.2-2.4h-1.8s0,.9.1,2.3Z"/>
        <path class="st50" d="M20.2,108.8c0,.4,0,.7,0,1.1,0,.4,0,.8.1,1.3,0,.9.2,1.8.3,2.8.1.9.2,1.9.3,2.8.1.9.2,1.7.2,2.4.1,1.4.2,2.4.2,2.4,0,0,0-.9,0-2.4,0-.7,0-1.5,0-2.4,0-.9,0-1.8,0-2.8,0-.9,0-1.9,0-2.7,0-.4,0-.9,0-1.3,0-.4,0-.8,0-1.1,0-1.4.2-2.4.2-2.4h-1.8s0,.9.1,2.3Z"/>
        <path class="st50" d="M11.1,110.6c0,.4,0,.7,0,1.1,0,.4,0,.8.1,1.3,0,.9.2,1.8.3,2.8.1.9.2,1.9.3,2.8.1.9.2,1.7.2,2.4.1,1.4.2,2.4.2,2.4,0,0,0-.9,0-2.4,0-.7,0-1.5,0-2.4,0-.9,0-1.8,0-2.8,0-.9,0-1.9,0-2.7,0-.4,0-.9,0-1.3,0-.4,0-.8,0-1.1,0-1.4.2-2.4.2-2.4h-1.8s0,.9.1,2.3Z"/>
        <path class="st50" d="M46.9,144.5c0-.4,0-.8,0-1.2,0-.8-.1-1.6-.2-2.4,0-.8-.1-1.5-.2-2.2,0-.7-.1-1.4-.1-2,0-.6,0-1.2,0-1.7,0-.5,0-.9,0-1.3,0-.7.1-1.1.1-1.1,0,0,0,.4-.2,1.1,0,.3-.1.8-.2,1.3,0,.5,0,1.1-.1,1.7,0,.6,0,1.3,0,2,0,.7,0,1.5,0,2.2,0,.8,0,1.6,0,2.4,0,.4,0,.8,0,1.2,0,.4,0,.8,0,1.2,0,.8,0,1.7-.1,2.5.4,0,.7,0,1.1,0,0-.8,0-1.7,0-2.5,0-.4,0-.8,0-1.2Z"/>
        <path class="st50" d="M57.2,142.4c0-.7,0-1.4,0-2.1,0-.7,0-1.3-.2-1.9,0-.6-.1-1.1-.2-1.6,0-.5-.1-.9-.2-1.2-.1-.7-.2-1-.2-1,0,0,0,.4.2,1,0,.3.1.7.1,1.2,0,.5,0,1,.1,1.6,0,.6,0,1.2,0,1.8,0,.7,0,1.3,0,2.1,0,1.4-.2,2.9-.4,4.4,0,.6-.2,1.2-.2,1.8.3,0,.7,0,1,0,0-.6,0-1.1,0-1.7,0-1.5.1-3.1,0-4.5Z"/>
        <path class="st50" d="M73,126.1c0,.8,0,1.8,0,2.9,0,.5,0,1.1,0,1.6,0,.6,0,1.1-.1,1.7,0,.3,0,.6,0,.8,0,.3,0,.6-.2.8-.1.5-.2,1.1-.4,1.6-.2,1-.4,2-.6,2.8-.2.8-.2,1.5-.2,2,0,.2,0,.4,0,.6,0,.1,0,.2,0,.2,0,0,0,0-.1-.2,0-.1,0-.3-.1-.6,0-.5,0-1.2,0-2,0-.8.2-1.8.3-2.9,0-.5.1-1.1.2-1.6,0-.3,0-.5,0-.8,0-.3,0-.5,0-.8,0-.6,0-1.1,0-1.6,0-.5,0-1.1-.1-1.6,0-1-.2-2-.3-2.9,0-.8-.1-1.5-.2-2,0-.5,0-.8,0-.8h1.8c0,0,0,.2,0,.7,0,.5,0,1.2,0,2Z"/>
        <path class="st50" d="M78.1,144.8c0-.7,0-1.4,0-2.1,0-.7,0-1.4,0-2,0-.6,0-1.2-.2-1.8,0-.3,0-.5-.1-.8,0-.2-.1-.5-.2-.7,0-.4-.2-.8-.3-1.1-.2-.6-.3-1-.3-1,0,0,0,.4.2,1,0,.3.1.7.2,1.1,0,.2,0,.5.1.7,0,.2,0,.5,0,.8,0,.5,0,1.1,0,1.8,0,.6,0,1.3,0,2,0,.7-.1,1.4-.2,2.1,0,.7-.2,1.4-.3,2.2-.1.8-.2,1.5-.3,2.3.4,0,.7,0,1.1,0,0-.7,0-1.4.1-2.2,0-.7,0-1.5.1-2.2Z"/>
        <path class="st50" d="M91.4,120c0-.5,0-.8,0-.8l-1.8.2s0,.3.1.8c0,.3,0,.6.2.9,0,.2,0,.4,0,.6,0,.2,0,.4,0,.6,0,.4,0,.9.1,1.4,0,.5,0,1,0,1.6,0,.5,0,1.1,0,1.7,0,.6,0,1.2,0,1.7,0,.6,0,1.2-.1,1.7,0,.6-.1,1.1-.2,1.7-.1,1.1-.3,2.1-.4,3-.1.9-.3,1.6-.3,2.1,0,.5-.1.8-.1.8,0,0,0-.3.2-.8.1-.5.3-1.2.5-2.1.2-.9.5-1.9.7-3,.1-.5.2-1.1.3-1.7.1-.6.2-1.2.3-1.7,0-.6.2-1.2.2-1.8,0-.6.1-1.2.2-1.7,0-.6.1-1.1.1-1.6,0-.5,0-1,0-1.5,0-.2,0-.5,0-.7,0-.2,0-.4,0-.6,0-.4,0-.7,0-.9Z"/>
        <path class="st50" d="M97.1,122.8c0-.4,0-.7,0-1.1,0-.3,0-.6,0-.8,0-.5,0-.7,0-.7h-1.8s0,.3,0,.8c0,.2,0,.5,0,.8,0,.3,0,.7.1,1.1.1.8.2,1.7.4,2.7,0,.5.1,1,.2,1.5,0,.5,0,1,.1,1.5,0,.3,0,.5,0,.8,0,.3,0,.5,0,.8,0,.5,0,1,0,1.5,0,1-.1,1.9-.2,2.7,0,.8,0,1.5,0,1.9,0,.5,0,.7,0,.7,0,0,0-.3,0-.7,0-.5.1-1.1.3-1.9.1-.8.3-1.7.5-2.7,0-.5.1-1,.2-1.5,0-.3,0-.5,0-.8,0-.3,0-.5,0-.8,0-.5,0-1.1,0-1.6,0-.5,0-1,0-1.5,0-1,0-1.9,0-2.7Z"/>
        <path class="st50" d="M99.5,143c0-.7,0-1.3,0-1.9,0-.6,0-1.2,0-1.7,0-2.1-.1-3.5-.1-3.5,0,0,0,1.4-.1,3.5,0,.5,0,1.1,0,1.7,0,.6,0,1.2-.1,1.9,0,1.3-.2,2.7-.3,4.1,0,.7-.1,1.4-.2,2.1.4,0,.7.1,1.1.2,0-.7,0-1.5,0-2.2,0-1.4,0-2.8,0-4.1Z"/>
        <path class="st50" d="M114.9,122.8c0,.3-.1.7-.2,1.1,0,.2-.1.4-.1.7,0,.3,0,.5,0,.8,0,.6-.1,1.2-.2,1.8,0,.6,0,1.3-.1,2,0,.7,0,1.4,0,2.1,0,.7,0,1.5,0,2.2,0,1.5.1,2.9.2,4.3,0,1.4.1,2.6.2,3.7,0,1.1,0,2,.1,2.6,0,.6,0,1,0,1,0,0,0-.4,0-1,0-.6,0-1.6.1-2.7,0-1.1,0-2.4,0-3.7,0-1.4,0-2.8.1-4.3,0-.7,0-1.4.1-2.2,0-.7.1-1.4.2-2.1,0-.7.1-1.3.2-1.9.1-.6.2-1.2.3-1.7,0-.3,0-.5.1-.7,0-.2.1-.5.2-.7.1-.4.2-.8.3-1.1.2-.6.3-1,.3-1l-1.8-.5s0,.4-.2,1Z"/>
        <path class="st50" d="M119.5,148.4c-.1-1.4-.2-2.7-.4-4,0-.6-.1-1.3-.2-1.8,0-.6-.1-1.1-.2-1.7-.1-1-.3-1.9-.4-2.5,0-.6-.1-.9-.1-.9,0,0,0,.3,0,.9,0,.6.1,1.5.2,2.5,0,.5,0,1.1,0,1.7,0,.6,0,1.2,0,1.9,0,1.3,0,2.7,0,4,0,1.4,0,2.8,0,4,0,.1,0,.2,0,.3.4,0,.9.2,1.3.2,0-.2,0-.4,0-.6-.2-1.3-.3-2.6-.4-4Z"/>
        <path class="st50" d="M129.8,144.6c0-.8,0-1.6,0-2.4,0-.8,0-1.6,0-2.3,0-.7.1-1.4.2-2,0-.3,0-.6,0-.9,0-.3,0-.6.1-.8,0-.5.2-1,.2-1.3.1-.7.2-1.1.2-1.1,0,0,0,.4-.3,1.1,0,.4-.2.8-.3,1.3,0,.3-.1.5-.2.8,0,.3,0,.6-.1.9,0,.6-.2,1.3-.3,2,0,.7-.1,1.5-.2,2.3,0,.8-.1,1.6-.1,2.5,0,.8,0,1.7,0,2.5,0,.7,0,1.3.1,2,.3,0,.7,0,1,0,0-.7-.2-1.3-.2-2,0-.8-.1-1.7-.2-2.5Z"/>
        <path class="st50" d="M138.7,144.7c0-1.3-.1-2.2-.1-2.2,0,0,0,.9-.2,2.2-.1,1.3-.3,3.1-.5,4.8,0,0,0,.2,0,.3.2,0,.4,0,.6,0,.1,0,.3,0,.4,0,0-.1,0-.2,0-.4,0-1.8-.1-3.5-.1-4.8Z"/>
        <path class="st50" d="M143,146.6c0-.8,0-1.5.1-2.2,0-.7,0-1.4.2-2.1,0-.7.2-1.3.2-1.8,0-.6.1-1.1.2-1.6,0-.5.2-.9.2-1.2.1-.7.2-1,.2-1,0,0,0,.4-.3,1,0,.3-.2.7-.3,1.2-.1.5-.2,1-.3,1.5-.1.6-.2,1.2-.4,1.8-.1.6-.2,1.3-.3,2.1-.1.7-.2,1.5-.3,2.2,0,.8-.1,1.5-.2,2.3,0,.5,0,.9,0,1.4.3,0,.7,0,1,.1,0-.5,0-1,0-1.4,0-.8,0-1.5,0-2.3Z"/>
        <path class="st50" d="M149.1,125.6c0,.3-.2.6-.3.9-.1.4-.2.8-.3,1.3,0,.5-.2,1-.3,1.5,0,.5-.2,1.1-.2,1.7,0,.6-.2,1.2-.2,1.8,0,.6-.1,1.2-.2,1.8,0,.6,0,1.2,0,1.9,0,.3,0,.6,0,.9,0,.3,0,.6,0,.9,0,.6,0,1.1,0,1.7,0,.5.1,1,.2,1.5,0,.5,0,.9.2,1.2,0,.4.1.7.2,1,.1.5.2.8.2.8,0,0,0-.3,0-.8,0-.3,0-.6-.1-1,0-.4,0-.8,0-1.2,0-.5,0-1,0-1.5,0-.5,0-1.1,0-1.6,0-.3,0-.6,0-.9,0-.3,0-.6.1-.9,0-.6.1-1.2.2-1.8.1-.6.2-1.2.3-1.8,0-.6.2-1.2.4-1.7.1-.5.3-1.1.4-1.6.1-.5.3-.9.4-1.4.1-.4.2-.8.4-1.2.1-.3.2-.7.3-.9.2-.5.3-.8.3-.8l-1.7-.6s0,.3-.2.8Z"/>
        <path class="st50" d="M160,124c0,.4-.1.9-.2,1.4,0,.5-.1,1.1-.2,1.6-.1,1.1-.2,2.4-.3,3.6,0,1.2-.1,2.4-.2,3.6,0,.6,0,1.1,0,1.6,0,.5,0,1,0,1.5,0,1.8,0,3,0,3,0,0,.1-1.2.3-3,0-.4.1-.9.2-1.5,0-.5.1-1.1.2-1.6.2-1.1.3-2.3.5-3.5.2-1.2.4-2.4.6-3.5.1-.6.2-1.1.3-1.6.1-.5.2-1,.3-1.4.4-1.8.7-2.9.7-2.9l-1.8-.4s-.2,1.2-.4,3Z"/>
        <path class="st50" d="M163.7,145.6c0-.6,0-1.3,0-1.9,0-1.2,0-2.3,0-3.3,0-.5,0-.9.1-1.3,0-.4.1-.7.2-1,.1-.5.2-.8.2-.8,0,0-.1.3-.3.8,0,.3-.2.6-.3,1,0,.4-.2.8-.2,1.3-.1,1-.2,2.1-.3,3.3,0,.6,0,1.2-.1,1.8,0,.6,0,1.3-.1,1.9,0,.9-.1,1.8-.2,2.6.4-.1.8-.3,1.1-.5,0-.7,0-1.4,0-2.1,0-.6,0-1.3,0-1.9Z"/>
        <path class="st50" d="M169.1,126.6c0,.8-.2,1.8-.3,2.9-.1,1.1-.2,2.2-.3,3.3,0,1.1-.2,2.3-.2,3.3,0,.5,0,1,0,1.5,0,.5,0,.9,0,1.4,0,.8,0,1.6,0,2.1,0,.5,0,.8,0,.8,0,0,0-.3,0-.8,0-.5,0-1.2.1-2,0-.4,0-.9.1-1.4,0-.5.1-1,.2-1.5.1-1,.3-2.1.5-3.3.2-1.1.4-2.2.6-3.2.2-1,.4-2,.6-2.8.3-1.7.6-2.8.6-2.8l-1.8-.3s-.1,1.1-.3,2.8Z"/>
        <path class="st50" d="M172.9,125.2c0,.5-.2,1.2-.3,1.8,0,.7-.2,1.4-.2,2.1,0,.7-.1,1.5-.1,2.1,0,.7,0,1.3,0,1.9,0,.5,0,1,0,1.3,0,.3,0,.5,0,.5,0,0,0-.2,0-.5,0-.3,0-.8.1-1.3,0-.5.2-1.1.3-1.8.1-.7.3-1.3.5-2,.2-.7.4-1.4.6-2,.2-.6.4-1.2.5-1.7.3-1,.6-1.7.6-1.7l-1.8-.5s-.1.7-.3,1.8Z"/>
        <path class="st50" d="M177.8,100.7c-.2,1.3-.6,3.1-.9,4.8-.1.9-.3,1.8-.4,2.6,0,.4,0,.8-.1,1.2,0,.4,0,.8,0,1.1,0,.3,0,.6,0,.9,0,.3,0,.5,0,.7,0,.4,0,.6,0,.6,0,0,0-.2,0-.6,0-.2,0-.4,0-.7,0-.3,0-.6.1-.9,0-.3.1-.7.2-1.1,0-.4.2-.8.3-1.2.2-.8.4-1.7.7-2.5.5-1.7,1.1-3.4,1.5-4.7.4-1.3.7-2.1.7-2.1l-1.8-.4s-.1.9-.4,2.2Z"/>
        <path class="st50" d="M190.2,102.8c0,.6-.2,1.4-.3,2.2,0,.8-.2,1.7-.2,2.5,0,.9-.1,1.7-.1,2.5,0,.8,0,1.6,0,2.2,0,.6,0,1.2,0,1.6,0,.4,0,.6,0,.6,0,0,0-.2,0-.6,0-.4,0-.9.1-1.5,0-.6.2-1.4.3-2.2.1-.8.3-1.6.5-2.4.2-.8.4-1.7.6-2.4.2-.8.4-1.5.5-2.1.3-1.2.5-2.1.5-2.1l-1.8-.4s-.1.8-.3,2.1Z"/>
        <path class="st50" d="M192.1,124.5c0-.8,0-1.5,0-2.3,0-.8,0-1.6.1-2.3,0-.8.1-1.5.2-2.2,0-.7.1-1.4.2-2.1.1-.7.2-1.3.3-1.9,0-.3,0-.6.1-.8,0-.3.1-.5.2-.7.1-.5.2-.9.3-1.2.2-.7.2-1,.2-1,0,0-.1.4-.3,1-.1.3-.2.7-.4,1.2,0,.2-.1.5-.2.7,0,.3-.1.5-.2.8-.1.6-.3,1.2-.4,1.9-.2.7-.3,1.4-.4,2.1-.1.7-.3,1.5-.4,2.2,0,.8-.2,1.6-.3,2.3,0,.8-.1,1.6-.2,2.3,0,.8-.1,1.5-.2,2.3,0,.2,0,.4,0,.6.4,0,.9,0,1.3,0,0-.2,0-.4,0-.6,0-.7,0-1.5,0-2.3Z"/>
        <path class="st50" d="M198.8,102c-.1.4-.2.9-.4,1.3-.1.5-.2,1-.4,1.5-.1.5-.2,1.1-.3,1.6-.1.5-.2,1.1-.3,1.7,0,.6-.2,1.1-.2,1.7,0,.5-.1,1.1-.2,1.6,0,.5-.1,1-.2,1.5,0,.5,0,.9,0,1.4,0,.8,0,1.5,0,2,0,.5,0,.8,0,.8,0,0,0-.3,0-.8,0-.5.1-1.2.3-2,0-.4.1-.9.2-1.3,0-.5.2-1,.3-1.5.1-.5.2-1,.4-1.6.1-.5.3-1.1.4-1.6.2-.5.3-1.1.5-1.6.1-.5.3-1,.5-1.5.2-.5.3-1,.5-1.4.2-.4.3-.9.5-1.2.3-.8.6-1.4.8-1.8.2-.4.3-.7.3-.7h-.3c0-.1-1.5-.5-1.5-.5,0,.1-.1.3-.2.6-.1.5-.4,1.1-.6,2Z"/>
        <path class="st1" d="M195.5,93.4c-8.6-4.3-16.6-9-25.8-12.1-10-3.4-20.2-6.3-30.4-9.2-7.6-2.2-38-5-60.8-3-14.2,1.2-27.2,7.1-40.7,11.5-8.7,2.8-17.1,6.3-25.2,10.5-2.6,1.3-12.1,5.2-12.6,8.6-.4,2.9,5.5,3.7,9.2,3-2.4,1.5-5.7,4.1-6.4,5.2-3.7,5.6,6.5,1.3,9.3,1.1,3.2-.2,13.8,1.3,20.1.4-1.3,1.7-2.5,3.8-3.4,4.7-3.9,3.8-6.8,6.8.4,8.8,11,3.1,23.4,2,34.5,2.8,8.8.7,17.4,0,26.2-.3,9.2-.3,17.7,2.8,26.8,3.9,2.1.2,4.1,1,6.2.8,2.8-.3,3.3-2.1,5-3.1,3.8-2.2,8.9-.6,13-.3,4.6.4,8.8,1.1,13.2.6,4.1-.5,8.1,1.1,11.9-.1,3.8-1.2,6.9-4.2,10.5-5.6,2.1-.8,10-3,8.1-6.3-1.1-1.9-8.9-3-11-4.1-1.9-1-3.9-3-6-4.1,2.7-.7,5.9-2.2,7.5-2.4,5.9-.9,11.1-.1,17-1.8,3.3-.9,10,.5,12.7-1.2,5.6-3.6-7.5-7.3-9.4-8.3Z"/>
        <path class="st18" d="M195.5,93.4c-6.2-3.1-12.1-6.4-18.3-9.2,0,.1-.2.2-.2.3-2.2,2.8-6.4,2.7-9.6,2.4h0c-1.8,4.2-11.4,5.6-15.2,6.1-1.4.2-3,.3-4.6.4,1.1,1,2.1,2.1,2.7,3.5,4.4,10-5.3,12.8-13,12.6-3.8-.1-7.6.2-11.1-1-1.2,2.8-5.8,4.2-8.4,4.7-7.7,1.4-15.7-.4-23.2-2-3.1-.7-9.1-1.2-11.6-4-2.9,1.2-6.7,1.9-7.8,2.1-5.6.9-10.9.2-16.5-.2-3.4-.3-9.9-.9-10.1-5.7,0-1.9,1-3.9,2.7-5.7-.5,0-.9,0-1.2,0-4.6.2-9.9,0-14-2.3-1.5-.9-4.1-2.8-3.8-5-3.2.2-6.6-.3-8.4-1.3-1.1-.6-1.9-1.5-2.3-2.4-3,1.3-5.9,2.7-8.8,4.2-2.6,1.3-12.1,5.2-12.6,8.6-.4,2.9,5.5,3.7,9.2,3-2.4,1.5-5.7,4.1-6.4,5.2-3.7,5.6,6.5,1.3,9.3,1.1,3.2-.2,13.8,1.3,20.1.4-1.3,1.7-2.5,3.8-3.4,4.7-3.9,3.8-6.8,6.8.4,8.8,11,3.1,23.4,2,34.5,2.8,8.8.7,17.4,0,26.2-.3,9.2-.3,17.7,2.8,26.8,3.9,2.1.2,4.1,1,6.2.8,2.8-.3,3.3-2.1,5-3.1,3.8-2.2,8.9-.6,13-.3,4.6.4,8.8,1.1,13.2.6,4.1-.5,8.1,1.1,11.9-.1,3.8-1.2,6.9-4.2,10.5-5.6,2.1-.8,10-3,8.1-6.3-1.1-1.9-8.9-3-11-4.1-1.9-1-3.9-3-6-4.1,2.7-.7,5.9-2.2,7.5-2.4,5.9-.9,11.1-.1,17-1.8,3.3-.9,10,.5,12.7-1.2,5.6-3.6-7.5-7.3-9.4-8.3Z"/>
        <path class="st26" d="M195.5,93.4c-2.7-1.4-5.4-2.8-8.1-4.2-2.6,2.4-6.9,2.4-10.3,2h0c-2.1,4.8-13.1,6.4-17.4,7-1.6.2-3.4.4-5.2.4,1.3,1.1,2.4,2.4,3.1,4,5,11.5-6.1,14.7-14.9,14.4-4.4-.1-8.7.2-12.7-1.1-1.3,3.2-6.6,4.8-9.6,5.3-8.8,1.6-18-.5-26.6-2.3-3.6-.8-10.4-1.4-13.3-4.5-3.3,1.4-7.7,2.2-9,2.4-6.4,1-12.5.3-18.9-.2-3.9-.3-11.3-1-11.6-6.5,0-2.2,1.2-4.5,3.1-6.6-.5,0-1,0-1.4,0-5.2.2-11.3,0-16-2.7-1.8-1-4.7-3.2-4.3-5.7-3.7.3-7.6-.4-9.6-1.5-1-.5-1.7-1.2-2.2-1.9-3.7,1.8-10.2,4.8-10.6,7.6-.4,2.9,5.5,3.7,9.2,3-2.4,1.5-5.7,4.1-6.4,5.2-3.7,5.6,6.5,1.3,9.3,1.1,3.2-.2,13.8,1.3,20.1.4-1.3,1.7-2.5,3.8-3.4,4.7-3.9,3.8-6.8,6.8.4,8.8,11,3.1,23.4,2,34.5,2.8,8.8.7,17.4,0,26.2-.3,9.2-.3,17.7,2.8,26.8,3.9,2.1.2,4.1,1,6.2.8,2.8-.3,3.3-2.1,5-3.1,3.8-2.2,8.9-.6,13-.3,4.6.4,8.8,1.1,13.2.6,4.1-.5,8.1,1.1,11.9-.1,3.8-1.2,6.9-4.2,10.5-5.6,2.1-.8,10-3,8.1-6.3-1.1-1.9-8.9-3-11-4.1-1.9-1-3.9-3-6-4.1,2.7-.7,5.9-2.2,7.5-2.4,5.9-.9,11.1-.1,17-1.8,3.3-.9,10,.5,12.7-1.2,5.6-3.6-7.5-7.3-9.4-8.3Z"/>
        <path class="st1" d="M159.6,78.2c.9-2.6,3.2-4.7,5.6-5.6-1.6,1.7-2.8,3.1-3.8,5.4h0c1.8-1.5,4.3-2.4,6.6-2.6-1.3.7-4.8,2.6-4.9,4.3l-3.5-1.5Z"/>
        <path class="st26" d="M190.1,91c1.4-1.7,3.3-3.1,5.5-3.2,0,0,0,0,0,0-.8.5-1.6,1.3-2,2.2.8-.2,1.7-.1,2.5.3-1.1.7-3.6,3.1-3.2,4.5l-2.7-3.8Z"/>
        <path class="st26" d="M192.8,101c.8,2.1,2.4,5,.4,10v-3.3c0-1-.4-2.2-1-2.9-.2.8-.6,1.7-1.3,2.3-.1-1.3-1.1-4.9-2.4-5l4.3-1.1Z"/>
        <path class="st26" d="M164.2,125.4c.8,2.1,2.4,5,.4,10v-3.3c0-1-.4-2.2-1-2.9-.2.8-.6,1.7-1.3,2.3-.1-1.3-1.1-4.9-2.4-5l4.3-1.1Z"/>
        <path class="st1" d="M57.7,75.7c-1.3-.5-1.5-4.2-1.3-5.5-.7.4-1.4,1.1-1.7,1.9-.4-.9-.7-2.2-.3-3.1,0,0,.8-3.2.7-3.2-2.3,3.1-2.4,5.7-2.2,7.8-1.1-1.8-2.7-3.2-4.5-3.9,1.5,1.8,2.1,2.4,2.9,4.7-1.7-1.6-3.6-1.7-5.8-2,1.3.7,4.7,2.9,4.7,4.6l3.5-1.2h3.9Z"/>
        <path class="st26" d="M112.7,126c-1.3.6-1.2,4.3-.9,5.6-.8-.3-1.4-1-1.9-1.8-.3.9-.5,2.2-.1,3.1l.9,3.1c-2.5-3-2.7-5.6-2.6-7.6-.9,1.8-2.5,3.4-4.2,4.2,1.4-1.9,1.9-2.5,2.6-4.8-1.6,1.7-3.5,1.9-5.7,2.4,1.3-.8,4.5-3.2,4.4-4.9l3.6,1,3.9-.4Z"/>
        <path class="st18" d="M26.6,84.9c-.9-2.6-3.2-4.7-5.6-5.6,1.6,1.7,2.8,3.1,3.7,5.4h0c-1.8-1.5-4.3-2.4-6.6-2.6,1.3.7,4.8,2.6,4.9,4.3l3.5-1.5Z"/>
        <path class="st26" d="M9.1,93c-1.4-1.7-3.3-3.1-5.5-3.2,0,0,0,0,0,0,.8.5,1.6,1.3,2,2.2-.8-.2-1.7-.1-2.5.3,1.1.7,3.6,3.1,3.2,4.5l2.7-3.8Z"/>
        <path class="st26" d="M13.4,107c-.8,2.1-2.4,5-.4,10v-3.3c0-1,.4-2.2,1-2.9.2.8.6,1.7,1.3,2.3.1-1.3,1.1-4.9,2.4-5l-4.3-1.1Z"/>
        <path class="st26" d="M40.7,122.4c-.8,2.1-2.4,5-.4,10v-3.3c0-1,.4-2.2,1-2.9.2.8.6,1.7,1.3,2.3.1-1.3,1.1-4.9,2.4-5l-4.3-1.1Z"/>
        <path class="st18" d="M67.1,102.6l-.4.2c-.2,0-.5.2-.7.3-.5.2-.9.5-1.3.8-.3.2-.6.5-.9.7-.4.4-.7.8-.7,1.4,0,.5.3.8.7.9.5,0,.8-.4,1.1-.7.3-.4.5-.8.8-1.2.3-.5,1-2,1.4-2.4Z"/>
        <path class="st18" d="M59.6,82h-.5c-.2-.1-.5-.1-.8-.1-.5,0-1,0-1.6,0-.4,0-.7.1-1.1.2-.5.1-1,.4-1.3.9-.2.4-.2.9.2,1.1.4.3.9,0,1.3,0,.4-.2.8-.4,1.2-.6.5-.3,1.9-1.3,2.4-1.4Z"/>
        <path class="st28" d="M79,117.5l-.4.2c-.2.1-.4.3-.6.4-.4.3-.8.6-1.2,1-.3.3-.5.5-.7.8-.3.4-.6.9-.5,1.5.1.4.4.8.9.7.5,0,.7-.5,1-.9.2-.4.4-.8.6-1.3.2-.5.7-2.1,1-2.6Z"/>
        <path class="st28" d="M82,117.9l-.3.2c-.1,0-.3.2-.4.3-.3.2-.6.4-.8.7-.2.2-.4.4-.5.6-.2.3-.4.7-.3,1,0,.3.3.5.6.5.3,0,.5-.3.7-.6.2-.3.3-.6.4-.9.1-.3.5-1.5.7-1.8Z"/>
        <path class="st28" d="M149,120.1h.4c.2.2.5.3.7.4.5.2.9.4,1.4.7.3.2.6.4.9.7.4.3.8.8.8,1.3,0,.5-.2.8-.7.9-.5,0-.8-.3-1.1-.6-.3-.3-.6-.7-.8-1.1-.3-.4-1.1-1.9-1.5-2.3Z"/>
        <path class="st28" d="M146.1,121.2h.3c.2.1.3.2.5.3.3.1.6.3,1,.5.2.1.4.3.6.5.3.2.5.5.5.9,0,.3-.1.6-.5.6-.3,0-.6-.2-.8-.4s-.4-.5-.6-.8c-.2-.3-.8-1.4-1.1-1.6Z"/>
        <path class="st28" d="M17,102h-.5c-.2,0-.5,0-.7,0-.5,0-1,.1-1.5.3-.3,0-.7.2-1,.4-.5.2-1,.5-1.1,1-.1.4,0,.9.4,1.1.4.2.9,0,1.2-.2.4-.2.8-.5,1.1-.8.4-.3,1.6-1.5,2.1-1.7Z"/>
        <path class="st28" d="M22.5,101.4h-.3c-.2,0-.3,0-.5,0-.4,0-.7,0-1.1.2-.2,0-.5.1-.7.3-.3.1-.7.4-.8.7,0,.3,0,.6.3.7.3.1.6,0,.9-.2.3-.2.5-.4.8-.6.3-.2,1.1-1.1,1.5-1.2Z"/>
        <path class="st28" d="M187,94.5h.5c.2.1.5.2.7.2.5.1,1,.3,1.4.5.3.2.7.3,1,.5.4.3.9.7.9,1.2,0,.4,0,.9-.5,1-.5.1-.8-.2-1.2-.4-.4-.3-.7-.6-1-1-.4-.4-1.4-1.7-1.8-2.1Z"/>
        <path class="st28" d="M181,95.4h.3c.2,0,.3.1.5.2.4.1.7.2,1,.4.2.1.5.2.7.4.3.2.6.5.7.8,0,.3,0,.6-.4.7-.3,0-.6-.1-.8-.3-.3-.2-.5-.4-.7-.7-.3-.3-1-1.2-1.3-1.4Z"/>
        <path class="st18" d="M133.8,104.2h.5c.2,0,.5,0,.7,0,.5,0,1,.2,1.5.3.3.1.7.2,1,.4.4.2.9.5,1.1,1.1.1.4,0,.9-.4,1-.4.2-.9,0-1.2-.3-.4-.2-.7-.5-1.1-.8-.4-.3-1.6-1.6-2-1.8Z"/>
        <path class="st18" d="M128.3,103.4h.3c.2,0,.3,0,.5,0,.4,0,.7.1,1,.2.2,0,.5.2.7.3.3.2.7.4.7.8,0,.3,0,.6-.3.7-.3.1-.6,0-.9-.2-.3-.2-.5-.4-.8-.6-.3-.2-1.1-1.1-1.4-1.3Z"/>
        <path class="st18" d="M154.5,83s.5,0,.6,0c.3,0,.6,0,.9.1.6.1,1.2.2,1.8.4.4.1.8.3,1.2.5.5.3,1.1.7,1.3,1.3.1.5,0,1.1-.5,1.3-.5.2-1,0-1.5-.4-.5-.3-.9-.7-1.3-1-.5-.4-1.9-1.9-2.4-2.2Z"/>
        <path class="st18" d="M147.9,81.9h.4c.2,0,.4,0,.6,0,.4,0,.8.2,1.3.3.3,0,.6.2.9.4.4.2.8.5.9.9,0,.4,0,.7-.4.9-.4.1-.7,0-1-.3-.3-.2-.6-.5-.9-.7-.3-.3-1.3-1.3-1.7-1.6Z"/>
        <path class="st6" d="M92.7,104.9c0,2.7-13.6,4.9-30.4,4.9s-30.4-2.2-30.4-4.9,13.6-4.9,30.4-4.9,30.4,2.2,30.4,4.9Z"/>
        <path class="st37" d="M16.8,56.2c0-.2,0-.4.2-.5,0-.1.2-.3.3-.4,0,0-.1-.2-.2-.3,0-.2-.2-.5-.1-.8,0-.2.1-.4.2-.5,0-.1.2-.2.2-.3-.2-.2-.3-.5-.4-.7,0-.3,0-.5,0-.8.1-.3.4-.6.7-.7.3-.1.7-.2,1.1,0,0,0,0-.2,0-.3,0-.1,0-.3,0-.4,0-.2,0-.4,0-.5,0-.1,0-.2,0-.3.1-.2.4-.4.7-.5.3,0,.6,0,.9,0,.3,0,.6.2.8.3.2.1.4.3.4.4,0-.1,0-.3,0-.5,0-.2,0-.4.1-.6.2-.4.5-.8.8-1,.3-.3.7-.4,1-.3.2,0,.4.2.6.6.2.4.5,1,.9,2.1.1.3.3.6.4,1s.3.7.5,1.2h0s0,0,0,0c0,0,.1.2.2.3,0,0,.2.2.2.3.2.2.4.4.7.7.3.3.7.6,1.2,1,1,.8,1.7,1.1,2.2,1.3.5.2.8.4,1,.8.2.5.2,1,0,1.5-.1.5-.4,1-.8,1.4-.6.7-1.5.9-2.6.9-1.1,0-2.3-.2-3.6-.4-.1,0-.2,0-.3,0-.1,0-.2,0-.3-.1-.2-.1-.4-.2-.5-.4-.1-.1-.3-.3-.6-.4-.1,0-.2,0-.3-.1,0,0-.2,0-.2,0,0,0,0,0-.1,0,0,0,0,0-.1,0-.3,0-.6.1-.9.2-.3,0-.6,0-.9,0-.3,0-.7,0-1.1-.2-.5-.1-1-.4-1.5-.8-.2-.2-.5-.4-.8-.7-.2-.3-.4-.7-.4-1.1Z"/>
        <g>
          <path class="st45" d="M20.1,58c1.1-2.1,3-5.9,5.1-10.1l-2.5-1.2-5.1,10.1s-.1.8.8,1.3c.9.5,1.6-.1,1.6-.1Z"/>
          <path class="st38" d="M22.7,46.7l-1,2c.7.6,1.5,1.1,2.4,1.4.4-.7.8-1.5,1.1-2.2l-2.5-1.2Z"/>
          <path class="st38" d="M20.3,51.5l-.5,1.1c.7.6,1.4,1.1,2.3,1.5.2-.4.4-.9.7-1.3-.8-.3-1.6-.7-2.4-1.2Z"/>
          <path class="st38" d="M21.4,55.3c-.8-.5-1.4-1.2-2-1.9l-.6,1.1c.8.5,1.6.9,2.4,1.2,0-.1.1-.3.2-.4Z"/>
          <path class="st38" d="M20.1,58c.2-.4.4-.8.6-1.2-.8-.4-1.5-1-2.2-1.7l-.8,1.7s-.1.8.8,1.3c.9.5,1.6-.1,1.6-.1Z"/>
          <path class="st13" d="M21,50.1l-.3.6c.7.6,1.5,1.2,2.3,1.5.2-.4.4-.8.6-1.2-.9-.3-1.7-.6-2.6-.9Z"/>
          <path class="st39" d="M18.2,55.5l-.6,1.3s-.1.9.9,1.4c1,.5,1.7-.1,1.7-.1.2-.3.4-.8.6-1.2l-.9-.5c0,.1-.1.3-.2.4,0,0-.2.2-.6,0-.3-.2-.3-.5-.3-.5l.2-.4-.8-.4Z"/>
        </g>
        <g>
          <path class="st14" d="M27.6,48.5s.4-.7.4-.8c.3-.7-.7-1.3-3-2.4-2.3-1.1-3.1-1.6-3.5-.9,0,0-.4.7-.5.8-.4.7.2,1.7,2.6,2.9,2.4,1.2,3.6,1,4,.4Z"/>
          <path class="st39" d="M28,47.6c.3-.6-.3-1.5-2.8-2.6-2.4-1.1-3.6-1.1-3.9-.5-.3.6.3,1.5,2.8,2.6,2.4,1.1,3.6,1.1,3.9.5Z"/>
          <path class="st23" d="M42.5,15.5c.5-2.9-1.6-5.4-1.6-5.4l-17.4,35.7,1.1.7,1.2.4c3.4-6.8,15.8-29.8,16.7-31.4Z"/>
          <path class="st33" d="M42.5,15.5c.5-2.9-1.6-5.4-1.6-5.4h0c0,0-.7,6.6-.7,6.6l2.3-1.1s0,0,0,0Z"/>
          <path class="st29" d="M40.2,16.6l-15.6,29.9,1.2.5c3.4-6.8,15.7-29.5,16.7-31.5l-2.3,1Z"/>
        </g>
        <path class="st37" d="M21.9,50.2c0,0,.1.3.1.6,0,.3,0,.6-.2.9-.2.3-.7.4-1.2.4-.5,0-1.1-.3-1.7-.8,0,0,.1.1.3.3.1.2.2.4.2.6,0,0,0,.2,0,.3,0,.2,0,.3-.2.5-.2.2-.5.4-.8.5-.3,0-.7,0-1.1-.1.2,0,.5,0,.7,0,.2,0,.4.2.4.4,0,.2,0,.4,0,.5,0,.2-.1.3-.1.3-.1.2-.3.3-.5.4-.2,0-.3.1-.3.1,0,0,.2,0,.3,0,.1,0,.3,0,.5.1.2.1.4.3.5.5.1.2.2.4.2.6,0,.4-.1.8-.4,1.1-.2.3-.6.5-.9.5-.3,0-.4-.2-.6-.5-.1-.2-.2-.5-.3-.5,0-.1-.1-.3-.1-.5,0-.2,0-.4,0-.6,0,0,0,0,0-.2,0,0,0-.2,0-.3,0,0,0,0,0-.1,0,0,0,0,0,0,0-.2-.1-.4-.1-.6,0-.2,0-.4,0-.6,0-.1.1-.2.2-.2,0,0,.1-.1.2-.3,0,0,0-.2,0-.2,0,0,0-.1,0-.2,0-.2,0-.4.1-.7,0-.2.2-.5.4-.7.2-.1.4-.2.6-.3.2,0,.3-.1.4-.1,0,0,0,0,0,0,0,0,0,0,0,0,0,0,0,0,.1,0,0,0,0,0,0,0,0,0,.3-.4.6-.7.3-.3.7-.6,1.1-.7,0,0-.2-.8,0-.8.1,0,.6.2.8.3l.6.8Z"/>
        <path class="st37" d="M22.7,50.7c0,0,.1.3.1.6,0,.3,0,.6-.2.9-.2.3-.7.4-1.2.4-.5,0-1.1-.3-1.7-.8,0,0,.1.1.3.3.1.2.2.4.2.6,0,0,0,.2,0,.3,0,.2,0,.3-.2.5-.2.2-.5.4-.8.5-.3,0-.7,0-1.1-.1.2,0,.5,0,.7,0,.2,0,.4.2.4.4,0,.2,0,.4,0,.5,0,.2-.1.3-.1.3-.1.2-.3.3-.5.4-.2,0-.3.1-.3.1,0,0,.2,0,.3,0,.1,0,.3,0,.5.1.2.1.4.3.5.5.1.2.2.4.2.6,0,.4-.1.8-.4,1.1-.2.3-.6.5-.9.5-.3,0-.4-.2-.6-.5-.1-.2-.2-.5-.3-.5,0-.1-.1-.3-.1-.5,0-.2,0-.4,0-.6,0,0,0,0,0-.2,0,0,0-.2,0-.3,0,0,0,0,0-.1,0,0,0,0,0,0,0-.2-.1-.4-.1-.6,0-.2,0-.4,0-.6,0-.1.1-.2.2-.2,0,0,.1-.1.2-.3,0,0,0-.2,0-.2,0,0,0-.1,0-.2,0-.2,0-.4.1-.7,0-.2.2-.5.4-.7.2-.1.4-.2.6-.3.2,0,.3-.1.4-.1,0,0,0,0,0,0,0,0,0,0,0,0,0,0,0,0,.1,0,0,0,0,0,0,0,0,0,.3-.4.6-.7.3-.3.7-.6,1.1-.7,0,0-.2-.8,0-.8.1,0,.6.2.8.3l.6.8Z"/>
        <path class="st46" d="M32,56.4c.3.2,1.3.6,2.8.8,1.6.2,3.8.2,6.7-.4,3.7-.8,5.8-2.5,7.6-4,1.8-1.5,3.2-2.7,5.7-2.5,1.4.1,2.7.6,3.8,1.4,1.1.8,2,1.9,2.4,3,.8,2.4-.4,4.9-1.8,6.9-1.5,2-3.2,3.4-3.4,3.6-2.6,2.1-5.5,3-8.1,3.3-2.6.4-4.8.2-6,0-4.5-.4-8.2-2-11.1-3.7-2.9-1.7-4.9-3.6-5.9-4.7.4-.2.8-.5,1.3-.9.5-.4,1-.9,1.5-1.5.6-.6,1-1.3,1.3-1.9.3-.6.5-1.1.6-1.5.3.3.6.6,1,.9.4.3.9.7,1.5,1Z"/>
        <path class="st21" d="M46.5,72.7c0,2.4-.2,4.5-.3,6.3-.2,1.8-.3,3.4-.5,4.7,0,.3-.2.7-.3,1.2,0,.5-.1,1-.2,1.5,0,.5,0,1.2,0,2,.1.9.4,1.9.9,2.9.2.3.4.8.8,1.2.4.5.8,1,1.4,1.5,0,0,0,0,.2.1s.2.1.3.2c1.3.6,2.8.7,4.2.7,1.4,0,2.5-.3,3-.4.4,0,.9-.2,1.5-.4.6-.2,1.2-.4,1.9-.7.3-.6.7-1.4,1-2.3.3-1,.6-2.1.8-3.3.4-2.7,0-5.7-.6-8-.7-2.4-1.8-4.1-3.2-4.3-.2,0-.5,0-.8,0-.3,0-.7.3-1.2.7l-9-3.5Z"/>
        <path class="st25" d="M59.4,93.5c0,.3,0,.5-.1.8,0,.3,0,.5-.1.8,0,.4-.1.8-.2,1.2,0,.4-.1.8-.2,1.2-.2,1.4-.4,2.8-.5,4.2-.2,1.4-.4,2.8-.5,4.2-.9,0-1.8,0-2.7,0-.9,0-1.8,0-2.7,0-1,0-2,0-3,0-1,0-2.1,0-3.1,0-1.4,0-2.8,0-4.2,0-1.4,0-2.7,0-4,0,.3-.5.8-1.1,1.4-1.7.6-.7,1.4-1.4,2.4-2,.9-.6,1.8-1,2.6-1.3.8-.3,1.5-.4,2-.5,0-.5-.1-1-.2-1.6,0-.6,0-1.1-.1-1.7,0-.1,0-.3,0-.4,0-.1,0-.3,0-.4,0-.3,0-.6,0-.8,0-.3,0-.5,0-.8,0-.6,0-1.1,0-1.6,0-.5,0-1,.1-1.5,2.1.7,4.2,1.2,6.4,1.6s4.4.5,6.6.5h.3Z"/>
        <path class="st3" d="M56.5,91.4c.1,0,.4-.2.6-.6.2-.4.4-.8.5-1.2.2-.6.3-1.2.3-1.7,0-.5,0-.9-.2-.9-.1,0-.3.2-.5.4-.2.3-.3.6-.4.8-.3.7-.5,1.5-.5,2.1,0,.6,0,1,.2,1.1Z"/>
        <path class="st3" d="M52.7,90.8c.2,0,.3-.3.5-.7.1-.4.3-.9.3-1.3,0-.6,0-1.2,0-1.7,0-.5-.2-.8-.4-.9-.1,0-.3.2-.4.5-.1.3-.2.6-.3.9-.2.7-.2,1.5-.1,2.1,0,.6.2,1,.4,1Z"/>
        <path class="st3" d="M48.9,90.4c.2,0,.3-.3.3-.7,0-.4,0-.9,0-1.3,0-.6-.2-1.2-.3-1.7-.2-.5-.4-.8-.5-.8-.1,0-.2.3-.3.6,0,.3-.1.7-.1.9,0,.8,0,1.5.3,2.1.2.6.4,1,.6.9Z"/>
        <path class="st21" d="M77.3,72.7c0,2.4.2,4.5.3,6.3.2,1.8.3,3.4.5,4.7,0,.3.2.7.3,1.2,0,.5.1,1,.2,1.5,0,.5,0,1.2,0,2-.1.9-.4,1.9-.9,2.9-.2.3-.4.8-.8,1.2-.4.5-.8,1-1.4,1.5,0,0,0,0-.2.1,0,0-.2.1-.3.2-1.3.6-2.8.7-4.2.7-1.4,0-2.5-.3-3-.4-.4,0-.9-.2-1.5-.4-.6-.2-1.2-.4-1.9-.7-.3-.6-.7-1.4-1-2.3-.3-1-.6-2.1-.8-3.3-.4-2.7,0-5.7.6-8,.7-2.4,1.8-4.1,3.2-4.3.2,0,.5,0,.8,0,.3,0,.7.3,1.2.7l9-3.5Z"/>
        <path class="st35" d="M80.3,83.8c-.8.3-1.8.7-3,1.1-1.2.3-2.6.6-4.1.8-1.5.1-2.7,0-3.7,0-1-.1-1.9-.4-2.8-.6-.7-.2-1.4-.3-2.2-.5-.8-.1-1.8-.2-2.9-.2-.5,0-.9,0-1.3,0-.4,0-.8,0-1.2,0-2.1.2-3.5.7-5.1,1-1.5.3-3.1.5-5.4,0-1.2-.2-2.3-.5-3.2-.8-.9-.3-1.7-.7-2.3-1,.2-1.6.3-3,.4-4.2.1-1.2.2-2.2.3-3,0,0,0-.1,0-.2,0,0,0-.1,0-.2,0-1,.2-2.1.3-3.1.1-1,.2-2.1.3-3.1.2-1.9.4-3.8.6-5.7.2-1.9.4-3.8.6-5.7.1-1,.2-1.9.4-2.9.2-.9.4-1.9.7-2.8.5-1.1,1.1-2.2,1.9-3.1.8-.9,1.7-1.7,2.6-2.4,1.1-.8,2.2-1.6,3.2-2.1,1-.6,2-1,2.9-1.3h8.4c1.1.5,2.1,1,3.1,1.6,1,.6,2,1.2,3,1.9.9.7,1.8,1.5,2.6,2.4.8.9,1.4,1.9,1.9,3.1.4.9.6,1.8.8,2.8.2.9.3,1.9.4,2.9.2,1.7.4,3.4.5,5.1s.4,3.4.5,5.1c.1,1,.2,2.1.3,3.1.1,1,.2,2.1.3,3.1,0,.3,0,.5,0,.8,0,.3,0,.5,0,.8,0,.8.2,1.9.3,3.1.1,1.2.3,2.6.5,4.2Z"/>
        <path class="st46" d="M66.8,85c-.7-.2-1.4-.3-2.2-.5-.8-.1-1.8-.2-2.9-.2-.5,0-.9,0-1.3,0-.4,0-.8,0-1.2,0,.2-.2.3-.3.5-.5.2-.2.3-.4.5-.6,0,0,.1-.2.3-.4.2-.3.4-.6.6-1,.6-.9.8-2.8,1-4.5.2-1.7.3-3.1.5-3.2.1,0,.4.7.6,1.9.3,1.1.6,2.6.9,4.1,0,.5.2,1,.4,1.6.2.6.5,1.2.9,1.8.2.3.4.5.6.7.2.2.5.4.7.6Z"/>
        <path class="st46" d="M62.3,60.4c.7,0,1-.5,1-1,0-.5-.3-1-1-1s-1,.5-1,1c0,.5.3,1,1,1h0Z"/>
        <path class="st46" d="M62.3,63.4c.7,0,1-.5,1-1,0-.5-.3-1-1-1s-1,.5-1,1c0,.5.3,1,1,1h0Z"/>
        <path class="st46" d="M62.3,69.6c.7,0,1-.5,1-1,0-.5-.3-1-1-1s-1,.5-1,1c0,.5.3,1,1,1h0Z"/>
        <path class="st3" d="M67.3,91.4c-.1,0-.4-.2-.6-.6-.2-.4-.4-.8-.5-1.2-.2-.6-.3-1.2-.3-1.7,0-.5,0-.9.2-.9.1,0,.3.2.5.4.2.3.3.6.4.8.3.7.5,1.5.5,2.1,0,.6,0,1-.2,1.1Z"/>
        <path class="st3" d="M71.1,90.8c-.2,0-.3-.3-.5-.7-.1-.4-.3-.9-.3-1.3,0-.6,0-1.2,0-1.7,0-.5.2-.8.4-.9.1,0,.3.2.4.5.1.3.2.6.3.9.2.7.2,1.5.1,2.1,0,.6-.2,1-.4,1Z"/>
        <path class="st3" d="M74.9,90.4c-.2,0-.3-.3-.3-.7,0-.4,0-.9,0-1.3,0-.6.2-1.2.3-1.7.2-.5.4-.8.5-.8.1,0,.2.3.3.6,0,.3.1.7.1.9,0,.8,0,1.5-.3,2.1-.2.6-.4,1-.6.9Z"/>
        <path class="st25" d="M79.3,75.1c-5.8,1.4-11.7,2.2-17.6,2.4-5.9.2-11.9-.2-17.7-1.1-.1,0-.3,0-.3-.2,0-.1-.1-.2-.1-.4,0-.9.2-1.7.3-2.6,0-.9.2-1.7.3-2.6,0-.2,0-.3.2-.4.1,0,.3-.1.4,0,.9.2,1.9.3,2.8.4.9.1,1.9.2,2.8.3,4.7.4,9.4.5,14.1.2,4.7-.3,9.4-1.1,14-2.2.2,0,.3,0,.4,0,.1,0,.2.2.2.4,0,.9.2,1.8.3,2.6,0,.9.2,1.8.3,2.6,0,.1,0,.3,0,.4,0,.1-.2.2-.3.2Z"/>
        <path class="st21" d="M67.8,74.3c0,.3,0,.6-.1,1,0,.3-.2.6-.4.9-.2.3-.4.5-.6.7-.2.2-.5.4-.7.6-.5.3-1.1.6-1.6.8-.6.2-1.2.3-1.8.4-.6,0-1.2,0-1.8,0-.6,0-1.2-.3-1.8-.6-.3-.1-.6-.3-.8-.5-.3-.2-.5-.4-.7-.7-.2-.3-.4-.6-.5-.9-.1-.3-.2-.7-.2-1.1,0-.4,0-.7.2-1.1.1-.3.3-.7.5-1,.2-.3.4-.5.7-.7.3-.2.5-.4.8-.6.6-.3,1.1-.5,1.7-.7.6-.1,1.2-.2,1.8-.2.6,0,1.2,0,1.8.2.6.1,1.1.4,1.7.7.3.1.5.3.8.5.2.2.5.4.6.7.2.2.4.5.5.8.1.3.2.6.2.9ZM67,74.3c0-.2,0-.5-.2-.7,0-.2-.2-.4-.4-.6-.2-.2-.3-.4-.5-.5-.2-.1-.4-.3-.7-.4-.5-.2-1-.4-1.5-.4-.5,0-1,0-1.5,0-.5,0-1,.2-1.5.3-.5.2-.9.4-1.3.6-.2.1-.4.3-.5.4-.2.2-.3.3-.4.5-.1.2-.2.4-.3.5,0,.2,0,.4,0,.6,0,.2,0,.4.1.5,0,.2.2.4.3.5.1.2.3.3.5.5.2.1.4.3.6.4.4.2.9.4,1.4.5.5.1,1,.2,1.5.2.5,0,1,0,1.5-.1.5-.1,1-.3,1.4-.5.2-.1.4-.3.6-.4.2-.2.4-.3.5-.5.1-.2.3-.4.3-.6,0-.2.1-.5.1-.7Z"/>
        <path class="st4" d="M64.3,75.2c.5,0,1,0,1.5,0,.5,0,1,0,1.5,0,.5,0,.7-.4.7-.8,0-.4-.3-.8-.8-.7-.5,0-1,0-1.5,0-.5,0-1,0-1.5,0-.5,0-.7.4-.7.8,0,.4.3.8.8.7h0Z"/>
        <path class="st51" d="M60.4,75.5c.7,0,1-.5,1-1,0-.5-.3-1-1-1s-1,.5-1,1c0,.5.3,1,1,1h0Z"/>
        <path class="st51" d="M54,75.5c.7,0,1-.5,1-1,0-.5-.3-1-1-1s-1,.5-1,1c0,.5.3,1,1,1h0Z"/>
        <path class="st51" d="M47.7,74.8c.7,0,1-.5,1-1,0-.5-.3-1-1-1s-1,.5-1,1,.3,1,1,1h0Z"/>
        <path class="st46" d="M74.9,49.7c.7.2,1.9.5,3.3,1.2,1.4.7,3,1.8,4.5,3.4,1.4,1.6,2.3,3.2,2.8,4.7.5,1.4.8,2.6.9,3.3.2.9.6,3.3.3,6-.3,2.7-1.3,5.7-3.9,7.7-2.2,1.7-4.7,2.1-6.8,2.1-2.1,0-3.7-.5-4.1-.6,0-.4.2-.9.3-1.5,0-.6,0-1.3,0-2.1,0-.7-.2-1.4-.4-1.9-.2-.6-.3-1-.5-1.4,1.2-.9,2.3-1.8,3.5-2.7s2.3-1.8,3.5-2.7c0-.7-.1-1.3-.2-2,0-.7-.2-1.4-.4-2.2-.2-.8-.3-1.6-.5-2.3-.2-.7-.4-1.3-.5-1.7-.2-.7-.5-1.6-.9-2.4-.4-.9-.8-1.9-1.3-2.9l.5-1.9Z"/>
        <g>
          <g>
            <path class="st37" d="M47.1,32.8c-.4-.8-.9-1.5-1.6-2-.7-.5-1.5-.8-2.3-.8-1.3,0-2.4.4-3.3,1.1-.9.7-1.4,1.7-1.5,2.5,0,.8.4,1.3.9,1.9.5.6,1.2,1.4,1.5,2.7.2.9.2,1.6.2,2.2,0,.5,0,.9.3,1.2.3.2.8.4,1.6.3.8-.1,2-.5,3.6-1.3l.5-7.9Z"/>
            <path class="st0" d="M46.3,35.2c-.4-.5-.9-.9-1.4-1.1-.5-.2-1-.2-1.5,0-.5.2-.8.6-1,1.1s-.2.9-.3,1.1c0,.1,0,.7,0,1.3,0,.6.4,1.3,1,1.6.5.2,1,.2,1.6,0,.6-.2,1.1-.6,1.5-1.2v-2.7Z"/>
            <path class="st0" d="M45.5,33c-.2-.2-.4-.3-.6-.5-.2-.1-.4-.3-.7-.3-.1,0-.2,0-.4-.1-.1,0-.2,0-.4,0-.1,0-.3,0-.4,0-.1,0-.3,0-.4,0-.3,0-.5,0-.8.2-.2,0-.5.2-.7.4-.2.1-.4.3-.6.5-.2.2-.3.4-.4.7,0-.3.2-.5.3-.7.1-.2.3-.4.5-.6.2-.2.4-.3.7-.5.3-.1.5-.2.8-.3.1,0,.3,0,.4,0,.1,0,.3,0,.4,0,.1,0,.3,0,.4,0,.1,0,.3,0,.4,0,.3,0,.6.2.8.3s.5.3.7.5l-.3.3-.3.3Z"/>
          </g>
          <g>
            <path class="st37" d="M77.1,32.8c.4-.8.9-1.5,1.6-2,.7-.5,1.5-.8,2.3-.8,1.3,0,2.4.4,3.3,1.1.9.7,1.4,1.7,1.5,2.5,0,.8-.4,1.3-.9,1.9-.5.6-1.2,1.4-1.5,2.7-.2.9-.2,1.6-.2,2.2,0,.5,0,.9-.3,1.2-.3.2-.8.4-1.6.3-.8-.1-2-.5-3.6-1.3l-.5-7.9Z"/>
            <path class="st0" d="M77.9,35.2c.4-.5.9-.9,1.4-1.1.5-.2,1-.2,1.5,0,.5.2.8.6,1,1.1.2.4.2.9.3,1.1,0,.1,0,.7,0,1.3,0,.6-.4,1.3-1,1.6-.5.2-1,.2-1.6,0-.6-.2-1.1-.6-1.5-1.2v-2.7Z"/>
            <path class="st0" d="M78.7,33c.2-.2.4-.3.6-.5.2-.1.4-.3.7-.3.1,0,.2,0,.4-.1.1,0,.2,0,.4,0,.1,0,.3,0,.4,0,.1,0,.3,0,.4,0,.3,0,.5,0,.8.2.2,0,.5.2.7.4.2.1.4.3.6.5.2.2.3.4.4.7,0-.3-.2-.5-.3-.7-.1-.2-.3-.4-.5-.6-.2-.2-.4-.3-.7-.5-.3-.1-.5-.2-.8-.3-.1,0-.3,0-.4,0-.1,0-.3,0-.4,0-.1,0-.3,0-.4,0-.1,0-.3,0-.4,0-.3,0-.6.2-.8.3-.3.1-.5.3-.7.5l.3.3.3.3Z"/>
          </g>
          <path class="st37" d="M79,39.2c-.4,4.1-2.3,8.2-5.3,11.2-3,3-7.1,4.9-11.6,4.8-4.4-.1-8.3-2.2-11.1-5.1-2.8-3-4.6-6.9-5-10.9-.4-4.7,1.2-9.5,4.1-13.1,2.9-3.6,7.1-6.2,11.9-6.3,5-.1,9.4,2.3,12.5,6,3.1,3.7,4.9,8.6,4.4,13.4Z"/>
          <path class="st48" d="M80.6,56.4c-1.5,5.4-4.7,9.2-8.1,11.9-3.4,2.7-6.9,4.2-9,4.9-.2,0-.4.1-.6.2-.2,0-.3.1-.5.1,0,0-.2,0-.2,0,0,0-.1,0-.2,0,0,0,0,0,0,0,0,0,0,0,0,0,0,0,0,0,0,0,0,0,0,0,0,0,0,0,0,0,0,0,0,0,0,0,0,0h0s0,0,0,0c0,0,0,0,0,0,0,0,0,0,0,0,0,0-.2,0-.3-.1,0,0-.2,0-.3-.1-.2,0-.5-.2-.7-.3-.3-.1-.6-.3-.9-.4-2-1-4.8-2.8-7.6-5.5-2.7-2.7-5.3-6.3-6.9-10.9-1.1-3.3-1.3-6.3-1.3-8.9,0-2.6.5-4.7.8-6.1-.3-1.8-.5-4.4-.1-7.2.4-2.8,1.3-5.7,3.4-8,.8-.9,1.7-1.7,2.5-2.2.8-.5,1.5-.8,1.6-.6.2.2-.3.9-1.1,2.1-.8,1.2-1.7,3-2.3,5.3-.3,1.2-.5,2.4-.6,3.4-.1,1-.1,1.9-.2,2.5h0c0,0,0,.2,0,.2,0,0,0,.1,0,.2,0,0,0,0,0,0s0,0,0,0c0,.1,0,.2,0,.3s0,.2,0,.3c0,.4,0,.8,0,1,0,.3,0,.5,0,.6,0,.1,0,.3,0,.4,0,.1,0,.3,0,.4,0,0,0,0,0,0,0,0,0,0,0,0,0,.2,0,.3.1.5,0,.2,0,.3.1.5.2.6.4,1.5.8,2.5.4,1,1,2,1.7,2.8,0,0,0,0,0,0,0,0,0,0,0,0,0,0,.1.2.2.2,0,0,.2.1.2.2h0s0,0,.1.1c0,0,0,0,.1.1,0,0,0,0,0,0,0,0,0,0,0,0,0,0,0,0,0,0,0,0,0,0,0,0,.2.2.5.3.7.4.3.1.5.2.8.3.3,0,.7.1,1.1.1.4,0,.8,0,1.2,0,0,0,.2,0,.3,0,0,0,.2,0,.3,0,.1,0,.3,0,.4-.1.1,0,.3,0,.4-.1,0,0,0,0,0,0,0,0,0,0,0,0,.1,0,.3-.1.4-.2.1,0,.3-.2.4-.2,0,0,0,0,0,0,0,0,0,0,0,0,0,0,.2-.1.3-.2,0,0,.2-.2.2-.3.3-.4.4-.9.6-1.3.2-.4.4-.8.8-1.2.3-.2.7-.4,1-.4.3,0,.7,0,.9,0h0c.3,0,.6,0,.9,0s.7.2,1,.4c.5.3.7.7.8,1.2.2.4.3.9.6,1.3,0,.1.2.2.3.4.1.1.3.2.4.3,0,0,0,0,0,0,0,0,0,0,0,0,.1,0,.2.1.4.2.1,0,.3.1.4.2,0,0,0,0,0,0,0,0,0,0,0,0,0,0,.1,0,.2,0,0,0,.1,0,.2,0,0,0,.2,0,.3,0,0,0,.2,0,.3,0,.4,0,.9,0,1.3,0,.4,0,.8,0,1.2-.1.2,0,.5-.1.7-.2.2,0,.4-.2.6-.3,0,0,.2-.1.2-.2,0,0,.2-.1.2-.2,0,0,0,0,0,0,0,0,0,0,0,0,0,0,0,0,0,0,0,0,0,0,0,0,.1-.1.3-.2.4-.4.1-.1.2-.3.4-.4,0,0,0,0,0,0,0,0,0,0,0,0,.7-.8,1.2-1.8,1.6-2.7.4-.9.6-1.8.8-2.3,0-.2,0-.4.1-.5,0-.2,0-.4.1-.5,0,0,0,0,0-.2,0-.1,0-.4,0-.6,0,0,0,0,0-.1,0,0,0,0,0-.1,0-.1,0-.3,0-.4,0-.1,0-.3,0-.4,0-.2,0-.4,0-.7,0-.2,0-.4,0-.6,0-.1,0-.3,0-.4,0-.1,0-.3,0-.4h0c0-.2,0-.4,0-.5,0-.2,0-.3,0-.5-.1-2.7-.6-4.9-1.1-6.3-.5-1.5-.9-2.2-.9-2.2-.6-1-1.2-1.8-1.6-2.4-.4-.6-.7-.9-.6-1,.2-.2.8.2,1.7.7.8.5,1.8,1.3,2.5,2,.8.7,2,2.1,2.9,4.5.9,2.4,1.5,5.8,1.1,10.7.5,1.2,1.2,3.2,1.6,5.9.4,2.6.4,5.9-.5,9.3Z"/>
          <path class="st12" d="M59,34.6c0,.8-.3,1.6-.8,2.1-.5.5-1.2.9-1.9.9s-1.4-.3-1.9-.9c-.5-.5-.8-1.3-.8-2.1s.3-1.6.8-2.1c.5-.5,1.2-.9,1.9-.9s1.4.3,1.9.9c.5.5.8,1.3.8,2.1Z"/>
          <path class="st51" d="M57.9,34.6c0,.5-.2.9-.5,1.2-.3.3-.7.5-1.1.5s-.8-.2-1.1-.5c-.3-.3-.5-.8-.5-1.2s.2-.9.5-1.2c.3-.3.7-.5,1.1-.5s.8.2,1.1.5c.3.3.5.8.5,1.2Z"/>
          <path class="st34" d="M56.2,33.2c0-.2,0-.4-.2-.6s-.4-.2-.6-.2-.4,0-.6.2-.2.4-.2.6,0,.4.2.6.4.2.6.2.4,0,.6-.2.2-.4.2-.6Z"/>
          <path class="st12" d="M71.2,34.6c0,.8-.3,1.6-.8,2.1-.5.5-1.2.9-1.9.9s-1.4-.3-1.9-.9c-.5-.5-.8-1.3-.8-2.1s.3-1.6.8-2.1c.5-.5,1.2-.9,1.9-.9s1.4.3,1.9.9c.5.5.8,1.3.8,2.1Z"/>
          <path class="st51" d="M70,34.6c0,.5-.2.9-.5,1.2-.3.3-.7.5-1.1.5s-.8-.2-1.1-.5c-.3-.3-.5-.8-.5-1.2s.2-.9.5-1.2c.3-.3.7-.5,1.1-.5s.8.2,1.1.5c.3.3.5.8.5,1.2Z"/>
          <path class="st34" d="M68.3,33.2c0-.2,0-.4-.2-.6s-.4-.2-.6-.2-.4,0-.6.2c-.1.1-.2.4-.2.6s0,.4.2.6c.1.1.4.2.6.2s.4,0,.6-.2.2-.4.2-.6Z"/>
          <path class="st40" d="M57.1,41.8c0,.7-.4,1.4-1.1,1.9-.7.5-1.6.8-2.6.8s-1.9-.3-2.6-.8c-.7-.5-1.1-1.2-1.1-1.9s.4-1.4,1.1-1.9c.7-.5,1.6-.8,2.6-.8s1.9.3,2.6.8c.7.5,1.1,1.2,1.1,1.9Z"/>
          <path class="st40" d="M74,41.8c0,.7-.4,1.4-1.1,1.9-.7.5-1.6.8-2.6.8s-1.9-.3-2.6-.8c-.7-.5-1.1-1.2-1.1-1.9s.4-1.4,1.1-1.9c.7-.5,1.6-.8,2.6-.8s1.9.3,2.6.8c.7.5,1.1,1.2,1.1,1.9Z"/>
          <path class="st22" d="M133.3,6.7c.4-.5.4-1.2.1-2.3-.3-1.1-.8-2.5-1.6-4.5-.6-1.4-1-2.5-1.5-3.6-.5-1.1-1.1-2.1-1.9-3.5-3.1-5-5.1-11.5-6.9-16.8-1.7-5.3-3.2-9.3-5.4-9.4-1.5,0-2.4,2-3.9,6.3s-3.7,11-8,20.3c-1.7,3.8-3.3,6.8-4.3,9.1-.9,2.3-1.3,3.9-.4,4.7,1,1,2.8.1,5.6-1.1,2.8-1.2,6.5-2.6,11.2-2.6,4.6,0,8.3,1.3,11.2,2.4,2.9,1.1,4.8,1.8,5.6.8Z"/>
          <path class="st20" d="M76,50.3c-.4,3.3-1.1,6.7-2.3,9.8-1.2,3.1-2.8,6-5.1,8.5-.1.1-.6.5-1.3,1.2-.7.6-1.6,1.5-2.6,2.5-.2.2-.4.4-.6.6-.2.2-.4.4-.5.5-.2,0-.4.1-.6.2-.2,0-.3.1-.5.2,0,0-.2,0-.2,0,0,0-.1,0-.2,0,0,0,0,0,0,0,0,0,0,0,0,0,0,0,0,0,0,0,0,0,0,0,0,0,0,0,0,0,0,0,0,0,0,0,0,0h0s0,0,0,0c0,0,0,0,0,0,0,0,0,0,0,0,0,0-.2,0-.3-.1,0,0-.2,0-.3-.1-.2,0-.5-.2-.7-.3-.3-.1-.6-.3-.9-.5,0,0-.2-.2-.3-.3,0,0-.2-.2-.3-.3-1-.9-1.9-1.8-2.6-2.4-.7-.6-1.2-1.1-1.3-1.2-2.3-2.5-4-5.3-5.1-8.5-1.2-3.1-1.9-6.4-2.3-9.8-.2-1.8-.3-3.6-.4-5.4,0-1.8,0-3.6.2-5.4,0-.6.1-1.2.2-1.7,0-.6.2-1.2.2-1.7,0,0,0,.1,0,.2,0,0,0,.1,0,.2,0,.1,0,.2,0,.3s0,.2,0,.3c0,0,0,0,0,0s0,0,0,0c0,.1,0,.2,0,.3s0,.2,0,.3c0,.4,0,.8,0,1,0,.3,0,.5,0,.6,0,.1,0,.3,0,.4,0,.1,0,.3,0,.4,0,.1,0,.2,0,.4,0,.1,0,.2,0,.4-.2,3.4-.1,6.9.4,10.4.5,3.5,1.3,6.8,2.7,10,.6,1.5,1.4,2.9,2.3,4.2.9,1.3,1.9,2.5,3,3.6.5.5,1.1,1,1.6,1.6.6.5,1.1,1,1.7,1.5.1,0,.2.2.3.3.1,0,.2.2.3.3-.4-.6-.9-1.2-1.3-1.8-.4-.6-.8-1.2-1.2-1.8-1.5-2.5-2.9-5.1-3.9-7.8-1.1-2.7-1.8-5.6-2.3-8.5-.2-1-.3-2-.4-3-.1-1-.2-2-.2-3,0,0,.1.2.2.2,0,0,.2.1.2.2h0s0,0,.1.1c0,0,0,0,.1.1,0,0,0,0,0,0,0,0,0,0,0,0,.1,2.6.5,5.1,1.1,7.6.6,2.5,1.4,5,2.4,7.3.5,1.3,1.1,2.5,1.7,3.7.6,1.2,1.3,2.4,2.1,3.5.4.6.7,1.1,1.1,1.6.4.5.8,1.1,1.2,1.6-.2-.5-.4-.9-.6-1.4-.2-.5-.4-1-.5-1.4-.9-2.6-1.6-5.3-2.1-8-.5-2.7-.9-5.5-1-8.3,0-1,0-1.9,0-2.9,0-1,0-1.9,0-2.9,0,0,0,0,0,0,0,0,0,0,0,0,.1,0,.3-.1.4-.2.1,0,.3-.2.4-.2-.2,2.6-.1,5.2,0,7.7.2,2.6.6,5.1,1.1,7.6.3,1.3.6,2.6,1,3.9.4,1.3.8,2.6,1.2,3.8.1.3.2.6.3.9.1.3.2.6.3.9.1-.3.2-.6.3-.9.1-.3.2-.6.3-.9.5-1.3.9-2.6,1.2-3.8.4-1.3.7-2.6,1-3.9.5-2.5.9-5,1.1-7.6.2-2.5.2-5.1,0-7.6.1,0,.2.1.4.2.1,0,.3.1.4.2,0,0,0,0,0,0,0,0,0,0,0,0,0,.9,0,1.9,0,2.8,0,.9,0,1.9,0,2.8-.2,2.8-.5,5.5-1,8.3-.5,2.7-1.2,5.4-2.1,8-.2.5-.3,1-.5,1.4-.2.5-.4.9-.6,1.4.4-.5.8-1,1.2-1.6.4-.5.8-1.1,1.1-1.6.7-1.1,1.4-2.3,2.1-3.5.6-1.2,1.2-2.4,1.8-3.7,1-2.4,1.8-4.9,2.4-7.4.6-2.5.9-5.1,1.1-7.7,0,0,0,0,0,0,0,0,0,0,0,0,.1-.1.3-.2.4-.4.1-.1.2-.3.4-.4,0,1.1-.1,2.1-.2,3.2-.1,1.1-.3,2.1-.4,3.1-.5,2.9-1.3,5.8-2.3,8.5-1.1,2.7-2.4,5.4-3.9,7.8-.4.6-.8,1.2-1.2,1.8-.4.6-.8,1.2-1.3,1.8.1,0,.2-.2.3-.3.1,0,.2-.2.3-.3.6-.5,1.1-1,1.7-1.5.6-.5,1.1-1,1.6-1.6,1.1-1.1,2.1-2.3,3-3.6.9-1.3,1.7-2.7,2.3-4.2,1.3-3.2,2.2-6.5,2.7-10,.5-3.5.6-7,.4-10.4,0-.3,0-.6,0-.9,0-.3,0-.6,0-.9,0-.1,0-.3,0-.4,0-.1,0-.3,0-.4,0-.2,0-.4,0-.7,0-.2,0-.4,0-.6,0-.1,0-.3,0-.4,0-.1,0-.3,0-.4h0c0-.3,0-.6,0-.9,0-.3,0-.5,0-.8.1.8.3,1.6.4,2.4.1.8.2,1.6.3,2.4.2,1.8.2,3.6.2,5.4,0,1.8-.2,3.6-.4,5.4Z"/>
          <path class="st51" d="M61,53.6c.3.3.7.5,1.1.5.4,0,.8,0,1.3-.1.3-.1.7-.4,1-.7.3-.3.4-.7.3-1.1,0,0-.1-.2-.2-.2,0,0-.2,0-.3,0-.2,0-.4.2-.5.4-.2.2-.3.3-.5.5-.3.2-.5.2-.8.3-.3,0-.6,0-.9-.1-.2,0-.4,0-.4.2,0,.2,0,.4,0,.5h0Z"/>
          <path class="st48" d="M53.1,32.1c.2,0,.4-.2.6-.3.2-.1.4-.3.6-.4.3-.1.6-.2.8-.3s.6,0,.9-.1c.3,0,.6,0,.8,0,.3,0,.5.1.8.2.3.1.5.2.8.3.3,0,.5.1.8,0,.2,0,.3-.2.4-.3,0-.2.1-.4,0-.5-.2-.7-.9-1.1-1.7-1.2-.8-.1-1.7,0-2.3,0-.5,0-1.2.4-1.8.8-.6.4-1.1.9-1.2,1.4,0,0,0,.2,0,.3,0,0,.2.1.3,0h0Z"/>
          <path class="st48" d="M71.7,32.1c-.2,0-.4-.2-.6-.3-.2-.1-.4-.3-.6-.4-.3-.1-.5-.2-.8-.3s-.6,0-.9-.1c-.3,0-.6,0-.8,0-.3,0-.5.1-.8.2-.3.1-.5.2-.8.3-.3,0-.5.1-.8,0-.2,0-.3-.2-.4-.3,0-.2-.1-.4,0-.5.2-.7.9-1.1,1.7-1.2.8-.1,1.7,0,2.3,0,.5,0,1.2.4,1.8.8.6.4,1.1.9,1.2,1.4,0,0,0,.2,0,.3,0,0-.2.1-.3,0h0Z"/>
          <g>
            <path class="st3" d="M52.5,24.9c0,0-.1,0-.2,0,0,0-.1,0-.2,0,0,0,0,0,0,0,0,0,0,0,0,0,0,0,0,0,0,0,0,0,0,0,0,0,0,0,0,0,.1,0,0,0,0,0,.1,0,0,0,0,0,0,0,0,0,0,0,0,0,0,0,0,0-.1,0,0,0,0,0-.1,0,0,0,0,0,0,0,0,0,0,0,0,0,0,0,0,0,0-.1,0,0,0,0,0-.1,0,0,0-.1,0-.1,0,0-.1,0-.1,0,0,0,0,0,0,0,0,0,0,0,0,0,0,0,0,0,0,0,0,0,0,0,0,0,0,0,0,0-.1,0,0,0,0,0,0,0,0,0,0,0,0,0,0,0,0,0,0,0,0,0,0,0,0,0,0,0,0,0,0,0,0,0,0,0,0,0,0,0,0,0,0,0,0,0-.2.2-.2.3,0,0-.2.2-.2.3,0,0,0,.1,0,.1,0,0,0,0,.1,0,0,0,.1-.1.2-.2s.1,0,.2-.1c0,0,0,0,0,0,0,0,0,0,0,0,0,0,0,0,0,0,0,0,0,0,0,0,0,0,0,0,0,0,0,0,0,0,0,0,0,0,0,0,0,0,0,0,0,0,0,0,0,0,0,0,0,0,0,0,0,0,0,0,0,0,0,0,0,0,0,0,0,0,0,0,0,0,0,0,0-.1,0,0,0,0,0-.1,0,0,0,0,.1,0,0,0,0,0,0-.1,0,0,0,0,0,0,0,0,0,0,0,0,0,0,0,0,0,0,0,0,0,0,0,0,0,0,0,0,.1,0,0,0,0,0,0,0,0,0,0,0,0,0,0,0,0,0,0,0,0,0,.1,0,.1,0,0,0,0,0,0-.1,0,0,0,0,0,0,0,0,0,0,0,0,0,0,0,0,0-.1,0,0,0,0,0,0Z"/>
            <path class="st3" d="M74.6,26.1c0,0,0-.1-.1-.2,0,0-.1-.1-.2-.2,0,0,0-.1,0-.2,0,0,0-.1,0-.2,0,0,0-.1,0-.1,0,0,0,0-.1,0,0,0,0,0-.1.1,0,0,0,0-.1.1,0,0,0,0,0,0,0,0,0,0,0,0,0,0,0,0,0,0,0,0,0,0-.1,0,0,0,0,0,0,0,0,0,0,0,0,0,0,0,0,0,0,0,0,0,0,0,0,0,0,0-.2,0-.2,0,0,0-.1,0-.2.1,0,0,0,0,0,0,0,0,0,0,0,0,0,0,0,0,0,0,0,0,0,0,0,0,0,0,0,0,.1,0,0,0,0,0,.1,0,0,.1-.1.2-.2.3,0,.1-.1.2-.2.3,0,0,0,.1,0,.1,0,0,0,0,.1,0,0,0,.1-.1.2-.2,0,0,.1-.1.2-.2,0,0,0,0,0,0,0,0,0,0,0,0,0,0,0,.2-.1.3,0,0,0,.2-.1.3,0,0,0,0,0,.1,0,0,0,0,.1,0,0,0,0-.2.1-.2,0,0,0-.2.1-.2,0,0,0,0,.1.1,0,0,0,0,.1.1,0,0,0,0,.1,0,0,0,0,0,.1-.1,0,0,0-.2,0-.2,0,0,0-.2,0-.2,0,0,0,0,.1,0,0,0,0,0,.1,0,0,0,0,0,0,0,0,0,0,0,0,0ZM74.1,26.5s0,0,0,0c0,0,0,0,0,0,0,0,0,0,0,0,0,0,0,0,0,0,0,0,0,0,0,0,0,0,0,0,0,0,0,0,0,0,0,0,0,0,0,0,0,0Z"/>
            <path class="st3" d="M70.1,19.1c0,.1.2.2.3.4,0,0,0,0,0,0,0,0,0,0,0,0,0,0,0-.1,0-.2,0,0,0-.1,0-.2M69.8,19.1c0,0,.1.2.2.3,0,0,0,0,0,0s0,0,0,0c0-.1,0-.2-.1-.3M69.3,19c0,0,0,.1,0,.2,0,0,.1,0,.2,0"/>
            <path class="st3" d="M62.6,24s0,0,0,0c0,0,0,0,0,0,0,0,0-.1-.1-.2,0,0,0-.1-.1-.2,0,0,0,0,.1,0,0,0,0,0,.1,0,0,0,0-.1,0-.2,0,0,0,0-.2,0,0,0,0,0,0,0s0,0,0,0c0-.1.1-.2.2-.3,0-.1.1-.2.2-.3,0,0,0,0,0-.1,0,0,0,0-.1,0-.1.1-.2.2-.3.3-.1.1-.2.2-.3.3,0,0,0,0,0,0s0,0,0,0c0,0,0,0,0,0,0,0,0,0,0,0,0,0,0,0-.1,0,0,0,0,0,0,.1,0,0,0,0,0,0,0,0,0,0,0,0,0,0,0,0,0,0s0,0,0,0c0,0,0,0,0,0,0,0,0,0,0,0,0,0,0,0,0,0,0,0,0,0,0,0,0,0,0,0,0,0,0,0,0,0,0,0,0,0-.1,0-.1,0,0,0,0,.1,0,.1,0,0,0,0,.1,0,0,0,0,0,.1,0,0,0,0,0-.1.1,0,0,0,0-.1.1,0,0,0,0-.1,0,0,0,0,0-.1.1,0,0,0,0,0,0,0,0,0,0,0,0,0,0,0,0,0,.1,0,0,0,0,.1,0,0,0,0,0,0,0,0,0,0,0,0,0,0,0,0,0,0,0,0,0,0,0,0,0,0,0,.1,0,.2,0,0,0,.1,0,.2,0,0,0,0,0,0,0,0,0,0,0,0,0,0,.1-.1.2-.2.4,0,.1-.1.3-.2.4,0,0,0,0,0,0,0,0,0,0,0,0,0-.1.2-.2.2-.3,0-.1.1-.2.2-.4,0,0,0,0,0,0,0,0,0,0,0,0,0,0,0,0,.1,0,0,0,0,0,0-.1,0,0,0,0,0,0,0,0,0,0,0,0,0,0,0,0,0,0,0,0,0,0,0,0,0,0,.1,0,.2.1,0,0,.1,0,.2.1,0,0,0,0,.1,0,0,0,0,0,0-.1,0,0,0,0,0,0,0,0,0,0,0,0ZM62,23.2s0,0,0,0c0,0,0,0,0,0,0,0,0,0,0,0,0,0,0,0,0,0,0,0,0,0,0,0,0,0,0,0,0,0Z"/>
            <path class="st3" d="M57.6,20.4s0,0,0,0c0,0,0,0,0,0"/>
            <path class="st3" d="M57,20.5c0,0,.2.2.3.2,0,0,.1,0,.1,0,0,0,0,0,0-.1,0,0,0-.1,0-.2"/>
            <path class="st3" d="M56.2,20.4c0,0,0,0,.2,0,0,0,0,0,0,0,0,0,0,0,0,0,0,0,0,0,0,0,0,0,0,0,0,0,0,0,0,.1,0,.1,0,0,.1,0,.1,0,0,0,0-.1,0-.2"/>
            <path class="st3" d="M49.8,27.8c-.1,0-.3,0-.4,0-.1,0-.3,0-.4,0,0,0,0,0,0,0,0,0,0,0,0,0,0,0,0,0,0,0,0,0,0,0,0,0,0,0,0-.1,0-.2,0,0-.1,0-.2,0,0,0,0,0,0,0,0,0,0,0,0,0,0,0-.1,0-.2,0,0,0-.1,0-.2,0,0,0,0,0,0,0,0,0,0,0,0,0,0,0,0,0-.1,0,0,0,0,0,0,.1,0,0,0,0,0,0,0,0,0,0,0,0,0,0-.1.2-.2.3,0,0,0,.2-.1.3,0,0,0,0,0,.1,0,0,0,0,.1,0,0,0,0,0,0,0,0,0,0,0,0,0,0,0,0,0,0,0,0,0,0,0,0,0,0,0,0,.1,0,.1,0,0,.1,0,.2,0,0,0,0,0,0,0,0,0,0,0,0,0,0,0,0,0,0,0,0,0,0,0,0,0,0,0,0,0,.1,0,0,0,0,0,.1,0,0,0,0,0,0,0,0,0,0,0,0,0,0,0,0,0,0,0,0,0,0,0,.1,0,0,0,0,0,0,0,0,0,0,0,0,0,0,0,0,0,0,0,0,0,0,0,0,0,0,0,0,0,0,0,0,0,0,0,0,0,0,0,0,.1,0,.2,0,0,0,.1,0,.2,0,0,0,0,.1,0,0,0,.1,0,.1-.1,0,0,0-.2,0-.2,0,0,0-.2,0-.2.1,0,.2,0,.3,0,.1,0,.2,0,.3-.1,0,0,0,0,0,0,0,0,0,0,0,0ZM48.5,27.8s0,0,0,0c0,0,0,0,0,0,0,0,0,0,0,0,0,0,0,0,0,0,0,0,0,0,0,0,0,0,0,0,0,0,0,0,0,0,0,0,0,0,0,0,0,0ZM48.3,28s0,0,0,0c0,0,0,0,0,0,0,0,0,0,0,0,0,0,0,0,0,0,0,0,0,0,0,0,0,0,0,0,0,0Z"/>
            <path class="st3" d="M57.1,24.9s0,0,0,0c0,0,0,0,0,0t0,0h0s0,0,0-.1c0,0,0,0,0,0,0,0,0,0,0,0,0,0,0,0,0,0,0,0,0,0,0,0,0,0,0,0,0,0,0,0,0,0,0,0s0,0,0,0c0,0,0,0-.1,0,0,0,0,0-.1,0,0,0,0,0,0-.1,0,0,0,0,0-.1v-.2c0,0,0-.1,0-.2,0,0,0,0,0,0,0,0,0,0,0,0,0,0,0,0,0,0,0,0,0,0,0,0,0,0,0,0-.1,0,0,0,0,0,0,.1,0,0,0,.2,0,.2,0,0,0,.2,0,.2,0,0,0,0,0,0,0,0,0,0,0,0,0,0,0,0,0,0,0,0,0,0,0,0,0,0,0,0,0,.1,0,0,0,.1,0,.1,0,0,0,0,.1,0,0,0,0,0,.1,0,0,0,0,0,0,0,0,0,0,0,0,0,0,0,0,0-.1,0,0,0,0,0-.1.1,0,0,0,.1,0,.2,0,0,.1,0,.2,0,0,0,0,0,0,0,0,0,0,0,0,0,0,0,0,0,0,.1,0,0,0,0,0,.1,0,0,0,0,.1,0,0,0,.1,0,0-.1,0,0,0-.1,0-.2,0,0,0-.1,0-.2,0,0,0,0,0,0,0,0,0,0,0,0,0,0,0,0,0,0,0,0,0,0,0,0,0,0,0,0,0,0,0,0,0,0,0,0,0,0,0,0,0,0,0,0,0,0,0,0,0,0,.1,0,.1-.1,0,0,0-.1-.1-.1Z"/>
            <path class="st3" d="M63,19s0,0,0,.1c0,0,0,0,0,0,0,0,0,0,0,.1s0,0,0,.1c0,0,0,.1.1.1,0,0,.1,0,.1,0,0,0,0,0,0,0,0,0,0,0,0,0,0,0,0,0,0,0,0,0,0,0,0,0,0,0,0,0,.1,0,0,0,0,0,.1-.1,0,0,0,0,0,0,0,0,0,0,0,0,0,0,0,0,0,0,0,0,0,0,0,0,0,0,.1,0,.2,0,0,0,0-.1,0-.2,0,0,0,0,0,0,0,0,0,0,0,0t0,0s0,0,0,0c0,0,0,0,0,0,0,0,0,0,0,0"/>
            <path class="st3" d="M68.4,23.9s0,0,0,0c0,0,0,0,0,0,0,0,0-.1,0-.1,0,0-.1,0-.2,0,0,0,0,0,0,0,0,0,0,0,0,0,0,0,0,0,0,0,0,0,0,0,0,0,0,0,0,0,0,0,0,0,0,0,0,0,0,0,0,0,0,0,0,0,0,0,0,0,0,0,0-.1,0-.1,0,0,0,0-.1-.1-.2-.2-.5-.2-.6,0-.2.1-.3.3-.3.6,0,0,0,0,0,0,0,0,0,0,0,0,0,0,.2,0,.3,0,0,0,.2,0,.3,0,0,0,.1,0,.2,0,0,0,.1,0,.2,0,0,0,0,0,0,.1,0,0,0,0,0,.1,0,0,0,0-.1.1,0,0,0,0-.1.1,0,0,0,.1,0,.2,0,0,0,0,.2,0,0,0,0,0,0,0,0,0,0,0,0,0,0,0,0,.1,0,.2,0,0,0,.1,0,.2,0,0,0,.1,0,.1s.1,0,.1,0c0,0,0-.2.1-.2,0,0,0-.2.1-.2,0,.1.2.2.3.3.1,0,.2.1.4.1,0,0,0,0,0,0,0,0,0,0,0,0,0-.1-.2-.2-.2-.4,0-.1-.2-.2-.2-.4,0,0,.1,0,.2.1,0,0,.1,0,.2.1,0,0,0,0,0,0,0,0,0,0,0,0,0,0,0-.2-.2-.2,0,0-.1-.1-.2-.2ZM67.5,23.6c0,0-.1,0-.2,0,0,0-.1,0-.2,0,0,0,0,0,0,0,0,0,0,0,0,0,0,0,0,0,0,0,0,0,0,0,0,0,0-.1.1-.2.3-.2.1,0,.2,0,.3,0ZM68,24.4s0,0,0,0c0,0,0,0,0,0,0,0,.1.2.2.2,0,0,.1.2.2.2,0,0-.2,0-.2-.1,0,0-.1-.1-.1-.2Z"/>
          </g>
          <path class="st20" d="M62.9,46.6c0,1-.3,2.1-.7,2.9-.4.9-1,1.7-1.6,2.3-1.7,1.8-4.3,2.5-6.8,2.4-2.5,0-5-1-6.8-2.5-.3-.2-1-.8-1.5-1.7-.6-.9-1.1-1.9-.9-3.2.1-.7.5-1.5.9-2.2.5-.6,1.1-1.1,1.8-1.1.4,0,.8.1,1.2.3.4.2.6.5.8.7,0,0,.1.2.2.3,0,0,0,.1,0,.2,0,0,0,0,0,0,0,0,0,0,0,0,0,.1-.4,0-.7,0-.4,0-.8,0-1,.2-.2.2-.2.5-.2.8,0,.3.1.6.3.7.4.3,1,0,2-.7,1-.7,2.3-1.6,4.1-2.6,1.2-.6,2.3-1.2,3.4-1.6,1.1-.3,2-.4,3,0,.7.3,1.2.9,1.6,1.4.4.5.6,1.1.7,1.4,0,0,0,.1,0,.2,0,0,0,0,0,.1,0,0,0,0,0,0,0,0,0,0,0,0,0,.2,0,.3.1.5,0,.2,0,.3,0,.5,0,0,0,.2,0,.3,0,0,0,.2,0,.3Z"/>
          <path class="st48" d="M63.2,46.3s0,0-.1-.1c0,0,0,0-.1-.1-.1,0-.3-.1-.4-.2-.1,0-.3,0-.5,0-.5-.3-1.1-.5-1.7-.5-.6,0-1.2,0-1.7.2-.7.2-1.3.6-1.8,1.1-.6.5-1.1,1-1.7,1.3-1,.6-2.1,1.1-3.3,1.4-1.2.3-2.5.3-3.6-.2-.5-.2-1-.4-1.3-.8-.4-.4-.6-.8-.7-1.4,0-.3,0-.6,0-.8,0-.2.1-.5.3-.6,0,0,0,.2,0,.3,0,.1,0,.2,0,.3.1,1,.7,1.7,1.4,2.1.8.4,1.7.6,2.6.4,1.1-.3,2.1-.9,3-1.6.9-.7,1.7-1.5,2.7-2.1,1.1-.7,2.2-.6,3.2-.4,1.1.2,2.2.6,3.3.5,0,0,0,0,0,0,0,0,0,0,0,0,0,0,0,0,0,0,0,0,0,0,0-.1,0,0,0,0,0,0,0,0,0,0,0,0-.9-.8-2.1-1.2-3.4-1.3s-2.6.2-3.5.8c-.7.5-1.3,1-1.9,1.6-.6.6-1.2,1.1-1.9,1.6-.4.3-.9.5-1.5.7-.5.1-1.1.2-1.6,0-.3,0-.7-.3-1-.5-.3-.2-.6-.6-.7-.9-.4-1.1-.2-1.7.2-1.9.5-.2,1.2-.2,1.8,0,0,0,0,0,0,0,0,0,0,0,0,0,0,0,0,0,0,0,0,0,0,0,0,0,0,0,.1,0,.2,0,0,0,.1,0,.2,0,0,0,0,0,0,0,0,0,0,0,0,0,0,0,0-.1,0-.2,0,0,0-.2-.2-.3-.5-.3-1.1-.4-1.7-.3-.6,0-1.1.3-1.5.8-.2.2-.4.5-.6.8-.1.3-.2.7-.3,1,0,1.1.4,2.1,1.1,3,.7.8,1.7,1.4,2.7,1.8,1.1.4,2.3.6,3.4.6,1.2,0,2.3-.3,3.4-.8.6-.3,1.1-.6,1.6-.9.5-.4,1-.8,1.4-1.3.3-.3.5-.6.8-1,.3-.3.6-.6.9-.9.4-.3.7-.4,1.1-.5.4-.1.7-.2,1.1-.3,0,0,0,0,0,0,0,0,0,0,0,0,0,0,.1,0,.1-.1,0,0,0-.1,0-.2ZM59.8,47.1c-.8.8-1.4,1.6-2.1,2.3-.7.7-1.5,1.3-2.6,1.7-.9.3-1.9.5-2.9.5-1,0-2-.2-2.9-.5-.6-.2-1.2-.5-1.8-1-.5-.4-1-.9-1.3-1.5,0,0,0,0,0,0,0,0,0,0,0,0,.2.3.4.6.7.8.3.2.6.4.9.6,1.2.5,2.5.6,3.8.4,1.3-.2,2.6-.7,3.7-1.3.5-.3,1-.7,1.4-1,.4-.4.9-.7,1.4-1,.4-.2.8-.4,1.3-.4.4,0,.8,0,1.3,0-.2.1-.3.2-.5.3-.1.1-.3.2-.4.3Z"/>
          <path class="st20" d="M62.4,46.6c0,1,.3,2.1.7,2.9.4.9,1,1.7,1.6,2.3,1.7,1.8,4.3,2.5,6.8,2.4,2.5,0,5-1,6.8-2.5.3-.2,1-.8,1.5-1.7.6-.9,1.1-1.9.9-3.2-.1-.7-.5-1.5-.9-2.2-.5-.6-1.1-1.1-1.8-1.1-.4,0-.8.1-1.2.3-.4.2-.6.5-.8.7,0,0-.1.2-.2.3,0,0,0,.1,0,.2,0,0,0,0,0,0,0,0,0,0,0,0,0,.1.4,0,.7,0,.4,0,.8,0,1,.2.2.2.2.5.2.8,0,.3-.1.6-.3.7-.4.3-1,0-2-.7-1-.7-2.3-1.6-4.1-2.6-1.2-.6-2.3-1.2-3.4-1.6-1.1-.3-2-.4-3,0-.7.3-1.2.9-1.6,1.4-.4.5-.6,1.1-.7,1.4,0,0,0,.1,0,.2,0,0,0,0,0,.1,0,0,0,0,0,0,0,0,0,0,0,0,0,.2,0,.3-.1.5,0,.2,0,.3,0,.5,0,0,0,.2,0,.3,0,0,0,.2,0,.3Z"/>
          <path class="st48" d="M62.2,46.6s0,0,0,0c0,0,0,0,0,0,.4.1.8.2,1.1.3.4.1.7.2,1.1.5.3.3.6.6.9.9.3.3.5.6.8,1,.4.5.9.9,1.4,1.3.5.4,1.1.7,1.6.9,1.1.5,2.2.7,3.4.8,1.2,0,2.4-.1,3.4-.6,1-.4,2-1,2.7-1.8.7-.8,1.1-1.8,1.1-3,0-.4-.1-.7-.3-1-.1-.3-.3-.6-.6-.8-.4-.5-.9-.7-1.5-.8-.6,0-1.2,0-1.7.3,0,0-.1.2-.2.3,0,0,0,.1,0,.2,0,0,0,0,0,0,0,0,0,0,0,0,0,0,.1,0,.2,0,0,0,.1,0,.2,0,0,0,0,0,0,0,0,0,0,0,0,0,0,0,0,0,0,0,0,0,0,0,0,0,.6-.1,1.3-.2,1.8,0,.5.2.7.8.2,1.9-.1.3-.4.7-.7.9-.3.2-.7.4-1,.5-.5.1-1.1,0-1.6,0-.5-.1-1-.4-1.5-.7-.7-.5-1.3-1-1.9-1.6-.6-.6-1.2-1.1-1.9-1.6-1-.6-2.3-.9-3.5-.8s-2.5.5-3.4,1.3c0,0,0,0,0,0,0,0,0,0,0,0,0,0,0,0,0,.1,0,0,0,0,0,0,0,0,0,0,0,0,0,0,0,0,0,0,1.1,0,2.2-.3,3.3-.5,1.1-.2,2.1-.2,3.2.4.9.6,1.8,1.4,2.7,2.1.9.7,1.8,1.4,3,1.6.9.2,1.8,0,2.6-.4.8-.4,1.3-1.1,1.4-2.1,0-.1,0-.2,0-.3,0-.1,0-.2,0-.3.1.2.2.4.3.6,0,.2,0,.5,0,.8,0,.6-.4,1-.7,1.4-.4.4-.8.6-1.3.8-1.1.4-2.4.4-3.6.2-1.2-.3-2.4-.8-3.3-1.4-.6-.4-1.1-.9-1.7-1.3-.6-.5-1.1-.9-1.8-1.1-.5-.2-1.1-.3-1.7-.2-.6,0-1.2.2-1.7.5-.2,0-.3,0-.5,0-.1,0-.3,0-.4.2,0,0,0,0-.1.1,0,0,0,0-.1.1,0,0,0,.1,0,.2,0,0,0,0,.1.1ZM64.7,46.4c.4,0,.8,0,1.3,0,.4,0,.8.2,1.3.4.5.3.9.7,1.4,1,.4.4.9.7,1.4,1,1.1.6,2.4,1.1,3.7,1.3,1.3.2,2.6.1,3.8-.4.3-.1.7-.3.9-.6.3-.2.5-.5.7-.8,0,0,0,0,0,0,0,0,0,0,0,0-.3.6-.8,1.1-1.3,1.5-.5.4-1.2.7-1.8,1-.9.3-1.9.5-2.9.5-1,0-2-.2-2.9-.5-1.1-.4-1.9-1-2.6-1.7-.7-.7-1.3-1.5-2.1-2.3-.1-.1-.2-.2-.4-.3-.1-.1-.3-.2-.5-.3Z"/>
          <path class="st0" d="M65.2,40.4c-.3-.7-.6-1.6-.9-2.5-.3-1-.7-2-1-3.2-.1-.4-.4-.5-.7-.5s-.6.2-.7.5c-.3,1.2-.7,2.3-1,3.2-.3,1-.7,1.8-.9,2.5-.6,1.6-1.1,2.9-1.4,4-.3,1.1-.3,2,.1,2.8,0,.1.1.3.2.4,0,.1.2.2.3.4.9,1.1,2.2,1.6,3.5,1.6s2.7-.5,3.5-1.6c0-.1.2-.2.3-.4,0-.1.2-.3.2-.4.4-.9.4-1.8.1-2.8s-.8-2.3-1.4-4Z"/>
        </g>
        <path class="st37" d="M61.7,74.5c0,.2,0,.4.2.5.1.1.2.2.3.3.6.5,1.7.4,2.6.2.9-.2,1.6-.6,1.6-.5,0,0-1,.3-2,.8-1,.5-2.1,1.1-2.1,1.9,0,.1,0,.3,0,.4,0,.1.1.3.3.4.5.3,1.4-.1,2.2-.6.8-.5,1.5-1.1,1.5-1.1,0,0-.4.3-.9.8-.5.5-1.1,1.1-1.3,1.8,0,.3-.1.5-.1.6,0,.1,0,.2,0,.3,0,.2.2.2.4.3.1,0,.3,0,.3,0,.5,0,1-.3,1.4-.8.4-.5.8-1.1,1-1.4-.4.8-.7,1.6-.8,2.2,0,.6,0,1.1.3,1.4.1.1.3.2.4.2.1,0,.2,0,.2,0,.7,0,1.1-.7,1.7-1.7.5-1,1.2-2.1,2.4-2.8.1,0,.2-.1.3-.2.1,0,.2,0,.3-.1,0-.4.2-.9.2-1.5,0-.6,0-1.3,0-2,0-.7-.2-1.3-.3-1.8-.1-.5-.3-1-.5-1.3-.3-.2-.6-.4-.8-.5-.2-.2-.4-.4-.6-.6-.3-.3-.5-.7-.8-1.1-.3-.3-.6-.6-1.1-.8-.4,0-.8,0-1.1,0-.3.1-.6.4-.7.7,0,.3,0,.5.2.8.2.3.5.6.7.9.3.3.5.5.8.7.2.2.5.4.7.5-.8.3-1.5.6-2.2.8-.6.2-1.2.4-1.6.6-1,.3-1.8.6-2.3.8-.6.2-.9.5-.9.8Z"/>
        <g class="st7">
          <path class="st27" d="M59.2,95.1c0,.4-.1.8-.2,1.2,0,.4-.1.8-.2,1.2-2.2.2-4.3.3-6.5.3-2.2,0-4.3-.3-6.4-.8,0-.1,0-.3,0-.4,0-.1,0-.3,0-.4,0-.3,0-.6,0-.8,0-.3,0-.5,0-.8,2.1.6,4.3.9,6.5,1,2.2,0,4.5-.1,6.7-.3Z"/>
        </g>
        <path class="st21" d="M51.1,96.5c0,.2,0,.4-.1.6,0,.2-.2.4-.3.5-.1.2-.2.3-.3.4-.1.1-.3.2-.4.3-.3.2-.6.3-.9.4-.3,0-.6.1-.9.1-.3,0-.6,0-.9-.2-.3-.1-.6-.3-.8-.5-.1-.1-.3-.2-.4-.4-.1-.1-.2-.3-.3-.5,0-.2-.2-.4-.2-.6,0-.2,0-.5,0-.7,0-.2,0-.5.2-.7,0-.2.2-.4.3-.6.1-.2.3-.3.4-.4.1-.1.3-.2.4-.3.3-.2.6-.3.9-.3.3,0,.6,0,.9,0,.3,0,.6.1.9.3.3.1.5.3.8.5.1.1.2.2.3.4.1.1.2.3.3.5,0,.2.1.4.2.6,0,.2,0,.4,0,.6ZM50.7,96.5c0-.2,0-.3,0-.5,0-.1,0-.3-.1-.4,0-.1-.1-.3-.2-.4,0-.1-.2-.2-.3-.3-.2-.2-.4-.3-.7-.4-.2,0-.5-.1-.8-.1-.3,0-.5,0-.8.1-.2,0-.5.2-.7.3-.1,0-.2.2-.3.3,0,0-.2.2-.2.3,0,.1-.1.2-.2.3,0,.1,0,.2,0,.4,0,.1,0,.2,0,.4,0,.1,0,.2.1.4,0,.1.1.2.2.3,0,.1.2.2.3.3.2.2.4.3.6.4s.5.2.7.2c.3,0,.5,0,.8,0,.3,0,.5-.1.7-.3.1,0,.2-.2.3-.2.1,0,.2-.2.3-.3,0-.1.2-.3.2-.4,0-.1,0-.3.1-.4Z"/>
        <path class="st25" d="M64.4,93.5c0,.3,0,.5.1.8,0,.3,0,.5.1.8,0,.4.1.8.2,1.2,0,.4.1.8.2,1.2.2,1.4.4,2.8.5,4.2.2,1.4.4,2.8.5,4.2.9,0,1.8,0,2.7,0,.9,0,1.8,0,2.7,0,1,0,2,0,3,0,1,0,2.1,0,3.1,0,1.4,0,2.8,0,4.2,0,1.4,0,2.7,0,4,0-.3-.5-.8-1.1-1.4-1.7-.6-.7-1.4-1.4-2.4-2-.9-.6-1.8-1-2.6-1.3-.8-.3-1.5-.4-2-.5,0-.5.1-1,.2-1.6,0-.6,0-1.1.1-1.7,0-.1,0-.3,0-.4,0-.1,0-.3,0-.4,0-.3,0-.6,0-.8,0-.3,0-.5,0-.8,0-.6,0-1.1,0-1.6,0-.5,0-1-.1-1.5-2.1.7-4.2,1.2-6.4,1.6s-4.4.5-6.6.5h-.3Z"/>
        <g class="st7">
          <path class="st27" d="M64.6,95.1c0,.4.1.8.2,1.2,0,.4.1.8.2,1.2,2.2.2,4.3.3,6.5.3,2.2,0,4.3-.3,6.4-.8,0-.1,0-.3,0-.4,0-.1,0-.3,0-.4,0-.3,0-.6,0-.8,0-.3,0-.5,0-.8-2.1.6-4.3.9-6.5,1-2.2,0-4.5-.1-6.7-.3Z"/>
        </g>
        <path class="st21" d="M73,95.3c0-.2.2-.3.3-.5.1-.1.2-.3.3-.4.2-.2.5-.4.8-.5.3-.1.6-.2.9-.3.3,0,.6,0,.9,0,.3,0,.6.2.9.3.1,0,.3.2.4.3.1.1.3.3.4.4.1.2.2.4.3.6,0,.2.1.5.2.7,0,.2,0,.5,0,.7,0,.2-.1.4-.2.6,0,.2-.2.4-.3.5-.1.1-.2.3-.4.4-.3.2-.6.4-.8.5-.3,0-.6.1-.9.2-.3,0-.6,0-.9-.1-.3,0-.6-.2-.9-.4-.1,0-.3-.2-.4-.3-.1-.1-.2-.3-.3-.4-.1-.2-.2-.3-.3-.5,0-.2-.1-.4-.1-.6,0-.2,0-.4,0-.6,0-.2,0-.4.2-.6ZM73.4,97.4c0,.1.2.2.3.3.1,0,.2.2.3.2.2.1.5.2.7.3.3,0,.5,0,.8,0,.3,0,.5-.1.7-.2.2-.1.4-.3.6-.4,0,0,.2-.2.3-.3,0-.1.1-.2.2-.3,0-.1,0-.2.1-.4,0-.1,0-.2,0-.4,0-.1,0-.2,0-.4,0-.1,0-.2-.2-.3,0-.1-.1-.2-.2-.3,0,0-.2-.2-.3-.3-.2-.2-.4-.3-.7-.3-.2,0-.5-.1-.8-.1-.3,0-.5,0-.8.1-.2,0-.5.2-.7.4-.1,0-.2.2-.3.3,0,.1-.2.2-.2.4,0,.1-.1.3-.1.4,0,.1,0,.3,0,.5,0,.2,0,.3.1.4,0,.1.1.3.2.4Z"/>
        <path class="st4" d="M49.3,97c.2,0,.5,0,.7,0,.2,0,.5,0,.7,0,.2,0,.4-.2.4-.5,0-.3,0-.5-.3-.5-.2,0-.5,0-.7,0-.2,0-.5,0-.7,0-.2,0-.4.2-.4.5,0,.3,0,.5.3.5h0Z"/>
        <path d="M78.3,48.7"/>
        <path class="st42" d="M79.5,41.2c-.2-.9-2.4-9.9-5.9-19.3-1.9-5-5.1-7.4-7.5-8.6-2.6-1.3-4.8-1.3-4.8-1.3,0,0-2.2,0-4.8,1.3-2.4,1.2-5.6,3.6-7.5,8.6-3.5,9.3-5.8,19.2-6,20.1,0,0,11.5-22.5,18.3-22.6,6.8-.1,18.2,21.8,18.2,21.8Z"/>
        <g>
          <path class="st42" d="M42.3,18.8c.2-1,.8-2.1,1.7-2.8.2-.2.5-.2.8-.2,1,.1,1.8.4,2.3,1,0,0,.1.2,0,.3-.1,1.4-.5,2.7-1,4-.1.4-.6.4-.9.2l-1.3-1.3c-.2-.2-.6,0-.5.3,0,0,0,0,0,0l-1.2-1.5Z"/>
          <path class="st42" d="M45.6,21.5c-.1,0-.3,0-.4-.2l-1.3-1.3c0,0-.2-.1-.3,0-.1,0-.2.2-.1.3,0,0,0,0,0,0h0c0,.1-1.3-1.5-1.3-1.5h0c.2-1.1.8-2.1,1.7-2.8.2-.2.5-.3.8-.2,1.1.1,1.8.5,2.3,1,0,0,.1.2,0,.3-.1,1.3-.5,2.7-1,4,0,.2-.2.3-.4.3,0,0,0,0-.1,0ZM43.7,19.9c0,0,.2,0,.2,0l1.3,1.3c.1.1.3.2.4.1.2,0,.3-.1.4-.3.5-1.3.9-2.7,1-4,0,0,0-.2,0-.3-.5-.5-1.2-.9-2.2-1-.3,0-.5,0-.7.2-.9.7-1.5,1.7-1.7,2.8l1.1,1.4c0-.1,0-.2.2-.3,0,0,.1,0,.2,0Z"/>
        </g>
        <path class="st42" d="M80.2,18.9c-.2-1-.8-2.1-1.7-2.8-.2-.2-.5-.2-.8-.2-1,.1-1.8.4-2.3,1,0,0-.1.2,0,.3.1,1.4.5,2.7,1,4,.1.4.6.4.9.2l1.3-1.3c.2-.2.6,0,.5.3,0,0,0,0,0,0l1.2-1.5Z"/>
        <path class="st10" d="M48.7,23.7c8.3,1.8,16.7,1.8,25,0-3.8,1.4-7.7,2.2-11.7,2.6-.5,0-1.1,0-1.6,0-3.6-.4-7.6-1.4-11.7-2.6Z"/>
        <g>
          <path class="st10" d="M44.6,34.2h1.1v9h0c-1.4,0-2.6-1.2-2.6-2.6v-4.9c0-.8.7-1.5,1.5-1.5Z" transform="translate(12.3 -10.7) rotate(15.9)"/>
          <path d="M44.5,43.5l-1.8-.5c-.2,0-.4-.2-.5-.4-.1-.2-.1-.4,0-.7l2.1-7.4c0-.3.4-.4.6-.4l2.1.6-2.5,8.8ZM44.7,34.2c0,0-.1,0-.2,0,0,0-.2.1-.2.2l-2.1,7.4c0,.2,0,.4,0,.6,0,.2.3.3.4.4l1.7.5,2.4-8.5-2-.6s0,0-.1,0Z"/>
        </g>
        <g>
          <path class="st10" d="M48.7,23.4c-2-.2-4-2.4-6.1-5.3-1.1,2.4-1.8,5.1-2.1,8.2,1.8,2,4,3.2,6.2,4l1.9-6.9Z"/>
          <path d="M46.9,30.4h0c-2.6-1-4.6-2.2-6.2-4h0s0,0,0,0c.3-3.1,1-5.9,2.1-8.3h0c0,0,0,0,0,0,2.5,3.5,4.4,5.1,6.1,5.3h0s-2,7-2,7ZM40.7,26.4c1.6,1.7,3.6,3,6.1,3.9l1.9-6.8c-1.7-.2-3.5-1.8-6-5.2-1,2.3-1.7,5.1-2,8.1Z"/>
        </g>
        <g>
          <path class="st10" d="M48.1,25.1h0v9h0c-1.4,0-2.6-1.2-2.6-2.6v-3.8c0-1.4,1.2-2.6,2.6-2.6Z" transform="translate(9.9 -11.7) rotate(15.9)"/>
          <path d="M46.9,34.3l-2.1-.6c-.3,0-.4-.4-.3-.6l2.1-7.3c0-.2.2-.5.5-.6.2-.1.5-.2.7,0l1.7.5-2.5,8.8ZM47.4,25.2c-.1,0-.3,0-.4.1-.2.1-.3.3-.4.5l-2.1,7.3c0,.2,0,.4.3.5l2,.6,2.4-8.5-1.6-.4c0,0-.2,0-.2,0Z"/>
        </g>
        <g>
          <path class="st35" d="M44.6,34.2h1.1v9h0c-1.4,0-2.6-1.2-2.6-2.6v-4.9c0-.8.7-1.5,1.5-1.5Z" transform="translate(12.3 -10.7) rotate(15.9)"/>
          <path class="st35" d="M44.5,43.6l-1.9-.5c-.2,0-.4-.2-.6-.4-.1-.2-.2-.5,0-.7l2.1-7.4c0-.2.1-.3.3-.4.1,0,.3,0,.5,0l2.2.6-2.5,8.9ZM44.7,34.3c0,0-.1,0-.1,0,0,0-.1.1-.1.2l-2.1,7.4c0,.2,0,.3,0,.5,0,.2.2.3.4.3l1.6.4,2.4-8.4-1.9-.5s0,0,0,0Z"/>
        </g>
        <g>
          <path class="st35" d="M48.7,23.4c-2-.2-4-2.4-6.1-5.3-1.1,2.4-1.8,5.1-2.1,8.2,1.8,2,4,3.2,6.2,4l1.9-6.9Z"/>
          <path class="st42" d="M46.9,30.5h-.1c-2.6-1-4.6-2.3-6.3-4.1h0s0-.1,0-.1c.3-3.1,1-5.9,2.1-8.3v-.2c.1,0,.3.2.3.2,2.5,3.5,4.3,5.1,6,5.3h.2s-2,7.2-2,7.2ZM40.7,26.3c1.6,1.7,3.5,2.9,6,3.8l1.8-6.6c-1.7-.3-3.5-1.9-5.9-5.1-1,2.3-1.6,4.9-1.9,7.9Z"/>
        </g>
        <g>
          <path class="st35" d="M79.5,34.2h0v9h-1.1c-.8,0-1.5-.7-1.5-1.5v-4.9c0-1.4,1.2-2.6,2.6-2.6Z" transform="translate(164 54.6) rotate(164.1)"/>
          <path class="st35" d="M78.1,43.6l-2.5-8.9,2.2-.6c.3,0,.6,0,.7.4l2.1,7.4c.1.5-.1,1-.7,1.2l-1.9.5ZM75.9,34.9l2.4,8.4,1.6-.4c.3,0,.5-.5.5-.8l-2.1-7.4c0-.2-.2-.3-.4-.2l-1.9.5Z"/>
        </g>
        <g>
          <path class="st35" d="M73.9,23.4c2-.2,4-2.4,6.1-5.3,1.1,2.4,1.8,5.1,2.1,8.2-1.8,2-4,3.2-6.2,4l-1.9-6.9Z"/>
          <path class="st16" d="M75.7,30.5l-2-7.2h.2c1.7-.2,3.5-1.8,6-5.3v-.2c.1,0,.3.2.3.2,1.1,2.4,1.8,5.2,2.1,8.3h0c0,0,0,.1,0,.1-1.6,1.8-3.6,3.1-6.3,4h-.1ZM74.1,23.6l1.8,6.6c2.5-.9,4.4-2.1,6-3.8-.3-3-.9-5.6-1.9-7.9-2.4,3.3-4.2,4.9-5.9,5.1Z"/>
        </g>
        <g>
          <g>
            <line class="st42" x1="48.4" y1="24.9" x2="43.8" y2="22.3"/>
            <polygon class="st42" points="48.2 25.4 43.8 22.3 48.7 24.5 48.2 25.4"/>
          </g>
          <g>
            <line class="st42" x1="48.2" y1="26.9" x2="43.6" y2="24.3"/>
            <polygon class="st42" points="48 27.3 43.6 24.3 48.5 26.5 48 27.3"/>
          </g>
          <g>
            <line class="st42" x1="47.5" y1="28.8" x2="42.9" y2="26.2"/>
            <polygon class="st42" points="47.3 29.3 42.9 26.2 47.8 28.4 47.3 29.3"/>
          </g>
        </g>
        <g>
          <g>
            <line class="st42" x1="74.3" y1="24.9" x2="79" y2="22.3"/>
            <polygon class="st42" points="74.1 24.5 79 22.3 74.6 25.4 74.1 24.5"/>
          </g>
          <g>
            <line class="st42" x1="74.5" y1="26.9" x2="79.2" y2="24.3"/>
            <polygon class="st42" points="74.3 26.5 79.2 24.3 74.8 27.3 74.3 26.5"/>
          </g>
          <g>
            <line class="st42" x1="75.3" y1="28.9" x2="79.9" y2="26.2"/>
            <polygon class="st42" points="75 28.4 79.9 26.2 75.5 29.3 75 28.4"/>
          </g>
        </g>
        <g>
          <path class="st35" d="M48.1,25.1h0v9h0c-1.4,0-2.6-1.2-2.6-2.6v-3.8c0-1.4,1.2-2.6,2.6-2.6Z" transform="translate(9.9 -11.7) rotate(15.9)"/>
          <path class="st35" d="M46.9,34.4l-2.2-.6c-.3,0-.5-.4-.4-.7l2.1-7.3c0-.3.3-.5.5-.6.2-.1.5-.2.8,0l1.8.5-2.5,8.9ZM47.4,25.2c-.1,0-.3,0-.4,0-.2,0-.3.3-.4.5l-2.1,7.3c0,.2,0,.3.2.4l1.9.5,2.4-8.4-1.5-.4c0,0-.1,0-.2,0Z"/>
        </g>
        <g>
          <path class="st35" d="M77.1,25.1h0v9h0c-1.4,0-2.6-1.2-2.6-2.6v-3.8c0-1.4,1.2-2.6,2.6-2.6Z" transform="translate(156.8 37.3) rotate(164.1)"/>
          <path class="st35" d="M75.7,34.4h0c0-.1-2.5-8.9-2.5-8.9l1.8-.5c.6-.2,1.1.2,1.3.7l2.1,7.3c0,.3,0,.6-.4.7l-2.2.6ZM73.5,25.7l2.4,8.4,1.9-.5c.2,0,.2-.2.2-.4l-2.1-7.3c-.1-.4-.5-.6-.9-.5l-1.5.4Z"/>
        </g>
        <path class="st10" d="M50.4,22.6c1.5-3.3,3.9-5.8,7.4-7.7,2.2-1.1,4.7-1.2,6.9,0,3.8,1.9,6.4,4.5,8.1,7.7-8,4.2-15.5,3.7-22.3,0Z"/>
        <g>
          <path class="st10" d="M77,3.5c-.3,2.4-1.1,4.8-2.5,7-4.9,7.5-15,9.6-22.5,4.7-4.1-2.7-6.6-6.9-7.2-11.3-.7,5.9,1.9,12,7.2,15.5,7.5,4.9,17.6,2.8,22.5-4.7,2.2-3.4,3-7.4,2.5-11.1Z"/>
          <path class="st35" d="M60.9,22.1c-3.1,0-6.2-.9-8.9-2.7-2.6-1.7-4.6-4.1-5.9-6.9-1.2-2.7-1.7-5.7-1.4-8.7v-1.1c.1,0,.3,1.1.3,1.1.6,4.6,3.2,8.7,7.1,11.2,3.6,2.4,7.9,3.2,12.1,2.3,4.2-.9,7.8-3.3,10.2-6.9,1.4-2.1,2.2-4.4,2.5-6.9v-1.1c.1,0,.3,1.1.3,1.1.5,3.9-.3,7.9-2.5,11.2-2.4,3.7-6.1,6.2-10.3,7.1-1.1.2-2.3.4-3.4.4ZM44.8,5c-.3,5.7,2.5,11,7.3,14.2,3.6,2.4,7.9,3.2,12.1,2.3s7.8-3.3,10.2-6.9c1.9-2.9,2.8-6.4,2.6-9.9-.4,2.1-1.2,4.1-2.4,5.9-2.4,3.7-6.1,6.2-10.3,7.1-4.3.9-8.7,0-12.3-2.3-3.6-2.4-6.2-6.1-7.1-10.3Z"/>
        </g>
        <g>
          <circle class="st35" cx="61.4" cy="19.8" r="4.7" transform="translate(32 77.3) rotate(-80.8)"/>
          <path class="st35" d="M61.4,24.7c-2.7,0-4.9-2.2-4.9-4.9s2.2-4.9,4.9-4.9,4.9,2.2,4.9,4.9-2.2,4.9-4.9,4.9ZM61.4,15.3c-2.5,0-4.6,2-4.6,4.6s2,4.6,4.6,4.6,4.6-2,4.6-4.6-2-4.6-4.6-4.6Z"/>
        </g>
        <g>
          <circle class="st10" cx="61.4" cy="19.7" r="2.3"/>
          <path class="st35" d="M61.4,22.1c-1.3,0-2.4-1.1-2.4-2.4s1.1-2.4,2.4-2.4,2.4,1.1,2.4,2.4-1.1,2.4-2.4,2.4ZM61.4,17.5c-1.2,0-2.1,1-2.1,2.1s1,2.1,2.1,2.1,2.1-1,2.1-2.1-1-2.1-2.1-2.1Z"/>
        </g>
        <circle class="st35" cx="61.4" cy="19.7" r=".6"/>
        <g>
          <g>
            <path class="st35" d="M77.5,20.1c-5.2,3-10.6,4.8-16,5.1v6.7s0-6.7,0-6.7c-5.4-.4-10.8-2.1-16-5.1l1.1,5.2c4.9,3.1,9.1,5.6,15,6.7h0c5.8-1.1,10-3.5,15-6.7l1.1-5.2Z"/>
            <path class="st35" d="M61.4,32.3h0c-6-1.2-10.3-3.7-15.1-6.7h-.1c0,0-1.3-6-1.3-6l.6.3c5.2,3,10.6,4.7,15.9,5.1,5.3-.4,10.7-2.1,15.9-5.1l.6-.3-1.3,5.9h-.1c-4.7,3.1-9.1,5.6-15.1,6.8h0ZM61.7,25.5v6.1c5.6-1.2,9.9-3.6,14.4-6.5l.9-4.4c-5,2.8-10.2,4.4-15.3,4.8ZM46.7,25.1c4.5,2.9,8.7,5.4,14.4,6.5v-6.1c-5.1-.4-10.3-2-15.3-4.8l.9,4.4Z"/>
          </g>
          <g>
            <path class="st10" d="M76.3,21.2l-1.3,2.2c0,.4-.3.8-.6,1-3.6,2.3-7.8,4.2-12.3,5.9,4.8-1.3,9.5-2.9,13.6-5.7,0,0,0,0,0-.1l.5-3.3Z"/>
            <path class="st10" d="M60.2,25.3l-.6,3.5c0,.4-.5.7-.9.5-3.6-1.1-7.2-2.7-10.9-4.6,3.1,2.5,7,4.6,12.4,6v-5.4Z"/>
          </g>
        </g>
        <path d="M62.6,87.8"/>
        <path d="M82.2,87.4"/>
        <path d="M66.1,86.9"/>
        <path class="st6" d="M169.4,95.4c0,2.6-13.2,4.8-29.6,4.8s-29.6-2.1-29.6-4.8,13.2-4.8,29.6-4.8,29.6,2.1,29.6,4.8Z"/>
        <path class="st37" d="M183.4,61c-.5-.5-1.3-.8-1.9-1.1-.6-.2-1.1-.3-1.1-.3,0,0,.9.2,1.8.3.9.1,1.9.1,2.2-.4,0-.1.1-.3,0-.4,0-.2,0-.3-.1-.4-.4-.7-1.6-.8-2.6-.8-1.1,0-2.1.2-2.1.1,0,0,.8,0,1.6-.2.9-.2,1.8-.5,2.2-1.2,0,0,0-.2.1-.3,0-.2,0-.4,0-.5-.2-.3-.5-.4-1.1-.3-.6,0-1.4.1-2.4.2-.4,0-1,.1-1.7.2-.7,0-1.4.1-2.2.2.1-.2.2-.4.4-.7.1-.3.3-.6.4-1,.1-.4.2-.8.3-1.1,0-.3,0-.6-.2-.8-.2-.2-.5-.3-.9-.3-.3,0-.7.2-1,.4-.4.3-.5.7-.6,1.1-.1.4-.2.9-.3,1.3-.2.6-.5,1.3-1.2,2.1-.7.8-1.9,1.7-3.6,2.5l1.3,1.4,1.3,1.4c0,.2-.2.4-.2.6,0,.2,0,.4,0,.6.3.3.8,0,1.6-.4.8-.4,1.8-.8,2.9-.7,1.3,0,2.4.8,3.3,1.5.9.6,1.6,1.2,2.2.8,0,0,0,0,.2-.1s.2-.2.2-.4c.2-.4,0-.9-.3-1.4-.4-.5-1-1.1-1.7-1.7,0,0,.6.5,1.3.9.7.4,1.5.6,1.9.3,0,0,.1,0,.2-.2,0-.1.2-.2.2-.4,0,0,0-.2,0-.3,0-.1-.2-.3-.3-.5Z"/>
        <path class="st44" d="M170.5,57.1c-.4,0-1.3.1-2.8-.2-1.5-.3-3.5-1.1-6-2.7-3.1-2-4.5-4.3-5.6-6.2-1.1-1.9-2-3.5-4.4-4.2-1.3-.3-2.7-.3-4,0-1.3.3-2.4,1-3.2,2-1.6,1.9-1.3,4.6-.7,6.9.7,2.3,1.8,4.1,1.9,4.4,1.7,2.8,4,4.6,6.2,5.8s4.3,1.8,5.5,2.1c4.2,1.2,8.1,1,11.3.4,3.2-.6,5.7-1.7,7-2.3-.3-.3-.6-.7-.9-1.2-.3-.5-.6-1.1-.9-1.8-.3-.8-.4-1.5-.5-2.1,0-.6,0-1.2,0-1.6-.3.2-.7.4-1.2.5s-1,.3-1.7.4Z"/>
        <path class="st37" d="M95.7,50.4c0-.2,0-.4.1-.5,0-.1.2-.3.2-.4,0,0-.1-.1-.2-.3-.1-.2-.2-.4-.2-.7,0-.2,0-.4.2-.5,0-.1.2-.2.2-.3-.2-.2-.4-.4-.4-.7,0-.2,0-.5,0-.7,0-.3.3-.6.6-.7.3-.2.7-.2,1.1-.1,0,0,0-.2,0-.3,0-.1,0-.3,0-.4,0-.2,0-.4,0-.5,0-.1,0-.2,0-.3.1-.2.4-.4.7-.5.3,0,.6-.1.9-.1.3,0,.6.1.8.3.2.1.4.3.4.3,0-.1,0-.3,0-.4,0-.2,0-.4,0-.6.1-.4.4-.8.7-1.1.3-.3.7-.5,1-.4.2,0,.4.2.6.5.2.4.5,1,1,1.9.1.3.3.6.5.9s.4.7.6,1.1h0s0,0,0,0c0,0,.2.2.2.2,0,0,.2.2.3.3.2.2.4.4.8.7.3.3.7.6,1.2.9,1,.7,1.7.9,2.3,1.1.5.2.8.3,1,.7.2.4.3,1,.2,1.5-.1.5-.3,1-.6,1.4-.6.7-1.4,1-2.5,1.1-1,0-2.2,0-3.5-.1-.1,0-.2,0-.3,0-.1,0-.2,0-.3,0-.2,0-.4-.2-.5-.3-.2-.1-.3-.2-.6-.3-.1,0-.2,0-.3,0,0,0-.2,0-.2,0,0,0,0,0-.1,0,0,0,0,0-.1,0-.3.1-.5.2-.8.2-.3,0-.6,0-.9,0-.2,0-.6,0-1.1-.1-.5-.1-1-.3-1.5-.7-.2-.2-.5-.4-.8-.7-.3-.3-.5-.6-.4-1Z"/>
        <path class="st44" d="M108.7,48.5c.3.1,1.3.4,2.8.4,1.5,0,3.7-.3,6.4-1.3,3.5-1.3,5.3-3.2,6.8-4.9,1.5-1.7,2.8-3,5.2-3.1,1.3,0,2.7.3,3.9.9,1.2.6,2.2,1.5,2.7,2.6,1.1,2.2.3,4.8-.8,6.9-1.1,2.1-2.6,3.7-2.8,3.9-2.2,2.3-4.9,3.6-7.3,4.3-2.4.7-4.6.8-5.8.8-4.4.2-8.2-.8-11.2-2.1-3-1.3-5.2-2.9-6.3-3.7.3-.2.7-.6,1.1-1,.4-.4.9-1,1.3-1.6.4-.7.8-1.4,1-2,.2-.6.3-1.1.4-1.5.3.2.6.5,1.1.8.4.3,1,.5,1.5.8Z"/>
        <path class="st37" d="M100.1,44c0,0,.1.3.2.6,0,.3,0,.6,0,.9-.2.3-.6.5-1.1.5-.5,0-1.1-.1-1.7-.5,0,0,.2.1.3.2.1.1.2.3.3.6,0,0,0,.1,0,.3,0,.2,0,.3-.1.5-.1.3-.4.5-.7.6-.3.1-.7.1-1.1,0,.2,0,.5-.1.7,0,.2,0,.4.1.5.3.1.2.1.3,0,.5,0,.2,0,.3,0,.3,0,.2-.2.4-.4.5-.1,0-.3.1-.3.1,0,0,.2,0,.3,0,.1,0,.3,0,.5,0,.2,0,.4.2.5.4.1.2.2.3.3.5,0,.4,0,.8-.2,1.1-.2.3-.5.6-.8.6-.2,0-.5-.2-.6-.4-.2-.2-.3-.4-.3-.5,0-.1-.1-.3-.2-.5,0-.2,0-.4,0-.6,0,0,0,0,0-.2,0,0,0-.2,0-.3,0,0,0,0,0-.1,0,0,0,0,0,0,0-.1-.1-.3-.2-.5,0-.2,0-.4,0-.6,0-.1,0-.2.1-.2,0,0,0-.1.1-.3,0,0,0-.2,0-.2,0,0,0-.1,0-.1,0-.2,0-.4,0-.7,0-.2.1-.5.3-.7.1-.1.3-.3.5-.4.2,0,.3-.2.4-.2,0,0,0,0,0,0,0,0,0,0,0,0,0,0,0,0,0,0,0,0,0,0,0,0,0,0,.2-.4.5-.7.3-.3.6-.7,1-.8,0,0,.2,0,.3,0,.1,0,.3,0,.5.2h.5Z"/>
        <path class="st52" d="M124.7,63.5c0,2.3-.2,4.4-.3,6.1-.1,1.8-.3,3.3-.5,4.5,0,.3-.2.7-.3,1.1,0,.4-.1.9-.2,1.5,0,.5,0,1.1,0,2,.1.8.4,1.8.9,2.8.2.3.4.7.8,1.2.3.5.8,1,1.4,1.5,0,0,0,0,.2.1,0,0,.2.1.3.2,1.2.6,2.7.7,4.1.6,1.3,0,2.5-.3,2.9-.4.4,0,.9-.2,1.4-.4.5-.2,1.2-.4,1.8-.7.3-.6.6-1.3,1-2.3.3-.9.6-2,.8-3.3.3-2.6,0-5.5-.6-7.8-.7-2.3-1.8-4-3.1-4.2-.2,0-.5,0-.8,0-.3,0-.7.3-1.1.6l-8.7-3.4Z"/>
        <path class="st17" d="M137.3,83.7c-.3,2-.5,4-.8,6-.3,2-.5,4-.8,6-.9,0-1.8,0-2.7,0-.9,0-1.8,0-2.7,0,0-.2,0-.5,0-.7,0-.2,0-.5,0-.7-.8.3-1.7.6-2.7.8-1,.3-2.1.5-3.3.6-1.6.2-3.1.3-4.4.2s-2.5-.2-3.5-.3c.3-.5.7-1.1,1.3-1.7.6-.6,1.4-1.3,2.4-1.9.9-.6,1.7-.9,2.5-1.2.8-.3,1.4-.4,1.9-.5,0-.6-.2-1.3-.2-1.9,0-.7,0-1.4-.1-2.1,0-.9,0-1.7,0-2.5,0-.8,0-1.5.2-2.2h0c2,.7,4.1,1.2,6.3,1.6,2.1.3,4.3.5,6.4.5h.2Z"/>
        <path class="st44" d="M134.5,81.6c.1,0,.4-.2.6-.6.2-.4.4-.8.5-1.2.2-.6.3-1.2.3-1.7,0-.5,0-.8-.2-.9-.1,0-.3.2-.5.4-.2.3-.3.6-.4.8-.3.7-.4,1.4-.5,2,0,.6,0,1,.2,1.1Z"/>
        <path class="st44" d="M130.8,81c.1,0,.3-.3.5-.6.1-.4.3-.9.3-1.3,0-.6,0-1.2,0-1.7,0-.5-.2-.8-.4-.8-.1,0-.3.2-.4.5-.1.3-.2.6-.3.8-.2.7-.2,1.5-.1,2.1,0,.6.2,1,.4,1Z"/>
        <path class="st44" d="M127.1,80.6c.1,0,.3-.3.3-.7,0-.4,0-.9,0-1.3,0-.6-.2-1.2-.3-1.7-.2-.5-.4-.8-.5-.7-.1,0-.2.3-.3.6,0,.3,0,.7-.1.9,0,.7,0,1.5.3,2,.2.6.4.9.6.9Z"/>
        <path class="st11" d="M124,83.7s.1,0,.3,0c.2,0,.5,0,1,.2.4.1.8.3,1.2.4.4.2.6.3.6.5,0,.2-.7.4-1.4.5-.7,0-1.5,0-1.8-.5,0-.1-.1-.3-.1-.5,0-.2,0-.3.2-.4Z"/>
        <path class="st11" d="M124,85.7s.1,0,.3,0c.2,0,.5,0,1,.2.4.1.8.3,1.2.4.4.2.6.3.6.5,0,.2-.7.4-1.4.5-.7,0-1.5,0-1.8-.5,0-.1-.1-.3-.1-.5,0-.2,0-.3.2-.4Z"/>
        <path class="st11" d="M124,87.7s.1,0,.3,0c.2,0,.5,0,1,.2.4.1.8.3,1.2.4.4.2.6.3.6.5,0,.2-.7.4-1.4.5-.7,0-1.5,0-1.8-.5,0-.1-.1-.3-.1-.5s0-.3.2-.4Z"/>
        <path class="st52" d="M150.4,64.5c1,2.1,1.9,3.9,2.8,5.5.9,1.6,1.6,2.9,2.3,3.9.2.2.5.6.7.9.3.4.5.8.8,1.3.2.4.5,1,.7,1.8.2.8.4,1.8.3,2.9,0,.4,0,.8-.2,1.4-.1.6-.3,1.2-.7,1.9,0,0,0,0-.1.2,0,0-.1.2-.2.3-.9,1.1-2.2,1.8-3.4,2.2-1.2.5-2.4.7-2.8.8-.4,0-.9.2-1.5.2-.6,0-1.2.1-1.9.1-.5-.4-1.1-.9-1.8-1.7-.7-.7-1.4-1.6-2-2.7-1.4-2.2-2.3-5-2.6-7.4-.3-2.4,0-4.3,1.1-5,.2-.1.4-.2.7-.3.3,0,.8,0,1.3.1l6.6-6.7Z"/>
        <path class="st17" d="M147.4,87.6c1,1.7,2.1,3.5,3.1,5.2s2.1,3.5,3.1,5.2c.8-.4,1.6-.7,2.4-1.1.8-.4,1.6-.7,2.4-1.1,0-.2-.2-.4-.3-.6s-.2-.4-.3-.6c.8,0,1.8-.1,2.8-.3,1-.2,2.1-.4,3.3-.7,1.6-.5,3-1,4.2-1.6,1.2-.6,2.3-1.2,3.1-1.7-.5-.3-1.1-.7-1.9-1-.8-.3-1.8-.7-2.9-.8-1-.2-2-.2-2.8-.1-.8,0-1.5.2-2,.3-.2-.6-.4-1.2-.6-1.8-.2-.6-.5-1.3-.7-2-.3-.8-.7-1.5-1-2.2-.3-.7-.7-1.3-1-2h0c-1.6,1.5-3.3,2.8-5.1,4-1.8,1.2-3.7,2.2-5.7,3.1h0s0,0,0,0Z"/>
        <path class="st44" d="M145,81.6c-.1,0-.4-.2-.6-.6-.2-.4-.4-.8-.5-1.2-.2-.6-.3-1.2-.3-1.7,0-.5,0-.8.2-.9.1,0,.3.2.5.4s.3.6.4.8c.3.7.4,1.4.5,2,0,.6,0,1-.2,1.1Z"/>
        <path class="st44" d="M148.7,81c-.1,0-.3-.3-.5-.6-.1-.4-.3-.9-.3-1.3,0-.6,0-1.2,0-1.7,0-.5.2-.8.4-.8.1,0,.3.2.4.5.1.3.2.6.3.8.2.7.2,1.5.1,2.1,0,.6-.2,1-.4,1Z"/>
        <path class="st44" d="M152.4,80.6c-.1,0-.3-.3-.3-.7,0-.4,0-.9,0-1.3,0-.6.2-1.2.3-1.7.2-.5.4-.8.5-.7.1,0,.2.3.3.6,0,.3,0,.7.1.9,0,.7,0,1.5-.3,2-.2.6-.4.9-.6.9Z"/>
        <path class="st11" d="M159.6,82.2c0,0-.1,0-.3,0-.2,0-.4.2-.8.6-.3.3-.6.6-.9.9-.3.3-.4.6-.4.7.1.2.8.1,1.5-.1.7-.2,1.3-.7,1.4-1.2,0-.2,0-.4,0-.5,0-.2-.2-.3-.3-.3Z"/>
        <path class="st11" d="M160.4,84.1c0,0-.1,0-.3,0-.2,0-.4.2-.8.6-.3.3-.6.6-.9.9-.3.3-.4.6-.4.7.1.2.8.1,1.5-.1.7-.2,1.3-.7,1.4-1.2,0-.2,0-.4,0-.5,0-.2-.2-.3-.3-.3Z"/>
        <path class="st11" d="M161.2,85.9c0,0-.1,0-.3,0-.2,0-.4.2-.8.6-.3.3-.6.6-.9.9-.3.3-.4.6-.4.7.1.2.8.1,1.5-.1.7-.2,1.3-.7,1.4-1.2,0-.2,0-.4,0-.5,0-.2-.2-.3-.3-.3Z"/>
        <path class="st52" d="M130.7,38.8c-1.4,1.4-2.6,2.7-3.5,4-.9,1.2-1.7,2.4-2.2,3.3-1.6,2.8-2.7,5.5-3.4,8-.7,2.5-1.1,4.9-1.3,6.8,0,.9-.1,1.8-.2,2.5,0,.7,0,1.4,0,1.9,0,1.9,0,3.4.2,4.7.2,1.3.5,2.4,1.1,3.7,1.2,2.5,3.3,4.1,5.3,5.2,2.1,1.1,4.2,1.7,5.6,2.1,1.4.4,2.8.7,4,.8,1.2.1,2.3.2,3.2.2,0,0-.2,0-.3,0,0,0-.2,0-.3,0h1c0,0-.2,0-.3,0,0,0-.2,0-.3,0,.9,0,2,0,3.2-.2,1.2-.1,2.5-.4,4-.8,1.4-.4,3.5-1,5.6-2.1,2.1-1.1,4.1-2.7,5.3-5.2.6-1.2.9-2.3,1.1-3.7.2-1.3.2-2.8.2-4.7,0-.5,0-1.1,0-1.9,0-.7,0-1.6-.2-2.5-.2-2-.5-4.3-1.3-6.8-.7-2.5-1.8-5.3-3.4-8-.5-.9-1.3-2.1-2.2-3.3-.9-1.2-2.1-2.6-3.5-4h-17.4Z"/>
        <path class="st17" d="M158.7,65.4c0,1.9,0,3.4-.2,4.7-.2,1.3-.5,2.4-1.1,3.7-1.2,2.5-3.3,4.1-5.3,5.2-2.1,1.1-4.2,1.7-5.6,2.1-1.4.4-2.8.7-4,.8-1.2.1-2.3.2-3.2.2-.9,0-2,0-3.2-.2-1.2-.1-2.5-.4-4-.8-1.4-.4-3.5-1-5.6-2.1-2.1-1.1-4.1-2.7-5.3-5.2-.6-1.2-.9-2.3-1.1-3.7-.2-1.3-.2-2.8-.2-4.7,0-.5,0-1.2,0-1.9,0-.7,0-1.6.2-2.5.7.5,1.3.8,2,1,.6.2,1.3.2,1.9.1,1-.2,1.8-.8,2.6-1.9.8-1.1,1.6-2.6,2.7-4.5.8-1.5,1.8-3.3,2.5-5.4.7-2.1,1.3-4.6,1.3-7.5,0-1.6-.2-3.1-.4-4.4-.2-1.3-.6-2.4-.8-3.2h14.9c-.3.8-.6,1.9-.8,3.2-.2,1.3-.4,2.8-.4,4.4,0,2.9.6,5.4,1.3,7.5.8,2.1,1.7,3.9,2.5,5.4,1.1,2,1.9,3.5,2.7,4.5.8,1.1,1.6,1.7,2.6,1.9.6.1,1.2,0,1.8,0,.6-.2,1.3-.5,1.9-.9,0,.9.1,1.8.2,2.5,0,.7,0,1.4,0,1.9Z"/>
        <path class="st37" d="M155.5,33.7c-.4,4-2.3,8-5.2,10.9-2.9,2.9-6.9,4.8-11.3,4.7-4.3-.1-8-2.1-10.7-5-2.7-2.9-4.5-6.7-4.8-10.6-.4-4.6,1.1-9.2,4-12.7,2.8-3.5,6.9-6,11.6-6.1,4.8-.1,9.2,2.2,12.2,5.8,3,3.6,4.7,8.3,4.3,13.1Z"/>
        <g>
          <path class="st37" d="M125.8,26.4c-.3-.8-.8-1.4-1.4-1.9-.6-.5-1.3-.8-2.1-.8-1.2,0-2.2.4-3,1.1-.8.7-1.3,1.6-1.3,2.5,0,.8.4,1.3.9,1.9.5.6,1.1,1.3,1.4,2.7.2.9.2,1.6.2,2.1,0,.5,0,.9.3,1.2.3.2.7.4,1.4.3.7-.1,1.8-.5,3.3-1.2l.5-7.7Z"/>
          <path class="st0" d="M125.1,28.7c-.3-.5-.8-.9-1.2-1.1-.5-.2-.9-.2-1.3,0-.5.2-.8.6-.9,1-.2.4-.2.9-.3,1.1,0,.1,0,.7,0,1.3,0,.6.3,1.2.9,1.5.4.2,1,.2,1.5,0,.5-.2,1-.6,1.4-1.2v-2.6Z"/>
          <path class="st0" d="M124.4,26.6c-.2-.2-.3-.3-.5-.5-.2-.1-.4-.2-.6-.3-.1,0-.2,0-.3-.1-.1,0-.2,0-.3,0-.1,0-.2,0-.4,0-.1,0-.2,0-.4,0-.2,0-.5,0-.7.1-.2,0-.4.2-.6.3-.2.1-.4.3-.5.5-.1.2-.3.4-.3.7,0-.2.1-.5.3-.7.1-.2.3-.4.5-.6.2-.2.4-.3.6-.5s.5-.2.8-.3c.1,0,.3,0,.4,0,.1,0,.3,0,.4,0,.1,0,.3,0,.4,0,.1,0,.3,0,.4,0,.3,0,.5.2.8.3.2.1.5.3.7.5l-.2.3-.2.3Z"/>
        </g>
        <path class="st48" d="M152.9,21c-.2-.4-.6-1.1-1-1.6-.4-.5-.8-1-1-.9-.4.1-.3,1.4,0,3.1.3,1.8.9,4,1.4,6.2,0,0,.3,1,.4,2.5.1,1.5.1,3.5-.4,5.5-.2.9-.7,2.3-1.4,3.7-.8,1.3-1.9,2.6-3.5,2.9-.7.2-1.7.2-2.5,0-.9-.2-1.7-.6-2.2-1.2-.3-.4-.4-.8-.6-1.2-.2-.4-.4-.8-.8-1.1-.3-.2-.7-.3-1-.4-.3,0-.6,0-.9,0h0c-.3,0-.6,0-.9,0-.3,0-.7.2-1,.4-.5.3-.7.7-.8,1.1-.2.4-.3.8-.6,1.2-.5.7-1.3,1-2.2,1.2-.9.2-1.8.1-2.5,0-1.6-.4-2.7-1.6-3.5-2.9-.8-1.3-1.2-2.8-1.4-3.7-.5-2-.5-4-.4-5.5.1-1.5.4-2.5.4-2.5.6-2.1,1.3-4.4,1.6-6.1.4-1.8.5-3,.1-3.2-.3-.1-.7.3-1.2.9-.4.6-.9,1.2-1.1,1.6-.7,1.1-1.6,2.8-2.3,5.2-.7,2.4.4,4.3.6,8.2-.5,1.1,3.1,4.6,2.7,7.2-.4,2.6,2.1,4.8,1.1,8.4s-2.9,7.9.3,10.7c3.2,2.8,7.1,5.7,11.7,5.7s3.7-1,7.2-3.3c3.5-2.3,3-2.1,5-7.7,1.4-3.8,1.1-4.2.8-7.1-.3-2.9,2.3-11.1,1.9-12.1,0-3.7.9-7.5.2-9.9-.7-2.4-1.6-4.1-2.3-5.4Z"/>
        <path class="st12" d="M136.1,28.4c0,.8-.3,1.5-.8,2.1-.5.5-1.1.9-1.8.9s-1.4-.3-1.8-.9c-.5-.5-.8-1.3-.8-2.1s.3-1.5.8-2.1c.5-.5,1.1-.9,1.8-.9s1.4.3,1.8.9c.5.5.8,1.3.8,2.1Z"/>
        <path class="st51" d="M135,28.4c0,.5-.2.9-.4,1.2s-.7.5-1.1.5-.8-.2-1.1-.5-.4-.7-.4-1.2.2-.9.4-1.2c.3-.3.7-.5,1.1-.5s.8.2,1.1.5c.3.3.4.7.4,1.2Z"/>
        <path class="st34" d="M133.3,27c0-.2,0-.4-.2-.6-.1-.1-.3-.2-.6-.2s-.4,0-.6.2c-.1.1-.2.3-.2.6s0,.4.2.6.3.2.6.2.4,0,.6-.2c.1-.1.2-.3.2-.6Z"/>
        <path class="st12" d="M147.8,28.4c0,.8-.3,1.5-.8,2.1-.5.5-1.1.9-1.8.9s-1.4-.3-1.8-.9c-.5-.5-.8-1.3-.8-2.1s.3-1.5.8-2.1c.5-.5,1.1-.9,1.8-.9s1.4.3,1.8.9c.5.5.8,1.3.8,2.1Z"/>
        <path class="st51" d="M146.8,28.4c0,.5-.2.9-.4,1.2-.3.3-.7.5-1.1.5s-.8-.2-1.1-.5-.4-.7-.4-1.2.2-.9.4-1.2c.3-.3.7-.5,1.1-.5s.8.2,1.1.5c.3.3.4.7.4,1.2Z"/>
        <path class="st34" d="M145.1,27c0-.2,0-.4-.2-.6-.1-.1-.3-.2-.6-.2s-.4,0-.6.2c-.1.1-.2.3-.2.6s0,.4.2.6c.1.1.3.2.6.2s.4,0,.6-.2.2-.3.2-.6Z"/>
        <path class="st40" d="M134.8,34.8c0,.7-.4,1.4-1,1.8-.6.5-1.5.8-2.5.8s-1.9-.3-2.5-.8c-.6-.5-1-1.1-1-1.8s.4-1.4,1-1.8c.6-.5,1.5-.8,2.5-.8s1.9.3,2.5.8c.6.5,1,1.1,1,1.8Z"/>
        <path class="st40" d="M151.2,34.8c0,.7-.4,1.4-1,1.8-.6.5-1.5.8-2.5.8s-1.9-.3-2.5-.8c-.6-.5-1-1.1-1-1.8s.4-1.4,1-1.8c.6-.5,1.5-.8,2.5-.8s1.9.3,2.5.8c.6.5,1,1.1,1,1.8Z"/>
        <g>
          <path class="st20" d="M150.3,53.9c0,.2-.2.4-.2.6,0,.2-.2.4-.3.6-.2.2-.4.4-.6.5-.2,0-.5,0-.7-.2,0-.1-.2-.1-.3,0-.1,0-.2.2-.2.3,0,.3-.2.7-.5.8-.3.2-.6.2-1,0-.2-.1-.4-.3-.5-.5-.1-.2-.2-.4-.3-.6,0,0,0,0,0,0,0,0,0,0,0,0-.2.4-.1.8.1,1.2.3.3.7.6,1.1.7.4,0,.8,0,1.1-.2.3-.2.5-.5.7-.9.2,0,.4.1.6.1.2,0,.4,0,.6-.2.4-.2.6-.5.7-.9s.2-.8.2-1.1c0,0,0-.1-.1-.1,0,0-.1,0-.1,0Z"/>
          <path class="st20" d="M129.2,54.9c-.2,0-.6,0-.9,0-.3,0-.6-.1-.8-.3-.1-.1-.2-.2-.2-.4s0-.3,0-.4c0-.1,0-.3.1-.4,0-.1.1-.3.1-.4,0,0,0,0,0-.1,0,0,0,0-.1,0-.2,0-.3.2-.4.4,0,.2-.1.4-.2.6,0,.2,0,.4,0,.7,0,.2.2.4.3.6.1.2.3.3.5.4.2,0,.4.1.6.2.2,0,.4,0,.6-.1.2,0,.3-.2.4-.4,0,0,0,0,0-.1,0,0,0,0-.1,0Z"/>
          <path class="st20" d="M134.1,60.7c-.1.1-.3.2-.5.3-.2,0-.4,0-.6,0-.3,0-.5-.2-.6-.4-.1-.2-.1-.5,0-.8,0-.2,0-.3-.1-.4-.1,0-.3,0-.4,0-.2.2-.4.4-.7.4-.2,0-.5,0-.6-.4,0-.1-.1-.3-.1-.4,0-.2,0-.3,0-.5,0,0,0,0,0,0,0,0,0,0,0,0-.3.2-.4.5-.3.8,0,.3.2.6.5.8.2.2.4.2.6.3.2,0,.4,0,.6,0,0,.3,0,.5.2.7.1.2.3.4.6.5.4.2.8.2,1.1,0,.3-.1.6-.4.7-.8,0,0,0,0,0,0,0,0,0,0,0,0Z"/>
          <path class="st20" d="M145.1,60.5c0,.2-.1.3-.2.5,0,.2-.2.3-.3.4-.2.2-.5.2-.7.2-.2,0-.5-.1-.7-.3,0,0-.2-.1-.3,0-.1,0-.2.1-.2.3,0,.3-.2.6-.4.7-.2.1-.6.1-.8-.1-.1-.1-.2-.3-.3-.4,0-.2-.1-.3-.2-.5,0,0,0,0,0,0s0,0-.1,0c-.3.3-.3.7-.1,1,.2.3.5.6.8.7.4.1.7,0,1-.1.3-.2.5-.4.6-.8.2.1.5.2.7.2.3,0,.5,0,.8-.2.3-.1.5-.4.6-.7.1-.3.2-.6,0-.9,0,0,0,0,0,0,0,0,0,0,0,0Z"/>
          <path class="st20" d="M138.4,56.4c-.2.2-.5.4-.8.6-.3.1-.6.2-.9.2-.4,0-.6-.2-.8-.4-.2-.2-.4-.5-.5-.8,0,0-.1,0-.2,0,0,0-.1,0-.1.1,0,.4.1.9.4,1.2.3.3.7.6,1.1.6.5,0,.9,0,1.3-.2s.6-.6.7-1c0,0,0,0,0-.1,0,0,0,0-.1,0Z"/>
          <path class="st20" d="M142.5,58.1s0,0,0,0c0,0,0,0,0,0-.2.1-.4.3-.7.4-.2.1-.4.3-.7.2-.2,0-.4-.2-.6-.3-.2-.2-.4-.3-.5-.5,0,0,0,0,0,0,0,0,0,0,0,0-.2.4,0,.8.3,1.1.3.3.7.5,1.1.5.3,0,.8-.1,1.2-.4.3-.3.6-.6.4-1Z"/>
          <path class="st20" d="M145.2,52.3c.4.3,1,.4,1.5.3.5-.1.8-.4.9-1,0,0,0,0,0,0,0,0,0,0,0,0-.3.2-.7.4-1,.5-.4,0-.7,0-1.1-.3,0,0-.2,0-.2,0,0,0-.2,0-.2.1-.2.3-.4.4-.6.4-.2,0-.4-.2-.5-.4,0,0-.2-.1-.2,0,0,0-.2,0-.1.2,0,.5.4.7.7.8.4,0,.8,0,1.1-.4Z"/>
          <path class="st20" d="M135.9,52.2c-.3,0-.6,0-.9-.1-.3-.1-.6-.3-.8-.5-.1-.1-.2-.3-.2-.4,0-.1,0-.3-.1-.4,0-.1,0-.2,0-.3,0,0,0-.2-.1-.3,0,0,0,0,0,0,0,0,0,0,0,0-.4.1-.4.5-.3.9.1.4.3.8.5,1,.1.2.3.3.5.4.2.1.4.2.6.2.2,0,.4,0,.6,0,.2,0,.4-.2.5-.3,0,0,0,0,0-.1,0,0,0,0-.1,0Z"/>
        </g>
        <path class="st48" d="M130.3,24.5c.2,0,.4,0,.6-.2.2-.1.3-.2.5-.3.2-.1.4-.2.7-.3.2,0,.5-.2.7-.2.5-.1,1,0,1.5,0,.5,0,1,.3,1.5.4.3.1.5,0,.6-.3,0-.2,0-.6-.2-.7-.5-.3-1.1-.5-1.7-.5-.6,0-1.2,0-1.8.2-.3,0-.5.2-.8.3-.3.1-.5.3-.7.4-.2.1-.4.3-.6.4-.2.2-.3.4-.3.6,0,0,0,0,0,0,0,0,0,0,0,0h0Z"/>
        <path class="st48" d="M148.6,25.1c-.3-.5-.8-.9-1.4-1.2-.6-.3-1.3-.4-1.8-.4-.3,0-.6,0-.9,0-.3,0-.6.1-.9.2-.1,0-.2,0-.4.2-.1,0-.2.1-.3.2-.1.1-.2.2-.2.4,0,.1-.1.3-.2.4,0,0,0,0,0,0,0,0,0,0,0,0,.1,0,.2,0,.4,0,.1,0,.2,0,.4,0,.1,0,.2,0,.4-.1.1,0,.2-.1.4-.1.2,0,.5-.2.7-.2.2,0,.5,0,.7,0,.3,0,.6,0,.8.1.3,0,.5.2.8.3.2.1.5.2.7.3.2.1.5.2.7.2,0,0,0,0,.1,0,0,0,0-.1,0-.2h0Z"/>
        <path class="st20" d="M129.7,35.5c-.3,0-.7,0-1,.2-.3.1-.6.3-.9.5-.3.2-.5.5-.8.7-.2.3-.4.6-.6.9-.3.7-.6,1.6-.6,2.4,0,.8.2,1.7.6,2.4.6.9,1.4,1.5,2.3,1.8.9.4,1.9.5,2.9.3.8-.1,1.6-.5,2.2-.9.6-.5,1.2-1,1.7-1.7.1-.1.2-.3.4-.4.1-.1.2-.3.4-.4,0,0,.1-.1.2-.2,0,0,.1-.1.2-.2,0,0,0,0,0,0,0,0,0,0,0,0-.1.1-.1.1-.1.1,0,0,.1,0,.1-.1,0,0,0,0,0,0,0,0,0,0,0,0,0,0,.1,0,.2,0,0,0,.1,0,0,0,0,0,0,0,.2,0,.1,0,.3,0,.1,0-.1,0,0,0,.2,0,.1,0,.3,0,.2,0-.1,0,0,0,0,0,0,0,.1,0,.1,0,0,0,.1,0,.2,0,0,0,.1,0,.2,0,.4.1.8,0,1.2-.1.4-.2.7-.5.8-.9.2-.4.2-.8,0-1.2-.1-.4-.4-.8-.8-.9-1-.4-2.1-.5-3.1-.3-1,.2-1.9.7-2.7,1.5-.3.3-.5.6-.7.9-.2.3-.5.6-.7.9,0,0-.1.1-.2.2,0,0-.1.1-.2.2,0,0,0,0-.1,0,0,0,0,0-.1,0,0,0,.1,0,.1,0,0,0,0,0-.1,0,0,0-.2,0-.3.2-.1,0-.2,0,0,0,0,0-.2,0-.3,0-.1,0-.2,0-.3,0-.1,0-.2,0-.2,0,0,0,0,0,.2,0,0,0-.1,0-.2,0,0,0-.1,0-.2,0,0,0-.1,0-.2,0,0,0-.1,0-.2,0,.1,0,.2,0,.2,0,0,0,0,0-.2,0-.1,0-.2,0-.3,0-.1,0-.2,0-.3,0,.2,0,.1,0,0,0-.1,0-.3-.1-.3-.1,0,0,0,0-.1,0,0,0,0,0-.1,0,0,0,.1,0,.1,0,0,0,0,0-.1-.1,0,0-.1-.1-.2-.2,0,0-.1-.1,0,0,0-.1-.2-.2-.3-.3,0-.1-.2-.2-.3-.3,0,0,0,.1,0,0,0,0-.1-.1-.2-.3,0,0,0,0,0,0,0,0,0,0,0-.1,0-.1-.1-.2-.2-.4,0-.1,0-.3,0-.5,0-.2,0-.3,0-.5,0-.2.1-.3.2-.5,0-.2.2-.3.3-.5.1-.2.2-.3.3-.5.1-.2.3-.3.4-.4.2-.1.3-.2.5-.3.1-.1.2-.3.2-.4,0-.1-.1-.3-.4-.3h0Z"/>
        <g>
          <path class="st48" d="M130.4,42.5c.7,0,1.3,0,1.9-.3.6-.3,1-.7,1.5-1.2.5-.6,1-1.3,1.6-1.8.6-.5,1.3-.8,2.2-.6,0,0,0,0,0,0,0,0,0,0,0,0-.4-.4-1-.4-1.5-.3-.5.1-1,.4-1.4.8-.5.5-.9,1-1.3,1.6-.4.5-.8,1-1.5,1.3-.6.3-1.4.3-2,.2s-1.3-.5-1.7-1.1c-.4-.6-.6-1.2-.6-1.9,0-.7.2-1.3.6-1.9,0,0,0,0,0-.1,0,0,0,0-.1,0-.4.5-.6,1-.7,1.6,0,.6,0,1.2.2,1.7.2.6.6,1.1,1.1,1.4.5.4,1,.6,1.7.6Z"/>
          <path class="st48" d="M137.8,39.5c-.6-.4-1.2-.3-1.8,0-.6.3-1.1.8-1.5,1.2-.5.5-.9,1.1-1.4,1.6-.5.5-1.1.9-1.8,1-.7.1-1.4,0-2.1-.2-.6-.2-1.2-.7-1.6-1.3-.4-.6-.6-1.3-.7-1.9,0-.7.1-1.4.4-2,0,0,0-.1,0-.2,0,0-.1,0-.2,0-.7,1.2-.7,2.6-.1,3.7.5,1.1,1.6,2,3,2.2.7.1,1.4,0,2-.2.6-.2,1.2-.6,1.7-1.1.3-.3.6-.6.8-.9.3-.3.5-.6.9-.9.3-.3.7-.5,1.1-.7.4-.2.8-.3,1.2-.4,0,0,0,0,0,0,0,0,0,0,0-.1Z"/>
        </g>
        <path class="st20" d="M149.3,35.5c.3,0,.7,0,1,.2.3.1.6.3.9.5.3.2.5.5.8.7.2.3.4.6.6.9.3.7.6,1.6.6,2.4,0,.8-.2,1.7-.6,2.4-.6.9-1.4,1.5-2.3,1.8-.9.4-1.9.5-2.9.3-.8-.1-1.6-.5-2.2-.9-.6-.5-1.2-1-1.7-1.7-.1-.1-.2-.3-.4-.4-.1-.1-.2-.3-.4-.4,0,0-.1-.1-.2-.2,0,0-.1-.1-.2-.2,0,0,0,0,0,0,0,0,0,0,0,0,.1.1.1.1.1.1,0,0-.1,0-.1-.1,0,0,0,0,0,0,0,0,0,0,0,0,0,0-.1,0-.2,0,0,0-.1,0,0,0,0,0,0,0-.2,0-.1,0-.3,0-.1,0,.1,0,0,0-.2,0-.1,0-.3,0-.2,0,.1,0,0,0,0,0,0,0-.1,0-.1,0,0,0-.2,0-.2,0,0,0-.1,0-.2,0-.4.1-.8,0-1.2-.1-.4-.2-.7-.5-.8-.9-.2-.4-.2-.8,0-1.2.1-.4.4-.8.8-.9,1-.4,2.1-.5,3.1-.3,1,.2,1.9.7,2.7,1.5.3.3.5.6.7.9.2.3.5.6.7.9,0,0,.1.1.2.2,0,0,.1.1.2.2,0,0,0,0,.1,0,0,0,0,0,.1,0,0,0-.1,0-.1,0,0,0,0,0,.1,0,0,0,.2,0,.3.2.1,0,.2,0,0,0,0,0,.2,0,.3,0,.1,0,.2,0,.3,0,.1,0,.2,0,.2,0,0,0,0,0-.2,0,0,0,.1,0,.2,0,0,0,.1,0,.2,0,0,0,.1,0,.2,0,0,0,.1,0,.2,0-.1,0-.2,0-.2,0,0,0,0,0,.2,0,.1,0,.2,0,.3,0s.2,0,.3,0c-.2,0-.1,0,0,0,.1,0,.3-.1.3-.1,0,0,0,0,.1,0,0,0,0,0,.1,0,0,0-.1,0-.1,0,0,0,0,0,.1-.1,0,0,.1-.1.2-.2,0,0,.1-.1,0,0,0-.1.2-.2.3-.3,0-.1.2-.2.3-.3,0,0,0,.1,0,0,0,0,.1-.1.2-.3,0,0,0,0,0,0,0,0,0,0,0-.1,0-.1.1-.2.2-.4,0-.1,0-.3,0-.5,0-.2,0-.3,0-.5,0-.2-.1-.3-.2-.5,0-.2-.2-.3-.3-.5-.1-.2-.2-.3-.3-.5-.1-.2-.3-.3-.4-.4-.2-.1-.3-.2-.5-.3-.1-.1-.2-.3-.2-.4,0-.1.1-.3.4-.3h0Z"/>
        <g>
          <path class="st48" d="M148.5,42.5c-.7,0-1.3,0-1.9-.3-.6-.3-1-.7-1.5-1.2-.5-.6-1-1.3-1.6-1.8-.6-.5-1.3-.8-2.2-.6,0,0,0,0,0,0,0,0,0,0,0,0,.4-.4,1-.4,1.5-.3.5.1,1,.4,1.4.8.5.5.9,1,1.3,1.6.4.5.8,1,1.5,1.3.6.3,1.4.3,2,.2s1.3-.5,1.7-1.1c.4-.6.6-1.2.6-1.9,0-.7-.2-1.3-.6-1.9,0,0,0,0,0-.1s0,0,.1,0c.4.5.6,1,.7,1.6,0,.6,0,1.2-.2,1.7-.2.6-.6,1.1-1.1,1.4-.5.4-1,.6-1.7.6Z"/>
          <path class="st48" d="M141.2,39.5c.6-.4,1.2-.3,1.8,0,.6.3,1.1.8,1.5,1.2.5.5.9,1.1,1.4,1.6.5.5,1.1.9,1.8,1,.7.1,1.4,0,2.1-.2.6-.2,1.2-.7,1.6-1.3.4-.6.6-1.3.7-1.9,0-.7-.1-1.4-.4-2,0,0,0-.1,0-.2,0,0,.1,0,.2,0,.7,1.2.7,2.6.1,3.7-.5,1.1-1.6,2-3,2.2-.7.1-1.4,0-2-.2s-1.2-.6-1.7-1.1c-.3-.3-.6-.6-.8-.9-.3-.3-.5-.6-.9-.9-.3-.3-.7-.5-1.1-.7-.4-.2-.8-.3-1.2-.4,0,0,0,0,0,0,0,0,0,0,0-.1Z"/>
        </g>
        <g>
          <path class="st37" d="M153.2,26.4c.3-.8.8-1.4,1.4-1.9.6-.5,1.3-.8,2.1-.8,1.2,0,2.2.4,3,1.1.8.7,1.3,1.6,1.3,2.5,0,.8-.4,1.3-.9,1.9-.5.6-1.1,1.3-1.4,2.7-.2.9-.2,1.6-.2,2.1,0,.5,0,.9-.3,1.2-.3.2-.7.4-1.4.3-.7-.1-1.8-.5-3.3-1.2l-.5-7.7Z"/>
          <path class="st0" d="M153.9,28.7c.3-.5.8-.9,1.2-1.1.5-.2.9-.2,1.3,0,.5.2.8.6.9,1,.2.4.2.9.3,1.1,0,.1,0,.7,0,1.3,0,.6-.3,1.2-.9,1.5-.4.2-1,.2-1.5,0-.5-.2-1-.6-1.4-1.2v-2.6Z"/>
          <path class="st0" d="M154.7,26.6c.2-.2.3-.3.5-.5.2-.1.4-.2.6-.3.1,0,.2,0,.3-.1.1,0,.2,0,.3,0,.1,0,.2,0,.4,0,.1,0,.2,0,.4,0,.2,0,.5,0,.7.1.2,0,.4.2.6.3.2.1.4.3.5.5.1.2.3.4.3.7,0-.2-.1-.5-.3-.7-.1-.2-.3-.4-.5-.6-.2-.2-.4-.3-.6-.5-.2-.1-.5-.2-.8-.3-.1,0-.3,0-.4,0-.1,0-.3,0-.4,0-.1,0-.3,0-.4,0-.1,0-.3,0-.4,0-.3,0-.5.2-.8.3s-.5.3-.7.5l.2.3.2.3Z"/>
        </g>
        <path class="st0" d="M142.4,33.9c-.3-.7-.6-1.5-1-2.3-.4-.9-.7-1.9-1.1-3-.1-.3-.4-.5-.8-.5s-.7.2-.8.5c-.4,1.1-.7,2.1-1.1,3-.4.9-.7,1.7-1,2.3-.6,1.5-1.2,2.7-1.5,3.7-.3,1-.3,1.8.1,2.6,0,.1.2.3.2.4,0,.1.2.2.3.3.9,1,2.3,1.5,3.7,1.5s2.8-.5,3.7-1.5c0-.1.2-.2.3-.3,0-.1.2-.2.2-.4.5-.8.4-1.6.1-2.6-.3-1-.9-2.2-1.5-3.7Z"/>
        <path class="st47" d="M139.2,14.5h0c.4.2.8.4,1.2.6.4.2,1,.5,1.8.9,3.4,1.8,6.1,3.2,8.2,4.3,1,.6,1.6.8,1.6.8.9.5,1.8,1.1,2.6,1.7.6.6,1.2,1.2,1.8,1.8,0,0,0,0,0,0,0,0,0,0,0,0,0,0,0,0,0,0,0,0,0-.1,0-.2-.4-1-.7-2.2-.9-3.4-.2-.9-.3,13.4-.4,13,0,0-2.8-2.2-2.9-2.1,0,.1,0,.2,0,.4-.3.8-.6,1.7-.9,2.5,0,0-.1,0,0-.2.2-.6.4-1.1.6-1.6,0,0,0,0,0-.2,0-.2.1-.3.3-.6,0,0,0,0,0-.1,0-.1,0-.3,0-.4,0,0,0-.2.2-.3.1-.2.2-.3.3-.5.2-.6.4-1.2.5-1.9.1-.7.2-1,.2-1.1,0-.4,0-.8,0-1.1,0-.6-.4-1-1-1.3-.5-.2-.9-.2-1.4,0-.4.1-.8.3-1.2.5-1.6.8-3.3,1.2-5.1,1.2-1.8,0-3.4-.3-5-1.1,0,0-.1,0-.2,0h-.1c0-.1,0-.1-.2-.1-.2,0-.3.1-.5.2-1,.5-2.1.9-3.3,1-.6,0-1.2.1-1.8.1-1.1,0-2.2-.2-3.2-.5-.3-.1-.8-.3-1.3-.5-.4-.2-.9-.4-1.3-.6-.2,0-.5-.2-.8-.2-.5-.1-.9,0-1.3.2-.3.2-.5.5-.6.8,0,.2,0,.5,0,1,.2,1.3.5,2.6.9,3.8,0,0,0,.2.2.4,0,.1.1.3.1.4,0,0,0,0,0,0,0,0,0,.1,0,.2.1.5.3,1.1.6,1.8,0,.1.2.4.3.9.1.3.2.6.4.9.1.3-3.1-1.8-2.9-1.4,0,0-2.6-8.7-1.3-10.7s1-1.6,2.3-2.3c.7-.4,1.3-.8,1.8-1,3.8-2.1,7.7-4,11.6-6h0Z"/>
        <path class="st43" d="M139.9.1c-.1,0-.2.1,0,.2,0,0,0,.1,0,.2,0,.4,0,1,0,1.9v13c0,.3,0,.6-.1.8-1.3.4-2.7.9-4,1.6-2,.9-3.8,1.8-5.6,2.8-.3.1-.4.3-.5.4-.3.2-.5.4-.7.5-1.4.8-2.7,1.7-3.9,2.7-.2.1-.1.1,0,0,3.1-1.9,6.3-3.7,9.6-5.4.2,0,.3-.2.5-.3,0,0,0,0,0-.2,1.4-.7,2.9-1.3,4.4-1.9l.3.2s0,0,0,0v2s0,0,0,0c0,0,0,0-.1,0-.6.2-1,.4-1.1.4-3.6,1.8-7.2,3.7-10.7,5.7-.3.2-1,.6-1.9,1.2-1.4.9-1.7,1.9-2.6,2.8-.3.3-.3-11.7-.2-12.3.4-2.3,1.4-4.4,2.9-6.1.9-1,1.7-1.9,2.5-2.5,1.4-1.1,3-2.2,4.7-3.3.9-.5,1.4-.9,1.7-1,1.1-.7,2-1.4,2.9-2.1.4-.3,1-.8,1.5-1.3.2-.2.3-.3.3-.3,0-.1.1,0,.2,0h0Z"/>
        <path class="st32" d="M139.9.1c1.3,1.2,2.7,2.4,4.2,3.3.6.4,1.3.8,1.9,1.2,1.3.8,2.5,1.6,3.8,2.5,1.2.8,2.2,1.8,3.2,2.8,2,2.2,3.3,4.8,3.7,7.7,0,0-.2,0-.2,0,0,0,0,0,0-.2-.2-1.1-.5-2.3-.9-3.3-.2-.6-.5-1.2-.9-1.8-.4-.6-.8-1.2-1.3-1.7-.3-.4-.6-.7-.9-1-.3-.3-.6-.6-1-.9-2.1-1.7-4.4-3.3-6.7-4.7-1.6-.9-3.1-2.1-4.6-3.4,0,0,0,0,0,0,0,0,0,0-.1,0,0,0,0-.2,0-.2,0-.1,0-.2,0-.2h0Z"/>
        <path class="st49" d="M139.9.6s0,0,.1,0c0,0,0,0,0,0,1.5,1.4,3,2.5,4.6,3.4,2.4,1.4,4.6,2.9,6.7,4.7.3.3.7.6,1,.9.3.3.6.6.9,1,.5.5.9,1.1,1.3,1.7.3.5.6,1.1.9,1.8.4,1.1,1,2.4,1.1,3.6,0,0,.4,3,.4,3,0,0-.1.2-.2.2,0,0,0,.2,0,.4,0,.3.2.6.2.9,0,.2,0,.5,0,.7,0,.2,0,.4,0,.6,0,.2,0,.3,0,.5,0,.3,0,.5,0,.5,0,.5-1.8,10.4-3.5,10.7s1.8-7.3,1.4-7.6c-1.2-.8-2.7-2.1-4.4-3.1-1.4-.8-2.7-1.5-4.1-2.3-1.5-.9-3.1-1.7-4.7-2.5-.3-.2-.6-.3-.8-.4,0,0-.1,0,0,0-.4-.2-.9-.4-1.3-.7v-2s0,0,0,0l-.3-.2.4-.2s0,0,0,0c0,0,0,0-.2,0,0-.2.1-.5.1-.8V2.5c0-.8,0-1.5,0-1.9h0Z"/>
        <path class="st53" d="M139.8,16.2c0,0,.1,0,.2,0,0,0,0,0,0,0l-.4.2c-1.5.6-2.9,1.2-4.4,1.9-1.9.8-3.7,1.7-5.6,2.6.1-.1.3-.3.5-.4,1.7-1,3.6-1.9,5.6-2.8,1.4-.6,2.7-1.1,4-1.6h0Z"/>
        <path class="st32" d="M135.2,18.4c0,0,0,.1,0,.2-.2.1-.3.2-.5.3-3.3,1.7-6.5,3.5-9.6,5.4-.2.1-.2,0,0,0,1.2-1,2.5-1.9,3.9-2.7.2,0,.4-.3.7-.5,1.8-.9,3.7-1.8,5.6-2.6h0Z"/>
        <path class="st32" d="M144.8,18.7c0,0,0,0,0-.2,0,0,0,0,0,0,1.2.6,2.4,1.1,3.6,1.8.9.5,1.5.8,1.8.9,1.8,1,3.5,2.1,5,3.4,0,0,0,.1,0,0,0,0,0,0,0,0-.5-.3-.9-.7-1.4-1-2.9-1.8-5.9-3.4-8.9-5h0Z"/>
        <path class="st53" d="M139.8,18.9c-4.3,2.3-8.5,4.7-12.7,7.1-.5.3-1.2.7-2,1.2-1.4.9-1.7,1-1.4.7.9-1,.9-.9,2.3-1.7.9-.6,1.6-1,1.9-1.2,3.5-2,7.1-3.9,10.7-5.7.1,0,.5-.2,1.1-.4,0,0,.1,0,.1,0h0Z"/>
        <path class="st5" d="M145.4,21.3c-1-.5-1.6-.9-2-1.1,0,0,0-.1,0,0,.2,0,.5.2.8.4,1.6.8,3.1,1.6,4.7,2.5,1.4.8,2.7,1.5,4.1,2.3"/>
        <path class="st49" d="M153.1,43.2l-1,3c-.1,0-.3.2-.5.3-.4.2-.8.5-1.1.9-.2.3-.4.6-.6.9-.6.9-1.2,1.7-1.9,2.4-.3.3-.6.5-.9.8-.2.2-.3.1-.1-.1.2-.3.5-.8.8-1.3,1.3-2.4,2.2-4.9,2.9-7.5.2-.9.4-1.8.5-2.9,0,0,0,0,0,0,0,0,0,0,0,0-.7,1.8-1.7,3.4-3,4.8-.8.9-1.7,1.9-2.5,2.8-.6.6-1.3,1.3-2.2,2.1-.9.8-1.8,1.4-2.8,1.9-.2.1-.5.2-.8.2,0,0,0-.2,0-.3v-17.7s0,0,0-.2c0-.2,0-.4-.1-.6h.2c0-.1.1,0,.1,0,0,0,0,0,0,0,0,0,0,0,0,0,2.3,1.6,4.8,2.1,7.6,1.4,1.4-.4,2.8-.9,4.1-1.7,0,0,.2,0,.3-.2.1,0,.2-.1.3-.2,0,0,0,0,0,0,0,0,0,0,0,0,.5-.2,1-.2,1.5,0,.7.3,1.1.8,1.1,1.5,0,.4,0,.8,0,1.3,0,0,0,.5-.2,1.3-.1.9-.3,1.6-.5,2.3,0,.2-.2.4-.3.6-.1.2-.2.3-.2.4,0,.2,0,.3,0,.5,0,0,0,.1,0,.2-.2.3-.3.5-.3.7,0,.1,0,.2,0,.2-.2.7-.4,1.3-.6,2,0,.1,0,.2,0,.2h0Z"/>
        <path class="st43" d="M126.4,32s0,0,0,0c0,0,0,0,0,0,.5.2,1.1.5,1.6.8.8.4,1.4.7,1.6.8,1.3.5,2.7.8,4.1.9,1.6,0,3.2-.2,4.6-1,.5-.3,1-.5,1.5-.8.1.2.2.4.1.6,0,.2,0,.2,0,.2v17.7c0,.1,0,.2,0,.3-.5.2-1,.2-1.5-.1-1.1-.7-1.9-1.2-2.4-1.6-.9-.6-1.7-1.3-2.5-2.1-.6-.5-1-1-1.4-1.5-.6-.7-1.1-1.5-1.5-2.4,0,0,0,0,0,0,.4,1.4.9,2.8,1.6,4.1.2.4.4.7.6.9.4.5.9.9,1.6,1.4,1.1.7,2.1,1.5,3,2.4.7.6,1,.9,1,.9.8.7,1.5,1.3,2.3,2,0,0,0,.1,0,.1h-.3s0,0,0,0c-.2.2-.3.2-.6.2-.1,0-.2,0-.2,0-.5,0-.8,0-.9,0-1.8-.7-3.3-1.5-4.5-2.3-.9-.6-1.8-1.2-2.5-1.9-1.2-1-2.1-2.3-2.8-3.8-.3-.6-.5-1-.5-1.1,0-.1,0-.2-.2-.2,0,0,0,0,0,0,0,0,0,0,0,0l-.2-.4c0,0,0-.1,0-.2,0,0,0-.1,0-.1-.1-.5-.3-.9-.5-1.2-.2-.4-.3-.7-.4-1.1-.2-.5-.3-.9-.4-1.1-.3-.8-.5-1.5-.7-2.1,0-.1-.5-.2-.6-.3,0,0,.4,0,.4,0,0-.2-1.2-1.7-1.2-1.8-.1-.3-.8-2.6-.8-2.7,0-1.5.6-2,.6-2.2,0-.4.3-.8.6-1,.4-.3.9-.4,1.4-.2h0Z"/>
        <path class="st9" d="M126.4,32c.4,0,.7.1.9.2.5.2.9.5,1.4.7.6.3,1.1.5,1.4.6,1.2.4,2.3.6,3.5.7.7,0,1.3,0,2-.1,1.3-.2,2.5-.6,3.6-1.3.2,0,.3-.2.5-.2,0,0,.1,0,.2,0h-.2c-.5.4-1,.6-1.5.9-1.4.7-3,1.1-4.6,1-1.4,0-2.8-.4-4.1-.9-.2,0-.8-.4-1.6-.8-.5-.3-1.1-.5-1.6-.8,0,0,0,0,0,0,0,0,0,0,0,0h0Z"/>
        <path class="st43" d="M152.6,32.1c0,0,0,0,0,0,0,0,0,0,0,0-.1,0-.2.1-.3.2-.2,0-.3.1-.3.2-1.3.8-2.7,1.4-4.1,1.7-2.8.7-5.3.2-7.6-1.4,0,0,0,0,0,0,0,0,0,0,0,0,0,0,.1,0,.2,0,1.7,1,3.5,1.4,5.4,1.4,2,0,3.8-.5,5.6-1.5.4-.2.9-.4,1.4-.6h0Z"/>
        <path class="st47" d="M152.1,46.2s-.5-1.3-.5-1.4c.8-.4,3.6-9.5,3.4-8.6-.8,5.3-1.4,11.6-1.9,12.1-.4.4-.8.8-1.3,1.3-.6.6-1,1-1.3,1.3-1,.9-1.9,1.7-2.9,2.4-1.3,1-2.8,1.7-4.4,2.3-.9.3-2,.5-3.3.6,0,0-.2,0-.3-.1-.3,0-.6,0-.8-.1-.2,0-.5-.1-.8-.3-.7-.3-1.4-.6-2.2-.8-.7-.2-1.5-.5-2.3-.9-.5-.2-.9-.5-1.3-.8-.3-.2-.7-.6-1.2-1-.4-.3-.6-.8-1.1-1.1-2-1.1-1.8-3.2-3.1-5.6s-2.2-7.3-2.3-7.3c-.1,0,.9.8,1.7,1.4s4,11,5.2,12.1c.7.7,1.6,1.3,2.5,1.9,1.2.8,2.7,1.6,4.5,2.3.1,0,.5,0,.9,0,0,0,0,0,.2,0,.2,0,.4,0,.6-.2,0,0,0,0,0,0h.3c.1,0,.1,0,0-.1-.8-.7-1.5-1.4-2.3-2,0,0-.4-.3-1-.9-1-.9-2-1.6-3-2.4-.7-.5-1.2-.9-1.6-1.4-.2-.2-.3-.5-.6-.9-.7-1.3-1.2-2.7-1.6-4.1,0,0,0,0,0,0,.4.9.9,1.7,1.5,2.4.4.4.8.9,1.4,1.5.8.8,1.6,1.5,2.5,2.1.5.4,1.3.9,2.4,1.6.5.3,1,.4,1.5.1.3,0,.6,0,.8-.2,1-.5,1.9-1.1,2.8-1.9.9-.8,1.6-1.5,2.2-2.1.9-.9,1.7-1.8,2.5-2.8,1.3-1.4,2.2-3,3-4.8,0,0,0,0,0,0,0,0,0,0,0,0-.1,1.1-.3,2-.5,2.9-.7,2.6-1.6,5.1-2.9,7.5-.3.5-.5.9-.8,1.3-.2.2-.1.3.1.1.3-.2.6-.5.9-.8.7-.8,1.4-1.6,1.9-2.4.2-.3.4-.6.6-.9.3-.4.7-.7,1.1-.9.2-.1.4-.2.5-.3h0Z"/>
        <path class="st31" d="M137.7,71.2c-1,1-1,2.5,0,3.5s2.5,1,3.5,0,1-2.5,0-3.5-2.5-1-3.5,0ZM140,73.5c-.3.3-.8.3-1.1,0s-.3-.8,0-1.1.8-.3,1.1,0,.3.8,0,1.1Z"/>
        <path class="st31" d="M137.3,72.4s-.9-1.1-1.8-.4l-.4-3.5,3.3.5s-.2,1.2.5,1.8l-1.5,1.5Z"/>
        <path class="st31" d="M141.3,72.5s.9-1.1,1.8-.4l.4-3.5-3.3.5s.3,1.2-.5,1.8l1.6,1.5Z"/>
        <path class="st31" d="M137.2,73.6s-.9,1.2-1.8.4l-.3,3.5,3.3-.6s-.3-1.2.5-1.9l-1.6-1.5Z"/>
        <path class="st31" d="M141.2,73.4s.9,1.1,1.8.4l.5,3.5-3.3-.5s.2-1.2-.5-1.8l1.5-1.5Z"/>
        <path class="st15" d="M107.3,50.2l-4.9-.8c-.9-.1-1.8.3-2.2,1.1-.1.3-.2.6-.2.9-.5,2.5-2.3,2.8-2.3,2.8l.7-4.6c.2-1.2-.8-2.3-1.9-2.4h0c-2.5-.5-2.9-2.4-2.9-2.4h0s4.4.7,4.4.7c1.3.2,2.4-.8,2.3-2.1.2-.6.9-2.6,2.6-2.7l-.7,4.4c-.2,1.1.6,2.1,1.7,2.3,0,0,.1,0,.2,0,0,0,2.3.5,3.1,2.6Z"/>
        <path class="st8" d="M107.3,50.2c-.8-2.2-3.1-2.6-3.1-2.6,0,0,.2,0,.3,0,.4,0,.9-.1,1.3-.3,0,0,0,0,0,0,.3,0,2.4.6,2.4,3,0,0,0,0,0,0,0,0,0,0,0,0h-.9Z"/>
        <path class="st8" d="M103,39.7c0,0,.1,0,.1.1,0,0,0,0,0,0l-.2,1c-1.8.1-2.5,2.1-2.6,2.7,0,0,0,0,0,0,0-.4-.1-.9-.3-1.3,0,0,0,0,0,0,0-.3.7-2.3,2.9-2.4Z"/>
        <path class="st8" d="M100.6,52.9c0,0,0,.2,0,.2-.1.5-.8,2.2-2.7,2.3-.1,0-.3,0-.3-.2,0,0,0,0,0,0v-.8c.1,0,2-.3,2.5-2.8,0,.6.4,1.1.5,1.3Z"/>
        <path class="st8" d="M96.5,47.4c-.2,0-.4,0-.6,0-.3,0-.6.2-.9.4,0,0,0,0-.1,0-.4-.1-2.3-.7-2.4-2.9,0,0,0-.2.2-.2,0,0,0,0,0,0h.9c0,.1.4,2.1,2.9,2.6Z"/>
        <path class="st2" d="M100.6,46.2c.6.1,1.1.7,1,1.3-.1.6-.7,1.1-1.3,1-.6-.1-1.1-.7-1-1.3,0,0,0,0,0,0,.1-.6.7-1.1,1.3-1Z"/>
        <path class="st36" d="M93.5,45s0,0,0,0h-.8c0-.1-.2,0-.2,0,0,0,0,0,0,0,.1,2.1,2,2.8,2.4,2.9,0,0,0,0,.1,0,.1,0,.2-.1.3-.2-.7-.3-1.8-1.1-1.9-2.7Z"/>
        <path class="st19" d="M97.8,54.3s.5,0,1.1-.5l.6-4.1c.2-1.2-.8-2.3-1.9-2.4h0c-2.1-.4-2.7-1.8-2.9-2.3l-1-.2h0s.4,2,2.9,2.4h0c1.2,0,2.1,1.1,1.9,2.4l-.7,4.6Z"/>
        <path class="st36" d="M98.6,55.1v-.8c.1,0,.2-.5.2-.5-.6.4-1.1.5-1.1.5v.8c-.2.1,0,.3,0,.3,0,0,0,0,0,0,.2,0,.5,0,.7-.1,0,0,0-.1,0-.2Z"/>
        <path class="st15" d="M181.8,58.5l-2.3,1.1c-.4.2-.4.9,0,1.6.2.3.4.5.6.7,1.5,2,1,2.8,1,2.8l-2.9-3.6c-.8-1-1.9-1.4-2.3-1h0c-1.2.5-2.7-.7-2.7-.7h0s2.1-1,2.1-1c.6-.3.3-1.4-.6-2.3-.3-.5-1.5-2.2-.9-2.9l2.8,3.4c.7.9,1.7,1.4,2.2,1.1,0,0,0,0,0,0,0,0,1.2-.5,3,.8Z"/>
        <path class="st8" d="M181.8,58.5c-1.8-1.3-3-.8-3-.8,0,0,0,0,.1-.1.1-.2.2-.4.3-.7,0,0,0,0,0,0,.1,0,1.3-.4,3,1.3,0,0,0,0,0,0,0,0,0,0,0,0l-.4.2Z"/>
        <path class="st8" d="M173,52.4s0,0,.1,0c0,0,0,0,0,0l.6.8c-.6.7.6,2.4.9,2.9,0,0,0,0,0,0-.3-.3-.6-.6-1-.8,0,0,0,0,0,0-.2-.2-1.4-1.9-.6-2.8Z"/>
        <path class="st8" d="M181.2,62.8c0,0,.1,0,.2.2.3.4,1.2,1.8.6,2.6,0,0-.2,0-.3,0,0,0,0,0,0,0l-.5-.6s.5-.8-1-2.8c.4.4.9.7,1.1.8Z"/>
        <path class="st8" d="M175.9,60.2c0,0-.1.1-.2.3,0,.2,0,.4,0,.6,0,0,0,0,0,0-.2,0-1.3.3-2.8-1.2,0,0,0-.2,0-.2,0,0,0,0,0,0l.4-.2h0s1.5,1.3,2.7.7Z"/>
        <path class="st2" d="M176.6,57.9c.3-.2.9.1,1.3.6.4.5.5,1,.2,1.2-.3.2-.9-.1-1.3-.6,0,0,0,0,0,0-.4-.5-.5-1-.2-1.2Z"/>
        <path class="st36" d="M173.2,59.5s0,0,0,0l-.4.2s0,.1,0,.2c0,0,0,0,0,0,1.5,1.5,2.6,1.3,2.8,1.2,0,0,0,0,0,0,0,0,0-.2,0-.2-.5,0-1.4-.2-2.5-1.3Z"/>
        <path class="st19" d="M181.1,64.8s.1-.2,0-.7l-2.6-3.2c-.8-1-1.9-1.4-2.3-1h0c-1,.4-2.2-.3-2.6-.6l-.5.2h0s1.5,1.3,2.7.7h0c.5-.4,1.5,0,2.3,1l2.9,3.6Z"/>
        <path class="st36" d="M182,65.1l-.5-.6-.3-.4c0,.5,0,.7,0,.7l.5.6c0,.1.2.2.3.1,0,0,0,0,0,0,0-.1.1-.2.2-.4,0,0,0,0-.1-.1Z"/>
      </g>
    </g>
  </g>
</svg>