<?xml version="1.0" encoding="UTF-8"?>
<svg id="Calque_2" xmlns="http://www.w3.org/2000/svg" version="1.1" xmlns:xlink="http://www.w3.org/1999/xlink" viewBox="0 0 234.2 95.4">
  <!-- Generator: Adobe Illustrator 29.8.3, SVG Export Plug-In . SVG Version: 2.1.1 Build 3)  -->
  <defs>
    <style>
      .st0 {
        fill: url(#Dégradé_sans_nom_95);
      }

      .st0, .st1, .st2, .st3, .st4, .st5, .st6, .st7 {
        stroke: #000;
        stroke-miterlimit: 10;
      }

      .st0, .st1, .st2, .st4, .st5, .st6, .st7 {
        stroke-width: 1.6px;
      }

      .st1 {
        fill: url(#Dégradé_sans_nom_954);
      }

      .st2 {
        fill: url(#Dégradé_sans_nom_952);
      }

      .st8 {
        font-family: InriaSans-Bold, 'Inria Sans';
        font-size: 18.2px;
        font-weight: 700;
      }

      .st3 {
        fill: #fdb71a;
        stroke-width: .6px;
      }

      .st5 {
        fill: url(#Dégradé_sans_nom_951);
      }

      .st5, .st7 {
        display: none;
      }

      .st6 {
        fill: url(#Dégradé_sans_nom_953);
      }
    </style>
    <linearGradient id="Dégradé_sans_nom_95" data-name="Dégradé sans nom 95" x1="30.1" y1="58.4" x2="30.1" y2="11.7" gradientUnits="userSpaceOnUse">
      <stop offset="0" stop-color="#dc0122"/>
      <stop offset=".2" stop-color="#dc0221"/>
      <stop offset=".3" stop-color="#dd0921"/>
      <stop offset=".4" stop-color="#df1521"/>
      <stop offset=".4" stop-color="#e22620"/>
      <stop offset=".5" stop-color="#e63c1f"/>
      <stop offset=".5" stop-color="#eb571e"/>
      <stop offset=".5" stop-color="#f1771c"/>
      <stop offset=".5" stop-color="#f89c1b"/>
      <stop offset=".6" stop-color="#fdb71a"/>
    </linearGradient>
    <linearGradient id="Dégradé_sans_nom_951" data-name="Dégradé sans nom 95" x1="69.6" y1="57.4" x2="69.6" y2="14" xlink:href="#Dégradé_sans_nom_95"/>
    <linearGradient id="Dégradé_sans_nom_952" data-name="Dégradé sans nom 95" x1="112.2" x2="112.2" xlink:href="#Dégradé_sans_nom_95"/>
    <linearGradient id="Dégradé_sans_nom_953" data-name="Dégradé sans nom 95" x1="155.9" y1="59.9" x2="155.9" y2="12.2" xlink:href="#Dégradé_sans_nom_95"/>
    <linearGradient id="Dégradé_sans_nom_954" data-name="Dégradé sans nom 95" x1="200.7" y1="60.5" x2="200.7" y2="11.9" xlink:href="#Dégradé_sans_nom_95"/>
  </defs>
  <polygon class="st3" points="71 37.1 55.4 50.6 55.3 92 81 59 75.9 38.8 84.9 16.5 78.9 14.4 71 37.1"/>
  <g id="Layer_34">
    <path d="M54.7,95.3c.5.2,1.1,0,1.4-.4l24.8-35.9c.2-.2.3-.6.2-.9l-3.1-17.6,6.8-20.9c3.4-.7,6.2-3.1,7.3-6.6,1.7-5.1-1.1-10.7-6.3-12.4-2.5-.8-5.2-.5-7.4.6s-4.1,3.1-5,5.7-.5,5.3.6,7.5.9,1.5,1.5,2.1l-6.9,21-13,12.3c-.2.2-.4.5-.4.9l-1.5,43.6c0,.4.3.9.8,1.1ZM78.7,57.9l-19.7,28.5h0l15.1-45.6,1.7.5,3,16.6ZM76.7,21.1l4.6,1.5-.8,2.3-4.6-1.5.8-2.3ZM85.3,10.6c-.2.7-.7,1.2-1.2,1.4s-1.2.3-1.9.1c-.7-.2-1.2-.7-1.4-1.2s-.3-1.2-.1-1.9c.4-1.3,1.9-2,3.1-1.5.7.2,1.2.7,1.4,1.2s.3,1.2.1,1.9ZM75,26.1l4.6,1.5-.8,2.3-4.6-1.5.8-2.3ZM73.4,31.1l4.6,1.5-.8,2.3-4.6-1.5.8-2.3ZM57.8,51l12.3-11.7,1.7.5h0l-15.1,45.8h0l1.2-34.6Z"/>
  </g>
  <text class="st8" transform="translate(86.4 80.4)"><tspan x="0" y="0">Warrior</tspan></text>
  <g>
    <path class="st4" d="M60.5,17.1c-2.7,3.4-4.4,12-5.8,15.8-1.4,3.9-2.1,8-2.1,12.4s.2,4.6.6,7c.4,2.4,1,4.9,1.8,7.5-1.6,0-3.2.2-4.8.5-1.4.2-2.9.5-4.6,1-1.7.5-3.3,1.1-4.9,1.9-.5-1.6-3.8-4-3.8-4,0,0,.6-3.5,0-4.8-.7-1.3-1.4-2.6-2.1-3.7-.7-1.2-1.4-2.2-2-3.2-1.5-2.2-3.1-4.3-4.7-6,0,0,0,0,0-.1,0,0,0,0-.1-.1,0,0,0-.1-.1-.2.1,1.6.2,3.3.2,4.8,0,5.8-.7,11.5-2.2,17.1-3.3-1.2-6.7-1.8-10.2-1.8s-2.2,0-3.4.2c-1.1.1-2.3.3-3.4.5-1.1-1.6-4.7-3.5-4.7-3.5,0,0,10.1-5.2,10.9-7.3,1.4-3.9,2.1-8.1,2.1-12.6s0-3.1-.2-4.7c-.2-1.6-.4-3.2-.7-4.9-1.2-1-2.6-2.1-4-3.1-1.4-1.1-7-7-8.6-8.1,1.8.2,7.5,5.2,9.1,5.2,1.6,0,3.2-.2,4.8-.6,1.6-.3,3.2-.8,4.8-1.4,1.2-.4,1.9-6,1.9-6,0,0,2.3,2.2,3.6,2.9l14.7,28.1c-.3-1.7-.5-3.3-.6-5-.1-1.6-.2-3.2-.2-4.8,0-3.5.3-6.9,1-10.1.7-3.3,1.8-6.4,3.3-9.4,4.5,3.2,8.7.5,14.7.5Z"/>
    <path class="st0" d="M56.9,17.2c-2.7,3.4-4.8,7-6.2,10.9-1.4,3.9-2.1,8-2.1,12.4s.2,4.6.6,7c.4,2.4,1,4.9,1.8,7.5-1.6,0-3.2.2-4.8.5-1.4.2-2.9.5-4.6,1-1.7.5-3.3,1.1-4.9,1.9-.5-1.6-1.2-3.2-1.8-4.6-.7-1.5-1.3-2.9-2-4.2-.7-1.3-1.4-2.6-2.1-3.7-.7-1.2-1.4-2.2-2-3.2-1.5-2.2-3.1-4.3-4.7-6,0,0,0,0,0-.1,0,0,0,0-.1-.1,0,0,0-.1-.1-.2.1,1.6.2,3.3.2,4.8,0,5.8-.7,11.5-2.2,17.1-3.3-1.2-6.7-1.8-10.2-1.8s-2.2,0-3.4.2c-1.1.1-2.3.3-3.4.5,2.7-3.4,4.8-7,6.2-10.8,1.4-3.9,2.1-8.1,2.1-12.6s0-3.1-.2-4.7c-.2-1.6-.4-3.2-.7-4.9-1.2-1-2.6-2.1-4-3.1-1.4-1.1-2.9-2.1-4.6-3.3,1.8.2,3.4.4,5.1.3,1.6,0,3.2-.2,4.8-.6,1.6-.3,3.2-.8,4.8-1.4,1.6-.6,3.3-1.4,5.1-2.2l15.1,27.2c-.3-1.7-.5-3.3-.6-5-.1-1.6-.2-3.2-.2-4.8,0-3.5.3-6.9,1-10.1.7-3.3,1.8-6.4,3.3-9.4,4.5,3.2,9.6,5,15.1,5.4Z"/>
    <path class="st7" d="M81.7,18.8c-.6,4-1.1,7.9-1.4,12-.3,4-.5,8.1-.5,12.2s0,6.2.3,9.2c.2,3,.5,6,.8,9-.8,0-1.6-.1-2.3-.2-.8,0-1.5,0-2.2,0-1.8,0-3.5,0-5.2.3-1.7.2-3.6.5-5.5.9-1-1-3.8-3.8-3.8-3.8,0,0,5-3.9,5.3-6.4.4-3.4.5-7,.5-10.5s-.1-6.1-.4-9.1c-.3-3-.7-6-1.3-9,1.3-.2,2.7-.4,3.9-.7,1.3-.3,2.6-.6,3.8-1,1.3-.4,4.9-7,4.9-7,0,0,1.7,4.7,3.2,4.1Z"/>
    <path class="st5" d="M77.6,14c-.6,4-1.1,7.9-1.4,12-.3,4-.5,8.1-.5,12.2s0,6.2.3,9.2c.2,3,.5,6,.8,9-.8,0-1.6-.1-2.3-.2-.8,0-1.5,0-2.2,0-1.8,0-3.5,0-5.2.3-1.7.2-3.6.5-5.5.9.6-3.3,1.1-6.7,1.4-10.2.4-3.4.5-7,.5-10.5s-.1-6.1-.4-9.1c-.3-3-.7-6-1.3-9,1.3-.2,2.7-.4,3.9-.7,1.3-.3,2.6-.6,3.8-1,1.3-.4,2.6-.8,3.9-1.3,1.3-.5,2.7-1,4.1-1.6Z"/>
    <path class="st4" d="M143.1,22c-2.7,3.4-4.8,7-6.2,10.9s-2.1,8-2.1,12.4.2,4.6.6,7,1,4.9,1.8,7.5c-1.6,0-3.2.2-4.8.5-1.4.2-2.9.5-4.6,1s-3.3,1.1-4.9,1.9c-.8-.9-3.6-3.9-3.6-3.9,0,0,.5-3.6-.2-4.9-.7-1.3-1.4-2.6-2.1-3.7-.7-1.2-1.4-2.2-2-3.2-1.5-2.2-3.1-4.3-4.7-6,0,0,0,0,0-.1,0,0,0,0-.1-.1,0,0,0-.1-.1-.2.1,1.6.2,3.3.2,4.8,0,5.8-.7,11.5-2.2,17.1-3.3-1.2-6.7-1.8-10.2-1.8s-2.2,0-3.4.2c-1.1.1-2.3.3-3.4.5-2-1.6-3.2-2.3-4.6-3.4,5.5-2.8,9.6-4.3,10.8-7.4,1.4-3.9,2.1-8.1,2.1-12.6s0-3.1-.2-4.7c-.2-1.6-.4-3.2-.7-4.9-1.2-1-2.7-1.9-4-3.1-2.3-2.4-5.1-5.9-6.7-7,1.8.2,5.6,4.1,7.2,4.1,1.6,0,3.2-.2,4.8-.6,1.6-.3,3.2-.8,4.8-1.4,1-.4,1.9-5.9,1.9-5.9,0,0,2.3,3.5,4.6,7l13.7,23.9c-.3-1.7-.5-3.3-.6-5-.1-1.6-.2-3.2-.2-4.8,0-3.5.3-6.9,1-10.1.7-3.3,1.8-6.4,3.3-9.4,3.6,2.5,12.2.8,12.2.8,0,0,1.5,2.8,2.9,4.6Z"/>
    <path class="st2" d="M139,17.2c-2.7,3.4-4.8,7-6.2,10.9s-2.1,8-2.1,12.4.2,4.6.6,7,1,4.9,1.8,7.5c-1.6,0-3.2.2-4.8.5-1.4.2-2.9.5-4.6,1s-3.3,1.1-4.9,1.9c-.5-1.6-1.2-3.2-1.8-4.6-.7-1.5-1.3-2.9-2-4.2-.7-1.3-1.4-2.6-2.1-3.7-.7-1.2-1.4-2.2-2-3.2-1.5-2.2-3.1-4.3-4.7-6,0,0,0,0,0-.1,0,0,0,0-.1-.1,0,0,0-.1-.1-.2.1,1.6.2,3.3.2,4.8,0,5.8-.7,11.5-2.2,17.1-3.3-1.2-6.7-1.8-10.2-1.8s-2.2,0-3.4.2c-1.1.1-2.3.3-3.4.5,2.7-3.4,4.8-7,6.2-10.8,1.4-3.9,2.1-8.1,2.1-12.6s0-3.1-.2-4.7c-.2-1.6-.4-3.2-.7-4.9-1.2-1-2.6-2.1-4-3.1-1.4-1.1-2.9-2.1-4.6-3.3,1.8.2,3.4.4,5.1.3,1.6,0,3.2-.2,4.8-.6,1.6-.3,3.2-.8,4.8-1.4,1.6-.6,3.3-1.4,5.1-2.2l15.1,27.2c-.3-1.7-.5-3.3-.6-5-.1-1.6-.2-3.2-.2-4.8,0-3.5.3-6.9,1-10.1.7-3.3,1.8-6.4,3.3-9.4,4.5,3.2,9.6,5,15.1,5.4Z"/>
    <path class="st4" d="M179.6,45.8c-3.3,5.6-7.9,10-13.9,13.2-6,3.2-13.5,5.1-22.6,5.8-2.1-2.2-3.6-3.9-3.6-3.9,0,0,3.5-2.8,3.3-4s-.4-2.5-.8-3.8-.9-2.6-1.6-4c2.7.9,5.3,1.5,7.9,1.9,2.6.4,5.2.6,7.8.6s2.5,0,3.8-.1,2.5-.2,3.7-.4c-.2-2.8-.5-5.6-.8-8.5s-.7-5.8-1.2-8.6-1-5.7-1.5-8.5c-.6-2.8-1.2-5.6-1.9-8.2,2.8,1.1,5.6,2,8.4,2.7,2.2.6,6.6-3.5,6.6-3.5,0,0,1.6,2.7,3.2,4.5-.6,3.4-1,6.8-1.4,10.2-.2,1.8-1.1,10.1-1.1,10.1l4.1-1.9-3.4,5.4s0,2.4,0,3.5c.9-.3,1.7-.7,2.5-1s1.6-.8,2.5-1.2Z"/>
    <path class="st6" d="M175.6,40.9c-3.3,5.6-7.9,10-13.9,13.2-6,3.2-13.5,5.1-22.6,5.8,0-1.5,0-2.8,0-4.1s-.1-2.6-.3-3.8-.4-2.5-.8-3.8-.9-2.6-1.6-4c2.7.9,5.3,1.5,7.9,1.9,2.6.4,5.2.6,7.8.6s2.5,0,3.8-.1,2.5-.2,3.7-.4c-.2-2.8-.5-5.6-.8-8.5-.3-2.9-.7-5.8-1.2-8.6s-1-5.7-1.5-8.5c-.6-2.8-1.2-5.6-1.9-8.2,2.8,1.1,5.6,2,8.4,2.7,2.8.7,5.5,1.1,8.3,1.1h.8c.3,0,.5,0,.8,0-.6,3.4-1,6.8-1.4,10.2-.3,3.4-.5,6.8-.5,10.3s0,2,0,3.2,0,2.4,0,3.5c.9-.3,1.7-.7,2.5-1s1.6-.8,2.5-1.2Z"/>
    <path class="st4" d="M231.4,47.7c-.9.5-1.7,1-2.6,1.4-.9.4-1.8.8-2.7,1.2,1,2,2,3.9,3.1,5.7,1.1,1.8,2.3,3.6,3.5,5.4-3.2,0-6.2.3-9,.9s-5.6,1.6-8.4,3c-1-.9-3.9-3.2-3.9-3.2,0,0,4.2-2.6,4-3.9s-.5-2.8-.9-4.3c-1,.2-2,.3-3,.3-1,0-2,.1-2.9.1-1.7,0-3.3-.1-4.8-.4-1.6-.3-3.1-.7-4.6-1.2-.3,1.8-.7,3.5-1,5.3-.3,1.8-.6,3.6-.9,5.5-1-.5-2-1-3.2-1.4-1-.4-2.2-.7-3.6-1s-3-.4-4.7-.4-2.8.1-4.3.4-3.1.7-4.7,1.3c-2-2.2-4.7-3-4.7-3,0,0,11.2-5,12.3-6.6,1-1.5,2-2.9,2.8-4.3.8-1.3,1.5-2.5,2-3.4-.5-.8-1.1-1.6-1.6-2.4-.5-.9-.9-1.8-1.3-2.8.8.4,1.5.8,2.3,1.1.8.4,1.5.7,2.3,1h0c1-2.2,2.1-4.2,3.2-6.2,1.1-2,2.3-3.9,3.6-5.8-.3-.6-.6-1.4-1-2.2-.4-.8-.8-1.7-1.3-2.6-.5-.9-.9-1.8-1.4-2.7-.5-.9-1-1.7-1.5-2.5,1.9.5,3.8,1,5.7,1.3,2,.3,4,.5,6.1.6,1.1-1.1-2.2-2.9-1-3.8,1.2-.9,10.1-2.7,10.1-2.7,0,0,3.8,11.9,4.8,15,1,3.1,2,6.1,3.2,9.1.8-.4,1.8-5.1,2.2-6.8s.1-.7.1-.7c0,0,6.8,13.8,7.7,15.5ZM210.9,43.9c-1.7-4-3.7-8.2-6-12.5-.7,2.1-1.4,4.2-2.1,6.3-.7,2.2-1.3,4.4-1.9,6.8.5,0,1,0,1.5,0,.5,0,1,0,1.5,0,1.2,0,2.4,0,3.5-.2s2.3-.3,3.5-.6Z"/>
    <path class="st1" d="M227.4,42.9c-.9.5-1.7,1-2.6,1.4-.9.4-1.8.8-2.7,1.2,1,2,2,3.9,3.1,5.7,1.1,1.8,2.3,3.6,3.5,5.4-3.2,0-6.2.3-9,.9s-5.6,1.6-8.4,3c.2-.5.3-1,.3-1.6s0-1.2,0-1.8c0-1.1-.1-2.4-.3-3.7s-.5-2.8-.9-4.3c-1,.2-2,.3-3,.3-1,0-2,.1-2.9.1-1.7,0-3.3-.1-4.8-.4-1.6-.3-3.1-.7-4.6-1.2-.3,1.8-.7,3.5-1,5.3-.3,1.8-.6,3.6-.9,5.5-1-.5-2-1-3.2-1.4-1-.4-2.2-.7-3.6-1s-3-.4-4.7-.4-2.8.1-4.3.4-3.1.7-4.7,1.3c1.5-1.6,2.8-3.2,4.1-4.9,1.3-1.6,2.4-3.2,3.5-4.7,1-1.5,2-2.9,2.8-4.3.8-1.3,1.5-2.5,2-3.4-.5-.8-1.1-1.6-1.6-2.4-.5-.9-.9-1.8-1.3-2.8.8.4,1.5.8,2.3,1.1.8.4,1.5.7,2.3,1h0c1-2.2,2.1-4.2,3.2-6.2,1.1-2,2.3-3.9,3.6-5.8-.3-.6-.6-1.4-1-2.2-.4-.8-.8-1.7-1.3-2.6-.5-.9-.9-1.8-1.4-2.7-.5-.9-1-1.7-1.5-2.5,1.9.5,3.8,1,5.7,1.3,2,.3,4,.5,6.1.6,1.1-1.1,2.2-2,3.4-2.9,1.2-.9,2.4-1.7,3.7-2.4-.5.9-.9,1.7-1.3,2.6-.4.9-.9,1.8-1.3,2.7,1.1,0,2.2-.2,3.3-.3,1.1-.2,2.2-.3,3.3-.6.8,3.2,1.7,6.4,2.7,9.5,1,3.1,2,6.1,3.2,9.1,1-.5,1.9-1.1,2.8-1.8.9-.6,1.8-1.3,2.8-2,.6,2.3,1.2,4.3,2,6.3.7,1.9,1.6,3.8,2.6,5.5ZM206.9,39c-1.7-4-3.7-8.2-6-12.5-.7,2.1-1.4,4.2-2.1,6.3-.7,2.2-1.3,4.4-1.9,6.8.5,0,1,0,1.5,0,.5,0,1,0,1.5,0,1.2,0,2.4,0,3.5-.2s2.3-.3,3.5-.6Z"/>
  </g>
</svg>