<?xml version="1.0" encoding="UTF-8"?>
<svg id="Calque_1" xmlns="http://www.w3.org/2000/svg" version="1.1" xmlns:xlink="http://www.w3.org/1999/xlink" viewBox="0 0 756.8 253.1">
  <!-- Generator: Adobe Illustrator 29.8.3, SVG Export Plug-In . SVG Version: 2.1.1 Build 3)  -->
  <defs>
    <style>
      .st0 {
        fill: url(#Dégradé_sans_nom_956);
      }

      .st0, .st1, .st2, .st3, .st4, .st5, .st6, .st7, .st8, .st9, .st10 {
        stroke: #000;
        stroke-miterlimit: 10;
      }

      .st0, .st1, .st2, .st3, .st4, .st5, .st6, .st8, .st9, .st10 {
        stroke-width: 3.2px;
      }

      .st1 {
        fill: url(#Dégradé_sans_nom_953);
      }

      .st2 {
        fill: url(#Dégradé_sans_nom_959);
      }

      .st3 {
        fill: url(#Dégradé_sans_nom_954);
      }

      .st4 {
        fill: url(#Dégradé_sans_nom_957);
      }

      .st5 {
        fill: url(#Dégradé_sans_nom_95);
      }

      .st6 {
        fill: url(#Dégradé_sans_nom_952);
      }

      .st6, .st11 {
        display: none;
      }

      .st7 {
        fill: #fdb71a;
        stroke-width: 1.7px;
      }

      .st8 {
        fill: url(#Dégradé_sans_nom_955);
      }

      .st9 {
        fill: url(#Dégradé_sans_nom_951);
      }

      .st10 {
        fill: url(#Dégradé_sans_nom_958);
      }
    </style>
    <linearGradient id="Dégradé_sans_nom_95" data-name="Dégradé sans nom 95" x1="46.8" y1="138.4" x2="46.8" y2="62.6" gradientUnits="userSpaceOnUse">
      <stop offset="0" stop-color="#dc0122"/>
      <stop offset=".2" stop-color="#dc0221"/>
      <stop offset=".3" stop-color="#dd0921"/>
      <stop offset=".4" stop-color="#df1521"/>
      <stop offset=".4" stop-color="#e22620"/>
      <stop offset=".5" stop-color="#e63c1f"/>
      <stop offset=".5" stop-color="#eb571e"/>
      <stop offset=".5" stop-color="#f1771c"/>
      <stop offset=".5" stop-color="#f89c1b"/>
      <stop offset=".6" stop-color="#fdb71a"/>
    </linearGradient>
    <linearGradient id="Dégradé_sans_nom_951" data-name="Dégradé sans nom 95" x1="183.8" x2="183.8" xlink:href="#Dégradé_sans_nom_95"/>
    <linearGradient id="Dégradé_sans_nom_952" data-name="Dégradé sans nom 95" x1="257.7" y1="92.3" x2="257.7" y2="59.7" xlink:href="#Dégradé_sans_nom_95"/>
    <linearGradient id="Dégradé_sans_nom_953" data-name="Dégradé sans nom 95" x1="113.1" y1="137.8" x2="113.1" y2="68.3" xlink:href="#Dégradé_sans_nom_95"/>
    <linearGradient id="Dégradé_sans_nom_954" data-name="Dégradé sans nom 95" x1="332.3" y1="207.7" x2="332.3" y2="131.5" xlink:href="#Dégradé_sans_nom_95"/>
    <linearGradient id="Dégradé_sans_nom_955" data-name="Dégradé sans nom 95" x1="406.2" y1="209.8" x2="406.2" y2="131.5" xlink:href="#Dégradé_sans_nom_95"/>
    <linearGradient id="Dégradé_sans_nom_956" data-name="Dégradé sans nom 95" x1="496.4" y1="208.8" x2="496.4" y2="133" xlink:href="#Dégradé_sans_nom_95"/>
    <linearGradient id="Dégradé_sans_nom_957" data-name="Dégradé sans nom 95" x1="580.1" y1="206.1" x2="580.1" y2="132.6" xlink:href="#Dégradé_sans_nom_95"/>
    <linearGradient id="Dégradé_sans_nom_958" data-name="Dégradé sans nom 95" x1="642.8" y1="204.3" x2="642.8" y2="134.8" xlink:href="#Dégradé_sans_nom_95"/>
    <linearGradient id="Dégradé_sans_nom_959" data-name="Dégradé sans nom 95" x1="707.6" y1="206.3" x2="707.6" y2="130.4" xlink:href="#Dégradé_sans_nom_95"/>
  </defs>
  <path d="M54.8,140.8c5.8,1.2,8.9,5.7,8.9,5.7l-1.9-10.7-7,5.1Z"/>
  <path d="M191.8,140.8c5.8,1.2,8.9,5.7,8.9,5.7l-1.9-10.7-7,5.1Z"/>
  <path d="M140.2,138.3c6.1-1.1,11.8,5.6,11.8,5.6l7.5-7.9h-15.5c0-.1,0-.3-3.8,2.2Z"/>
  <path d="M96,80.1c-4,5.3-7.1,11-9.2,17.2-2.1,6.2-3.1,12.8-3.1,20s.3,7.6.8,11.4c.6,3.8,1.4,7.7,2.6,11.7-2.5,0-5,.3-7.7.8-2.3.4-4.8,1-7.6,1.8-2.8.8-5.5,1.9-8.2,3.4-2.1-6.2-4.6-12.1-7.6-17.7-3-5.6-6.4-10.9-10.2-16,.4,10.7-.7,21.7-3.3,33-5.9-2.1-11.4-3.2-16.3-3.2s-3.3.1-5.2.3c-1.9.2-3.9.5-6.1,1,4.1-5.3,7.2-11.1,9.3-17.2,2.1-6.2,3.2-12.9,3.2-20.3s-.1-4.8-.4-7.4c-.3-2.5-.7-5.2-1.2-8-2-1.8-4-3.5-6.1-5.1-2-1.6-4.1-3.2-6.2-4.8,3,.3,5.8.4,8.3.3,2.5-.1,5-.4,7.4-1,2.4-.5,4.8-1.3,7.3-2.3,2.5-1,5.2-2.3,8.1-3.8l20.7,39.1c-.2-1.8-.3-3.6-.4-5.4,0-1.8,0-3.6,0-5.4,0-5.5.6-10.9,1.7-16.2,1.1-5.3,2.9-10.5,5.4-15.7,3.8,2.9,7.6,5.1,11.6,6.6,3.9,1.6,8.1,2.5,12.5,2.9Z"/>
  <path d="M3.2,138.3c5.6,1.4,8.6,2.7,11.9,5.6,2-1.4,15-3.3,10.4-9.5s-18.6-.3-22.3,3.9Z"/>
  <path d="M233,80.1c-4,5.3-7.1,11-9.2,17.2-2.1,6.2-3.1,12.8-3.1,20s.3,7.6.8,11.4c.6,3.8,1.4,7.7,2.6,11.7-2.5,0-5,.3-7.7.8-2.3.4-4.8,1-7.6,1.8-2.8.8-5.5,1.9-8.2,3.4-2.1-6.2-4.6-12.1-7.6-17.7-3-5.6-6.4-10.9-10.2-16,.4,10.7-.7,21.7-3.3,33-5.9-2.1-11.4-3.2-16.3-3.2s-3.3.1-5.2.3c-1.9.2-3.9.5-6.1,1,4.1-5.3,7.2-11.1,9.3-17.2,2.1-6.2,3.2-12.9,3.2-20.3s-.1-4.8-.4-7.4c-.3-2.5-.7-5.2-1.2-8-2-1.8-4-3.5-6.1-5.1-2-1.6-4.1-3.2-6.2-4.8,3,.3,5.8.4,8.3.3,2.5-.1,5-.4,7.4-1,2.4-.5,4.8-1.3,7.3-2.3,2.5-1,5.2-2.3,8.1-3.8l20.7,39.1c-.2-1.8-.3-3.6-.4-5.4,0-1.8,0-3.6,0-5.4,0-5.5.6-10.9,1.7-16.2,1.1-5.3,2.9-10.5,5.4-15.7,3.8,2.9,7.6,5.1,11.6,6.6,3.9,1.6,8.1,2.5,12.5,2.9Z"/>
  <path class="st5" d="M88,72.1c-4,5.3-7.1,11-9.2,17.2-2.1,6.2-3.1,12.8-3.1,20s.3,7.6.8,11.4c.6,3.8,1.4,7.7,2.6,11.7-2.5,0-5,.3-7.7.8-2.3.4-4.8,1-7.6,1.8-2.8.8-5.5,1.9-8.2,3.4-2.1-6.2-4.6-12.1-7.6-17.7-3-5.6-6.4-10.9-10.2-16,.4,10.7-.7,21.7-3.3,33-5.9-2.1-11.4-3.2-16.3-3.2s-3.3.1-5.2.3c-1.9.2-3.9.5-6.1,1,4.1-5.3,7.2-11.1,9.3-17.2,2.1-6.2,3.2-12.9,3.2-20.3s-.1-4.8-.4-7.4c-.3-2.5-.7-5.2-1.2-8-2-1.8-4-3.5-6.1-5.1-2-1.6-4.1-3.2-6.2-4.8,3,.3,5.8.4,8.3.3,2.5-.1,5-.4,7.4-1,2.4-.5,4.8-1.3,7.3-2.3,2.5-1,5.2-2.3,8.1-3.8l20.7,39.1c-.2-1.8-.3-3.6-.4-5.4,0-1.8,0-3.6,0-5.4,0-5.5.6-10.9,1.7-16.2,1.1-5.3,2.9-10.5,5.4-15.7,3.8,2.9,7.6,5.1,11.6,6.6,3.9,1.6,8.1,2.5,12.5,2.9Z"/>
  <path class="st9" d="M225,72.1c-4,5.3-7.1,11-9.2,17.2-2.1,6.2-3.1,12.8-3.1,20s.3,7.6.8,11.4c.6,3.8,1.4,7.7,2.6,11.7-2.5,0-5,.3-7.7.8-2.3.4-4.8,1-7.6,1.8-2.8.8-5.5,1.9-8.2,3.4-2.1-6.2-4.6-12.1-7.6-17.7-3-5.6-6.4-10.9-10.2-16,.4,10.7-.7,21.7-3.3,33-5.9-2.1-11.4-3.2-16.3-3.2s-3.3.1-5.2.3c-1.9.2-3.9.5-6.1,1,4.1-5.3,7.2-11.1,9.3-17.2,2.1-6.2,3.2-12.9,3.2-20.3s-.1-4.8-.4-7.4c-.3-2.5-.7-5.2-1.2-8-2-1.8-4-3.5-6.1-5.1-2-1.6-4.1-3.2-6.2-4.8,3,.3,5.8.4,8.3.3,2.5-.1,5-.4,7.4-1,2.4-.5,4.8-1.3,7.3-2.3,2.5-1,5.2-2.3,8.1-3.8l20.7,39.1c-.2-1.8-.3-3.6-.4-5.4,0-1.8,0-3.6,0-5.4,0-5.5.6-10.9,1.7-16.2,1.1-5.3,2.9-10.5,5.4-15.7,3.8,2.9,7.6,5.1,11.6,6.6,3.9,1.6,8.1,2.5,12.5,2.9Z"/>
  <path class="st11" d="M278.6,64.7c-1.2,5.2,2.5,9.8,2.5,9.8l-13.6,2.6-1.1-5.8,12.2-6.7Z"/>
  <path class="st11" d="M250.3,95.1c.4-3.5-10.4-6.6-10.4-6.6l10.9-3.9,2.5,8.1-2.9,2.4"/>
  <path class="st11" d="M281.2,74.6c-1.9,1.3-3.8,2.9-5.6,4.8-1.9,1.9-3.7,3.9-5.3,6.2-1.7,2.3-3.2,4.6-4.7,7.1-1.4,2.5-2.6,5-3.6,7.6-1.3-1.2-2.9-2.3-4.9-3.3-1.9-1-6.8-1.8-6.8-1.8,0,0,4.5-8.4,6.3-12.9,1.8-4.5,3.1-9.4,4.1-14.5,1,.8,2.3,1.6,4,2.5,1.6.8,3.4,1.6,5.2,2.3,1.9.7,3.8,1.2,5.8,1.6,2,.4,3.8.6,5.5.5Z"/>
  <path class="st6" d="M273.2,66.6c-1.9,1.3-3.8,2.9-5.6,4.8-1.9,1.9-3.7,3.9-5.3,6.2-1.7,2.3-3.2,4.6-4.7,7.1-1.4,2.5-2.6,5-3.6,7.6-1.3-1.2-2.9-2.3-4.9-3.3-1.9-1-4.2-1.6-6.8-1.8,2.4-4.1,4.5-8.4,6.3-12.9,1.8-4.5,3.1-9.4,4.1-14.5,1,.8,2.3,1.6,4,2.5,1.6.8,3.4,1.6,5.2,2.3,1.9.7,3.8,1.2,5.8,1.6,2,.4,3.8.6,5.5.5Z"/>
  <g id="Calque_5">
    <polyline points="126.3 68.3 134.3 76.3 124.2 87.4 126.3 68.3"/>
    <path d="M107.9,145.8c-1.6-2.3-7.4-5.1-10-5.9l4.1-1.5,7.3-.8-1.4,8.3Z"/>
    <path d="M134.3,76.3c-.9,6.3-1.6,12.6-2.1,19.1-.5,6.4-.7,12.9-.7,19.5s.1,9.8.4,14.7.6,9.6,1.2,14.3c-1.2,0-2.4,0-3.7-.2-1.2-.1-2.6-.2-4.1-.2-2.7,0-5.4.2-8.3.6-2.8.4-5.9.9-9.1,1.6.9-5.3,1.6-10.8,2.2-16.3.6-5.6.8-11.2.8-17s-.2-9.6-.6-14.4c-.4-4.8-1.1-9.6-2-14.4,2.1-.3,4.2-.6,6.2-1,2-.4,4.1-1,6.2-1.6,2.1-.6,4.2-1.3,6.4-2.1,2.2-.8,4.6-1.6,7.1-2.6Z"/>
    <path class="st1" d="M126.3,68.3c-.9,6.3-1.6,12.6-2.1,19.1-.5,6.4-.7,12.9-.7,19.5s.1,9.8.4,14.7.6,9.6,1.2,14.3c-1.2,0-2.4,0-3.7-.2-1.2-.1-2.6-.2-4.1-.2-2.7,0-5.4.2-8.3.6-2.8.4-5.9.9-9.1,1.6.9-5.3,1.6-10.8,2.2-16.3.6-5.6.8-11.2.8-17s-.2-9.6-.6-14.4c-.4-4.8-1.1-9.6-2-14.4,2.1-.3,4.2-.6,6.2-1,2-.4,4.1-1,6.2-1.6,2.1-.6,4.2-1.3,6.4-2.1,2.2-.8,4.6-1.6,7.1-2.6Z"/>
  </g>
  <g id="Layer_34">
    <polygon class="st7" points="280.4 98.6 238.6 134.3 238.4 244.2 307 156.5 293.5 103.1 317.6 43.7 301.3 38.1 280.4 98.6"/>
    <path d="M236.9,252.9c1.3.4,2.9,0,3.8-1.2l66.3-95.3c.4-.6.7-1.5.6-2.5l-8.2-46.7,18.3-55.6c9-1.9,16.5-8.2,19.5-17.4,4.5-13.6-3-28.5-16.7-33-6.6-2.2-14-1.4-19.9,1.5-5.9,2.9-10.9,8.4-13.4,15.1-2.5,6.7-1.3,14.2,1.7,20s2.4,3.9,4,5.7l-18.6,55.7-34.7,32.7c-.4.6-1.2,1.3-1,2.3l-4,115.7c-.1,1.2.9,2.5,2.2,2.9ZM300.8,153.7l-52.6,75.7h0l40.3-121.1,4.4,1.5,7.9,44ZM295.6,56.1l12.4,4.1-2,6.1-12.4-4.1,2-6.1ZM318.6,28.1c-.6,1.8-1.8,3.1-3.2,3.8s-3.2.9-5,.3c-1.8-.6-3.1-1.7-3.8-3.2s-.9-3.2-.3-5c1.2-3.5,5-5.4,8.2-4.1,1.8.6,3.1,1.7,3.8,3.2.7,1.5.9,3.2.3,5ZM291.2,69.3l12.4,4.1-2,6.1-12.4-4.1,2-6.1ZM286.8,82.4l12.4,4.1-2,6.1-12.4-4.1,2-6.1ZM245.1,135.4l32.9-31.1,4.4,1.5h0l-40.5,121.5h0l3.2-91.9Z"/>
  </g>
  <polygon points="304.2 209.8 313.8 215.7 315.9 207.7 305.8 207.7 304.2 209.8"/>
  <polygon points="358 207.7 370.9 212.3 377.7 206.3 380.8 204 374.9 202.2 358 207.7"/>
  <path d="M418.2,213.1c4.6-.2,9,3.2,10.9,4.7l4.8-8.9-4.4-3.3-11.2,7.5Z"/>
  <path d="M424.6,136.3c3.3,7.7,5.6,8.9,6.8,9.9l-5.6,2.2-.6-8.8"/>
  <path d="M441.5,158.3c1,2.2,2.3,4.7,4.2,7.3,1,1.3,1.9,2.5,2.9,3.6l-4,4.7c-1.1-1.4-5.3-6.7-4-12.9.2-.8.5-1.7.9-2.6Z"/>
  <path d="M470.1,216.8s4.7-11.6,4.7-11.6h0c-12.4,3.4-13.5,4.8-15.2,6.3,3.3.8,9.8,4.2,10.5,5.3Z"/>
  <polyline points="507.1 208.2 515.1 216.2 515.1 202.2 507.1 208.2"/>
  <path d="M544.4,208.4c3.8-.5,6.8,3,9.3,5.7l4.5-11.8-15,6.4"/>
  <polyline points="656 134.8 664 142.8 653.9 153.9 656 134.8"/>
  <path d="M637.7,212.3c-1.6-2.3-7.4-5.1-10-5.9l4.1-1.5,7.3-.8-1.4,8.3Z"/>
  <path d="M663.9,206.1c2.2-.1,11,3.7,11.9,5.6l6.1-8.2-14.1.2"/>
  <path d="M715.6,208.5c2.9,1,6.8,3.6,8.9,5.7l.2-11.4c-.8,0-8.2,3.4-8.2,3.4l-.9,2.3Z"/>
  <path d="M751.8,138.5c.1,2.9,2.1,8.1,4.9,9.4l-12.5-1.2,7.6-8.2Z"/>
  <line x1="744.2" y1="145.1" x2="748.8" y2="139.9"/>
  <path d="M536.5,143.8c-.2,5.3,4.2,11.8,5.9,11.5l-6.7,6.2-2.8-9.9,3.6-7.7Z"/>
  <path d="M371,185.4c-2.5,4.4-5.6,8.4-9.1,11.9-3.6,3.5-7.7,6.6-12.5,9.1s-10.1,4.6-16,6.1c-5.9,1.5-12.5,2.6-19.6,3.1,0-2.4,0-4.6,0-6.7,0-2.1-.2-4.2-.4-6.2-.3-2-.7-4.1-1.2-6.2-.6-2.1-1.4-4.3-2.5-6.6,4.6,1.6,8.9,2.7,13,3.4,4.1.7,8.1,1.1,11.9,1.1s3.4,0,5.2-.2c1.7-.1,3.4-.3,5.2-.5-.6-9.2-1.6-18.4-2.9-27.7-1.4-9.2-3.2-18.1-5.4-26.7,4.8,1.9,9.3,3.5,13.7,4.7,4.4,1.2,8.6,1.8,12.7,1.8h3.4c-.5,2.7-.9,5.5-1.2,8.4s-.6,5.9-.9,8.9c-.3,3-.5,6-.6,9-.1,3-.2,5.8-.2,8.6s0,2.6,0,3.9c0,1.3,0,2.6.2,3.8,1.2-.5,2.4-1,3.7-1.5,1.3-.6,2.5-1.1,3.7-1.7Z"/>
  <path d="M455.7,188.9c-1.4.8-2.7,1.5-4.1,2.2-1.3.7-2.7,1.4-4.1,2,3,6.3,6.3,12.1,9.9,17.7-5,0-9.9.6-14.5,1.7-4.6,1.1-9.2,2.9-14,5.3.4-1,.6-2,.7-3,0-1,.1-2.1.1-3.2,0-1.8-.1-3.8-.4-6-.3-2.2-.7-4.4-1.3-6.8-1.4.2-2.7.4-4.1.5-1.4,0-2.7.1-4,.1-2.3,0-4.6-.2-6.8-.5-2.2-.3-4.4-.9-6.4-1.6-.6,2.8-1.1,5.6-1.5,8.6-.5,2.9-.9,5.9-1.4,9-1.7-1-3.5-1.9-5.5-2.7-1.7-.6-3.7-1.2-5.9-1.8-2.2-.6-4.6-.8-7.1-.8s-4.4.2-6.7.6-5,1.1-7.9,2c2.2-2.5,4.3-5.1,6.2-7.7,1.9-2.6,3.7-5.1,5.3-7.6s3-4.7,4.3-6.8c1.3-2.1,2.3-4,3.1-5.6-.9-1.3-1.8-2.7-2.6-4.2-.8-1.5-1.6-3.1-2.3-4.9,1.3.8,2.6,1.4,3.9,2.1s2.5,1.2,3.8,1.7c1.5-3.1,3.1-6.1,4.7-9.2,1.7-3.1,3.4-6.1,5.3-9-.4-1.1-.9-2.3-1.5-3.7-.6-1.4-1.3-2.8-2-4.3-.7-1.5-1.4-3-2.2-4.4s-1.5-2.8-2.3-4.1c3.1,1,6.3,1.8,9.4,2.3,3.1.6,6.3.9,9.4,1.1,1.8-1.7,3.7-3.2,5.6-4.7s4-2.7,6.2-3.8c-.7,1.3-1.4,2.7-2,4.1-.7,1.4-1.3,2.8-1.9,4.2,1.6-.2,3.3-.4,4.9-.6,1.7-.2,3.4-.6,5.2-1,1.2,5.1,2.5,10,4,14.9,1.4,4.8,3,9.6,4.6,14.2,1.4-.9,2.9-1.9,4.3-2.9,1.4-1,2.8-2.1,4.2-3.2,1,4,2.1,7.6,3.3,10.9,1.2,3.3,2.5,6.3,3.9,8.9ZM423,182.9c-1.1-2.9-2.4-5.9-3.7-8.9-1.4-3-2.8-6-4.4-9.1-6.4,4.1-7.4,10.7-5.3,19,.6,0,1.2.1,1.7.1h1.7c1.7,0,3.3,0,5-.3,1.6-.2,3.3-.5,5-.9Z"/>
  <path d="M542.6,207.2c-4.8.4-9.4,1.4-13.8,2.9-4.5,1.5-9,3.5-13.6,6.1-3.5-3.6-6-4.5-9.2-5.2-1.3.3,1.5-16.7.1-16.5-1.3.2-2.7.3-4.2.3h-1.6c-.5,0-1.1,0-1.6-.1,0,5.8.3,11.7.6,17.5-1-.2-2.1-.3-3.1-.4-1,0-2,0-3,0-3.2,0-6.8.4-10.6,1.3-3.8.8-8,2.1-12.4,3.8,1.7-5.2,3.1-10.4,4.3-15.5,1.2-5.1,2.1-10.3,2.8-15.5-2.2-1.7-4.1-3.4-5.7-5-1.6-1.6-2.8-3-3.6-4.1,1.6.5,3.2,1,5,1.5s3.4.8,5.2,1.2c.4-4.3.6-8.6.6-13v-2.1c-1.8.6-3.5,1.3-5.2,2-1.7.7-2.1,2.2-3.9,3.1,1-3.8.2-8,.2-11.2s-.3-5.2-.9-7.6c-.6-2.4-1.4-4.6-2.5-6.8,7-1.1,13.2-1.9,18.6-2.3,5.4-.4,10.2-.6,14.4-.6s4.2,0,6.7.1c2.5,0,5.1.3,7.8.7,2.7.4,5.3.9,8,1.6,2.7.7,5.1,1.7,7.3,2.9,2.2,1.2,4.1,2.8,5.7,4.7,1.6,1.9,2.6,4.1,3.2,6.8.7-.4,1.5-.8,2.2-1.2s1.4-.9,2.2-1.4c-.4,2.7-1,5.4-2,8.1-.9,2.7-2,5.3-3.4,7.8-1.4,2.5-2.9,4.9-4.7,7.2-1.8,2.3-3.7,4.3-5.8,6.3,4.7,8.6,13.6,17.6,16,22.6ZM509.5,158.2c-1.3,0-2.8,0-4.6.3-1.8.2-3.7.4-5.9.6,0,3.6-.2,7.2-.3,10.8,0,3.6-.1,7.2-.1,10.7,2-.3,3.8-.9,5.5-1.7,1.7-.8,3.3-1.8,4.6-3,1.3-1.2,2.4-2.8,3.3-4.5.9-1.8,1.4-3.9,1.7-6.3,1.2-.2,2.5-.5,3.8-.7,1.3-.2,2.6-.5,3.9-.8,0,0,0,0,0,0h0c0,0,0,0,0,0-.7-.8-1.3-1.6-2-2.2-.7-.7-1.5-1.2-2.4-1.7-.9-.5-2-.8-3.2-1-1.2-.2-2.6-.3-4.3-.3Z"/>
  <path d="M625.4,172.8c0,.6.1,1.3.1,1.9,0,.6,0,1.3,0,1.9,0,3.4-.5,6.6-1.5,9.7-1,3.1-2.4,6.1-4.2,8.8-1.8,2.7-3.9,5.3-6.4,7.5-2.5,2.3-5.2,4.2-8.1,5.9s-6.1,2.9-9.4,3.8-6.7,1.4-10.2,1.4-5.1-.3-7.7-.9c-2.6-.6-5.1-1.7-7.5-3.3-2.5.3-5.2.9-8.1,1.8-2.8.8-5.8,1.8-8.9,2.9,2.6-8,4.6-16,6.1-24.1,1.5-8.1,2.3-16.3,2.4-24.5-2.1,1.1-4.2,2.4-6.3,4.1.2-1.3.3-2.5.4-3.4,0-1,.1-1.8.1-2.4,0-7.6-1.9-14.1-5.7-19.7,1.1-.4,2.4-.7,3.9-1,1.5-.3,3.1-.6,4.8-.8,1.7-.3,3.4-.5,5.2-.7,1.8-.2,3.5-.3,5.2-.5,1.7-.1,3.2-.2,4.7-.3s2.7,0,3.8,0c6.5,0,12.5.8,17.8,2.4,5.4,1.6,9.9,3.8,13.7,6.6,3.8,2.8,6.7,6.1,8.8,9.8,2.1,3.7,3.1,7.7,3.1,12s0,.9,0,1.3c0,.4,0,.8,0,1.2,1.3-.3,2.5-.8,3.8-1.3ZM603.8,176.5c-.7-2.7-1.9-5.1-3.6-6.9-1.6-1.9-3.5-3.4-5.5-4.5-2-1.2-4.1-2-6.3-2.6-2.2-.6-4.2-1-6-1.2-.2,7.3-.3,14.6-.3,21.9s0,6.5,0,9.7c0,3.3.1,6.5.2,9.8,2.5-.9,4.9-2.2,7.1-3.7,2.2-1.5,4.1-3.4,5.6-5.6,1.5-2.2,2.7-4.7,3.4-7.5.7-2.8.9-5.9.6-9.3h2.1c.8,0,1.6,0,2.4-.1Z"/>
  <path d="M664,142.8c-.9,6.3-1.6,12.6-2.1,19.1-.5,6.4-.7,12.9-.7,19.5s.1,9.8.4,14.7.6,9.6,1.2,14.3c-1.2,0-2.4,0-3.7-.2-1.2-.1-2.6-.2-4.1-.2-2.7,0-5.4.2-8.3.6-2.8.4-5.9.9-9.1,1.6.9-5.3,1.6-10.8,2.2-16.3.6-5.6.8-11.2.8-17s-.2-9.6-.6-14.4c-.4-4.8-1.1-9.6-2-14.4,2.1-.3,4.2-.6,6.2-1,2-.4,4.1-1,6.2-1.6,2.1-.6,4.2-1.3,6.4-2.1,2.2-.8,4.6-1.6,7.1-2.6Z"/>
  <path d="M756.8,147.9c-4,5.3-7.1,11-9.2,17.2-2.1,6.2-3.1,12.8-3.1,20s.3,7.6.8,11.4c.6,3.8,1.4,7.7,2.6,11.7-2.5,0-5,.3-7.7.8-2.3.4-4.8,1-7.6,1.8-2.8.8-5.5,1.9-8.2,3.4-2.1-6.2-4.6-12.1-7.6-17.7-3-5.6-6.4-10.9-10.2-16,.4,10.7-.7,21.7-3.3,33-5.9-2.1-11.4-3.2-16.3-3.2s-3.3.1-5.2.3c-1.9.2-3.9.5-6.1,1,4.1-5.3,7.2-11.1,9.3-17.2,2.1-6.2,3.2-12.9,3.2-20.3s-.1-4.8-.4-7.4c-.3-2.5-.7-5.2-1.2-8-2-1.8-4-3.5-6.1-5.1-2-1.6-4.1-3.2-6.2-4.8,3,.3,5.8.4,8.3.3,2.5-.1,5-.4,7.4-1,2.4-.5,8-16.3,8-16.3,1.4.9,3.3,1.4,3.3,1.4l24.7,47.8c-.2-1.8-.3-3.6-.4-5.4,0-1.8,0-3.6,0-5.4,0-5.5.6-10.9,1.7-16.2,1.1-5.3,2.9-10.5,5.4-15.7,3.8,2.9,7.6,5.1,11.6,6.6,3.9,1.6,8.1,2.5,12.5,2.9Z"/>
  <path class="st3" d="M363,177.4c-2.5,4.4-5.6,8.4-9.1,11.9-3.6,3.5-7.7,6.6-12.5,9.1s-10.1,4.6-16,6.1c-5.9,1.5-12.5,2.6-19.6,3.1,0-2.4,0-4.6,0-6.7,0-2.1-.2-4.2-.4-6.2-.3-2-.7-4.1-1.2-6.2-.6-2.1-1.4-4.3-2.5-6.6,4.6,1.6,8.9,2.7,13,3.4,4.1.7,8.1,1.1,11.9,1.1s3.4,0,5.2-.2c1.7-.1,3.4-.3,5.2-.5-.6-9.2-1.6-18.4-2.9-27.7-1.4-9.2-3.2-18.1-5.4-26.7,4.8,1.9,9.3,3.5,13.7,4.7,4.4,1.2,8.6,1.8,12.7,1.8h3.4c-.5,2.7-.9,5.5-1.2,8.4s-.6,5.9-.9,8.9c-.3,3-.5,6-.6,9-.1,3-.2,5.8-.2,8.6s0,2.6,0,3.9c0,1.3,0,2.6.2,3.8,1.2-.5,2.4-1,3.7-1.5,1.3-.6,2.5-1.1,3.7-1.7Z"/>
  <path class="st8" d="M447.7,180.9c-1.4.8-2.7,1.5-4.1,2.2-1.3.7-2.7,1.4-4.1,2,3,6.3,6.3,12.1,9.9,17.7-5,0-9.9.6-14.5,1.7-4.6,1.1-9.2,2.9-14,5.3.4-1,.6-2,.7-3,0-1,.1-2.1.1-3.2,0-1.8-.1-3.8-.4-6-.3-2.2-.7-4.4-1.3-6.8-1.4.2-2.7.4-4.1.5-1.4,0-2.7.1-4,.1-2.3,0-4.6-.2-6.8-.5-2.2-.3-4.4-.9-6.4-1.6-.6,2.8-1.1,5.6-1.5,8.6-.5,2.9-.9,5.9-1.4,9-1.7-1-3.5-1.9-5.5-2.7-1.7-.6-3.7-1.2-5.9-1.8-2.2-.6-4.6-.8-7.1-.8s-4.4.2-6.7.6-5,1.1-7.9,2c2.2-2.5,4.3-5.1,6.2-7.7,1.9-2.6,3.7-5.1,5.3-7.6s3-4.7,4.3-6.8c1.3-2.1,2.3-4,3.1-5.6-.9-1.3-1.8-2.7-2.6-4.2-.8-1.5-1.6-3.1-2.3-4.9,1.3.8,2.6,1.4,3.9,2.1s2.5,1.2,3.8,1.7c1.5-3.1,3.1-6.1,4.7-9.2,1.7-3.1,3.4-6.1,5.3-9-.4-1.1-.9-2.3-1.5-3.7-.6-1.4-1.3-2.8-2-4.3-.7-1.5-1.4-3-2.2-4.4s-1.5-2.8-2.3-4.1c3.1,1,6.3,1.8,9.4,2.3,3.1.6,6.3.9,9.4,1.1,1.8-1.7,3.7-3.2,5.6-4.7s4-2.7,6.2-3.8c-.7,1.3-1.4,2.7-2,4.1-.7,1.4-1.3,2.8-1.9,4.2,1.6-.2,3.3-.4,4.9-.6,1.7-.2,3.4-.6,5.2-1,1.2,5.1,2.5,10,4,14.9,1.4,4.8,3,9.6,4.6,14.2,1.4-.9,2.9-1.9,4.3-2.9,1.4-1,2.8-2.1,4.2-3.2,1,4,2.1,7.6,3.3,10.9,1.2,3.3,2.5,6.3,3.9,8.9ZM415,174.9c-1.1-2.9-2.4-5.9-3.7-8.9-1.4-3-2.8-6-4.4-9.1-1.9,6-3.7,12.3-5.3,19,.6,0,1.2.1,1.7.1h1.7c1.7,0,3.3,0,5-.3,1.6-.2,3.3-.5,5-.9Z"/>
  <path class="st0" d="M534.6,199.2c-4.8.4-9.4,1.4-13.8,2.9-4.5,1.5-9,3.5-13.6,6.1-.7-8.1-2.4-15.6-5.1-22.4-1.3.3-2.6.6-4,.8-1.3.2-2.7.3-4.2.3h-1.6c-.5,0-1.1,0-1.6-.1,0,5.8.3,11.7.6,17.5-1-.2-2.1-.3-3.1-.4-1,0-2,0-3,0-3.2,0-6.8.4-10.6,1.3-3.8.8-8,2.1-12.4,3.8,1.7-5.2,3.1-10.4,4.3-15.5,1.2-5.1,2.1-10.3,2.8-15.5-2.2-1.7-4.1-3.4-5.7-5-1.6-1.6-2.8-3-3.6-4.1,1.6.5,3.2,1,5,1.5s3.4.8,5.2,1.2c.4-4.3.6-8.6.6-13v-2.1c-1.8.6-3.5,1.3-5.2,2-1.7.7-3.5,1.5-5.2,2.4,1-3.8,1.5-7.2,1.5-10.5s-.3-5.2-.9-7.6c-.6-2.4-1.4-4.6-2.5-6.8,7-1.1,13.2-1.9,18.6-2.3,5.4-.4,10.2-.6,14.4-.6s4.2,0,6.7.1c2.5,0,5.1.3,7.8.7,2.7.4,5.3.9,8,1.6,2.7.7,5.1,1.7,7.3,2.9,2.2,1.2,4.1,2.8,5.7,4.7,1.6,1.9,2.6,4.1,3.2,6.8.7-.4,1.5-.8,2.2-1.2s1.4-.9,2.2-1.4c-.4,2.7-1,5.4-2,8.1-.9,2.7-2,5.3-3.4,7.8-1.4,2.5-2.9,4.9-4.7,7.2-1.8,2.3-3.7,4.3-5.8,6.3,4.7,8.6,10,16.1,16,22.6ZM501.5,150.2c-1.3,0-2.8,0-4.6.3-1.8.2-3.7.4-5.9.6,0,3.6-.2,7.2-.3,10.8,0,3.6-.1,7.2-.1,10.7,2-.3,3.8-.9,5.5-1.7,1.7-.8,3.3-1.8,4.6-3,1.3-1.2,2.4-2.8,3.3-4.5.9-1.8,1.4-3.9,1.7-6.3,1.2-.2,2.5-.5,3.8-.7,1.3-.2,2.6-.5,3.9-.8,0,0,0,0,0,0h0c0,0,0,0,0,0-.7-.8-1.3-1.6-2-2.2-.7-.7-1.5-1.2-2.4-1.7-.9-.5-2-.8-3.2-1-1.2-.2-2.6-.3-4.3-.3Z"/>
  <path class="st4" d="M617.4,164.8c0,.6.1,1.3.1,1.9,0,.6,0,1.3,0,1.9,0,3.4-.5,6.6-1.5,9.7-1,3.1-2.4,6.1-4.2,8.8-1.8,2.7-3.9,5.3-6.4,7.5-2.5,2.3-5.2,4.2-8.1,5.9s-6.1,2.9-9.4,3.8-6.7,1.4-10.2,1.4-5.1-.3-7.7-.9c-2.6-.6-5.1-1.7-7.5-3.3-2.5.3-5.2.9-8.1,1.8-2.8.8-5.8,1.8-8.9,2.9,2.6-8,4.6-16,6.1-24.1,1.5-8.1,2.3-16.3,2.4-24.5-2.1,1.1-4.2,2.4-6.3,4.1.2-1.3.3-2.5.4-3.4,0-1,.1-1.8.1-2.4,0-7.6-1.9-14.1-5.7-19.7,1.1-.4,2.4-.7,3.9-1,1.5-.3,3.1-.6,4.8-.8,1.7-.3,3.4-.5,5.2-.7,1.8-.2,3.5-.3,5.2-.5,1.7-.1,3.2-.2,4.7-.3s2.7,0,3.8,0c6.5,0,12.5.8,17.8,2.4,5.4,1.6,9.9,3.8,13.7,6.6,3.8,2.8,6.7,6.1,8.8,9.8,2.1,3.7,3.1,7.7,3.1,12s0,.9,0,1.3c0,.4,0,.8,0,1.2,1.3-.3,2.5-.8,3.8-1.3ZM595.8,168.5c-.7-2.7-1.9-5.1-3.6-6.9-1.6-1.9-3.5-3.4-5.5-4.5-2-1.2-4.1-2-6.3-2.6-2.2-.6-4.2-1-6-1.2-.2,7.3-.3,14.6-.3,21.9s0,6.5,0,9.7c0,3.3.1,6.5.2,9.8,2.5-.9,4.9-2.2,7.1-3.7,2.2-1.5,4.1-3.4,5.6-5.6,1.5-2.2,2.7-4.7,3.4-7.5.7-2.8.9-5.9.6-9.3h2.1c.8,0,1.6,0,2.4-.1Z"/>
  <path class="st10" d="M656,134.8c-.9,6.3-1.6,12.6-2.1,19.1-.5,6.4-.7,12.9-.7,19.5s.1,9.8.4,14.7.6,9.6,1.2,14.3c-1.2,0-2.4,0-3.7-.2-1.2-.1-2.6-.2-4.1-.2-2.7,0-5.4.2-8.3.6-2.8.4-5.9.9-9.1,1.6.9-5.3,1.6-10.8,2.2-16.3.6-5.6.8-11.2.8-17s-.2-9.6-.6-14.4c-.4-4.8-1.1-9.6-2-14.4,2.1-.3,4.2-.6,6.2-1,2-.4,4.1-1,6.2-1.6,2.1-.6,4.2-1.3,6.4-2.1,2.2-.8,4.6-1.6,7.1-2.6Z"/>
  <path class="st2" d="M748.8,139.9c-4,5.3-7.1,11-9.2,17.2-2.1,6.2-3.1,12.8-3.1,20s.3,7.6.8,11.4c.6,3.8,1.4,7.7,2.6,11.7-2.5,0-5,.3-7.7.8-2.3.4-4.8,1-7.6,1.8-2.8.8-5.5,1.9-8.2,3.4-2.1-6.2-4.6-12.1-7.6-17.7-3-5.6-6.4-10.9-10.2-16,.4,10.7-.7,21.7-3.3,33-5.9-2.1-11.4-3.2-16.3-3.2s-3.3.1-5.2.3c-1.9.2-3.9.5-6.1,1,4.1-5.3,7.2-11.1,9.3-17.2,2.1-6.2,3.2-12.9,3.2-20.3s-.1-4.8-.4-7.4c-.3-2.5-.7-5.2-1.2-8-2-1.8-4-3.5-6.1-5.1-2-1.6-4.1-3.2-6.2-4.8,3,.3,5.8.4,8.3.3,2.5-.1,5-.4,7.4-1,2.4-.5,4.8-1.3,7.3-2.3,2.5-1,5.2-2.3,8.1-3.8l20.7,39.1c-.2-1.8-.3-3.6-.4-5.4,0-1.8,0-3.6,0-5.4,0-5.5.6-10.9,1.7-16.2,1.1-5.3,2.9-10.5,5.4-15.7,3.8,2.9,7.6,5.1,11.6,6.6,3.9,1.6,8.1,2.5,12.5,2.9Z"/>
  <path d="M360.1,136.5c.3,1,3.7,8,6.1,9.6l-9.3,6,1.3-14,1.9-1.6Z"/>
</svg>