<?xml version="1.0" encoding="utf-8"?>
<!-- Generator: Adobe Illustrator 29.8.3, SVG Export Plug-In . SVG Version: 9.03 Build 0)  -->
<svg version="1.1" id="Calque_4" xmlns="http://www.w3.org/2000/svg" xmlns:xlink="http://www.w3.org/1999/xlink" x="0px" y="0px"
	 viewBox="0 0 756.8 253.1" style="enable-background:new 0 0 756.8 253.1;" xml:space="preserve">
<style type="text/css">
	.Ombre_x0020_portée{fill:none;}
	.Néon_x0020_bleu_x0020_épais{fill:none;stroke:#0073BC;stroke-width:10;stroke-linecap:round;stroke-linejoin:round;}
	.Turquoise_x0020_lumineux{fill:url(#SVGID_1_);stroke:#FFFFFF;stroke-width:0.25;stroke-miterlimit:1;}
	
		.Ton_x0020_clair_x0020_noir{fill:url(#SVGID_00000026141867817484159850000000220768149566518463_);stroke:#FFFFFF;stroke-width:0.3629;stroke-miterlimit:1;}
	.Croquemitaine_GS{fill-rule:evenodd;clip-rule:evenodd;fill:#FFDD00;}
	
		.st0{fill:url(#SVGID_00000088826995486703086070000015765238121649983679_);stroke:#000000;stroke-width:3.2269;stroke-miterlimit:10;}
	
		.st1{fill:url(#SVGID_00000056410667846706322740000009862126981644963494_);stroke:#000000;stroke-width:3.2269;stroke-miterlimit:10;}
	.st2{display:none;}
	
		.st3{display:none;fill:url(#SVGID_00000044869593620314870980000009601970546482494632_);stroke:#000000;stroke-width:3.2269;stroke-miterlimit:10;}
	
		.st4{fill:url(#SVGID_00000115483503723273308330000013153438559770629293_);stroke:#000000;stroke-width:3.2269;stroke-miterlimit:10;}
	.st5{fill:#FDB71A;stroke:#000000;stroke-width:1.7283;stroke-miterlimit:10;}
	
		.st6{fill:url(#SVGID_00000023240831532508250320000007486938751122932671_);stroke:#000000;stroke-width:3.2269;stroke-miterlimit:10;}
	
		.st7{fill:url(#SVGID_00000060727769781937176260000003211301740785896078_);stroke:#000000;stroke-width:3.2269;stroke-miterlimit:10;}
	
		.st8{fill:url(#SVGID_00000173856744583836697100000004044021052640557752_);stroke:#000000;stroke-width:3.2269;stroke-miterlimit:10;}
	
		.st9{fill:url(#SVGID_00000071534523562286430430000004853282339327315636_);stroke:#000000;stroke-width:3.2269;stroke-miterlimit:10;}
	
		.st10{fill:url(#SVGID_00000093148252732319511500000014615908216153912218_);stroke:#000000;stroke-width:3.2269;stroke-miterlimit:10;}
	
		.st11{fill:url(#SVGID_00000088837480113857239000000010801932593961938850_);stroke:#000000;stroke-width:3.2269;stroke-miterlimit:10;}
</style>
<linearGradient id="SVGID_1_" gradientUnits="userSpaceOnUse" x1="53.9827" y1="-79.8291" x2="53.9827" y2="-80.8291">
	<stop  offset="0" style="stop-color:#1D59F4"/>
	<stop  offset="0.618" style="stop-color:#2D65EE"/>
	<stop  offset="0.6292" style="stop-color:#3864F3"/>
	<stop  offset="0.9831" style="stop-color:#00DDFC"/>
</linearGradient>
<linearGradient id="SVGID_00000170968760646215095140000011535460950011408523_" gradientUnits="userSpaceOnUse" x1="53.9827" y1="-79.8291" x2="53.9827" y2="-80.8291">
	<stop  offset="0" style="stop-color:#060606"/>
	<stop  offset="0.618" style="stop-color:#000000"/>
	<stop  offset="0.6292" style="stop-color:#000000"/>
	<stop  offset="0.9831" style="stop-color:#000000"/>
</linearGradient>
<path d="M54.8,140.8c5.8,1.2,8.9,5.7,8.9,5.7l-1.9-10.7L54.8,140.8z"/>
<path d="M191.8,140.8c5.8,1.2,8.9,5.7,8.9,5.7l-1.9-10.7L191.8,140.8z"/>
<path d="M140.2,138.3c6.1-1.1,11.8,5.6,11.8,5.6l7.5-7.9l-15.5-0.1C144,135.9,144,135.7,140.2,138.3z"/>
<path d="M96,80.1c-4,5.3-7.1,11-9.2,17.2c-2.1,6.2-3.1,12.8-3.1,20c0,3.8,0.3,7.6,0.8,11.4c0.6,3.8,1.4,7.7,2.6,11.7
	c-2.5,0.1-5,0.3-7.7,0.8c-2.3,0.4-4.8,1-7.6,1.8c-2.8,0.8-5.5,1.9-8.2,3.4c-2.1-6.2-4.6-12.1-7.6-17.7c-3-5.6-6.4-10.9-10.2-16
	c0.4,10.7-0.7,21.7-3.3,33c-5.9-2.1-11.4-3.2-16.3-3.2c-1.6,0-3.3,0.1-5.2,0.3c-1.9,0.2-3.9,0.5-6.1,1c4.1-5.3,7.2-11.1,9.3-17.2
	c2.1-6.2,3.2-12.9,3.2-20.3c0-2.4-0.1-4.8-0.4-7.4c-0.3-2.5-0.7-5.2-1.2-8c-2-1.8-4-3.5-6.1-5.1c-2-1.6-4.1-3.2-6.2-4.8
	c3,0.3,5.8,0.4,8.3,0.3c2.5-0.1,5-0.4,7.4-1c2.4-0.5,4.8-1.3,7.3-2.3c2.5-1,5.2-2.3,8.1-3.8l20.7,39.1c-0.2-1.8-0.3-3.6-0.4-5.4
	c-0.1-1.8-0.1-3.6-0.1-5.4c0-5.5,0.6-10.9,1.7-16.2c1.1-5.3,2.9-10.5,5.4-15.7c3.8,2.9,7.6,5.1,11.6,6.6
	C87.4,78.8,91.6,79.8,96,80.1z"/>
<path d="M3.2,138.3c5.6,1.4,8.6,2.7,11.9,5.6c2-1.4,15-3.3,10.4-9.5S6.9,134.1,3.2,138.3z"/>
<path d="M233,80.1c-4,5.3-7.1,11-9.2,17.2c-2.1,6.2-3.1,12.8-3.1,20c0,3.8,0.3,7.6,0.8,11.4c0.6,3.8,1.4,7.7,2.6,11.7
	c-2.5,0.1-5,0.3-7.7,0.8c-2.3,0.4-4.8,1-7.6,1.8c-2.8,0.8-5.5,1.9-8.2,3.4c-2.1-6.2-4.6-12.1-7.6-17.7c-3-5.6-6.4-10.9-10.2-16
	c0.4,10.7-0.7,21.7-3.3,33c-5.9-2.1-11.4-3.2-16.3-3.2c-1.6,0-3.3,0.1-5.2,0.3c-1.9,0.2-3.9,0.5-6.1,1c4.1-5.3,7.2-11.1,9.3-17.2
	c2.1-6.2,3.2-12.9,3.2-20.3c0-2.4-0.1-4.8-0.4-7.4c-0.3-2.5-0.7-5.2-1.2-8c-2-1.8-4-3.5-6.1-5.1c-2-1.6-4.1-3.2-6.2-4.8
	c3,0.3,5.8,0.4,8.3,0.3c2.5-0.1,5-0.4,7.4-1c2.4-0.5,4.8-1.3,7.3-2.3c2.5-1,5.2-2.3,8.1-3.8l20.7,39.1c-0.2-1.8-0.3-3.6-0.4-5.4
	c-0.1-1.8-0.1-3.6-0.1-5.4c0-5.5,0.6-10.9,1.7-16.2c1.1-5.3,2.9-10.5,5.4-15.7c3.8,2.9,7.6,5.1,11.6,6.6
	C224.4,78.8,228.6,79.8,233,80.1z"/>
<linearGradient id="SVGID_00000117636026816904050640000015132906989633073590_" gradientUnits="userSpaceOnUse" x1="46.8318" y1="138.4244" x2="46.8318" y2="62.612">
	<stop  offset="0" style="stop-color:#DC0122"/>
	<stop  offset="0.2261" style="stop-color:#DC0322"/>
	<stop  offset="0.3076" style="stop-color:#DE0A22"/>
	<stop  offset="0.3656" style="stop-color:#E01521"/>
	<stop  offset="0.4126" style="stop-color:#E32620"/>
	<stop  offset="0.4528" style="stop-color:#E73C1F"/>
	<stop  offset="0.4884" style="stop-color:#EC581E"/>
	<stop  offset="0.5206" style="stop-color:#F2781D"/>
	<stop  offset="0.5492" style="stop-color:#F89C1B"/>
	<stop  offset="0.567" style="stop-color:#FDB71A"/>
</linearGradient>
<path style="fill:url(#SVGID_00000117636026816904050640000015132906989633073590_);stroke:#000000;stroke-width:3.2269;stroke-miterlimit:10;" d="
	M88,72.1c-4,5.3-7.1,11-9.2,17.2c-2.1,6.2-3.1,12.8-3.1,20c0,3.8,0.3,7.6,0.8,11.4c0.6,3.8,1.4,7.7,2.6,11.7c-2.5,0.1-5,0.3-7.7,0.8
	c-2.3,0.4-4.8,1-7.6,1.8c-2.8,0.8-5.5,1.9-8.2,3.4c-2.1-6.2-4.6-12.1-7.6-17.7c-3-5.6-6.4-10.9-10.2-16c0.4,10.7-0.7,21.7-3.3,33
	c-5.9-2.1-11.4-3.2-16.3-3.2c-1.6,0-3.3,0.1-5.2,0.3c-1.9,0.2-3.9,0.5-6.1,1c4.1-5.3,7.2-11.1,9.3-17.2c2.1-6.2,3.2-12.9,3.2-20.3
	c0-2.4-0.1-4.8-0.4-7.4c-0.3-2.5-0.7-5.2-1.2-8c-2-1.8-4-3.5-6.1-5.1c-2-1.6-4.1-3.2-6.2-4.8c3,0.3,5.8,0.4,8.3,0.3
	c2.5-0.1,5-0.4,7.4-1c2.4-0.5,4.8-1.3,7.3-2.3c2.5-1,5.2-2.3,8.1-3.8l20.7,39.1c-0.2-1.8-0.3-3.6-0.4-5.4c-0.1-1.8-0.1-3.6-0.1-5.4
	c0-5.5,0.6-10.9,1.7-16.2c1.1-5.3,2.9-10.5,5.4-15.7c3.8,2.9,7.6,5.1,11.6,6.6C79.4,70.8,83.6,71.8,88,72.1z"/>
<linearGradient id="SVGID_00000013900223274628258960000018060307529384988347_" gradientUnits="userSpaceOnUse" x1="183.8005" y1="138.4244" x2="183.8005" y2="62.612">
	<stop  offset="0" style="stop-color:#DC0122"/>
	<stop  offset="0.2261" style="stop-color:#DC0322"/>
	<stop  offset="0.3076" style="stop-color:#DE0A22"/>
	<stop  offset="0.3656" style="stop-color:#E01521"/>
	<stop  offset="0.4126" style="stop-color:#E32620"/>
	<stop  offset="0.4528" style="stop-color:#E73C1F"/>
	<stop  offset="0.4884" style="stop-color:#EC581E"/>
	<stop  offset="0.5206" style="stop-color:#F2781D"/>
	<stop  offset="0.5492" style="stop-color:#F89C1B"/>
	<stop  offset="0.567" style="stop-color:#FDB71A"/>
</linearGradient>
<path style="fill:url(#SVGID_00000013900223274628258960000018060307529384988347_);stroke:#000000;stroke-width:3.2269;stroke-miterlimit:10;" d="
	M225,72.1c-4,5.3-7.1,11-9.2,17.2c-2.1,6.2-3.1,12.8-3.1,20c0,3.8,0.3,7.6,0.8,11.4c0.6,3.8,1.4,7.7,2.6,11.7
	c-2.5,0.1-5,0.3-7.7,0.8c-2.3,0.4-4.8,1-7.6,1.8c-2.8,0.8-5.5,1.9-8.2,3.4c-2.1-6.2-4.6-12.1-7.6-17.7c-3-5.6-6.4-10.9-10.2-16
	c0.4,10.7-0.7,21.7-3.3,33c-5.9-2.1-11.4-3.2-16.3-3.2c-1.6,0-3.3,0.1-5.2,0.3c-1.9,0.2-3.9,0.5-6.1,1c4.1-5.3,7.2-11.1,9.3-17.2
	c2.1-6.2,3.2-12.9,3.2-20.3c0-2.4-0.1-4.8-0.4-7.4c-0.3-2.5-0.7-5.2-1.2-8c-2-1.8-4-3.5-6.1-5.1c-2-1.6-4.1-3.2-6.2-4.8
	c3,0.3,5.8,0.4,8.3,0.3c2.5-0.1,5-0.4,7.4-1c2.4-0.5,4.8-1.3,7.3-2.3c2.5-1,5.2-2.3,8.1-3.8l20.7,39.1c-0.2-1.8-0.3-3.6-0.4-5.4
	c-0.1-1.8-0.1-3.6-0.1-5.4c0-5.5,0.6-10.9,1.7-16.2c1.1-5.3,2.9-10.5,5.4-15.7c3.8,2.9,7.6,5.1,11.6,6.6
	C216.4,70.8,220.6,71.8,225,72.1z"/>
<path class="st2" d="M278.6,64.7c-1.2,5.2,2.5,9.8,2.5,9.8l-13.6,2.6l-1.1-5.8L278.6,64.7z"/>
<path class="st2" d="M250.3,95.1c0.4-3.5-10.4-6.6-10.4-6.6l10.9-3.9l2.5,8.1L250.3,95.1"/>
<path class="st2" d="M281.2,74.6c-1.9,1.3-3.8,2.9-5.6,4.8c-1.9,1.9-3.7,3.9-5.3,6.2c-1.7,2.3-3.2,4.6-4.7,7.1
	c-1.4,2.5-2.6,5-3.6,7.6c-1.3-1.2-2.9-2.3-4.9-3.3c-1.9-1-6.8-1.8-6.8-1.8s4.5-8.4,6.3-12.9c1.8-4.5,3.1-9.4,4.1-14.5
	c1,0.8,2.3,1.6,4,2.5c1.6,0.8,3.4,1.6,5.2,2.3c1.9,0.7,3.8,1.2,5.8,1.6C277.6,74.5,279.4,74.6,281.2,74.6z"/>
<linearGradient id="SVGID_00000057827564402646237500000000364771577880049584_" gradientUnits="userSpaceOnUse" x1="257.7168" y1="92.2745" x2="257.7168" y2="59.735">
	<stop  offset="0" style="stop-color:#DC0122"/>
	<stop  offset="0.2261" style="stop-color:#DC0322"/>
	<stop  offset="0.3076" style="stop-color:#DE0A22"/>
	<stop  offset="0.3656" style="stop-color:#E01521"/>
	<stop  offset="0.4126" style="stop-color:#E32620"/>
	<stop  offset="0.4528" style="stop-color:#E73C1F"/>
	<stop  offset="0.4884" style="stop-color:#EC581E"/>
	<stop  offset="0.5206" style="stop-color:#F2781D"/>
	<stop  offset="0.5492" style="stop-color:#F89C1B"/>
	<stop  offset="0.567" style="stop-color:#FDB71A"/>
</linearGradient>
<path style="display:none;fill:url(#SVGID_00000057827564402646237500000000364771577880049584_);stroke:#000000;stroke-width:3.2269;stroke-miterlimit:10;" d="
	M273.2,66.6c-1.9,1.3-3.8,2.9-5.6,4.8c-1.9,1.9-3.7,3.9-5.3,6.2c-1.7,2.3-3.2,4.6-4.7,7.1c-1.4,2.5-2.6,5-3.6,7.6
	c-1.3-1.2-2.9-2.3-4.9-3.3c-1.9-1-4.2-1.6-6.8-1.8c2.4-4.1,4.5-8.4,6.3-12.9c1.8-4.5,3.1-9.4,4.1-14.5c1,0.8,2.3,1.6,4,2.5
	c1.6,0.8,3.4,1.6,5.2,2.3c1.9,0.7,3.8,1.2,5.8,1.6C269.6,66.5,271.4,66.6,273.2,66.6z"/>
<g id="Calque_5">
	<polyline points="126.3,68.3 134.3,76.3 124.2,87.4 126.3,68.3 	"/>
	<path d="M107.9,145.8c-1.6-2.3-7.4-5.1-10-5.9l4.1-1.5l7.3-0.8L107.9,145.8z"/>
	<path d="M134.3,76.3c-0.9,6.3-1.6,12.6-2.1,19.1c-0.5,6.4-0.7,12.9-0.7,19.5c0,4.9,0.1,9.8,0.4,14.7s0.6,9.6,1.2,14.3
		c-1.2,0-2.4-0.1-3.7-0.2c-1.2-0.1-2.6-0.2-4.1-0.2c-2.7,0-5.4,0.2-8.3,0.6c-2.8,0.4-5.9,0.9-9.1,1.6c0.9-5.3,1.6-10.8,2.2-16.3
		c0.6-5.6,0.8-11.2,0.8-17c0-4.8-0.2-9.6-0.6-14.4c-0.4-4.8-1.1-9.6-2-14.4c2.1-0.3,4.2-0.6,6.2-1c2-0.4,4.1-1,6.2-1.6
		c2.1-0.6,4.2-1.3,6.4-2.1C129.4,78.2,131.7,77.3,134.3,76.3z"/>
	
		<linearGradient id="SVGID_00000173135732888842935600000010742164513799873410_" gradientUnits="userSpaceOnUse" x1="113.0975" y1="137.7527" x2="113.0975" y2="68.3238">
		<stop  offset="0" style="stop-color:#DC0122"/>
		<stop  offset="0.2261" style="stop-color:#DC0322"/>
		<stop  offset="0.3076" style="stop-color:#DE0A22"/>
		<stop  offset="0.3656" style="stop-color:#E01521"/>
		<stop  offset="0.4126" style="stop-color:#E32620"/>
		<stop  offset="0.4528" style="stop-color:#E73C1F"/>
		<stop  offset="0.4884" style="stop-color:#EC581E"/>
		<stop  offset="0.5206" style="stop-color:#F2781D"/>
		<stop  offset="0.5492" style="stop-color:#F89C1B"/>
		<stop  offset="0.567" style="stop-color:#FDB71A"/>
	</linearGradient>
	
		<path style="fill:url(#SVGID_00000173135732888842935600000010742164513799873410_);stroke:#000000;stroke-width:3.2269;stroke-miterlimit:10;" d="
		M126.3,68.3c-0.9,6.3-1.6,12.6-2.1,19.1c-0.5,6.4-0.7,12.9-0.7,19.5c0,4.9,0.1,9.8,0.4,14.7c0.2,4.9,0.6,9.6,1.2,14.3
		c-1.2,0-2.4-0.1-3.7-0.2c-1.2-0.1-2.6-0.2-4.1-0.2c-2.7,0-5.4,0.2-8.3,0.6c-2.8,0.4-5.9,0.9-9.1,1.6c0.9-5.3,1.6-10.8,2.2-16.3
		c0.6-5.6,0.8-11.2,0.8-17c0-4.8-0.2-9.6-0.6-14.4c-0.4-4.8-1.1-9.6-2-14.4c2.1-0.3,4.2-0.6,6.2-1c2-0.4,4.1-1,6.2-1.6
		c2.1-0.6,4.2-1.3,6.4-2.1C121.4,70.2,123.7,69.3,126.3,68.3z"/>
</g>
<g id="Layer_34_00000152950301831667594850000010493528374884638650_">
	<polygon class="st5" points="280.4,98.6 238.6,134.3 238.4,244.2 307,156.5 293.5,103.1 317.6,43.7 301.3,38.1 	"/>
	<path d="M236.9,252.9c1.3,0.4,2.9,0,3.8-1.2l66.3-95.3c0.4-0.6,0.7-1.5,0.6-2.5l-8.2-46.7l18.3-55.6c9-1.9,16.5-8.2,19.5-17.4
		c4.5-13.6-3-28.5-16.7-33c-6.6-2.2-14-1.4-19.9,1.5s-10.9,8.4-13.4,15.1c-2.5,6.7-1.3,14.2,1.7,20c1,2,2.4,3.9,4,5.7l-18.6,55.7
		l-34.7,32.7c-0.4,0.6-1.2,1.3-1,2.3l-4,115.7C234.5,251.2,235.6,252.5,236.9,252.9z M300.8,153.7l-52.6,75.7l0,0l40.3-121.1
		l4.4,1.5L300.8,153.7z M295.6,56.1l12.4,4.1l-2,6.1l-12.4-4.1L295.6,56.1z M318.6,28.1c-0.6,1.8-1.8,3.1-3.2,3.8
		c-1.5,0.7-3.2,0.9-5,0.3c-1.8-0.6-3.1-1.7-3.8-3.2c-0.7-1.5-0.9-3.2-0.3-5c1.2-3.5,5-5.4,8.2-4.1c1.8,0.6,3.1,1.7,3.8,3.2
		C319,24.6,319.2,26.4,318.6,28.1z M291.2,69.3l12.4,4.1l-2,6.1l-12.4-4.1L291.2,69.3z M286.8,82.4l12.4,4.1l-2,6.1l-12.4-4.1
		L286.8,82.4z M245.1,135.4l32.9-31.1l4.4,1.5l0,0L242,227.3l0,0L245.1,135.4z"/>
</g>
<polygon points="304.2,209.8 313.8,215.7 315.9,207.7 305.8,207.7 "/>
<path d="M357.7,207.7c0.7-0.3,12.8,4.2,13.1,4.6l6.9-6l4.2-3.1l-15.7-1.9L357.7,207.7z"/>
<path d="M418.2,213.1c4.6-0.2,9,3.2,10.9,4.7l4.8-8.9l-4.4-3.3L418.2,213.1z"/>
<path d="M424.6,136.3c3.3,7.7,5.6,8.9,6.8,9.9l-5.6,2.2l-0.6-8.8"/>
<path d="M441.5,158.3c1,2.2,2.3,4.7,4.2,7.3c1,1.3,1.9,2.5,2.9,3.6l-4,4.7c-1.1-1.4-5.3-6.7-4-12.9
	C440.7,160.1,441,159.2,441.5,158.3z"/>
<path d="M470.1,216.8c0,0,4.7-11.6,4.7-11.6l0,0c-12.4,3.4-13.5,4.8-15.2,6.3C462.9,212.2,469.3,215.7,470.1,216.8z"/>
<polyline points="507.1,208.2 515.1,216.2 515.1,202.2 507.1,208.2 "/>
<path d="M544.4,208.4c3.8-0.5,6.8,3,9.3,5.7l4.5-11.8l-15,6.4"/>
<path d="M657.9,132.4c0.9,7.1,6,10.5,6,10.5l-10.1,11.1L657.9,132.4z"/>
<path d="M637.7,212.3c-1.6-2.3-7.4-5.1-10-5.9l4.1-1.5l7.3-0.8L637.7,212.3z"/>
<path d="M663.9,206.1c2.2-0.1,11,3.7,11.9,5.6l6.1-8.2l-14.1,0.2"/>
<path d="M715.6,208.5c2.9,1,6.8,3.6,8.9,5.7l0.2-11.4c-0.8,0-8.2,3.4-8.2,3.4L715.6,208.5z"/>
<path d="M751.8,138.5c0.1,2.9,2.1,8.1,4.9,9.4l-12.5-1.2L751.8,138.5z"/>
<line x1="744.2" y1="145.1" x2="748.8" y2="139.9"/>
<path d="M536.5,143.8c-0.2,5.3,4.2,11.8,5.9,11.5l-6.7,6.2l-2.8-9.9L536.5,143.8z"/>
<path d="M371,185.4c-2.5,4.4-5.6,8.4-9.1,11.9c-3.6,3.5-7.7,6.6-12.5,9.1s-10.1,4.6-16,6.1c-5.9,1.5-12.5,2.6-19.6,3.1
	c0-2.4,0-4.6,0-6.7c0-2.1-0.2-4.2-0.4-6.2c-0.3-2-0.7-4.1-1.2-6.2c-0.6-2.1-1.4-4.3-2.5-6.6c4.6,1.6,8.9,2.7,13,3.4
	c4.1,0.7,8.1,1.1,11.9,1.1c1.7,0,3.4-0.1,5.2-0.2c1.7-0.1,3.4-0.3,5.2-0.5c-0.6-9.2-1.6-18.4-2.9-27.7c-1.4-9.2-3.2-18.1-5.4-26.7
	c4.8,1.9,9.3,3.5,13.7,4.7c4.4,1.2,8.6,1.8,12.7,1.8h3.4c-0.5,2.7-0.9,5.5-1.2,8.4c-0.3,2.9-0.6,5.9-0.9,8.9c-0.3,3-0.5,6-0.6,9
	c-0.1,3-0.2,5.8-0.2,8.6c0,1.3,0,2.6,0,3.9c0,1.3,0.1,2.6,0.2,3.8c1.2-0.5,2.4-1,3.7-1.5C368.5,186.6,369.7,186,371,185.4z"/>
<path d="M455.7,188.9c-1.4,0.8-2.7,1.5-4.1,2.2c-1.3,0.7-2.7,1.4-4.1,2c3,6.3,6.3,12.1,9.9,17.7c-5,0-9.9,0.6-14.5,1.7
	c-4.6,1.1-9.2,2.9-14,5.3c0.4-1,0.6-2,0.7-3c0.1-1,0.1-2.1,0.1-3.2c0-1.8-0.1-3.8-0.4-6c-0.3-2.2-0.7-4.4-1.3-6.8
	c-1.4,0.2-2.7,0.4-4.1,0.5c-1.4,0.1-2.7,0.1-4,0.1c-2.3,0-4.6-0.2-6.8-0.5c-2.2-0.3-4.4-0.9-6.4-1.6c-0.6,2.8-1.1,5.6-1.5,8.6
	c-0.5,2.9-0.9,5.9-1.4,9c-1.7-1-3.5-1.9-5.5-2.7c-1.7-0.6-3.7-1.2-5.9-1.8c-2.2-0.6-4.6-0.8-7.1-0.8c-2.1,0-4.4,0.2-6.7,0.6
	c-2.4,0.4-5,1.1-7.9,2c2.2-2.5,4.3-5.1,6.2-7.7c1.9-2.6,3.7-5.1,5.3-7.6s3-4.7,4.3-6.8c1.3-2.1,2.3-4,3.1-5.6
	c-0.9-1.3-1.8-2.7-2.6-4.2c-0.8-1.5-1.6-3.1-2.3-4.9c1.3,0.8,2.6,1.4,3.9,2.1s2.5,1.2,3.8,1.7c1.5-3.1,3.1-6.1,4.7-9.2
	c1.7-3.1,3.4-6.1,5.3-9c-0.4-1.1-0.9-2.3-1.5-3.7c-0.6-1.4-1.3-2.8-2-4.3c-0.7-1.5-1.4-3-2.2-4.4s-1.5-2.8-2.3-4.1
	c3.1,1,6.3,1.8,9.4,2.3c3.1,0.6,6.3,0.9,9.4,1.1c1.8-1.7,3.7-3.2,5.6-4.7s4-2.7,6.2-3.8c-0.7,1.3-1.4,2.7-2,4.1
	c-0.7,1.4-1.3,2.8-1.9,4.2c1.6-0.2,3.3-0.4,4.9-0.6c1.7-0.2,3.4-0.6,5.2-1c1.2,5.1,2.5,10,4,14.9c1.4,4.8,3,9.6,4.6,14.2
	c1.4-0.9,2.9-1.9,4.3-2.9c1.4-1,2.8-2.1,4.2-3.2c1,4,2.1,7.6,3.3,10.9C453,183.3,454.3,186.3,455.7,188.9z M423,182.9
	c-1.1-2.9-2.4-5.9-3.7-8.9c-1.4-3-2.8-6-4.4-9.1c-6.4,4.1-7.4,10.7-5.3,19c0.6,0.1,1.2,0.1,1.7,0.1c0.6,0,1.1,0,1.7,0
	c1.7,0,3.3-0.1,5-0.3C419.6,183.6,421.3,183.3,423,182.9z"/>
<path d="M542.6,207.2c-4.8,0.4-9.4,1.4-13.8,2.9c-4.5,1.5-9,3.5-13.6,6.1c-3.5-3.6-6-4.5-9.2-5.2c-1.3,0.3,1.5-16.7,0.1-16.5
	c-1.3,0.2-2.7,0.3-4.2,0.3c-0.6,0-1.1,0-1.6,0s-1.1,0-1.6-0.1c0.1,5.8,0.3,11.7,0.6,17.5c-1-0.2-2.1-0.3-3.1-0.4c-1-0.1-2-0.1-3-0.1
	c-3.2,0-6.8,0.4-10.6,1.3c-3.8,0.8-8,2.1-12.4,3.8c1.7-5.2,3.1-10.4,4.3-15.5c1.2-5.1,2.1-10.3,2.8-15.5c-2.2-1.7-4.1-3.4-5.7-5
	c-1.6-1.6-2.8-3-3.6-4.1c1.6,0.5,3.2,1,5,1.5s3.4,0.8,5.2,1.2c0.4-4.3,0.6-8.6,0.6-13v-2.1c-1.8,0.6-3.5,1.3-5.2,2
	c-1.7,0.7-2.1,2.2-3.9,3.1c1-3.8,0.2-8,0.2-11.2c0-2.7-0.3-5.2-0.9-7.6c-0.6-2.4-1.4-4.6-2.5-6.8c7-1.1,13.2-1.9,18.6-2.3
	c5.4-0.4,10.2-0.6,14.4-0.6c2,0,4.2,0,6.7,0.1c2.5,0.1,5.1,0.3,7.8,0.7c2.7,0.4,5.3,0.9,8,1.6c2.7,0.7,5.1,1.7,7.3,2.9
	c2.2,1.2,4.1,2.8,5.7,4.7c1.6,1.9,2.6,4.1,3.2,6.8c0.7-0.4,1.5-0.8,2.2-1.2c0.7-0.4,1.4-0.9,2.2-1.4c-0.4,2.7-1,5.4-2,8.1
	c-0.9,2.7-2,5.3-3.4,7.8c-1.4,2.5-2.9,4.9-4.7,7.2c-1.8,2.3-3.7,4.3-5.8,6.3C531.3,193.2,540.2,202.2,542.6,207.2z M509.5,158.2
	c-1.3,0-2.8,0.1-4.6,0.3c-1.8,0.2-3.7,0.4-5.9,0.6c-0.1,3.6-0.2,7.2-0.3,10.8c-0.1,3.6-0.1,7.2-0.1,10.7c2-0.3,3.8-0.9,5.5-1.7
	c1.7-0.8,3.3-1.8,4.6-3c1.3-1.2,2.4-2.8,3.3-4.5c0.9-1.8,1.4-3.9,1.7-6.3c1.2-0.2,2.5-0.5,3.8-0.7c1.3-0.2,2.6-0.5,3.9-0.8
	c-0.1,0-0.1,0-0.1-0.1v-0.1h0.1c-0.7-0.8-1.3-1.6-2-2.2c-0.7-0.7-1.5-1.2-2.4-1.7c-0.9-0.5-2-0.8-3.2-1
	C512.6,158.3,511.2,158.2,509.5,158.2z"/>
<path d="M625.4,172.8c0.1,0.6,0.1,1.3,0.1,1.9c0,0.6,0,1.3,0,1.9c0,3.4-0.5,6.6-1.5,9.7c-1,3.1-2.4,6.1-4.2,8.8
	c-1.8,2.7-3.9,5.3-6.4,7.5c-2.5,2.3-5.2,4.2-8.1,5.9s-6.1,2.9-9.4,3.8c-3.3,0.9-6.7,1.4-10.2,1.4c-2.5,0-5.1-0.3-7.7-0.9
	c-2.6-0.6-5.1-1.7-7.5-3.3c-2.5,0.3-5.2,0.9-8.1,1.8c-2.8,0.8-5.8,1.8-8.9,2.9c2.6-8,4.6-16,6.1-24.1c1.5-8.1,2.3-16.3,2.4-24.5
	c-2.1,1.1-4.2,2.4-6.3,4.1c0.2-1.3,0.3-2.5,0.4-3.4c0.1-1,0.1-1.8,0.1-2.4c0-7.6-1.9-14.1-5.7-19.7c1.1-0.4,2.4-0.7,3.9-1
	c1.5-0.3,3.1-0.6,4.8-0.8c1.7-0.3,3.4-0.5,5.2-0.7c1.8-0.2,3.5-0.3,5.2-0.5c1.7-0.1,3.2-0.2,4.7-0.3c1.5-0.1,2.7-0.1,3.8-0.1
	c6.5,0,12.5,0.8,17.8,2.4c5.4,1.6,9.9,3.8,13.7,6.6c3.8,2.8,6.7,6.1,8.8,9.8c2.1,3.7,3.1,7.7,3.1,12c0,0.5,0,0.9,0,1.3
	c0,0.4,0,0.8,0,1.2C622.8,173.7,624.1,173.3,625.4,172.8z M603.8,176.5c-0.7-2.7-1.9-5.1-3.6-6.9c-1.6-1.9-3.5-3.4-5.5-4.5
	c-2-1.2-4.1-2-6.3-2.6c-2.2-0.6-4.2-1-6-1.2c-0.2,7.3-0.3,14.6-0.3,21.9c0,3.2,0,6.5,0.1,9.7c0,3.3,0.1,6.5,0.2,9.8
	c2.5-0.9,4.9-2.2,7.1-3.7c2.2-1.5,4.1-3.4,5.6-5.6c1.5-2.2,2.7-4.7,3.4-7.5c0.7-2.8,0.9-5.9,0.6-9.3c0.7,0,1.4,0,2.1,0
	C602.2,176.6,602.9,176.6,603.8,176.5z"/>
<path d="M664,142.8c-0.9,6.3-1.6,12.6-2.1,19.1c-0.5,6.4-0.7,12.9-0.7,19.5c0,4.9,0.1,9.8,0.4,14.7c0.2,4.9,0.6,9.6,1.2,14.3
	c-1.2,0-2.4-0.1-3.7-0.2c-1.2-0.1-2.6-0.2-4.1-0.2c-2.7,0-5.4,0.2-8.3,0.6c-2.8,0.4-5.9,0.9-9.1,1.6c0.9-5.3,1.6-10.8,2.2-16.3
	c0.6-5.6,0.8-11.2,0.8-17c0-4.8-0.2-9.6-0.6-14.4c-0.4-4.8-1.1-9.6-2-14.4c2.1-0.3,4.2-0.6,6.2-1c2-0.4,4.1-1,6.2-1.6
	c2.1-0.6,4.2-1.3,6.4-2.1C659.1,144.7,661.5,143.8,664,142.8z"/>
<path d="M756.8,147.9c-4,5.3-7.1,11-9.2,17.2c-2.1,6.2-3.1,12.8-3.1,20c0,3.8,0.3,7.6,0.8,11.4c0.6,3.8,1.4,7.7,2.6,11.7
	c-2.5,0.1-5,0.3-7.7,0.8c-2.3,0.4-4.8,1-7.6,1.8c-2.8,0.8-5.5,1.9-8.2,3.4c-2.1-6.2-4.6-12.1-7.6-17.7c-3-5.6-6.4-10.9-10.2-16
	c0.4,10.7-0.7,21.7-3.3,33c-5.9-2.1-11.4-3.2-16.3-3.2c-1.6,0-3.3,0.1-5.2,0.3c-1.9,0.2-3.9,0.5-6.1,1c4.1-5.3,7.2-11.1,9.3-17.2
	c2.1-6.2,3.2-12.9,3.2-20.3c0-2.4-0.1-4.8-0.4-7.4c-0.3-2.5-0.7-5.2-1.2-8c-2-1.8-4-3.5-6.1-5.1c-2-1.6-4.1-3.2-6.2-4.8
	c3,0.3,5.8,0.4,8.3,0.3c2.5-0.1,5-0.4,7.4-1c2.4-0.5,8-16.3,8-16.3c1.4,0.9,3.3,1.4,3.3,1.4l24.7,47.8c-0.2-1.8-0.3-3.6-0.4-5.4
	c-0.1-1.8-0.1-3.6-0.1-5.4c0-5.5,0.6-10.9,1.7-16.2c1.1-5.3,2.9-10.5,5.4-15.7c3.8,2.9,7.6,5.1,11.6,6.6
	C748.2,146.6,752.3,147.6,756.8,147.9z"/>
<linearGradient id="SVGID_00000155110468611322394770000017414215999271767710_" gradientUnits="userSpaceOnUse" x1="332.2712" y1="207.7235" x2="332.2712" y2="131.5156">
	<stop  offset="0" style="stop-color:#DC0122"/>
	<stop  offset="0.2261" style="stop-color:#DC0322"/>
	<stop  offset="0.3076" style="stop-color:#DE0A22"/>
	<stop  offset="0.3656" style="stop-color:#E01521"/>
	<stop  offset="0.4126" style="stop-color:#E32620"/>
	<stop  offset="0.4528" style="stop-color:#E73C1F"/>
	<stop  offset="0.4884" style="stop-color:#EC581E"/>
	<stop  offset="0.5206" style="stop-color:#F2781D"/>
	<stop  offset="0.5492" style="stop-color:#F89C1B"/>
	<stop  offset="0.567" style="stop-color:#FDB71A"/>
</linearGradient>
<path style="fill:url(#SVGID_00000155110468611322394770000017414215999271767710_);stroke:#000000;stroke-width:3.2269;stroke-miterlimit:10;" d="
	M363,177.4c-2.5,4.4-5.6,8.4-9.1,11.9c-3.6,3.5-7.7,6.6-12.5,9.1s-10.1,4.6-16,6.1c-5.9,1.5-12.5,2.6-19.6,3.1c0-2.4,0-4.6,0-6.7
	c0-2.1-0.2-4.2-0.4-6.2c-0.3-2-0.7-4.1-1.2-6.2c-0.6-2.1-1.4-4.3-2.5-6.6c4.6,1.6,8.9,2.7,13,3.4c4.1,0.7,8.1,1.1,11.9,1.1
	c1.7,0,3.4-0.1,5.2-0.2c1.7-0.1,3.4-0.3,5.2-0.5c-0.6-9.2-1.6-18.4-2.9-27.7c-1.4-9.2-3.2-18.1-5.4-26.7c4.8,1.9,9.3,3.5,13.7,4.7
	c4.4,1.2,8.6,1.8,12.7,1.8h3.4c-0.5,2.7-0.9,5.5-1.2,8.4c-0.3,2.9-0.6,5.9-0.9,8.9c-0.3,3-0.5,6-0.6,9c-0.1,3-0.2,5.8-0.2,8.6
	c0,1.3,0,2.6,0,3.9c0,1.3,0.1,2.6,0.2,3.8c1.2-0.5,2.4-1,3.7-1.5C360.5,178.6,361.7,178,363,177.4z"/>
<linearGradient id="SVGID_00000035522678738234617320000018391484461567005320_" gradientUnits="userSpaceOnUse" x1="406.1677" y1="209.8137" x2="406.1677" y2="131.5156">
	<stop  offset="0" style="stop-color:#DC0122"/>
	<stop  offset="0.2261" style="stop-color:#DC0322"/>
	<stop  offset="0.3076" style="stop-color:#DE0A22"/>
	<stop  offset="0.3656" style="stop-color:#E01521"/>
	<stop  offset="0.4126" style="stop-color:#E32620"/>
	<stop  offset="0.4528" style="stop-color:#E73C1F"/>
	<stop  offset="0.4884" style="stop-color:#EC581E"/>
	<stop  offset="0.5206" style="stop-color:#F2781D"/>
	<stop  offset="0.5492" style="stop-color:#F89C1B"/>
	<stop  offset="0.567" style="stop-color:#FDB71A"/>
</linearGradient>
<path style="fill:url(#SVGID_00000035522678738234617320000018391484461567005320_);stroke:#000000;stroke-width:3.2269;stroke-miterlimit:10;" d="
	M447.7,180.9c-1.4,0.8-2.7,1.5-4.1,2.2c-1.3,0.7-2.7,1.4-4.1,2c3,6.3,6.3,12.1,9.9,17.7c-5,0-9.9,0.6-14.5,1.7
	c-4.6,1.1-9.2,2.9-14,5.3c0.4-1,0.6-2,0.7-3c0.1-1,0.1-2.1,0.1-3.2c0-1.8-0.1-3.8-0.4-6c-0.3-2.2-0.7-4.4-1.3-6.8
	c-1.4,0.2-2.7,0.4-4.1,0.5c-1.4,0.1-2.7,0.1-4,0.1c-2.3,0-4.6-0.2-6.8-0.5c-2.2-0.3-4.4-0.9-6.4-1.6c-0.6,2.8-1.1,5.6-1.5,8.6
	c-0.5,2.9-0.9,5.9-1.4,9c-1.7-1-3.5-1.9-5.5-2.7c-1.7-0.6-3.7-1.2-5.9-1.8c-2.2-0.6-4.6-0.8-7.1-0.8c-2.1,0-4.4,0.2-6.7,0.6
	c-2.4,0.4-5,1.1-7.9,2c2.2-2.5,4.3-5.1,6.2-7.7c1.9-2.6,3.7-5.1,5.3-7.6s3-4.7,4.3-6.8c1.3-2.1,2.3-4,3.1-5.6
	c-0.9-1.3-1.8-2.7-2.6-4.2c-0.8-1.5-1.6-3.1-2.3-4.9c1.3,0.8,2.6,1.4,3.9,2.1s2.5,1.2,3.8,1.7c1.5-3.1,3.1-6.1,4.7-9.2
	c1.7-3.1,3.4-6.1,5.3-9c-0.4-1.1-0.9-2.3-1.5-3.7c-0.6-1.4-1.3-2.8-2-4.3c-0.7-1.5-1.4-3-2.2-4.4s-1.5-2.8-2.3-4.1
	c3.1,1,6.3,1.8,9.4,2.3c3.1,0.6,6.3,0.9,9.4,1.1c1.8-1.7,3.7-3.2,5.6-4.7s4-2.7,6.2-3.8c-0.7,1.3-1.4,2.7-2,4.1
	c-0.7,1.4-1.3,2.8-1.9,4.2c1.6-0.2,3.3-0.4,4.9-0.6c1.7-0.2,3.4-0.6,5.2-1c1.2,5.1,2.5,10,4,14.9c1.4,4.8,3,9.6,4.6,14.2
	c1.4-0.9,2.9-1.9,4.3-2.9c1.4-1,2.8-2.1,4.2-3.2c1,4,2.1,7.6,3.3,10.9C445,175.3,446.3,178.3,447.7,180.9z M415,174.9
	c-1.1-2.9-2.4-5.9-3.7-8.9c-1.4-3-2.8-6-4.4-9.1c-1.9,6-3.7,12.3-5.3,19c0.6,0.1,1.2,0.1,1.7,0.1c0.6,0,1.1,0,1.7,0
	c1.7,0,3.3-0.1,5-0.3C411.6,175.6,413.3,175.3,415,174.9z"/>
<linearGradient id="SVGID_00000080887007322924201360000006741672634556724378_" gradientUnits="userSpaceOnUse" x1="496.446" y1="208.7969" x2="496.446" y2="132.9844">
	<stop  offset="0" style="stop-color:#DC0122"/>
	<stop  offset="0.2261" style="stop-color:#DC0322"/>
	<stop  offset="0.3076" style="stop-color:#DE0A22"/>
	<stop  offset="0.3656" style="stop-color:#E01521"/>
	<stop  offset="0.4126" style="stop-color:#E32620"/>
	<stop  offset="0.4528" style="stop-color:#E73C1F"/>
	<stop  offset="0.4884" style="stop-color:#EC581E"/>
	<stop  offset="0.5206" style="stop-color:#F2781D"/>
	<stop  offset="0.5492" style="stop-color:#F89C1B"/>
	<stop  offset="0.567" style="stop-color:#FDB71A"/>
</linearGradient>
<path style="fill:url(#SVGID_00000080887007322924201360000006741672634556724378_);stroke:#000000;stroke-width:3.2269;stroke-miterlimit:10;" d="
	M534.6,199.2c-4.8,0.4-9.4,1.4-13.8,2.9c-4.5,1.5-9,3.5-13.6,6.1c-0.7-8.1-2.4-15.6-5.1-22.4c-1.3,0.3-2.6,0.6-4,0.8
	c-1.3,0.2-2.7,0.3-4.2,0.3c-0.6,0-1.1,0-1.6,0s-1.1,0-1.6-0.1c0.1,5.8,0.3,11.7,0.6,17.5c-1-0.2-2.1-0.3-3.1-0.4c-1-0.1-2-0.1-3-0.1
	c-3.2,0-6.8,0.4-10.6,1.3c-3.8,0.8-8,2.1-12.4,3.8c1.7-5.2,3.1-10.4,4.3-15.5c1.2-5.1,2.1-10.3,2.8-15.5c-2.2-1.7-4.1-3.4-5.7-5
	c-1.6-1.6-2.8-3-3.6-4.1c1.6,0.5,3.2,1,5,1.5s3.4,0.8,5.2,1.2c0.4-4.3,0.6-8.6,0.6-13v-2.1c-1.8,0.6-3.5,1.3-5.2,2
	c-1.7,0.7-3.5,1.5-5.2,2.4c1-3.8,1.5-7.2,1.5-10.5c0-2.7-0.3-5.2-0.9-7.6c-0.6-2.4-1.4-4.6-2.5-6.8c7-1.1,13.2-1.9,18.6-2.3
	c5.4-0.4,10.2-0.6,14.4-0.6c2,0,4.2,0,6.7,0.1c2.5,0.1,5.1,0.3,7.8,0.7c2.7,0.4,5.3,0.9,8,1.6c2.7,0.7,5.1,1.7,7.3,2.9
	c2.2,1.2,4.1,2.8,5.7,4.7c1.6,1.9,2.6,4.1,3.2,6.8c0.7-0.4,1.5-0.8,2.2-1.2c0.7-0.4,1.4-0.9,2.2-1.4c-0.4,2.7-1,5.4-2,8.1
	c-0.9,2.7-2,5.3-3.4,7.8c-1.4,2.5-2.9,4.9-4.7,7.2c-1.8,2.3-3.7,4.3-5.8,6.3C523.3,185.2,528.6,192.7,534.6,199.2z M501.5,150.2
	c-1.3,0-2.8,0.1-4.6,0.3c-1.8,0.2-3.7,0.4-5.9,0.6c-0.1,3.6-0.2,7.2-0.3,10.8c-0.1,3.6-0.1,7.2-0.1,10.7c2-0.3,3.8-0.9,5.5-1.7
	c1.7-0.8,3.3-1.8,4.6-3c1.3-1.2,2.4-2.8,3.3-4.5c0.9-1.8,1.4-3.9,1.7-6.3c1.2-0.2,2.5-0.5,3.8-0.7c1.3-0.2,2.6-0.5,3.9-0.8
	c-0.1,0-0.1,0-0.1-0.1v-0.1h0.1c-0.7-0.8-1.3-1.6-2-2.2c-0.7-0.7-1.5-1.2-2.4-1.7c-0.9-0.5-2-0.8-3.2-1
	C504.6,150.3,503.2,150.2,501.5,150.2z"/>
<linearGradient id="SVGID_00000057858469196158646560000008134159375785423247_" gradientUnits="userSpaceOnUse" x1="580.1326" y1="206.1418" x2="580.1326" y2="132.6454">
	<stop  offset="0" style="stop-color:#DC0122"/>
	<stop  offset="0.2261" style="stop-color:#DC0322"/>
	<stop  offset="0.3076" style="stop-color:#DE0A22"/>
	<stop  offset="0.3656" style="stop-color:#E01521"/>
	<stop  offset="0.4126" style="stop-color:#E32620"/>
	<stop  offset="0.4528" style="stop-color:#E73C1F"/>
	<stop  offset="0.4884" style="stop-color:#EC581E"/>
	<stop  offset="0.5206" style="stop-color:#F2781D"/>
	<stop  offset="0.5492" style="stop-color:#F89C1B"/>
	<stop  offset="0.567" style="stop-color:#FDB71A"/>
</linearGradient>
<path style="fill:url(#SVGID_00000057858469196158646560000008134159375785423247_);stroke:#000000;stroke-width:3.2269;stroke-miterlimit:10;" d="
	M617.4,164.8c0.1,0.6,0.1,1.3,0.1,1.9c0,0.6,0,1.3,0,1.9c0,3.4-0.5,6.6-1.5,9.7c-1,3.1-2.4,6.1-4.2,8.8c-1.8,2.7-3.9,5.3-6.4,7.5
	c-2.5,2.3-5.2,4.2-8.1,5.9s-6.1,2.9-9.4,3.8c-3.3,0.9-6.7,1.4-10.2,1.4c-2.5,0-5.1-0.3-7.7-0.9c-2.6-0.6-5.1-1.7-7.5-3.3
	c-2.5,0.3-5.2,0.9-8.1,1.8c-2.8,0.8-5.8,1.8-8.9,2.9c2.6-8,4.6-16,6.1-24.1c1.5-8.1,2.3-16.3,2.4-24.5c-2.1,1.1-4.2,2.4-6.3,4.1
	c0.2-1.3,0.3-2.5,0.4-3.4c0.1-1,0.1-1.8,0.1-2.4c0-7.6-1.9-14.1-5.7-19.7c1.1-0.4,2.4-0.7,3.9-1c1.5-0.3,3.1-0.6,4.8-0.8
	c1.7-0.3,3.4-0.5,5.2-0.7c1.8-0.2,3.5-0.3,5.2-0.5c1.7-0.1,3.2-0.2,4.7-0.3c1.5-0.1,2.7-0.1,3.8-0.1c6.5,0,12.5,0.8,17.8,2.4
	c5.4,1.6,9.9,3.8,13.7,6.6c3.8,2.8,6.7,6.1,8.8,9.8c2.1,3.7,3.1,7.7,3.1,12c0,0.5,0,0.9,0,1.3c0,0.4,0,0.8,0,1.2
	C614.8,165.7,616.1,165.3,617.4,164.8z M595.8,168.5c-0.7-2.7-1.9-5.1-3.6-6.9c-1.6-1.9-3.5-3.4-5.5-4.5c-2-1.2-4.1-2-6.3-2.6
	c-2.2-0.6-4.2-1-6-1.2c-0.2,7.3-0.3,14.6-0.3,21.9c0,3.2,0,6.5,0.1,9.7c0,3.3,0.1,6.5,0.2,9.8c2.5-0.9,4.9-2.2,7.1-3.7
	c2.2-1.5,4.1-3.4,5.6-5.6c1.5-2.2,2.7-4.7,3.4-7.5c0.7-2.8,0.9-5.9,0.6-9.3c0.7,0,1.4,0,2.1,0C594.2,168.6,594.9,168.6,595.8,168.5z
	"/>
<linearGradient id="SVGID_00000099620710336036531880000000454593445221257101_" gradientUnits="userSpaceOnUse" x1="642.823" y1="204.2775" x2="642.823" y2="134.8486">
	<stop  offset="0" style="stop-color:#DC0122"/>
	<stop  offset="0.2261" style="stop-color:#DC0322"/>
	<stop  offset="0.3076" style="stop-color:#DE0A22"/>
	<stop  offset="0.3656" style="stop-color:#E01521"/>
	<stop  offset="0.4126" style="stop-color:#E32620"/>
	<stop  offset="0.4528" style="stop-color:#E73C1F"/>
	<stop  offset="0.4884" style="stop-color:#EC581E"/>
	<stop  offset="0.5206" style="stop-color:#F2781D"/>
	<stop  offset="0.5492" style="stop-color:#F89C1B"/>
	<stop  offset="0.567" style="stop-color:#FDB71A"/>
</linearGradient>
<path style="fill:url(#SVGID_00000099620710336036531880000000454593445221257101_);stroke:#000000;stroke-width:3.2269;stroke-miterlimit:10;" d="
	M656,134.8c-0.9,6.3-1.6,12.6-2.1,19.1c-0.5,6.4-0.7,12.9-0.7,19.5c0,4.9,0.1,9.8,0.4,14.7c0.2,4.9,0.6,9.6,1.2,14.3
	c-1.2,0-2.4-0.1-3.7-0.2c-1.2-0.1-2.6-0.2-4.1-0.2c-2.7,0-5.4,0.2-8.3,0.6c-2.8,0.4-5.9,0.9-9.1,1.6c0.9-5.3,1.6-10.8,2.2-16.3
	c0.6-5.6,0.8-11.2,0.8-17c0-4.8-0.2-9.6-0.6-14.4c-0.4-4.8-1.1-9.6-2-14.4c2.1-0.3,4.2-0.6,6.2-1c2-0.4,4.1-1,6.2-1.6
	c2.1-0.6,4.2-1.3,6.4-2.1C651.1,136.7,653.5,135.8,656,134.8z"/>
<linearGradient id="SVGID_00000090259640795159490790000008706569106114320269_" gradientUnits="userSpaceOnUse" x1="707.5642" y1="206.2547" x2="707.5642" y2="130.4423">
	<stop  offset="0" style="stop-color:#DC0122"/>
	<stop  offset="0.2261" style="stop-color:#DC0322"/>
	<stop  offset="0.3076" style="stop-color:#DE0A22"/>
	<stop  offset="0.3656" style="stop-color:#E01521"/>
	<stop  offset="0.4126" style="stop-color:#E32620"/>
	<stop  offset="0.4528" style="stop-color:#E73C1F"/>
	<stop  offset="0.4884" style="stop-color:#EC581E"/>
	<stop  offset="0.5206" style="stop-color:#F2781D"/>
	<stop  offset="0.5492" style="stop-color:#F89C1B"/>
	<stop  offset="0.567" style="stop-color:#FDB71A"/>
</linearGradient>
<path style="fill:url(#SVGID_00000090259640795159490790000008706569106114320269_);stroke:#000000;stroke-width:3.2269;stroke-miterlimit:10;" d="
	M748.8,139.9c-4,5.3-7.1,11-9.2,17.2c-2.1,6.2-3.1,12.8-3.1,20c0,3.8,0.3,7.6,0.8,11.4c0.6,3.8,1.4,7.7,2.6,11.7
	c-2.5,0.1-5,0.3-7.7,0.8c-2.3,0.4-4.8,1-7.6,1.8c-2.8,0.8-5.5,1.9-8.2,3.4c-2.1-6.2-4.6-12.1-7.6-17.7c-3-5.6-6.4-10.9-10.2-16
	c0.4,10.7-0.7,21.7-3.3,33c-5.9-2.1-11.4-3.2-16.3-3.2c-1.6,0-3.3,0.1-5.2,0.3c-1.9,0.2-3.9,0.5-6.1,1c4.1-5.3,7.2-11.1,9.3-17.2
	c2.1-6.2,3.2-12.9,3.2-20.3c0-2.4-0.1-4.8-0.4-7.4c-0.3-2.5-0.7-5.2-1.2-8c-2-1.8-4-3.5-6.1-5.1c-2-1.6-4.1-3.2-6.2-4.8
	c3,0.3,5.8,0.4,8.3,0.3c2.5-0.1,5-0.4,7.4-1c2.4-0.5,4.8-1.3,7.3-2.3c2.5-1,5.2-2.3,8.1-3.8l20.7,39.1c-0.2-1.8-0.3-3.6-0.4-5.4
	c-0.1-1.8-0.1-3.6-0.1-5.4c0-5.5,0.6-10.9,1.7-16.2c1.1-5.3,2.9-10.5,5.4-15.7c3.8,2.9,7.6,5.1,11.6,6.6
	C740.2,138.6,744.3,139.6,748.8,139.9z"/>
<path d="M360.1,136.5c0.3,1,3.7,8,6.1,9.6l-9.3,6l1.3-14L360.1,136.5z"/>
<polygon points="91.1,70.6 96,80.1 83.1,86 83.5,77.2 "/>
<path d="M128.3,65.8c1.4,4.3,3.5,7.2,6,10.5l-9.1-1.1l1.1-6.9L128.3,65.8z"/>
<polygon points="174.2,64.2 181.6,74.2 179.8,77.9 "/>
<path d="M228.1,70.7c0.3,2.4,3.7,9.3,4.9,9.4L219.6,85l0.9-7.8L228.1,70.7z"/>
<polygon points="37.3,64.1 44.6,74.2 42.9,77.7 "/>
</svg>
